<!-- Generated by IcoMoon.io -->
<svg version="1.1" xmlns="http://www.w3.org/2000/svg" width="16" height="16" viewBox="0 0 16 16">
<title>branch-authorize</title>
<path d="M16 9c0-0.552-0.448-1-1-1h-6c-0.552 0-1 0.448-1 1v6c0 0.552 0.448 1 1 1h6c0.552 0 1-0.448 1-1v-2h-1v2h-6v-6h7z"></path>
<path d="M15.175 10.12c0.21-0.18 0.525-0.155 0.705 0.054s0.155 0.525-0.054 0.705l-3.5 3c-0.228 0.195-0.575 0.147-0.741-0.102l-1-1.5c-0.153-0.23-0.091-0.54 0.139-0.693s0.54-0.091 0.693 0.139l0.687 1.030 3.072-2.633z"></path>
<path d="M12.5 0c0.828 0 1.5 0.672 1.5 1.5s-0.672 1.5-1.5 1.5c-0.653 0-1.208-0.417-1.414-0.999l-2.281-0.001c-1.080 0-2.066 0.591-2.579 1.529l-0.090 0.18-0.394 0.855c-0.072 0.156-0.159 0.302-0.259 0.437l2.602-0.001c0.206-0.583 0.762-1 1.415-1 0.828 0 1.5 0.672 1.5 1.5s-0.672 1.5-1.5 1.5c-0.653 0-1.208-0.417-1.414-0.999l-5.2-0.001c0.098 0.145 0.181 0.303 0.245 0.472l0.056 0.168 0.513 1.76c0.066 0.226 0.222 0.407 0.422 0.509 0.23-0.536 0.761-0.909 1.378-0.909 0.828 0 1.5 0.672 1.5 1.5s-0.672 1.5-1.5 1.5c-0.672 0-1.241-0.442-1.432-1.051-0.579-0.14-1.062-0.557-1.28-1.125l-0.048-0.144-0.513-1.76c-0.159-0.545-0.659-0.92-1.227-0.92h-0.5c-0.276 0-0.5-0.224-0.5-0.5 0-0.245 0.177-0.45 0.41-0.492l0.090-0.008h3c0.525 0 1.007-0.28 1.268-0.728l0.066-0.126 0.394-0.855c0.614-1.333 1.915-2.208 3.369-2.285l0.209-0.005 2.28 0c0.206-0.583 0.762-1 1.415-1zM5.5 9c-0.276 0-0.5 0.224-0.5 0.5s0.224 0.5 0.5 0.5c0.276 0 0.5-0.224 0.5-0.5s-0.224-0.5-0.5-0.5zM9.5 5c-0.276 0-0.5 0.224-0.5 0.5s0.224 0.5 0.5 0.5c0.276 0 0.5-0.224 0.5-0.5s-0.224-0.5-0.5-0.5zM12.5 1c-0.276 0-0.5 0.224-0.5 0.5s0.224 0.5 0.5 0.5c0.276 0 0.5-0.224 0.5-0.5s-0.224-0.5-0.5-0.5z"></path>
</svg>
