<!-- Generated by IcoMoon.io -->
<svg version="1.1" xmlns="http://www.w3.org/2000/svg" width="16" height="16" viewBox="0 0 16 16">
<title>branch</title>
<path d="M1 6v3h2v-3h-2zM1 5h2c0.552 0 1 0.448 1 1v3c0 0.552-0.448 1-1 1h-2c-0.552 0-1-0.448-1-1v-3c0-0.552 0.448-1 1-1zM11.5 1c0.828 0 1.5 0.672 1.5 1.5s-0.672 1.5-1.5 1.5c-0.828 0-1.5-0.672-1.5-1.5s0.672-1.5 1.5-1.5zM11.5 2c-0.276 0-0.5 0.224-0.5 0.5s0.224 0.5 0.5 0.5c0.276 0 0.5-0.224 0.5-0.5s-0.224-0.5-0.5-0.5zM14.5 6c0.828 0 1.5 0.672 1.5 1.5s-0.672 1.5-1.5 1.5c-0.828 0-1.5-0.672-1.5-1.5s0.672-1.5 1.5-1.5zM14.5 7c-0.276 0-0.5 0.224-0.5 0.5s0.224 0.5 0.5 0.5c0.276 0 0.5-0.224 0.5-0.5s-0.224-0.5-0.5-0.5zM12.5 12c0.828 0 1.5 0.672 1.5 1.5s-0.672 1.5-1.5 1.5c-0.828 0-1.5-0.672-1.5-1.5s0.672-1.5 1.5-1.5zM12.5 13c-0.276 0-0.5 0.224-0.5 0.5s0.224 0.5 0.5 0.5c0.276 0 0.5-0.224 0.5-0.5s-0.224-0.5-0.5-0.5z"></path>
<path d="M6.837 7h7.163v1h-5.199c0.13 0.384 0.224 0.892 0.314 1.543 0.087 0.63 0.089 0.643 0.128 0.875 0.302 1.813 0.857 2.582 2.257 2.582h0.5v1h-0.5c-2.017 0-2.87-1.181-3.243-3.418-0.041-0.245-0.043-0.259-0.132-0.901-0.182-1.309-0.337-1.681-0.625-1.681h-4.5v-1h2.5c0.141 0 0.341-0.22 0.633-0.804 0.090-0.18 0.53-1.14 0.67-1.42 0.909-1.818 1.963-2.776 3.697-2.776h0.5v1h-0.5c-1.266 0-2.045 0.708-2.803 2.224-0.13 0.26-0.57 1.22-0.67 1.42-0.064 0.128-0.127 0.247-0.19 0.356z"></path>
</svg>
