<!-- Generated by IcoMoon.io -->
<svg version="1.1" xmlns="http://www.w3.org/2000/svg" width="16" height="16" viewBox="0 0 16 16">
<title>branch-lock</title>
<path d="M9 11v4h6v-4h-6zM9 10h6c0.552 0 1 0.448 1 1v4c0 0.552-0.448 1-1 1h-6c-0.552 0-1-0.448-1-1v-4c0-0.552 0.448-1 1-1z"></path>
<path d="M12 12c0.552 0 1 0.448 1 1s-0.448 1-1 1c-0.552 0-1-0.448-1-1s0.448-1 1-1z"></path>
<path d="M13 10v-1.2c0-0.417-0.426-0.8-1-0.8s-1 0.383-1 0.8v1.2h-1v-1.2c0-0.994 0.895-1.8 2-1.8s2 0.806 2 1.8v1.2h-1z"></path>
<path d="M12.5 0c0.828 0 1.5 0.672 1.5 1.5s-0.672 1.5-1.5 1.5c-0.653 0-1.208-0.417-1.414-0.999l-2.281-0.001c-1.080 0-2.066 0.591-2.579 1.529l-0.090 0.18-0.394 0.855c-0.072 0.156-0.159 0.302-0.259 0.437l2.602-0.001c0.206-0.583 0.762-1 1.415-1 0.828 0 1.5 0.672 1.5 1.5s-0.672 1.5-1.5 1.5c-0.653 0-1.208-0.417-1.414-0.999l-5.2-0.001c0.098 0.145 0.181 0.303 0.245 0.472l0.056 0.168 0.373 1.28c0.187 0.64 0.773 1.080 1.44 1.080l0.083 0.007c0.204-0.586 0.761-1.007 1.417-1.007 0.828 0 1.5 0.672 1.5 1.5s-0.672 1.5-1.5 1.5c-0.656 0-1.213-0.421-1.417-1.007l-0.083 0.007c-1.053 0-1.986-0.658-2.345-1.634l-0.055-0.166-0.373-1.28c-0.159-0.545-0.659-0.92-1.227-0.92h-0.5c-0.276 0-0.5-0.224-0.5-0.5 0-0.245 0.177-0.45 0.41-0.492l0.090-0.008h3c0.525 0 1.007-0.28 1.268-0.728l0.066-0.126 0.394-0.855c0.614-1.333 1.915-2.208 3.369-2.285l0.209-0.005 2.28 0c0.206-0.583 0.762-1 1.415-1zM6.5 9c-0.276 0-0.5 0.224-0.5 0.5s0.224 0.5 0.5 0.5c0.276 0 0.5-0.224 0.5-0.5s-0.224-0.5-0.5-0.5zM9.5 5c-0.276 0-0.5 0.224-0.5 0.5s0.224 0.5 0.5 0.5c0.276 0 0.5-0.224 0.5-0.5s-0.224-0.5-0.5-0.5zM12.5 1c-0.276 0-0.5 0.224-0.5 0.5s0.224 0.5 0.5 0.5c0.276 0 0.5-0.224 0.5-0.5s-0.224-0.5-0.5-0.5z"></path>
</svg>
