<!-- Generated by IcoMoon.io -->
<svg version="1.1" xmlns="http://www.w3.org/2000/svg" width="16" height="16" viewBox="0 0 16 16">
<title>direct</title>
<path d="M2.5 7h11c0.276 0 0.5 0.224 0.5 0.5s-0.224 0.5-0.5 0.5h-11c-0.276 0-0.5-0.224-0.5-0.5s0.224-0.5 0.5-0.5z"></path>
<path d="M14.5 6c0.828 0 1.5 0.672 1.5 1.5s-0.672 1.5-1.5 1.5c-0.828 0-1.5-0.672-1.5-1.5s0.672-1.5 1.5-1.5zM14.5 7c-0.276 0-0.5 0.224-0.5 0.5s0.224 0.5 0.5 0.5c0.276 0 0.5-0.224 0.5-0.5s-0.224-0.5-0.5-0.5zM1.5 6c0.828 0 1.5 0.672 1.5 1.5s-0.672 1.5-1.5 1.5c-0.828 0-1.5-0.672-1.5-1.5s0.672-1.5 1.5-1.5zM1.5 7c-0.276 0-0.5 0.224-0.5 0.5s0.224 0.5 0.5 0.5c0.276 0 0.5-0.224 0.5-0.5s-0.224-0.5-0.5-0.5z"></path>
</svg>
