<!-- Generated by IcoMoon.io -->
<svg version="1.1" xmlns="http://www.w3.org/2000/svg" width="16" height="16" viewBox="0 0 16 16">
<title>flow-start</title>
<path d="M6 3.999c0.198 0 0.391 0.059 0.555 0.168l2.998 2.001c0.459 0.307 0.583 0.927 0.277 1.387-0.073 0.11-0.167 0.204-0.277 0.277l-2.998 2.001c-0.459 0.307-1.080 0.183-1.387-0.277-0.11-0.164-0.168-0.357-0.168-0.555v-4.001c0-0.552 0.448-1 1-1zM8.998 7l-2.998-2v4.001l2.998-2.001z"></path>
<path d="M14.5 8c0.828 0 1.5 0.672 1.5 1.5s-0.672 1.5-1.5 1.5c-0.646 0-1.196-0.408-1.408-0.98-0.447 0.067-0.846 0.335-1.082 0.74v0l-0.095 0.15c-0.388 0.568-0.991 0.949-1.664 1.058 0.050 0.051 0.099 0.106 0.146 0.163l0.121 0.157 0.801 1.108c0.195 0.27 0.473 0.461 0.786 0.549 0.222-0.555 0.763-0.946 1.395-0.946 0.828 0 1.5 0.672 1.5 1.5s-0.672 1.5-1.5 1.5c-0.668 0-1.234-0.436-1.428-1.039-0.564-0.098-1.079-0.393-1.451-0.836l-0.111-0.143-0.801-1.108c-0.396-0.549-1.032-0.874-1.709-0.874h-1.5c-0.276 0-0.5-0.224-0.5-0.5s0.224-0.5 0.5-0.5h3.351l0.144-0.007c0.477-0.046 0.907-0.319 1.156-0.745v0l0.095-0.151c0.421-0.617 1.094-1.014 1.835-1.086 0.202-0.588 0.761-1.012 1.419-1.012zM13.5 14c-0.276 0-0.5 0.224-0.5 0.5s0.224 0.5 0.5 0.5c0.276 0 0.5-0.224 0.5-0.5s-0.224-0.5-0.5-0.5zM14.5 9c-0.276 0-0.5 0.224-0.5 0.5s0.224 0.5 0.5 0.5c0.276 0 0.5-0.224 0.5-0.5s-0.224-0.5-0.5-0.5z"></path>
<path d="M7 0c3.866 0 7 3.134 7 7 0 0.276-0.224 0.5-0.5 0.5s-0.5-0.224-0.5-0.5c0-3.314-2.686-6-6-6s-6 2.686-6 6c0 3.314 2.686 6 6 6 0.276 0 0.5 0.224 0.5 0.5s-0.224 0.5-0.5 0.5c-3.866 0-7-3.134-7-7s3.134-7 7-7z"></path>
</svg>
