<!-- Generated by IcoMoon.io -->
<svg version="1.1" xmlns="http://www.w3.org/2000/svg" width="16" height="16" viewBox="0 0 16 16">
<title>indirect</title>
<path d="M14.5 6c0.828 0 1.5 0.672 1.5 1.5s-0.672 1.5-1.5 1.5c-0.828 0-1.5-0.672-1.5-1.5s0.672-1.5 1.5-1.5zM14.5 7c-0.276 0-0.5 0.224-0.5 0.5s0.224 0.5 0.5 0.5c0.276 0 0.5-0.224 0.5-0.5s-0.224-0.5-0.5-0.5zM1.5 6c0.828 0 1.5 0.672 1.5 1.5s-0.672 1.5-1.5 1.5c-0.828 0-1.5-0.672-1.5-1.5s0.672-1.5 1.5-1.5zM1.5 7c-0.276 0-0.5 0.224-0.5 0.5s0.224 0.5 0.5 0.5c0.276 0 0.5-0.224 0.5-0.5s-0.224-0.5-0.5-0.5z"></path>
<path d="M9.75 2c1.191 0 2.166 0.925 2.245 2.096l0.005 0.154v2.25c0 0.245 0.177 0.45 0.41 0.492l0.090 0.008h1c0.276 0 0.5 0.224 0.5 0.5 0 0.245-0.177 0.45-0.41 0.492l-0.090 0.008h-1c-0.78 0-1.42-0.595-1.493-1.356l-0.007-0.144v-2.25c0-0.69-0.56-1.25-1.25-1.25-0.647 0-1.18 0.492-1.244 1.122l-0.006 0.128v7.5c0 1.243-1.007 2.25-2.25 2.25-1.191 0-2.166-0.925-2.245-2.096l-0.005-0.154v-3.25c0-0.245-0.177-0.45-0.41-0.492l-0.090-0.008h-1c-0.276 0-0.5-0.224-0.5-0.5 0-0.245 0.177-0.45 0.41-0.492l0.090-0.008h1c0.78 0 1.42 0.595 1.493 1.356l0.007 0.144v3.25c0 0.69 0.56 1.25 1.25 1.25 0.647 0 1.18-0.492 1.244-1.122l0.006-0.128v-7.5c0-1.243 1.007-2.25 2.25-2.25z"></path>
</svg>
