<!-- Generated by IcoMoon.io -->
<svg version="1.1" xmlns="http://www.w3.org/2000/svg" width="16" height="16" viewBox="0 0 16 16">
<title>random</title>
<path d="M9.86 10.255c0.975 1.043 2.319 1.669 3.75 1.739l0.269 0.007h1.12c0.276 0 0.5 0.224 0.5 0.5 0 0.245-0.177 0.45-0.41 0.492l-0.090 0.008h-1.12c-1.809 0-3.526-0.753-4.75-2.063-0.189-0.202-0.178-0.518 0.024-0.707s0.518-0.178 0.707 0.024zM1.62 2c2.264 0 4.359 1.177 5.538 3.096 0.145 0.235 0.071 0.543-0.164 0.688s-0.543 0.071-0.688-0.164c-0.954-1.553-2.618-2.532-4.437-2.614l-0.249-0.006h-1.12c-0.276 0-0.5-0.224-0.5-0.5 0-0.245 0.177-0.45 0.41-0.492l0.090-0.008h1.12z"></path>
<path d="M13.146 10.146c0.174-0.174 0.443-0.193 0.638-0.058l0.069 0.058 2 2c0.174 0.174 0.193 0.443 0.058 0.638l-0.058 0.069-2 2c-0.195 0.195-0.512 0.195-0.707 0-0.174-0.174-0.193-0.443-0.058-0.638l0.058-0.069 1.647-1.646-1.647-1.646c-0.174-0.174-0.193-0.443-0.058-0.638l0.058-0.069z"></path>
<path d="M1.62 14c2.473 0 4.723-1.402 5.818-3.602l0.109-0.23 1.316-2.924c0.855-1.901 2.707-3.148 4.776-3.238l0.24-0.005h1.12c0.276 0 0.5-0.224 0.5-0.5 0-0.245-0.177-0.45-0.41-0.492l-0.090-0.008h-1.12c-2.473 0-4.723 1.402-5.818 3.602l-0.109 0.23-1.316 2.924c-0.855 1.901-2.707 3.148-4.776 3.238l-0.24 0.005h-1.12c-0.276 0-0.5 0.224-0.5 0.5 0 0.245 0.177 0.45 0.41 0.492l0.090 0.008h1.12z"></path>
<path d="M13.146 5.854c0.174 0.174 0.443 0.193 0.638 0.058l0.069-0.058 2-2c0.174-0.174 0.193-0.443 0.058-0.638l-0.058-0.069-2-2c-0.195-0.195-0.512-0.195-0.707 0-0.174 0.174-0.193 0.443-0.058 0.638l0.058 0.069 1.647 1.646-1.647 1.646c-0.174 0.174-0.193 0.443-0.058 0.638l0.058 0.069z"></path>
</svg>
