<!-- Generated by IcoMoon.io -->
<svg version="1.1" xmlns="http://www.w3.org/2000/svg" width="16" height="16" viewBox="0 0 16 16">
<title>review-pass</title>
<path d="M4.863 8.921l0.281-1.464-1.196-2.452-0.632 0.007c-0.767 0.008-1.478-0.422-1.82-1.124-0.484-0.993-0.072-2.19 0.921-2.674s2.19-0.072 2.674 0.921c0.342 0.701 0.243 1.527-0.235 2.126l0.782 0.624c0.7-0.877 0.877-2.113 0.352-3.188-0.726-1.489-2.522-2.108-4.011-1.381s-2.108 2.522-1.381 4.011c0.525 1.076 1.607 1.697 2.729 1.685l1.003 2.057-3.724 1.816c-0.425 0.208-0.668 0.912-0.46 1.337l0.438 0.899c0.438 0.899 1.776 1.359 2.674 0.921l0.899-0.438-0.438-0.899-0.899 0.438c-0.402 0.196-1.141-0.058-1.337-0.46l-0.438-0.899 3.819-1.863z"></path>
<path d="M1.5 15h9c0.276 0 0.5 0.224 0.5 0.5s-0.224 0.5-0.5 0.5h-9c-0.276 0-0.5-0.224-0.5-0.5s0.224-0.5 0.5-0.5z"></path>
<path d="M15.909 11.042c-0.575 3.263-3.687 5.442-6.951 4.867s-5.442-3.687-4.867-6.951c0.575-3.263 3.687-5.442 6.951-4.867 0.272 0.048 0.454 0.307 0.406 0.579s-0.307 0.454-0.579 0.406c-2.719-0.48-5.313 1.336-5.792 4.056s1.336 5.313 4.056 5.792c2.719 0.48 5.313-1.336 5.792-4.056 0.048-0.272 0.307-0.454 0.579-0.406s0.454 0.307 0.406 0.579z"></path>
<path d="M9.55 11.673l5.57-6.499c0.18-0.21 0.495-0.234 0.705-0.054s0.234 0.495 0.054 0.705l-5.991 6.989c-0.022 0.028-0.048 0.053-0.077 0.076-0.031 0.024-0.064 0.045-0.098 0.061-0.086 0.041-0.18 0.055-0.271 0.045-0.056-0.006-0.11-0.022-0.162-0.047-0.004-0.002-0.008-0.004-0.012-0.006-0.033-0.017-0.065-0.039-0.095-0.064-0.017-0.015-0.033-0.030-0.048-0.047-0.007-0.008-0.014-0.016-0.020-0.024-0.011-0.013-0.020-0.027-0.029-0.041l-1.993-2.99c-0.153-0.23-0.091-0.54 0.139-0.693s0.54-0.091 0.693 0.139l1.634 2.451z"></path>
</svg>
