<!-- Generated by IcoMoon.io -->
<svg version="1.1" xmlns="http://www.w3.org/2000/svg" width="16" height="16" viewBox="0 0 16 16">
<title>review</title>
<path d="M14 11h-6v-4.969l0.571-0.271c0.866-0.411 1.429-1.285 1.429-2.26 0-1.381-1.119-2.5-2.5-2.5s-2.5 1.119-2.5 2.5c0 0.975 0.563 1.849 1.429 2.26l0.571 0.271v4.969h-6v1c0 0.552 0.448 1 1 1h11c0.552 0 1-0.448 1-1v-1zM9 10h5c0.552 0 1 0.448 1 1v1c0 1.105-0.895 2-2 2h-11c-1.105 0-2-0.895-2-2v-1c0-0.552 0.448-1 1-1h5v-3.337c-1.182-0.562-2-1.767-2-3.163 0-1.933 1.567-3.5 3.5-3.5s3.5 1.567 3.5 3.5c0 1.396-0.818 2.601-2 3.163v3.337z"></path>
<path d="M1.5 15h12c0.276 0 0.5 0.224 0.5 0.5s-0.224 0.5-0.5 0.5h-12c-0.276 0-0.5-0.224-0.5-0.5s0.224-0.5 0.5-0.5z"></path>
</svg>
