<!-- Generated by IcoMoon.io -->
<svg version="1.1" xmlns="http://www.w3.org/2000/svg" width="16" height="16" viewBox="0 0 16 16">
<title>review-refuse</title>
<path d="M1.5 15h9c0.276 0 0.5 0.224 0.5 0.5s-0.224 0.5-0.5 0.5h-9c-0.276 0-0.5-0.224-0.5-0.5s0.224-0.5 0.5-0.5z"></path>
<path d="M4.863 8.921l-3.819 1.863 0.438 0.899c0.196 0.402 0.935 0.657 1.337 0.46l0.899-0.438 0.438 0.899-0.899 0.438c-0.899 0.438-2.236-0.022-2.674-0.921l-0.438-0.899c-0.208-0.425 0.035-1.13 0.46-1.337l3.724-1.816-1.003-2.057c-1.122 0.012-2.205-0.61-2.729-1.685-0.726-1.489-0.108-3.285 1.381-4.011s3.285-0.108 4.011 1.381c0.525 1.076 0.348 2.311-0.352 3.188l-0.782-0.624c0.478-0.6 0.577-1.425 0.235-2.126-0.484-0.993-1.682-1.405-2.674-0.921s-1.405 1.682-0.921 2.674c0.342 0.701 1.053 1.132 1.82 1.124l0.632-0.007 1.196 2.452-0.281 1.464z"></path>
<path d="M11.725 5.307c-1.242-0.457-2.614-0.409-3.838 0.161-2.503 1.167-3.585 4.142-2.418 6.645s4.142 3.585 6.645 2.418c2.503-1.167 3.585-4.142 2.418-6.645-0.117-0.25-0.008-0.548 0.242-0.664s0.548-0.008 0.664 0.242c1.4 3.003 0.101 6.573-2.902 7.974s-6.573 0.101-7.974-2.902c-1.4-3.003-0.101-6.573 2.902-7.974 1.514-0.706 3.172-0.726 4.623-0.187l-0.003 0.008c0.142 0.035 0.268 0.131 0.334 0.274 0.117 0.25 0.008 0.548-0.242 0.664-0.15 0.070-0.317 0.059-0.452-0.015v0z"></path>
<path d="M10 9.293l2.146-2.146c0.195-0.195 0.512-0.195 0.707 0s0.195 0.512 0 0.707l-2.146 2.146 2.146 2.146c0.195 0.195 0.195 0.512 0 0.707s-0.512 0.195-0.707 0l-2.146-2.146-2.146 2.146c-0.195 0.195-0.512 0.195-0.707 0s-0.195-0.512 0-0.707l2.146-2.146-2.146-2.146c-0.195-0.195-0.195-0.512 0-0.707s0.512-0.195 0.707 0l2.146 2.146z"></path>
</svg>
