<!-- Generated by IcoMoon.io -->
<svg version="1.1" xmlns="http://www.w3.org/2000/svg" width="16" height="16" viewBox="0 0 16 16">
<title>split</title>
<path d="M13.146 11.146c0.174-0.174 0.443-0.193 0.638-0.058l0.069 0.058 2 2c0.174 0.174 0.193 0.443 0.058 0.638l-0.058 0.069-2 2c-0.195 0.195-0.512 0.195-0.707 0-0.174-0.174-0.193-0.443-0.058-0.638l0.058-0.069 1.647-1.646-1.647-1.646c-0.174-0.174-0.193-0.443-0.058-0.638l0.058-0.069zM13.146 0.146c0.174-0.174 0.443-0.193 0.638-0.058l0.069 0.058 2 2c0.174 0.174 0.193 0.443 0.058 0.638l-0.058 0.069-2 2c-0.195 0.195-0.512 0.195-0.707 0-0.174-0.174-0.193-0.443-0.058-0.638l0.058-0.069 1.647-1.646-1.647-1.646c-0.174-0.174-0.193-0.443-0.058-0.638l0.058-0.069z"></path>
<path d="M4.84 7c0.553 0 1.088-0.183 1.523-0.518l0.158-0.132 3.784-3.44c0.591-0.537 1.345-0.854 2.137-0.903l0.217-0.007h1.84c0.276 0 0.5 0.224 0.5 0.5 0 0.245-0.177 0.45-0.41 0.492l-0.090 0.008h-1.84c-0.553 0-1.088 0.183-1.523 0.518l-0.158 0.132-3.784 3.44c-0.256 0.233-0.543 0.424-0.851 0.571 0.411 0.249 0.784 0.568 1.101 0.944l0.155 0.195 2.1 2.8c0.617 0.823 1.562 1.329 2.581 1.393l0.219 0.007h2c0.276 0 0.5 0.224 0.5 0.5 0 0.245-0.177 0.45-0.41 0.492l-0.090 0.008h-2c-1.333 0-2.593-0.591-3.445-1.605l-0.155-0.195-2.1-2.8c-0.617-0.823-1.562-1.329-2.581-1.393l-0.219-0.007h-3.5c-0.276 0-0.5-0.224-0.5-0.5 0-0.245 0.177-0.45 0.41-0.492l0.090-0.008h4.34z"></path>
</svg>
