<!-- Generated by IcoMoon.io -->
<svg version="1.1" xmlns="http://www.w3.org/2000/svg" width="16" height="16" viewBox="0 0 16 16">
<title>wait</title>
<path d="M2.5 0h11c0.276 0 0.5 0.224 0.5 0.5s-0.224 0.5-0.5 0.5h-11c-0.276 0-0.5-0.224-0.5-0.5s0.224-0.5 0.5-0.5z"></path>
<path d="M2.5 15h11c0.276 0 0.5 0.224 0.5 0.5s-0.224 0.5-0.5 0.5h-11c-0.276 0-0.5-0.224-0.5-0.5s0.224-0.5 0.5-0.5z"></path>
<path d="M5 1v3c0 0.944 0.445 1.833 1.2 2.4l1.2 0.9c0.356 0.267 0.844 0.267 1.2 0l1.2-0.9c0.755-0.567 1.2-1.456 1.2-2.4v-3h-6zM4 0h8v4c0 1.259-0.593 2.445-1.6 3.2l-1.2 0.9c-0.711 0.533-1.689 0.533-2.4 0l-1.2-0.9c-1.007-0.755-1.6-1.941-1.6-3.2v-4z"></path>
<path d="M5 15.002h6v-2.343c0-0.796-0.316-1.559-0.879-2.121l-1.414-1.414c-0.391-0.391-1.024-0.391-1.414 0l-1.414 1.414c-0.563 0.563-0.879 1.326-0.879 2.121v2.343zM4 16.002v-3.343c0-1.061 0.421-2.078 1.172-2.828l1.414-1.414c0.781-0.781 2.047-0.781 2.828 0l1.414 1.414c0.75 0.75 1.172 1.768 1.172 2.828v3.343h-8z"></path>
<path d="M4.5 3h7c0.276 0 0.5 0.224 0.5 0.5s-0.224 0.5-0.5 0.5h-7c-0.276 0-0.5-0.224-0.5-0.5s0.224-0.5 0.5-0.5z"></path>
<path d="M4.5 13h4c0.276 0 0.5 0.224 0.5 0.5s-0.224 0.5-0.5 0.5h-4c-0.276 0-0.5-0.224-0.5-0.5s0.224-0.5 0.5-0.5z"></path>
<path d="M10.5 13h1c0.276 0 0.5 0.224 0.5 0.5s-0.224 0.5-0.5 0.5h-1c-0.276 0-0.5-0.224-0.5-0.5s0.224-0.5 0.5-0.5z"></path>
</svg>
