<!-- Generated by IcoMoon.io -->
<svg version="1.1" xmlns="http://www.w3.org/2000/svg" width="16" height="16" viewBox="0 0 16 16">
<title>device</title>
<path d="M8 12v-7c0-1.105 0.895-2 2-2h4v-1c0-0.552-0.448-1-1-1h-11c-0.552 0-1 0.448-1 1v9c0 0.552 0.448 1 1 1h6zM2 0h11c1.105 0 2 0.895 2 2v2h-5c-0.552 0-1 0.448-1 1v8h-7c-1.105 0-2-0.895-2-2v-9c0-1.105 0.895-2 2-2z"></path>
<path d="M3.5 14h5c0.276 0 0.5 0.224 0.5 0.5s-0.224 0.5-0.5 0.5h-5c-0.276 0-0.5-0.224-0.5-0.5s0.224-0.5 0.5-0.5z"></path>
<path d="M11.5 13h1c0.276 0 0.5 0.224 0.5 0.5s-0.224 0.5-0.5 0.5h-1c-0.276 0-0.5-0.224-0.5-0.5s0.224-0.5 0.5-0.5z"></path>
<path d="M10 4c-0.552 0-1 0.448-1 1v9c0 0.552 0.448 1 1 1h4c0.552 0 1-0.448 1-1v-9c0-0.552-0.448-1-1-1h-4zM10 3h4c1.105 0 2 0.895 2 2v9c0 1.105-0.895 2-2 2h-4c-1.105 0-2-0.895-2-2v-9c0-1.105 0.895-2 2-2z"></path>
</svg>
