<!-- Generated by IcoMoon.io -->
<svg version="1.1" xmlns="http://www.w3.org/2000/svg" width="16" height="16" viewBox="0 0 16 16">
<title>PC-fill</title>
<path d="M6 13h-4c-1.105 0-2-0.895-2-2v-8c0-1.105 0.895-2 2-2h12c1.105 0 2 0.895 2 2v8c0 1.105-0.895 2-2 2h-4v1h1.5c0.276 0 0.5 0.224 0.5 0.5s-0.224 0.5-0.5 0.5h-7c-0.276 0-0.5-0.224-0.5-0.5s0.224-0.5 0.5-0.5h1.5v-1zM14 2h-12c-0.513 0-0.935 0.386-0.993 0.883l-0.007 0.117v8c0 0.513 0.386 0.935 0.883 0.993l0.117 0.007h12c0.513 0 0.935-0.386 0.993-0.883l0.007-0.117v-8c0-0.513-0.386-0.936-0.883-0.993l-0.117-0.007z"></path>
<path d="M12.5 3c0.828 0 1.5 0.597 1.5 1.333v5.333c0 0.736-0.672 1.333-1.5 1.333h-9c-0.828 0-1.5-0.597-1.5-1.333v-5.333c0-0.736 0.672-1.333 1.5-1.333h9z"></path>
</svg>
