<!-- Generated by IcoMoon.io -->
<svg version="1.1" xmlns="http://www.w3.org/2000/svg" width="16" height="16" viewBox="0 0 16 16">
<title>PC</title>
<path d="M14 1c1.105 0 2 0.895 2 2v8c0 1.105-0.895 2-2 2h-12c-1.105 0-2-0.895-2-2v-8c0-1.105 0.895-2 2-2h12zM14 2h-12c-0.513 0-0.935 0.386-0.993 0.883l-0.007 0.117v8c0 0.513 0.386 0.935 0.883 0.993l0.117 0.007h12c0.513 0 0.935-0.386 0.993-0.883l0.007-0.117v-8c0-0.513-0.386-0.936-0.883-0.993l-0.117-0.007z"></path>
<path d="M4.5 14h7c0.276 0 0.5 0.224 0.5 0.5s-0.224 0.5-0.5 0.5h-7c-0.276 0-0.5-0.224-0.5-0.5s0.224-0.5 0.5-0.5z"></path>
</svg>
