<!-- Generated by IcoMoon.io -->
<svg version="1.1" xmlns="http://www.w3.org/2000/svg" width="16" height="16" viewBox="0 0 16 16">
<title>phone-fill</title>
<path d="M0.077 2.149c0.319 4.272 1.627 7.555 3.923 9.851s5.579 3.603 9.851 3.923c1.101 0.082 2.061-0.744 2.144-1.845 0.004-0.050 0.006-0.099 0.006-0.149v-1.757c0-0.688-0.468-1.288-1.136-1.455l-2.040-0.51c-0.511-0.128-1.052 0.022-1.424 0.395l-1.009 1.009c-0.25 0.25-0.614 0.35-0.957 0.261-1.405-0.363-2.549-0.987-3.433-1.87-0.881-0.881-1.503-2.021-1.867-3.419-0.091-0.35 0.014-0.722 0.275-0.973l1.033-0.992c0.395-0.38 0.552-0.945 0.409-1.474l-0.55-2.034c-0.177-0.654-0.77-1.108-1.448-1.108h-1.78c-1.105 0-2 0.895-2 2 0 0.050 0.002 0.1 0.006 0.149z"></path>
</svg>
