<!-- Generated by IcoMoon.io -->
<svg version="1.1" xmlns="http://www.w3.org/2000/svg" width="16" height="16" viewBox="0 0 16 16">
<title>phone</title>
<path d="M4.235 0c0.411 0 0.775 0.25 0.926 0.623l0.039 0.115 0.728 2.689c0.085 0.313 0.012 0.646-0.191 0.894l-0.082 0.089-1.655 1.59c0.333 1.667 1 3 2 4 0.929 0.929 2.145 1.57 3.648 1.923l0.352 0.077 1.6-1.6c0.217-0.217 0.521-0.321 0.821-0.286l0.128 0.023 2.693 0.673c0.408 0.102 0.704 0.447 0.751 0.857l0.006 0.113-0.001 3.236c-0.019 0.552-0.481 0.984-1.033 0.965-4.819-0.164-8.475-1.491-10.966-3.983-2.408-2.408-3.729-5.904-3.962-10.488l-0.021-0.512c0-0.513 0.386-0.935 0.883-0.993l0.117-0.007h3.218zM1.036 1.454c0.22 4.356 1.453 7.62 3.671 9.838s5.483 3.451 9.838 3.671l0.455 0.019v-3.203l-2.693-0.673-1.6 1.6c-0.236 0.236-0.575 0.339-0.903 0.273-1.852-0.37-3.364-1.126-4.511-2.273s-1.903-2.659-2.273-4.511c-0.059-0.293 0.017-0.594 0.202-0.824l0.086-0.094 1.655-1.59-0.728-2.689h-3.219l0.020 0.454z"></path>
</svg>
