<!-- Generated by IcoMoon.io -->
<svg version="1.1" xmlns="http://www.w3.org/2000/svg" width="16" height="16" viewBox="0 0 16 16">
<title>phone</title>
<path d="M3.852 0c0.632 0 1.191 0.396 1.407 0.98l0.041 0.128 0.55 2.034c0.13 0.481 0.012 0.992-0.307 1.366l-0.102 0.108-1.033 0.992c-0.261 0.251-0.366 0.623-0.275 0.973 0.364 1.399 0.986 2.538 1.867 3.419 0.884 0.884 2.028 1.507 3.433 1.87 0.3 0.078 0.616 0.011 0.858-0.174l0.099-0.087 1.009-1.009c0.335-0.335 0.807-0.49 1.27-0.425l0.154 0.030 2.040 0.51c0.623 0.156 1.073 0.689 1.13 1.319l0.006 0.136v1.757l-0.006 0.149c-0.082 1.101-1.042 1.928-2.144 1.845-4.272-0.319-7.555-1.627-9.851-3.923s-3.603-5.579-3.923-9.851l-0.006-0.149c0-1.054 0.816-1.918 1.851-1.995l0.149-0.005h1.78zM2.072 1c-0.552 0-1 0.448-1 1l0.003 0.075c0.303 4.048 1.521 7.106 3.632 9.218s5.17 3.33 9.218 3.632c0.551 0.041 1.031-0.372 1.072-0.923l0.003-0.075v-1.757c0-0.201-0.12-0.379-0.299-0.458l-0.080-0.027-2.040-0.51c-0.142-0.036-0.291-0.007-0.408 0.076l-0.066 0.056-1.009 1.009c-0.501 0.501-1.229 0.699-1.915 0.522-1.572-0.406-2.875-1.116-3.89-2.132-1.012-1.012-1.721-2.31-2.128-3.875-0.168-0.646-0.002-1.33 0.435-1.826l0.115-0.12 1.033-0.992c0.11-0.105 0.164-0.254 0.152-0.402l-0.016-0.089-0.55-2.034c-0.052-0.191-0.21-0.331-0.399-0.362l-0.083-0.007h-1.78z"></path>
</svg>
