<!-- Generated by IcoMoon.io -->
<svg version="1.1" xmlns="http://www.w3.org/2000/svg" width="16" height="16" viewBox="0 0 16 16">
<title>phone-fill</title>
<path d="M0.017 1.034c0.164 4.819 1.491 8.475 3.983 10.966s6.147 3.819 10.966 3.983c0.552 0.019 1.015-0.414 1.033-0.965 0-0.011 0.001-0.023 0.001-0.034v-3.203c0-0.459-0.312-0.859-0.757-0.97l-2.693-0.673c-0.341-0.085-0.701 0.015-0.95 0.263l-1.6 1.6c-1.667-0.333-3-1-4-2s-1.667-2.333-2-4l1.655-1.59c0.264-0.253 0.368-0.63 0.273-0.982l-0.728-2.689c-0.118-0.436-0.514-0.739-0.965-0.739h-3.218c-0.552 0-1 0.448-1 1 0 0.011 0 0.023 0.001 0.034z"></path>
</svg>
