<!-- Generated by IcoMoon.io -->
<svg version="1.1" xmlns="http://www.w3.org/2000/svg" width="16" height="16" viewBox="0 0 16 16">
<title>storage</title>
<path d="M13 10c1.657 0 3 1.343 3 3s-1.343 3-3 3h-10c-1.657 0-3-1.343-3-3s1.343-3 3-3h10zM13 11h-10c-1.105 0-2 0.895-2 2 0 1.054 0.816 1.918 1.851 1.995l0.149 0.005h10c1.105 0 2-0.895 2-2 0-1.054-0.816-1.918-1.851-1.995l-0.149-0.005z"></path>
<path d="M13 5c1.657 0 3 1.343 3 3s-1.343 3-3 3h-10c-1.657 0-3-1.343-3-3s1.343-3 3-3h10zM13 6h-10c-1.105 0-2 0.895-2 2 0 1.054 0.816 1.918 1.851 1.995l0.149 0.005h10c1.105 0 2-0.895 2-2 0-1.054-0.816-1.918-1.851-1.995l-0.149-0.005z"></path>
<path d="M13 0c1.657 0 3 1.343 3 3s-1.343 3-3 3h-10c-1.657 0-3-1.343-3-3s1.343-3 3-3h10zM13 1h-10c-1.105 0-2 0.895-2 2 0 1.054 0.816 1.918 1.851 1.995l0.149 0.005h10c1.105 0 2-0.895 2-2 0-1.054-0.816-1.918-1.851-1.995l-0.149-0.005z"></path>
<path d="M3.5 3c0.276 0 0.5 0.224 0.5 0.5s-0.224 0.5-0.5 0.5c-0.276 0-0.5-0.224-0.5-0.5s0.224-0.5 0.5-0.5zM6.5 3c0.276 0 0.5 0.224 0.5 0.5s-0.224 0.5-0.5 0.5h-1c-0.276 0-0.5-0.224-0.5-0.5s0.224-0.5 0.5-0.5h1zM3.5 8c0.276 0 0.5 0.224 0.5 0.5s-0.224 0.5-0.5 0.5c-0.276 0-0.5-0.224-0.5-0.5s0.224-0.5 0.5-0.5zM6.5 8c0.276 0 0.5 0.224 0.5 0.5s-0.224 0.5-0.5 0.5h-1c-0.276 0-0.5-0.224-0.5-0.5s0.224-0.5 0.5-0.5h1zM5.5 13c0.276 0 0.5 0.224 0.5 0.5s-0.224 0.5-0.5 0.5h-2c-0.276 0-0.5-0.224-0.5-0.5s0.224-0.5 0.5-0.5h2zM12.5 13c0.276 0 0.5 0.224 0.5 0.5s-0.224 0.5-0.5 0.5c-0.276 0-0.5-0.224-0.5-0.5s0.224-0.5 0.5-0.5z"></path>
</svg>
