<!-- Generated by IcoMoon.io -->
<svg version="1.1" xmlns="http://www.w3.org/2000/svg" width="16" height="16" viewBox="0 0 16 16">
<title>advanced-analytics</title>
<path d="M12 0c0.123 0 0.241 0.046 0.332 0.126l0.063 0.067 3.5 4.5c0.116 0.15 0.137 0.35 0.059 0.517l-0.047 0.081-7.5 10.5c-0.179 0.251-0.534 0.276-0.748 0.075l-0.066-0.075-2.465-3.451c-0.16-0.225-0.108-0.537 0.116-0.697 0.2-0.143 0.469-0.117 0.639 0.048l0.059 0.068 2.058 2.881 6.876-9.628-3.12-4.012h-7.513l-3.12 4.012 2.412 3.377c0.143 0.2 0.117 0.469-0.048 0.639l-0.068 0.059c-0.2 0.143-0.469 0.117-0.639-0.048l-0.059-0.068-2.628-3.68c-0.11-0.154-0.122-0.355-0.038-0.519l0.050-0.079 3.5-4.5c0.076-0.097 0.184-0.163 0.303-0.185l0.091-0.008h8z"></path>
<path d="M10.5 4c0.276 0 0.5 0.224 0.5 0.5v3c0 0.276-0.224 0.5-0.5 0.5s-0.5-0.224-0.5-0.5v-2.5h-2.5c-0.276 0-0.5-0.224-0.5-0.5s0.224-0.5 0.5-0.5h3z"></path>
<path d="M9.646 4.646c0.195-0.195 0.512-0.195 0.707 0 0.174 0.174 0.193 0.443 0.058 0.638l-0.058 0.069-3.5 3.5c-0.174 0.174-0.443 0.193-0.638 0.058l-0.069-0.058-1.146-1.147-3.646 3.647c-0.174 0.174-0.443 0.193-0.638 0.058l-0.069-0.058c-0.174-0.174-0.193-0.443-0.058-0.638l0.058-0.069 4-4c0.174-0.174 0.443-0.193 0.638-0.058l0.069 0.058 1.146 1.147 3.146-3.147z"></path>
</svg>
