<!-- Generated by IcoMoon.io -->
<svg version="1.1" xmlns="http://www.w3.org/2000/svg" width="16" height="16" viewBox="0 0 16 16">
<title>close</title>
<path d="M2.784 2.089l0.069 0.058 5.146 5.147 5.146-5.147c0.195-0.195 0.512-0.195 0.707 0 0.174 0.174 0.193 0.443 0.058 0.638l-0.058 0.069-5.147 5.146 5.147 5.146c0.195 0.195 0.195 0.512 0 0.707-0.174 0.174-0.443 0.193-0.638 0.058l-0.069-0.058-5.146-5.147-5.146 5.147c-0.195 0.195-0.512 0.195-0.707 0-0.174-0.174-0.193-0.443-0.058-0.638l0.058-0.069 5.147-5.146-5.147-5.146c-0.195-0.195-0.195-0.512 0-0.707 0.174-0.174 0.443-0.193 0.638-0.058z"></path>
</svg>
