<!-- Generated by IcoMoon.io -->
<svg version="1.1" xmlns="http://www.w3.org/2000/svg" width="16" height="16" viewBox="0 0 16 16">
<title>coupon</title>
<path d="M14 3c1.105 0 2 0.895 2 2v2c-0.552 0-1 0.448-1 1s0.448 1 1 1v2c0 1.105-0.895 2-2 2h-12c-1.105 0-2-0.895-2-2v-2c0.552 0 1-0.448 1-1s-0.448-1-1-1v-2c0-1.105 0.895-2 2-2h12zM14 4h-12c-0.5 0-1 0.5-1 1v0 1.4c0.483 0.2 1 0.8 1 1.6s-0.517 1.4-1 1.6v0 1.4c0 0.5 0.5 1 1 1v0h12c0.5 0 1-0.5 1-1v0-1.4c-0.483-0.2-1-0.8-1-1.6s0.517-1.4 1-1.6v0-1.4c0-0.5-0.5-1-1-1v0z"></path>
<path d="M11.5 4c0.276 0 0.5 0.224 0.5 0.5v1c0 0.276-0.224 0.5-0.5 0.5s-0.5-0.224-0.5-0.5v-1c0-0.276 0.224-0.5 0.5-0.5z"></path>
<path d="M11.5 7c0.276 0 0.5 0.224 0.5 0.5v1c0 0.276-0.224 0.5-0.5 0.5s-0.5-0.224-0.5-0.5v-1c0-0.276 0.224-0.5 0.5-0.5z"></path>
<path d="M11.5 10c0.276 0 0.5 0.224 0.5 0.5v1c0 0.276-0.224 0.5-0.5 0.5s-0.5-0.224-0.5-0.5v-1c0-0.276 0.224-0.5 0.5-0.5z"></path>
<path d="M5 6c0 0.552-0.448 1-1 1s-1-0.448-1-1c0-0.552 0.448-1 1-1s1 0.448 1 1z"></path>
<path d="M8.146 5.146c0.195-0.195 0.512-0.195 0.707 0s0.195 0.512 0 0.707l-5 5c-0.195 0.195-0.512 0.195-0.707 0s-0.195-0.512 0-0.707l5-5z"></path>
<path d="M9 10c0 0.552-0.448 1-1 1s-1-0.448-1-1c0-0.552 0.448-1 1-1s1 0.448 1 1z"></path>
</svg>
