<!-- Generated by IcoMoon.io -->
<svg version="1.1" xmlns="http://www.w3.org/2000/svg" width="16" height="16" viewBox="0 0 16 16">
<title>creative</title>
<path d="M5.337 8.994v-0.001l-0.005-0.015-0.045-0.145c-0.045-0.145-0.080-0.262-0.112-0.374-0.117-0.41-0.175-0.706-0.175-0.958 0-1.102 1.088-1.165 2.992-0.603 0.808-0.263 1.429-0.397 1.883-0.397 0.661 0 1.125 0.313 1.125 0.921 0 0.251-0.058 0.55-0.175 0.968-0.021 0.076-0.044 0.155-0.070 0.243l-0.088 0.288-0.005 0.017c-0.001 0.002-0.001 0.004-0.002 0.006-0.039 0.127-0.151 0.49-0.183 0.596-0.162 0.537-0.271 0.947-0.351 1.344-0.084 0.416-0.127 0.786-0.127 1.117 0 0.276-0.224 0.5-0.5 0.5s-0.5-0.224-0.5-0.5c0-0.404 0.051-0.839 0.147-1.315 0.087-0.433 0.204-0.871 0.374-1.435 0.394-1.305 0.466-1.537 0.48-1.682l0.003-0.066-0.001-0.032-0.006 0.012c-0.009 0.007-0.027 0.013-0.060 0.015l-0.063 0.002c-0.297 0-0.76 0.094-1.375 0.285v0 1.321c0 0.276-0.224 0.5-0.5 0.5v0c-0.276 0-0.5-0.224-0.5-0.5v-1.31c-0.607-0.168-1.065-0.246-1.359-0.237-0.116 0.004-0.14-0.006-0.144-0.024l0 0.061 0.002 0.044c0.011 0.143 0.080 0.357 0.478 1.647 0.192 0.622 0.319 1.098 0.407 1.573 0.075 0.406 0.115 0.784 0.115 1.141 0 0.276-0.224 0.5-0.5 0.5s-0.5-0.224-0.5-0.5c0-0.291-0.034-0.609-0.098-0.958-0.080-0.429-0.197-0.872-0.379-1.46-0.032-0.104-0.144-0.458-0.18-0.574l-0.003-0.008-0.002-0.006z"></path>
<path d="M8 2c-2.761 0-5 2.239-5 5s2.239 5 5 5c2.761 0 5-2.239 5-5s-2.239-5-5-5zM8 1c3.314 0 6 2.686 6 6s-2.686 6-6 6c-3.314 0-6-2.686-6-6s2.686-6 6-6z"></path>
<path d="M10 12c0-0.276 0.224-0.5 0.5-0.5s0.5 0.224 0.5 0.5v1c0 1.657-1.343 3-3 3s-3-1.343-3-3v-1c0-0.276 0.224-0.5 0.5-0.5s0.5 0.224 0.5 0.5v1c0 1.105 0.895 2 2 2s2-0.895 2-2v-1z"></path>
<path d="M0.129 0.877c-0.197-0.194-0.199-0.51-0.005-0.707s0.51-0.199 0.707-0.005l1.006 0.993c0.197 0.194 0.199 0.51 0.005 0.707s-0.51 0.199-0.707 0.005l-1.006-0.993z"></path>
<path d="M15.132 0.049c0.195-0.196 0.512-0.196 0.707-0.001s0.196 0.512 0.001 0.707l-0.996 0.998c-0.195 0.196-0.512 0.196-0.707 0.001s-0.196-0.512-0.001-0.707l0.996-0.998z"></path>
<path d="M1.926 13.747c-0.195 0.195-0.512 0.195-0.707 0s-0.195-0.512 0-0.707l1.023-1.023c0.195-0.195 0.512-0.195 0.707 0s0.195 0.512 0 0.707l-1.023 1.023z"></path>
<path d="M15.139 13.13c0.195 0.195 0.195 0.512 0 0.707s-0.512 0.195-0.707 0l-1-1c-0.195-0.195-0.195-0.512 0-0.707s0.512-0.195 0.707 0l1 1z"></path>
</svg>
