<!-- Generated by IcoMoon.io -->
<svg version="1.1" xmlns="http://www.w3.org/2000/svg" width="16" height="16" viewBox="0 0 16 16">
<title>dashboard</title>
<path d="M5.5 5c0.276 0 0.5 0.224 0.5 0.5v5c0 0.276-0.224 0.5-0.5 0.5s-0.5-0.224-0.5-0.5v-5c0-0.276 0.224-0.5 0.5-0.5z"></path>
<path d="M9.5 8c0.276 0 0.5 0.224 0.5 0.5v2c0 0.276-0.224 0.5-0.5 0.5s-0.5-0.224-0.5-0.5v-2c0-0.276 0.224-0.5 0.5-0.5z"></path>
<path d="M13 1c1.105 0 2 0.895 2 2v10c0 1.105-0.895 2-2 2h-10c-1.105 0-2-0.895-2-2v-10c0-1.105 0.895-2 2-2h10zM13 2h-10c-0.513 0-0.936 0.386-0.993 0.883l-0.007 0.117v10c0 0.513 0.386 0.935 0.883 0.993l0.117 0.007h10c0.513 0 0.935-0.386 0.993-0.883l0.007-0.117v-10c0-0.513-0.386-0.936-0.883-0.993l-0.117-0.007z"></path>
</svg>
