<!-- Generated by IcoMoon.io -->
<svg version="1.1" xmlns="http://www.w3.org/2000/svg" width="16" height="16" viewBox="0 0 16 16">
<title>explore</title>
<path d="M8 15c3.866 0 7-3.134 7-7s-3.134-7-7-7c-3.866 0-7 3.134-7 7s3.134 7 7 7zM8 16c-4.418 0-8-3.582-8-8s3.582-8 8-8c4.418 0 8 3.582 8 8s-3.582 8-8 8z"></path>
<path d="M9.238 9.238l1.858-4.334-4.334 1.858 2.477 2.477zM6 6l5.851-2.508c0.254-0.109 0.548 0.009 0.657 0.263 0.054 0.126 0.054 0.268 0 0.394l-2.508 5.851-5.851 2.508c-0.254 0.109-0.548-0.009-0.657-0.263-0.054-0.126-0.054-0.268 0-0.394l2.508-5.851z"></path>
</svg>
