<!-- Generated by IcoMoon.io -->
<svg version="1.1" xmlns="http://www.w3.org/2000/svg" width="16" height="16" viewBox="0 0 16 16">
<title>growth</title>
<path d="M4 6c1.105 0 2-0.895 2-2s-0.895-2-2-2c-1.105 0-2 0.895-2 2s0.895 2 2 2zM4 7c-1.657 0-3-1.343-3-3s1.343-3 3-3c1.657 0 3 1.343 3 3s-1.343 3-3 3zM12 14c1.105 0 2-0.895 2-2s-0.895-2-2-2c-1.105 0-2 0.895-2 2s0.895 2 2 2zM12 15c-1.657 0-3-1.343-3-3s1.343-3 3-3c1.657 0 3 1.343 3 3s-1.343 3-3 3zM0.646 14.646l13-13c0.471-0.471 1.179 0.236 0.707 0.707l-13 13c-0.471 0.471-1.179-0.236-0.707-0.707z"></path>
<path d="M14.5 1c0.276 0 0.5 0.224 0.5 0.5v4c0 0.276-0.224 0.5-0.5 0.5s-0.5-0.224-0.5-0.5v-3.5h-3.5c-0.276 0-0.5-0.224-0.5-0.5s0.224-0.5 0.5-0.5h4z"></path>
</svg>
