<!-- Generated by IcoMoon.io -->
<svg version="1.1" xmlns="http://www.w3.org/2000/svg" width="16" height="16" viewBox="0 0 16 16">
<title>message</title>
<path d="M10.68 14.266c0.11 0.092 0.18 0.23 0.18 0.384 0 0.276-0.224 0.5-0.5 0.5-0.141 0-0.268-0.058-0.359-0.151l-0.001 0.001-2-2h-6c-1.105 0-2-0.895-2-2v-8c0-1.105 0.895-2 2-2h12c1.105 0 2 0.895 2 2v8c0 1.105-0.895 2-2 2h-2c-0.276 0-0.5-0.224-0.5-0.5s0.224-0.5 0.5-0.5h2c0.552 0 1-0.448 1-1v-8c0-0.552-0.448-1-1-1h-12c-0.552 0-1 0.448-1 1v8c0 0.552 0.448 1 1 1h6.414l2.266 2.266z"></path>
<path d="M3.5 5h8c0.276 0 0.5 0.224 0.5 0.5s-0.224 0.5-0.5 0.5h-8c-0.276 0-0.5-0.224-0.5-0.5s0.224-0.5 0.5-0.5z"></path>
<path d="M3.5 8h5c0.276 0 0.5 0.224 0.5 0.5s-0.224 0.5-0.5 0.5h-5c-0.276 0-0.5-0.224-0.5-0.5s0.224-0.5 0.5-0.5z"></path>
</svg>
