<!-- Generated by IcoMoon.io -->
<svg version="1.1" xmlns="http://www.w3.org/2000/svg" width="16" height="16" viewBox="0 0 16 16">
<title>model</title>
<path d="M8.129 0.017l0.083 0.030 7.5 3.5c0.359 0.167 0.382 0.653 0.075 0.863l-0.084 0.047-4.5 2c-0.252 0.112-0.548-0.002-0.66-0.254-0.1-0.224-0.021-0.483 0.175-0.616l0.079-0.044 3.496-1.554-6.293-2.937-6.381 2.977 3.114 1.662c0.844-1.193 2.314-1.878 3.859-1.647 0.273 0.041 0.461 0.295 0.421 0.568s-0.295 0.461-0.568 0.421c-1.639-0.245-3.166 0.885-3.41 2.524s0.885 3.166 2.524 3.41c1.639 0.245 3.166-0.885 3.41-2.524 0.041-0.273 0.295-0.461 0.568-0.421s0.461 0.295 0.421 0.568c-0.044 0.292-0.118 0.571-0.218 0.836l3.998 2.132c0.336 0.179 0.35 0.641 0.056 0.848l-0.080 0.046-7.5 3.5c-0.107 0.050-0.228 0.060-0.34 0.030l-0.083-0.030-7.5-3.5c-0.345-0.161-0.383-0.621-0.101-0.844l0.077-0.050 3.998-2.132c-0.238-0.622-0.324-1.312-0.218-2.018 0.044-0.292 0.118-0.571 0.218-0.836l-3.998-2.132c-0.336-0.179-0.35-0.641-0.056-0.848l0.080-0.046 7.5-3.5c0.107-0.050 0.228-0.060 0.34-0.030zM7.409 11.956c-1.123-0.168-2.067-0.788-2.675-1.647l-3.115 1.661 6.38 2.977 6.381-2.977-3.113-1.661c-0.844 1.193-2.314 1.878-3.859 1.647z"></path>
<path d="M9 8c0 0.552-0.448 1-1 1s-1-0.448-1-1c0-0.552 0.448-1 1-1s1 0.448 1 1z"></path>
</svg>
