<!-- Generated by IcoMoon.io -->
<svg version="1.1" xmlns="http://www.w3.org/2000/svg" width="16" height="16" viewBox="0 0 16 16">
<title>push-message</title>
<path d="M2 2c-0.552 0-1 0.448-1 1v5c0 0.552 0.448 1 1 1h12c0.552 0 1-0.448 1-1v-5c0-0.552-0.448-1-1-1h-12zM2 1h12c1.105 0 2 0.895 2 2v5c0 1.105-0.895 2-2 2h-12c-1.105 0-2-0.895-2-2v-5c0-1.105 0.895-2 2-2z"></path>
<path d="M3.5 4h9c0.276 0 0.5 0.224 0.5 0.5s-0.224 0.5-0.5 0.5h-9c-0.276 0-0.5-0.224-0.5-0.5s0.224-0.5 0.5-0.5z"></path>
<path d="M2.5 12h11c0.276 0 0.5 0.224 0.5 0.5s-0.224 0.5-0.5 0.5h-11c-0.276 0-0.5-0.224-0.5-0.5s0.224-0.5 0.5-0.5z"></path>
<path d="M4.5 15h7c0.276 0 0.5 0.224 0.5 0.5s-0.224 0.5-0.5 0.5h-7c-0.276 0-0.5-0.224-0.5-0.5s0.224-0.5 0.5-0.5z"></path>
<path d="M3.5 6h4c0.276 0 0.5 0.224 0.5 0.5s-0.224 0.5-0.5 0.5h-4c-0.276 0-0.5-0.224-0.5-0.5s0.224-0.5 0.5-0.5z"></path>
</svg>
