<!-- Generated by IcoMoon.io -->
<svg version="1.1" xmlns="http://www.w3.org/2000/svg" width="16" height="16" viewBox="0 0 16 16">
<title>qrcode</title>
<path d="M6 1c0.552 0 1 0.448 1 1v4c0 0.552-0.448 1-1 1h-4c-0.552 0-1-0.448-1-1v-3c0-1.105 0.895-2 2-2h3zM6 2h-3c-0.513 0-0.936 0.386-0.993 0.883l-0.007 0.117v3h4v-4z"></path>
<path d="M4 3c0.552 0 1 0.448 1 1s-0.448 1-1 1c-0.552 0-1-0.448-1-1s0.448-1 1-1z"></path>
<path d="M13 1c1.105 0 2 0.895 2 2v3c0 0.552-0.448 1-1 1h-4c-0.552 0-1-0.448-1-1v-4c0-0.552 0.448-1 1-1h3zM13 2h-3v4h4v-3c0-0.552-0.448-1-1-1z"></path>
<path d="M12 3c0.552 0 1 0.448 1 1s-0.448 1-1 1c-0.552 0-1-0.448-1-1s0.448-1 1-1z"></path>
<path d="M6 9c0.552 0 1 0.448 1 1v4c0 0.552-0.448 1-1 1h-3c-1.105 0-2-0.895-2-2v-3c0-0.552 0.448-1 1-1h4zM6 10h-4v3c0 0.513 0.386 0.935 0.883 0.993l0.117 0.007h3v-4z"></path>
<path d="M4 11c0.552 0 1 0.448 1 1s-0.448 1-1 1c-0.552 0-1-0.448-1-1s0.448-1 1-1z"></path>
<path d="M10.5 8l0.012 0c0.021 0 0.042 0.002 0.062 0.005l-0.074-0.005c0.036 0 0.071 0.004 0.105 0.011 0.015 0.003 0.031 0.007 0.046 0.012 0.014 0.004 0.027 0.009 0.040 0.015s0.027 0.012 0.041 0.019c0.012 0.006 0.024 0.013 0.035 0.020s0.024 0.016 0.035 0.024c0.014 0.010 0.027 0.021 0.039 0.033 0.004 0.004 0.008 0.008 0.012 0.012l0.98 0.977c0.008 0.007 0.016 0.015 0.024 0.023 0.087 0.087 0.135 0.198 0.145 0.311v0.089c-0.010 0.113-0.058 0.224-0.145 0.311l-0.026 0.020-0.978 0.98c-0.052 0.052-0.112 0.090-0.177 0.114l1.030 1.028h0.793c0.276 0 0.5 0.224 0.5 0.5s-0.224 0.5-0.5 0.5l-1.009 0.001c-0.025-0.001-0.049-0.003-0.073-0.007l0.083 0.006c-0.033 0-0.065-0.003-0.096-0.009-0.021-0.003-0.041-0.009-0.061-0.015-0.010-0.004-0.021-0.008-0.031-0.012-0.016-0.006-0.031-0.013-0.045-0.021-0.011-0.006-0.021-0.012-0.032-0.019-0.013-0.008-0.026-0.017-0.038-0.026s-0.025-0.021-0.037-0.032c-0.004-0.004-0.008-0.008-0.012-0.012l-2.013-2.013c-0.012-0.012-0.023-0.026-0.033-0.039l0.045 0.051c-0.027-0.027-0.050-0.056-0.069-0.087-0.007-0.011-0.014-0.023-0.020-0.035-0.007-0.014-0.014-0.028-0.019-0.042-0.005-0.013-0.010-0.026-0.014-0.039-0.005-0.015-0.009-0.031-0.012-0.046-0.002-0.010-0.004-0.020-0.006-0.031-0.003-0.021-0.005-0.042-0.005-0.063-0-0.004-0-0.008-0-0.012l0-0.011c0-0.021 0.002-0.042 0.005-0.063l-0.005 0.074c0-0.036 0.004-0.071 0.011-0.105 0.003-0.015 0.007-0.031 0.012-0.046 0.004-0.014 0.009-0.027 0.015-0.040s0.012-0.027 0.019-0.041c0.006-0.012 0.013-0.024 0.020-0.035s0.016-0.024 0.024-0.035c0.010-0.014 0.021-0.027 0.033-0.039 0.004-0.004 0.008-0.008 0.012-0.012l0.012-0.012c0.012-0.012 0.026-0.023 0.039-0.033l-0.051 0.045c0.027-0.027 0.056-0.050 0.087-0.069 0.011-0.007 0.023-0.014 0.035-0.020 0.014-0.007 0.028-0.014 0.042-0.019 0.013-0.005 0.026-0.010 0.039-0.014 0.015-0.005 0.031-0.009 0.046-0.012 0.010-0.002 0.020-0.004 0.031-0.006 0.021-0.003 0.043-0.005 0.064-0.005 0.003-0 0.007-0 0.011-0h0.796l0.499-0.498-0.502-0.502h-1.793c-0.276 0-0.5-0.224-0.5-0.5s0.224-0.5 0.5-0.5h2z"></path>
<path d="M15 10.5v4c0 0.245-0.177 0.45-0.41 0.492l-0.090 0.008h-2c-0.276 0-0.5-0.224-0.5-0.5s0.224-0.5 0.5-0.5h1.5v-3h-0.5c-0.276 0-0.5-0.224-0.5-0.5v-2c0-0.276 0.224-0.5 0.5-0.5h1c0.276 0 0.5 0.224 0.5 0.5s-0.224 0.5-0.5 0.5h-0.5v1h0.5c0.276 0 0.5 0.224 0.5 0.5zM8.5 12c0.276 0 0.5 0.224 0.5 0.5v1.5h1.5c0.276 0 0.5 0.224 0.5 0.5s-0.224 0.5-0.5 0.5h-2c-0.276 0-0.5-0.224-0.5-0.5v-2c0-0.276 0.224-0.5 0.5-0.5z"></path>
</svg>
