<!-- Generated by IcoMoon.io -->
<svg version="1.1" xmlns="http://www.w3.org/2000/svg" width="16" height="16" viewBox="0 0 16 16">
<title>shield</title>
<path d="M2.927 10.618c1.163 2.291 2.839 3.722 5.073 4.348 2.234-0.626 3.91-2.057 5.073-4.348 0.551-1.726 0.575-4.661 0.037-8.752l-5.109-0.852-5.109 0.852c-0.538 4.091-0.515 7.026 0.037 8.752zM2 1l6-1 6 1c0.667 4.667 0.667 8 0 10-1.333 2.667-3.333 4.333-6 5-2.667-0.667-4.667-2.333-6-5-0.667-2-0.667-5.333 0-10z"></path>
<path d="M4.571 4.995c-0.273 0.039-0.527-0.151-0.566-0.424s0.151-0.527 0.424-0.566l3.5-0.5h0.141l3.5 0.5c0.273 0.039 0.463 0.292 0.424 0.566s-0.292 0.463-0.566 0.424l-3.429-0.49-3.429 0.49z"></path>
</svg>
