<!-- Generated by IcoMoon.io -->
<svg version="1.1" xmlns="http://www.w3.org/2000/svg" width="16" height="16" viewBox="0 0 16 16">
<title>tag-lock</title>
<path d="M5 4c0 0.552-0.448 1-1 1s-1-0.448-1-1c0-0.552 0.448-1 1-1s1 0.448 1 1z"></path>
<path d="M9 11v4h6v-4h-6zM9 10h6c0.552 0 1 0.448 1 1v4c0 0.552-0.448 1-1 1h-6c-0.552 0-1-0.448-1-1v-4c0-0.552 0.448-1 1-1zM13 10v-1.2c0-0.417-0.426-0.8-1-0.8s-1 0.383-1 0.8v1.2h-1v-1.2c0-0.994 0.895-1.8 2-1.8s2 0.806 2 1.8v1.2h-1z"></path>
<path d="M12 12c0.552 0 1 0.448 1 1s-0.448 1-1 1c-0.552 0-1-0.448-1-1s0.448-1 1-1z"></path>
<path d="M6.5 0c0.106 0 0.209 0.034 0.293 0.095l0.060 0.051 4 4c0.195 0.195 0.195 0.512 0 0.707-0.174 0.174-0.443 0.193-0.638 0.058l-0.069-0.058-3.853-3.854h-4.793c-0.245 0-0.45 0.177-0.492 0.41l-0.008 0.090v4.793l4.854 4.853c0.174 0.174 0.193 0.443 0.058 0.638l-0.058 0.069c-0.174 0.174-0.443 0.193-0.638 0.058l-0.069-0.058-5-5c-0.075-0.075-0.124-0.171-0.14-0.275l-0.006-0.079v-5c0-0.78 0.595-1.42 1.356-1.493l0.144-0.007h5z"></path>
</svg>
