<!-- Generated by IcoMoon.io -->
<svg version="1.1" xmlns="http://www.w3.org/2000/svg" width="16" height="16" viewBox="0 0 16 16">
<title>tag-authorize</title>
<path d="M5 4c0 0.552-0.448 1-1 1s-1-0.448-1-1c0-0.552 0.448-1 1-1s1 0.448 1 1z"></path>
<path d="M6.5 0c0.106 0 0.209 0.034 0.293 0.095l0.060 0.051 5 5c0.195 0.195 0.195 0.512 0 0.707-0.174 0.174-0.443 0.193-0.638 0.058l-0.069-0.058-4.853-4.854h-4.793c-0.245 0-0.45 0.177-0.492 0.41l-0.008 0.090v4.793l4.854 4.853c0.174 0.174 0.193 0.443 0.058 0.638l-0.058 0.069c-0.174 0.174-0.443 0.193-0.638 0.058l-0.069-0.058-5-5c-0.075-0.075-0.124-0.171-0.14-0.275l-0.006-0.079v-5c0-0.78 0.595-1.42 1.356-1.493l0.144-0.007h5z"></path>
<path d="M16 9c0-0.552-0.448-1-1-1h-6c-0.552 0-1 0.448-1 1v6c0 0.552 0.448 1 1 1h6c0.552 0 1-0.448 1-1v-2h-1v2h-6v-6h7z"></path>
<path d="M15.175 10.12c0.21-0.18 0.525-0.155 0.705 0.054s0.155 0.525-0.054 0.705l-3.5 3c-0.228 0.195-0.575 0.147-0.741-0.102l-1-1.5c-0.153-0.23-0.091-0.54 0.139-0.693s0.54-0.091 0.693 0.139l0.687 1.030 3.072-2.633z"></path>
</svg>
