<!-- Generated by IcoMoon.io -->
<svg version="1.1" xmlns="http://www.w3.org/2000/svg" width="16" height="16" viewBox="0 0 16 16">
<title>tag-unauthorize</title>
<path d="M5 4c0 0.552-0.448 1-1 1s-1-0.448-1-1c0-0.552 0.448-1 1-1s1 0.448 1 1z"></path>
<path d="M6.5 0c0.106 0 0.209 0.034 0.293 0.095l0.060 0.051 4 4c0.195 0.195 0.195 0.512 0 0.707-0.174 0.174-0.443 0.193-0.638 0.058l-0.069-0.058-3.853-3.854h-4.793c-0.245 0-0.45 0.177-0.492 0.41l-0.008 0.090v4.793l3.854 3.853c0.174 0.174 0.193 0.443 0.058 0.638l-0.058 0.069c-0.174 0.174-0.443 0.193-0.638 0.058l-0.069-0.058-4-4c-0.075-0.075-0.124-0.171-0.14-0.275l-0.006-0.079v-5c0-0.78 0.595-1.42 1.356-1.493l0.144-0.007h5zM11.5 7c2.485 0 4.5 2.015 4.5 4.5s-2.015 4.5-4.5 4.5c-2.485 0-4.5-2.015-4.5-4.5s2.015-4.5 4.5-4.5zM14.303 9.404l-4.899 4.899c0.584 0.437 1.31 0.697 2.096 0.697 1.933 0 3.5-1.567 3.5-3.5 0-0.786-0.259-1.511-0.697-2.096zM11.5 8c-1.933 0-3.5 1.567-3.5 3.5 0 0.786 0.259 1.511 0.697 2.096l4.899-4.899c-0.584-0.437-1.31-0.697-2.096-0.697z"></path>
</svg>
