<!-- Generated by IcoMoon.io -->
<svg version="1.1" xmlns="http://www.w3.org/2000/svg" width="16" height="16" viewBox="0 0 16 16">
<title>tag-date</title>
<path d="M1 6.293v-4.793c0-0.276 0.224-0.5 0.5-0.5h4.793l3.354 3.354c0.195 0.195 0.512 0.195 0.707 0s0.195-0.512 0-0.707l-3.646-3.646h-5.207c-0.828 0-1.5 0.672-1.5 1.5v5.207l2.646 2.646c0.195 0.195 0.512 0.195 0.707 0s0.195-0.512 0-0.707l-2.354-2.354z"></path>
<path d="M5 4c0 0.552-0.448 1-1 1s-1-0.448-1-1c0-0.552 0.448-1 1-1s1 0.448 1 1z"></path>
<path d="M12.5 5c0.276 0 0.5 0.224 0.5 0.5v0.5h1c1.105 0 2 0.895 2 2v6c0 1.105-0.895 2-2 2h-7c-1.105 0-2-0.895-2-2v-6c0-1.105 0.895-2 2-2h1v-0.5c0-0.276 0.224-0.5 0.5-0.5s0.5 0.224 0.5 0.5v0.5h3v-0.5c0-0.276 0.224-0.5 0.5-0.5zM15 9h-9v5c0 0.513 0.386 0.935 0.883 0.993l0.117 0.007h7c0.513 0 0.935-0.386 0.993-0.883l0.007-0.117v-5zM12 7h-3v1h3v-1zM8 7h-1c-0.513 0-0.936 0.386-0.993 0.883l-0.007 0.117h2v-1zM14 7h-1v1h2c0-0.513-0.386-0.936-0.883-0.993l-0.117-0.007z"></path>
<path d="M8.5 11h1c0.276 0 0.5 0.224 0.5 0.5s-0.224 0.5-0.5 0.5h-1c-0.276 0-0.5-0.224-0.5-0.5s0.224-0.5 0.5-0.5z"></path>
<path d="M8.5 13h1c0.276 0 0.5 0.224 0.5 0.5s-0.224 0.5-0.5 0.5h-1c-0.276 0-0.5-0.224-0.5-0.5s0.224-0.5 0.5-0.5z"></path>
<path d="M11.5 11h1c0.276 0 0.5 0.224 0.5 0.5s-0.224 0.5-0.5 0.5h-1c-0.276 0-0.5-0.224-0.5-0.5s0.224-0.5 0.5-0.5z"></path>
<path d="M11.5 13h1c0.276 0 0.5 0.224 0.5 0.5s-0.224 0.5-0.5 0.5h-1c-0.276 0-0.5-0.224-0.5-0.5s0.224-0.5 0.5-0.5z"></path>
</svg>
