<!-- Generated by IcoMoon.io -->
<svg version="1.1" xmlns="http://www.w3.org/2000/svg" width="16" height="16" viewBox="0 0 16 16">
<title>tag-number</title>
<path d="M1 6.293v-4.793c0-0.276 0.224-0.5 0.5-0.5h4.793l3.884 3.884c0.195 0.195 0.512 0.195 0.707 0s0.195-0.512 0-0.707l-4.177-4.177h-5.207c-0.828 0-1.5 0.672-1.5 1.5v5.207l0.646 0.646c0.195 0.195 0.512 0.195 0.707 0s0.195-0.512 0-0.707l-0.354-0.354z"></path>
<path d="M5 4c0 0.552-0.448 1-1 1s-1-0.448-1-1c0-0.552 0.448-1 1-1s1 0.448 1 1z"></path>
<path d="M8 7c1.105 0 2 0.895 2 2v2c-0 0.111-0.037 0.22-0.108 0.31l-0.060 0.063-2.329 2.070c-0.28 0.249-0.456 0.593-0.495 0.962l-0.008 0.16v0.436l3-0.001v1h-4v-1.435c0-0.649 0.252-1.27 0.699-1.734l0.14-0.134 2.161-1.922v-1.774c0-0.5-0.5-1-1-1-0.464 0-0.929 0.431-0.993 0.893l-0.007 0.107v1h-1v-1l0.005-0.149c0.073-0.983 0.856-1.769 1.838-1.845l0.157-0.006z"></path>
<path d="M4 7v9h-1v-7h-1v-1h1v-1z"></path>
<path d="M15 12c0.552 0 1 0.448 1 1v1l-0.005 0.149c-0.073 0.983-0.856 1.769-1.838 1.845l-0.157 0.006c-1.105 0-2-0.895-2-2v-1h1v1c0 0.464 0.431 0.929 0.893 0.993l0.107 0.007c0.464 0 0.929-0.431 0.993-0.893l0.007-0.107v-2zM15 11v1h-2v-1h2zM15 9c0-0.5-0.5-1-1-1-0.464 0-0.929 0.431-0.993 0.893l-0.007 0.107v1h-1v-1l0.005-0.149c0.073-0.983 0.856-1.769 1.838-1.845l0.157-0.006c1.105 0 2 0.895 2 2v1c0 0.552-0.448 1-1 1v-2z"></path>
</svg>
