<!-- Generated by IcoMoon.io -->
<svg version="1.1" xmlns="http://www.w3.org/2000/svg" width="16" height="16" viewBox="0 0 16 16">
<title>tag-filter</title>
<path d="M6.5 0c0.106 0 0.209 0.034 0.293 0.095l0.060 0.051 4 4c0.195 0.195 0.195 0.512 0 0.707-0.174 0.174-0.443 0.193-0.638 0.058l-0.069-0.058-3.853-3.854h-4.793c-0.245 0-0.45 0.177-0.492 0.41l-0.008 0.090v4.793l5.854 5.853c0.174 0.174 0.193 0.443 0.058 0.638l-0.058 0.069c-0.174 0.174-0.443 0.193-0.638 0.058l-0.069-0.058-6-6c-0.075-0.075-0.124-0.171-0.14-0.275l-0.006-0.079v-5c0-0.78 0.595-1.42 1.356-1.493l0.144-0.007h5z"></path>
<path d="M5 4c0 0.552-0.448 1-1 1s-1-0.448-1-1c0-0.552 0.448-1 1-1s1 0.448 1 1z"></path>
<path d="M13.5 7c0.276 0 0.5 0.224 0.5 0.5 0 0.245-0.177 0.45-0.41 0.492l-0.090 0.008h-4.913l2.293 2.675c0.058 0.068 0.097 0.15 0.112 0.237l0.008 0.088v3.191l1 0.5v-3.691c0-0.089 0.024-0.177 0.069-0.253l0.052-0.072 3-3.5c0.18-0.21 0.495-0.234 0.705-0.054 0.186 0.16 0.226 0.427 0.107 0.632l-0.052 0.073-2.88 3.359v4.316c0 0.343-0.333 0.575-0.646 0.478l-0.078-0.031-2-1c-0.141-0.071-0.239-0.203-0.268-0.354l-0.009-0.093v-3.315l-2.88-3.36c-0.259-0.303-0.076-0.759 0.297-0.819l0.083-0.006h6z"></path>
</svg>
