<!-- Generated by IcoMoon.io -->
<svg version="1.1" xmlns="http://www.w3.org/2000/svg" width="16" height="16" viewBox="0 0 16 16">
<title>task</title>
<path d="M6.5 2h9c0.276 0 0.5 0.224 0.5 0.5s-0.224 0.5-0.5 0.5h-9c-0.276 0-0.5-0.224-0.5-0.5s0.224-0.5 0.5-0.5zM6.5 14h9c0.276 0 0.5 0.224 0.5 0.5s-0.224 0.5-0.5 0.5h-9c-0.276 0-0.5-0.224-0.5-0.5s0.224-0.5 0.5-0.5zM6.5 8h9c0.276 0 0.5 0.224 0.5 0.5s-0.224 0.5-0.5 0.5h-9c-0.276 0-0.5-0.224-0.5-0.5s0.224-0.5 0.5-0.5z"></path>
<path d="M1 7v2h2v-2h-2zM1 6h2c0.552 0 1 0.448 1 1v2c0 0.552-0.448 1-1 1h-2c-0.552 0-1-0.448-1-1v-2c0-0.552 0.448-1 1-1z"></path>
<path d="M4.093 0.209c0.16-0.225 0.473-0.277 0.697-0.116s0.277 0.473 0.116 0.697l-2.5 3.5c-0.179 0.25-0.538 0.281-0.757 0.066l-1.513-1.487c-0.197-0.194-0.2-0.51-0.006-0.707s0.51-0.2 0.707-0.006l1.095 1.077 2.16-3.024z"></path>
<path d="M1 13v2h2v-2h-2zM1 12h2c0.552 0 1 0.448 1 1v2c0 0.552-0.448 1-1 1h-2c-0.552 0-1-0.448-1-1v-2c0-0.552 0.448-1 1-1z"></path>
</svg>
