<!-- Generated by IcoMoon.io -->
<svg version="1.1" xmlns="http://www.w3.org/2000/svg" width="16" height="16" viewBox="0 0 16 16">
<title>views-unauthorize</title>
<path d="M14 3c0-0.552-0.448-1-1-1h-11c-0.552 0-1 0.448-1 1v9c0 0.552 0.448 1 1 1h3.5c0.276 0 0.5 0.224 0.5 0.5s-0.224 0.5-0.5 0.5h-3.5c-1.105 0-2-0.895-2-2v-9c0-1.105 0.895-2 2-2h11c1.105 0 2 0.895 2 2v3.5c0 0.276-0.224 0.5-0.5 0.5s-0.5-0.224-0.5-0.5v-3.5z"></path>
<path d="M1 4h13v1h-13v-1z"></path>
<path d="M11.5 7c2.485 0 4.5 2.015 4.5 4.5s-2.015 4.5-4.5 4.5c-2.485 0-4.5-2.015-4.5-4.5s2.015-4.5 4.5-4.5zM14.303 9.404l-4.899 4.899c0.584 0.437 1.31 0.697 2.096 0.697 1.933 0 3.5-1.567 3.5-3.5 0-0.786-0.259-1.511-0.697-2.096zM11.5 8c-1.933 0-3.5 1.567-3.5 3.5 0 0.786 0.259 1.511 0.697 2.096l4.899-4.899c-0.584-0.437-1.31-0.697-2.096-0.697z"></path>
</svg>
