<!-- Generated by IcoMoon.io -->
<svg version="1.1" xmlns="http://www.w3.org/2000/svg" width="16" height="16" viewBox="0 0 16 16">
<title>views-authorize</title>
<path d="M3 4v7c0 0.442 0.57 1 1 1h2.5c0.276 0 0.5 0.224 0.5 0.5 0 0.245-0.177 0.45-0.41 0.492l-0.090 0.008h-2.5c-0.957 0-2-0.98-2-2v-8c0-1.020 1.043-2 2-2h10c0.957 0 2 0.98 2 2v3.5c0 0.276-0.224 0.5-0.5 0.5-0.245 0-0.45-0.177-0.492-0.41l-0.008-0.090v-2.5h-12zM15 3c0-0.442-0.569-1-1-1h-10c-0.43 0-1 0.558-1 1h12z"></path>
<path d="M1 13c0 0.442 0.57 1 1 1h4.5c0.276 0 0.5 0.224 0.5 0.5 0 0.245-0.177 0.45-0.41 0.492l-0.090 0.008h-4.5c-0.957 0-2-0.98-2-2v-8.5l0.008-0.090c0.042-0.233 0.246-0.41 0.492-0.41s0.45 0.177 0.492 0.41l0.008 0.090v8.5zM16 9c0-0.552-0.448-1-1-1h-6c-0.552 0-1 0.448-1 1v6c0 0.552 0.448 1 1 1h6c0.552 0 1-0.448 1-1v-2h-1v2h-6v-6h7z"></path>
<path d="M15.175 10.12c0.21-0.18 0.525-0.155 0.705 0.054s0.155 0.525-0.054 0.705l-3.5 3c-0.228 0.195-0.575 0.147-0.741-0.102l-1-1.5c-0.153-0.23-0.091-0.54 0.139-0.693s0.54-0.091 0.693 0.139l0.687 1.030 3.072-2.633z"></path>
</svg>
