<!-- Generated by IcoMoon.io -->
<svg version="1.1" xmlns="http://www.w3.org/2000/svg" width="16" height="16" viewBox="0 0 16 16">
<title>edit-row</title>
<path d="M15 0c0.552 0 1 0.448 1 1v2c0 0.552-0.448 1-1 1h-10c-0.552 0-1-0.448-1-1v-2c0-0.552 0.448-1 1-1h10zM15 1h-10v2h10v-2z"></path>
<path d="M1.5 13c0.276 0 0.5 0.224 0.5 0.5v0.5h0.5c0.276 0 0.5 0.224 0.5 0.5s-0.224 0.5-0.5 0.5h-0.5v0.5c0 0.276-0.224 0.5-0.5 0.5s-0.5-0.224-0.5-0.5v-0.5h-0.5c-0.276 0-0.5-0.224-0.5-0.5s0.224-0.5 0.5-0.5h0.5v-0.5c0-0.276 0.224-0.5 0.5-0.5z"></path>
<path d="M0.5 1h2c0.276 0 0.5 0.224 0.5 0.5s-0.224 0.5-0.5 0.5h-2c-0.276 0-0.5-0.224-0.5-0.5s0.224-0.5 0.5-0.5z"></path>
<path d="M15 6c0.552 0 1 0.448 1 1v2c0 0.552-0.448 1-1 1h-10c-0.552 0-1-0.448-1-1v-2c0-0.552 0.448-1 1-1h10zM15 7h-10v2h10v-2z"></path>
<path d="M5 12h0.5c0.276 0 0.5 0.224 0.5 0.5s-0.224 0.5-0.5 0.5h-0.5v0.5c0 0.276-0.224 0.5-0.5 0.5s-0.5-0.224-0.5-0.5v-0.5c0-0.552 0.448-1 1-1zM13.5 12h1.5c0.552 0 1 0.448 1 1v0 0h-2.5c-0.276 0-0.5-0.224-0.5-0.5s0.224-0.5 0.5-0.5zM4 15h2.5c0.276 0 0.5 0.224 0.5 0.5s-0.224 0.5-0.5 0.5h-1.5c-0.552 0-1-0.448-1-1v0 0z"></path>
<path d="M10.5 12h1c0.276 0 0.5 0.224 0.5 0.5s-0.224 0.5-0.5 0.5h-1c-0.276 0-0.5-0.224-0.5-0.5s0.224-0.5 0.5-0.5z"></path>
<path d="M7.5 12h1c0.276 0 0.5 0.224 0.5 0.5s-0.224 0.5-0.5 0.5h-1c-0.276 0-0.5-0.224-0.5-0.5s0.224-0.5 0.5-0.5z"></path>
<path d="M8.5 15h1c0.276 0 0.5 0.224 0.5 0.5s-0.224 0.5-0.5 0.5h-1c-0.276 0-0.5-0.224-0.5-0.5s0.224-0.5 0.5-0.5z"></path>
<path d="M11.5 15h1c0.276 0 0.5 0.224 0.5 0.5s-0.224 0.5-0.5 0.5h-1c-0.276 0-0.5-0.224-0.5-0.5s0.224-0.5 0.5-0.5z"></path>
<path d="M15 15v-0.5c0-0.276 0.224-0.5 0.5-0.5s0.5 0.224 0.5 0.5v0.5c0 0.552-0.448 1-1 1h-0.5c-0.276 0-0.5-0.224-0.5-0.5s0.224-0.5 0.5-0.5h0.5z"></path>
</svg>
