<!-- Generated by IcoMoon.io -->
<svg version="1.1" xmlns="http://www.w3.org/2000/svg" width="16" height="16" viewBox="0 0 16 16">
<title>edit-column</title>
<path d="M3 4c0.552 0 1 0.448 1 1v10c0 0.552-0.448 1-1 1h-2c-0.552 0-1-0.448-1-1v-10c0-0.552 0.448-1 1-1h2zM3 5h-2v10h2v-10z"></path>
<path d="M14.5 0c0.276 0 0.5 0.224 0.5 0.5v0.5h0.5c0.276 0 0.5 0.224 0.5 0.5s-0.224 0.5-0.5 0.5h-0.5v0.5c0 0.276-0.224 0.5-0.5 0.5s-0.5-0.224-0.5-0.5v-0.5h-0.5c-0.276 0-0.5-0.224-0.5-0.5s0.224-0.5 0.5-0.5h0.5v-0.5c0-0.276 0.224-0.5 0.5-0.5z"></path>
<path d="M0.5 1h2c0.276 0 0.5 0.224 0.5 0.5s-0.224 0.5-0.5 0.5h-2c-0.276 0-0.5-0.224-0.5-0.5s0.224-0.5 0.5-0.5z"></path>
<path d="M9 4c0.552 0 1 0.448 1 1v10c0 0.552-0.448 1-1 1h-2c-0.552 0-1-0.448-1-1v-10c0-0.552 0.448-1 1-1h2zM9 5h-2v10h2v-10z"></path>
<path d="M13 4h0.5c0.276 0 0.5 0.224 0.5 0.5s-0.224 0.5-0.5 0.5h-0.5v0.5c0 0.276-0.224 0.5-0.5 0.5s-0.5-0.224-0.5-0.5v-0.5c0-0.552 0.448-1 1-1z"></path>
<path d="M12.5 10c0.276 0 0.5 0.224 0.5 0.5v1c0 0.276-0.224 0.5-0.5 0.5s-0.5-0.224-0.5-0.5v-1c0-0.276 0.224-0.5 0.5-0.5z"></path>
<path d="M12.5 7c0.276 0 0.5 0.224 0.5 0.5v1c0 0.276-0.224 0.5-0.5 0.5s-0.5-0.224-0.5-0.5v-1c0-0.276 0.224-0.5 0.5-0.5z"></path>
<path d="M12.5 13c0.276 0 0.5 0.224 0.5 0.5v2.5c-0.552 0-1-0.448-1-1v-1.5c0-0.276 0.224-0.5 0.5-0.5zM15 4c0.552 0 1 0.448 1 1v1.5c0 0.276-0.224 0.5-0.5 0.5s-0.5-0.224-0.5-0.5v-2.5z"></path>
<path d="M15.5 8c0.276 0 0.5 0.224 0.5 0.5v1c0 0.276-0.224 0.5-0.5 0.5s-0.5-0.224-0.5-0.5v-1c0-0.276 0.224-0.5 0.5-0.5z"></path>
<path d="M15.5 11c0.276 0 0.5 0.224 0.5 0.5v1c0 0.276-0.224 0.5-0.5 0.5s-0.5-0.224-0.5-0.5v-1c0-0.276 0.224-0.5 0.5-0.5z"></path>
<path d="M14.5 15h1.5c0 0.552-0.448 1-1 1h-0.5c-0.276 0-0.5-0.224-0.5-0.5s0.224-0.5 0.5-0.5zM15.5 14c0.276 0 0.5 0.224 0.5 0.5v0.5h-1v-0.5c0-0.276 0.224-0.5 0.5-0.5z"></path>
</svg>
