<!-- Generated by IcoMoon.io -->
<svg version="1.1" xmlns="http://www.w3.org/2000/svg" width="16" height="16" viewBox="0 0 16 16">
<title>grid</title>
<path d="M2 1c-0.552 0-1 0.448-1 1v3c0 0.552 0.448 1 1 1h3c0.552 0 1-0.448 1-1v-3c0-0.552-0.448-1-1-1h-3zM2 0h3c1.105 0 2 0.895 2 2v3c0 1.105-0.895 2-2 2h-3c-1.105 0-2-0.895-2-2v-3c0-1.105 0.895-2 2-2zM11 1c-0.552 0-1 0.448-1 1v3c0 0.552 0.448 1 1 1h3c0.552 0 1-0.448 1-1v-3c0-0.552-0.448-1-1-1h-3zM11 0h3c1.105 0 2 0.895 2 2v3c0 1.105-0.895 2-2 2h-3c-1.105 0-2-0.895-2-2v-3c0-1.105 0.895-2 2-2zM2 10c-0.552 0-1 0.448-1 1v3c0 0.552 0.448 1 1 1h3c0.552 0 1-0.448 1-1v-3c0-0.552-0.448-1-1-1h-3zM2 9h3c1.105 0 2 0.895 2 2v3c0 1.105-0.895 2-2 2h-3c-1.105 0-2-0.895-2-2v-3c0-1.105 0.895-2 2-2zM11 10c-0.552 0-1 0.448-1 1v3c0 0.552 0.448 1 1 1h3c0.552 0 1-0.448 1-1v-3c0-0.552-0.448-1-1-1h-3zM11 9h3c1.105 0 2 0.895 2 2v3c0 1.105-0.895 2-2 2h-3c-1.105 0-2-0.895-2-2v-3c0-1.105 0.895-2 2-2z"></path>
</svg>
