<!-- Generated by IcoMoon.io -->
<svg version="1.1" xmlns="http://www.w3.org/2000/svg" width="16" height="16" viewBox="0 0 16 16">
<title>hight</title>
<path d="M12.476 0l0.053 0 0.073 0.010 0.107 0.035 0.068 0.038 3 2c0.23 0.153 0.292 0.464 0.139 0.693-0.136 0.204-0.397 0.276-0.614 0.182l-0.079-0.043-2.223-1.482v13.132l2.223-1.482c0.23-0.153 0.54-0.091 0.693 0.139 0.136 0.204 0.102 0.472-0.068 0.637l-0.070 0.057-3.029 2.018-0.077 0.036-0.089 0.023-0.082 0.007-0.082-0.007-0.065-0.015-0.082-0.033-0.048-0.028-3-2c-0.23-0.153-0.292-0.464-0.139-0.693 0.136-0.204 0.397-0.276 0.614-0.182l0.079 0.043 2.223 1.482v-13.132l-2.223 1.482c-0.23 0.153-0.54 0.091-0.693-0.139-0.136-0.204-0.102-0.472 0.068-0.637l0.070-0.057 3-2c0.034-0.023 0.070-0.041 0.107-0.054l0.089-0.023 0.058-0.006zM6 0c0.552 0 1 0.448 1 1v14c0 0.552-0.448 1-1 1h-5c-0.552 0-1-0.448-1-1v-14c0-0.552 0.448-1 1-1h5zM6 1h-5v14h5v-14z"></path>
</svg>
