<!-- Generated by IcoMoon.io -->
<svg version="1.1" xmlns="http://www.w3.org/2000/svg" width="16" height="16" viewBox="0 0 16 16">
<title>resize</title>
<path d="M6 8c1.105 0 2 0.895 2 2v4c0 1.105-0.895 2-2 2h-4c-1.105 0-2-0.895-2-2v-4c0-1.105 0.895-2 2-2h4zM6 9h-4c-0.513 0-0.935 0.386-0.993 0.883l-0.007 0.117v4c0 0.513 0.386 0.935 0.883 0.993l0.117 0.007h4c0.513 0 0.936-0.386 0.993-0.883l0.007-0.117v-4c0-0.513-0.386-0.935-0.883-0.993l-0.117-0.007z"></path>
<path d="M10 3h3v3z"></path>
<path d="M8 5l3 3h-3z"></path>
<path d="M15 14v-1h1v1c0 1.105-0.895 2-2 2h-1v-1h1c0.552 0 1-0.448 1-1z"></path>
<path d="M15 2v1h1v-1c0-1.105-0.895-2-2-2h-1v1h1c0.552 0 1 0.448 1 1z"></path>
<path d="M1 2v1h-1v-1c0-1.105 0.895-2 2-2h1v1h-1c-0.552 0-1 0.448-1 1z"></path>
<path d="M15 10h1v2h-1v-2z"></path>
<path d="M15 4h1v2h-1v-2z"></path>
<path d="M10 0h2v1h-2v-1z"></path>
<path d="M10 15h2v1h-2v-1z"></path>
<path d="M7 0h2v1h-2v-1z"></path>
<path d="M7 15h2v1h-2v-1z"></path>
<path d="M4 0h2v1h-2v-1z"></path>
<path d="M15 7h1v2h-1v-2z"></path>
<path d="M0 7h1v2h-1v-2z"></path>
<path d="M0 4h1v2h-1v-2z"></path>
</svg>
