<!-- Generated by IcoMoon.io -->
<svg version="1.1" xmlns="http://www.w3.org/2000/svg" width="16" height="16" viewBox="0 0 16 16">
<title>site-setting</title>
<path d="M5 6h-4v-1h14v1h-9v8h-1z"></path>
<path d="M15 8v-3c0-0.915 0-1.582 0-2 0-0.552-0.448-1-1-1h-12c-0.552 0-1 0.448-1 1v10c0 0.552 0.448 1 1 1 1.481 0 3.481 0 6 0v1c-2.519 0-4.519 0-6 0-1.105 0-2-0.895-2-2v-10c0-1.105 0.895-2 2-2h12c1.105 0 2 0.895 2 2 0 1.185 0 2.852 0 5h-1z"></path>
<path d="M13 12c0 0.552-0.448 1-1 1s-1-0.448-1-1c0-0.552 0.448-1 1-1s1 0.448 1 1z"></path>
<path d="M14.19 8.646c0.397 0.229 0.588 0.7 0.461 1.141l-0.234 0.817 0.826 0.207c0.445 0.111 0.757 0.511 0.757 0.97v0.438c0 0.459-0.312 0.859-0.757 0.97l-0.826 0.206 0.235 0.818c0.126 0.441-0.064 0.912-0.461 1.141l-0.38 0.219c-0.397 0.229-0.9 0.159-1.219-0.171l-0.592-0.612-0.591 0.612c-0.319 0.33-0.822 0.4-1.219 0.171l-0.38-0.219c-0.397-0.229-0.588-0.7-0.461-1.141l0.234-0.818-0.825-0.206c-0.445-0.111-0.757-0.511-0.757-0.97v-0.438c0-0.459 0.312-0.859 0.757-0.97l0.826-0.207-0.235-0.817c-0.126-0.441 0.064-0.912 0.461-1.141l0.38-0.219c0.397-0.229 0.9-0.159 1.219 0.171l0.591 0.611 0.591-0.611c0.319-0.33 0.822-0.4 1.219-0.171l0.38 0.219zM13.69 9.512l-0.38-0.219-0.591 0.611-1.437-0-0.592-0.611-0.38 0.218 0.235 0.817-0.718 1.246-0.827 0.207-0.001 0.438 0.825 0.206 0.72 1.245-0.234 0.819 0.379 0.22 0.591-0.612 1.439-0.001 0.592 0.612 0.38-0.218-0.235-0.818 0.72-1.247 0.825-0.205-0.001-0.439-0.826-0.207-0.718-1.246 0.234-0.816z"></path>
</svg>
