<!-- Generated by IcoMoon.io -->
<svg version="1.1" xmlns="http://www.w3.org/2000/svg" width="16" height="16" viewBox="0 0 16 16">
<title>three-columns</title>
<path d="M4 1c0.552 0 1 0.448 1 1v12c0 0.552-0.448 1-1 1h-3c-0.552 0-1-0.448-1-1v-12c0-0.552 0.448-1 1-1h3zM4 2h-3v12h3v-12zM9 1c0.552 0 1 0.448 1 1v12c0 0.552-0.448 1-1 1h-2c-0.552 0-1-0.448-1-1v-12c0-0.552 0.448-1 1-1h2zM9 2h-2v12h2v-12zM15 1c0.552 0 1 0.448 1 1v12c0 0.552-0.448 1-1 1h-3c-0.552 0-1-0.448-1-1v-12c0-0.552 0.448-1 1-1h3zM15 2h-3v12h3v-12z"></path>
</svg>
