<!-- Generated by IcoMoon.io -->
<svg version="1.1" xmlns="http://www.w3.org/2000/svg" width="16" height="16" viewBox="0 0 16 16">
<title>width</title>
<path d="M13.859 9.152l0.057 0.070 2.018 3.029 0.036 0.077 0.023 0.089 0.007 0.082-0.007 0.082-0.015 0.065-0.024 0.062-0.020 0.038-2.018 3.029c-0.153 0.23-0.464 0.292-0.693 0.139-0.204-0.136-0.276-0.397-0.182-0.614l0.043-0.079 1.481-2.223h-13.131l1.482 2.223c0.153 0.23 0.091 0.54-0.139 0.693-0.204 0.136-0.472 0.102-0.637-0.068l-0.057-0.070-2-3c-0.023-0.034-0.041-0.070-0.054-0.107l-0.023-0.089-0.006-0.058 0.006-0.106 0.015-0.065 0.024-0.062 0.023-0.045 2.015-3.023c0.153-0.23 0.464-0.292 0.693-0.139 0.204 0.136 0.276 0.397 0.182 0.614l-0.043 0.079-1.482 2.223h13.132l-1.482-2.223c-0.153-0.23-0.091-0.54 0.139-0.693 0.204-0.136 0.472-0.102 0.637 0.068zM15 0c0.552 0 1 0.448 1 1v5c0 0.552-0.448 1-1 1h-14c-0.552 0-1-0.448-1-1v-5c0-0.552 0.448-1 1-1h14zM15 1h-14v5h14v-5z"></path>
</svg>
