<!-- Generated by IcoMoon.io -->
<svg version="1.1" xmlns="http://www.w3.org/2000/svg" width="32" height="32" viewBox="0 0 32 32">
<path d="M16 2.13c7.648 0 13.87 6.222 13.87 13.87s-6.222 13.87-13.87 13.87-13.87-6.222-13.87-13.87 6.222-13.87 13.87-13.87zM16 0c-8.837 0-16 7.163-16 16s7.163 16 16 16 16-7.163 16-16-7.163-16-16-16v0z"></path>
<path d="M14.046 23.182h3.989v3.941h-3.989v-3.941z"></path>
<path d="M22.727 12.414c-0.151 0.507-0.361 0.987-0.624 1.442-0.265 0.455-0.585 0.882-0.96 1.289s-0.786 0.795-1.234 1.168c-0.503 0.416-0.905 0.784-1.209 1.104s-0.512 0.599-0.617 0.834c-0.215 0.457-0.32 1.465-0.32 3.029h-3.602c0-2.135 0.208-3.637 0.624-4.503 0.407-0.834 1.163-1.712 2.274-2.642 0.48-0.393 0.855-0.745 1.12-1.049 0.267-0.306 0.471-0.576 0.606-0.816 0.139-0.24 0.226-0.464 0.258-0.672s0.046-0.425 0.046-0.647c0-0.418-0.071-0.802-0.215-1.152-0.142-0.354-0.352-0.658-0.615-0.917-0.265-0.256-0.583-0.457-0.944-0.599-0.363-0.149-0.768-0.217-1.218-0.217-1.751 0-2.818 1.223-3.202 3.669h-3.845c0.096-1.047 0.334-1.998 0.713-2.846s0.878-1.57 1.49-2.162 1.328-1.049 2.146-1.369c0.816-0.32 1.705-0.48 2.665-0.48 1.024 0 1.959 0.149 2.802 0.441 0.843 0.295 1.566 0.699 2.167 1.225 0.606 0.521 1.074 1.145 1.41 1.872s0.503 1.513 0.503 2.373c0.005 0.578-0.071 1.12-0.219 1.625z"></path>
</svg>
