<!-- Generated by IcoMoon.io -->
<svg version="1.1" xmlns="http://www.w3.org/2000/svg" width="32" height="32" viewBox="0 0 32 32">
<path d="M28.985 3.598h-25.97c-1.662 0-3.015 1.385-3.015 3.090v18.626c0 1.705 1.353 3.088 3.015 3.088h25.966c1.664 0 3.017-1.383 3.017-3.088v-18.626c0.002-1.705-1.351-3.090-3.013-3.090zM29.207 25.312c0 0.128-0.103 0.233-0.226 0.233h-25.966c-0.126 0-0.229-0.103-0.229-0.233v-16.222h26.421v16.222z"></path>
<path d="M6.286 23.031c0.917 0 1.657-0.743 1.657-1.655 0-0.183-0.050-0.347-0.105-0.514l3.833-3.707c0.178 0.069 0.366 0.119 0.567 0.119 0.233 0 0.457-0.053 0.661-0.139l4.375 3.817c-0.039 0.137-0.085 0.274-0.085 0.425 0 0.912 0.743 1.655 1.659 1.655s1.657-0.743 1.657-1.655c0-0.215-0.048-0.421-0.126-0.613l4.859-5.248c0.153 0.043 0.304 0.094 0.473 0.094 0.919 0 1.659-0.743 1.659-1.657s-0.743-1.659-1.659-1.659-1.657 0.745-1.657 1.659c0 0.215 0.048 0.418 0.123 0.606l-4.859 5.248c-0.151-0.043-0.302-0.094-0.469-0.094-0.233 0-0.457 0.050-0.658 0.137l-4.377-3.815c0.039-0.139 0.087-0.274 0.087-0.425 0-0.914-0.743-1.657-1.662-1.657-0.917 0-1.657 0.745-1.657 1.657 0 0.183 0.050 0.347 0.105 0.51l-3.833 3.707c-0.181-0.066-0.366-0.114-0.569-0.114-0.919 0-1.662 0.743-1.662 1.662 0 0.914 0.743 1.657 1.662 1.657z"></path>
</svg>
