<!-- Generated by IcoMoon.io -->
<svg version="1.1" xmlns="http://www.w3.org/2000/svg" width="32" height="32" viewBox="0 0 32 32">
<path d="M28.985 3.595h-25.97c-1.662 0-3.015 1.39-3.015 3.093v18.624c0 1.705 1.353 3.093 3.015 3.093h25.966c1.664 0 3.017-1.387 3.017-3.093v-18.624c0.002-1.703-1.351-3.093-3.013-3.093zM28.985 25.545h-25.97c-0.123 0-0.229-0.105-0.229-0.233v-16.222h26.421v16.222c0 0.13-0.098 0.233-0.222 0.233z"></path>
<path d="M24.503 11.365h-2.642c-0.311 0-0.583 0.206-0.663 0.505l-2.103 7.568h-8.599l-0.359-1.577h5.045c0.382 0 0.69-0.309 0.69-0.69s-0.309-0.69-0.69-0.69h-5.355l-0.341-1.497h5.154c0.382 0 0.69-0.309 0.69-0.69s-0.309-0.69-0.69-0.69h-6.055c-0.379 0-0.69 0.309-0.69 0.69 0 0.121 0.039 0.229 0.094 0.329l1.291 5.689c0.005 0.023 0.034 0.027 0.041 0.048 0.096 0.265 0.343 0.457 0.642 0.457h9.653c0.311 0 0.583-0.208 0.663-0.505l2.101-7.566h2.119c0.379 0 0.69-0.309 0.69-0.69 0.002-0.382-0.306-0.69-0.686-0.69z"></path>
<path d="M12.322 22.455c0 0.539-0.437 0.976-0.976 0.976s-0.976-0.437-0.976-0.976c0-0.539 0.437-0.976 0.976-0.976s0.976 0.437 0.976 0.976z"></path>
<path d="M19.392 22.455c0 0.54-0.438 0.978-0.978 0.978s-0.978-0.438-0.978-0.978c0-0.54 0.438-0.978 0.978-0.978s0.978 0.438 0.978 0.978z"></path>
<path d="M18.597 18.219l-0.206 0.085c-0.078 0.032-0.16-0.005-0.192-0.080l-0.782-1.895-0.834 0.345 0.023-2.992 2.126 2.105-0.834 0.343 0.782 1.895c0.032 0.075-0.007 0.162-0.082 0.194z"></path>
</svg>
