<!-- Generated by IcoMoon.io -->
<svg version="1.1" xmlns="http://www.w3.org/2000/svg" width="32" height="32" viewBox="0 0 32 32">
<path d="M28.985 3.595h-25.97c-1.662 0-3.015 1.39-3.015 3.093v18.624c0 1.705 1.353 3.093 3.015 3.093h25.966c1.664 0 3.017-1.387 3.017-3.093v-18.624c0.002-1.703-1.351-3.093-3.013-3.093zM28.985 25.545h-25.97c-0.123 0-0.229-0.105-0.229-0.233v-16.222h26.421v16.222c0 0.13-0.098 0.233-0.222 0.233z"></path>
<path d="M21.691 11.433v4.121c-0.373-0.377-0.775-0.661-1.211-0.848-0.437-0.185-0.905-0.281-1.401-0.281-1.081 0-2.002 0.409-2.759 1.23-0.103 0.11-0.192 0.224-0.279 0.338l0.085 0.24 0.859 2.425c0.023-0.654 0.231-1.2 0.631-1.625 0.425-0.457 0.96-0.683 1.605-0.683 0.661 0 1.205 0.224 1.637 0.672s0.649 1.033 0.649 1.755c0 0.738-0.215 1.335-0.649 1.79-0.43 0.455-0.974 0.683-1.627 0.683-0.613 0-1.129-0.222-1.557-0.654l0.889 2.512c0.187 0.030 0.377 0.050 0.576 0.050 0.478 0 0.921-0.087 1.33-0.256s0.818-0.45 1.225-0.837v0.878h2.085v-11.511h-2.087z"></path>
<path d="M13.662 11.998h-2.062l-4.046 11.23h2.773l2.29-6.752 2.306 6.752h2.715z"></path>
</svg>
