<!-- Generated by IcoMoon.io -->
<svg version="1.1" xmlns="http://www.w3.org/2000/svg" width="32" height="32" viewBox="0 0 32 32">
<path d="M16 0c-8.837 0-16 7.163-16 16s7.163 16 16 16 16-7.163 16-16-7.163-16-16-16zM18.187 27.499h-4.293v-4.24h4.29v4.009l0.002 0.231zM22.727 12.414c-0.149 0.507-0.361 0.987-0.626 1.442s-0.585 0.882-0.96 1.289c-0.375 0.407-0.786 0.795-1.234 1.168-0.501 0.416-0.903 0.784-1.207 1.104s-0.512 0.599-0.617 0.834c-0.213 0.457-0.32 1.465-0.32 3.029h-3.605c0-2.135 0.208-3.637 0.626-4.503 0.407-0.832 1.163-1.712 2.274-2.64 0.48-0.393 0.857-0.745 1.122-1.049 0.267-0.304 0.469-0.576 0.608-0.816s0.226-0.464 0.258-0.672 0.046-0.425 0.046-0.647c0-0.418-0.071-0.8-0.215-1.152-0.149-0.357-0.354-0.663-0.619-0.919s-0.583-0.457-0.944-0.601c-0.361-0.146-0.77-0.215-1.218-0.215-1.751 0-2.818 1.223-3.205 3.669h-3.842c0.096-1.047 0.334-1.998 0.711-2.846s0.878-1.57 1.493-2.162 1.33-1.049 2.146-1.369c0.816-0.32 1.705-0.48 2.665-0.48 1.026 0 1.959 0.146 2.802 0.441 0.843 0.293 1.566 0.702 2.167 1.223 0.606 0.521 1.074 1.145 1.41 1.874s0.503 1.515 0.503 2.373c0.005 0.578-0.071 1.118-0.219 1.625z"></path>
</svg>
