<!-- Generated by IcoMoon.io -->
<svg version="1.1" xmlns="http://www.w3.org/2000/svg" width="32" height="32" viewBox="0 0 32 32">
<path d="M12 12.665v12c0 0.192-0.059 0.354-0.185 0.478s-0.286 0.187-0.48 0.187h-1.337c-0.194 0-0.354-0.062-0.478-0.187s-0.187-0.286-0.187-0.478v-12c0-0.194 0.064-0.354 0.187-0.48 0.123-0.121 0.286-0.187 0.478-0.187h1.335c0.194 0 0.357 0.064 0.48 0.187 0.128 0.126 0.187 0.286 0.187 0.48zM17.333 12.665v12c0 0.192-0.062 0.354-0.187 0.478s-0.286 0.187-0.478 0.187h-1.335c-0.194 0-0.354-0.062-0.48-0.187s-0.185-0.288-0.185-0.478v-12c0-0.194 0.062-0.354 0.185-0.48 0.126-0.121 0.286-0.187 0.48-0.187h1.335c0.194 0 0.354 0.064 0.478 0.187 0.126 0.126 0.187 0.286 0.187 0.48zM22.665 12.665v12c0 0.192-0.062 0.354-0.185 0.478-0.126 0.126-0.288 0.187-0.482 0.187h-1.333c-0.194 0-0.357-0.062-0.478-0.187-0.126-0.123-0.187-0.286-0.187-0.478v-12c0-0.194 0.062-0.354 0.187-0.48 0.123-0.123 0.286-0.187 0.478-0.187h1.333c0.197 0 0.357 0.064 0.482 0.187 0.123 0.126 0.185 0.286 0.185 0.48zM25.335 27.751v-19.753h-18.67v19.751c0 0.304 0.050 0.587 0.146 0.843 0.096 0.258 0.197 0.443 0.304 0.562 0.105 0.119 0.176 0.174 0.217 0.174h17.333c0.041 0 0.117-0.055 0.217-0.174 0.103-0.121 0.203-0.306 0.302-0.562 0.103-0.254 0.151-0.539 0.151-0.841v0zM11.333 5.335h9.333l-1.001-2.439c-0.096-0.126-0.213-0.201-0.354-0.231h-6.603c-0.137 0.027-0.256 0.105-0.352 0.229l-1.022 2.441zM30.667 6v1.335c0 0.194-0.062 0.354-0.187 0.478-0.126 0.126-0.286 0.187-0.482 0.187h-1.995v19.751c0 1.152-0.327 2.151-0.981 2.99-0.649 0.841-1.435 1.264-2.354 1.259h-17.333c-0.917 0-1.703-0.405-2.354-1.218-0.654-0.809-0.981-1.799-0.981-2.946v-19.835h-1.998c-0.194 0-0.357-0.064-0.48-0.187-0.126-0.126-0.19-0.286-0.19-0.478v-1.335c0-0.197 0.062-0.357 0.187-0.48 0.123-0.126 0.286-0.185 0.48-0.185h6.439l1.458-3.481c0.21-0.514 0.585-0.951 1.127-1.314 0.542-0.361 1.090-0.539 1.646-0.539h6.665c0.551 0 1.104 0.178 1.646 0.539s0.917 0.8 1.127 1.314l1.458 3.479h6.437c0.194 0 0.357 0.059 0.478 0.185 0.123 0.126 0.19 0.286 0.187 0.482v0z"></path>
</svg>
