<!-- Generated by IcoMoon.io -->
<svg version="1.1" xmlns="http://www.w3.org/2000/svg" width="14" height="14" viewBox="0 0 14 14">
<title>more-16</title>
<path d="M3.5 7c0 0.483-0.392 0.875-0.875 0.875s-0.875-0.392-0.875-0.875c0-0.483 0.392-0.875 0.875-0.875s0.875 0.392 0.875 0.875z"></path>
<path d="M12.25 7c0 0.483-0.392 0.875-0.875 0.875s-0.875-0.392-0.875-0.875c0-0.483 0.392-0.875 0.875-0.875s0.875 0.392 0.875 0.875z"></path>
<path d="M7.875 7c0 0.483-0.392 0.875-0.875 0.875s-0.875-0.392-0.875-0.875c0-0.483 0.392-0.875 0.875-0.875s0.875 0.392 0.875 0.875z"></path>
</svg>
