<?xml version="1.0" encoding="utf-8"?>
<!-- Generator: Adobe Illustrator 21.0.0, SVG Export Plug-In . SVG Version: 6.00 Build 0)  -->
<svg version="1.1" id="图层_1" xmlns="http://www.w3.org/2000/svg" xmlns:xlink="http://www.w3.org/1999/xlink" x="0px" y="0px"
	 viewBox="0 0 14 14" style="enable-background:new 0 0 14 14;" xml:space="preserve">
<path d="M6.4,9C5.3,8.5,4.3,7.8,3.1,7.8c-0.5,0-0.9,0-1.4,0.3C1,8.4,0.6,8.8,0.5,9.5c-0.1,0.6,0.5,1.4,1,1.6
	c0.1,0,0.2,0.2,0.8,0.2C4,11.5,5.6,10.5,6.4,9z M14,12.7c-1.1-0.5-2.2-1-3.3-1.6C10,10.8,7.8,9.7,7.8,9.7s-0.2,0.2-0.4,0.4
	c-1.1,1.3-2.2,2-3.8,2.3c-0.7,0.1-1.2,0-2-0.3C0.7,11.9,0,11,0,9.9c0-1.2,0.5-2.2,1.4-2.7c1-0.6,2.3-0.4,3.4-0.1
	c0.7,0.2,2.5,0.7,2.5,0.7s0.3-0.9,0.4-1.1c0.1-0.2,0.4-1,0.4-1H2.4V5h3V3.9H1.8V3.2h3.6c0,0,0-0.6,0-1.9L7,1.3v2h3.6v0.7H7V5
	c0,0,3,0,3,0C9.7,6.2,9.2,7.2,8.8,8.3c1.6,0.8,3.5,1.4,5.2,1.9V12.7z"/>
</svg>
