<!-- Generated by IcoMoon.io -->
<svg version="1.1" xmlns="http://www.w3.org/2000/svg" width="14" height="14" viewBox="0 0 14 14">
<title>Setting-16</title>
<path d="M4.813 8.75c-0.725 0-1.313-0.588-1.313-1.313s0.588-1.313 1.313-1.313c0.725 0 1.313 0.588 1.313 1.313s-0.588 1.313-1.313 1.313zM4.813 7.875c0.242 0 0.438-0.196 0.438-0.438s-0.196-0.438-0.438-0.438c-0.242 0-0.438 0.196-0.438 0.438s0.196 0.438 0.438 0.438z"></path>
<path d="M9.188 5.25c-0.725 0-1.313-0.588-1.313-1.313s0.588-1.313 1.313-1.313c0.725 0 1.313 0.588 1.313 1.313s-0.588 1.313-1.313 1.313zM9.188 4.375c0.242 0 0.438-0.196 0.438-0.438s-0.196-0.438-0.438-0.438c-0.242 0-0.438 0.196-0.438 0.438s0.196 0.438 0.438 0.438z"></path>
<path d="M4.813 2.625c0.242 0 0.438 0.196 0.438 0.438v1.75c0 0.242-0.196 0.438-0.438 0.438s-0.438-0.196-0.438-0.438v-1.75c0-0.242 0.196-0.438 0.438-0.438z"></path>
<path d="M4.813 9.625c0.242 0 0.438 0.196 0.438 0.438v0.875c0 0.242-0.196 0.438-0.438 0.438s-0.438-0.196-0.438-0.438v-0.875c0-0.242 0.196-0.438 0.438-0.438z"></path>
<path d="M9.188 6.125c0.242 0 0.438 0.196 0.438 0.438v4.375c0 0.242-0.196 0.438-0.438 0.438s-0.438-0.196-0.438-0.438v-4.375c0-0.242 0.196-0.438 0.438-0.438z"></path>
<path d="M12.25 13.125c0.483 0 0.875-0.392 0.875-0.875v-10.5c0-0.483-0.392-0.875-0.875-0.875h-10.5c-0.483 0-0.875 0.392-0.875 0.875v10.5c0 0.483 0.392 0.875 0.875 0.875h10.5zM12.25 14h-10.5c-0.966 0-1.75-0.784-1.75-1.75v-10.5c0-0.966 0.784-1.75 1.75-1.75h10.5c0.966 0 1.75 0.784 1.75 1.75v10.5c0 0.966-0.784 1.75-1.75 1.75z"></path>
</svg>
