<!-- Generated by IcoMoon.io -->
<svg version="1.1" xmlns="http://www.w3.org/2000/svg" width="14" height="14" viewBox="0 0 14 14">
<title>info</title>
<path d="M7 14c-3.866 0-7-3.134-7-7s3.134-7 7-7c3.866 0 7 3.134 7 7s-3.134 7-7 7zM7 4.667c0.644 0 1.167-0.522 1.167-1.167s-0.522-1.167-1.167-1.167c-0.644 0-1.167 0.522-1.167 1.167s0.522 1.167 1.167 1.167zM7 5.833c-0.644 0-1.167 0.522-1.167 1.167v3.5c0 0.644 0.522 1.167 1.167 1.167s1.167-0.522 1.167-1.167v-3.5c0-0.644-0.522-1.167-1.167-1.167z"></path>
</svg>
