<!-- Generated by IcoMoon.io -->
<svg version="1.1" xmlns="http://www.w3.org/2000/svg" width="14" height="14" viewBox="0 0 14 14">
<title>attachment</title>
<path d="M7.875 2.625c0-0.966-0.784-1.75-1.75-1.75s-1.75 0.784-1.75 1.75v7.875c0 1.45 1.175 2.625 2.625 2.625s2.625-1.175 2.625-2.625v-6.125h0.875v6.125c0 1.933-1.567 3.5-3.5 3.5s-3.5-1.567-3.5-3.5v-7.875c0-1.45 1.175-2.625 2.625-2.625s2.625 1.175 2.625 2.625v7c0 0.966-0.784 1.75-1.75 1.75s-1.75-0.784-1.75-1.75v-5.25h0.875v5.25c0 0.483 0.392 0.875 0.875 0.875s0.875-0.392 0.875-0.875v-7z"></path>
</svg>
