<!-- Generated by IcoMoon.io -->
<svg version="1.1" xmlns="http://www.w3.org/2000/svg" width="14" height="14" viewBox="0 0 14 14">
<title>detail-16</title>
<path d="M8.75 13.125l-0.619 0.256 0.256-0.256h0.362zM8.388 13.125l3.244-3.244 0.619 0.619-3.5 3.5h-6.125c-0.966 0-1.75-0.784-1.75-1.75v-10.5c0-0.966 0.784-1.75 1.75-1.75h7.875c0.966 0 1.75 0.784 1.75 1.75v6.125h-0.875v-6.125c0-0.483-0.392-0.875-0.875-0.875h-7.875c-0.483 0-0.875 0.392-0.875 0.875v10.5c0 0.483 0.392 0.875 0.875 0.875h5.763zM8.75 13.125l-0.619 0.256 0.256-0.256h0.362zM8.388 13.125l3.244-3.244 0.619 0.619-3.5 3.5h-6.125c-0.966 0-1.75-0.784-1.75-1.75v-10.5c0-0.966 0.784-1.75 1.75-1.75h7.875c0.966 0 1.75 0.784 1.75 1.75v6.125h-0.875v-6.125c0-0.483-0.392-0.875-0.875-0.875h-7.875c-0.483 0-0.875 0.392-0.875 0.875v10.5c0 0.483 0.392 0.875 0.875 0.875h5.763z"></path>
<path d="M8.313 14c0.242 0 0.438-0.196 0.438-0.438v-3.5c0-0.242-0.196-0.438-0.438-0.438s-0.438 0.196-0.438 0.438v3.5c0 0.242 0.196 0.438 0.438 0.438z"></path>
<path d="M3.938 9.625h2.625c0.242 0 0.438-0.196 0.438-0.438s-0.196-0.438-0.438-0.438h-2.625c-0.242 0-0.438 0.196-0.438 0.438s0.196 0.438 0.438 0.438z"></path>
<path d="M3.938 11.375h2.625c0.242 0 0.438-0.196 0.438-0.438s-0.196-0.438-0.438-0.438h-2.625c-0.242 0-0.438 0.196-0.438 0.438s0.196 0.438 0.438 0.438z"></path>
<path d="M4.375 6.125v-3.5c0-0.242-0.196-0.438-0.438-0.438s-0.438 0.196-0.438 0.438v4.375h5.688c0.242 0 0.438-0.196 0.438-0.438s-0.196-0.438-0.438-0.438h-4.813z"></path>
<path d="M7.875 4.631l-1.441-1.441c-0.171-0.171-0.448-0.171-0.619 0l-1.75 1.75c-0.171 0.171-0.171 0.448 0 0.619s0.448 0.171 0.619 0l1.441-1.441 1.441 1.441c0.171 0.171 0.448 0.171 0.619 0l1.75-1.75c0.171-0.171 0.171-0.448 0-0.619s-0.448-0.171-0.619 0l-1.441 1.441z"></path>
<path d="M8.313 10.5h3.938v-0.875h-3.938c-0.242 0-0.438 0.196-0.438 0.438v0c0 0.242 0.196 0.438 0.438 0.438z"></path>
</svg>
