<!-- Generated by IcoMoon.io -->
<svg version="1.1" xmlns="http://www.w3.org/2000/svg" width="14" height="14" viewBox="0 0 14 14">
<title>remind</title>
<path d="M8.021 1.101l5.832 10.509c0.313 0.564 0.109 1.274-0.454 1.587-0.173 0.096-0.368 0.147-0.567 0.147h-11.665c-0.645 0-1.167-0.523-1.167-1.167 0-0.198 0.050-0.393 0.147-0.567l5.832-10.509c0.313-0.564 1.024-0.767 1.587-0.454 0.191 0.106 0.348 0.263 0.454 0.454zM7 12.177c0.645 0 1.167-0.523 1.167-1.167s-0.523-1.167-1.167-1.167c-0.645 0-1.167 0.523-1.167 1.167s0.523 1.167 1.167 1.167zM7 2.837c-0.645 0-1.167 0.523-1.167 1.167v3.502c0 0.645 0.523 1.167 1.167 1.167s1.167-0.523 1.167-1.167v-3.502c0-0.645-0.523-1.167-1.167-1.167z"></path>
</svg>
