<!-- Generated by IcoMoon.io -->
<svg version="1.1" xmlns="http://www.w3.org/2000/svg" width="14" height="14" viewBox="0 0 14 14">
<title>warning</title>
<path d="M7 14c-3.866 0-7-3.134-7-7s3.134-7 7-7c3.866 0 7 3.134 7 7s-3.134 7-7 7zM7 5.35l-1.508-1.508c-0.456-0.456-1.194-0.456-1.65 0s-0.456 1.194 0 1.65l1.508 1.508-1.508 1.508c-0.456 0.456-0.456 1.194 0 1.65s1.194 0.456 1.65 0l1.508-1.508 1.508 1.508c0.456 0.456 1.194 0.456 1.65 0s0.456-1.194 0-1.65l-1.508-1.508 1.508-1.508c0.456-0.456 0.456-1.194 0-1.65s-1.194-0.456-1.65 0l-1.508 1.508z"></path>
</svg>
