<!-- Generated by IcoMoon.io -->
<svg version="1.1" xmlns="http://www.w3.org/2000/svg" width="16" height="16" viewBox="0 0 16 16">
<title>project</title>
<path d="M1 2h8v1h-8z"></path>
<path d="M12 11h3v3h-3v-3zM13 12v1h1v-1h-1z"></path>
<path d="M7 11h3v3h-3v-3zM8 12v1h1v-1h-1z"></path>
<path d="M2 11h3v3h-3v-3zM3 12v1h1v-1h-1z"></path>
<path d="M13 6h1v3h-1z"></path>
<path d="M3 6h1v3h-1z"></path>
<path d="M1 2h1v4h-1z"></path>
<path d="M8 6h1v3h-1z"></path>
<path d="M1 5h13v1h-13z"></path>
</svg>
