<!-- Generated by IcoMoon.io -->
<svg version="1.1" xmlns="http://www.w3.org/2000/svg" width="16" height="16" viewBox="0 0 16 16">
<title>rate</title>
<path d="M2.58 2.995l-0.58-0.413-0.58 0.413c-0.010 0.007-0.023 0.009-0.034 0.006-0.021-0.006-0.033-0.028-0.027-0.049l0.205-0.695-0.56-0.435c-0.014-0.011-0.023-0.028-0.023-0.046-0.001-0.033 0.025-0.060 0.058-0.061l0.701-0.015 0.225-0.664c0.004-0.011 0.012-0.019 0.023-0.023 0.019-0.007 0.040 0.004 0.047 0.023l0.225 0.664 0.701 0.015c0.018 0 0.035 0.009 0.046 0.023 0.020 0.026 0.015 0.063-0.010 0.083l-0.56 0.435 0.205 0.695c0.003 0.012 0.001 0.024-0.006 0.034-0.013 0.018-0.038 0.022-0.055 0.009zM2 3.809c0.468 0.333 1.117 0.224 1.45-0.243 0.185-0.26 0.241-0.591 0.15-0.898l-0.012-0.040 0.021-0.016c0.462-0.359 0.546-1.024 0.187-1.487-0.196-0.252-0.495-0.403-0.815-0.41-0.184-0.542-0.773-0.833-1.315-0.648-0.305 0.104-0.545 0.343-0.648 0.648-0.585 0.012-1.049 0.496-1.037 1.081 0.007 0.319 0.157 0.619 0.41 0.815l0.021 0.016-0.012 0.040c-0.163 0.551 0.152 1.129 0.703 1.292 0.307 0.091 0.638 0.035 0.898-0.15z"></path>
<path d="M2.58 8.995l-0.58-0.414-0.58 0.413c-0.010 0.007-0.023 0.009-0.034 0.006-0.021-0.006-0.033-0.028-0.027-0.049l0.205-0.695-0.56-0.435c-0.014-0.011-0.023-0.028-0.023-0.046-0.001-0.033 0.025-0.060 0.058-0.061l0.701-0.015 0.225-0.664c0.004-0.011 0.012-0.019 0.023-0.023 0.019-0.007 0.040 0.004 0.047 0.023l0.225 0.664 0.701 0.015c0.018 0 0.035 0.009 0.046 0.023 0.020 0.026 0.015 0.063-0.010 0.083l-0.56 0.435 0.205 0.695c0.003 0.012 0.001 0.024-0.006 0.034-0.013 0.018-0.038 0.022-0.055 0.009zM2 9.809c0.468 0.333 1.117 0.224 1.45-0.243 0.185-0.26 0.241-0.591 0.15-0.898l-0.012-0.040 0.021-0.016c0.462-0.359 0.546-1.024 0.187-1.487-0.196-0.252-0.495-0.403-0.815-0.41-0.184-0.542-0.773-0.833-1.315-0.649-0.305 0.104-0.545 0.343-0.648 0.649-0.585 0.012-1.049 0.496-1.037 1.081 0.007 0.319 0.157 0.619 0.41 0.815l0.021 0.016-0.012 0.040c-0.163 0.551 0.152 1.129 0.703 1.292 0.307 0.091 0.638 0.035 0.898-0.15z"></path>
<path d="M2.58 14.995l-0.58-0.414-0.58 0.413c-0.010 0.007-0.023 0.009-0.034 0.006-0.021-0.006-0.033-0.028-0.027-0.049l0.205-0.695-0.56-0.435c-0.014-0.011-0.023-0.028-0.023-0.046-0.001-0.033 0.025-0.060 0.058-0.061l0.701-0.015 0.225-0.664c0.004-0.011 0.012-0.019 0.023-0.023 0.019-0.007 0.040 0.004 0.047 0.023l0.225 0.664 0.701 0.015c0.018 0 0.035 0.009 0.046 0.023 0.020 0.026 0.015 0.063-0.010 0.083l-0.56 0.435 0.205 0.695c0.003 0.012 0.001 0.024-0.006 0.034-0.013 0.018-0.038 0.022-0.055 0.009zM2 15.809c0.468 0.333 1.117 0.224 1.45-0.243 0.185-0.26 0.241-0.591 0.15-0.898l-0.012-0.040 0.021-0.016c0.462-0.359 0.546-1.024 0.187-1.487-0.196-0.252-0.495-0.403-0.815-0.41-0.184-0.542-0.773-0.833-1.315-0.649-0.305 0.104-0.545 0.343-0.648 0.649-0.585 0.012-1.049 0.496-1.037 1.081 0.007 0.319 0.157 0.619 0.41 0.815l0.021 0.016-0.012 0.040c-0.163 0.551 0.152 1.129 0.703 1.292 0.307 0.091 0.638 0.035 0.898-0.15z"></path>
<path d="M8.58 2.995l-0.58-0.413-0.58 0.413c-0.010 0.007-0.023 0.009-0.034 0.006-0.021-0.006-0.033-0.028-0.027-0.049l0.205-0.695-0.56-0.435c-0.014-0.011-0.023-0.028-0.023-0.046-0.001-0.033 0.025-0.060 0.058-0.061l0.701-0.015 0.225-0.664c0.004-0.011 0.012-0.019 0.023-0.023 0.019-0.007 0.040 0.004 0.047 0.023l0.225 0.664 0.701 0.015c0.018 0 0.035 0.009 0.046 0.023 0.020 0.026 0.015 0.063-0.011 0.083l-0.56 0.435 0.205 0.695c0.003 0.012 0.001 0.024-0.006 0.034-0.013 0.018-0.038 0.022-0.055 0.009zM8 3.809c0.468 0.333 1.117 0.224 1.45-0.243 0.185-0.26 0.241-0.591 0.15-0.898l-0.012-0.040 0.021-0.016c0.462-0.359 0.546-1.024 0.187-1.487-0.196-0.252-0.495-0.403-0.815-0.41-0.184-0.542-0.773-0.833-1.315-0.648-0.305 0.104-0.545 0.343-0.649 0.648-0.585 0.012-1.049 0.496-1.037 1.081 0.007 0.319 0.157 0.619 0.41 0.815l0.021 0.016-0.012 0.040c-0.163 0.551 0.152 1.129 0.703 1.292 0.307 0.091 0.638 0.035 0.898-0.15z"></path>
<path d="M8.58 8.995l-0.58-0.414-0.58 0.413c-0.010 0.007-0.023 0.009-0.034 0.006-0.021-0.006-0.033-0.028-0.027-0.049l0.205-0.695-0.56-0.435c-0.014-0.011-0.023-0.028-0.023-0.046-0.001-0.033 0.025-0.060 0.058-0.061l0.701-0.015 0.225-0.664c0.004-0.011 0.012-0.019 0.023-0.023 0.019-0.007 0.040 0.004 0.047 0.023l0.225 0.664 0.701 0.015c0.018 0 0.035 0.009 0.046 0.023 0.020 0.026 0.015 0.063-0.011 0.083l-0.56 0.435 0.205 0.695c0.003 0.012 0.001 0.024-0.006 0.034-0.013 0.018-0.038 0.022-0.055 0.009zM8 9.809c0.468 0.333 1.117 0.224 1.45-0.243 0.185-0.26 0.241-0.591 0.15-0.898l-0.012-0.040 0.021-0.016c0.462-0.359 0.546-1.024 0.187-1.487-0.196-0.252-0.495-0.403-0.815-0.41-0.184-0.542-0.773-0.833-1.315-0.649-0.305 0.104-0.545 0.343-0.649 0.649-0.585 0.012-1.049 0.496-1.037 1.081 0.007 0.319 0.157 0.619 0.41 0.815l0.021 0.016-0.012 0.040c-0.163 0.551 0.152 1.129 0.703 1.292 0.307 0.091 0.638 0.035 0.898-0.15z"></path>
<path d="M14.58 2.995l-0.58-0.413-0.58 0.413c-0.010 0.007-0.023 0.009-0.034 0.006-0.021-0.006-0.033-0.028-0.027-0.049l0.205-0.695-0.56-0.435c-0.014-0.011-0.023-0.028-0.023-0.046-0.001-0.033 0.025-0.060 0.058-0.061l0.701-0.015 0.225-0.664c0.004-0.011 0.012-0.019 0.023-0.023 0.019-0.007 0.040 0.004 0.047 0.023l0.225 0.664 0.701 0.015c0.018 0 0.035 0.009 0.046 0.023 0.020 0.026 0.015 0.063-0.011 0.083l-0.56 0.435 0.205 0.695c0.003 0.012 0.001 0.024-0.006 0.034-0.013 0.018-0.038 0.022-0.055 0.009zM14 3.809c0.468 0.333 1.117 0.224 1.45-0.243 0.185-0.26 0.241-0.591 0.15-0.898l-0.012-0.040 0.021-0.016c0.462-0.359 0.546-1.024 0.187-1.487-0.196-0.252-0.495-0.403-0.815-0.41-0.184-0.542-0.773-0.833-1.315-0.648-0.305 0.104-0.545 0.343-0.649 0.648-0.585 0.012-1.049 0.496-1.037 1.081 0.007 0.319 0.157 0.619 0.41 0.815l0.021 0.016-0.012 0.040c-0.163 0.551 0.152 1.129 0.703 1.292 0.307 0.091 0.638 0.035 0.898-0.15z"></path>
</svg>
