<!-- Generated by IcoMoon.io -->
<svg version="1.1" xmlns="http://www.w3.org/2000/svg" width="14" height="14" viewBox="0 0 14 14">
<title>search-peoples-16</title>
<path d="M6.125 11.375c2.899 0 5.25-2.351 5.25-5.25s-2.351-5.25-5.25-5.25c-2.899 0-5.25 2.351-5.25 5.25s2.351 5.25 5.25 5.25zM6.125 12.25c-3.383 0-6.125-2.742-6.125-6.125s2.742-6.125 6.125-6.125c3.383 0 6.125 2.742 6.125 6.125s-2.742 6.125-6.125 6.125z"></path>
<path d="M6.125 7c0.966 0 1.75-0.784 1.75-1.75s-0.784-1.75-1.75-1.75c-0.966 0-1.75 0.784-1.75 1.75s0.784 1.75 1.75 1.75zM6.125 7.875c-1.45 0-2.625-1.175-2.625-2.625s1.175-2.625 2.625-2.625c1.45 0 2.625 1.175 2.625 2.625s-1.175 2.625-2.625 2.625z"></path>
<path d="M8.75 10.938v-0.429c0-1.459-1.173-2.634-2.625-2.634-1.447 0-2.625 1.18-2.625 2.634v0.429h-0.875v-0.429c0-1.938 1.571-3.509 3.5-3.509 1.933 0 3.5 1.564 3.5 3.509v0.429h-0.875zM8.75 10.938v-0.429c0-1.459-1.173-2.634-2.625-2.634-1.447 0-2.625 1.18-2.625 2.634v0.429h-0.875v-0.429c0-1.938 1.571-3.509 3.5-3.509 1.933 0 3.5 1.564 3.5 3.509v0.429h-0.875z"></path>
<path d="M13.872 13.253c0.171 0.171 0.171 0.448 0 0.619s-0.448 0.171-0.619 0l-3.063-3.063c-0.171-0.171-0.171-0.448 0-0.619s0.448-0.171 0.619 0l3.063 3.063z"></path>
</svg>
