<!-- Generated by IcoMoon.io -->
<svg version="1.1" xmlns="http://www.w3.org/2000/svg" width="16" height="16" viewBox="0 0 16 16">
<title>public-opinion</title>
<path d="M4 13h7c0.552 0 1-0.448 1-1v-6c0-0.552-0.448-1-1-1h-9c-0.552 0-1 0.448-1 1v6c0 0.552 0.448 1 1 1h0.667l1.333 1v-1zM5 14v2l-2.667-2h-0.333c-1.105 0-2-0.895-2-2v-6c0-1.105 0.895-2 2-2h9c1.105 0 2 0.895 2 2v6c0 1.105-0.895 2-2 2h-6z"></path>
<path d="M13.586 7h0.414c0.552 0 1-0.448 1-1v-4c0-0.552-0.448-1-1-1h-7c-0.552 0-1 0.448-1 1v3h-1v-3c0-1.105 0.895-2 2-2h7c1.105 0 2 0.895 2 2v4c0 1.105-0.895 2-2 2l-1 1v-1h-0.414l1-1z"></path>
<path d="M9 8.243c0-1.109-0.107-1.243-0.6-1.243-0.244 0-0.604 0.284-1.043 1.014-0.388 0.647-1.327 0.647-1.715 0-0.438-0.73-0.798-1.014-1.043-1.014-0.493 0-0.6 0.134-0.6 1.243 0 0.633 0.795 1.54 2.5 2.593 1.705-1.053 2.5-1.96 2.5-2.593zM6.5 7.5c0.114-0.189 0.5-1.5 1.9-1.5 1 0 1.6 0.5 1.6 2.243 0 1.162-1.167 2.414-3.5 3.757-2.333-1.343-3.5-2.596-3.5-3.757 0-1.743 0.6-2.243 1.6-2.243 1.4 0 1.786 1.311 1.9 1.5z"></path>
</svg>
