<!-- Generated by IcoMoon.io -->
<svg version="1.1" xmlns="http://www.w3.org/2000/svg" width="16" height="16" viewBox="0 0 16 16">
<title>tag-area-16</title>
<path d="M5.586 2l3.737 3.737 0.707-0.707-4.030-4.030h-5c-0.552 0-1 0.448-1 1v5l5.999 5.999 0.475-0.939-5.474-5.474v-4.586h4.586z"></path>
<path d="M5 5c0 0.552-0.448 1-1 1s-1-0.448-1-1c0-0.552 0.448-1 1-1s1 0.448 1 1z"></path>
<path d="M9 11v4h6v-4h-6zM9 10h6c0.552 0 1 0.448 1 1v4c0 0.552-0.448 1-1 1h-6c-0.552 0-1-0.448-1-1v-4c0-0.552 0.448-1 1-1z"></path>
<path d="M12 12c0.552 0 1 0.448 1 1s-0.448 1-1 1c-0.552 0-1-0.448-1-1s0.448-1 1-1z"></path>
<path d="M13 10v-1.2c0-0.417-0.426-0.8-1-0.8s-1 0.383-1 0.8v1.2h-1v-1.2c0-0.994 0.895-1.8 2-1.8s2 0.806 2 1.8v1.2h-1zM13 10v-1.2c0-0.417-0.426-0.8-1-0.8s-1 0.383-1 0.8v1.2h-1v-1.2c0-0.994 0.895-1.8 2-1.8s2 0.806 2 1.8v1.2h-1z"></path>
</svg>
