<!-- Generated by IcoMoon.io -->
<svg version="1.1" xmlns="http://www.w3.org/2000/svg" width="16" height="16" viewBox="0 0 16 16">
<title>user-info-16</title>
<path d="M9.586 15l3.707-3.707 0.707 0.707-4 4h-7c-1.105 0-2-0.895-2-2v-12c0-1.105 0.895-2 2-2h9c1.105 0 2 0.895 2 2v7h-1v-7c0-0.552-0.448-1-1-1h-9c-0.552 0-1 0.448-1 1v12c0 0.552 0.448 1 1 1h6.586z"></path>
<path d="M9.5 16c0.276 0 0.5-0.224 0.5-0.5v-4c0-0.276-0.224-0.5-0.5-0.5s-0.5 0.224-0.5 0.5v4c0 0.276 0.224 0.5 0.5 0.5z"></path>
<path d="M9.5 12h4.5v-1h-4.5c-0.276 0-0.5 0.224-0.5 0.5v0c0 0.276 0.224 0.5 0.5 0.5z"></path>
<path d="M7.5 7c0.828 0 1.5-0.672 1.5-1.5s-0.672-1.5-1.5-1.5c-0.828 0-1.5 0.672-1.5 1.5s0.672 1.5 1.5 1.5zM7.5 8c-1.381 0-2.5-1.119-2.5-2.5s1.119-2.5 2.5-2.5c1.381 0 2.5 1.119 2.5 2.5s-1.119 2.5-2.5 2.5z"></path>
<path d="M5 11.714v-1.714c0-1.098 1.22-2 2.5-2 1.316 0 2.5 0.861 2.5 2h1c0-2-2-3-3.5-3s-3.5 1.067-3.5 3v2l1-0.286zM5 11.714v-1.714c0-1.098 1.22-2 2.5-2 1.316 0 2.5 0.861 2.5 2h1c0-2-2-3-3.5-3s-3.5 1.067-3.5 3v2l1-0.286z"></path>
<path d="M4 11h1v1h-1v-1z"></path>
</svg>
