<!-- Generated by IcoMoon.io -->
<svg version="1.1" xmlns="http://www.w3.org/2000/svg" width="16" height="16" viewBox="0 0 16 16">
<title>views-authorize-16</title>
<path d="M7 13h-3c-0.957 0-2-0.98-2-2v-8c0-1.020 1.043-2 2-2h10c0.957 0 2 0.98 2 2v3.538h-1v-3.538c0-0.442-0.569-1-1-1h-10c-0.43 0-1 0.558-1 1v8c0 0.442 0.57 1 1 1h3v1z"></path>
<path d="M1 7.286v5.714c0 0.442 0.57 1 1 1h4.222l0.778 1h-5c-0.957 0-2-0.98-2-2v-7l1 1.286z"></path>
<path d="M6 14h1v1h-1v-1z"></path>
<path d="M0 4h1v4h-1v-4z"></path>
<path d="M3 3h12v1h-12v-1z"></path>
<path d="M16 9c0-0.552-0.448-1-1-1h-6c-0.552 0-1 0.448-1 1v6c0 0.552 0.448 1 1 1h6c0.552 0 1-0.448 1-1v-2h-1v2h-6v-6h7z"></path>
<path d="M15.175 10.12c0.21-0.18 0.525-0.155 0.705 0.054s0.155 0.525-0.054 0.705l-3.5 3c-0.228 0.195-0.575 0.147-0.741-0.102l-1-1.5c-0.153-0.23-0.091-0.54 0.139-0.693s0.54-0.091 0.693 0.139l0.687 1.030 3.072-2.633z"></path>
</svg>
