<!-- Generated by IcoMoon.io -->
<svg version="1.1" xmlns="http://www.w3.org/2000/svg" width="14" height="14" viewBox="0 0 14 14">
<title>tag-16</title>
<path d="M5.763 1.75h-4.013v4.013l7 7 4.013-4.013-7-7zM6.125 0.875l7.256 7.256c0.342 0.342 0.342 0.896 0 1.237l-4.013 4.013c-0.342 0.342-0.896 0.342-1.237 0l-7.256-7.256v-4.375c0-0.483 0.392-0.875 0.875-0.875h4.375z"></path>
<path d="M5.25 4.375c0 0.483-0.392 0.875-0.875 0.875s-0.875-0.392-0.875-0.875c0-0.483 0.392-0.875 0.875-0.875s0.875 0.392 0.875 0.875z"></path>
</svg>
