<!-- Generated by IcoMoon.io -->
<svg version="1.1" xmlns="http://www.w3.org/2000/svg" width="27" height="32" viewBox="0 0 27 32">
<path d="M1.446 2.304l0.964 0.482c0.125 0.054 3.393 0.089 3.768 0.089 1.571 0 3.143-0.071 4.714-0.071 4.732 0 9.518-0.107 14.25 0.054 0.393 0.018 0.768-0.232 1-0.554l0.75-0.018c0.161 0 0.339 0.018 0.5 0.018 0.036 2 0.036 4 0.036 6 0 0.643 0.018 1.321-0.089 1.946-0.393 0.143-0.804 0.268-1.214 0.321-0.411-0.714-0.696-1.5-0.964-2.286-0.125-0.357-0.571-2.768-0.589-2.804-0.125-0.161-0.286-0.268-0.482-0.339-0.143-0.054-1-0.036-1.179-0.036-2.196 0-4.732-0.125-6.893 0.125-0.089 0.786-0.161 1.625-0.143 2.429l0.018 2.714v-0.929c0.018 2.911 0.054 5.804 0.054 8.696 0 1.375-0.214 2.821 0.179 4.143 1.357 0.696 2.964 0.804 4.357 1.429 0.036 0.286 0.089 0.589 0.089 0.893 0 0.161-0.018 0.339-0.054 0.518l-0.607 0.018c-2.536 0.071-5.036-0.321-7.589-0.321-1.804 0-3.607 0.321-5.411 0.321-0.018-0.304-0.054-0.625-0.054-0.929v-0.161c0.679-1.089 3.125-1.107 4.25-1.768 0.446-1 0.321-9.446 0.321-11.018 0-0.25-0.089-0.518-0.089-0.786 0-0.732 0.125-4.929-0.143-5.232-0.25-0.268-2.589-0.214-2.893-0.214-0.75 0-4.946 0.393-5.375 0.679-0.839 0.554-0.857 4.143-1.929 4.232-0.321-0.196-0.768-0.482-1-0.786v-6.839zM23.393 25.196c0.625 0 3 2.125 3.482 2.5 0.268 0.214 0.464 0.518 0.464 0.875s-0.196 0.661-0.464 0.875c-0.482 0.375-2.857 2.5-3.482 2.5-0.821 0-0.536-1.911-0.536-2.232h-18.286c0 0.321 0.286 2.232-0.536 2.232-0.625 0-3-2.125-3.482-2.5-0.268-0.214-0.464-0.518-0.464-0.875s0.196-0.661 0.464-0.875c0.482-0.375 2.857-2.5 3.482-2.5 0.821 0 0.536 1.911 0.536 2.232h18.286c0-0.321-0.286-2.232 0.536-2.232z"></path>
</svg>
