<!-- Generated by IcoMoon.io -->
<svg version="1.1" xmlns="http://www.w3.org/2000/svg" width="14" height="14" viewBox="0 0 14 14">
<title>calendar</title>
<path d="M1 4v8.5c0 0.276 0.224 0.5 0.5 0.5h6.5c0-0.128 0.049-0.256 0.146-0.354 0.555-0.555 0.854-1.6 0.854-3.146 0-0.325 0.306-0.564 0.621-0.485l0.119 0.030c1.405 0.351 2.83-0.503 3.181-1.909 0.052-0.208 0.078-0.422 0.078-0.636v-2.5h-12zM4 2h6v-2h1v2h1.5c0.828 0 1.5 0.672 1.5 1.5v3c0 0.296-0.036 0.591-0.108 0.879-0.445 1.779-2.134 2.919-3.907 2.724-0.064 1.245-0.335 2.212-0.831 2.898h3.346c0.276 0 0.5-0.224 0.5-0.5l-0-2c0-0.276 0.224-0.5 0.5-0.5s0.5 0.224 0.5 0.5l0 2c0 0.828-0.672 1.5-1.5 1.5h-11c-0.828 0-1.5-0.672-1.5-1.5v-9c0-0.828 0.672-1.5 1.5-1.5h1.5v-2h1v2zM9 6v-1h1v1h2v1h-2v1h-1v-1h-2v2h1v1h-1v2h-1v-2h-2v2h-1v-2h-2v-1h2v-2h-2v-1h2v-1h1v1h2v-1h1v1h2zM6 9v-2h-2v2h2z"></path>
</svg>
