<!-- Generated by IcoMoon.io -->
<svg version="1.1" xmlns="http://www.w3.org/2000/svg" width="27" height="32" viewBox="0 0 27 32">
<path d="M0.857 3.982c-0.321-0.018-0.589-0.018-0.804-0.071l-0.054-1.571c0.232-0.018 0.464-0.018 0.714-0.018 0.625 0 1.304 0.018 2 0.071 1.679 0.089 2.679 0.125 2.964 0.125 1.018 0 2.018-0.018 3-0.054 0.964-0.036 1.839-0.071 2.607-0.089 0.75 0 1.268-0.018 1.536-0.036l-0.018 0.25 0.036 1.143v0.161c-0.714 0.107-1.446 0.161-2.214 0.161-0.714 0-1.179 0.143-1.411 0.446-0.161 0.179-0.232 0.964-0.232 2.357 0 0.429 0.018 0.768 0.018 1.036l0.018 4.089 0.25 5c0.071 1.446 0.357 2.643 0.911 3.607 0.411 0.696 0.982 1.25 1.714 1.643 1.071 0.571 2.125 0.839 3.161 0.839 1.214 0 2.357-0.161 3.411-0.5 0.625-0.196 1.214-0.482 1.768-0.911 0.554-0.411 0.946-0.786 1.161-1.143 0.464-0.714 0.768-1.411 0.946-2.036 0.25-0.875 0.375-2.232 0.375-4.089 0-3.196-0.232-3.286-0.5-7.321l-0.071-1.054c-0.054-0.768-0.179-1.304-0.429-1.571-0.393-0.411-0.857-0.625-1.375-0.607l-1.786 0.036-0.25-0.054 0.036-1.536h1.5l3.661 0.179c1.214 0.054 2.375-0.054 3.5-0.179l0.321 0.036c0.071 0.446 0.107 0.75 0.107 0.911s-0.036 0.339-0.071 0.554c-0.482 0.125-0.982 0.214-1.5 0.232-0.839 0.125-1.321 0.214-1.411 0.304-0.161 0.161-0.268 0.393-0.268 0.732 0 0.232 0.036 0.589 0.054 1.036 0 0 0.143 0.321 0.393 7.071 0.089 2.696-0.089 4.518-0.268 5.429s-0.429 1.643-0.732 2.179c-0.464 0.786-1.143 1.518-2 2.196-0.875 0.661-1.946 1.196-3.25 1.589s-2.821 0.589-4.554 0.589c-1.964 0-3.661-0.268-5.071-0.821s-2.482-1.286-3.196-2.179-1.214-2.054-1.482-3.482c-0.196-0.982-0.286-2.393-0.286-4.232v-5.946c0-2.25-0.107-3.518-0.304-3.804-0.286-0.411-1.161-0.661-2.625-0.696zM27.429 29.143v-1.143c0-0.321-0.25-0.571-0.571-0.571h-26.286c-0.321 0-0.571 0.25-0.571 0.571v1.143c0 0.321 0.25 0.571 0.571 0.571h26.286c0.321 0 0.571-0.25 0.571-0.571z"></path>
</svg>
