<!-- Generated by IcoMoon.io -->
<svg version="1.1" xmlns="http://www.w3.org/2000/svg" width="27" height="32" viewBox="0 0 27 32">
<path d="M27.429 16c0 7.571-6.143 13.714-13.714 13.714-1.357 0-2.643-0.196-3.893-0.571 0.518-0.821 1.107-1.875 1.393-2.929 0 0 0.161-0.607 0.964-3.768 0.464 0.911 1.857 1.714 3.339 1.714 4.411 0 7.411-4.018 7.411-9.411 0-4.054-3.446-7.857-8.696-7.857-6.5 0-9.786 4.679-9.786 8.571 0 2.357 0.893 4.464 2.804 5.25 0.304 0.125 0.589 0 0.679-0.357 0.071-0.232 0.214-0.839 0.286-1.089 0.089-0.357 0.054-0.464-0.196-0.768-0.554-0.661-0.911-1.5-0.911-2.696 0-3.464 2.589-6.571 6.75-6.571 3.679 0 5.714 2.25 5.714 5.268 0 3.946-1.75 7.286-4.357 7.286-1.429 0-2.5-1.179-2.161-2.643 0.411-1.732 1.214-3.607 1.214-4.857 0-1.125-0.607-2.071-1.857-2.071-1.464 0-2.643 1.518-2.643 3.554 0 0 0 1.304 0.446 2.179-1.5 6.357-1.768 7.464-1.768 7.464-0.25 1.036-0.268 2.196-0.232 3.161-4.839-2.125-8.214-6.946-8.214-12.571 0-7.571 6.143-13.714 13.714-13.714s13.714 6.143 13.714 13.714z"></path>
</svg>
