<!-- Generated by IcoMoon.io -->
<svg version="1.1" xmlns="http://www.w3.org/2000/svg" width="14" height="14" viewBox="0 0 14 14">
<title>dashboard</title>
<path d="M3 2c-0.552 0-1 0.448-1 1v8c0 0.552 0.448 1 1 1h8c0.552 0 1-0.448 1-1v-8c0-0.552-0.448-1-1-1h-8zM3 1h8c1.105 0 2 0.895 2 2v8c0 1.105-0.895 2-2 2h-8c-1.105 0-2-0.895-2-2v-8c0-1.105 0.895-2 2-2z"></path>
<path d="M5.5 4c0.276 0 0.5 0.224 0.5 0.5v5c0 0.276-0.224 0.5-0.5 0.5s-0.5-0.224-0.5-0.5v-5c0-0.276 0.224-0.5 0.5-0.5z"></path>
<path d="M8.5 7c0.276 0 0.5 0.224 0.5 0.5v2c0 0.276-0.224 0.5-0.5 0.5s-0.5-0.224-0.5-0.5v-2c0-0.276 0.224-0.5 0.5-0.5z"></path>
</svg>
