<!-- Generated by IcoMoon.io -->
<svg version="1.1" xmlns="http://www.w3.org/2000/svg" width="27" height="32" viewBox="0 0 27 32">
<path d="M12.232 13.661c0 0 0-0.018-2.25-3.964-0.179-0.286-0.429-0.607-0.929-0.607h-3.286c-0.214 0-0.375 0.071-0.464 0.196-0.089 0.143-0.071 0.339 0.018 0.518l2.232 3.857v0.018l-3.5 6.179c-0.107 0.179-0.089 0.357 0 0.5s0.232 0.232 0.429 0.232h3.304c0.482 0 0.732-0.339 0.893-0.643 3.429-6.054 3.554-6.286 3.554-6.286zM23.375 4.786c-0.089-0.143-0.232-0.214-0.429-0.214h-3.339c-0.482 0-0.696 0.304-0.875 0.625-7.107 12.607-7.339 13.018-7.339 13.018s0 0.018 4.679 8.589c0.161 0.286 0.411 0.625 0.929 0.625h3.286c0.196 0 0.357-0.071 0.446-0.214s0.089-0.321-0.018-0.5l-4.643-8.5v-0.018l7.304-12.911c0.089-0.179 0.089-0.357 0-0.5zM27.429 7.429v17.143c0 2.839-2.304 5.143-5.143 5.143h-17.143c-2.839 0-5.143-2.304-5.143-5.143v-17.143c0-2.839 2.304-5.143 5.143-5.143h17.143c2.839 0 5.143 2.304 5.143 5.143z"></path>
</svg>
