<!-- Generated by IcoMoon.io -->
<svg version="1.1" xmlns="http://www.w3.org/2000/svg" width="27" height="32" viewBox="0 0 27 32">
<path d="M20.946 18.982c0-3.107-3.018-4.179-5.554-4.75l-1.857-0.429c-1.357-0.321-2.375-0.554-2.375-1.589 0-0.946 1-1.375 2.571-1.375 2.804 0 2.857 2.054 4.589 2.054 1.161 0 1.857-0.911 1.857-1.946 0-2.054-3.411-3.393-6.786-3.393-3.089 0-6.679 1.339-6.679 4.964 0 3 2 4.071 4.607 4.696l2.607 0.643c1.589 0.393 2.571 0.571 2.571 1.714 0 0.911-1.018 1.607-2.589 1.607-3.304 0-3.482-2.75-5.393-2.75-1.25 0-1.804 0.893-1.804 1.875 0 2.196 3.357 3.982 7.375 3.982 3.357 0 6.857-1.679 6.857-5.304zM27.429 22.857c0 3.786-3.071 6.857-6.857 6.857-1.571 0-3.018-0.536-4.179-1.429-0.857 0.179-1.768 0.286-2.679 0.286-6.946 0-12.571-5.625-12.571-12.571 0-0.911 0.107-1.821 0.286-2.679-0.893-1.161-1.429-2.607-1.429-4.179 0-3.786 3.071-6.857 6.857-6.857 1.571 0 3.018 0.536 4.179 1.429 0.857-0.179 1.768-0.286 2.679-0.286 6.946 0 12.571 5.625 12.571 12.571 0 0.911-0.107 1.821-0.286 2.679 0.893 1.161 1.429 2.607 1.429 4.179z"></path>
</svg>
