<!-- Generated by IcoMoon.io -->
<svg version="1.1" xmlns="http://www.w3.org/2000/svg" width="32" height="32" viewBox="0 0 32 32">
<path d="M12.054 22.929c0.5-0.821 0.232-1.768-0.607-2.125-0.804-0.339-1.875 0.018-2.375 0.804-0.518 0.804-0.268 1.75 0.536 2.125 0.821 0.375 1.929 0.018 2.446-0.804zM13.732 20.768c0.179-0.321 0.071-0.679-0.25-0.804-0.321-0.107-0.714 0.036-0.893 0.339-0.179 0.321-0.089 0.661 0.232 0.804 0.321 0.125 0.732-0.018 0.911-0.339zM16.839 22.679c-1.071 2.429-4.179 3.75-6.821 2.893-2.554-0.821-3.625-3.339-2.518-5.607 1.107-2.214 3.946-3.464 6.464-2.821 2.625 0.679 3.946 3.143 2.875 5.536zM22.411 19.821c-0.339-3.482-4.911-5.875-10.214-5.357-5.304 0.536-9.304 3.768-8.964 7.25s4.911 5.875 10.214 5.357c5.304-0.536 9.304-3.768 8.964-7.25zM27.911 19.893c0 4.018-5.786 9.071-14.482 9.071-6.643 0-13.429-3.214-13.429-8.518 0-2.768 1.75-5.964 4.768-8.982 4.036-4.036 8.732-5.857 10.5-4.089 0.786 0.768 0.857 2.125 0.357 3.732-0.25 0.821 0.768 0.357 0.768 0.375 3.25-1.375 6.089-1.446 7.125 0.036 0.554 0.786 0.5 1.893 0 3.179-0.232 0.589 0.071 0.679 0.518 0.821 1.839 0.571 3.875 1.946 3.875 4.375zM26.589 8.75c1.018 1.125 1.304 2.679 0.857 4.036-0.179 0.554-0.768 0.857-1.321 0.679s-0.857-0.768-0.679-1.321v0c0.214-0.679 0.071-1.429-0.429-1.982s-1.232-0.768-1.911-0.625v0c-0.571 0.125-1.143-0.232-1.25-0.804-0.125-0.571 0.232-1.125 0.804-1.25 1.393-0.304 2.911 0.125 3.929 1.268zM29.821 5.839c2.107 2.321 2.661 5.5 1.768 8.286v0c-0.214 0.643-0.893 1-1.536 0.786s-1-0.893-0.804-1.536v0c0.643-1.982 0.25-4.25-1.25-5.893-1.5-1.661-3.696-2.286-5.732-1.857-0.661 0.143-1.321-0.286-1.464-0.946s0.286-1.304 0.946-1.446v0c2.875-0.607 5.964 0.268 8.071 2.607z"></path>
</svg>
