<!-- Generated by IcoMoon.io -->
<svg version="1.1" xmlns="http://www.w3.org/2000/svg" width="23" height="32" viewBox="0 0 23 32">
<path d="M17.857 7.75l0.661-3.464c0.125-0.571-0.304-1.018-0.786-1.018h-12.714c-0.571 0-0.964 0.518-0.964 0.964v19.661c0 0.054 0.054 0.071 0.107 0.018 4.679-5.625 5.196-6.286 5.196-6.286 0.536-0.625 0.75-0.732 1.536-0.732h4.268c0.589 0 0.929-0.5 0.982-0.786s0.554-2.893 0.661-3.411-0.375-1.054-0.857-1.054h-5.25c-0.696 0-1.196-0.5-1.196-1.196v-0.75c0-0.696 0.5-1.179 1.196-1.179h6.179c0.429 0 0.911-0.393 0.982-0.768zM21.911 3.786c-0.661 3.214-2.643 13.375-2.821 14.107-0.214 0.839-0.536 2.304-2.571 2.304h-4.839c-0.196 0-0.214-0.018-0.393 0.179 0 0-0.125 0.143-7.607 8.821-0.589 0.679-1.554 0.554-1.911 0.411s-0.982-0.571-0.982-1.75v-25.179c0-1.036 0.643-2.679 2.821-2.679h15.857c2.321 0 2.946 1.321 2.446 3.786zM21.911 3.786l-2.821 14.107c0.179-0.732 2.161-10.893 2.821-14.107z"></path>
</svg>
