<!-- Generated by IcoMoon.io -->
<svg version="1.1" xmlns="http://www.w3.org/2000/svg" width="35" height="32" viewBox="0 0 35 32">
<path d="M34.232 9.286c0.268 0.732-0.571 2.446-2.679 5.25-3.464 4.607-3.839 4.179-0.982 6.839 2.75 2.554 3.321 3.786 3.411 3.946 0 0 1.143 2-1.268 2.018l-4.571 0.071c-0.982 0.196-2.286-0.696-2.286-0.696-1.714-1.179-3.321-4.232-4.571-3.839 0 0-1.286 0.411-1.25 3.161 0.018 0.589-0.268 0.911-0.268 0.911s-0.321 0.339-0.946 0.393h-2.054c-4.518 0.286-8.5-3.875-8.5-3.875s-4.357-4.5-8.179-13.482c-0.25-0.589 0.018-0.875 0.018-0.875s0.268-0.339 1.018-0.339l4.893-0.036c0.464 0.071 0.786 0.321 0.786 0.321s0.286 0.196 0.429 0.571c0.804 2 1.839 3.821 1.839 3.821 1.786 3.679 3 4.304 3.696 3.929 0 0 0.911-0.554 0.714-5-0.071-1.607-0.518-2.339-0.518-2.339-0.411-0.554-1.179-0.714-1.518-0.768-0.268-0.036 0.179-0.679 0.768-0.964 0.875-0.429 2.429-0.446 4.268-0.429 1.446 0.018 1.857 0.107 2.411 0.232 1.696 0.411 1.125 1.982 1.125 5.768 0 1.214-0.232 2.911 0.643 3.464 0.375 0.25 1.304 0.036 3.589-3.857 0 0 1.071-1.857 1.911-4.018 0.143-0.393 0.446-0.554 0.446-0.554s0.286-0.161 0.679-0.107l5.143-0.036c1.554-0.196 1.804 0.518 1.804 0.518z"></path>
</svg>
