<!-- Generated by IcoMoon.io -->
<svg version="1.1" xmlns="http://www.w3.org/2000/svg" width="32" height="32" viewBox="0 0 32 32">
<path d="M19.554 20.839c0.161 0.161 0.161 0.411 0 0.554-1.018 1.018-2.982 1.107-3.554 1.107s-2.536-0.089-3.554-1.107c-0.161-0.143-0.161-0.393 0-0.554 0.143-0.143 0.393-0.143 0.536 0 0.643 0.661 2.036 0.875 3.018 0.875s2.357-0.214 3.018-0.875c0.143-0.143 0.393-0.143 0.536 0zM14.071 17.607c0 0.875-0.714 1.589-1.589 1.589-0.893 0-1.607-0.714-1.607-1.589 0-0.893 0.714-1.607 1.607-1.607 0.875 0 1.589 0.714 1.589 1.607zM21.125 17.607c0 0.875-0.714 1.589-1.607 1.589-0.875 0-1.589-0.714-1.589-1.589 0-0.893 0.714-1.607 1.589-1.607 0.893 0 1.607 0.714 1.607 1.607zM25.607 15.464c0-1.179-0.964-2.125-2.143-2.125-0.607 0-1.143 0.25-1.536 0.643-1.446-1-3.393-1.643-5.554-1.714l1.125-5.054 3.571 0.804c0 0.875 0.714 1.589 1.589 1.589 0.893 0 1.607-0.732 1.607-1.607s-0.714-1.607-1.607-1.607c-0.625 0-1.161 0.375-1.429 0.893l-3.946-0.875c-0.196-0.054-0.393 0.089-0.446 0.286l-1.232 5.571c-2.143 0.089-4.071 0.732-5.518 1.732-0.393-0.411-0.946-0.661-1.554-0.661-1.179 0-2.143 0.946-2.143 2.125 0 0.857 0.5 1.571 1.214 1.929-0.071 0.321-0.107 0.661-0.107 1 0 3.393 3.821 6.143 8.518 6.143 4.714 0 8.536-2.75 8.536-6.143 0-0.339-0.036-0.696-0.125-1.018 0.696-0.357 1.179-1.071 1.179-1.911zM32 16c0 8.839-7.161 16-16 16s-16-7.161-16-16 7.161-16 16-16 16 7.161 16 16z"></path>
</svg>
