<!-- Generated by IcoMoon.io -->
<svg version="1.1" xmlns="http://www.w3.org/2000/svg" width="27" height="32" viewBox="0 0 27 32">
<path d="M26.214 6.786c0.661 0.661 1.214 1.982 1.214 2.929v20.571c0 0.946-0.768 1.714-1.714 1.714h-24c-0.946 0-1.714-0.768-1.714-1.714v-28.571c0-0.946 0.768-1.714 1.714-1.714h16c0.946 0 2.268 0.554 2.929 1.214zM18.286 2.429v6.714h6.714c-0.107-0.304-0.268-0.607-0.393-0.732l-5.589-5.589c-0.125-0.125-0.429-0.286-0.732-0.393zM25.143 29.714v-18.286h-7.429c-0.946 0-1.714-0.768-1.714-1.714v-7.429h-13.714v27.429h22.857zM11.071 15.179c0.214 0.089 0.357 0.304 0.357 0.536v9.714c0 0.232-0.143 0.446-0.357 0.536-0.071 0.018-0.143 0.036-0.214 0.036-0.143 0-0.286-0.054-0.411-0.161l-2.964-2.982h-2.339c-0.321 0-0.571-0.25-0.571-0.571v-3.429c0-0.321 0.25-0.571 0.571-0.571h2.339l2.964-2.982c0.179-0.161 0.411-0.214 0.625-0.125zM18.518 27.482c0.339 0 0.661-0.143 0.893-0.429 1.482-1.821 2.304-4.125 2.304-6.482s-0.821-4.661-2.304-6.482c-0.393-0.5-1.125-0.571-1.607-0.179-0.5 0.411-0.571 1.125-0.161 1.625 1.161 1.429 1.786 3.179 1.786 5.036s-0.625 3.607-1.786 5.036c-0.411 0.5-0.339 1.214 0.161 1.607 0.214 0.179 0.464 0.268 0.714 0.268zM14.75 24.839c0.304 0 0.607-0.125 0.839-0.357 1-1.071 1.554-2.446 1.554-3.911s-0.554-2.839-1.554-3.911c-0.429-0.464-1.161-0.482-1.625-0.054-0.446 0.429-0.482 1.161-0.036 1.625 0.589 0.643 0.929 1.464 0.929 2.339s-0.339 1.696-0.929 2.339c-0.446 0.464-0.411 1.196 0.036 1.625 0.232 0.196 0.518 0.304 0.786 0.304z"></path>
</svg>
