<!-- Generated by IcoMoon.io -->
<svg version="1.1" xmlns="http://www.w3.org/2000/svg" width="23" height="32" viewBox="0 0 23 32">
<path d="M22.821 3.375v1.304c0 0.607-0.482 1.661-1.089 1.661-0.304 0-0.661-0.054-0.964 0.018-0.286 0.071-0.5 0.268-0.571 0.554-0.089 0.339-0.054 0.768-0.054 1.143v20.571c0 0.607-0.482 1.089-1.089 1.089h-1.929c-0.607 0-1.089-0.482-1.089-1.089v-21.75h-2.554v21.75c0 0.607-0.482 1.089-1.089 1.089h-1.929c-0.607 0-1.089-0.482-1.089-1.089v-8.857c-1.732-0.143-3.214-0.5-4.375-1.054-1.5-0.696-2.643-1.768-3.429-3.196-0.75-1.375-1.143-2.929-1.143-4.625 0-1.982 0.536-3.696 1.571-5.107 1.054-1.411 2.304-2.357 3.732-2.839 1.339-0.446 4.161-0.661 7.446-0.661h8.554c0.607 0 1.089 0.482 1.089 1.089z"></path>
</svg>
