<!-- Generated by IcoMoon.io -->
<svg version="1.1" xmlns="http://www.w3.org/2000/svg" width="41" height="32" viewBox="0 0 41 32">
<path d="M19.982 6.089c-1.482-0.982-3.232-1.518-5.018-1.518-5.018 0-9.089 4.071-9.089 9.071 0 5.018 4.071 9.089 9.089 9.089 1.786 0 3.536-0.536 5.018-1.518-4.786-3.893-4.75-11.232 0-15.125zM20.571 6.518c-4.607 3.625-4.625 10.661 0 14.268 4.625-3.607 4.607-10.643 0-14.268zM21.161 6.089c4.732 3.893 4.804 11.25 0 15.125 1.482 0.982 3.25 1.518 5.018 1.518 5.018 0 9.089-4.071 9.089-9.089 0-5-4.071-9.071-9.089-9.071-1.786 0-3.536 0.536-5.018 1.518zM34.393 18.982h0.125v-0.054h-0.304v0.054h0.125v0.304h0.054v-0.304zM34.911 19.286h0.071v-0.357h-0.089l-0.107 0.232-0.107-0.232h-0.089v0.357h0.054v-0.268l0.107 0.232h0.071l0.089-0.232v0.268zM34.768 27.143v0.036h-0.089v-0.054h0.089v0.018zM34.768 27.304h0.054l-0.071-0.089c0.036 0 0.036-0.018 0.054-0.018 0.018-0.018 0.018-0.036 0.018-0.054s0-0.036-0.018-0.054c-0.018 0-0.036-0.018-0.071-0.018h-0.107v0.232h0.054v-0.089h0.018zM12.232 26.089c0-0.429 0.268-0.768 0.732-0.768 0.429 0 0.714 0.339 0.714 0.768 0 0.446-0.286 0.768-0.714 0.768-0.464 0-0.732-0.339-0.732-0.768zM20.679 25.304c0.339 0 0.571 0.196 0.625 0.571h-1.25c0.054-0.339 0.268-0.571 0.625-0.571zM27.036 26.089c0-0.429 0.268-0.768 0.714-0.768s0.732 0.339 0.732 0.768c0 0.446-0.286 0.768-0.732 0.768s-0.714-0.339-0.714-0.768zM31.893 26.089c0-0.429 0.286-0.768 0.732-0.768 0.429 0 0.732 0.339 0.732 0.768 0 0.446-0.304 0.768-0.732 0.768-0.446 0-0.732-0.339-0.732-0.768zM34.714 27.375c-0.018 0-0.036 0-0.071-0.018-0.018 0-0.036-0.018-0.054-0.036s-0.036-0.036-0.036-0.054-0.018-0.054-0.018-0.071 0-0.054 0.018-0.071c0-0.036 0.018-0.054 0.036-0.071s0.036-0.018 0.054-0.036 0.054-0.018 0.071-0.018 0.054 0 0.071 0.018 0.054 0.018 0.071 0.036 0.018 0.036 0.036 0.071c0 0.018 0.018 0.036 0.018 0.071 0 0.018-0.018 0.036-0.018 0.071-0.018 0.018-0.018 0.036-0.036 0.054s-0.036 0.036-0.071 0.036c-0.018 0.018-0.036 0.018-0.071 0.018zM10.696 27.304h0.536v-1.518c0-0.571-0.375-0.946-0.964-0.964-0.304 0-0.625 0.089-0.839 0.429-0.161-0.268-0.429-0.429-0.804-0.429-0.25 0-0.5 0.089-0.696 0.357v-0.286h-0.536v2.411h0.536v-1.339c0-0.429 0.232-0.643 0.589-0.643s0.536 0.232 0.536 0.643v1.339h0.518v-1.339c0-0.429 0.25-0.643 0.589-0.643 0.357 0 0.536 0.232 0.536 0.643v1.339zM13.661 27.304h0.518v-2.411h-0.518v0.286c-0.179-0.214-0.429-0.357-0.768-0.357-0.679 0-1.196 0.536-1.196 1.268s0.518 1.268 1.196 1.268c0.339 0 0.589-0.125 0.768-0.357v0.304zM16.839 26.571c0-0.429-0.321-0.643-0.839-0.714l-0.25-0.036c-0.232-0.036-0.411-0.089-0.411-0.25s0.161-0.268 0.446-0.268c0.321 0 0.607 0.107 0.768 0.196l0.214-0.429c-0.25-0.161-0.589-0.25-0.982-0.25-0.607 0-1 0.304-1 0.786 0 0.393 0.286 0.625 0.839 0.696l0.232 0.036c0.304 0.054 0.429 0.125 0.429 0.25 0 0.196-0.196 0.304-0.554 0.304s-0.625-0.125-0.804-0.25l-0.232 0.411c0.286 0.196 0.643 0.304 1.036 0.304 0.696 0 1.107-0.321 1.107-0.786zM19.161 27.179l-0.143-0.446c-0.161 0.089-0.321 0.125-0.464 0.125-0.268 0-0.339-0.161-0.339-0.393v-1.089h0.857v-0.482h-0.857v-0.732h-0.536v0.732h-0.5v0.482h0.5v1.089c0 0.554 0.214 0.893 0.839 0.893 0.214 0 0.482-0.071 0.643-0.179zM20.696 24.821c-0.696 0-1.196 0.518-1.196 1.268 0 0.768 0.518 1.268 1.232 1.268 0.357 0 0.696-0.089 0.982-0.339l-0.25-0.393c-0.196 0.161-0.464 0.268-0.696 0.268-0.339 0-0.643-0.161-0.732-0.589h1.804v-0.214c0-0.75-0.464-1.268-1.143-1.268zM23.536 24.821c-0.304 0-0.5 0.143-0.625 0.357v-0.286h-0.536v2.411h0.536v-1.357c0-0.393 0.161-0.625 0.518-0.625 0.107 0 0.214 0.018 0.321 0.071l0.161-0.5c-0.125-0.054-0.268-0.071-0.375-0.071zM24.071 26.089c0 0.732 0.5 1.268 1.286 1.268 0.357 0 0.607-0.071 0.857-0.286l-0.25-0.429c-0.196 0.143-0.393 0.232-0.625 0.214-0.429 0-0.732-0.304-0.732-0.768s0.304-0.768 0.732-0.768c0.232 0 0.429 0.071 0.625 0.214l0.25-0.429c-0.25-0.196-0.5-0.286-0.857-0.286-0.786 0-1.286 0.536-1.286 1.268zM28.446 27.304h0.536v-2.411h-0.536v0.286c-0.161-0.214-0.411-0.357-0.75-0.357-0.679 0-1.214 0.536-1.214 1.268s0.536 1.268 1.214 1.268c0.339 0 0.589-0.125 0.75-0.357v0.304zM30.821 24.821c-0.304 0-0.5 0.143-0.625 0.357v-0.286h-0.518v2.411h0.518v-1.357c0-0.393 0.179-0.625 0.518-0.625 0.107 0 0.214 0.018 0.321 0.071l0.161-0.5c-0.107-0.054-0.268-0.071-0.375-0.071zM33.321 27.304h0.518v-3.393h-0.518v1.268c-0.161-0.214-0.411-0.357-0.768-0.357-0.661 0-1.196 0.536-1.196 1.268s0.536 1.268 1.196 1.268c0.357 0 0.607-0.125 0.768-0.357v0.304zM34.714 26.946c-0.018 0-0.054 0.018-0.089 0.018-0.036 0.018-0.054 0.036-0.071 0.054-0.036 0.018-0.054 0.054-0.054 0.071-0.018 0.036-0.018 0.071-0.018 0.107 0 0.018 0 0.054 0.018 0.089 0 0.018 0.018 0.054 0.054 0.071 0.018 0.018 0.036 0.036 0.071 0.054s0.071 0.018 0.089 0.018c0.036 0 0.071 0 0.107-0.018 0.018-0.018 0.054-0.036 0.071-0.054s0.036-0.054 0.054-0.071c0.018-0.036 0.018-0.071 0.018-0.089 0-0.036 0-0.071-0.018-0.107-0.018-0.018-0.036-0.054-0.054-0.071s-0.054-0.036-0.071-0.054c-0.036 0-0.071-0.018-0.107-0.018zM41.143 4.571v22.857c0 1.25-1.036 2.286-2.286 2.286h-36.571c-1.25 0-2.286-1.036-2.286-2.286v-22.857c0-1.25 1.036-2.286 2.286-2.286h36.571c1.25 0 2.286 1.036 2.286 2.286z"></path>
</svg>
