<!-- Generated by IcoMoon.io -->
<svg version="1.1" xmlns="http://www.w3.org/2000/svg" width="37" height="32" viewBox="0 0 37 32">
<path d="M14.018 18h3.696c-0.339 3.768-2.5 6.054-5.589 6.054-3.857 0-6.196-2.964-6.196-7.714 0-4.714 2.571-7.661 5.821-7.661 3.571 0 5.571 2.214 5.875 5.964h-3.625c-0.125-1.518-0.875-2.393-2.089-2.393-1.339 0-2.143 1.429-2.143 4.25 0 2.054 0.357 3.982 2.304 3.982 1.232 0 1.804-1.071 1.946-2.482zM26.732 18h3.679c-0.339 3.768-2.482 6.054-5.571 6.054-3.857 0-6.196-2.964-6.196-7.714 0-4.714 2.571-7.661 5.821-7.661 3.571 0 5.571 2.214 5.875 5.964h-3.643c-0.107-1.518-0.875-2.393-2.071-2.393-1.339 0-2.143 1.429-2.143 4.25 0 2.054 0.339 3.982 2.286 3.982 1.232 0 1.821-1.071 1.964-2.482zM33.143 15.875c0-4.786-0.25-6.857-1.357-8.357-0.232-0.304-0.607-0.5-0.911-0.714-1.125-0.821-6.357-1.125-12.446-1.125s-11.571 0.304-12.679 1.125c-0.321 0.232-0.714 0.411-0.946 0.714-1.107 1.482-1.339 3.571-1.339 8.357 0 4.804 0.25 6.875 1.339 8.357 0.25 0.339 0.625 0.482 0.946 0.732 1.107 0.821 6.589 1.161 12.679 1.161s11.321-0.321 12.446-1.161c0.304-0.232 0.696-0.375 0.911-0.732 1.125-1.464 1.357-3.554 1.357-8.357zM36.571 2.286v27.429h-36.571v-27.429h36.571z"></path>
</svg>
