<!-- Generated by IcoMoon.io -->
<svg version="1.1" xmlns="http://www.w3.org/2000/svg" width="37" height="32" viewBox="0 0 37 32">
<path d="M26.125 14.857c0 0.839-0.679 1.536-1.536 1.536h-12.536c-0.857 0-1.536-0.696-1.536-1.536s0.679-1.536 1.536-1.536h12.536c0.857 0 1.536 0.696 1.536 1.536zM29.946 14.857c0-1.054-0.143-2.054-0.411-3.036h-17.536c-0.857 0-1.536-0.679-1.536-1.518 0-0.857 0.679-1.536 1.536-1.536h16.214c-2.054-3.339-5.732-5.554-9.911-5.554-6.429 0-11.661 5.214-11.661 11.643 0 1.054 0.143 2.054 0.411 3.036h17.536c0.857 0 1.536 0.679 1.536 1.518 0 0.857-0.679 1.536-1.536 1.536h-16.214c2.054 3.339 5.732 5.554 9.929 5.554 6.411 0 11.643-5.214 11.643-11.643zM36.571 10.304c0 0.839-0.679 1.518-1.536 1.518h-2.339c0.196 0.982 0.304 2 0.304 3.036 0 8.107-6.589 14.714-14.696 14.714-5.946 0-11.071-3.536-13.393-8.625h-3.375c-0.857 0-1.536-0.679-1.536-1.536 0-0.839 0.679-1.518 1.536-1.518h2.357c-0.196-0.982-0.304-2-0.304-3.036 0-8.107 6.589-14.714 14.714-14.714 5.929 0 11.054 3.536 13.375 8.625h3.357c0.857 0 1.536 0.679 1.536 1.536z"></path>
</svg>
