<!-- Generated by IcoMoon.io -->
<svg version="1.1" xmlns="http://www.w3.org/2000/svg" width="27" height="32" viewBox="0 0 27 32">
<path d="M23.411 15.036v2.036c0 0.571-0.339 0.929-0.911 0.929h-3.607c-0.571 0-0.929-0.357-0.929-0.929v-2.036c0-0.571 0.357-0.929 0.929-0.929h3.607c0.571 0 0.911 0.357 0.911 0.929zM14.661 19.143v-4.464c0-1.268-0.839-2.107-2.107-2.107h-2.375c-0.804 0-1.393 0.339-1.714 0.929-0.321-0.589-0.911-0.929-1.714-0.929h-2.321c-1.25 0-2.107 0.839-2.107 2.107v4.464c0 0.268 0.125 0.393 0.375 0.393h0.982c0.268 0 0.393-0.125 0.393-0.393v-4.107c0-0.571 0.339-0.929 0.929-0.929h1.679c0.571 0 0.929 0.357 0.929 0.929v4.107c0 0.268 0.107 0.393 0.375 0.393h0.964c0.268 0 0.393-0.125 0.393-0.393v-4.107c0-0.571 0.357-0.929 0.929-0.929h1.732c0.571 0 0.911 0.357 0.911 0.929v4.107c0 0.268 0.125 0.393 0.393 0.393h0.982c0.25 0 0.375-0.125 0.375-0.393zM25.179 17.429v-2.75c0-1.268-0.857-2.107-2.125-2.107h-4.714c-1.268 0-2.125 0.839-2.125 2.107v7.321c0 0.268 0.143 0.375 0.393 0.375h0.982c0.268 0 0.375-0.107 0.375-0.375v-3.214c0.339 0.464 0.875 0.75 1.679 0.75h3.411c1.268 0 2.125-0.857 2.125-2.107zM27.429 6.429v19.143c0 2.286-1.857 4.143-4.143 4.143h-19.143c-2.286 0-4.143-1.857-4.143-4.143v-19.143c0-2.286 1.857-4.143 4.143-4.143h19.143c2.286 0 4.143 1.857 4.143 4.143z"></path>
</svg>
