<!-- Generated by IcoMoon.io -->
<svg version="1.1" xmlns="http://www.w3.org/2000/svg" width="37" height="32" viewBox="0 0 37 32">
<path d="M15.411 18.429c0-2.679-2.161-4.839-4.839-4.839-2.661 0-4.821 2.161-4.821 4.839 0 2.661 2.161 4.821 4.821 4.821 2.679 0 4.839-2.161 4.839-4.821zM30.821 18.411c0-2.661-2.161-4.821-4.821-4.821-2.679 0-4.839 2.161-4.839 4.821 0 2.679 2.161 4.839 4.839 4.839 2.661 0 4.821-2.161 4.821-4.839zM36.571 3.964v24.071c0 1.054-0.857 1.911-1.929 1.911h-32.714c-1.071 0-1.929-0.857-1.929-1.911v-24.071c0-1.054 0.857-1.911 1.929-1.911h7.696c1.054 0 1.929 0.857 1.929 1.911v2.875h13.464v-2.875c0-1.054 0.875-1.911 1.929-1.911h7.696c1.071 0 1.929 0.857 1.929 1.911z"></path>
</svg>
