<!-- Generated by IcoMoon.io -->
<svg version="1.1" xmlns="http://www.w3.org/2000/svg" width="32" height="32" viewBox="0 0 32 32">
<path d="M2.464 2.286h3.518c-0.839 0.768-1.589 1.661-2.25 2.661-2.768 4.268-1.643 8.946-0.571 13.982 0.875 4.089 1.607 7.982 4.161 10.786h-4.857c-1.143 0-2.071-0.929-2.071-2.071v-23.286c0-1.143 0.929-2.071 2.071-2.071zM24.036 2.286h5.5c1.143 0 2.071 0.929 2.071 2.071v23.286c0 1.143-0.929 2.071-2.071 2.071h-3.179c2.357-2.339 3.696-5.732 3.5-10.089l-8.375 1.804c-0.107 1.982-0.786 3.893-3.5 4.464-1.518 0.321-2.768-0.036-3.554-0.714-0.964-0.821-1.732-1.893-3.018-8-1.304-6.125-1.036-7.411-0.5-8.554 0.446-0.929 1.446-1.786 2.946-2.107 2.732-0.571 4.125 0.911 5.036 2.679l8.357-1.786c-0.821-2.107-1.911-3.821-3.214-5.125z"></path>
</svg>
