<!-- Generated by IcoMoon.io -->
<svg version="1.1" xmlns="http://www.w3.org/2000/svg" width="32" height="32" viewBox="0 0 32 32">
<path d="M6.857 14.857h2.857v-4h-2.857v4zM21.804 20.786v-1.643c-1.536 0.536-2.804 0.661-4.339 0.679-3.446 0.018-6.5-1.411-8.571-3.018l0.018 1.714c1.946 1.768 4.929 3.161 8.643 3.143 1.554 0 3.018-0.321 4.25-0.875zM11.429 14.857h11.429v-4h-11.429v4zM32 14.286c0 2.268-0.643 4.411-1.768 6.286 1 1.143 1.589 2.554 1.589 4.089 0 3.732-3.536 6.768-7.911 6.768-2.964 0-5.536-1.393-6.893-3.446-0.339 0.018-0.679 0.018-1.018 0.018s-0.679 0-1.018-0.018c-1.357 2.054-3.929 3.446-6.893 3.446-4.375 0-7.911-3.036-7.911-6.768 0-1.536 0.589-2.946 1.589-4.089-1.125-1.875-1.768-4.018-1.768-6.286 0-7.571 7.161-13.714 16-13.714s16 6.143 16 13.714z"></path>
</svg>
