<!-- Generated by IcoMoon.io -->
<svg version="1.1" xmlns="http://www.w3.org/2000/svg" width="39" height="32" viewBox="0 0 39 32">
<path d="M20.411 30.946c-0.071-0.018-0.125-0.036-0.196-0.071 0 0-5.875-3.446-7.857-9.018-0.661-0.107-2.054-0.429-3.125-0.661v0c1.554 5.054 5.875 8.911 11.179 9.75zM8.964 20.125l3 0.5c-1.018-3.054-1.143-6.536-1.143-6.536-1.196 1.161-1.839 2.75-2.161 4v0c0.054 0.696 0.143 1.375 0.304 2.036zM10.929 9.25v0c-0.554 0.821-1 1.714-1.375 2.643 0.589-0.625 1.071-1.036 1.321-1.214-0.036-0.536 0.054-1.429 0.054-1.429zM36.589 17c0-7.786-6.286-14.107-14-14.107-3.571 0-6.821 1.357-9.304 3.589-0.375 0.732-0.625 1.661-0.804 2.857 3.804-3.232 10.589-2.429 10.589-2.429 1.696 0.071 1.5 1.571 1.482 2.036-6.179-0.518-9.214 1.25-12.214 3.804 0 0 0.589 5.714 1.946 8.036 7.821 0.357 13.768-3.893 13.768-3.893 0.75-0.536 1.411-0.589 1.554 0.339 0.107 0.75 0.161 1.768-0.696 2.161-2.607 1.214-5.482 1.982-8.339 2.393-1.857 0.268-2.893 0.339-5.661 0.286 2.643 6.143 9.25 7.821 9.25 7.821 2.071 0.339 3.643 0.071 4.696-0.268v0c4.571-2.321 7.732-7.107 7.732-12.625zM37.911 16.339c-0.125 1.214-0.321 2.625-0.714 3.786-1.607 4.768-3.839 7.875-8.929 10.714-0.464 0.321-0.964 0.625-1.464 0.786-0.911 0.321-1.893 0.393-2.911 0.286-0.429 0.036-0.857 0.054-1.304 0.054-6.804 0-12.554-4.643-14.286-10.982-0.054 0-0.107-0.018-0.161-0.018-0.411 3.214 1.964 7.554 1.964 7.554s0.143 0.214 0.964 1.464c-4.554-2.411-4.679-9.518-4.679-9.518-1.089-0.411-4.875-1.696-5.536-2.75 0 0 2.964 1.625 5.518 1.946-0.018-0.018 0.036-0.571 0.036-0.571 0.161-2.179 0.911-3.875 1.679-5.179 0.5-2.446 1.607-4.661 3.143-6.518 0.268-1.107 0.696-2.429 1.446-3.821 0.321-0.607 0.625-1 1.446-1.375 5.429-2.536 10.786-3.179 16.286-0.321v0c5.268 2.75 8.125 8.5 7.5 14.464z"></path>
</svg>
