<!-- Generated by IcoMoon.io -->
<svg version="1.1" xmlns="http://www.w3.org/2000/svg" width="32" height="32" viewBox="0 0 32 32">
<path d="M16.929 18.357l2.911 5.875h-0.911l-3.125-6.25-3.054 6.25h-0.875l3.196-6.679-1.393-0.589 0.375-0.875 4.286 1.821-0.375 0.893zM10.054 7.786l5.429 2.321-2.321 5.429-5.429-2.321zM16.196 11.089l4.286 1.839-1.839 4.268-4.268-1.821zM21.214 13.768l3.411 1.446-1.464 3.393-3.393-1.446zM30 16c0-7.714-6.286-14-14-14s-14 6.286-14 14 6.286 14 14 14 14-6.286 14-14zM32 16c0 8.821-7.179 16-16 16s-16-7.179-16-16 7.179-16 16-16 16 7.179 16 16z"></path>
</svg>
