<!-- Generated by IcoMoon.io -->
<svg version="1.1" xmlns="http://www.w3.org/2000/svg" width="32" height="32" viewBox="0 0 32 32">
<path d="M26.304 16.589c0.321-5.714-4.054-10.446-9.714-10.786-5.625-0.339-10.607 3.946-10.929 9.607-0.321 5.714 4.054 10.446 9.732 10.786 5.625 0.339 10.607-3.929 10.911-9.607zM32 0l-6.232 6.214c2.839 2.768 4.375 6.625 4.125 10.589-0.393 6.643-5.5 11.946-12.054 12.839l-17.839 2.357 6.196-6.196c-2.839-2.768-4.357-6.625-4.125-10.589 0.411-6.661 5.5-11.964 12.071-12.857 5.946-0.786 11.911-1.571 17.857-2.357z"></path>
</svg>
