<!-- Generated by IcoMoon.io -->
<svg version="1.1" xmlns="http://www.w3.org/2000/svg" width="27" height="32" viewBox="0 0 27 32">
<path d="M16.464 14.232v3.25c0 0.643 0.125 1.232-0.679 1.214v-5.518c0.786 0 0.679 0.411 0.679 1.054zM22.107 15.946v2.161c0 0.357 0.107 0.946-0.411 0.946-0.107 0-0.196-0.054-0.25-0.161-0.143-0.339-0.071-2.911-0.071-2.946 0-0.25-0.071-0.839 0.321-0.839 0.482 0 0.411 0.482 0.411 0.839zM3.214 20.161h2.179v-8.429h-2.179v8.429zM10.964 20.161h1.893v-8.429h-2.839l-0.5 3.946c-0.179-1.321-0.357-2.643-0.571-3.946h-2.821v8.429h1.911v-5.571l0.804 5.571h1.357l0.768-5.696v5.696zM18.554 14.714c0-0.536 0.018-1.107-0.089-1.607-0.286-1.482-2.071-1.375-3.232-1.375h-1.625v8.429c5.679 0 4.946 0.393 4.946-5.446zM24.214 18.232v-2.375c0-1.143-0.054-1.982-1.464-1.982-0.589 0-0.982 0.179-1.375 0.607v-2.75h-2.089v8.429h1.964l0.125-0.536c0.375 0.446 0.786 0.643 1.375 0.643 1.304 0 1.464-1 1.464-2.036zM27.429 5.143v21.714c0 1.571-1.286 2.857-2.857 2.857h-21.714c-1.571 0-2.857-1.286-2.857-2.857v-21.714c0-1.571 1.286-2.857 2.857-2.857h21.714c1.571 0 2.857 1.286 2.857 2.857z"></path>
</svg>
