<!-- Generated by IcoMoon.io -->
<svg version="1.1" xmlns="http://www.w3.org/2000/svg" width="16" height="16" viewBox="0 0 16 16">
<title>alipay-mini</title>
<path d="M7.175 0.226c0.464-0.268 1.026-0.292 1.508-0.073l0.142 0.073 5.495 3.173c0.468 0.27 0.771 0.75 0.819 1.283l0.006 0.146v6.345c0 0.54-0.264 1.043-0.702 1.35l-0.123 0.079-5.495 3.173c-0.464 0.268-1.026 0.292-1.508 0.073l-0.142-0.073-5.495-3.173c-0.468-0.27-0.771-0.75-0.819-1.283l-0.006-0.146v-6.345c0-0.54 0.264-1.043 0.702-1.35l0.123-0.079 5.495-3.173zM12.034 8.745l-6.931 4.332 2.722 1.572c0.087 0.050 0.189 0.060 0.282 0.030l0.068-0.030 5.495-3.173c0.087-0.050 0.147-0.134 0.167-0.23l0.008-0.074-0-1.313-1.811-1.115zM2.154 7.665l0.001 3.508c0 0.1 0.043 0.194 0.115 0.26l0.060 0.044 1.498 0.865 2.939-1.837-4.613-2.839zM8.003 6.265l-2.801 1.75 2.795 1.72 2.801-1.75-2.795-1.72zM12.172 3.659l-2.939 1.837 4.612 2.838 0-3.506c0-0.1-0.043-0.194-0.115-0.26l-0.060-0.044-1.498-0.866zM8.175 1.352c-0.087-0.050-0.189-0.060-0.282-0.030l-0.068 0.030-5.495 3.173c-0.087 0.050-0.147 0.134-0.167 0.23l-0.008 0.074-0.001 1.311 1.812 1.115 6.931-4.331-2.722-1.571z"></path>
</svg>
