<!-- Generated by IcoMoon.io -->
<svg version="1.1" xmlns="http://www.w3.org/2000/svg" width="16" height="16" viewBox="0 0 16 16">
<title>Alipay</title>
<path d="M16 15c-1.292-0.622-2.511-1.248-3.784-1.919-0.832-0.439-3.298-1.727-3.298-1.727s-0.192 0.201-0.441 0.517c-1.231 1.574-2.467 2.491-4.335 2.847-0.795 0.089-1.369-0.012-2.235-0.314-1.135-0.396-1.887-1.493-1.906-2.917-0.020-1.449 0.547-2.654 1.649-3.302 1.191-0.698 2.596-0.457 3.835-0.156 0.811 0.197 2.871 0.911 2.871 0.911 0.429-0.627 0.811-1.607 1.144-2.94h-6.5v-1h3v-1h-3.971v-1h3.971v-1.886l2-0.114v2h4v1h-4v1h3.5c0 2-0.5 3-1.471 4.609 1.859 0.924 3.988 1.682 5.971 2.318v3.073zM3.494 8.996c-0.527 0.004-1.075 0-1.649 0.334-0.679 0.391-1.191 0.847-1.27 1.756-0.063 0.735 0.526 1.696 1.149 1.981 0.12 0.055 0.256 0.227 0.867 0.284 1.972 0.182 3.814-1.112 4.76-2.873-1.259-0.695-2.465-1.486-3.856-1.481z"></path>
</svg>
