<!-- Generated by IcoMoon.io -->
<svg version="1.1" xmlns="http://www.w3.org/2000/svg" width="16" height="16" viewBox="0 0 16 16">
<title>android</title>
<path d="M10.271 0.302c0.139-0.269 0.473-0.38 0.749-0.245 0.275 0.136 0.387 0.463 0.249 0.733v0l-0.557 1.092c1.229 0.781 2.086 2.076 2.256 3.572v0l0.032 1.546h-10v-1.546c0.17-1.496 1.029-2.792 2.258-3.572v0l-0.558-1.092c-0.136-0.27-0.026-0.598 0.25-0.733 0.276-0.133 0.61-0.024 0.748 0.245v0l0.559 1.095 0.144-0.055c0.497-0.162 1.030-0.251 1.583-0.251s1.086 0.089 1.584 0.251v0l0.144 0.055zM9.982 4.001c-0.467 0.001-0.839 0.366-0.839 0.818 0 0.451 0.374 0.817 0.837 0.817 0.462 0 0.837-0.366 0.837-0.817 0-0.452-0.373-0.817-0.835-0.818v0zM5.985 4.001c-0.46 0.001-0.835 0.366-0.835 0.818 0 0.451 0.376 0.817 0.837 0.817s0.836-0.366 0.836-0.817c0-0.452-0.373-0.817-0.838-0.818z"></path>
<path d="M13 15.992v-7.992h-10v8h9.999z"></path>
<path d="M1 8c0.552 0 1 0.448 1 1v5c0 0.552-0.448 1-1 1s-1-0.448-1-1v-5c0-0.552 0.448-1 1-1z"></path>
<path d="M15 8c0.552 0 1 0.448 1 1v5c0 0.552-0.448 1-1 1s-1-0.448-1-1v-5c0-0.552 0.448-1 1-1z"></path>
</svg>
