<!-- Generated by IcoMoon.io -->
<svg version="1.1" xmlns="http://www.w3.org/2000/svg" width="16" height="16" viewBox="0 0 16 16">
<title>cookie</title>
<path d="M8 0c0.578 0 0.404 0.501-0.52 1.502-0.262 0.284-0.253 0.724 0.020 0.998 0.32 0.32 0.5 0.754 0.5 1.207v0 0.851c0 0.861 0.551 1.625 1.368 1.897v0l1.185 0.395c0.295 0.098 0.562 0.264 0.782 0.483v0l0.666 0.666c0.568 0.568 1.447 0.684 2.144 0.283 1.238-0.713 1.856-0.808 1.856-0.283 0 4.418-3.582 8-8 8s-8-3.582-8-8c0-4.418 3.582-8 8-8zM9.92 8.548c-0.252-0.112-0.548 0.001-0.66 0.253v0l-0.66 1.48-0.105-0.273c-0.198-0.516-0.776-0.773-1.292-0.575s-0.773 0.776-0.575 1.292v0l1.075 2.801c0.198 0.516 0.776 0.773 1.292 0.575s0.773-0.776 0.575-1.292v0l-0.464-1.208 1.067-2.394 0.029-0.085c0.056-0.23-0.058-0.475-0.283-0.575zM9.907 11.666l-0.090-0.001c-0.236 0.020-0.432 0.206-0.456 0.45-0.027 0.275 0.174 0.519 0.449 0.546v0l2.226 0.217 0.090 0.001c0.236-0.020 0.432-0.206 0.456-0.45 0.027-0.275-0.174-0.519-0.449-0.546v0l-2.226-0.217zM4 9c-0.552 0-1 0.448-1 1s0.448 1 1 1c0.552 0 1-0.448 1-1s-0.448-1-1-1zM4.5 3c-0.828 0-1.5 0.672-1.5 1.5s0.672 1.5 1.5 1.5c0.828 0 1.5-0.672 1.5-1.5s-0.672-1.5-1.5-1.5z"></path>
<path d="M11.794 1.493c-0.189 0.519-0.763 0.787-1.282 0.598s-0.787-0.763-0.598-1.282c0.189-0.519 0.763-0.787 1.282-0.598s0.787 0.763 0.598 1.282z"></path>
<path d="M10.171 3.030c0.519 0.189 0.787 0.763 0.598 1.282l-0.684 1.879c-0.189 0.519-0.763 0.787-1.282 0.598s-0.787-0.763-0.598-1.282l0.684-1.879c0.189-0.519 0.763-0.787 1.282-0.598z"></path>
<path d="M11.882 3.396c0.295-1.269 1.327-2.131 2.369-1.947s1.717 1.347 1.561 2.64c-0.014 0.091-0.098 0.154-0.189 0.14-0.001-0-0.003-0-0.004-0.001l-2.786-0.491c-0.148 0.842 0.216 1.561 0.724 1.651 0.146 0.026 0.37-0.073 0.672-0.355 0.202-0.189 0.518-0.178 0.707 0.023s0.178 0.518-0.023 0.707c-0.509 0.477-1.019 0.7-1.529 0.61-1.124-0.198-1.771-1.475-1.536-2.809l0.034-0.168z"></path>
</svg>
