<!-- Generated by IcoMoon.io -->
<svg version="1.1" xmlns="http://www.w3.org/2000/svg" width="16" height="16" viewBox="0 0 16 16">
<title>google</title>
<path d="M8.19 0c2.113 0 3.977 0.782 5.364 2.065l0.046 0.043-2.319 2.299c-0.808-0.717-1.878-1.151-3.091-1.151-2.683 0-4.857 2.124-4.857 4.744s2.175 4.744 4.857 4.744c2.403 0 3.917-1.32 4.451-3.163l-4.451-0v-3.070h6.667l0 0.007 1.048-0.007c0.081 0.468 0.095 0.996 0.095 1.488 0 4.744-3.286 8-7.81 8s-8.19-3.582-8.19-8c0-4.418 3.667-8 8.19-8z"></path>
</svg>
