<!-- Generated by IcoMoon.io -->
<svg version="1.1" xmlns="http://www.w3.org/2000/svg" width="16" height="16" viewBox="0 0 16 16">
<title>iOS</title>
<path d="M10.53 2.553c0.599-0.676 1.005-1.616 0.896-2.553-0.866 0.032-1.913 0.535-2.534 1.212-0.556 0.599-1.043 1.556-0.913 2.476 0.964 0.068 1.95-0.457 2.551-1.132v-0.003zM12.694 8.5c-0.021-2.025 1.777-2.997 1.857-3.047-1.010-1.373-2.585-1.563-3.145-1.585-1.338-0.124-2.611 0.735-3.292 0.735-0.679 0-1.728-0.715-2.839-0.695-1.459 0.019-2.804 0.788-3.555 2.005-1.518 2.448-0.388 6.076 1.089 8.060 0.722 0.973 1.582 2.065 2.714 2.025 1.088-0.040 1.499-0.656 2.816-0.656 1.318 0 1.687 0.656 2.839 0.636 1.171-0.020 1.914-0.991 2.631-1.967 0.83-1.128 1.169-2.219 1.191-2.275-0.026-0.011-2.286-0.816-2.309-3.237h0.003z"></path>
</svg>
