<!-- Generated by IcoMoon.io -->
<svg version="1.1" xmlns="http://www.w3.org/2000/svg" width="16" height="16" viewBox="0 0 16 16">
<title>xiaochengxu</title>
<path d="M8 0c4.418 0 8 3.582 8 8s-3.582 8-8 8c-4.418 0-8-3.582-8-8s3.582-8 8-8zM13.645 4.472c-1.219-1.951-4.013-2.124-5.741-0.032-0.704 0.852-0.912 1.756-0.91 3.090 0 0.138 0.002 0.247 0.006 0.488 0.024 1.315-0.056 1.796-0.446 2.268-0.861 1.043-2.010 0.972-2.503 0.182-0.252-0.403-0.361-1.123-0.219-1.663 0.142-0.537 0.472-0.805 1.168-0.805 0.552 0 1-0.448 1-1s-0.448-1-1-1c-1.625 0-2.733 0.898-3.101 2.293-0.284 1.075-0.088 2.363 0.456 3.234 1.219 1.951 4.013 2.124 5.741 0.032 0.797-0.965 0.936-1.801 0.904-3.578-0.002-0.138-0.004-0.23-0.005-0.308l-0.001-0.147c-0.001-0.911 0.111-1.401 0.452-1.813 0.861-1.043 2.010-0.972 2.503-0.182 0.252 0.403 0.361 1.123 0.219 1.663-0.142 0.537-0.472 0.805-1.168 0.805-0.552 0-1 0.448-1 1s0.448 1 1 1c1.625 0 2.733-0.898 3.101-2.293 0.284-1.075 0.088-2.363-0.456-3.234z"></path>
</svg>
