<!-- Generated by IcoMoon.io -->
<svg version="1.1" xmlns="http://www.w3.org/2000/svg" width="16" height="16" viewBox="0 0 16 16">
<title>taobao</title>
<path d="M5.34 1l2.080 0.647c0 0-0.168 0.442-0.527 1.126 6.809-2.124 8.384 0.289 8.733 1.244l0.032 0.093c0.051 0.161 0.063 0.262 0.063 0.262v0l0.004 0.021c0.047 0.267 0.521 3.108 0.107 7.44-0.422 4.389-5.424 2.973-5.787 2.864l-0.021-0.006 0.289-1.304 1.245 0.296c2.299 0.156 2.077-2.055 2.077-2.055v-6.446c0.016-2.448-2.089-2.705-5.868-1.21v0l0.883 0.264c-0.076 0.282-0.359 0.73-0.724 1.22v0h5.049v1.126h-2.839v1.412h2.829v1.13h-2.829v2.361c0.422-0.156 0.819-0.365 1.156-0.65v0l-0.248-1.026 1.334-0.462 1.115 3.004-1.645 0.761-0.292-1.203c-0.737 0.622-2.267 1.526-4.935 1.446-2.855 0.080-2.118-3.546-2.118-3.546v0l0.073-0.045h2.004c-0.010 0.469-0.184 1.224 0.051 1.641 0.197 0.341 0.692 0.4 1.013 0.417v0l0.111 0.003v-2.701h-2.902v-1.126h2.902v-1.412h-0.743c-0.651 0.761-1.251 1.398-1.251 1.398v0l-0.876-0.848c0.622-0.723 1.242-1.87 1.629-2.635-0.324 0.145-0.646 0.295-0.965 0.452-0.318 0.452-0.692 0.918-1.108 1.377 0.016 0.028-1.438-0.897-1.438-0.897 1.249-1.173 2.042-3.469 2.271-4.202l0.044-0.144c0.017-0.056 0.025-0.086 0.025-0.086v0zM1.481 4.42c1.179 1.036 1.269 1.123 2.063 2.064 0.618 0.739 0.538 1.754 0.173 3.076-0.096 0.352-0.158 0.573-0.227 0.781l-0.042 0.124c-0.138 0.392-0.325 0.817-0.827 2.072l-0.169 0.425c-0.12 0.303-0.256 0.646-0.409 1.037v0l-2.042-1.504c0 0 2.281-2.452 2.744-3.572 0.501-1.184-0.544-1.815-0.544-1.815v0l-1.571-1.147zM2.598 1c0.742 0 1.343 0.634 1.343 1.423 0 0.783-0.601 1.417-1.343 1.417-0.748 0-1.343-0.638-1.346-1.417 0-0.786 0.598-1.423 1.346-1.423z"></path>
</svg>
