<!-- Generated by IcoMoon.io -->
<svg version="1.1" xmlns="http://www.w3.org/2000/svg" width="16" height="16" viewBox="0 0 16 16">
<title>wechat-submessage-outline</title>
<path d="M13.321 13.406l0.471-0.402c0.772-0.659 1.208-1.554 1.208-2.504 0-1.908-1.769-3.5-4-3.5s-4 1.592-4 3.5c0 1.908 1.769 3.5 4 3.5 0.439 0 0.867-0.062 1.273-0.181l0.378-0.111 0.852 0.426-0.182-0.727zM15 16l-2.444-1.222c-0.49 0.144-1.013 0.222-1.556 0.222-2.761 0-5-2.015-5-4.5s2.239-4.5 5-4.5c2.761 0 5 2.015 5 4.5 0 1.285-0.599 2.445-1.559 3.265l0.559 2.235zM9.5 10c-0.276 0-0.5-0.224-0.5-0.5s0.224-0.5 0.5-0.5c0.276 0 0.5 0.224 0.5 0.5s-0.224 0.5-0.5 0.5zM12.5 10c-0.276 0-0.5-0.224-0.5-0.5s0.224-0.5 0.5-0.5c0.276 0 0.5 0.224 0.5 0.5s-0.224 0.5-0.5 0.5z"></path>
<path d="M12 0c1.105 0 2 0.895 2 2v2.5c0 0.276-0.224 0.5-0.5 0.5s-0.5-0.224-0.5-0.5v-2.5c0-0.552-0.448-1-1-1h-10c-0.552 0-1 0.448-1 1v12c0 0.552 0.448 1 1 1h3.5c0.276 0 0.5 0.224 0.5 0.5s-0.224 0.5-0.5 0.5h-3.5c-1.105 0-2-0.895-2-2v-12c0-1.105 0.895-2 2-2h10zM4.5 12c0.276 0 0.5 0.224 0.5 0.5s-0.224 0.5-0.5 0.5h-1c-0.276 0-0.5-0.224-0.5-0.5s0.224-0.5 0.5-0.5h1zM4.5 9c0.276 0 0.5 0.224 0.5 0.5s-0.224 0.5-0.5 0.5h-1c-0.276 0-0.5-0.224-0.5-0.5s0.224-0.5 0.5-0.5h1zM5.5 6c0.276 0 0.5 0.224 0.5 0.5s-0.224 0.5-0.5 0.5h-2c-0.276 0-0.5-0.224-0.5-0.5s0.224-0.5 0.5-0.5h2zM9.5 3c0.276 0 0.5 0.224 0.5 0.5s-0.224 0.5-0.5 0.5h-6c-0.276 0-0.5-0.224-0.5-0.5s0.224-0.5 0.5-0.5h6z"></path>
</svg>
