<!-- Generated by IcoMoon.io -->
<svg version="1.1" xmlns="http://www.w3.org/2000/svg" width="16" height="16" viewBox="0 0 16 16">
<title>wechat-o</title>
<path d="M6 1c2.994 0 5.475 2.010 5.927 4.637l-0.986 0.169c-0.372-2.162-2.452-3.807-4.941-3.807-2.78 0-5 2.035-5 4.5 0 1.16 0.49 2.253 1.363 3.086l0.421 0.402-0.285 1.142 0.002 0 0.001 0.002 1.216-0.608 0.405 0.148c0.591 0.216 1.225 0.328 1.878 0.328 0.367 0 0.728-0.036 1.080-0.105l0.194 0.981c-0.411 0.081-0.837 0.124-1.274 0.124-0.785 0-1.534-0.138-2.221-0.389l-2.779 1.389 0.673-2.69c-1.036-0.988-1.673-2.331-1.673-3.81 0-3.038 2.686-5.5 6-5.5zM4.5 4c0.276 0 0.5 0.224 0.5 0.5s-0.224 0.5-0.5 0.5c-0.276 0-0.5-0.224-0.5-0.5s0.224-0.5 0.5-0.5zM8.5 4c0.276 0 0.5 0.224 0.5 0.5s-0.224 0.5-0.5 0.5c-0.276 0-0.5-0.224-0.5-0.5s0.224-0.5 0.5-0.5z"></path>
<path d="M13.321 12.406l0.471-0.402c0.772-0.659 1.208-1.554 1.208-2.504 0-1.908-1.769-3.5-4-3.5s-4 1.592-4 3.5c0 1.908 1.769 3.5 4 3.5 0.439 0 0.867-0.062 1.273-0.181l0.378-0.111 0.852 0.426-0.182-0.727zM11 5c2.761 0 5 2.015 5 4.5 0 1.285-0.599 2.445-1.559 3.265l0.559 2.235-2.444-1.222c-0.49 0.144-1.013 0.222-1.556 0.222-2.761 0-5-2.015-5-4.5s2.239-4.5 5-4.5zM9.5 8c-0.276 0-0.5 0.224-0.5 0.5s0.224 0.5 0.5 0.5c0.276 0 0.5-0.224 0.5-0.5s-0.224-0.5-0.5-0.5zM12.5 8c-0.276 0-0.5 0.224-0.5 0.5s0.224 0.5 0.5 0.5c0.276 0 0.5-0.224 0.5-0.5s-0.224-0.5-0.5-0.5z"></path>
</svg>
