<!-- Generated by IcoMoon.io -->
<svg version="1.1" xmlns="http://www.w3.org/2000/svg" width="16" height="16" viewBox="0 0 16 16">
<title>wechat-customer-outline</title>
<path d="M7.377 0c2.539 0 4.766 1.654 5.516 4.052 0.637 0.172 1.107 0.755 1.107 1.448v1.5l-1-0.5v-1c0-0.276-0.224-0.5-0.5-0.5h-0.5v1.5h-1v-2c0-0.276 0.224-0.5 0.5-0.5l0.314 0.001c-0.691-1.726-2.336-2.91-4.219-2.996l-0.218-0.005h-0.754c-1.974 0-3.719 1.208-4.437 3.001l0.314-0.001c0.276 0 0.5 0.224 0.5 0.5v3.5l1.085 0c0.206-0.583 0.762-1 1.415-1 0.828 0 1.5 0.672 1.5 1.5s-0.672 1.5-1.5 1.5c-0.653 0-1.208-0.417-1.414-0.999l-1.61 0.001c0.19 0.313 0.426 0.606 0.704 0.87l0.388 0.368-0.263 1.047 1.124-0.556 0.373 0.136c0.545 0.198 1.13 0.301 1.732 0.301 0.338 0 0.672-0.033 0.996-0.096l0.179 0.899c-0.379 0.075-0.772 0.114-1.175 0.114-0.724 0-1.415-0.127-2.049-0.357l-2.563 1.274 0.62-2.466c-0.466-0.442-0.845-0.962-1.111-1.536l0.068 0.002c-0.828 0-1.5-0.672-1.5-1.5v-2c0-0.693 0.469-1.276 1.107-1.448 0.726-2.322 2.837-3.946 5.275-4.047l0.24-0.005h0.754zM5.5 8c-0.276 0-0.5 0.224-0.5 0.5s0.224 0.5 0.5 0.5c0.276 0 0.5-0.224 0.5-0.5s-0.224-0.5-0.5-0.5zM2 5h-0.5c-0.245 0-0.45 0.177-0.492 0.41l-0.008 0.090v2c0 0.245 0.177 0.45 0.41 0.492l0.090 0.008h0.5v-3zM5.5 4c0.276 0 0.5 0.224 0.5 0.5s-0.224 0.5-0.5 0.5c-0.276 0-0.5-0.224-0.5-0.5s0.224-0.5 0.5-0.5zM8.5 4c0.276 0 0.5 0.224 0.5 0.5s-0.224 0.5-0.5 0.5c-0.276 0-0.5-0.224-0.5-0.5s0.224-0.5 0.5-0.5z"></path>
<path d="M11.5 7c2.485 0 4.5 1.813 4.5 4.050 0 1.157-0.539 2.2-1.403 2.938l0.503 2.012-2.2-1.1c-0.441 0.13-0.911 0.2-1.4 0.2-2.485 0-4.5-1.813-4.5-4.050s2.015-4.050 4.5-4.050zM11.5 8c-1.955 0-3.5 1.39-3.5 3.050s1.545 3.050 3.5 3.050c0.308 0 0.611-0.035 0.902-0.102l0.216-0.057 0.378-0.111 0.607 0.302-0.125-0.502 0.471-0.402c0.673-0.575 1.052-1.353 1.052-2.178 0-1.66-1.545-3.050-3.5-3.050zM10.5 10c0.276 0 0.5 0.224 0.5 0.5s-0.224 0.5-0.5 0.5c-0.276 0-0.5-0.224-0.5-0.5s0.224-0.5 0.5-0.5zM12.5 10c0.276 0 0.5 0.224 0.5 0.5s-0.224 0.5-0.5 0.5c-0.276 0-0.5-0.224-0.5-0.5s0.224-0.5 0.5-0.5z"></path>
</svg>
