<!-- Generated by IcoMoon.io -->
<svg version="1.1" xmlns="http://www.w3.org/2000/svg" width="16" height="16" viewBox="0 0 16 16">
<title>wechat</title>
<path d="M6 1c3.5 0 6 2 6 5-1.5 0-3.272 0.8-4 1.8-0.686 0.943-1.2 2.389-0.8 4-0.4 0.2-0.927 0.2-1.2 0.2-0.785 0-1.534-0.138-2.221-0.389l-2.779 1.389 0.673-2.69c-1.036-0.988-1.673-2.331-1.673-3.81 0-3.038 2.5-5.5 6-5.5zM3.75 4c-0.414 0-0.75 0.336-0.75 0.75s0.336 0.75 0.75 0.75c0.414 0 0.75-0.336 0.75-0.75s-0.336-0.75-0.75-0.75zM7.75 4c-0.414 0-0.75 0.336-0.75 0.75s0.336 0.75 0.75 0.75c0.414 0 0.75-0.336 0.75-0.75s-0.336-0.75-0.75-0.75z"></path>
<path d="M12 7c2.231 0 4 1.5 4 3.75 0 0.95-0.436 2.095-1.208 2.754v0l0.208 1.496-1.727-0.681c-0.406 0.12-0.834 0.181-1.273 0.181-2.231 0-4-1.5-4-3.75s1.769-3.75 4-3.75zM10.75 9c-0.414 0-0.75 0.336-0.75 0.75s0.336 0.75 0.75 0.75c0.414 0 0.75-0.336 0.75-0.75s-0.336-0.75-0.75-0.75zM13.75 9c-0.414 0-0.75 0.336-0.75 0.75s0.336 0.75 0.75 0.75c0.414 0 0.75-0.336 0.75-0.75s-0.336-0.75-0.75-0.75z"></path>
</svg>
