<!-- Generated by IcoMoon.io -->
<svg version="1.1" xmlns="http://www.w3.org/2000/svg" width="16" height="16" viewBox="0 0 16 16">
<title>arow-back</title>
<path d="M5.854 2.146c0.174 0.174 0.193 0.443 0.058 0.638l-0.058 0.069-4.147 4.146h13.793c0.276 0 0.5 0.224 0.5 0.5s-0.224 0.5-0.5 0.5h-13.793l4.147 4.146c0.195 0.195 0.195 0.512 0 0.707s-0.512 0.195-0.707 0l-5.037-5.042-0.042-0.062-0.029-0.059-0.021-0.062-0.011-0.054-0.004-0.031-0.002-0.053c0.001-0.021 0.002-0.042 0.005-0.063l-0.005 0.074 0.003-0.053 0.014-0.075 0.021-0.063 0.039-0.076 0.040-0.055 5.029-5.031c0.195-0.195 0.512-0.195 0.707 0z"></path>
</svg>
