<!-- Generated by IcoMoon.io -->
<svg version="1.1" xmlns="http://www.w3.org/2000/svg" width="16" height="16" viewBox="0 0 16 16">
<title>collasped-arrow</title>
<path d="M7.616 6.82c0.178 0.213 0.489 0.237 0.696 0.071l0.072-0.071 2.5-3c0.177-0.212 0.148-0.527-0.064-0.704-0.189-0.157-0.459-0.152-0.64 0l-0.064 0.064-2.116 2.539-2.116-2.539c-0.157-0.189-0.424-0.232-0.63-0.115l-0.074 0.051c-0.189 0.157-0.232 0.424-0.115 0.63l0.051 0.074 2.5 3zM7.616 9.18c0.178-0.213 0.489-0.237 0.696-0.071l0.072 0.071 2.5 3c0.177 0.212 0.148 0.527-0.064 0.704-0.189 0.157-0.459 0.152-0.64-0l-0.064-0.064-2.116-2.539-2.116 2.539c-0.157 0.189-0.424 0.232-0.63 0.115l-0.074-0.051c-0.189-0.157-0.232-0.424-0.115-0.63l0.051-0.074 2.5-3z"></path>
</svg>
