<!-- Generated by IcoMoon.io -->
<svg version="1.1" xmlns="http://www.w3.org/2000/svg" width="16" height="16" viewBox="0 0 16 16">
<title>page-top</title>
<path d="M8.872 3.166c-0.164-0.182-0.432-0.216-0.634-0.091l-0.072 0.054-5 4.5c-0.196 0.177-0.218 0.47-0.065 0.672l0.065 0.071 5 4.5c0.205 0.185 0.521 0.168 0.706-0.037 0.164-0.182 0.169-0.453 0.024-0.64l-0.061-0.066-4.586-4.129 4.586-4.127c0.182-0.164 0.216-0.432 0.091-0.634l-0.054-0.072z"></path>
<path d="M12.872 3.166c-0.164-0.182-0.432-0.216-0.634-0.091l-0.072 0.054-5 4.5c-0.196 0.177-0.218 0.47-0.065 0.672l0.065 0.071 5 4.5c0.205 0.185 0.521 0.168 0.706-0.037 0.164-0.182 0.169-0.453 0.024-0.64l-0.061-0.066-4.586-4.129 4.586-4.127c0.182-0.164 0.216-0.432 0.091-0.634l-0.054-0.072z"></path>
</svg>
