<!-- Generated by IcoMoon.io -->
<svg version="1.1" xmlns="http://www.w3.org/2000/svg" width="16" height="16" viewBox="0 0 16 16">
<title>sort-desc</title>
<path d="M2.5 1c0.276 0 0.5 0.224 0.5 0.5v11.793l1.146-1.147 0.069-0.058c0.195-0.135 0.464-0.116 0.638 0.058s0.193 0.443 0.058 0.638l-0.058 0.069-2.031 2.029-0.072 0.051-0.059 0.029-0.062 0.021-0.056 0.011-0.072 0.005-0.053-0.003-0.075-0.014-0.063-0.021-0.076-0.039-0.055-0.040-2.031-2.029-0.058-0.069c-0.118-0.171-0.118-0.398 0-0.569l0.058-0.069 0.069-0.058c0.171-0.118 0.398-0.118 0.569 0l0.069 0.058 1.146 1.147v-11.793c0-0.276 0.224-0.5 0.5-0.5z"></path>
<path d="M7.5 1h8c0.276 0 0.5 0.224 0.5 0.5s-0.224 0.5-0.5 0.5h-8c-0.276 0-0.5-0.224-0.5-0.5s0.224-0.5 0.5-0.5z"></path>
<path d="M7.5 5h6c0.276 0 0.5 0.224 0.5 0.5s-0.224 0.5-0.5 0.5h-6c-0.276 0-0.5-0.224-0.5-0.5s0.224-0.5 0.5-0.5z"></path>
<path d="M7.5 9h4c0.276 0 0.5 0.224 0.5 0.5s-0.224 0.5-0.5 0.5h-4c-0.276 0-0.5-0.224-0.5-0.5s0.224-0.5 0.5-0.5z"></path>
<path d="M7.5 13h2c0.276 0 0.5 0.224 0.5 0.5s-0.224 0.5-0.5 0.5h-2c-0.276 0-0.5-0.224-0.5-0.5s0.224-0.5 0.5-0.5z"></path>
</svg>
