<!-- Generated by IcoMoon.io -->
<svg version="1.1" xmlns="http://www.w3.org/2000/svg" width="16" height="16" viewBox="0 0 16 16">
<title>sort-up</title>
<path d="M8.5 2c0.16 0 0.302 0.075 0.394 0.192l3.996 4.996c0.173 0.216 0.138 0.53-0.078 0.703s-0.53 0.138-0.703-0.078l-3.11-3.887v9.575c0 0.276-0.224 0.5-0.5 0.5s-0.5-0.224-0.5-0.5v-9.575l-3.11 3.887c-0.173 0.216-0.487 0.251-0.703 0.078s-0.251-0.487-0.078-0.703l3.998-4.997c0.004-0.005 0.008-0.010 0.013-0.015 0.018-0.022 0.038-0.041 0.060-0.059 0.087-0.072 0.198-0.116 0.32-0.116z"></path>
</svg>
