<!-- Generated by IcoMoon.io -->
<svg version="1.1" xmlns="http://www.w3.org/2000/svg" width="16" height="16" viewBox="0 0 16 16">
<title>sort-asc</title>
<path d="M2.426 1.005l0.032-0.004 0.054-0.002c0.021 0.001 0.042 0.002 0.062 0.005l-0.074-0.005 0.053 0.003 0.075 0.014 0.063 0.021 0.093 0.051 0.057 0.046 2.012 2.012c0.195 0.195 0.195 0.512 0 0.707-0.174 0.174-0.443 0.193-0.638 0.058l-0.069-0.058-1.146-1.148v11.794c0 0.276-0.224 0.5-0.5 0.5s-0.5-0.224-0.5-0.5v-11.794l-1.146 1.148c-0.174 0.174-0.443 0.193-0.638 0.058l-0.069-0.058c-0.174-0.174-0.193-0.443-0.058-0.638l0.058-0.069 2-2 0.042-0.037 0.062-0.042 0.059-0.029 0.062-0.021 0.054-0.011z"></path>
<path d="M7.5 1h8c0.276 0 0.5 0.224 0.5 0.5s-0.224 0.5-0.5 0.5h-8c-0.276 0-0.5-0.224-0.5-0.5s0.224-0.5 0.5-0.5z"></path>
<path d="M7.5 5h6c0.276 0 0.5 0.224 0.5 0.5s-0.224 0.5-0.5 0.5h-6c-0.276 0-0.5-0.224-0.5-0.5s0.224-0.5 0.5-0.5z"></path>
<path d="M7.5 9h4c0.276 0 0.5 0.224 0.5 0.5s-0.224 0.5-0.5 0.5h-4c-0.276 0-0.5-0.224-0.5-0.5s0.224-0.5 0.5-0.5z"></path>
<path d="M7.5 13h2c0.276 0 0.5 0.224 0.5 0.5s-0.224 0.5-0.5 0.5h-2c-0.276 0-0.5-0.224-0.5-0.5s0.224-0.5 0.5-0.5z"></path>
</svg>
