<!-- Generated by IcoMoon.io -->
<svg version="1.1" xmlns="http://www.w3.org/2000/svg" width="16" height="16" viewBox="0 0 16 16">
<title>add-o</title>
<path d="M8 2.5c0.276 0 0.5 0.224 0.5 0.5v4.5h4.5c0.276 0 0.5 0.224 0.5 0.5s-0.224 0.5-0.5 0.5h-4.5v4.5c0 0.276-0.224 0.5-0.5 0.5s-0.5-0.224-0.5-0.5v-4.5h-4.5c-0.276 0-0.5-0.224-0.5-0.5s0.224-0.5 0.5-0.5h4.5v-4.5c0-0.276 0.224-0.5 0.5-0.5z"></path>
<path d="M12.323 1.268c0.232 0.149 0.299 0.459 0.15 0.691s-0.459 0.299-0.691 0.15c-1.119-0.72-2.421-1.109-3.782-1.109-3.866 0-7 3.134-7 7s3.134 7 7 7c3.866 0 7-3.134 7-7 0-1.090-0.249-2.143-0.721-3.098-0.122-0.248-0.021-0.547 0.227-0.67s0.547-0.021 0.67 0.227c0.54 1.092 0.825 2.297 0.825 3.541 0 4.418-3.582 8-8 8s-8-3.582-8-8c0-4.418 3.582-8 8-8 1.554 0 3.044 0.445 4.323 1.268z"></path>
</svg>
