<!-- Generated by IcoMoon.io -->
<svg version="1.1" xmlns="http://www.w3.org/2000/svg" width="16" height="16" viewBox="0 0 16 16">
<title>app-select</title>
<path d="M15.5 12c0.245 0 0.45 0.177 0.492 0.41l0.008 0.090v1.5c0 0.932-0.933 1.907-1.867 1.994l-0.133 0.006h-1.5c-0.276 0-0.5-0.224-0.5-0.5 0-0.245 0.177-0.45 0.41-0.492l0.090-0.008h1.5c0.394 0 0.918-0.497 0.991-0.907l0.009-0.093v-1.5c0-0.276 0.224-0.5 0.5-0.5zM9.5 15c0.276 0 0.5 0.224 0.5 0.5 0 0.245-0.177 0.45-0.41 0.492l-0.090 0.008h-3c-0.276 0-0.5-0.224-0.5-0.5 0-0.245 0.177-0.45 0.41-0.492l0.090-0.008h3zM0.5 12c0.245 0 0.45 0.177 0.492 0.41l0.008 0.090v1.5c0 0.394 0.497 0.918 0.907 0.991l0.093 0.009h1.5c0.276 0 0.5 0.224 0.5 0.5 0 0.245-0.177 0.45-0.41 0.492l-0.090 0.008h-1.5c-0.932 0-1.907-0.933-1.994-1.867l-0.006-0.133v-1.5c0-0.276 0.224-0.5 0.5-0.5zM14 7c0.932 0 1.907 0.933 1.994 1.867l0.006 0.133v1.5c0 0.276-0.224 0.5-0.5 0.5-0.245 0-0.45-0.177-0.492-0.41l-0.008-0.090v-1.5c0-0.394-0.497-0.918-0.907-0.991l-0.093-0.009h-1.5c-0.276 0-0.5-0.224-0.5-0.5 0-0.245 0.177-0.45 0.41-0.492l0.090-0.008h1.5zM0.5 6c0.245 0 0.45 0.177 0.492 0.41l0.008 0.090v3c0 0.276-0.224 0.5-0.5 0.5-0.245 0-0.45-0.177-0.492-0.41l-0.008-0.090v-3c0-0.276 0.224-0.5 0.5-0.5zM8.5 5c0.245 0 0.45 0.177 0.492 0.41l0.008 0.090v0.5c0 0.394 0.497 0.918 0.907 0.991l0.093 0.009h0.5c0.276 0 0.5 0.224 0.5 0.5 0 0.245-0.177 0.45-0.41 0.492l-0.090 0.008h-0.5c-0.932 0-1.907-0.933-1.994-1.867l-0.006-0.133v-0.5c0-0.276 0.224-0.5 0.5-0.5zM7 0c0.932 0 1.907 0.933 1.994 1.867l0.006 0.133v1.5c0 0.276-0.224 0.5-0.5 0.5-0.245 0-0.45-0.177-0.492-0.41l-0.008-0.090v-1.5c0-0.394-0.497-0.918-0.907-0.991l-0.093-0.009h-1.5c-0.276 0-0.5-0.224-0.5-0.5 0-0.245 0.177-0.45 0.41-0.492l0.090-0.008h1.5zM3.5 0c0.276 0 0.5 0.224 0.5 0.5 0 0.245-0.177 0.45-0.41 0.492l-0.090 0.008h-1.5c-0.394 0-0.918 0.497-0.991 0.907l-0.009 0.093v1.5c0 0.276-0.224 0.5-0.5 0.5-0.245 0-0.45-0.177-0.492-0.41l-0.008-0.090v-1.5c0-0.932 0.933-1.907 1.867-1.994l0.133-0.006h1.5z"></path>
<path d="M6 2c0.552 0 1 0.448 1 1v3c0 0.552-0.448 1-1 1h-3c-0.552 0-1-0.448-1-1v-3c0-0.552 0.448-1 1-1h3zM6 3h-3v3h3v-3zM6 9c0.552 0 1 0.448 1 1v3c0 0.552-0.448 1-1 1h-3c-0.552 0-1-0.448-1-1v-3c0-0.552 0.448-1 1-1h3zM6 10h-3v3h3v-3zM13 9c0.552 0 1 0.448 1 1v3c0 0.552-0.448 1-1 1h-3c-0.552 0-1-0.448-1-1v-3c0-0.552 0.448-1 1-1h3zM13 10h-3v3h3v-3zM15 0c0.552 0 1 0.448 1 1v3c0 0.552-0.448 1-1 1h-3c-0.552 0-1-0.448-1-1v-3c0-0.552 0.448-1 1-1h3zM15 1h-3v3h3v-3z"></path>
</svg>
