<!-- Generated by IcoMoon.io -->
<svg version="1.1" xmlns="http://www.w3.org/2000/svg" width="16" height="16" viewBox="0 0 16 16">
<title>batch-plus</title>
<path d="M8.5 4c0.828 0 1.5 0.672 1.5 1.5 0 0.276-0.224 0.5-0.5 0.5-0.245 0-0.45-0.177-0.492-0.41l-0.008-0.090c0-0.245-0.177-0.45-0.41-0.492l-0.090-0.008h-7c-0.245 0-0.45 0.177-0.492 0.41l-0.008 0.090v9c0 0.245 0.177 0.45 0.41 0.492l0.090 0.008h5c0.276 0 0.5 0.224 0.5 0.5 0 0.245-0.177 0.45-0.41 0.492l-0.090 0.008h-5c-0.78 0-1.42-0.595-1.493-1.356l-0.007-0.144v-9c0-0.78 0.595-1.42 1.356-1.493l0.144-0.007h7z"></path>
<path d="M10.5 2c0.78 0 1.42 0.595 1.493 1.356l0.007 0.144v1c0 0.276-0.224 0.5-0.5 0.5-0.245 0-0.45-0.177-0.492-0.41l-0.008-0.090v-1c0-0.245-0.177-0.45-0.41-0.492l-0.090-0.008h-8c-0.276 0-0.5-0.224-0.5-0.5 0-0.245 0.177-0.45 0.41-0.492l0.090-0.008h8z"></path>
<path d="M12.5 0c0.78 0 1.42 0.595 1.493 1.356l0.007 0.144v3c0 0.276-0.224 0.5-0.5 0.5-0.245 0-0.45-0.177-0.492-0.41l-0.008-0.090v-3c0-0.245-0.177-0.45-0.41-0.492l-0.090-0.008h-8c-0.276 0-0.5-0.224-0.5-0.5 0-0.245 0.177-0.45 0.41-0.492l0.090-0.008h8z"></path>
<path d="M11.5 15c1.933 0 3.5-1.567 3.5-3.5s-1.567-3.5-3.5-3.5c-1.933 0-3.5 1.567-3.5 3.5s1.567 3.5 3.5 3.5zM11.5 16c-2.485 0-4.5-2.015-4.5-4.5s2.015-4.5 4.5-4.5c2.485 0 4.5 2.015 4.5 4.5s-2.015 4.5-4.5 4.5z"></path>
<path d="M11.5 9c0.276 0 0.5 0.224 0.5 0.5v1.5h1.5c0.276 0 0.5 0.224 0.5 0.5s-0.224 0.5-0.5 0.5h-1.5v1.5c0 0.276-0.224 0.5-0.5 0.5s-0.5-0.224-0.5-0.5v-1.5h-1.5c-0.276 0-0.5-0.224-0.5-0.5s0.224-0.5 0.5-0.5h1.5v-1.5c0-0.276 0.224-0.5 0.5-0.5z"></path>
</svg>
