<!-- Generated by IcoMoon.io -->
<svg version="1.1" xmlns="http://www.w3.org/2000/svg" width="16" height="16" viewBox="0 0 16 16">
<title>combination</title>
<path d="M10.5 5c3.038 0 5.5 2.462 5.5 5.5 0 2.963-2.344 5.38-5.279 5.496l-0.221 0.004c-3.038 0-5.5-2.462-5.5-5.5 0-0.168 0.008-0.335 0.022-0.5l4.178-0c0.408 0 0.744-0.305 0.794-0.7l0.006-0.1 0-4.178 0.248-0.017 0.251-0.006zM11 6.028l-0.002 3.234-0.012 0.163c-0.106 0.847-0.793 1.499-1.636 1.569l-0.15 0.006h-3.172l0.015 0.128c0.296 2.12 2.068 3.767 4.245 3.867l0.212 0.005c2.485 0 4.5-2.015 4.5-4.5 0-2.272-1.684-4.151-3.872-4.457l-0.128-0.015zM9.2 0c0.442 0 0.8 0.358 0.8 0.8l0 4.222c-2.639 0.238-4.74 2.339-4.978 4.978l-4.222-0c-0.442 0-0.8-0.358-0.8-0.8v-8.4c0-0.442 0.358-0.8 0.8-0.8h8.4zM9 1h-8v8h3.174l0.013-0.052c0.574-2.344 2.418-4.188 4.762-4.762l0.052-0.013v-3.174z"></path>
</svg>
