<!-- Generated by IcoMoon.io -->
<svg version="1.1" xmlns="http://www.w3.org/2000/svg" width="16" height="16" viewBox="0 0 16 16">
<title>conversion</title>
<path d="M1.707 13h11.793c0.828 0 1.5-0.672 1.5-1.5v-4.5c0-0.276 0.224-0.5 0.5-0.5s0.5 0.224 0.5 0.5v4.5c0 1.381-1.119 2.5-2.5 2.5h-11.793l1.146 1.146c0.195 0.195 0.195 0.512 0 0.707s-0.512 0.195-0.707 0l-2-2c-0.195-0.195-0.195-0.512 0-0.707l2-2c0.195-0.195 0.512-0.195 0.707 0s0.195 0.512 0 0.707l-1.146 1.146zM14.293 2l-1.146-1.146c-0.195-0.195-0.195-0.512 0-0.707s0.512-0.195 0.707 0l2 2c0.195 0.195 0.195 0.512 0 0.707l-2 2c-0.195 0.195-0.512 0.195-0.707 0s-0.195-0.512 0-0.707l1.146-1.146h-11.793c-0.828 0-1.5 0.672-1.5 1.5v4.5c0 0.276-0.224 0.5-0.5 0.5s-0.5-0.224-0.5-0.5v-4.5c0-1.381 1.119-2.5 2.5-2.5h11.793z"></path>
</svg>
