<!-- Generated by IcoMoon.io -->
<svg version="1.1" xmlns="http://www.w3.org/2000/svg" width="16" height="16" viewBox="0 0 16 16">
<title>copy</title>
<path d="M13 11.5c0-0.276 0.224-0.5 0.5-0.5h0.5c0.552 0 1-0.448 1-1v-8c0-0.552-0.448-1-1-1h-8c-0.552 0-1 0.448-1 1v0.5c0 0.276-0.224 0.5-0.5 0.5s-0.5-0.224-0.5-0.5v-0.5c0-1.105 0.895-2 2-2h8c1.105 0 2 0.895 2 2v8c0 1.105-0.895 2-2 2h-0.5c-0.276 0-0.5-0.224-0.5-0.5z"></path>
<path d="M2 5c-0.552 0-1 0.448-1 1v8c0 0.552 0.448 1 1 1h8c0.552 0 1-0.448 1-1v-8c0-0.552-0.448-1-1-1h-8zM2 4h8c1.105 0 2 0.895 2 2v8c0 1.105-0.895 2-2 2h-8c-1.105 0-2-0.895-2-2v-8c0-1.105 0.895-2 2-2z"></path>
</svg>
