<!-- Generated by IcoMoon.io -->
<svg version="1.1" xmlns="http://www.w3.org/2000/svg" width="16" height="16" viewBox="0 0 16 16">
<title>dragable</title>
<path d="M11.5 7c0.276 0 0.5 0.224 0.5 0.5v6.632l2.004-1.965c0.203-0.198 0.517-0.221 0.744-0.066l0.081 0.066c0.203 0.198 0.225 0.507 0.068 0.729l-0.068 0.079-2.917 2.859c-0.076 0.074-0.168 0.124-0.264 0.149l-0.098 0.017h-0.099c-0.132-0.011-0.262-0.066-0.363-0.165l-2.917-2.859c-0.228-0.223-0.228-0.585 0-0.809s0.597-0.223 0.825 0l2.004 1.965v-6.632c0-0.276 0.224-0.5 0.5-0.5z"></path>
<path d="M4.55 0c0.132 0.011 0.262 0.066 0.363 0.165l2.917 2.859c0.228 0.223 0.228 0.585 0 0.809s-0.597 0.223-0.825 0l-2.004-1.965v6.632c0 0.276-0.224 0.5-0.5 0.5s-0.5-0.224-0.5-0.5v-6.634l-2.004 1.967c-0.203 0.198-0.517 0.221-0.744 0.066l-0.081-0.066c-0.203-0.198-0.225-0.507-0.068-0.729l0.067-0.079 2.917-2.859c0.101-0.099 0.23-0.154 0.363-0.165h0.099z"></path>
</svg>
