<!-- Generated by IcoMoon.io -->
<svg version="1.1" xmlns="http://www.w3.org/2000/svg" width="16" height="16" viewBox="0 0 16 16">
<title>edit</title>
<path d="M14.5 15c0.276 0 0.5 0.224 0.5 0.5s-0.224 0.5-0.5 0.5h-13c-0.276 0-0.5-0.224-0.5-0.5s0.224-0.5 0.5-0.5h13zM13.253 1.061l0.707 0.707c0.586 0.586 0.554 1.567-0.071 2.192l-1.872 1.872-0.707-0.707 1.872-1.873c0.244-0.244 0.255-0.593 0.071-0.778l-0.707-0.707c-0.185-0.185-0.534-0.173-0.778 0.071l-7.717 7.717-0.424 1.838 1.838-0.424 4.323-4.324 0.707 0.707-4.526 4.527-3.677 0.849 0.849-3.677 7.92-7.92c0.625-0.625 1.606-0.656 2.192-0.071z"></path>
</svg>
