<!-- Generated by IcoMoon.io -->
<svg version="1.1" xmlns="http://www.w3.org/2000/svg" width="16" height="16" viewBox="0 0 16 16">
<title>exit</title>
<path d="M12.146 5.146c0.195-0.195 0.512-0.195 0.707 0v0l3 3 0.063 0.077c0.127 0.192 0.108 0.452-0.057 0.624v0l-2.9 3-0.068 0.059c-0.193 0.138-0.462 0.124-0.639-0.047v0l-0.059-0.068c-0.138-0.193-0.124-0.462 0.047-0.639v0l2.079-2.152h-9.82c-0.276 0-0.5-0.224-0.5-0.5s0.224-0.5 0.5-0.5h9.793l-2.147-2.146-0.058-0.069c-0.135-0.195-0.116-0.464 0.058-0.638z"></path>
<path d="M9 1c0.513 0 0.935 0.386 0.993 0.883l0.007 0.117v3.5c0 0.276-0.224 0.5-0.5 0.5s-0.5-0.224-0.5-0.5v-3.5h-8v13h8v-3.5c0-0.245 0.177-0.45 0.41-0.492l0.090-0.008c0.276 0 0.5 0.224 0.5 0.5v0 3.5c0 0.513-0.386 0.935-0.883 0.993l-0.117 0.007h-8c-0.552 0-1-0.448-1-1v-13c0-0.513 0.386-0.935 0.883-0.993l0.117-0.007h8z"></path>
</svg>
