<!-- Generated by IcoMoon.io -->
<svg version="1.1" xmlns="http://www.w3.org/2000/svg" width="16" height="16" viewBox="0 0 16 16">
<title>file-upload</title>
<path d="M9.586 0c0.221 0 0.434 0.073 0.608 0.206l0.099 0.087 3.707 3.707c0 0.552-0.448 1-1 1h-3.5c-0.276 0-0.5-0.224-0.5-0.5v-3.5h-6c-0.513 0-0.936 0.386-0.993 0.883l-0.007 0.117v12c0 0.513 0.386 0.935 0.883 0.993l0.117 0.007h9c0.513 0 0.935-0.386 0.993-0.883l0.007-0.117v-6.5c0-0.276 0.224-0.5 0.5-0.5 0.245 0 0.45 0.177 0.492 0.41l0.008 0.090v6.5c0 1.054-0.816 1.918-1.851 1.995l-0.149 0.005h-9c-1.054 0-1.918-0.816-1.995-1.851l-0.005-0.149v-12c0-1.054 0.816-1.918 1.851-1.995l0.149-0.005h6.586zM10 1.415v2.585h2.585l-2.585-2.585z"></path>
<path d="M7.5 6l0.012 0 0.031 0.002c0.012 0.001 0.024 0.002 0.035 0.004l0.012 0.002 0.016 0.003c0.017 0.004 0.034 0.008 0.050 0.014 0.006 0.002 0.012 0.004 0.018 0.006l0.013 0.005 0.020 0.009c0.008 0.004 0.016 0.008 0.024 0.012 0.012 0.006 0.024 0.013 0.035 0.020s0.024 0.016 0.035 0.024c0.014 0.010 0.027 0.021 0.039 0.033l-0-0 0.012 0.012 2.5 2.5c0.195 0.195 0.195 0.512 0 0.707s-0.512 0.195-0.707 0l-1.646-1.647v3.793c0 0.276-0.224 0.5-0.5 0.5s-0.5-0.224-0.5-0.5v-3.794l-1.646 1.648c-0.195 0.195-0.512 0.195-0.707 0s-0.195-0.512 0-0.707l2.512-2.512c0.012-0.012 0.026-0.023 0.039-0.033l-0.051 0.045c0.027-0.027 0.056-0.050 0.087-0.069 0.011-0.007 0.023-0.014 0.035-0.020 0.008-0.004 0.016-0.008 0.024-0.012l0.020-0.009c0.004-0.002 0.009-0.004 0.013-0.005l0.018-0.006c0.016-0.005 0.033-0.010 0.050-0.014 0.005-0.001 0.011-0.002 0.016-0.003l0.012-0.002c0.012-0.002 0.024-0.003 0.035-0.004l0.031-0.002c0.004-0 0.007-0 0.011-0z"></path>
</svg>
