<!-- Generated by IcoMoon.io -->
<svg version="1.1" xmlns="http://www.w3.org/2000/svg" width="16" height="16" viewBox="0 0 16 16">
<title>funnel</title>
<path d="M0.5-0c-0.391 0-0.62 0.422-0.436 0.745l0.046 0.067 5.89 7.363v5.325c0 0.134 0.053 0.26 0.146 0.353l0.077 0.063 3 2c0.309 0.206 0.714 0.015 0.771-0.333l0.007-0.083v-7.324l5.89-7.364c0.153-0.192 0.143-0.462-0.013-0.64l-0.065-0.062c-0.192-0.153-0.462-0.143-0.64 0.013l-0.062 0.065-6 7.5c-0.053 0.066-0.088 0.145-0.102 0.228l-0.007 0.084v6.564l-2-1.333v-5.231c0-0.085-0.022-0.168-0.063-0.242l-0.047-0.070-5.349-6.688h10.459c0.245 0 0.45-0.177 0.492-0.41l0.008-0.090c0-0.245-0.177-0.45-0.41-0.492l-0.090-0.008h-11.5z"></path>
</svg>
