<!-- Generated by IcoMoon.io -->
<svg version="1.1" xmlns="http://www.w3.org/2000/svg" width="16" height="16" viewBox="0 0 16 16">
<title>gear-16</title>
<path d="M11.967 4.96l-0.354-0.461 0.845-2.002-1.935-1.117-1.315 1.738-0.574-0.073c-0.425-0.054-0.855-0.053-1.28 0.003l-0.576 0.076-1.319-1.743-1.935 1.117 0.85 2.015-0.35 0.461c-0.128 0.169-0.247 0.347-0.354 0.533s-0.202 0.377-0.284 0.573l-0.224 0.534-2.17 0.271v2.234l2.169 0.271 0.223 0.537c0.164 0.396 0.378 0.769 0.638 1.11l0.35 0.461-0.847 2.008 1.935 1.117 1.312-1.733 0.576 0.076c0.428 0.056 0.862 0.056 1.291 0.001l0.576-0.075 1.31 1.731 1.935-1.117-0.842-1.996 0.352-0.461c0.131-0.171 0.251-0.352 0.361-0.542s0.206-0.384 0.289-0.583l0.223-0.536 2.15-0.269v-2.234l-2.154-0.269-0.223-0.536c-0.166-0.399-0.383-0.775-0.646-1.118zM13.536 5.693l1.579 0.197c0.5 0.063 0.876 0.488 0.876 0.992v2.234c0 0.504-0.376 0.93-0.876 0.992l-1.574 0.197c-0.099 0.237-0.214 0.47-0.346 0.699s-0.276 0.445-0.432 0.649l0.617 1.461c0.196 0.465 0.015 1.003-0.421 1.255l-1.935 1.117c-0.437 0.252-0.993 0.14-1.297-0.262l-0.96-1.268c-0.511 0.066-1.032 0.067-1.549-0.001l-0.961 1.269c-0.304 0.402-0.861 0.515-1.297 0.262l-1.935-1.117c-0.437-0.252-0.617-0.79-0.421-1.255l0.622-1.475c-0.313-0.412-0.57-0.86-0.765-1.332l-1.592-0.199c-0.5-0.063-0.876-0.488-0.876-0.992v-2.234c0-0.504 0.376-0.93 0.876-0.992l1.596-0.199c0.098-0.233 0.211-0.462 0.34-0.686s0.271-0.437 0.424-0.638l-0.625-1.482c-0.196-0.465-0.015-1.003 0.421-1.255l1.935-1.117c0.437-0.252 0.993-0.14 1.297 0.262l0.968 1.279c0.506-0.066 1.023-0.069 1.536-0.003l0.966-1.276c0.304-0.402 0.861-0.515 1.297-0.262l1.935 1.117c0.437 0.252 0.617 0.79 0.421 1.255l-0.619 1.467c0.318 0.414 0.577 0.866 0.775 1.341z"></path>
<path d="M8 10c1.105 0 2-0.895 2-2s-0.895-2-2-2c-1.105 0-2 0.895-2 2s0.895 2 2 2zM8 11c-1.657 0-3-1.343-3-3s1.343-3 3-3c1.657 0 3 1.343 3 3s-1.343 3-3 3z"></path>
</svg>
