<!-- Generated by IcoMoon.io -->
<svg version="1.1" xmlns="http://www.w3.org/2000/svg" width="16" height="16" viewBox="0 0 16 16">
<title>import-storage</title>
<path d="M2 12h6c1.105 0 2 0.895 2 2 0 1.054-0.816 1.918-1.851 1.995l-0.149 0.005h-6c-1.105 0-2-0.895-2-2 0-1.054 0.816-1.918 1.851-1.995l0.149-0.005zM2 13c-0.552 0-1 0.448-1 1 0 0.513 0.386 0.935 0.883 0.993l0.117 0.007h6c0.552 0 1-0.448 1-1 0-0.513-0.386-0.935-0.883-0.993l-0.117-0.007h-6z"></path>
<path d="M3.5 9c0.276 0 0.5 0.224 0.5 0.5 0 0.245-0.177 0.45-0.41 0.492l-0.090 0.008h-1.5c-0.552 0-1 0.448-1 1 0 0.513 0.386 0.935 0.883 0.993l0.117 0.007h1.5c0.276 0 0.5 0.224 0.5 0.5 0 0.245-0.177 0.45-0.41 0.492l-0.090 0.008h-1.5c-1.105 0-2-0.895-2-2 0-1.054 0.816-1.918 1.851-1.995l0.149-0.005h1.5z"></path>
<path d="M4.5 6c0.276 0 0.5 0.224 0.5 0.5 0 0.245-0.177 0.45-0.41 0.492l-0.090 0.008h-2.5c-0.552 0-1 0.448-1 1 0 0.513 0.386 0.935 0.883 0.993l0.117 0.007h2.5c0.276 0 0.5 0.224 0.5 0.5 0 0.245-0.177 0.45-0.41 0.492l-0.090 0.008h-2.5c-1.105 0-2-0.895-2-2 0-1.054 0.816-1.918 1.851-1.995l0.149-0.005h2.5z"></path>
<path d="M2 14h1v1h-1v-1z"></path>
<path d="M2 11h1v1h-1v-1z"></path>
<path d="M2 8h1v1h-1v-1z"></path>
<path d="M8.426 6.005l0.032-0.004 0.054-0.002c0.021 0 0.042 0.002 0.062 0.005l-0.074-0.005 0.053 0.003 0.075 0.014 0.063 0.021 0.093 0.051 0.057 0.046 2.012 2.012c0.195 0.195 0.195 0.512 0 0.707-0.174 0.174-0.443 0.193-0.638 0.058l-0.069-0.058-1.146-1.148v2.794c0 0.276-0.224 0.5-0.5 0.5s-0.5-0.224-0.5-0.5v-2.794l-1.146 1.148c-0.174 0.174-0.443 0.193-0.638 0.058l-0.069-0.058c-0.174-0.174-0.193-0.443-0.058-0.638l0.058-0.069 2-2 0.042-0.037 0.062-0.042 0.059-0.029 0.062-0.021 0.054-0.011z"></path>
<path d="M8.5 0c1.869 0 3.395 1.464 3.495 3.308l0.005 0.192-0.001 0.028 0.129 0.015c2.12 0.296 3.767 2.068 3.867 4.245l0.005 0.212c0 2.485-2.015 4.5-4.5 4.5-0.276 0-0.5-0.224-0.5-0.5s0.224-0.5 0.5-0.5c1.933 0 3.5-1.567 3.5-3.5 0-1.869-1.464-3.395-3.29-3.495l-0.19-0.005-0.042 0.002c-0.317 0.013-0.566-0.269-0.513-0.583 0.023-0.137 0.035-0.277 0.035-0.419 0-1.381-1.119-2.5-2.5-2.5-1.238 0-2.285 0.906-2.47 2.116-0.042 0.273-0.297 0.461-0.57 0.419-0.151-0.023-0.305-0.035-0.46-0.035-0.864 0-1.668 0.367-2.234 0.998-0.184 0.206-0.5 0.223-0.706 0.038s-0.223-0.5-0.038-0.706c0.703-0.784 1.686-1.263 2.749-1.324l0.229-0.006 0.145 0.004 0.026-0.087c0.439-1.355 1.678-2.332 3.137-2.411l0.191-0.005z"></path>
</svg>
