<!-- Generated by IcoMoon.io -->
<svg version="1.1" xmlns="http://www.w3.org/2000/svg" width="16" height="16" viewBox="0 0 16 16">
<title>import-site</title>
<path d="M1 11v3.5c0 0.245 0.177 0.45 0.41 0.492l0.090 0.008h0.5v-4h-1zM1 10h4v1h-2v4h5.5c0.245 0 0.45-0.177 0.492-0.41l0.008-0.090v-3.5c0-0.276 0.224-0.5 0.5-0.5 0.245 0 0.45 0.177 0.492 0.41l0.008 0.090v3.5c0 0.78-0.595 1.42-1.356 1.493l-0.144 0.007h-7c-0.78 0-1.42-0.595-1.493-1.356l-0.007-0.144v-5c0-0.78 0.595-1.42 1.356-1.493l0.144-0.007h1.857c0.276 0 0.5 0.224 0.5 0.5 0 0.245-0.177 0.45-0.41 0.492l-0.090 0.008h-1.857c-0.245 0-0.45 0.177-0.492 0.41l-0.008 0.090v0.5z"></path>
<path d="M7.426 6.005l0.032-0.004 0.054-0.002c0.021 0 0.042 0.002 0.062 0.005l-0.074-0.005 0.053 0.003 0.075 0.014 0.063 0.021 0.093 0.051 0.057 0.046 2.012 2.012c0.195 0.195 0.195 0.512 0 0.707-0.174 0.174-0.443 0.193-0.638 0.058l-0.069-0.058-1.146-1.148v2.794c0 0.276-0.224 0.5-0.5 0.5s-0.5-0.224-0.5-0.5v-2.794l-1.146 1.148c-0.174 0.174-0.443 0.193-0.638 0.058l-0.069-0.058c-0.174-0.174-0.193-0.443-0.058-0.638l0.058-0.069 2-2 0.042-0.037 0.062-0.042 0.059-0.029 0.062-0.021 0.054-0.011z"></path>
<path d="M8.5 0c1.869 0 3.395 1.464 3.495 3.308l0.005 0.192-0.001 0.028 0.129 0.015c2.12 0.296 3.767 2.068 3.867 4.245l0.005 0.212c0 2.485-2.015 4.5-4.5 4.5-0.276 0-0.5-0.224-0.5-0.5s0.224-0.5 0.5-0.5c1.933 0 3.5-1.567 3.5-3.5 0-1.869-1.464-3.395-3.29-3.495l-0.19-0.005-0.042 0.002c-0.317 0.013-0.566-0.269-0.513-0.583 0.023-0.137 0.035-0.277 0.035-0.419 0-1.381-1.119-2.5-2.5-2.5-1.238 0-2.285 0.906-2.47 2.116-0.042 0.273-0.297 0.461-0.57 0.419-0.151-0.023-0.305-0.035-0.46-0.035-1.657 0-3 1.343-3 3 0 0.276-0.224 0.5-0.5 0.5s-0.5-0.224-0.5-0.5c0-2.142 1.684-3.891 3.8-3.995l0.2-0.005 0.145 0.004 0.026-0.087c0.439-1.355 1.678-2.332 3.137-2.411l0.191-0.005z"></path>
</svg>
