<!-- Generated by IcoMoon.io -->
<svg version="1.1" xmlns="http://www.w3.org/2000/svg" width="16" height="16" viewBox="0 0 16 16">
<title>key</title>
<path d="M14.854 1.146c0.174 0.174 0.193 0.443 0.058 0.638l-0.058 0.069-0.647 0.646 1.647 1.646c0.195 0.195 0.195 0.512 0 0.707-0.174 0.174-0.443 0.193-0.638 0.058l-0.069-0.058-1.646-1.647-0.793 0.793 1.647 1.646c0.195 0.195 0.195 0.512 0 0.707-0.174 0.174-0.443 0.193-0.638 0.058l-0.069-0.058-1.646-1.647-5.525 5.525 0.353 0.354c1.172 1.172 1.172 3.071 0 4.243-1.078 1.078-2.773 1.164-3.949 0.258-0.227 0.537-0.759 0.914-1.379 0.914-0.828 0-1.5-0.672-1.5-1.5 0-0.62 0.376-1.153 0.913-1.381-0.906-1.175-0.82-2.869 0.258-3.947 1.172-1.172 3.071-1.172 4.243 0l0.354 0.353 8.378-8.379c0.195-0.195 0.512-0.195 0.707 0zM1.5 14c-0.276 0-0.5 0.224-0.5 0.5s0.224 0.5 0.5 0.5c0.276 0 0.5-0.224 0.5-0.5s-0.224-0.5-0.5-0.5zM1.879 9.879c-0.746 0.746-0.779 1.933-0.102 2.719l0.102 0.109 1.414 1.414c0.781 0.781 2.047 0.781 2.828 0 0.746-0.746 0.779-1.933 0.102-2.719l-0.102-0.109-1.414-1.414c-0.781-0.781-2.047-0.781-2.828 0z"></path>
</svg>
