<!-- Generated by IcoMoon.io -->
<svg version="1.1" xmlns="http://www.w3.org/2000/svg" width="16" height="16" viewBox="0 0 16 16">
<title>lock</title>
<path d="M8 0c2.209 0 4 1.791 4 4v2h1c1.105 0 2 0.895 2 2v6c0 1.105-0.895 2-2 2h-10c-1.105 0-2-0.895-2-2v-6c0-1.105 0.895-2 2-2h1v-2c0-2.209 1.791-4 4-4zM13 7h-10c-0.513 0-0.936 0.386-0.993 0.883l-0.007 0.117v6c0 0.513 0.386 0.935 0.883 0.993l0.117 0.007h10c0.513 0 0.935-0.386 0.993-0.883l0.007-0.117v-6c0-0.513-0.386-0.936-0.883-0.993l-0.117-0.007zM8 9c1.105 0 2 0.895 2 2s-0.895 2-2 2c-1.105 0-2-0.895-2-2s0.895-2 2-2zM8 10c-0.552 0-1 0.448-1 1s0.448 1 1 1c0.552 0 1-0.448 1-1s-0.448-1-1-1zM8 1c-1.598 0-2.904 1.249-2.995 2.824l-0.005 0.176v2h6v-2c0-1.598-1.249-2.904-2.824-2.995l-0.176-0.005z"></path>
</svg>
