<!-- Generated by IcoMoon.io -->
<svg version="1.1" xmlns="http://www.w3.org/2000/svg" width="16" height="16" viewBox="0 0 16 16">
<title>move-up</title>
<path d="M5.707 4l2.146 2.146c0.195 0.195 0.195 0.512 0 0.707s-0.512 0.195-0.707 0l-3-3c-0.195-0.195-0.195-0.512 0-0.707l3-3c0.195-0.195 0.512-0.195 0.707 0s0.195 0.512 0 0.707l-2.146 2.146h4.293c3.314 0 6 2.91 6 6.5s-2.686 6.5-6 6.5c-0.276 0-0.5-0.224-0.5-0.5s0.224-0.5 0.5-0.5c2.743 0 5-2.445 5-5.5s-2.257-5.5-5-5.5h-4.293z"></path>
<path d="M0.5 15h7c0.276 0 0.5 0.224 0.5 0.5s-0.224 0.5-0.5 0.5h-7c-0.276 0-0.5-0.224-0.5-0.5s0.224-0.5 0.5-0.5z"></path>
<path d="M0.5 9h8c0.276 0 0.5 0.224 0.5 0.5s-0.224 0.5-0.5 0.5h-8c-0.276 0-0.5-0.224-0.5-0.5s0.224-0.5 0.5-0.5z"></path>
<path d="M0.5 3h2c0.276 0 0.5 0.224 0.5 0.5s-0.224 0.5-0.5 0.5h-2c-0.276 0-0.5-0.224-0.5-0.5s0.224-0.5 0.5-0.5z"></path>
</svg>
