<!-- Generated by IcoMoon.io -->
<svg version="1.1" xmlns="http://www.w3.org/2000/svg" width="16" height="16" viewBox="0 0 16 16">
<title>off-export</title>
<path d="M10.307 7l0.164 0.005c0.973 0.063 1.807 0.676 2.183 1.548l0.065 0.166 0.007 0.020 0.192 0.007c0.758 0.054 1.455 0.405 1.956 0.971 0.183 0.207 0.164 0.523-0.043 0.706s-0.523 0.164-0.706-0.043c-0.359-0.406-0.868-0.641-1.415-0.641-0.098 0-0.195 0.008-0.291 0.022-0.274 0.043-0.53-0.146-0.571-0.419-0.116-0.768-0.77-1.342-1.541-1.342-0.86 0-1.56 0.709-1.56 1.587 0 0.090 0.007 0.18 0.022 0.267 0.047 0.284-0.154 0.543-0.429 0.578l-0.085 0.004-0.029-0.001-0.151 0.005c-1.15 0.081-2.075 1.068-2.075 2.278 0 1.262 1.007 2.283 2.247 2.283 0.276 0 0.5 0.224 0.5 0.5s-0.224 0.5-0.5 0.5c-1.733 0-3.146-1.371-3.242-3.096l-0.005-0.186 0.005-0.186c0.082-1.476 1.128-2.693 2.514-3.014l0.183-0.037 0.048-0.008 0.002-0.050c0.083-1.351 1.194-2.424 2.555-2.424zM13.854 11.146l2 2c0.195 0.195 0.195 0.512 0 0.707l-2 2c-0.195 0.195-0.512 0.195-0.707 0s-0.195-0.512 0-0.707l1.147-1.147-4.793 0.001c-0.276 0-0.5-0.224-0.5-0.5s0.224-0.5 0.5-0.5l4.792-0.001-1.146-1.145c-0.195-0.195-0.195-0.512 0-0.707s0.512-0.195 0.707 0zM4.462 1.833c0.115 0.251 0.004 0.548-0.247 0.663-1.943 0.888-3.215 2.831-3.215 5.005 0 1.799 0.869 3.451 2.306 4.478 0.225 0.161 0.277 0.473 0.116 0.698s-0.473 0.277-0.698 0.116c-1.697-1.212-2.725-3.166-2.725-5.292 0-2.569 1.504-4.864 3.8-5.914 0.251-0.115 0.548-0.004 0.663 0.247zM9.216 1.593c1.775 0.818 3.101 2.401 3.584 4.302 0.068 0.268-0.094 0.54-0.361 0.608s-0.54-0.094-0.608-0.361c-0.408-1.607-1.531-2.948-3.033-3.64-0.251-0.116-0.361-0.413-0.245-0.663s0.412-0.361 0.663-0.245zM6.5 0c0.276 0 0.5 0.224 0.5 0.5v4c0 0.276-0.224 0.5-0.5 0.5s-0.5-0.224-0.5-0.5v-4c0-0.276 0.224-0.5 0.5-0.5z"></path>
</svg>
