<!-- Generated by IcoMoon.io -->
<svg version="1.1" xmlns="http://www.w3.org/2000/svg" width="16" height="16" viewBox="0 0 16 16">
<title>off-branch</title>
<path d="M14.5 7c0.828 0 1.5 0.672 1.5 1.5s-0.672 1.5-1.5 1.5c-0.653 0-1.208-0.417-1.414-0.999l-2.722-0.001c-0.859 0-1.66 0.416-2.154 1.109l-0.101 0.153-0.262 0.426c-0.068 0.11-0.143 0.215-0.224 0.313l3.463-0c0.206-0.583 0.762-1 1.415-1 0.828 0 1.5 0.672 1.5 1.5s-0.672 1.5-1.5 1.5c-0.653 0-1.208-0.417-1.414-0.999l-3.111-0.001c0.091 0.124 0.171 0.257 0.238 0.399l0.070 0.163 0.321 0.825c0.095 0.244 0.283 0.433 0.513 0.534 0.227-0.542 0.761-0.92 1.383-0.92 0.828 0 1.5 0.672 1.5 1.5s-0.672 1.5-1.5 1.5c-0.671 0-1.239-0.441-1.431-1.048-0.577-0.129-1.071-0.515-1.333-1.055l-0.064-0.147-0.321-0.825c-0.217-0.557-0.753-0.924-1.351-0.924h-1.5c-0.276 0-0.5-0.224-0.5-0.5 0-0.245 0.177-0.45 0.41-0.492l0.090-0.008h1c0.559 0 1.080-0.266 1.409-0.71l0.085-0.126 0.262-0.426c0.624-1.017 1.703-1.659 2.885-1.732l0.223-0.007 2.722 0c0.206-0.583 0.762-1 1.415-1zM10.5 14c-0.276 0-0.5 0.224-0.5 0.5s0.224 0.5 0.5 0.5c0.276 0 0.5-0.224 0.5-0.5s-0.224-0.5-0.5-0.5zM4.462 1.833c0.115 0.251 0.004 0.548-0.247 0.663-1.943 0.888-3.215 2.831-3.215 5.005 0 1.799 0.869 3.451 2.306 4.478 0.225 0.161 0.277 0.473 0.116 0.698s-0.473 0.277-0.698 0.116c-1.697-1.212-2.725-3.166-2.725-5.292 0-2.569 1.504-4.864 3.8-5.914 0.251-0.115 0.548-0.004 0.663 0.247zM12.5 11c-0.276 0-0.5 0.224-0.5 0.5s0.224 0.5 0.5 0.5c0.276 0 0.5-0.224 0.5-0.5s-0.224-0.5-0.5-0.5zM14.5 8c-0.276 0-0.5 0.224-0.5 0.5s0.224 0.5 0.5 0.5c0.276 0 0.5-0.224 0.5-0.5s-0.224-0.5-0.5-0.5zM9.216 1.593c1.775 0.818 3.101 2.401 3.584 4.302 0.068 0.268-0.094 0.54-0.361 0.608s-0.54-0.094-0.608-0.361c-0.408-1.607-1.531-2.948-3.033-3.64-0.251-0.116-0.361-0.413-0.245-0.663s0.412-0.361 0.663-0.245zM6.5 0c0.276 0 0.5 0.224 0.5 0.5v4c0 0.276-0.224 0.5-0.5 0.5s-0.5-0.224-0.5-0.5v-4c0-0.276 0.224-0.5 0.5-0.5z"></path>
</svg>
