<!-- Generated by IcoMoon.io -->
<svg version="1.1" xmlns="http://www.w3.org/2000/svg" width="16" height="16" viewBox="0 0 16 16">
<title>off-round</title>
<path d="M8 0c4.418 0 8 3.582 8 8s-3.582 8-8 8c-4.418 0-8-3.582-8-8s3.582-8 8-8zM5.879 4.464c-0.391-0.391-1.024-0.391-1.414 0-1.953 1.953-1.953 5.118 0 7.071s5.118 1.953 7.071 0c1.953-1.953 1.953-5.118 0-7.071-0.391-0.391-1.024-0.391-1.414 0s-0.391 1.024 0 1.414c1.172 1.172 1.172 3.071 0 4.243s-3.071 1.172-4.243 0c-1.172-1.172-1.172-3.071 0-4.243 0.391-0.391 0.391-1.024 0-1.414zM8 2c-0.552 0-1 0.448-1 1v0 4c0 0.552 0.448 1 1 1s1-0.448 1-1v0-4c0-0.552-0.448-1-1-1z"></path>
</svg>
