<!-- Generated by IcoMoon.io -->
<svg version="1.1" xmlns="http://www.w3.org/2000/svg" width="16" height="16" viewBox="0 0 16 16">
<title>off</title>
<path d="M4.825 1.491c0.258-0.099 0.547 0.031 0.645 0.289s-0.031 0.547-0.289 0.645c-2.497 0.954-4.182 3.356-4.182 6.075 0 3.59 2.91 6.5 6.5 6.5s6.5-2.91 6.5-6.5c0-2.715-1.68-5.115-4.173-6.071-0.258-0.099-0.387-0.388-0.288-0.646s0.388-0.387 0.646-0.288c2.877 1.103 4.815 3.872 4.815 7.005 0 4.142-3.358 7.5-7.5 7.5s-7.5-3.358-7.5-7.5c0-3.136 1.943-5.908 4.825-7.009z"></path>
<path d="M7.5 0c0.276 0 0.5 0.224 0.5 0.5v6c0 0.276-0.224 0.5-0.5 0.5s-0.5-0.224-0.5-0.5v-6c0-0.276 0.224-0.5 0.5-0.5z"></path>
</svg>
