<!-- Generated by IcoMoon.io -->
<svg version="1.1" xmlns="http://www.w3.org/2000/svg" width="16" height="16" viewBox="0 0 16 16">
<title>reload</title>
<path d="M10.5 5c-0.276 0-0.5-0.224-0.5-0.5s0.224-0.5 0.5-0.5l2.691 0c-1.21-1.262-2.889-2-4.691-2-3.59 0-6.5 2.91-6.5 6.5s2.91 6.5 6.5 6.5c2.154 0 4.13-1.055 5.338-2.79 0.158-0.227 0.469-0.282 0.696-0.125s0.282 0.469 0.125 0.696c-1.393 2.001-3.674 3.219-6.159 3.219-4.142 0-7.5-3.358-7.5-7.5s3.358-7.5 7.5-7.5c2.123 0 4.099 0.889 5.501 2.402l-0.001-2.902c0-0.276 0.224-0.5 0.5-0.5s0.5 0.224 0.5 0.5v4c0 0.245-0.177 0.45-0.41 0.492l-0.090 0.008h-4z"></path>
</svg>
