<!-- Generated by IcoMoon.io -->
<svg version="1.1" xmlns="http://www.w3.org/2000/svg" width="16" height="16" viewBox="0 0 16 16">
<title>save</title>
<path d="M12.172 0c0.53 0 1.039 0.211 1.414 0.586l1.828 1.828c0.375 0.375 0.586 0.884 0.586 1.414v10.172c0 1.105-0.895 2-2 2h-12c-1.105 0-2-0.895-2-2v-12c0-1.105 0.895-2 2-2h10.172zM11 11h-6c-0.513 0-0.936 0.386-0.993 0.883l-0.007 0.117v3h8v-3c0-0.513-0.386-0.935-0.883-0.993l-0.117-0.007zM3 1h-1c-0.513 0-0.935 0.386-0.993 0.883l-0.007 0.117v12c0 0.513 0.386 0.935 0.883 0.993l0.117 0.007h1v-3c0-1.105 0.895-2 2-2h6c1.105 0 2 0.895 2 2v3h1c0.513 0 0.935-0.386 0.993-0.883l0.007-0.117v-10.172c0-0.221-0.073-0.434-0.206-0.608l-0.087-0.099-1.707-1.707v5.586h-10v-6zM10 1h-1v3h1v-3zM12 6v-5h-1v4h-3v-4h-4v5h8z"></path>
</svg>
