<!-- Generated by IcoMoon.io -->
<svg version="1.1" xmlns="http://www.w3.org/2000/svg" width="16" height="16" viewBox="0 0 16 16">
<title>search</title>
<path d="M6.5 1c3.038 0 5.5 2.462 5.5 5.5s-2.462 5.5-5.5 5.5c-3.038 0-5.5-2.462-5.5-5.5s2.462-5.5 5.5-5.5zM6.5 2c-2.485 0-4.5 2.015-4.5 4.5s2.015 4.5 4.5 4.5c2.485 0 4.5-2.015 4.5-4.5s-2.015-4.5-4.5-4.5z"></path>
<path d="M9.646 9.646c0.174-0.174 0.443-0.193 0.638-0.058l0.069 0.058 4.5 4.5c0.195 0.195 0.195 0.512 0 0.707-0.174 0.174-0.443 0.193-0.638 0.058l-0.069-0.058-4.5-4.5c-0.195-0.195-0.195-0.512 0-0.707z"></path>
</svg>
