<!-- Generated by IcoMoon.io -->
<svg version="1.1" xmlns="http://www.w3.org/2000/svg" width="16" height="16" viewBox="0 0 16 16">
<title>send-to-dashboard</title>
<path d="M2 1c-0.552 0-1 0.448-1 1v3c0 0.552 0.448 1 1 1h4c0.552 0 1-0.448 1-1v-3c0-0.552-0.448-1-1-1h-4zM2 0h4c1.105 0 2 0.895 2 2v3c0 1.105-0.895 2-2 2h-4c-1.105 0-2-0.895-2-2v-3c0-1.105 0.895-2 2-2zM11 1c-0.552 0-1 0.448-1 1v3c0 0.552 0.448 1 1 1h3c0.552 0 1-0.448 1-1v-3c0-0.552-0.448-1-1-1h-3zM11 0h3c1.105 0 2 0.895 2 2v3c0 1.105-0.895 2-2 2h-3c-1.105 0-2-0.895-2-2v-3c0-1.105 0.895-2 2-2z"></path>
<path d="M10.902 7.51c0.375-0.075 0.681 0.278 0.579 0.627l-0.028 0.075-3.5 7.5c-0.128 0.274-0.463 0.367-0.711 0.217l-0.072-0.052-2.138-1.871-1.157 1.324c-0.284 0.324-0.801 0.159-0.869-0.24l-0.007-0.089-0-2.76-2.312-1.85c-0.306-0.245-0.219-0.717 0.123-0.854l0.091-0.027 10-2zM10.128 8.683l-7.979 1.596 1.461 1.168 3.252-0.928c0.423-0.121 0.755 0.31 0.602 0.671l-0.037 0.071-0.051 0.068-1.685 1.924 1.637 1.432 2.8-6.002zM5.507 11.946l-0.987 0.282 0.42 0.366 0.567-0.648z"></path>
<path d="M14 9c1.054 0 1.918 0.816 1.995 1.851l0.005 0.149v3c0 1.054-0.816 1.918-1.851 1.995l-0.149 0.005h-3c-0.276 0-0.5-0.224-0.5-0.5 0-0.245 0.177-0.45 0.41-0.492l0.090-0.008h3c0.513 0 0.935-0.386 0.993-0.883l0.007-0.117v-3c0-0.513-0.386-0.935-0.883-0.993l-0.117-0.007h-1c-0.276 0-0.5-0.224-0.5-0.5 0-0.245 0.177-0.45 0.41-0.492l0.090-0.008h1z"></path>
</svg>
