<!-- Generated by IcoMoon.io -->
<svg version="1.1" xmlns="http://www.w3.org/2000/svg" width="16" height="16" viewBox="0 0 16 16">
<title>send</title>
<path d="M14.832 1.529c0.362-0.129 0.716 0.178 0.664 0.54l-0.018 0.078-4 13c-0.096 0.313-0.457 0.444-0.727 0.287l-0.071-0.050-3.462-2.895-1.864 1.865c-0.293 0.293-0.781 0.12-0.846-0.266l-0.007-0.086-0.013-3.779-3.786-2.822c-0.267-0.199-0.259-0.578-0.032-0.777l0.075-0.054 0.088-0.041 14-5zM14.229 2.805l-12.183 4.351 2.946 2.197 6.716-4.76c0.496-0.352 1.020 0.292 0.7 0.701l-0.054 0.060-0.066 0.054-6.462 4.614 4.916 4.112 3.486-11.329zM5.49 11.197l0.006 1.598 0.796-0.796-0.802-0.802z"></path>
</svg>
