<!-- Generated by IcoMoon.io -->
<svg version="1.1" xmlns="http://www.w3.org/2000/svg" width="16" height="16" viewBox="0 0 16 16">
<title>setting-h</title>
<path d="M10.5 4c0.828 0 1.5 0.672 1.5 1.5s-0.672 1.5-1.5 1.5c-0.828 0-1.5-0.672-1.5-1.5s0.672-1.5 1.5-1.5zM10.5 5c-0.276 0-0.5 0.224-0.5 0.5s0.224 0.5 0.5 0.5c0.276 0 0.5-0.224 0.5-0.5s-0.224-0.5-0.5-0.5zM5.5 9c0.828 0 1.5 0.672 1.5 1.5s-0.672 1.5-1.5 1.5c-0.828 0-1.5-0.672-1.5-1.5s0.672-1.5 1.5-1.5zM5.5 10c-0.276 0-0.5 0.224-0.5 0.5s0.224 0.5 0.5 0.5c0.276 0 0.5-0.224 0.5-0.5s-0.224-0.5-0.5-0.5z"></path>
<path d="M5.5 5h4c0.276 0 0.5 0.224 0.5 0.5s-0.224 0.5-0.5 0.5h-4c-0.276 0-0.5-0.224-0.5-0.5s0.224-0.5 0.5-0.5z"></path>
<path d="M6.5 10h4c0.276 0 0.5 0.224 0.5 0.5s-0.224 0.5-0.5 0.5h-4c-0.276 0-0.5-0.224-0.5-0.5s0.224-0.5 0.5-0.5z"></path>
<path d="M14 15c0.552 0 1-0.448 1-1v-12c0-0.552-0.448-1-1-1h-12c-0.552 0-1 0.448-1 1v12c0 0.552 0.448 1 1 1h12zM14 16h-12c-1.105 0-2-0.895-2-2v-12c0-1.105 0.895-2 2-2h12c1.105 0 2 0.895 2 2v12c0 1.105-0.895 2-2 2z"></path>
</svg>
