<!-- Generated by IcoMoon.io -->
<svg version="1.1" xmlns="http://www.w3.org/2000/svg" width="16" height="16" viewBox="0 0 16 16">
<title>share-round</title>
<path d="M8 0c4.418 0 8 3.582 8 8s-3.582 8-8 8c-4.418 0-8-3.582-8-8s3.582-8 8-8zM10 2c-1.105 0-2 0.895-2 2 0 0.043 0.001 0.086 0.004 0.128v0l-3.117 2.079c-0.267-0.132-0.568-0.207-0.887-0.207-1.105 0-2 0.895-2 2s0.895 2 2 2c0.319 0 0.62-0.074 0.887-0.207v0l3.117 2.078-0.004 0.129c0 1.105 0.895 2 2 2s2-0.895 2-2c0-1.105-0.895-2-2-2-0.319 0-0.62 0.074-0.887 0.207v0l-3.118-2.078 0.005-0.129c0-0.043-0.001-0.086-0.004-0.129v0l3.117-2.078c0.267 0.132 0.568 0.207 0.887 0.207 1.105 0 2-0.895 2-2s-0.895-2-2-2z"></path>
</svg>
