<!-- Generated by IcoMoon.io -->
<svg version="1.1" xmlns="http://www.w3.org/2000/svg" width="16" height="16" viewBox="0 0 16 16">
<title>share-line</title>
<path d="M11 2c1.105 0 2 0.895 2 2s-0.895 2-2 2c-0.658 0-1.243-0.318-1.607-0.809l-2.625 1.874c0.148 0.279 0.232 0.597 0.232 0.935s-0.084 0.656-0.232 0.935l2.625 1.874c0.364-0.491 0.949-0.809 1.607-0.809 1.105 0 2 0.895 2 2s-0.895 2-2 2c-1.105 0-2-0.895-2-2 0-0.079 0.005-0.156 0.013-0.233l-2.924-2.089c-0.313 0.204-0.687 0.322-1.089 0.322-1.105 0-2-0.895-2-2s0.895-2 2-2c0.402 0 0.776 0.118 1.089 0.322l2.924-2.089c-0.009-0.076-0.013-0.154-0.013-0.233 0-1.105 0.895-2 2-2zM11 11c-0.552 0-1 0.448-1 1s0.448 1 1 1c0.552 0 1-0.448 1-1s-0.448-1-1-1zM5 7c-0.552 0-1 0.448-1 1s0.448 1 1 1c0.552 0 1-0.448 1-1s-0.448-1-1-1zM11 3c-0.552 0-1 0.448-1 1s0.448 1 1 1c0.552 0 1-0.448 1-1s-0.448-1-1-1z"></path>
</svg>
