<!-- Generated by IcoMoon.io -->
<svg version="1.1" xmlns="http://www.w3.org/2000/svg" width="16" height="16" viewBox="0 0 16 16">
<title>signature</title>
<path d="M10.167 5.876l0.212-0.919 3.858-3.858c0.122-0.122 0.297-0.128 0.389-0.035l0.354 0.354c0.092 0.092 0.087 0.267-0.035 0.389l-0.943 0.943 0.707 0.707 0.943-0.943c0.503-0.503 0.529-1.31 0.035-1.803l-0.354-0.354c-0.493-0.493-1.3-0.467-1.803 0.035l-3.96 3.96c-0.066 0.066-0.113 0.15-0.134 0.241l-0.424 1.838c-0.083 0.36 0.24 0.683 0.6 0.6l1.838-0.424c0.091-0.021 0.175-0.067 0.241-0.134l2.263-2.263-0.707-0.707-2.161 2.161-0.919 0.212z"></path>
<path d="M5.571 1.005c2.038 0.291 2.256 2.828 1.217 6.025-0.075 0.231-0.154 0.458-0.237 0.681l-0.142 0.366 0.025 0.006c1.158 0.309 1.559 1.095 1.479 2.269l-0.015 0.17-0.047 0.371-0.075 0.538-0.019 0.192-0.005 0.142 0.008 0.108c0.002 0.016 0.005 0.031 0.009 0.046 0.012 0.052 0.021 0.071 0.1 0.077l0.132 0.003c0.094 0 0.181-0.067 0.314-0.282l0.109-0.19 0.131-0.252c0.464-0.928 0.754-1.276 1.447-1.276 0.557 0 1.131 0.638 1.583 1.538l0.092 0.189 0.061-0.056c0.404-0.364 0.805-0.611 1.141-0.661l0.123-0.009c0.784 0 1.703 0.368 2.777 1.084 0.23 0.153 0.292 0.464 0.139 0.693s-0.464 0.292-0.693 0.139c-0.925-0.617-1.673-0.916-2.223-0.916-0.127 0-0.438 0.24-0.786 0.601l-0.145 0.155 0.031 0.101 0.041 0.143 2.358 0c0.276 0 0.5 0.224 0.5 0.5s-0.224 0.5-0.5 0.5l-2.162 0.001c0.113 1.125-0.232 1.924-1.198 1.994l-0.14 0.005c-0.753 0-1.2-0.456-1.171-1.146 0.011-0.257 0.087-0.545 0.217-0.853l-8.545-0.001c-0.276 0-0.5-0.224-0.5-0.5s0.224-0.5 0.5-0.5l9.105-0 0.039-0.059c0.066-0.097 0.135-0.192 0.205-0.285l0.082-0.108-0.048-0.118c-0.048-0.114-0.098-0.225-0.149-0.33l-0.153-0.302c-0.229-0.427-0.448-0.731-0.551-0.788l-0.030-0.009c-0.094 0-0.181 0.067-0.314 0.282l-0.109 0.19-0.131 0.252c-0.464 0.928-0.754 1.276-1.447 1.276-0.647 0-1.076-0.304-1.205-0.851-0.049-0.208-0.059-0.377-0.032-0.659l0.032-0.273 0.101-0.722 0.008-0.075c0.090-0.864-0.077-1.236-0.844-1.399l-0.057-0.012-0.095 0.196c-0.875 1.752-1.953 2.931-2.91 2.804l-0.119-0.023c-1.35-0.337-1.524-1.617-0.638-2.68 0.664-0.797 1.741-1.314 2.931-1.357l0.203-0.003 0.026-0.056c0.126-0.298 0.246-0.609 0.356-0.928l0.081-0.241c0.863-2.657 0.699-4.567-0.408-4.725-2.001-0.286-3.493 1.505-4.442 5.617-0.062 0.269-0.331 0.437-0.6 0.375s-0.437-0.331-0.375-0.6c1.051-4.554 2.892-6.763 5.558-6.383zM11.334 14.001l-0.174-0.001-0.045 0.083c-0.178 0.334-0.279 0.622-0.287 0.813l-0.001 0.074c0.004 0.023 0.020 0.029 0.066 0.030l0.107-0c0.282 0 0.417-0.351 0.334-0.999zM4.886 8.974l-0.178 0.028c-0.701 0.13-1.307 0.473-1.699 0.943-0.466 0.559-0.415 0.938 0.112 1.070 0.346 0.087 1.028-0.688 1.681-1.883l0.084-0.158z"></path>
<path d="M11.5 8.5c0 0.552-0.448 1-1 1s-1-0.448-1-1c0-0.552 0.448-1 1-1s1 0.448 1 1z"></path>
<path d="M12.5 9h2c0.276 0 0.5 0.224 0.5 0.5s-0.224 0.5-0.5 0.5h-2c-0.276 0-0.5-0.224-0.5-0.5s0.224-0.5 0.5-0.5z"></path>
</svg>
