<!-- Generated by IcoMoon.io -->
<svg version="1.1" xmlns="http://www.w3.org/2000/svg" width="16" height="16" viewBox="0 0 16 16">
<title>tools</title>
<path d="M12.538 1.048c-0.176-0.032-0.355-0.048-0.538-0.048-1.657 0-3 1.343-3 3 0 0.439 0.094 0.864 0.273 1.253l0.291 0.633-8.15 8.15 0.707 0.707 8.182-8.182 0.608 0.237c0.343 0.134 0.71 0.203 1.088 0.203 1.657 0 3-1.343 3-3 0-0.213-0.022-0.423-0.065-0.626l-1.427 1.427c-0.586 0.586-1.536 0.586-2.121 0l-0.24-0.24c-0.586-0.586-0.586-1.536 0-2.121l1.391-1.391zM8.365 5.671c-0.234-0.508-0.365-1.074-0.365-1.671 0-2.209 1.791-4 4-4 0.849 0 1.637 0.265 2.284 0.716l-2.431 2.431c-0.195 0.195-0.195 0.512 0 0.707l0.24 0.24c0.195 0.195 0.512 0.195 0.707 0l2.44-2.44c0.478 0.659 0.76 1.47 0.76 2.346 0 2.209-1.791 4-4 4-0.512 0-1.001-0.096-1.451-0.271l-7.721 7.721c-0.391 0.391-1.024 0.391-1.414 0l-0.707-0.707c-0.391-0.391-0.391-1.024 0-1.414l7.658-7.658z"></path>
<path d="M10.5 9.914l-0.586 0.586 4.086 4.086 0.586-0.586-4.086-4.086zM11.207 9.207l4.086 4.086c0.391 0.391 0.391 1.024 0 1.414l-0.586 0.586c-0.391 0.391-1.024 0.391-1.414 0l-4.086-4.086c-0.391-0.391-0.391-1.024 0-1.414l0.586-0.586c0.391-0.391 1.024-0.391 1.414 0z"></path>
<path d="M1.27 1.144l-0.126 0.126 0.543 1.629 1.212-1.212-1.629-0.543zM2 4h-1l-1-3 1-1 3 1v1l-0.646 0.646 4.5 4.5-0.707 0.707-4.5-4.5-0.646 0.646z"></path>
</svg>
