<!-- Generated by IcoMoon.io -->
<svg version="1.1" xmlns="http://www.w3.org/2000/svg" width="16" height="16" viewBox="0 0 16 16">
<title>touch</title>
<path d="M7.5 0c1.325 0 2.41 1.032 2.495 2.336l0.005 0.164v3.975l2.069-0.423c0.808-0.165 1.624 0.246 1.963 0.99l1.851 4.058c0.279 0.612 0.044 1.333-0.544 1.669l-5.475 3.126-0.021 0.002c-0.361 0.154-0.777 0.136-1.126-0.054l-4.55-2.488c-0.64-0.35-0.967-1.078-0.8-1.782 0.158-0.668 0.815-1.098 1.499-0.98l2.117 0.367-0.561-0.959h-3.922c-1.325 0-2.41-1.032-2.495-2.336l-0.005-0.164v-5c0-1.325 1.032-2.41 2.336-2.495l0.164-0.005h5zM4.348 3.094c-0.303 0.173-0.423 0.531-0.3 0.838l0.044 0.090 3.754 6.432c0.41 0.702-0.144 1.557-0.926 1.502l-0.108-0.013-2.116-0.367c-0.164-0.028-0.319 0.073-0.355 0.224-0.055 0.232 0.033 0.471 0.221 0.618l0.086 0.057 4.55 2.488c0.031 0.017 0.065 0.028 0.095 0.035l0.084 0.013 0.085-0.041 5.382-3.072c0.12-0.068 0.177-0.2 0.15-0.324l-0.020-0.061-1.851-4.058c-0.131-0.287-0.431-0.46-0.747-0.439l-0.106 0.014-3.588 0.734c-0.378 0.077-0.762-0.070-0.993-0.37l-0.071-0.106-2.302-3.943c-0.193-0.331-0.628-0.446-0.967-0.252zM7.644 1.007l-0.144-0.007h-5c-0.78 0-1.42 0.595-1.493 1.356l-0.007 0.144v5c0 0.78 0.595 1.42 1.356 1.493l0.144 0.007h3.339l-2.611-4.473c-0.47-0.806-0.191-1.836 0.623-2.301s1.856-0.189 2.327 0.617l2.302 3.943 0.519-0.106v-4.18c0-0.78-0.595-1.42-1.356-1.493z"></path>
</svg>
