<!-- Generated by IcoMoon.io -->
<svg version="1.1" xmlns="http://www.w3.org/2000/svg" width="16" height="16" viewBox="0 0 16 16">
<title>trash</title>
<path d="M5.5 7c0.276 0 0.5 0.224 0.5 0.5v4c0 0.276-0.224 0.5-0.5 0.5s-0.5-0.224-0.5-0.5v-4c0-0.276 0.224-0.5 0.5-0.5z"></path>
<path d="M7.5 7c0.276 0 0.5 0.224 0.5 0.5v4c0 0.276-0.224 0.5-0.5 0.5s-0.5-0.224-0.5-0.5v-4c0-0.276 0.224-0.5 0.5-0.5z"></path>
<path d="M9.5 7c0.276 0 0.5 0.224 0.5 0.5v4c0 0.276-0.224 0.5-0.5 0.5s-0.5-0.224-0.5-0.5v-4c0-0.276 0.224-0.5 0.5-0.5z"></path>
<path d="M1.5 3h12c0.276 0 0.5 0.224 0.5 0.5s-0.224 0.5-0.5 0.5h-12c-0.276 0-0.5-0.224-0.5-0.5s0.224-0.5 0.5-0.5z"></path>
<path d="M3 4v10c0 0.552 0.448 1 1 1h7c0.552 0 1-0.448 1-1v-10h-9zM2 3h11v11c0 1.105-0.895 2-2 2h-7c-1.105 0-2-0.895-2-2v-11z"></path>
<path d="M5.281 3l0.311-1.243c0.111-0.445 0.511-0.757 0.97-0.757h1.877c0.459 0 0.859 0.312 0.97 0.757l0.311 1.243h-4.438zM4 4h7l-0.621-2.485c-0.223-0.89-1.023-1.515-1.94-1.515h-1.877c-0.918 0-1.718 0.625-1.94 1.515l-0.621 2.485z"></path>
</svg>
