<!-- Generated by IcoMoon.io -->
<svg version="1.1" xmlns="http://www.w3.org/2000/svg" width="16" height="16" viewBox="0 0 16 16">
<title>undo</title>
<path d="M4.854 0.146c0.174 0.174 0.193 0.443 0.058 0.638l-0.058 0.069-3.172 3.17 2.831 0.101c6.198 0.221 11.192 5.156 11.487 11.351 0.013 0.276-0.2 0.51-0.476 0.523s-0.51-0.2-0.523-0.476c-0.266-5.579-4.692-10.043-10.236-10.385l-0.288-0.014-2.744-0.098 3.121 3.12c0.195 0.195 0.195 0.512 0 0.707-0.174 0.174-0.443 0.193-0.638 0.058l-0.069-0.058-4-4c-0.195-0.195-0.195-0.512 0-0.707l4-4c0.195-0.195 0.512-0.195 0.707 0z"></path>
</svg>
