<!-- Generated by IcoMoon.io -->
<svg version="1.1" xmlns="http://www.w3.org/2000/svg" width="16" height="16" viewBox="0 0 16 16">
<title>verify</title>
<path d="M1.766 4.077l0.072 0.055 6 5.5c0.192 0.176 0.214 0.465 0.064 0.666l-0.064 0.071-6 5.5c-0.204 0.187-0.52 0.173-0.706-0.031-0.166-0.181-0.173-0.451-0.030-0.64l0.061-0.067 5.598-5.132-5.598-5.13c-0.181-0.166-0.212-0.434-0.085-0.635l0.055-0.072c0.166-0.181 0.434-0.212 0.635-0.085zM14.234 0.077c0.201-0.126 0.469-0.095 0.635 0.086v0l0.055 0.072c0.126 0.201 0.095 0.469-0.085 0.635v0l-5.598 5.13 5.598 5.132 0.061 0.067c0.143 0.189 0.136 0.459-0.030 0.64-0.187 0.204-0.503 0.217-0.706 0.031v0l-6-5.5-0.064-0.071c-0.149-0.201-0.128-0.49 0.064-0.666v0l6-5.5z"></path>
</svg>
