<!-- Generated by IcoMoon.io -->
<svg version="1.1" xmlns="http://www.w3.org/2000/svg" width="16" height="16" viewBox="0 0 16 16">
<title>zoomout</title>
<path d="M9.5 1c0.276 0 0.5 0.224 0.5 0.5v4.5h4.5c0.276 0 0.5 0.224 0.5 0.5s-0.224 0.5-0.5 0.5h-5c-0.276 0-0.5-0.224-0.5-0.5v-5c0-0.276 0.224-0.5 0.5-0.5zM5.5 0c0.276 0 0.5 0.224 0.5 0.5v5l-0.003 0.053-0.014 0.075-0.021 0.063-0.039 0.076-0.040 0.055-0.029 0.031-0.042 0.037-0.062 0.042-0.059 0.029-0.062 0.021-0.082 0.014-0.046 0.002h-5c-0.276 0-0.5-0.224-0.5-0.5s0.224-0.5 0.5-0.5h3.793l-4.147-4.146c-0.195-0.195-0.195-0.512 0-0.707 0.174-0.174 0.443-0.193 0.638-0.058l0.069 0.058 4.146 4.147v-3.793c0-0.276 0.224-0.5 0.5-0.5zM15.5 10c0.276 0 0.5 0.224 0.5 0.5s-0.224 0.5-0.5 0.5h-3.793l4.147 4.146c0.195 0.195 0.195 0.512 0 0.707-0.174 0.174-0.443 0.193-0.638 0.058l-0.069-0.058-4.146-4.147v3.793c0 0.276-0.224 0.5-0.5 0.5s-0.5-0.224-0.5-0.5l0-5.011c0-0.021 0.002-0.042 0.005-0.063l-0.005 0.074 0.003-0.053 0.014-0.075 0.021-0.063 0.039-0.076 0.040-0.055 0.029-0.031 0.042-0.037 0.062-0.042 0.059-0.029 0.062-0.021 0.054-0.011 0.032-0.004 5.042-0.002zM6.5 9c0.276 0 0.5 0.224 0.5 0.5v5c0 0.276-0.224 0.5-0.5 0.5s-0.5-0.224-0.5-0.5v-4.5h-4.5c-0.276 0-0.5-0.224-0.5-0.5s0.224-0.5 0.5-0.5h5z"></path>
</svg>
