<!-- Generated by IcoMoon.io -->
<svg version="1.1" xmlns="http://www.w3.org/2000/svg" width="16" height="16" viewBox="0 0 16 16">
<title>admin</title>
<path d="M8 7c1.657 0 3-1.343 3-3s-1.343-3-3-3c-1.657 0-3 1.343-3 3s1.343 3 3 3zM8 8c-2.209 0-4-1.791-4-4s1.791-4 4-4c2.209 0 4 1.791 4 4s-1.791 4-4 4z"></path>
<path d="M6.5 8c-1.933 0-3.5 1.567-3.5 3.5v3.5h10v-3.5c0-1.933-1.567-3.5-3.5-3.5h-3zM6.5 7h3c2.485 0 4.5 2.015 4.5 4.5v3.5c0 0.552-0.448 1-1 1h-10c-0.552 0-1-0.448-1-1v-3.5c0-2.485 2.015-4.5 4.5-4.5z"></path>
<path d="M10.016 7.674c0.069-0.267 0.342-0.428 0.61-0.358s0.428 0.342 0.358 0.61l-2 7.7c-0.069 0.267-0.342 0.428-0.61 0.358s-0.428-0.342-0.358-0.61l2-7.7z"></path>
<path d="M5.016 7.926c-0.069-0.267 0.091-0.54 0.358-0.61s0.54 0.091 0.61 0.358l2 7.7c0.069 0.267-0.091 0.54-0.358 0.61s-0.54-0.091-0.61-0.358l-2-7.7z"></path>
</svg>
