<!-- Generated by IcoMoon.io -->
<svg version="1.1" xmlns="http://www.w3.org/2000/svg" width="16" height="16" viewBox="0 0 16 16">
<title>character-authorize</title>
<path d="M14 2c0-0.552-0.448-1-1-1h-11c-0.552 0-1 0.448-1 1v9c0 0.552 0.448 1 1 1h3.5c0.276 0 0.5 0.224 0.5 0.5s-0.224 0.5-0.5 0.5h-3.5c-1.105 0-2-0.895-2-2v-9c0-1.105 0.895-2 2-2h11c1.105 0 2 0.895 2 2v2.5c0 0.276-0.224 0.5-0.5 0.5s-0.5-0.224-0.5-0.5v-2.5z"></path>
<path d="M5 6c0.552 0 1-0.448 1-1s-0.448-1-1-1c-0.552 0-1 0.448-1 1s0.448 1 1 1zM5 7c-1.105 0-2-0.895-2-2s0.895-2 2-2c1.105 0 2 0.895 2 2s-0.895 2-2 2z"></path>
<path d="M5 6c1.534 0 2.567 0.62 2.974 1.842 0.087 0.262-0.054 0.545-0.316 0.632s-0.545-0.054-0.632-0.316c-0.259-0.778-0.893-1.158-2.026-1.158-1.271 0-1.938 0.738-1.996 1.849l-0.004 0.161v0.49c0 0.276-0.224 0.5-0.5 0.5-0.245 0-0.45-0.177-0.492-0.41l-0.008-0.090v-0.49c0-1.715 1.070-3.010 3-3.010z"></path>
<path d="M9.5 5h2c0.276 0 0.5 0.224 0.5 0.5s-0.224 0.5-0.5 0.5h-2c-0.276 0-0.5-0.224-0.5-0.5s0.224-0.5 0.5-0.5z"></path>
<path d="M9.5 3h2c0.276 0 0.5 0.224 0.5 0.5s-0.224 0.5-0.5 0.5h-2c-0.276 0-0.5-0.224-0.5-0.5s0.224-0.5 0.5-0.5z"></path>
<path d="M16 9c0-0.552-0.448-1-1-1h-6c-0.552 0-1 0.448-1 1v6c0 0.552 0.448 1 1 1h6c0.552 0 1-0.448 1-1v-2h-1v2h-6v-6h7z"></path>
<path d="M15.175 10.12c0.21-0.18 0.525-0.155 0.705 0.054s0.155 0.525-0.054 0.705l-3.5 3c-0.228 0.195-0.575 0.147-0.741-0.102l-1-1.5c-0.153-0.23-0.091-0.54 0.139-0.693s0.54-0.091 0.693 0.139l0.687 1.030 3.072-2.633z"></path>
</svg>
