<!-- Generated by IcoMoon.io -->
<svg version="1.1" xmlns="http://www.w3.org/2000/svg" width="16" height="16" viewBox="0 0 16 16">
<title>ID-info</title>
<path d="M9.586 16c0.221 0 0.434-0.073 0.608-0.206l0.099-0.087 3.707-3.707-0.707-0.707-3.707 3.707h-6.586c-0.513 0-0.936-0.386-0.993-0.883l-0.007-0.117v-12c0-0.513 0.386-0.935 0.883-0.993l0.117-0.007h9c0.513 0 0.935 0.386 0.993 0.883l0.007 0.117v6.5c0 0.276 0.224 0.5 0.5 0.5 0.245 0 0.45-0.177 0.492-0.41l0.008-0.090v-6.5c0-1.054-0.816-1.918-1.851-1.995l-0.149-0.005h-9c-1.054 0-1.918 0.816-1.995 1.851l-0.005 0.149v12c0 1.054 0.816 1.918 1.851 1.995l0.149 0.005h6.586z"></path>
<path d="M9.5 16c0.276 0 0.5-0.224 0.5-0.5v-4c0-0.276-0.224-0.5-0.5-0.5s-0.5 0.224-0.5 0.5v4c0 0.276 0.224 0.5 0.5 0.5z"></path>
<path d="M9.5 12h4.5c0-0.552-0.448-1-1-1h-3.5c-0.276 0-0.5 0.224-0.5 0.5s0.224 0.5 0.5 0.5z"></path>
<path d="M5 3h1v6h-1v-6z"></path>
<path d="M8 4v4c1.105 0 2-0.895 2-2s-0.895-2-2-2zM7 3h1c1.657 0 3 1.343 3 3s-1.343 3-3 3h-1v-6z"></path>
</svg>
