<!-- Generated by IcoMoon.io -->
<svg version="1.1" xmlns="http://www.w3.org/2000/svg" width="16" height="16" viewBox="0 0 16 16">
<title>id-rule</title>
<path d="M10 15.5c0-0.276-0.224-0.5-0.5-0.5h-7.5c-0.513 0-0.935-0.386-0.993-0.883l-0.007-0.117v-12c0-0.513 0.386-0.935 0.883-0.993l0.117-0.007h9c0.513 0 0.935 0.386 0.993 0.883l0.007 0.117v2.5c0 0.276 0.224 0.5 0.5 0.5 0.245 0 0.45-0.177 0.492-0.41l0.008-0.090v-2.5c0-1.054-0.816-1.918-1.851-1.995l-0.149-0.005h-9c-1.054 0-1.918 0.816-1.995 1.851l-0.005 0.149v12c0 1.054 0.816 1.918 1.851 1.995l0.149 0.005h7.5c0.276 0 0.5-0.224 0.5-0.5z"></path>
<path d="M6 3v3c1.105 0 2-0.395 2-1.5s-0.895-1.5-2-1.5zM5 2h1c1.657 0 3 0.843 3 2.5s-1.343 2.5-3 2.5h-1v-5z"></path>
<path d="M8.5 8h2c0.276 0 0.5 0.224 0.5 0.5s-0.224 0.5-0.5 0.5h-2c-0.276 0-0.5-0.224-0.5-0.5s0.224-0.5 0.5-0.5z"></path>
<path d="M7.5 12h3c0.276 0 0.5 0.224 0.5 0.5s-0.224 0.5-0.5 0.5h-3c-0.276 0-0.5-0.224-0.5-0.5s0.224-0.5 0.5-0.5z"></path>
<path d="M15.847 11.153c0.204 0.204 0.204 0.535 0 0.739l-1.108 1.108 1.108 1.108c0.204 0.204 0.204 0.535 0 0.739s-0.535 0.204-0.739 0l-1.108-1.108-1.108 1.108c-0.204 0.204-0.535 0.204-0.739 0s-0.204-0.535 0-0.739l1.108-1.108-1.108-1.108c-0.204-0.204-0.204-0.535 0-0.739s0.535-0.204 0.739 0l1.108 1.108 1.108-1.108c0.204-0.204 0.535-0.204 0.739 0z"></path>
<path d="M15.084 6.223c0.153-0.23 0.464-0.292 0.693-0.139 0.204 0.136 0.276 0.397 0.182 0.614l-0.043 0.079-2 3c-0.18 0.27-0.557 0.294-0.773 0.074l-0.060-0.074-1-1.5c-0.153-0.23-0.091-0.54 0.139-0.693 0.204-0.136 0.472-0.102 0.637 0.068l0.057 0.070 0.584 0.874 1.584-2.374z"></path>
<path d="M3 2h1v5h-1z"></path>
</svg>
