<!-- Generated by IcoMoon.io -->
<svg version="1.1" xmlns="http://www.w3.org/2000/svg" width="16" height="16" viewBox="0 0 16 16">
<title>location</title>
<path d="M8 3c1.657 0 3 1.343 3 3s-1.343 3-3 3c-1.657 0-3-1.343-3-3s1.343-3 3-3zM8 4c-1.105 0-2 0.895-2 2s0.895 2 2 2c1.105 0 2-0.895 2-2s-0.895-2-2-2z"></path>
<path d="M8 0c3 0 6 2.195 6 6.172 0 2.402-1.642 5.443-4.927 9.122l-0.313 0.347c-0.022 0.024-0.044 0.046-0.068 0.068-0.42 0.383-1.071 0.352-1.453-0.068-3.493-3.835-5.239-6.992-5.239-9.469 0-3.977 3-6.172 6-6.172zM8 1c-2.783 0-5 2.061-5 5.172 0 2.167 1.639 5.128 4.979 8.796 0.007 0.008 0.018 0.011 0.027 0.009l0.013-0.007c3.342-3.67 4.981-6.631 4.981-8.798 0-3.11-2.217-5.172-5-5.172z"></path>
<path d="M8 8c2.064 0 3.413 0.91 3.93 2.673l0.056 0.207 0.12 0.485-0.971 0.24-0.12-0.485c-0.354-1.434-1.314-2.12-3.015-2.12-1.626 0-2.575 0.627-2.965 1.937l-0.050 0.183-0.12 0.485-0.971-0.24 0.12-0.485c0.469-1.899 1.842-2.88 3.985-2.88z"></path>
</svg>
