<!-- Generated by IcoMoon.io -->
<svg version="1.1" xmlns="http://www.w3.org/2000/svg" width="16" height="16" viewBox="0 0 16 16">
<title>member</title>
<path d="M14 1c1.105 0 2 0.895 2 2v10c0 1.105-0.895 2-2 2h-12c-1.105 0-2-0.895-2-2v-10c0-1.105 0.895-2 2-2h12zM5 8c-1.286 0-3 1.067-3 3v0 1h6v-1l-0.006-0.21c-0.115-1.86-1.754-2.79-2.994-2.79zM11.5 9h-1c-0.276 0-0.5 0.224-0.5 0.5s0.224 0.5 0.5 0.5v0h1c0.276 0 0.5-0.224 0.5-0.5s-0.224-0.5-0.5-0.5v0zM5 4c-1.105 0-2 0.895-2 2s0.895 2 2 2c1.105 0 2-0.895 2-2s-0.895-2-2-2zM13.5 7h-3c-0.276 0-0.5 0.224-0.5 0.5s0.224 0.5 0.5 0.5v0h3c0.276 0 0.5-0.224 0.5-0.5s-0.224-0.5-0.5-0.5v0zM13.5 5h-3c-0.276 0-0.5 0.224-0.5 0.5s0.224 0.5 0.5 0.5v0h3c0.276 0 0.5-0.224 0.5-0.5s-0.224-0.5-0.5-0.5v0z"></path>
</svg>
