<!-- Generated by IcoMoon.io -->
<svg version="1.1" xmlns="http://www.w3.org/2000/svg" width="16" height="16" viewBox="0 0 16 16">
<title>operate-people</title>
<path d="M8 8c1.105 0 2-0.895 2-2s-0.895-2-2-2c-1.105 0-2 0.895-2 2s0.895 2 2 2zM8 9c-1.657 0-3-1.343-3-3s1.343-3 3-3c1.657 0 3 1.343 3 3s-1.343 3-3 3z"></path>
<path d="M2 13c-1.105 0-2-0.895-2-2v-3c0-0.597 0.262-1.134 0.677-1.5-0.415-0.366-0.677-0.903-0.677-1.5v-3c0-1.105 0.895-2 2-2h4c1.105 0 2 0.895 2 2 0 0.276-0.224 0.5-0.5 0.5s-0.5-0.224-0.5-0.5c0-0.552-0.448-1-1-1h-4c-0.552 0-1 0.448-1 1v3c0 0.552 0.448 1 1 1h1c0.276 0 0.5 0.224 0.5 0.5s-0.224 0.5-0.5 0.5h-1c-0.552 0-1 0.448-1 1v3c0 0.552 0.448 1 1 1 0.276 0 0.5 0.224 0.5 0.5s-0.224 0.5-0.5 0.5zM14 13c-0.276 0-0.5-0.224-0.5-0.5s0.224-0.5 0.5-0.5c0.552 0 1-0.448 1-1v-3c0-0.552-0.448-1-1-1h-1c-0.276 0-0.5-0.224-0.5-0.5s0.224-0.5 0.5-0.5h1c0.552 0 1-0.448 1-1v-3c0-0.552-0.448-1-1-1h-4c-0.552 0-1 0.448-1 1 0 0.276-0.224 0.5-0.5 0.5s-0.5-0.224-0.5-0.5c0-1.105 0.895-2 2-2h4c1.105 0 2 0.895 2 2v3c0 0.597-0.262 1.134-0.677 1.5 0.415 0.366 0.677 0.903 0.677 1.5v3c0 1.105-0.895 2-2 2zM8 9c-1.657 0-3 1.343-3 3v3h6v-3c0-1.657-1.343-3-3-3zM8 8c2.209 0 4 1.791 4 4v3c0 0.552-0.448 1-1 1h-6c-0.552 0-1-0.448-1-1v-3c0-2.209 1.791-4 4-4z"></path>
</svg>
