<!-- Generated by IcoMoon.io -->
<svg version="1.1" xmlns="http://www.w3.org/2000/svg" width="16" height="16" viewBox="0 0 16 16">
<title>peoples-time</title>
<path d="M12.5 8c1.381 0 2.5 1.119 2.5 2.5 0 0.76-0.339 1.441-0.875 1.9 1.114 0.585 1.875 1.754 1.875 3.1v0.5h-7v-0.5c0-1.347 0.76-2.516 1.875-3.101-0.536-0.458-0.875-1.139-0.875-1.899 0-1.381 1.119-2.5 2.5-2.5zM12.5 13c-1.209 0-2.218 0.859-2.45 2h4.9l-0.038-0.161c-0.29-1.060-1.26-1.839-2.412-1.839zM12.5 9c-0.828 0-1.5 0.672-1.5 1.5s0.672 1.5 1.5 1.5c0.828 0 1.5-0.672 1.5-1.5s-0.672-1.5-1.5-1.5zM7 10c1.105 0 2 0.895 2 2s-0.895 2-2 2c-1.052 0-2 1.084-2 2v0h-1c0-0.99 0.644-2.036 1.578-2.594-0.357-0.36-0.578-0.858-0.578-1.406 0-1.105 0.895-2 2-2zM7 11c-0.552 0-1 0.448-1 1s0.448 1 1 1c0.552 0 1-0.448 1-1s-0.448-1-1-1z"></path>
<path d="M11.999 5.999c0 0.276-0.224 0.5-0.5 0.5s-0.5-0.224-0.5-0.5c0-2.761-2.239-5-5-5s-5 2.239-5 5c0 1.718 0.872 3.285 2.288 4.201 0.232 0.15 0.298 0.46 0.148 0.691s-0.46 0.298-0.691 0.148c-1.698-1.098-2.745-2.981-2.745-5.041 0-3.314 2.686-6 6-6s6 2.686 6 6z"></path>
<path d="M5.5 7c-0.276 0-0.5-0.224-0.5-0.5v-3.5c0-0.276 0.224-0.5 0.5-0.5s0.5 0.224 0.5 0.5v3h2c0.276 0 0.5 0.224 0.5 0.5s-0.224 0.5-0.5 0.5h-2.5z"></path>
</svg>
