<!-- Generated by IcoMoon.io -->
<svg version="1.1" xmlns="http://www.w3.org/2000/svg" width="16" height="16" viewBox="0 0 16 16">
<title>peoples</title>
<path d="M8 5c1.105 0 2-0.895 2-2s-0.895-2-2-2c-1.105 0-2 0.895-2 2s0.895 2 2 2zM8 6c-1.657 0-3-1.343-3-3s1.343-3 3-3c1.657 0 3 1.343 3 3s-1.343 3-3 3zM13 7c0.552 0 1-0.448 1-1s-0.448-1-1-1c-0.552 0-1 0.448-1 1s0.448 1 1 1zM13 8c-1.105 0-2-0.895-2-2s0.895-2 2-2c1.105 0 2 0.895 2 2s-0.895 2-2 2zM3 7c0.552 0 1-0.448 1-1s-0.448-1-1-1c-0.552 0-1 0.448-1 1s0.448 1 1 1zM3 8c-1.105 0-2-0.895-2-2s0.895-2 2-2c1.105 0 2 0.895 2 2s-0.895 2-2 2zM8 8c-1.657 0-3 1.343-3 3v4h6v-4c0-1.657-1.343-3-3-3zM8 7c2.209 0 4 1.791 4 4v4c0 0.552-0.448 1-1 1h-6c-0.552 0-1-0.448-1-1v-4c0-2.209 1.791-4 4-4zM13 14c1.105 0 2-0.895 2-2s-0.895-2-2-2v-1c1.657 0 3 1.343 3 3s-1.343 3-3 3v-1zM13 14c1.105 0 2-0.895 2-2s-0.895-2-2-2v-1c1.657 0 3 1.343 3 3s-1.343 3-3 3v-1zM3 14v1c-1.657 0-3-1.343-3-3s1.343-3 3-3v1c-1.105 0-2 0.895-2 2s0.895 2 2 2zM3 14v1c-1.657 0-3-1.343-3-3s1.343-3 3-3v1c-1.105 0-2 0.895-2 2s0.895 2 2 2z"></path>
</svg>
