<!-- Generated by IcoMoon.io -->
<svg version="1.1" xmlns="http://www.w3.org/2000/svg" width="16" height="16" viewBox="0 0 16 16">
<title>peoples-SQL</title>
<path d="M12.5 8c1.381 0 2.5 1.119 2.5 2.5 0 0.76-0.339 1.441-0.875 1.9 1.114 0.585 1.875 1.754 1.875 3.1v0.5h-7v-0.5c0-1.347 0.76-2.516 1.875-3.101-0.536-0.458-0.875-1.139-0.875-1.899 0-1.381 1.119-2.5 2.5-2.5zM12.5 13c-1.209 0-2.218 0.859-2.45 2h4.9l-0.038-0.161c-0.29-1.060-1.26-1.839-2.412-1.839zM12.5 9c-0.828 0-1.5 0.672-1.5 1.5s0.672 1.5 1.5 1.5c0.828 0 1.5-0.672 1.5-1.5s-0.672-1.5-1.5-1.5zM7 10c1.105 0 2 0.895 2 2s-0.895 2-2 2c-1.052 0-2 1.084-2 2v0h-1c0-0.99 0.644-2.036 1.578-2.594-0.357-0.36-0.578-0.858-0.578-1.406 0-1.105 0.895-2 2-2zM7 11c-0.552 0-1 0.448-1 1s0.448 1 1 1c0.552 0 1-0.448 1-1s-0.448-1-1-1z"></path>
<path d="M2.5 12c-0.828 0-1.5-0.672-1.5-1.5v-8c0-0.828 0.672-1.5 1.5-1.5h9c0.828 0 1.5 0.672 1.5 1.5v3c0 0.276 0.224 0.5 0.5 0.5s0.5-0.224 0.5-0.5v-3c0-1.381-1.119-2.5-2.5-2.5h-9c-1.381 0-2.5 1.119-2.5 2.5v8c0 1.381 1.119 2.5 2.5 2.5 0.276 0 0.5-0.224 0.5-0.5s-0.224-0.5-0.5-0.5z"></path>
<path d="M11 2v5h2v1h-3v-6z"></path>
<path d="M3.356 5.493c-0.713-0.068-1.281-0.636-1.349-1.349l-0.007-0.144v-0.5c0-0.828 0.672-1.5 1.5-1.5 0.78 0 1.42 0.595 1.493 1.356l0.007 0.144h-1c0-0.276-0.224-0.5-0.5-0.5-0.245 0-0.45 0.177-0.492 0.41l-0.008 0.090v0.5l0.008 0.090c0.037 0.204 0.198 0.365 0.402 0.402l0.090 0.008 0.144 0.007c0.713 0.068 1.281 0.636 1.349 1.349l0.007 0.144v0.5c0 0.78-0.595 1.42-1.356 1.493l-0.144 0.007-0.144-0.007c-0.713-0.068-1.281-0.636-1.349-1.349l-0.007-0.144h1l0.008 0.090c0.037 0.204 0.198 0.365 0.402 0.402l0.090 0.008c0.245 0 0.45-0.177 0.492-0.41l0.008-0.090v-0.5l-0.008-0.090c-0.037-0.204-0.198-0.365-0.402-0.402l-0.090-0.008-0.144-0.007zM7.5 2c0.78 0 1.42 0.595 1.493 1.356l0.007 0.144v3l-0.004 0.091 0.42 0.632c0.153 0.23 0.091 0.54-0.139 0.693-0.204 0.136-0.472 0.102-0.637-0.068l-0.057-0.070-0.099-0.146c-0.264 0.23-0.608 0.369-0.985 0.369-0.78 0-1.42-0.595-1.493-1.356l-0.007-0.144v-3c0-0.828 0.672-1.5 1.5-1.5zM7.008 6.59c0.042 0.233 0.246 0.41 0.492 0.41 0.174 0 0.327-0.089 0.417-0.224l-0.185-0.276h-0.732l0.008 0.090zM7.5 3c-0.245 0-0.45 0.177-0.492 0.41l-0.008 0.090v2h1v-2c0-0.276-0.224-0.5-0.5-0.5z"></path>
</svg>
