<!-- Generated by IcoMoon.io -->
<svg version="1.1" xmlns="http://www.w3.org/2000/svg" width="16" height="16" viewBox="0 0 16 16">
<title>peoples-map</title>
<path d="M12.5 9c0.828 0 1.5-0.672 1.5-1.5s-0.672-1.5-1.5-1.5c-0.828 0-1.5 0.672-1.5 1.5s0.672 1.5 1.5 1.5zM12.5 10c-1.381 0-2.5-1.119-2.5-2.5s1.119-2.5 2.5-2.5c1.381 0 2.5 1.119 2.5 2.5s-1.119 2.5-2.5 2.5z"></path>
<path d="M12.5 10c-1.381 0-2.5 1.119-2.5 2.5v2.5h5v-2.5c0-1.381-1.119-2.5-2.5-2.5zM12.5 9c1.933 0 3.5 1.567 3.5 3.5v2.5c0 0.552-0.448 1-1 1h-5c-0.552 0-1-0.448-1-1v-2.5c0-1.933 1.567-3.5 3.5-3.5z"></path>
<path d="M5 16c-0.513 0-0.936-0.386-0.993-0.883l-0.007-0.117v-2c0-1.598 1.249-2.904 2.824-2.995l0.176-0.005v1c-1.054 0-1.918 0.816-1.995 1.851l-0.005 0.149v2h1.5c0.276 0 0.5 0.224 0.5 0.5s-0.224 0.5-0.5 0.5h-1.5z"></path>
<path d="M7 10c0.552 0 1-0.448 1-1s-0.448-1-1-1c-0.552 0-1 0.448-1 1s0.448 1 1 1zM7 11c-1.105 0-2-0.895-2-2s0.895-2 2-2c1.105 0 2 0.895 2 2s-0.895 2-2 2z"></path>
<path d="M11 0c1.054 0 1.918 0.816 1.995 1.851l0.005 0.149v0.5c0 0.276-0.224 0.5-0.5 0.5-0.245 0-0.45-0.177-0.492-0.41l-0.008-0.090v-0.5c0-0.513-0.386-0.935-0.883-0.993l-0.117-0.007h-9c-0.513 0-0.935 0.386-0.993 0.883l-0.007 0.117v10c0 0.513 0.386 0.935 0.883 0.993l0.117 0.007h0.5c0.276 0 0.5 0.224 0.5 0.5 0 0.245-0.177 0.45-0.41 0.492l-0.090 0.008h-0.5c-1.054 0-1.918-0.816-1.995-1.851l-0.005-0.149v-10c0-1.054 0.816-1.918 1.851-1.995l0.149-0.005h9z"></path>
</svg>
