<!-- Generated by IcoMoon.io -->
<svg version="1.1" xmlns="http://www.w3.org/2000/svg" width="16" height="16" viewBox="0 0 16 16">
<title>people-speaker</title>
<path d="M9 8.618v2.764l5.010 2.505c0.095 0.047 0.2 0.072 0.306 0.072 0.378 0 0.684-0.306 0.684-0.684v-6.55c0-0.106-0.025-0.211-0.072-0.306-0.169-0.338-0.58-0.475-0.918-0.306l-5.010 2.505zM8 8l5.563-2.781c0.832-0.416 1.844-0.079 2.26 0.753 0.117 0.234 0.178 0.492 0.178 0.753v6.55c0 0.93-0.754 1.684-1.684 1.684-0.261 0-0.519-0.061-0.753-0.178l-5.563-2.781v-4z"></path>
<path d="M7 11v3.5c0 0.831 0.75 1.5 1.5 1.5s1.5-0.669 1.5-1.5v-2.5l-0.949-0.316c-0.033 0.099-0.051 0.206-0.051 0.316v2.5c0 0.243-0.266 0.5-0.5 0.5s-0.5-0.257-0.5-0.5v-3.167l-1-0.333z"></path>
<path d="M6 9v2h2v-2h-2zM5.842 8h3.158v4h-3.158c-0.465 0-0.842-0.377-0.842-0.842v-2.316c0-0.465 0.377-0.842 0.842-0.842zM4.5 6c1.381 0 2.5-1.119 2.5-2.5s-1.119-2.5-2.5-2.5c-1.381 0-2.5 1.119-2.5 2.5s1.119 2.5 2.5 2.5zM4.5 7c-1.933 0-3.5-1.567-3.5-3.5s1.567-3.5 3.5-3.5c1.933 0 3.5 1.567 3.5 3.5s-1.567 3.5-3.5 3.5z"></path>
<path d="M5 15c0.276 0 0.5 0.224 0.5 0.5s-0.224 0.5-0.5 0.5h-4c-0.552 0-1-0.448-1-1v-4c0-3 2-5 5-5v1c-2.448 0-4 1.552-4 4v4h4z"></path>
</svg>
