<!-- Generated by IcoMoon.io -->
<svg version="1.1" xmlns="http://www.w3.org/2000/svg" width="16" height="16" viewBox="0 0 16 16">
<title>people-rule</title>
<path d="M8 0c1.657 0 3 1.343 3 3s-1.343 3-3 3c-1.657 0-3-1.343-3-3s1.343-3 3-3zM8 1c-1.105 0-2 0.895-2 2s0.895 2 2 2c1.105 0 2-0.895 2-2s-0.895-2-2-2zM3 4c1.105 0 2 0.895 2 2s-0.895 2-2 2c-1.105 0-2-0.895-2-2s0.895-2 2-2zM3 5c-0.552 0-1 0.448-1 1s0.448 1 1 1c0.552 0 1-0.448 1-1s-0.448-1-1-1z"></path>
<path d="M8 6c0.276 0 0.5 0.224 0.5 0.5s-0.224 0.5-0.5 0.5c-1.598 0-2.904 1.249-2.995 2.824l-0.005 0.176v5h4c0.276 0 0.5 0.224 0.5 0.5 0 0.245-0.177 0.45-0.41 0.492l-0.090 0.008h-4c-0.513 0-0.936-0.386-0.993-0.883l-0.007-0.117v-5c0-2.209 1.791-4 4-4zM2.474 8.342c-0.087-0.262-0.37-0.404-0.632-0.316-1.161 0.387-1.778 1.339-1.837 2.748l-0.005 0.226v3.5c0 0.276 0.25 0.5 0.5 0.5s0.5-0.22 0.5-0.5c0 0 0-1.167 0-3.5 0-1.133 0.38-1.766 1.158-2.026 0.262-0.087 0.404-0.37 0.316-0.632z"></path>
<path d="M8.5 9h2c0.276 0 0.5 0.224 0.5 0.5s-0.224 0.5-0.5 0.5h-2c-0.276 0-0.5-0.224-0.5-0.5s0.224-0.5 0.5-0.5z"></path>
<path d="M8.5 13h2c0.276 0 0.5 0.224 0.5 0.5s-0.224 0.5-0.5 0.5h-2c-0.276 0-0.5-0.224-0.5-0.5s0.224-0.5 0.5-0.5z"></path>
<path d="M15.847 12.153c0.204 0.204 0.204 0.535 0 0.739l-1.108 1.108 1.108 1.108c0.204 0.204 0.204 0.535 0 0.739s-0.535 0.204-0.739 0l-1.108-1.108-1.108 1.108c-0.204 0.204-0.535 0.204-0.739 0s-0.204-0.535 0-0.739l1.108-1.108-1.108-1.108c-0.204-0.204-0.204-0.535 0-0.739s0.535-0.204 0.739 0l1.108 1.108 1.108-1.108c0.204-0.204 0.535-0.204 0.739 0z"></path>
<path d="M15.084 7.223c0.153-0.23 0.464-0.292 0.693-0.139 0.204 0.136 0.276 0.397 0.182 0.614l-0.043 0.079-2 3c-0.18 0.27-0.557 0.294-0.773 0.074l-0.060-0.074-1-1.5c-0.153-0.23-0.091-0.54 0.139-0.693 0.204-0.136 0.472-0.102 0.637 0.068l0.057 0.070 0.584 0.874 1.584-2.374z"></path>
</svg>
