<!-- Generated by IcoMoon.io -->
<svg version="1.1" xmlns="http://www.w3.org/2000/svg" width="16" height="16" viewBox="0 0 16 16">
<title>peoples-target</title>
<path d="M12.5 8c1.381 0 2.5 1.119 2.5 2.5 0 0.76-0.339 1.441-0.875 1.9 1.114 0.585 1.875 1.754 1.875 3.1v0.5h-7v-0.5c0-1.347 0.76-2.516 1.875-3.101-0.536-0.458-0.875-1.139-0.875-1.899 0-1.381 1.119-2.5 2.5-2.5zM12.5 13c-1.209 0-2.218 0.859-2.45 2h4.9l-0.038-0.161c-0.29-1.060-1.26-1.839-2.412-1.839zM12.5 9c-0.828 0-1.5 0.672-1.5 1.5s0.672 1.5 1.5 1.5c0.828 0 1.5-0.672 1.5-1.5s-0.672-1.5-1.5-1.5zM7 10c1.105 0 2 0.895 2 2s-0.895 2-2 2c-1.052 0-2 1.084-2 2v0h-1c0-0.99 0.644-2.036 1.578-2.594-0.357-0.36-0.578-0.858-0.578-1.406 0-1.105 0.895-2 2-2zM7 11c-0.552 0-1 0.448-1 1s0.448 1 1 1c0.552 0 1-0.448 1-1s-0.448-1-1-1z"></path>
<path d="M2.5 12c-0.828 0-1.5-0.672-1.5-1.5v-8c0-0.828 0.672-1.5 1.5-1.5h8c0.828 0 1.5 0.672 1.5 1.5v3c0 0.276 0.224 0.5 0.5 0.5s0.5-0.224 0.5-0.5v-3c0-1.381-1.119-2.5-2.5-2.5h-8c-1.381 0-2.5 1.119-2.5 2.5v8c0 1.381 1.119 2.5 2.5 2.5 0.276 0 0.5-0.224 0.5-0.5s-0.224-0.5-0.5-0.5z"></path>
<path d="M6.5 2c0.276 0 0.5 0.224 0.5 0.5l0.001 0.536c1.532 0.22 2.744 1.432 2.964 2.964l0.535-0c0.276 0 0.5 0.224 0.5 0.5s-0.224 0.5-0.5 0.5l-0.536 0.001c-0.151 1.049-0.77 1.972-1.684 2.513-0.238 0.141-0.544 0.062-0.685-0.176s-0.062-0.544 0.176-0.685c0.612-0.362 1.038-0.963 1.179-1.653l-1.45-0.001c-0.276 0-0.5-0.224-0.5-0.5s0.224-0.5 0.5-0.5l1.45 0.001c-0.199-0.98-0.97-1.751-1.95-1.95l-0 1.45c0 0.276-0.224 0.5-0.5 0.5s-0.5-0.224-0.5-0.5l0.001-1.45c-0.98 0.199-1.752 0.971-1.951 1.951l1.45-0.001c0.276 0 0.5 0.224 0.5 0.5s-0.224 0.5-0.5 0.5l-1.45 0.001c0.18 0.884 0.829 1.613 1.704 1.886 0.264 0.082 0.411 0.363 0.328 0.626s-0.363 0.411-0.626 0.328c-1.29-0.403-2.229-1.514-2.42-2.841l-0.536-0.001c-0.276 0-0.5-0.224-0.5-0.5s0.224-0.5 0.5-0.5l0.535 0c0.219-1.533 1.432-2.745 2.965-2.965l-0-0.535c0-0.276 0.224-0.5 0.5-0.5zM6.5 7c0.276 0 0.5 0.224 0.5 0.5v1c0 0.276-0.224 0.5-0.5 0.5s-0.5-0.224-0.5-0.5v-1c0-0.276 0.224-0.5 0.5-0.5z"></path>
</svg>
