<!-- Generated by IcoMoon.io -->
<svg version="1.1" xmlns="http://www.w3.org/2000/svg" width="16" height="16" viewBox="0 0 16 16">
<title>peoples-costomize</title>
<path d="M12.5 8c1.381 0 2.5 1.119 2.5 2.5 0 0.76-0.339 1.441-0.875 1.9 1.114 0.585 1.875 1.754 1.875 3.1v0.5h-7v-0.5c0-1.347 0.76-2.516 1.875-3.101-0.536-0.458-0.875-1.139-0.875-1.899 0-1.381 1.119-2.5 2.5-2.5zM12.5 13c-1.209 0-2.218 0.859-2.45 2h4.9l-0.038-0.161c-0.29-1.060-1.26-1.839-2.412-1.839zM12.5 9c-0.828 0-1.5 0.672-1.5 1.5s0.672 1.5 1.5 1.5c0.828 0 1.5-0.672 1.5-1.5s-0.672-1.5-1.5-1.5zM7 10c1.105 0 2 0.895 2 2s-0.895 2-2 2c-1.052 0-2 1.084-2 2v0h-1c0-0.99 0.644-2.036 1.578-2.594-0.357-0.36-0.578-0.858-0.578-1.406 0-1.105 0.895-2 2-2zM7 11c-0.552 0-1 0.448-1 1s0.448 1 1 1c0.552 0 1-0.448 1-1s-0.448-1-1-1z"></path>
<path d="M2.5 12c-0.828 0-1.5-0.672-1.5-1.5v-8c0-0.828 0.672-1.5 1.5-1.5h8c0.828 0 1.5 0.672 1.5 1.5v3c0 0.276 0.224 0.5 0.5 0.5s0.5-0.224 0.5-0.5v-3c0-1.381-1.119-2.5-2.5-2.5h-8c-1.381 0-2.5 1.119-2.5 2.5v8c0 1.381 1.119 2.5 2.5 2.5 0.276 0 0.5-0.224 0.5-0.5s-0.224-0.5-0.5-0.5z"></path>
<path d="M3.839 8.161l0.212-0.919 3.858-3.858c0.122-0.122 0.297-0.128 0.389-0.035l0.354 0.354c0.092 0.092 0.087 0.267-0.035 0.389l-0.943 0.943 0.707 0.707 0.943-0.943c0.503-0.503 0.529-1.31 0.035-1.803l-0.354-0.354c-0.493-0.493-1.3-0.467-1.803 0.035l-3.96 3.96c-0.066 0.066-0.113 0.15-0.134 0.241l-0.424 1.838c-0.083 0.36 0.24 0.683 0.6 0.6l1.838-0.424c0.091-0.021 0.175-0.067 0.241-0.134l2.263-2.263-0.707-0.707-2.161 2.161-0.919 0.212z"></path>
</svg>
