<!-- Generated by IcoMoon.io -->
<svg version="1.1" xmlns="http://www.w3.org/2000/svg" width="16" height="16" viewBox="0 0 16 16">
<title>people-folder</title>
<path d="M5.947 0c0.491 0 0.953 0.219 1.253 0.579l1.053 1.421h4.734c1.061 0 1.931 0.815 2.008 1.851l0.006 0.149v2.5c0 0.276-0.224 0.5-0.5 0.5-0.245 0-0.45-0.177-0.492-0.41l-0.008-0.090v-2.5c0-0.515-0.394-0.94-0.903-0.994l-0.111-0.006h-5.239l-1.272-1.72c-0.098-0.146-0.252-0.243-0.424-0.271l-0.105-0.009h-3.933c-0.523 0-0.953 0.391-1.008 0.891l-0.006 0.109v9c0 0.515 0.394 0.94 0.903 0.994l0.111 0.006h0.986c0.276 0 0.5 0.224 0.5 0.5 0 0.245-0.177 0.45-0.41 0.492l-0.090 0.008h-0.986c-1.061 0-1.931-0.815-2.008-1.851l-0.006-0.149v-9c0-1.055 0.822-1.918 1.863-1.995l0.15-0.005h3.933z"></path>
<path d="M10 6c1.105 0 2 0.895 2 2s-0.895 2-2 2c-1.105 0-2-0.895-2-2s0.895-2 2-2zM10 7c-0.552 0-1 0.448-1 1s0.448 1 1 1c0.552 0 1-0.448 1-1s-0.448-1-1-1zM12 9.5c0-0.828 0.672-1.5 1.5-1.5s1.5 0.672 1.5 1.5c0 0.308-0.093 0.595-0.253 0.834 0.703 0.404 1.192 1.144 1.247 2.002l0.005 0.164v2c0 0.245-0.177 0.45-0.41 0.492l-0.090 0.008h-1.5c-0.276 0-0.5-0.224-0.5-0.5 0-0.245 0.177-0.45 0.41-0.492l0.090-0.008h1v-1.5c0-0.78-0.595-1.42-1.356-1.493l-0.144-0.007c-0.828 0-1.5-0.672-1.5-1.5zM13.5 9c-0.276 0-0.5 0.224-0.5 0.5s0.224 0.5 0.5 0.5c0.276 0 0.5-0.224 0.5-0.5s-0.224-0.5-0.5-0.5zM6.5 8c0.828 0 1.5 0.672 1.5 1.5 0 0.78-0.595 1.42-1.356 1.493l-0.289 0.014c-0.761 0.073-1.356 0.713-1.356 1.493v0 1.5h1l0.090 0.008c0.233 0.042 0.41 0.246 0.41 0.492 0 0.276-0.224 0.5-0.5 0.5v0h-1.5l-0.090-0.008c-0.233-0.042-0.41-0.246-0.41-0.492v0-2l0.005-0.164c0.056-0.858 0.544-1.598 1.249-2.004-0.161-0.237-0.254-0.523-0.254-0.832 0-0.828 0.672-1.5 1.5-1.5zM6.5 9c-0.276 0-0.5 0.224-0.5 0.5s0.224 0.5 0.5 0.5c0.276 0 0.5-0.224 0.5-0.5s-0.224-0.5-0.5-0.5z"></path>
<path d="M10 10c1.657 0 3 1.343 3 3v2.5c0 0.276-0.224 0.5-0.5 0.5h-5c-0.276 0-0.5-0.224-0.5-0.5v-2.5c0-1.657 1.343-3 3-3zM10 11c-1.054 0-1.918 0.816-1.995 1.851l-0.005 0.149v2h4v-2c0-1.054-0.816-1.918-1.851-1.995l-0.149-0.005z"></path>
</svg>
