<!-- Generated by IcoMoon.io -->
<svg version="1.1" xmlns="http://www.w3.org/2000/svg" width="16" height="16" viewBox="0 0 16 16">
<title>people-expand</title>
<path d="M8 3c1.657 0 3 1.343 3 3s-1.343 3-3 3c-1.657 0-3-1.343-3-3s1.343-3 3-3zM8 4c-1.105 0-2 0.895-2 2s0.895 2 2 2c1.105 0 2-0.895 2-2s-0.895-2-2-2zM9.042 0.99c0.683 0.137 1.267 0.336 1.751 0.599 0.243 0.132 0.546 0.042 0.678-0.201s0.042-0.546-0.201-0.678c-0.578-0.314-1.256-0.546-2.032-0.701-0.271-0.054-0.534 0.121-0.588 0.392s0.121 0.534 0.392 0.588zM12.126 2.835c0.278 0.47 0.445 1.034 0.497 1.703 0.021 0.275 0.262 0.481 0.537 0.46s0.481-0.262 0.46-0.537c-0.063-0.815-0.274-1.527-0.633-2.134-0.14-0.238-0.447-0.317-0.685-0.176s-0.317 0.447-0.176 0.685zM12.41 6.315c-0.163 0.502-0.4 0.991-0.664 1.376-0.193 0.282-0.052 0.671 0.277 0.764 0.070 0.020 0.128 0.031 0.203 0.039l0.215 0.015c0.276 0.016 0.512-0.195 0.527-0.471 0.014-0.245-0.077-0.309-0.073-0.317 0.183-0.342 0.343-0.716 0.466-1.097 0.085-0.263-0.059-0.545-0.322-0.63s-0.545 0.059-0.63 0.322zM14.103 9.012c0.442 0.309 0.749 0.762 0.909 1.381 0.069 0.267 0.342 0.428 0.609 0.359s0.428-0.342 0.359-0.609c-0.219-0.846-0.663-1.502-1.305-1.95-0.226-0.158-0.538-0.103-0.696 0.124s-0.103 0.538 0.124 0.696zM6.955 0.99c-0.683 0.137-1.267 0.336-1.751 0.599-0.243 0.132-0.546 0.042-0.678-0.201s-0.042-0.546 0.201-0.678c0.578-0.314 1.256-0.546 2.032-0.701 0.271-0.054 0.534 0.121 0.588 0.392s-0.121 0.534-0.392 0.588zM3.871 2.835c-0.278 0.47-0.445 1.034-0.497 1.703-0.021 0.275-0.262 0.481-0.537 0.46s-0.481-0.262-0.46-0.537c0.063-0.815 0.274-1.527 0.633-2.134 0.14-0.238 0.447-0.317 0.685-0.176s0.317 0.447 0.176 0.685zM3.587 6.315c0.163 0.502 0.4 0.991 0.664 1.376 0.193 0.282 0.052 0.671-0.277 0.764-0.070 0.020-0.128 0.031-0.203 0.039l-0.215 0.015c-0.276 0.016-0.512-0.195-0.527-0.471-0.004-0.158 0.025-0.256 0.086-0.294-0.188-0.349-0.353-0.731-0.479-1.121-0.085-0.263 0.059-0.545 0.322-0.63s0.545 0.059 0.63 0.322zM1.893 9.012c-0.442 0.309-0.749 0.762-0.909 1.381-0.069 0.267-0.342 0.428-0.609 0.359s-0.428-0.342-0.359-0.609c0.219-0.846 0.663-1.502 1.305-1.95 0.226-0.158 0.538-0.103 0.696 0.124s0.103 0.538-0.124 0.696z"></path>
<path d="M0.146 13.146c0.174-0.174 0.443-0.193 0.638-0.058l0.069 0.058 2 2c0.195 0.195 0.195 0.512 0 0.707-0.174 0.174-0.443 0.193-0.638 0.058l-0.069-0.058-2-2c-0.195-0.195-0.195-0.512 0-0.707z"></path>
<path d="M2.146 11.146c0.195-0.195 0.512-0.195 0.707 0 0.174 0.174 0.193 0.443 0.058 0.638l-0.058 0.069-2 2c-0.195 0.195-0.512 0.195-0.707 0-0.174-0.174-0.193-0.443-0.058-0.638l0.058-0.069 2-2z"></path>
<path d="M13.146 11.146c0.174-0.174 0.443-0.193 0.638-0.058l0.069 0.058 2 2c0.195 0.195 0.195 0.512 0 0.707-0.174 0.174-0.443 0.193-0.638 0.058l-0.069-0.058-2-2c-0.195-0.195-0.195-0.512 0-0.707z"></path>
<path d="M15.146 13.146c0.195-0.195 0.512-0.195 0.707 0 0.174 0.174 0.193 0.443 0.058 0.638l-0.058 0.069-2 2c-0.195 0.195-0.512 0.195-0.707 0-0.174-0.174-0.193-0.443-0.058-0.638l0.058-0.069 2-2z"></path>
<path d="M8 8c1.657 0 4 1.162 4 3v4.158c0 0.465-0.377 0.842-0.842 0.842h-6.316c-0.465 0-0.842-0.377-0.842-0.842v-4.158c0-1.838 2.343-3 4-3zM8 9c-1.399 0-2.877 0.933-2.993 1.881l-0.007 0.119v4h6v-4c0-0.949-1.422-1.919-2.825-1.995l-0.175-0.005z"></path>
</svg>
