<!-- Generated by IcoMoon.io -->
<svg version="1.1" xmlns="http://www.w3.org/2000/svg" width="16" height="16" viewBox="0 0 16 16">
<title>people-branch</title>
<path d="M12.5 5c0.828 0 1.5 0.672 1.5 1.5s-0.672 1.5-1.5 1.5c-0.639 0-1.185-0.4-1.401-0.964-0.739 0.136-1.247 0.678-1.752 1.687l-0.536 1.136-0.073 0.14 4.347 0c0.206-0.583 0.762-1 1.415-1 0.828 0 1.5 0.672 1.5 1.5s-0.672 1.5-1.5 1.5c-0.653 0-1.208-0.417-1.414-0.999l-3.193-0.001c0.065 0.178 0.122 0.382 0.175 0.612l0.157 0.722 0.011 0.045c0.257 1.028 0.704 1.519 1.856 1.607 0.21-0.575 0.761-0.986 1.409-0.986 0.828 0 1.5 0.672 1.5 1.5s-0.672 1.5-1.5 1.5c-0.658 0-1.217-0.424-1.419-1.013-1.667-0.113-2.455-0.923-2.816-2.365l-0.055-0.233-0.079-0.378c-0.164-0.787-0.266-0.985-0.564-1.008l-0.067-0.002h-2c-0.276 0-0.5-0.224-0.5-0.5s0.224-0.5 0.5-0.5h1c0.054 0 0.172-0.124 0.354-0.465l0.092-0.182 0.507-1.076c0.666-1.333 1.436-2.107 2.624-2.252 0.199-0.596 0.761-1.025 1.423-1.025zM13.5 14c-0.276 0-0.5 0.224-0.5 0.5s0.224 0.5 0.5 0.5c0.276 0 0.5-0.224 0.5-0.5s-0.224-0.5-0.5-0.5zM14.5 10c-0.276 0-0.5 0.224-0.5 0.5s0.224 0.5 0.5 0.5c0.276 0 0.5-0.224 0.5-0.5s-0.224-0.5-0.5-0.5zM12.5 6c-0.276 0-0.5 0.224-0.5 0.5s0.224 0.5 0.5 0.5c0.276 0 0.5-0.224 0.5-0.5s-0.224-0.5-0.5-0.5zM7 0c1.657 0 3 1.343 3 3s-1.343 3-3 3c-1.657 0-3-1.343-3-3s1.343-3 3-3zM7 1c-1.105 0-2 0.895-2 2s0.895 2 2 2c1.105 0 2-0.895 2-2s-0.895-2-2-2zM2 3c1.105 0 2 0.895 2 2s-0.895 2-2 2c-1.105 0-2-0.895-2-2s0.895-2 2-2zM2 4c-0.552 0-1 0.448-1 1s0.448 1 1 1c0.552 0 1-0.448 1-1s-0.448-1-1-1z"></path>
<path d="M7 5c0.276 0 0.5 0.224 0.5 0.5s-0.224 0.5-0.5 0.5c-1.359 0-2.887 1.345-2.994 2.834l-0.006 0.166v3.5c0 0.245 0.177 0.45 0.41 0.492l0.090 0.008h3.5c0.276 0 0.5 0.224 0.5 0.5 0 0.245-0.177 0.45-0.41 0.492l-0.090 0.008h-3.5c-0.78 0-1.42-0.595-1.493-1.356l-0.007-0.144v-3.5c0-2.128 2.059-4 4-4zM2.474 7.342c-0.087-0.262-0.37-0.404-0.632-0.316-1.161 0.387-1.778 1.339-1.837 2.748l-0.005 0.226v2.5c0 0.276 0.224 0.5 0.5 0.5 0.245 0 0.45-0.177 0.492-0.41l0.008-0.090v-2.5c0-1.133 0.38-1.766 1.158-2.026 0.262-0.087 0.404-0.37 0.316-0.632z"></path>
</svg>
