<!-- Generated by IcoMoon.io -->
<svg version="1.1" xmlns="http://www.w3.org/2000/svg" width="16" height="16" viewBox="0 0 16 16">
<title>search-people</title>
<path d="M7 13c3.314 0 6-2.686 6-6s-2.686-6-6-6c-3.314 0-6 2.686-6 6s2.686 6 6 6zM7 14c-3.866 0-7-3.134-7-7s3.134-7 7-7c3.866 0 7 3.134 7 7s-3.134 7-7 7z"></path>
<path d="M7 8c1.105 0 2-0.895 2-2s-0.895-2-2-2c-1.105 0-2 0.895-2 2s0.895 2 2 2zM7 9c-1.657 0-3-1.343-3-3s1.343-3 3-3c1.657 0 3 1.343 3 3s-1.343 3-3 3z"></path>
<path d="M10 12.5v-0.49c0-1.667-1.341-3.010-3-3.010-1.654 0-3 1.349-3 3.010v0.49h-1v-0.49c0-2.215 1.795-4.010 4-4.010 2.209 0 4 1.788 4 4.010v0.49h-1zM10 12.5v-0.49c0-1.667-1.341-3.010-3-3.010-1.654 0-3 1.349-3 3.010v0.49h-1v-0.49c0-2.215 1.795-4.010 4-4.010 2.209 0 4 1.788 4 4.010v0.49h-1zM15.854 15.146c0.195 0.195 0.195 0.512 0 0.707s-0.512 0.195-0.707 0l-3.5-3.5c-0.195-0.195-0.195-0.512 0-0.707s0.512-0.195 0.707 0l3.5 3.5z"></path>
</svg>
