<!-- Generated by IcoMoon.io -->
<svg version="1.1" xmlns="http://www.w3.org/2000/svg" width="16" height="16" viewBox="0 0 16 16">
<title>sent-to-user</title>
<path d="M10.902 7.51c0.375-0.075 0.681 0.278 0.579 0.627l-0.028 0.075-3.5 7.5c-0.128 0.274-0.463 0.367-0.711 0.217l-0.072-0.052-2.138-1.871-1.157 1.324c-0.284 0.324-0.801 0.159-0.869-0.24l-0.007-0.089-0-2.76-2.312-1.85c-0.306-0.245-0.219-0.717 0.123-0.854l0.091-0.027 10-2zM10.128 8.683l-7.979 1.596 1.461 1.168 3.252-0.928c0.423-0.121 0.755 0.31 0.602 0.671l-0.037 0.071-0.051 0.068-1.685 1.924 1.637 1.432 2.8-6.002zM5.507 11.946l-0.987 0.282 0.42 0.366 0.567-0.648z"></path>
<path d="M11 0c1.657 0 3 1.343 3 3s-1.343 3-3 3c-1.657 0-3-1.343-3-3s1.343-3 3-3zM11 1c-1.105 0-2 0.895-2 2s0.895 2 2 2c1.105 0 2-0.895 2-2s-0.895-2-2-2zM5 2c1.105 0 2 0.895 2 2s-0.895 2-2 2c-1.105 0-2-0.895-2-2s0.895-2 2-2zM5 3c-0.552 0-1 0.448-1 1s0.448 1 1 1c0.552 0 1-0.448 1-1s-0.448-1-1-1z"></path>
<path d="M5 5c0.276 0 0.5 0.224 0.5 0.5s-0.224 0.5-0.5 0.5c-1.156 0-2 0.723-2 1.5 0 0.276-0.224 0.5-0.5 0.5s-0.5-0.224-0.5-0.5c0-1.366 1.323-2.5 3-2.5zM11 5c2.886 0 4.897 2.25 4.996 5.266l0.004 0.234v2c0 0.78-0.595 1.42-1.356 1.493l-0.144 0.007h-2.5c-0.276 0-0.5-0.224-0.5-0.5 0-0.245 0.177-0.45 0.41-0.492l0.090-0.008h2.5c0.245 0 0.45-0.177 0.492-0.41l0.008-0.090v-2c0-2.611-1.628-4.5-4-4.5-1.059 0-1.971 0.365-2.665 1.035-0.199 0.192-0.515 0.186-0.707-0.013s-0.186-0.515 0.013-0.707c0.882-0.851 2.043-1.316 3.36-1.316z"></path>
</svg>
