<!-- Generated by IcoMoon.io -->
<svg version="1.1" xmlns="http://www.w3.org/2000/svg" width="16" height="16" viewBox="0 0 16 16">
<title>user-change</title>
<path d="M5.5 6c1.381 0 2.5-1.119 2.5-2.5s-1.119-2.5-2.5-2.5c-1.381 0-2.5 1.119-2.5 2.5s1.119 2.5 2.5 2.5zM5.5 7c-1.933 0-3.5-1.567-3.5-3.5s1.567-3.5 3.5-3.5c1.933 0 3.5 1.567 3.5 3.5s-1.567 3.5-3.5 3.5z"></path>
<path d="M0 16v-4.435c0-3.687 2.693-5.565 6-5.565 2.209 0 3.542 0.333 4 1l-0.825 0.566c-0.203-0.296-1.283-0.566-3.175-0.566-3.036 0-5 1.682-5 4.565v3.435h5c0.276 0 0.5 0.224 0.5 0.5s-0.224 0.5-0.5 0.5v0h-6z"></path>
<path d="M15 9.353v-1.353c0-0.276 0.224-0.5 0.5-0.5s0.5 0.224 0.5 0.5v2.5c0 0.276-0.224 0.5-0.5 0.5h-2.5c-0.276 0-0.5-0.224-0.5-0.5s0.224-0.5 0.5-0.5h1.237c-0.152-0.17-0.325-0.324-0.516-0.457-1.357-0.95-3.228-0.62-4.178 0.737s-0.62 3.228 0.737 4.178c1.357 0.95 3.228 0.62 4.178-0.737 0.106-0.152 0.198-0.312 0.274-0.478 0.115-0.251 0.411-0.362 0.663-0.247s0.362 0.411 0.247 0.663c-0.101 0.221-0.223 0.434-0.364 0.636-1.267 1.81-3.761 2.249-5.571 0.982s-2.249-3.761-0.982-5.571c1.267-1.81 3.761-2.249 5.571-0.982 0.262 0.183 0.498 0.395 0.706 0.63z"></path>
</svg>
