<!-- Generated by IcoMoon.io -->
<svg version="1.1" xmlns="http://www.w3.org/2000/svg" width="16" height="16" viewBox="0 0 16 16">
<title>block-round</title>
<path d="M6.707 10.707l4-4c0.188 0.391 0.293 0.83 0.293 1.293 0 1.657-1.343 3-3 3-0.463 0-0.902-0.105-1.293-0.292l0.001-0.001zM5.292 9.293c-0.187-0.392-0.292-0.83-0.292-1.293 0-1.657 1.343-3 3-3 0.463 0 0.902 0.105 1.293 0.292l-4.001 4.001zM8 16c-4.418 0-8-3.582-8-8s3.582-8 8-8c4.418 0 8 3.582 8 8s-3.582 8-8 8zM8 13c2.761 0 5-2.239 5-5s-2.239-5-5-5c-2.761 0-5 2.239-5 5s2.239 5 5 5z"></path>
</svg>
