<!-- Generated by IcoMoon.io -->
<svg version="1.1" xmlns="http://www.w3.org/2000/svg" width="16" height="16" viewBox="0 0 16 16">
<title>doing</title>
<path d="M8 0c4.418 0 8 3.582 8 8s-3.582 8-8 8c-4.418 0-8-3.582-8-8s3.582-8 8-8zM8 3.429c-0.236 0-0.468 0.018-0.694 0.052 0.075 0.051 0.123 0.137 0.123 0.233 0 0.158-0.128 0.286-0.286 0.286s-0.286-0.128-0.286-0.286c0-0.056 0.016-0.108 0.044-0.153-0.728 0.179-1.387 0.533-1.932 1.015l-0.056-0.006c0.189 0 0.343 0.154 0.343 0.343s-0.154 0.343-0.343 0.343c-0.17 0-0.311-0.124-0.338-0.286-0.223 0.252-0.419 0.529-0.583 0.827 0.075 0.062 0.121 0.155 0.121 0.259 0 0.189-0.154 0.343-0.343 0.343l-0.053-0.005c-0.066 0.176-0.121 0.357-0.166 0.543 0.060-0.051 0.136-0.081 0.219-0.081 0.189 0 0.343 0.154 0.343 0.343s-0.154 0.343-0.343 0.343c-0.129 0-0.242-0.072-0.3-0.177-0.028 0.207-0.042 0.419-0.042 0.635 0 0.090 0.003 0.18 0.008 0.269 0.034-0.154 0.171-0.269 0.335-0.269 0.189 0 0.343 0.154 0.343 0.343s-0.154 0.343-0.343 0.343c-0.145 0-0.268-0.089-0.319-0.216 0.025 0.249 0.070 0.492 0.134 0.727 0.054-0.034 0.117-0.054 0.185-0.054 0.189 0 0.343 0.153 0.343 0.343 0 0.177-0.135 0.323-0.307 0.341 0.042 0.093 0.086 0.186 0.134 0.278 0.052-0.031 0.111-0.048 0.173-0.048 0.189 0 0.343 0.153 0.343 0.343 0 0.12-0.062 0.226-0.155 0.287 0.221 0.305 0.48 0.582 0.769 0.823 0.060-0.051 0.137-0.081 0.221-0.081 0.189 0 0.343 0.153 0.343 0.343 0 0.044-0.008 0.087-0.024 0.126 0.036 0.023 0.073 0.045 0.111 0.067l-0.007-0.078c0-0.252 0.205-0.457 0.457-0.457s0.457 0.205 0.457 0.457c0 0.17-0.093 0.318-0.23 0.397 0.162 0.061 0.329 0.113 0.499 0.155-0.026-0.065-0.040-0.136-0.040-0.209 0-0.316 0.256-0.571 0.571-0.571s0.571 0.256 0.571 0.571c0 0.127-0.042 0.245-0.112 0.34 0.036 0.003 0.074 0.003 0.112 0.003 0.118 0 0.231-0.018 0.338-0.051-0.199-0.089-0.338-0.289-0.338-0.521 0-0.092 0.022-0.178 0.060-0.255l-0.052 0.019-0.066 0.008c-0.158 0-0.286-0.128-0.286-0.286 0-0.042 0.009-0.082 0.025-0.118-0.076 0.039-0.162 0.061-0.254 0.061-0.316 0-0.571-0.256-0.571-0.571s0.256-0.571 0.571-0.571c0.284 0 0.52 0.207 0.564 0.479l0.007 0.093c0 0.132-0.045 0.254-0.12 0.35l0.063-0.007c0.158 0 0.286 0.128 0.286 0.286 0 0.022-0.003 0.044-0.007 0.065 0.096-0.077 0.218-0.122 0.35-0.122 0.232 0 0.431 0.138 0.521 0.336 0.033-0.105 0.051-0.219 0.051-0.336s-0.018-0.231-0.051-0.338c-0.090 0.2-0.289 0.338-0.521 0.338-0.316 0-0.571-0.256-0.571-0.571 0-0.232 0.138-0.432 0.337-0.521-0.106-0.032-0.22-0.050-0.337-0.050-0.326 0-0.636-0.068-0.917-0.191l0.003 0.020c0 0.158-0.128 0.286-0.286 0.286s-0.286-0.128-0.286-0.286c0-0.112 0.064-0.209 0.158-0.256-0.031-0.020-0.060-0.042-0.089-0.065-0.071 0.156-0.228 0.264-0.411 0.264-0.252 0-0.457-0.205-0.457-0.457 0-0.205 0.134-0.378 0.32-0.436-0.186-0.31-0.3-0.671-0.317-1.056l-0.060 0.007c-0.158 0-0.286-0.128-0.286-0.286s0.128-0.286 0.286-0.286c0.035 0 0.069 0.006 0.1 0.018 0.203-1.052 1.13-1.847 2.243-1.847 1.262 0 2.286 1.023 2.286 2.286 0 0.631 0.512 1.143 1.143 1.143s1.143-0.512 1.143-1.143c0-1.921-1.184-3.564-2.863-4.241l0.005-0.044c0 0.158-0.128 0.286-0.286 0.286s-0.286-0.128-0.286-0.286c0-0.048 0.012-0.093 0.032-0.132-0.375-0.101-0.769-0.154-1.175-0.154zM6.8 11.2c0.158 0 0.286 0.128 0.286 0.286s-0.128 0.286-0.286 0.286c-0.158 0-0.286-0.128-0.286-0.286s0.128-0.286 0.286-0.286zM5.029 10.286c0.252 0 0.457 0.205 0.457 0.457s-0.205 0.457-0.457 0.457c-0.252 0-0.457-0.205-0.457-0.457s0.205-0.457 0.457-0.457zM6.286 10.514c0.189 0 0.343 0.153 0.343 0.343s-0.154 0.343-0.343 0.343c-0.189 0-0.343-0.153-0.343-0.343s0.154-0.343 0.343-0.343zM5.657 9.943c0.158 0 0.286 0.128 0.286 0.286s-0.128 0.286-0.286 0.286c-0.158 0-0.286-0.128-0.286-0.286s0.128-0.286 0.286-0.286zM5.029 9.143c0.252 0 0.457 0.205 0.457 0.457s-0.205 0.457-0.457 0.457c-0.252 0-0.457-0.205-0.457-0.457s0.205-0.457 0.457-0.457zM4.4 8.571c0.158 0 0.286 0.128 0.286 0.286s-0.128 0.286-0.286 0.286c-0.158 0-0.286-0.128-0.286-0.286s0.128-0.286 0.286-0.286zM5.143 8.229c0.189 0 0.343 0.153 0.343 0.343s-0.154 0.343-0.343 0.343c-0.189 0-0.343-0.153-0.343-0.343s0.154-0.343 0.343-0.343zM4.971 6.857c0.221 0 0.4 0.179 0.4 0.4s-0.179 0.4-0.4 0.4c-0.221 0-0.4-0.179-0.4-0.4s0.179-0.4 0.4-0.4zM4.914 5.714c0.189 0 0.343 0.154 0.343 0.343s-0.154 0.343-0.343 0.343c-0.189 0-0.343-0.154-0.343-0.343s0.154-0.343 0.343-0.343zM6.057 5.714c0.189 0 0.343 0.154 0.343 0.343s-0.154 0.343-0.343 0.343c-0.189 0-0.343-0.154-0.343-0.343s0.154-0.343 0.343-0.343zM7.143 5.143c0.158 0 0.286 0.128 0.286 0.286s-0.128 0.286-0.286 0.286c-0.158 0-0.286-0.128-0.286-0.286s0.128-0.286 0.286-0.286zM9.429 5.143c0.158 0 0.286 0.128 0.286 0.286s-0.128 0.286-0.286 0.286c-0.158 0-0.286-0.128-0.286-0.286s0.128-0.286 0.286-0.286zM6.057 4.571c0.189 0 0.343 0.154 0.343 0.343s-0.154 0.343-0.343 0.343c-0.189 0-0.343-0.154-0.343-0.343s0.154-0.343 0.343-0.343zM8.286 4.571c0.158 0 0.286 0.128 0.286 0.286s-0.128 0.286-0.286 0.286c-0.158 0-0.286-0.128-0.286-0.286s0.128-0.286 0.286-0.286z"></path>
</svg>
