<!-- Generated by IcoMoon.io -->
<svg version="1.1" xmlns="http://www.w3.org/2000/svg" width="16" height="16" viewBox="0 0 16 16">
<title>edit-round</title>
<path d="M8 0c4.418 0 8 3.582 8 8s-3.582 8-8 8c-4.418 0-8-3.582-8-8s3.582-8 8-8zM11.5 12h-7c-0.276 0-0.5 0.224-0.5 0.5 0 0.245 0.177 0.45 0.41 0.492l0.090 0.008h7c0.276 0 0.5-0.224 0.5-0.5 0-0.245-0.177-0.45-0.41-0.492l-0.090-0.008zM7.725 3.15c-0.213-0.123-0.478-0.072-0.631 0.109l-0.052 0.074-3.056 5.292c-0.197 1.341-0.151 2.094 0.138 2.261 0.272 0.157 0.886-0.132 1.843-0.868l0.184-0.143 3.056-5.292c0.123-0.213 0.072-0.478-0.109-0.631l-0.074-0.052-1.299-0.75zM11.5 9h-2c-0.276 0-0.5 0.224-0.5 0.5 0 0.245 0.177 0.45 0.41 0.492l0.090 0.008h2c0.276 0 0.5-0.224 0.5-0.5 0-0.245-0.177-0.45-0.41-0.492l-0.090-0.008zM11.5 7h-1c-0.276 0-0.5 0.224-0.5 0.5 0 0.245 0.177 0.45 0.41 0.492l0.090 0.008h1c0.276 0 0.5-0.224 0.5-0.5 0-0.245-0.177-0.45-0.41-0.492l-0.090-0.008z"></path>
</svg>
