<!-- Generated by IcoMoon.io -->
<svg version="1.1" xmlns="http://www.w3.org/2000/svg" width="16" height="16" viewBox="0 0 16 16">
<title>expired</title>
<path d="M8 16c-4.418 0-8-3.582-8-8s3.582-8 8-8c4.418 0 8 3.582 8 8s-3.582 8-8 8zM10 4v-0.5c0-0.276-0.224-0.5-0.5-0.5s-0.5 0.224-0.5 0.5v0.5h-2v-0.5c0-0.276-0.224-0.5-0.5-0.5s-0.5 0.224-0.5 0.5v0.5h-1c-0.552 0-0.999 0.447-1 0.999v6.001c0 0.552 0.398 1 0.889 1h1.611c0.333 0 0.5-0.167 0.5-0.5s-0.167-0.5-0.5-0.5h-1.5v-5h6v1h1v-2c-0.001-0.553-0.448-1-1-1h-1zM12.414 10l0.793-0.793c0.391-0.391 0.391-1.024 0-1.414s-1.024-0.391-1.414 0l-0.793 0.793-0.793-0.793c-0.391-0.391-1.024-0.391-1.414 0s-0.391 1.024 0 1.414l0.793 0.793-0.793 0.793c-0.391 0.391-0.391 1.024 0 1.414s1.024 0.391 1.414 0l0.793-0.793 0.793 0.793c0.391 0.391 1.024 0.391 1.414 0s0.391-1.024 0-1.414l-0.793-0.793z"></path>
</svg>
