<!-- Generated by IcoMoon.io -->
<svg version="1.1" xmlns="http://www.w3.org/2000/svg" width="16" height="16" viewBox="0 0 16 16">
<title>eye-close</title>
<path d="M14.5 5c0.25 0 0.5 0.224 0.5 0.5 0 0.907-0.527 1.749-1.341 2.452l1.195 1.194c0.195 0.195 0.195 0.512 0 0.707s-0.512 0.195-0.707 0l-1.301-1.301c-0.794 0.504-1.733 0.901-2.685 1.15l0.787 1.574c0.123 0.247 0.023 0.547-0.224 0.671s-0.547 0.023-0.671-0.224l-0.907-1.812c-0.391 0.058-0.776 0.088-1.146 0.088s-0.755-0.030-1.146-0.088l-0.907 1.812c-0.123 0.247-0.424 0.347-0.671 0.224s-0.347-0.424-0.224-0.671l0.787-1.574c-0.952-0.25-1.891-0.646-2.685-1.15l-1.301 1.301c-0.195 0.195-0.512 0.195-0.707 0s-0.195-0.512 0-0.707l1.195-1.194c-0.815-0.704-1.341-1.545-1.341-2.452 0-0.276 0.224-0.5 0.5-0.5s0.5 0.224 0.5 0.5c0 1.626 3.172 3.5 6 3.5s6-1.874 6-3.5c0-0.25 0.25-0.5 0.5-0.5z"></path>
</svg>
