<!-- Generated by IcoMoon.io -->
<svg version="1.1" xmlns="http://www.w3.org/2000/svg" width="16" height="16" viewBox="0 0 16 16">
<title>help-o</title>
<path d="M8 14c3.314 0 6-2.686 6-6s-2.686-6-6-6c-3.314 0-6 2.686-6 6s2.686 6 6 6zM8 1c3.866 0 7 3.134 7 7s-3.134 7-7 7c-3.866 0-7-3.134-7-7s3.134-7 7-7zM8 10.333c-0.644 0-1.167 0.522-1.167 1.167s0.522 1.167 1.167 1.167c0.644 0 1.167-0.522 1.167-1.167s-0.522-1.167-1.167-1.167zM8 3.917c-1.468 0-2.333 0.89-2.333 2.333 0 0.322 0.261 0.583 0.583 0.583s0.583-0.261 0.583-0.583c0-0.806 0.35-1.167 1.167-1.167 0.845 0 1.167 0.322 1.167 1.167 0 0.481-0.397 0.879-1.351 1.197-0.238 0.079-0.399 0.302-0.399 0.553v0 1.167c0 0.322 0.261 0.583 0.583 0.583s0.583-0.261 0.583-0.583v0-0.762c1.128-0.47 1.75-1.189 1.75-2.155 0-1.489-0.845-2.333-2.333-2.333z"></path>
</svg>
