<!-- Generated by IcoMoon.io -->
<svg version="1.1" xmlns="http://www.w3.org/2000/svg" width="16" height="16" viewBox="0 0 16 16">
<title>lock-round</title>
<path d="M2.343 13.657c3.124 3.124 8.19 3.124 11.314 0s3.124-8.19 0-11.314c-3.124-3.124-8.19-3.124-11.314 0s-3.124 8.19 0 11.314zM8 3c1.105 0 2 0.895 2 2v2c0.552 0 1 0.448 1 1v4c0 0.552-0.448 1-1 1h-4c-0.552 0-1-0.448-1-1v-4c0-0.552 0.448-1 1-1v-2c0-1.105 0.895-2 2-2zM8 4l0.117 0.007c0.497 0.058 0.883 0.48 0.883 0.993v2h-2v-2l0.007-0.117c0.058-0.497 0.48-0.883 0.993-0.883z"></path>
</svg>
