<!-- Generated by IcoMoon.io -->
<svg version="1.1" xmlns="http://www.w3.org/2000/svg" width="16" height="16" viewBox="0 0 16 16">
<title>notice</title>
<path d="M8 0c0.552 0 1 0.448 1 1v1l-0.006 0.111c1.819 0.414 3.234 1.94 3.448 3.864l0.558 5.024 2 2c0.276 0 0.5 0.224 0.5 0.5s-0.224 0.5-0.5 0.5h-14c-0.276 0-0.5-0.224-0.5-0.5s0.224-0.5 0.5-0.5l2-2 0.558-5.024c0.214-1.924 1.629-3.45 3.448-3.864-0.004-0.036-0.006-0.074-0.006-0.111v-1c0-0.552 0.448-1 1-1zM8 3c-1.768 0-3.253 1.329-3.448 3.086l-0.597 5.373-1.541 1.541h11.172l-1.541-1.541-0.597-5.373c-0.195-1.757-1.68-3.086-3.448-3.086z"></path>
<path d="M6.5 15h3c0.276 0 0.5 0.224 0.5 0.5s-0.224 0.5-0.5 0.5h-3c-0.276 0-0.5-0.224-0.5-0.5s0.224-0.5 0.5-0.5z"></path>
<path d="M4.418 1.007c0.272-0.045 0.53 0.139 0.575 0.411s-0.139 0.53-0.411 0.575c-1.732 0.289-2.582 1.564-2.582 4.007 0 0.276-0.224 0.5-0.5 0.5s-0.5-0.224-0.5-0.5c0-2.891 1.15-4.615 3.418-4.993z"></path>
<path d="M11.582 1.007c-0.272-0.045-0.53 0.139-0.575 0.411s0.139 0.53 0.411 0.575c1.732 0.289 2.582 1.564 2.582 4.007 0 0.276 0.224 0.5 0.5 0.5s0.5-0.224 0.5-0.5c0-2.891-1.15-4.615-3.418-4.993z"></path>
</svg>
