<!-- Generated by IcoMoon.io -->
<svg version="1.1" xmlns="http://www.w3.org/2000/svg" width="16" height="16" viewBox="0 0 16 16">
<title>pin</title>
<path d="M11.389 0.373l4.243 4.243c0.391 0.391 0.391 1.024 0 1.414l-0.707 0.707c-0.391 0.391-1.024 0.391-1.414 0l-0.404-0.404-2.425 3.232 0.512 1.535c0.12 0.359 0.026 0.755-0.242 1.023l-0.977 0.977-3.182-3.183-2.893 2.894c-1.371 1.371-2.175 1.939-2.411 1.703s0.332-1.039 1.703-2.411l2.893-2.893-3.182-3.181 0.977-0.977c0.268-0.268 0.664-0.361 1.023-0.242l1.535 0.512 3.232-2.425-0.404-0.404c-0.391-0.391-0.391-1.024 0-1.414l0.707-0.707c0.391-0.391 1.024-0.391 1.414 0zM10.681 1.080l-0.707 0.707 0.404 0.404c0.43 0.43 0.38 1.142-0.107 1.507l-3.232 2.425c-0.263 0.197-0.605 0.253-0.916 0.149l-1.535-0.512-0.27 0.27 5.657 5.657 0.27-0.27-0.512-1.535c-0.104-0.311-0.048-0.654 0.149-0.916l2.425-3.232c0.365-0.487 1.077-0.537 1.507-0.107l0.404 0.404 0.707-0.707-4.243-4.243z"></path>
</svg>
