<!-- Generated by IcoMoon.io -->
<svg version="1.1" xmlns="http://www.w3.org/2000/svg" width="16" height="16" viewBox="0 0 16 16">
<title>remind-o</title>
<path d="M8.872 2.589c-0.090-0.16-0.222-0.292-0.381-0.381-0.481-0.271-1.091-0.1-1.362 0.381l-5.58 9.921c-0.084 0.15-0.128 0.319-0.128 0.49 0 0.552 0.448 1 1 1h11.161c0.172 0 0.341-0.044 0.49-0.128 0.481-0.271 0.652-0.88 0.381-1.362l-5.58-9.921zM9.743 2.099l5.58 9.921c0.542 0.963 0.2 2.182-0.763 2.724-0.299 0.168-0.637 0.257-0.981 0.257h-11.161c-1.105 0-2-0.895-2-2 0-0.343 0.088-0.681 0.257-0.981l5.58-9.921c0.542-0.963 1.761-1.304 2.724-0.763 0.319 0.18 0.583 0.443 0.763 0.763z"></path>
<path d="M8 5c0.552 0 1 0.448 1 1v3c0 0.552-0.448 1-1 1s-1-0.448-1-1v-3c0-0.552 0.448-1 1-1z"></path>
<path d="M8 11c0.552 0 1 0.448 1 1s-0.448 1-1 1c-0.552 0-1-0.448-1-1s0.448-1 1-1z"></path>
</svg>
