<!-- Generated by IcoMoon.io -->
<svg version="1.1" xmlns="http://www.w3.org/2000/svg" width="16" height="16" viewBox="0 0 16 16">
<title>remind-tri</title>
<path d="M8.647 0.172c0.218 0.124 0.398 0.308 0.519 0.531l6.666 12.273c0.358 0.658 0.125 1.488-0.519 1.854-0.198 0.112-0.421 0.171-0.647 0.171h-13.331c-0.737 0-1.334-0.61-1.334-1.363 0-0.232 0.058-0.459 0.168-0.662l6.666-12.273c0.358-0.658 1.17-0.896 1.814-0.531zM8 11c-0.552 0-1 0.448-1 1s0.448 1 1 1c0.552 0 1-0.448 1-1s-0.448-1-1-1zM8 4c-0.552 0-1 0.448-1 1v0 4c0 0.552 0.448 1 1 1s1-0.448 1-1v0-4c0-0.552-0.448-1-1-1z"></path>
</svg>
