<!-- Generated by IcoMoon.io -->
<svg version="1.1" xmlns="http://www.w3.org/2000/svg" width="16" height="16" viewBox="0 0 16 16">
<title>running</title>
<path d="M8 16c-4.418 0-8-3.582-8-8s3.582-8 8-8c4.418 0 8 3.582 8 8s-3.582 8-8 8zM8.793 9.793c-0.391 0.391-0.391 1.024 0 1.414s1.024 0.391 1.414 0l2.5-2.5c0.391-0.391 0.391-1.024 0-1.414l-2.5-2.5c-0.391-0.391-1.024-0.391-1.414 0s-0.391 1.024 0 1.414l1.793 1.793-1.793 1.793zM5.586 8l-1.793 1.793c-0.391 0.391-0.391 1.024 0 1.414s1.024 0.391 1.414 0l2.5-2.5c0.391-0.391 0.391-1.024 0-1.414l-2.5-2.5c-0.391-0.391-1.024-0.391-1.414 0s-0.391 1.024 0 1.414l1.793 1.793z"></path>
</svg>
