<!-- Generated by IcoMoon.io -->
<svg version="1.1" xmlns="http://www.w3.org/2000/svg" width="16" height="16" viewBox="0 0 16 16">
<title>send-round</title>
<path d="M8 0c4.418 0 8 3.582 8 8s-3.582 8-8 8c-4.418 0-8-3.582-8-8s3.582-8 8-8zM13 8l-8 1-0.751 3.005-0.014 0.089c-0.016 0.237 0.14 0.458 0.378 0.517 0.081 0.020 0.166 0.020 0.246-0.001l0.078-0.027 7.149-3.178 0.136-0.068c0.394-0.224 0.667-0.609 0.751-1.050l0.021-0.149 0.006-0.139zM4.694 3.375l-0.082 0.013c-0.238 0.060-0.393 0.281-0.378 0.517l0.014 0.089 0.751 3.005 8 1-0.006-0.139c-0.045-0.502-0.334-0.95-0.772-1.198l-0.136-0.068-7.149-3.178c-0.076-0.034-0.16-0.048-0.242-0.042z"></path>
</svg>
