<!-- Generated by IcoMoon.io -->
<svg version="1.1" xmlns="http://www.w3.org/2000/svg" width="16" height="16" viewBox="0 0 16 16">
<title>unvisible</title>
<path d="M16 8c-2.388 3.333-5.054 5-8 5-1.378 0-2.694-0.365-3.95-1.094l0.657-0.777c1.060 0.584 2.157 0.871 3.293 0.871 2.419 0 4.662-1.303 6.753-4-1.066-1.374-2.17-2.386-3.318-3.048l0.018 0.030c0.347 0.593 0.546 1.282 0.546 2.019 0 2.209-1.791 4-4 4-0.93 0-1.786-0.317-2.465-0.85l0.647-0.764c0.504 0.385 1.134 0.613 1.818 0.613 1.657 0 3-1.343 3-3 0-0.863-0.364-1.641-0.948-2.188l0.994-1.175c1.767 0.765 3.418 2.219 4.954 4.364zM8 3c0.696 0 1.376 0.093 2.041 0.279l-0.827 0.977c-0.371-0.164-0.782-0.256-1.214-0.256-1.657 0-3 1.343-3 3 0 0.61 0.182 1.177 0.495 1.651l-0.666 0.788c-0.52-0.675-0.829-1.521-0.829-2.438 0-0.749 0.206-1.449 0.563-2.048-1.146 0.662-2.251 1.674-3.317 3.048 0.844 1.089 1.713 1.95 2.608 2.59l-0.648 0.765c-1.12-0.815-2.189-1.934-3.207-3.355 2.388-3.333 5.054-5 8-5z"></path>
<path d="M13.823 1.118c-0.187-0.159-0.457-0.155-0.64-0.005l-0.064 0.063-11 13c-0.178 0.211-0.152 0.526 0.059 0.705 0.187 0.159 0.457 0.155 0.64 0.005l0.064-0.063 11-13c0.178-0.211 0.152-0.526-0.059-0.705z"></path>
</svg>
