<!-- Generated by IcoMoon.io -->
<svg version="1.1" xmlns="http://www.w3.org/2000/svg" width="16" height="16" viewBox="0 0 16 16">
<title>update</title>
<path d="M8 16c-4.418 0-8-3.582-8-8s3.582-8 8-8c4.418 0 8 3.582 8 8s-3.582 8-8 8zM5.555 6.832l2.445-1.63 2.445 1.63c0.46 0.306 1.080 0.182 1.387-0.277s0.182-1.080-0.277-1.387l-3-2c-0.336-0.224-0.774-0.224-1.109 0l-3 2c-0.46 0.306-0.584 0.927-0.277 1.387s0.927 0.584 1.387 0.277zM5.555 11.832l2.445-1.63 2.445 1.63c0.46 0.306 1.080 0.182 1.387-0.277s0.182-1.080-0.277-1.387l-3-2c-0.336-0.224-0.774-0.224-1.109 0l-3 2c-0.46 0.306-0.584 0.927-0.277 1.387s0.927 0.584 1.387 0.277z"></path>
</svg>
