<!-- Generated by IcoMoon.io -->
<svg version="1.1" xmlns="http://www.w3.org/2000/svg" width="16" height="16" viewBox="0 0 16 16">
<title>verify</title>
<path d="M8 0c4.418 0 8 3.582 8 8s-3.582 8-8 8c-4.418 0-8-3.582-8-8s3.582-8 8-8zM5.555 7.168c-0.46-0.306-1.080-0.182-1.387 0.277s-0.182 1.080 0.277 1.387v0l1.752 1.168-1.752 1.168c-0.46 0.306-0.584 0.927-0.277 1.387s0.927 0.584 1.387 0.277v0l3-2c0.594-0.396 0.594-1.268 0-1.664v0zM10.445 3.168l-3 2c-0.594 0.396-0.594 1.268 0 1.664l3 2c0.46 0.306 1.080 0.182 1.387-0.277s0.182-1.080-0.277-1.387l-1.752-1.168 1.752-1.168c0.46-0.306 0.584-0.927 0.277-1.387s-0.927-0.584-1.387-0.277z"></path>
</svg>
