<!-- Generated by IcoMoon.io -->
<svg version="1.1" xmlns="http://www.w3.org/2000/svg" width="16" height="16" viewBox="0 0 16 16">
<title>visible</title>
<path d="M8 4c-2.419 0-4.662 1.303-6.753 4 2.092 2.697 4.334 4 6.753 4s4.662-1.303 6.753-4c-2.092-2.697-4.334-4-6.753-4zM8 13c-2.946 0-5.612-1.667-8-5 2.388-3.333 5.054-5 8-5s5.612 1.667 8 5c-2.388 3.333-5.054 5-8 5z"></path>
<path d="M8 10c1.657 0 3-1.343 3-3s-1.343-3-3-3c-1.657 0-3 1.343-3 3s1.343 3 3 3zM8 11c-2.209 0-4-1.791-4-4s1.791-4 4-4c2.209 0 4 1.791 4 4s-1.791 4-4 4z"></path>
</svg>
