<!-- Generated by IcoMoon.io -->
<svg version="1.1" xmlns="http://www.w3.org/2000/svg" width="16" height="16" viewBox="0 0 16 16">
<title>bar-line-chart</title>
<path d="M0.5 9c0.276 0 0.5 0.224 0.5 0.5v3c0 0.276-0.224 0.5-0.5 0.5s-0.5-0.224-0.5-0.5v-3c0-0.276 0.224-0.5 0.5-0.5z"></path>
<path d="M5.5 10c0.276 0 0.5 0.224 0.5 0.5v2c0 0.276-0.224 0.5-0.5 0.5s-0.5-0.224-0.5-0.5v-2c0-0.276 0.224-0.5 0.5-0.5z"></path>
<path d="M10.5 7c0.276 0 0.5 0.224 0.5 0.5v5c0 0.276-0.224 0.5-0.5 0.5s-0.5-0.224-0.5-0.5v-5c0-0.276 0.224-0.5 0.5-0.5z"></path>
<path d="M15.5 5c0.276 0 0.5 0.224 0.5 0.5v7c0 0.276-0.224 0.5-0.5 0.5s-0.5-0.224-0.5-0.5v-7c0-0.276 0.224-0.5 0.5-0.5z"></path>
<path d="M0.5 15h15c0.276 0 0.5 0.224 0.5 0.5s-0.224 0.5-0.5 0.5h-15c-0.276 0-0.5-0.224-0.5-0.5s0.224-0.5 0.5-0.5z"></path>
<path d="M10.116 0.18c0.119-0.143 0.305-0.206 0.482-0.17l0.088 0.026 5 2c0.256 0.103 0.381 0.394 0.279 0.65-0.091 0.228-0.331 0.352-0.563 0.304l-0.086-0.026-4.662-1.865-4.768 5.721c-0.119 0.143-0.305 0.206-0.482 0.17l-0.088-0.026-5-2c-0.256-0.103-0.381-0.394-0.279-0.65 0.091-0.228 0.331-0.352 0.563-0.304l0.086 0.026 4.662 1.864 4.768-5.72z"></path>
</svg>
