<!-- Generated by IcoMoon.io -->
<svg version="1.1" xmlns="http://www.w3.org/2000/svg" width="16" height="16" viewBox="0 0 16 16">
<title>bar-chart</title>
<path d="M15.5 0c0.276 0 0.5 0.224 0.5 0.5v12c0 0.276-0.224 0.5-0.5 0.5s-0.5-0.224-0.5-0.5v-12c0-0.276 0.224-0.5 0.5-0.5z"></path>
<path d="M0.5 8c0.276 0 0.5 0.224 0.5 0.5v4c0 0.276-0.224 0.5-0.5 0.5s-0.5-0.224-0.5-0.5v-4c0-0.276 0.224-0.5 0.5-0.5z"></path>
<path d="M5.5 3c0.276 0 0.5 0.224 0.5 0.5v9c0 0.276-0.224 0.5-0.5 0.5s-0.5-0.224-0.5-0.5v-9c0-0.276 0.224-0.5 0.5-0.5z"></path>
<path d="M10.5 5c0.276 0 0.5 0.224 0.5 0.5v7c0 0.276-0.224 0.5-0.5 0.5s-0.5-0.224-0.5-0.5v-7c0-0.276 0.224-0.5 0.5-0.5z"></path>
<path d="M0.5 15h15c0.276 0 0.5 0.224 0.5 0.5s-0.224 0.5-0.5 0.5h-15c-0.276 0-0.5-0.224-0.5-0.5s0.224-0.5 0.5-0.5z"></path>
</svg>
