<!-- Generated by IcoMoon.io -->
<svg version="1.1" xmlns="http://www.w3.org/2000/svg" width="16" height="16" viewBox="0 0 16 16">
<title>bar-chart-horizontal</title>
<path d="M0.5 0c0.276 0 0.5 0.224 0.5 0.5v15c0 0.276-0.224 0.5-0.5 0.5s-0.5-0.224-0.5-0.5v-15c0-0.276 0.224-0.5 0.5-0.5z"></path>
<path d="M3.5 0h10c0.276 0 0.5 0.224 0.5 0.5s-0.224 0.5-0.5 0.5h-10c-0.276 0-0.5-0.224-0.5-0.5s0.224-0.5 0.5-0.5z"></path>
<path d="M3.5 5h12c0.276 0 0.5 0.224 0.5 0.5s-0.224 0.5-0.5 0.5h-12c-0.276 0-0.5-0.224-0.5-0.5s0.224-0.5 0.5-0.5z"></path>
<path d="M3.5 10h6c0.276 0 0.5 0.224 0.5 0.5s-0.224 0.5-0.5 0.5h-6c-0.276 0-0.5-0.224-0.5-0.5s0.224-0.5 0.5-0.5z"></path>
<path d="M3.5 15h8c0.276 0 0.5 0.224 0.5 0.5s-0.224 0.5-0.5 0.5h-8c-0.276 0-0.5-0.224-0.5-0.5s0.224-0.5 0.5-0.5z"></path>
</svg>
