<!-- Generated by IcoMoon.io -->
<svg version="1.1" xmlns="http://www.w3.org/2000/svg" width="16" height="16" viewBox="0 0 16 16">
<title>donut-chart</title>
<path d="M5.993 0.254l1.016 4.914c-1.17 0.409-2.009 1.523-2.009 2.832 0 1.657 1.343 3 3 3 1.236 0 2.297-0.747 2.756-1.814l0.068-0.171 4.923 0.988c-0.889 3.449-4.021 5.997-7.747 5.997-4.418 0-8-3.582-8-8 0-3.636 2.426-6.706 5.748-7.679l0.245-0.067zM5.242 1.563l-0.189 0.085c-2.422 1.124-4.053 3.576-4.053 6.352 0 3.866 3.134 7 7 7 2.777 0 5.23-1.632 6.353-4.055l0.082-0.186-3.060-0.614-0.078 0.122c-0.692 1.006-1.823 1.661-3.085 1.728l-0.212 0.006c-2.209 0-4-1.791-4-4 0-1.371 0.696-2.609 1.789-3.334l0.083-0.054-0.63-3.049z"></path>
<path d="M8 0c4.335 0 7.865 3.448 7.996 7.751l0.004 0.249h-5c0-1.598-1.249-2.904-2.824-2.995l-0.176-0.005v-5zM9 1.071v3.055l0.155 0.043c1.28 0.386 2.29 1.395 2.675 2.675l0.042 0.155h3.055l-0.027-0.182c-0.496-2.919-2.8-5.223-5.719-5.719l-0.182-0.028z"></path>
</svg>
