<!-- Generated by IcoMoon.io -->
<svg version="1.1" xmlns="http://www.w3.org/2000/svg" width="16" height="16" viewBox="0 0 16 16">
<title>funnel-steps</title>
<path d="M0.5 6c0.276 0 0.5 0.224 0.5 0.5v8c0 0.276-0.224 0.5-0.5 0.5s-0.5-0.224-0.5-0.5v-8c0-0.276 0.224-0.5 0.5-0.5z"></path>
<path d="M7.5 10c-0.276 0-0.5 0.224-0.5 0.5v4c0 0.276 0.224 0.5 0.5 0.5s0.5-0.224 0.5-0.5v-4c0-0.276-0.224-0.5-0.5-0.5z"></path>
<path d="M4 1l2 1.5-2 1.5h-3.5c-0.276 0-0.5-0.224-0.5-0.5v-2c0-0.276 0.224-0.5 0.5-0.5h3.5zM3.667 2h-2.667v1h2.667l0.666-0.5-0.666-0.5zM9 5l2 1.5-2 1.5h-3.5c-0.276 0-0.5-0.224-0.5-0.5v-2c0-0.276 0.224-0.5 0.5-0.5h3.5zM8.667 6h-2.667v1h2.667l0.666-0.5-0.666-0.5zM14 9l2 1.5-2 1.5h-3.5c-0.276 0-0.5-0.224-0.5-0.5v-2c0-0.276 0.224-0.5 0.5-0.5h3.5zM13.667 10h-2.667v1h2.667l0.666-0.5-0.666-0.5z"></path>
<path d="M14.5 13c-0.276 0-0.5 0.224-0.5 0.5v1c0 0.276 0.224 0.5 0.5 0.5s0.5-0.224 0.5-0.5v-1c0-0.276-0.224-0.5-0.5-0.5z"></path>
</svg>
