<!-- Generated by IcoMoon.io -->
<svg version="1.1" xmlns="http://www.w3.org/2000/svg" width="16" height="16" viewBox="0 0 16 16">
<title>funnel-trend</title>
<path d="M0.5 5c0.276 0 0.5 0.224 0.5 0.5v9c0 0.276-0.224 0.5-0.5 0.5s-0.5-0.224-0.5-0.5v-9c0-0.276 0.224-0.5 0.5-0.5z"></path>
<path d="M15.5 11c0.276 0 0.5 0.224 0.5 0.5v3c0 0.276-0.224 0.5-0.5 0.5s-0.5-0.224-0.5-0.5v-3c0-0.276 0.224-0.5 0.5-0.5z"></path>
<path d="M5.5 8c0.276 0 0.5 0.224 0.5 0.5v6c0 0.276-0.224 0.5-0.5 0.5s-0.5-0.224-0.5-0.5v-6c0-0.276 0.224-0.5 0.5-0.5z"></path>
<path d="M10.5 9c0.276 0 0.5 0.224 0.5 0.5v5c0 0.276-0.224 0.5-0.5 0.5s-0.5-0.224-0.5-0.5v-5c0-0.276 0.224-0.5 0.5-0.5z"></path>
<path d="M0.11 1.188c0.153-0.192 0.419-0.241 0.628-0.128l0.075 0.050 4.864 3.89h4.824c0.060 0 0.12 0.011 0.176 0.032l0.081 0.039 5 3c0.237 0.142 0.314 0.449 0.171 0.686-0.126 0.21-0.383 0.295-0.605 0.211l-0.081-0.039-4.881-2.929h-4.862c-0.085 0-0.168-0.022-0.242-0.063l-0.070-0.047-5-4c-0.216-0.172-0.251-0.487-0.078-0.703z"></path>
</svg>
