<!-- Generated by IcoMoon.io -->
<svg version="1.1" xmlns="http://www.w3.org/2000/svg" width="16" height="16" viewBox="0 0 16 16">
<title>funnel-time</title>
<path d="M5.5 2h10c0.276 0 0.5 0.224 0.5 0.5s-0.224 0.5-0.5 0.5h-10c-0.276 0-0.5-0.224-0.5-0.5s0.224-0.5 0.5-0.5z"></path>
<path d="M5.5 6h5c0.276 0 0.5 0.224 0.5 0.5s-0.224 0.5-0.5 0.5h-5c-0.276 0-0.5-0.224-0.5-0.5s0.224-0.5 0.5-0.5z"></path>
<path d="M5.5 10h2c0.276 0 0.5 0.224 0.5 0.5s-0.224 0.5-0.5 0.5h-2c-0.276 0-0.5-0.224-0.5-0.5s0.224-0.5 0.5-0.5z"></path>
<path d="M5.5 14c0.276 0 0.5 0.224 0.5 0.5s-0.224 0.5-0.5 0.5c-0.276 0-0.5-0.224-0.5-0.5s0.224-0.5 0.5-0.5z"></path>
<path d="M0.146 1.146c0.174-0.174 0.443-0.193 0.638-0.058l0.069 0.058 0.646 0.647 0.646-0.647c0.174-0.174 0.443-0.193 0.638-0.058l0.069 0.058c0.174 0.174 0.193 0.443 0.058 0.638l-0.058 0.069-1 1c-0.174 0.174-0.443 0.193-0.638 0.058l-0.069-0.058-1-1c-0.195-0.195-0.195-0.512 0-0.707zM0.146 5.146c0.174-0.174 0.443-0.193 0.638-0.058l0.069 0.058 0.646 0.647 0.646-0.647c0.174-0.174 0.443-0.193 0.638-0.058l0.069 0.058c0.174 0.174 0.193 0.443 0.058 0.638l-0.058 0.069-1 1c-0.174 0.174-0.443 0.193-0.638 0.058l-0.069-0.058-1-1c-0.195-0.195-0.195-0.512 0-0.707zM0.146 9.146c0.174-0.174 0.443-0.193 0.638-0.058l0.069 0.058 0.646 0.647 0.646-0.647c0.174-0.174 0.443-0.193 0.638-0.058l0.069 0.058c0.174 0.174 0.193 0.443 0.058 0.638l-0.058 0.069-1 1c-0.174 0.174-0.443 0.193-0.638 0.058l-0.069-0.058-1-1c-0.195-0.195-0.195-0.512 0-0.707zM0.146 13.146c0.174-0.174 0.443-0.193 0.638-0.058l0.069 0.058 0.646 0.647 0.646-0.647c0.174-0.174 0.443-0.193 0.638-0.058l0.069 0.058c0.174 0.174 0.193 0.443 0.058 0.638l-0.058 0.069-1 1c-0.174 0.174-0.443 0.193-0.638 0.058l-0.069-0.058-1-1c-0.195-0.195-0.195-0.512 0-0.707z"></path>
</svg>
