<!-- Generated by IcoMoon.io -->
<svg version="1.1" xmlns="http://www.w3.org/2000/svg" width="16" height="16" viewBox="0 0 16 16">
<title>line-chart</title>
<path d="M0.5 15h15c0.276 0 0.5 0.224 0.5 0.5s-0.224 0.5-0.5 0.5h-15c-0.276 0-0.5-0.224-0.5-0.5s0.224-0.5 0.5-0.5z"></path>
<path d="M15.093 0.209c0.161-0.225 0.473-0.277 0.697-0.116 0.2 0.143 0.263 0.405 0.162 0.62l-0.046 0.078-5 7c-0.117 0.164-0.319 0.239-0.511 0.198l-0.081-0.025-4.662-1.865-4.768 5.721c-0.157 0.189-0.424 0.232-0.63 0.115l-0.074-0.051c-0.189-0.157-0.232-0.424-0.115-0.63l0.051-0.074 5-6c0.119-0.143 0.305-0.206 0.482-0.17l0.088 0.026 4.635 1.853 4.772-6.68z"></path>
</svg>
