<!-- Generated by IcoMoon.io -->
<svg version="1.1" xmlns="http://www.w3.org/2000/svg" width="16" height="16" viewBox="0 0 16 16">
<title>numbers</title>
<path d="M1 2h-0.5c-0.276 0-0.5-0.224-0.5-0.5s0.224-0.5 0.5-0.5h0.5v-0.5c0-0.276 0.224-0.5 0.5-0.5s0.5 0.224 0.5 0.5v15.5h-1v-14zM15 8c0.513 0 0.935 0.386 0.993 0.883l0.007 0.117v4.5l-0.005 0.164c-0.085 1.304-1.169 2.336-2.495 2.336s-2.41-1.032-2.495-2.336l-0.005-0.164v-2c0-0.276 0.224-0.5 0.5-0.5s0.5 0.224 0.5 0.5v2l0.007 0.144c0.073 0.761 0.713 1.356 1.493 1.356s1.42-0.595 1.493-1.356l0.007-0.144v-5.5zM15 7v1h-2.5c-0.276 0-0.5-0.224-0.5-0.5s0.224-0.5 0.5-0.5h2.5zM13.5 0c1.325 0 2.41 1.032 2.495 2.336l0.005 0.164v3.5c0 0.513-0.386 0.936-0.883 0.993l-0.117 0.007v-4.5c0-0.828-0.672-1.5-1.5-1.5-0.78 0-1.42 0.595-1.493 1.356l-0.007 0.144v1c0 0.276-0.224 0.5-0.5 0.5s-0.5-0.224-0.5-0.5v-1c0-1.381 1.119-2.5 2.5-2.5zM9 5.298c0 0.505-0.153 0.996-0.436 1.41l-0.112 0.152-2.685 3.357c-0.447 0.559-0.711 1.239-0.759 1.949l-0.008 0.238v2.597h3.5c0.276 0 0.5 0.224 0.5 0.5s-0.224 0.5-0.5 0.5h-4.5v-3.597c0-0.937 0.292-1.848 0.833-2.608l0.154-0.203 2.685-3.357c0.182-0.228 0.294-0.503 0.322-0.792l0.007-0.145v-2.798c0-0.828-0.672-1.5-1.5-1.5-0.78 0-1.42 0.595-1.493 1.356l-0.007 0.144v2c0 0.276-0.224 0.5-0.5 0.5s-0.5-0.224-0.5-0.5v-2c0-1.381 1.119-2.5 2.5-2.5 1.325 0 2.41 1.032 2.495 2.336l0.005 0.164v2.798z"></path>
</svg>
