<!-- Generated by IcoMoon.io -->
<svg version="1.1" xmlns="http://www.w3.org/2000/svg" width="16" height="16" viewBox="0 0 16 16">
<title>pie-chart</title>
<path d="M9 1.071v5.929h5.929c-0.439-3.066-2.863-5.491-5.929-5.929zM8 0c4.418 0 8 3.582 8 8h-7c-0.552 0-1-0.448-1-1v-7z"></path>
<path d="M5.316 0.462c0.26-0.093 0.546 0.043 0.639 0.303s-0.043 0.546-0.303 0.639c-2.766 0.985-4.651 3.612-4.651 6.596 0 3.866 3.134 7 7 7 2.977 0 5.599-1.876 6.59-4.633 0.093-0.26 0.38-0.395 0.64-0.301s0.395 0.38 0.301 0.64c-1.132 3.151-4.128 5.295-7.531 5.295-4.418 0-8-3.582-8-8 0-3.411 2.154-6.413 5.316-7.538z"></path>
</svg>
