<!-- Generated by IcoMoon.io -->
<svg version="1.1" xmlns="http://www.w3.org/2000/svg" width="16" height="16" viewBox="0 0 16 16">
<title>related-map</title>
<path d="M15.409 8.512l0.090 0.004c0.274 0.037 0.466 0.289 0.429 0.562-0.504 3.736-3.575 6.631-7.349 6.901-0.275 0.020-0.515-0.188-0.534-0.463s0.188-0.515 0.463-0.534c3.301-0.236 5.989-2.77 6.429-6.037 0.029-0.213 0.187-0.376 0.385-0.421l0.087-0.012zM7.428 0.020c0.275-0.019 0.515 0.188 0.534 0.463s-0.188 0.515-0.463 0.534c-3.284 0.232-5.965 2.739-6.428 5.985-0.039 0.273-0.292 0.463-0.566 0.424s-0.463-0.292-0.424-0.566c0.529-3.711 3.592-6.576 7.347-6.842zM12.384 8.693l0.089 0.016c0.266 0.073 0.423 0.348 0.35 0.614-0.536 1.956-2.216 3.41-4.244 3.644-0.274 0.032-0.522-0.165-0.554-0.439s0.165-0.522 0.439-0.554c1.621-0.187 2.966-1.35 3.394-2.914 0.057-0.207 0.236-0.348 0.438-0.366l0.088-0zM7.291 3.527c0.073 0.266-0.084 0.541-0.35 0.614-1.575 0.431-2.742 1.792-2.918 3.426-0.029 0.275-0.276 0.473-0.55 0.444s-0.473-0.276-0.444-0.55c0.219-2.045 1.678-3.744 3.648-4.284 0.266-0.073 0.541 0.084 0.614 0.35z"></path>
<path d="M8 9c0.552 0 1-0.448 1-1s-0.448-1-1-1c-0.552 0-1 0.448-1 1s0.448 1 1 1zM8 10c-1.105 0-2-0.895-2-2s0.895-2 2-2c1.105 0 2 0.895 2 2s-0.895 2-2 2z"></path>
<path d="M11 3c0 0.552-0.448 1-1 1s-1-0.448-1-1c0-0.552 0.448-1 1-1s1 0.448 1 1z"></path>
<path d="M6 14c0 0.552-0.448 1-1 1s-1-0.448-1-1c0-0.552 0.448-1 1-1s1 0.448 1 1z"></path>
<path d="M15 6c0 0.552-0.448 1-1 1s-1-0.448-1-1c0-0.552 0.448-1 1-1s1 0.448 1 1z"></path>
<path d="M3 10c0 0.552-0.448 1-1 1s-1-0.448-1-1c0-0.552 0.448-1 1-1s1 0.448 1 1z"></path>
</svg>
