<!-- Generated by IcoMoon.io -->
<svg version="1.1" xmlns="http://www.w3.org/2000/svg" width="16" height="16" viewBox="0 0 16 16">
<title>switch-coordinates</title>
<path d="M3.5 1c0.276 0 0.5 0.224 0.5 0.5v10.5h11.5c0.276 0 0.5 0.224 0.5 0.5s-0.224 0.5-0.5 0.5h-12c-0.276 0-0.5-0.224-0.5-0.5v-11c0-0.276 0.224-0.5 0.5-0.5z"></path>
<path d="M0.5 11h1c0.276 0 0.5 0.224 0.5 0.5s-0.224 0.5-0.5 0.5h-1c-0.276 0-0.5-0.224-0.5-0.5s0.224-0.5 0.5-0.5z"></path>
<path d="M0.5 8h1c0.276 0 0.5 0.224 0.5 0.5s-0.224 0.5-0.5 0.5h-1c-0.276 0-0.5-0.224-0.5-0.5s0.224-0.5 0.5-0.5z"></path>
<path d="M0.5 5h1c0.276 0 0.5 0.224 0.5 0.5s-0.224 0.5-0.5 0.5h-1c-0.276 0-0.5-0.224-0.5-0.5s0.224-0.5 0.5-0.5z"></path>
<path d="M0.5 2h1c0.276 0 0.5 0.224 0.5 0.5s-0.224 0.5-0.5 0.5h-1c-0.276 0-0.5-0.224-0.5-0.5s0.224-0.5 0.5-0.5z"></path>
<path d="M5.5 14h1c0.276 0 0.5 0.224 0.5 0.5s-0.224 0.5-0.5 0.5h-1c-0.276 0-0.5-0.224-0.5-0.5s0.224-0.5 0.5-0.5z"></path>
<path d="M9.5 14h1c0.276 0 0.5 0.224 0.5 0.5s-0.224 0.5-0.5 0.5h-1c-0.276 0-0.5-0.224-0.5-0.5s0.224-0.5 0.5-0.5z"></path>
<path d="M13.5 14h1c0.276 0 0.5 0.224 0.5 0.5s-0.224 0.5-0.5 0.5h-1c-0.276 0-0.5-0.224-0.5-0.5s0.224-0.5 0.5-0.5z"></path>
<path d="M6.089 3.216l0.058-0.069 2-2c0.195-0.195 0.512-0.195 0.707 0 0.174 0.174 0.193 0.443 0.058 0.638l-0.058 0.069-1.148 1.146h3.794c0.78 0 1.42 0.595 1.493 1.356l0.007 0.144v3.794l1.146-1.148c0.174-0.174 0.443-0.193 0.638-0.058l0.069 0.058c0.174 0.174 0.193 0.443 0.058 0.638l-0.058 0.069-2 2c-0.174 0.174-0.443 0.193-0.638 0.058l-0.069-0.058-2-2c-0.195-0.195-0.195-0.512 0-0.707 0.174-0.174 0.443-0.193 0.638-0.058l0.069 0.058 1.146 1.148v-3.794c0-0.245-0.177-0.45-0.41-0.492l-0.090-0.008h-3.794l1.148 1.146c0.174 0.174 0.193 0.443 0.058 0.638l-0.058 0.069c-0.174 0.174-0.443 0.193-0.638 0.058l-0.069-0.058-2-2c-0.174-0.174-0.193-0.443-0.058-0.638z"></path>
</svg>
