<!-- Generated by IcoMoon.io -->
<svg version="1.1" xmlns="http://www.w3.org/2000/svg" width="16" height="16" viewBox="0 0 16 16">
<title>table</title>
<path d="M14 0c1.105 0 2 0.895 2 2v12c0 1.105-0.895 2-2 2h-12c-1.105 0-2-0.895-2-2v-12c0-1.105 0.895-2 2-2h12zM14 1h-12c-0.513 0-0.935 0.386-0.993 0.883l-0.007 0.117v12c0 0.513 0.386 0.935 0.883 0.993l0.117 0.007h12c0.513 0 0.935-0.386 0.993-0.883l0.007-0.117v-12c0-0.513-0.386-0.935-0.883-0.993l-0.117-0.007z"></path>
<path d="M0 3h16v1h-16v-1z"></path>
<path d="M5 1h1v14h-1v-14z"></path>
<path d="M10 1h1v14h-1v-14z"></path>
<path d="M0 7h16v1h-16v-1z"></path>
<path d="M0 11h16v1h-16v-1z"></path>
</svg>
