<!-- Generated by IcoMoon.io -->
<svg version="1.1" xmlns="http://www.w3.org/2000/svg" width="16" height="16" viewBox="0 0 16 16">
<title>trend</title>
<path d="M14.5 6c0.276 0 0.5 0.224 0.5 0.5v9c0 0.276-0.224 0.5-0.5 0.5s-0.5-0.224-0.5-0.5v-9c0-0.276 0.224-0.5 0.5-0.5z"></path>
<path d="M2.5 11c0.276 0 0.5 0.224 0.5 0.5v4c0 0.276-0.224 0.5-0.5 0.5s-0.5-0.224-0.5-0.5v-4c0-0.276 0.224-0.5 0.5-0.5z"></path>
<path d="M6.5 8c0.276 0 0.5 0.224 0.5 0.5v7c0 0.276-0.224 0.5-0.5 0.5s-0.5-0.224-0.5-0.5v-7c0-0.276 0.224-0.5 0.5-0.5z"></path>
<path d="M10.5 9c0.276 0 0.5 0.224 0.5 0.5v6c0 0.276-0.224 0.5-0.5 0.5s-0.5-0.224-0.5-0.5v-6c0-0.276 0.224-0.5 0.5-0.5z"></path>
<path d="M14.5 0c0.276 0 0.5 0.224 0.5 0.5v3c0 0.276-0.224 0.5-0.5 0.5s-0.5-0.224-0.5-0.5v-2.5h-2.5c-0.276 0-0.5-0.224-0.5-0.5s0.224-0.5 0.5-0.5h3z"></path>
<path d="M9.374 4.919l4.272-4.272c0.195-0.195 0.512-0.195 0.707 0s0.195 0.512 0 0.707l-4.5 4.5c-0.139 0.139-0.346 0.183-0.529 0.115l-3.718-1.394-4.275 3.8c-0.206 0.183-0.522 0.165-0.706-0.042s-0.165-0.522 0.042-0.706l4.5-4c0.139-0.123 0.334-0.16 0.508-0.094l3.699 1.387z"></path>
</svg>
