<!-- Generated by IcoMoon.io -->
<svg version="1.1" xmlns="http://www.w3.org/2000/svg" width="16" height="16" viewBox="0 0 16 16">
<path d="M4.5 0c0.276 0 0.5 0.224 0.5 0.5v1.5h6v-1.5c0-0.276 0.224-0.5 0.5-0.5s0.5 0.224 0.5 0.5v1.5h1.5c0.828 0 1.5 0.672 1.5 1.5v10c0 0.828-0.672 1.5-1.5 1.5h-2c-0.276 0-0.5-0.224-0.5-0.5s0.224-0.5 0.5-0.5h2c0.276 0 0.5-0.224 0.5-0.5v-7.5h-12v7.5c0 0.276 0.224 0.5 0.5 0.5h5c0.276 0 0.5 0.224 0.5 0.5s-0.224 0.5-0.5 0.5h-5c-0.828 0-1.5-0.672-1.5-1.5v-10c0-0.828 0.672-1.5 1.5-1.5h1.5v-1.5c0-0.276 0.224-0.5 0.5-0.5zM14 5v-1.5c0-0.276-0.224-0.5-0.5-0.5h-1.5v2h2zM11 5v-2h-6v2h6zM4 5v-2h-1.5c-0.276 0-0.5 0.224-0.5 0.5v1.5h2z"></path>
<path d="M11.691 7.038c0.187 0.077 0.309 0.26 0.309 0.462v5c0 0.276-0.224 0.5-0.5 0.5s-0.5-0.224-0.5-0.5v-3.793l-0.146 0.146c-0.195 0.195-0.512 0.195-0.707 0s-0.195-0.512 0-0.707l1-1c0.143-0.143 0.358-0.186 0.545-0.108z"></path>
<path d="M5 8.5c0-0.276 0.224-0.5 0.5-0.5h1c0.276 0 0.5 0.224 0.5 0.5v0.086c0 0.066-0.014 0.114-0.028 0.141-0.012 0.022-0.021 0.028-0.028 0.031-0.232 0.104-0.683 0.242-1.444 0.242-0.276 0-0.5 0.224-0.5 0.5s0.224 0.5 0.5 0.5c0.889 0 1.317 0.415 1.477 0.616 0.002 0.003 0.023 0.033 0.023 0.12v0.764c0 0.276-0.224 0.5-0.5 0.5h-1c-0.276 0-0.5-0.224-0.5-0.5s-0.224-0.5-0.5-0.5c-0.276 0-0.5 0.224-0.5 0.5 0 0.828 0.672 1.5 1.5 1.5h1c0.828 0 1.5-0.672 1.5-1.5v-0.764c0-0.223-0.050-0.503-0.241-0.743-0.084-0.106-0.198-0.229-0.346-0.352 0.437-0.229 0.587-0.688 0.587-1.055v-0.086c0-0.828-0.672-1.5-1.5-1.5h-1c-0.828 0-1.5 0.672-1.5 1.5 0 0.276 0.224 0.5 0.5 0.5s0.5-0.224 0.5-0.5z"></path>
</svg>
