<!-- Generated by IcoMoon.io -->
<svg version="1.1" xmlns="http://www.w3.org/2000/svg" width="16" height="16" viewBox="0 0 16 16">
<title>calendar</title>
<path d="M4.5 7c0.276 0 0.5 0.224 0.5 0.5v5c0 0.276-0.224 0.5-0.5 0.5s-0.5-0.224-0.5-0.5v-5c0-0.276 0.224-0.5 0.5-0.5z"></path>
<path d="M7.5 7c0.276 0 0.5 0.224 0.5 0.5v5c0 0.276-0.224 0.5-0.5 0.5s-0.5-0.224-0.5-0.5v-5c0-0.276 0.224-0.5 0.5-0.5z"></path>
<path d="M10.5 7c0.276 0 0.5 0.224 0.5 0.5v1c0 0.276-0.224 0.5-0.5 0.5s-0.5-0.224-0.5-0.5v-1c0-0.276 0.224-0.5 0.5-0.5z"></path>
<path d="M1 8h10.5c0.276 0 0.5 0.224 0.5 0.5s-0.224 0.5-0.5 0.5h-10.5v-1zM1 11h7.5c0.276 0 0.5 0.224 0.5 0.5s-0.224 0.5-0.5 0.5h-7.5v-1z"></path>
<path d="M1 5h14v1h-14v-1z"></path>
<path d="M4.5 1c0.276 0 0.5 0.224 0.5 0.5v3c0 0.276-0.224 0.5-0.5 0.5s-0.5-0.224-0.5-0.5v-3c0-0.276 0.224-0.5 0.5-0.5z"></path>
<path d="M11.5 1c0.276 0 0.5 0.224 0.5 0.5v3c0 0.276-0.224 0.5-0.5 0.5s-0.5-0.224-0.5-0.5v-3c0-0.276 0.224-0.5 0.5-0.5z"></path>
<path d="M14.5 11c0.245 0 0.45 0.177 0.492 0.41l0.008 0.090v1c0 1.325-1.032 2.41-2.336 2.495l-0.164 0.005h-3c-0.276 0-0.5-0.224-0.5-0.5 0-0.245 0.177-0.45 0.41-0.492l0.090-0.008h3c0.78 0 1.42-0.595 1.493-1.356l0.007-0.144v-1c0-0.276 0.224-0.5 0.5-0.5z"></path>
<path d="M13 3c1.105 0 2 0.895 2 2v3c0 2-2 3-4 3 0.667 1.333 0.333 2.667-1 4h-7c-1.105 0-2-0.895-2-2v-8c0-1.105 0.895-2 2-2h10zM13.117 4.007l-0.117-0.007h-10c-0.513 0-0.936 0.386-0.993 0.883l-0.007 0.117v8c0 0.513 0.386 0.935 0.883 0.993l0.117 0.007h6.566l0.031-0.033c0.738-0.856 0.9-1.608 0.575-2.375l-0.067-0.144c-0.332-0.665 0.151-1.447 0.894-1.447 1.692 0 2.9-0.76 2.994-1.861l0.006-0.139v-3c0-0.513-0.386-0.936-0.883-0.993z"></path>
</svg>
