<!-- Generated by IcoMoon.io -->
<svg version="1.1" xmlns="http://www.w3.org/2000/svg" width="16" height="16" viewBox="0 0 16 16">
<path d="M4.5 0c0.276 0 0.5 0.224 0.5 0.5v1.5h6v-1.5c0-0.276 0.224-0.5 0.5-0.5s0.5 0.224 0.5 0.5v1.5h1.5c0.828 0 1.5 0.672 1.5 1.5v2.5h-13v7.5c0 0.276 0.224 0.5 0.5 0.5h11c0.276 0 0.5-0.224 0.5-0.5v-3c0-0.276 0.224-0.5 0.5-0.5s0.5 0.224 0.5 0.5v3c0 0.828-0.672 1.5-1.5 1.5h-11c-0.828 0-1.5-0.672-1.5-1.5v-10c0-0.828 0.672-1.5 1.5-1.5h1.5v-1.5c0-0.276 0.224-0.5 0.5-0.5zM14 5v-1.5c0-0.276-0.224-0.5-0.5-0.5h-1.5v2h2zM11 5v-2h-6v2h6zM4 5v-2h-1.5c-0.276 0-0.5 0.224-0.5 0.5v1.5h2z"></path>
<path d="M5 8v1h-1v-1h1z"></path>
<path d="M8 8h-1v1h1v-1z"></path>
<path d="M10 8h1v1h-1v-1z"></path>
<path d="M5 12v-1h-1v1h1z"></path>
<path d="M7 11h1v1h-1v-1z"></path>
<path d="M11 11h-1v1h1v-1z"></path>
</svg>
