<!-- Generated by IcoMoon.io -->
<svg version="1.1" xmlns="http://www.w3.org/2000/svg" width="16" height="16" viewBox="0 0 16 16">
<title>date-task</title>
<path d="M3 0.5c0-0.276 0.224-0.5 0.5-0.5s0.5 0.224 0.5 0.5v1.5h6v-1.5c0-0.276 0.224-0.5 0.5-0.5s0.5 0.224 0.5 0.5v1.5h1.5c0.78 0 1.42 0.595 1.493 1.356l0.007 0.144v3.5c0 0.276-0.224 0.5-0.5 0.5-0.245 0-0.45-0.177-0.492-0.41l-0.008-0.090v-2h-12v7.5c0 0.245 0.177 0.45 0.41 0.492l0.090 0.008h1.5c0.276 0 0.5 0.224 0.5 0.5 0 0.245-0.177 0.45-0.41 0.492l-0.090 0.008h-1.5c-0.78 0-1.42-0.595-1.493-1.355l-0.007-0.145v-9c0-0.78 0.595-1.42 1.356-1.493l0.144-0.007h1.5v-1.5zM10 3h-6v0.5c0 0.276-0.224 0.5-0.5 0.5s-0.5-0.224-0.5-0.5v-0.5h-1.5c-0.245 0-0.45 0.177-0.492 0.41l-0.008 0.090v0.5h12v-0.5c0-0.245-0.177-0.45-0.41-0.492l-0.090-0.008h-1.5v0.5c0 0.276-0.224 0.5-0.5 0.5s-0.5-0.224-0.5-0.5v-0.5z"></path>
<path d="M10 9.5c0-0.276 0.224-0.5 0.5-0.5h5c0.276 0 0.5 0.224 0.5 0.5s-0.224 0.5-0.5 0.5h-5c-0.276 0-0.5-0.224-0.5-0.5z"></path>
<path d="M10.5 12c-0.276 0-0.5 0.224-0.5 0.5s0.224 0.5 0.5 0.5h5c0.276 0 0.5-0.224 0.5-0.5s-0.224-0.5-0.5-0.5h-5z"></path>
<path d="M10 15.5c0-0.276 0.224-0.5 0.5-0.5h5c0.276 0 0.5 0.224 0.5 0.5s-0.224 0.5-0.5 0.5h-5c-0.276 0-0.5-0.224-0.5-0.5z"></path>
<path d="M6.5 15c-0.276 0-0.5 0.224-0.5 0.5s0.224 0.5 0.5 0.5h1c0.276 0 0.5-0.224 0.5-0.5s-0.224-0.5-0.5-0.5h-1z"></path>
<path d="M8.854 8.146c0.195 0.195 0.195 0.512 0 0.707l-2 2c-0.195 0.195-0.512 0.195-0.707 0l-1-1c-0.195-0.195-0.195-0.512 0-0.707s0.512-0.195 0.707 0l0.646 0.646 1.646-1.646c0.195-0.195 0.512-0.195 0.707 0z"></path>
<path d="M8.854 11.854c0.195-0.195 0.195-0.512 0-0.707s-0.512-0.195-0.707 0l-1.646 1.646-0.646-0.646c-0.195-0.195-0.512-0.195-0.707 0s-0.195 0.512 0 0.707l1 1c0.195 0.195 0.512 0.195 0.707 0l2-2z"></path>
</svg>
