<!-- Generated by IcoMoon.io -->
<svg version="1.1" xmlns="http://www.w3.org/2000/svg" width="16" height="16" viewBox="0 0 16 16">
<title>history</title>
<path d="M7.5 1c4.142 0 7.5 3.358 7.5 7.5s-3.358 7.5-7.5 7.5c-2.431 0-4.667-1.165-6.070-3.094-0.162-0.223-0.113-0.536 0.11-0.698s0.536-0.113 0.698 0.11c1.216 1.673 3.154 2.682 5.261 2.682 3.59 0 6.5-2.91 6.5-6.5s-2.91-6.5-6.5-6.5c-2.018 0-3.882 0.924-5.107 2.479-0.171 0.217-0.485 0.254-0.702 0.083s-0.254-0.485-0.083-0.702c1.413-1.792 3.566-2.86 5.893-2.86z"></path>
<path d="M1.5 0c0.276 0 0.5 0.224 0.5 0.5v4c0 0.276-0.224 0.5-0.5 0.5s-0.5-0.224-0.5-0.5v-4c0-0.276 0.224-0.5 0.5-0.5z"></path>
<path d="M1.5 4h4c0.276 0 0.5 0.224 0.5 0.5s-0.224 0.5-0.5 0.5h-4c-0.276 0-0.5-0.224-0.5-0.5s0.224-0.5 0.5-0.5z"></path>
<path d="M7.597 9.999l-0.053 0.008-0.075 0-0.040-0.006c-0.077-0.012-0.149-0.044-0.212-0.089l-2.993-1.997c-0.555-0.37 0-1.202 0.555-0.832l2.659 1.772 3.711-3.71c0.471-0.471 1.179 0.236 0.707 0.707l-3.987 3.988c-0.054 0.060-0.121 0.108-0.197 0.137l-0.073 0.021z"></path>
<path d="M7.5 13c0.276 0 0.5 0.224 0.5 0.5v2c0 0.276-0.224 0.5-0.5 0.5s-0.5-0.224-0.5-0.5v-2c0-0.276 0.224-0.5 0.5-0.5z"></path>
<path d="M12.5 8h2c0.276 0 0.5 0.224 0.5 0.5s-0.224 0.5-0.5 0.5h-2c-0.276 0-0.5-0.224-0.5-0.5s0.224-0.5 0.5-0.5z"></path>
</svg>
