<!-- Generated by IcoMoon.io -->
<svg version="1.1" xmlns="http://www.w3.org/2000/svg" width="16" height="16" viewBox="0 0 16 16">
<title>history-task</title>
<path d="M2 0.5v1.601c1.27-1.296 3.041-2.101 5-2.101 3.866 0 7 3.134 7 7 0 0.276-0.224 0.5-0.5 0.5s-0.5-0.224-0.5-0.5c0-3.314-2.686-6-6-6-1.777 0-3.373 0.772-4.472 2h1.972c0.276 0 0.5 0.224 0.5 0.5s-0.224 0.5-0.5 0.5h-3c-0.276 0-0.5-0.224-0.5-0.5v-3c0-0.276 0.224-0.5 0.5-0.5s0.5 0.224 0.5 0.5z"></path>
<path d="M1.071 7.924c-0.042-0.273-0.298-0.46-0.57-0.418s-0.46 0.298-0.418 0.57c0.278 1.799 1.24 3.37 2.61 4.441 0.218 0.17 0.532 0.132 0.702-0.086s0.132-0.532-0.086-0.702c-1.176-0.92-2-2.267-2.237-3.806z"></path>
<path d="M8.854 8.854c0.195-0.195 0.195-0.512 0-0.707s-0.512-0.195-0.707 0l-1.646 1.646-0.646-0.646c-0.195-0.195-0.512-0.195-0.707 0s-0.195 0.512 0 0.707l1 1c0.195 0.195 0.512 0.195 0.707 0l2-2z"></path>
<path d="M10 9.5c0-0.276 0.224-0.5 0.5-0.5h5c0.276 0 0.5 0.224 0.5 0.5s-0.224 0.5-0.5 0.5h-5c-0.276 0-0.5-0.224-0.5-0.5z"></path>
<path d="M10 12.5c0-0.276 0.224-0.5 0.5-0.5h5c0.276 0 0.5 0.224 0.5 0.5s-0.224 0.5-0.5 0.5h-5c-0.276 0-0.5-0.224-0.5-0.5z"></path>
<path d="M10.5 15c-0.276 0-0.5 0.224-0.5 0.5s0.224 0.5 0.5 0.5h5c0.276 0 0.5-0.224 0.5-0.5s-0.224-0.5-0.5-0.5h-5z"></path>
<path d="M6 15.5c0-0.276 0.224-0.5 0.5-0.5h1c0.276 0 0.5 0.224 0.5 0.5s-0.224 0.5-0.5 0.5h-1c-0.276 0-0.5-0.224-0.5-0.5z"></path>
<path d="M8.854 11.146c0.195 0.195 0.195 0.512 0 0.707l-2 2c-0.195 0.195-0.512 0.195-0.707 0l-1-1c-0.195-0.195-0.195-0.512 0-0.707s0.512-0.195 0.707 0l0.646 0.646 1.646-1.646c0.195-0.195 0.512-0.195 0.707 0z"></path>
<path d="M10.825 4.88c0.21-0.18 0.234-0.495 0.054-0.705s-0.495-0.234-0.705-0.054l-3.296 2.825-3.241-0.926c-0.266-0.076-0.542 0.078-0.618 0.343s0.078 0.542 0.343 0.618l3.5 1c0.161 0.046 0.335 0.008 0.463-0.101l3.5-3z"></path>
</svg>
