<!-- Generated by IcoMoon.io -->
<svg version="1.1" xmlns="http://www.w3.org/2000/svg" width="16" height="16" viewBox="0 0 16 16">
<title>time</title>
<path d="M10.575 0.423c0.261 0.089 0.401 0.373 0.313 0.634s-0.373 0.401-0.634 0.313c-0.719-0.244-1.477-0.37-2.253-0.37-3.866 0-7 3.134-7 7s3.134 7 7 7c3.866 0 7-3.134 7-7 0-1.119-0.262-2.199-0.759-3.173-0.125-0.246-0.028-0.547 0.219-0.673s0.547-0.028 0.672 0.219c0.568 1.114 0.868 2.35 0.868 3.627 0 4.418-3.582 8-8 8s-8-3.582-8-8c0-4.418 3.582-8 8-8 0.886 0 1.752 0.144 2.575 0.423z"></path>
<path d="M7.5 9c-0.276 0-0.5-0.224-0.5-0.5v-5c0-0.276 0.224-0.5 0.5-0.5s0.5 0.224 0.5 0.5v4.5h3.5c0.276 0 0.5 0.224 0.5 0.5s-0.224 0.5-0.5 0.5h-4z"></path>
</svg>
