<?xml version="1.0" standalone="no"?> 
<!DOCTYPE svg PUBLIC "-//W3C//DTD SVG 1.1//EN" "http://www.w3.org/Graphics/SVG/1.1/DTD/svg11.dtd" >
<svg xmlns="http://www.w3.org/2000/svg">
<defs>
  <font id="rsuite-icon-font" horiz-adv-x="49">
    <font-face font-family="rsuite-icon-font"
      units-per-em="1000" ascent="820"
      descent="180" />
    <missing-glyph horiz-adv-x="0" />
    <glyph glyph-name="weapp"
      unicode="&#xEA01;"
      horiz-adv-x="1000" d=" M500 820C221.4285714285715 820 0 598.5714285714286 0 320C0 41.4285714285713 221.4285714285715 -180 500 -180C778.5714285714287 -180 1000 41.4285714285713 1000 320C1000 598.5714285714286 778.5714285714287 820 500 820zM792.8571428571429 362.8571428571429C771.4285714285713 327.1428571428571 735.7142857142857 298.5714285714286 692.8571428571428 284.2857142857142C692.8571428571428 284.2857142857142 692.8571428571428 284.2857142857142 692.8571428571428 284.2857142857142C685.7142857142857 284.2857142857142 678.5714285714286 284.2857142857142 671.4285714285713 284.2857142857142C642.8571428571428 284.2857142857142 621.4285714285714 305.7142857142857 635.7142857142857 327.1428571428571C642.8571428571428 348.5714285714285 657.1428571428571 362.8571428571429 678.5714285714284 370C714.2857142857142 384.2857142857142 735.7142857142857 412.8571428571428 735.7142857142857 441.4285714285714C735.7142857142857 484.2857142857142 692.8571428571428 520 642.8571428571428 520C592.8571428571428 520 549.9999999999999 484.2857142857142 549.9999999999999 441.4285714285714V198.5714285714285C549.9999999999999 141.4285714285713 514.2857142857142 91.4285714285713 464.2857142857142 62.8571428571428C428.5714285714286 41.4285714285713 400 34.2857142857142 364.2857142857143 34.2857142857142C264.2857142857143 34.2857142857142 185.7142857142857 105.7142857142857 185.7142857142857 198.5714285714286C185.7142857142857 227.1428571428572 192.8571428571428 255.7142857142858 207.1428571428571 277.1428571428571C228.5714285714286 312.8571428571429 264.2857142857142 341.4285714285715 307.1428571428571 355.7142857142857C307.1428571428571 355.7142857142857 307.1428571428571 355.7142857142857 307.1428571428571 355.7142857142857C314.2857142857142 355.7142857142857 321.4285714285714 362.8571428571429 328.5714285714285 362.8571428571429C357.1428571428571 362.8571428571429 378.5714285714285 341.4285714285714 364.2857142857142 320C364.2857142857143 291.4285714285715 350.0000000000001 277.1428571428571 328.5714285714286 270C328.5714285714286 270 321.4285714285715 270 321.4285714285715 270C285.7142857142857 255.7142857142857 264.2857142857143 227.1428571428571 264.2857142857143 198.5714285714286C264.2857142857143 155.7142857142858 307.1428571428572 120 357.1428571428572 120C407.1428571428572 120 450 155.7142857142858 450 198.5714285714286V441.4285714285715C450 498.5714285714286 485.7142857142857 548.5714285714286 535.7142857142858 577.1428571428571C571.4285714285714 598.5714285714286 600 605.7142857142858 635.7142857142858 605.7142857142858C735.7142857142858 605.7142857142858 814.2857142857143 534.2857142857142 814.2857142857143 441.4285714285715C814.2857142857143 412.8571428571429 807.1428571428572 384.2857142857143 792.8571428571429 362.8571428571429z" />
    <glyph glyph-name="web"
      unicode="&#xEA02;"
      horiz-adv-x="1000" d=" M900 20V469.9999999999999H700.0000000000001V20H900zM650 270V469.9999999999999H100V270H650zM650 20V220H100V20H650zM900 720C957.1428571428572 720 1000 677.1428571428571 1000 620V20C1000 -37.1428571428571 957.1428571428572 -80 900 -80H100C42.8571428571429 -80 0 -37.1428571428571 0 20V620C0 677.1428571428571 42.8571428571429 720 100 720H900z" />
    <glyph glyph-name="target"
      unicode="&#xEA03;"
      horiz-adv-x="1000" d=" M1000 341.4285714285714H935.7142857142856C928.5714285714286 562.8571428571429 742.8571428571429 748.5714285714286 521.4285714285714 755.7142857142857V820H478.5714285714286V755.7142857142857C257.1428571428572 748.5714285714286 71.4285714285714 562.8571428571429 64.2857142857143 341.4285714285714H0V305.7142857142857H64.2857142857143C71.4285714285714 77.1428571428571 257.1428571428572 -108.5714285714285 478.5714285714286 -115.7142857142857V-180H514.2857142857143V-115.7142857142857C742.8571428571429 -108.5714285714285 921.4285714285714 77.1428571428572 935.7142857142858 305.7142857142858H1000V341.4285714285714zM878.5714285714287 341.4285714285714H728.5714285714287C721.4285714285716 455.7142857142857 628.5714285714287 548.5714285714286 514.2857142857143 555.7142857142858V698.5714285714286C714.2857142857143 691.4285714285714 871.4285714285714 534.2857142857142 878.5714285714287 341.4285714285714zM642.8571428571429 298.5714285714286C635.7142857142858 234.2857142857144 585.7142857142857 184.2857142857142 521.4285714285714 177.1428571428571V191.4285714285713H478.5714285714286V177.1428571428571C414.2857142857143 184.2857142857142 364.2857142857143 234.2857142857144 357.1428571428572 298.5714285714286H371.4285714285715V341.4285714285714H357.1428571428572C364.2857142857143 405.7142857142857 414.2857142857143 455.7142857142857 478.5714285714286 462.8571428571428V448.5714285714286H514.2857142857143V462.8571428571428C585.7142857142857 455.7142857142857 635.7142857142858 405.7142857142857 642.8571428571429 341.4285714285714H628.5714285714287V305.7142857142857H642.8571428571429zM478.5714285714286 698.5714285714286V548.5714285714286C364.2857142857143 541.4285714285714 271.4285714285715 448.5714285714286 264.2857142857143 334.2857142857143H121.4285714285714C128.5714285714286 534.2857142857142 285.7142857142857 691.4285714285714 478.5714285714286 698.5714285714286zM121.4285714285714 298.5714285714286H271.4285714285715C278.5714285714286 184.2857142857142 371.4285714285714 91.4285714285715 485.7142857142857 84.2857142857142V-65.7142857142858C285.7142857142857 -51.4285714285714 128.5714285714286 105.7142857142857 121.4285714285714 298.5714285714286zM521.4285714285714 -58.5714285714287V91.4285714285713C635.7142857142858 98.5714285714284 728.5714285714286 191.4285714285713 735.7142857142858 305.7142857142857H885.7142857142858C871.4285714285714 105.7142857142857 714.2857142857143 -51.4285714285714 521.4285714285714 -58.5714285714287z" />
    <glyph glyph-name="bar-chart-ranking"
      unicode="&#xEA04;"
      horiz-adv-x="1000" d=" M0 -115.71875H1000V-180H0V-115.71875zM750 320H935.7187499999998V5.7187499999999H750V320zM0 820H185.71875V5.71875H0V820zM250 570H435.71875V5.71875H250V570zM500 441.4375H685.7187499999999V5.7187499999999H500V441.4375z" />
    <glyph glyph-name="multiple-lines-chart"
      unicode="&#xEA05;"
      horiz-adv-x="1000" d=" M64.2857142857143 -115.7142857142857V820H0V-180H1000V-115.7142857142857z M178.5714285714286 27.1428571428571C171.4285714285714 27.1428571428571 164.2857142857143 27.1428571428571 157.1428571428572 34.2857142857142C142.8571428571429 48.5714285714286 142.8571428571429 62.8571428571429 157.1428571428572 77.1428571428571L335.7142857142857 255.7142857142857L471.4285714285714 162.8571428571428L871.4285714285714 612.8571428571428C885.7142857142857 627.1428571428571 900 627.1428571428571 914.2857142857142 612.8571428571428C928.5714285714284 598.5714285714284 928.5714285714284 584.2857142857142 914.2857142857142 569.9999999999999L478.5714285714286 84.2857142857142L342.8571428571429 177.1428571428571L200 34.2857142857142C192.8571428571428 27.1428571428571 185.7142857142857 27.1428571428571 178.5714285714286 27.1428571428571z M892.8571428571429 141.4285714285715C885.7142857142858 141.4285714285715 878.5714285714287 141.4285714285715 871.4285714285714 148.5714285714286L535.7142857142858 498.5714285714286L428.5714285714286 405.7142857142857L321.4285714285715 527.1428571428571L178.5714285714286 398.5714285714286C164.2857142857143 391.4285714285715 150 391.4285714285715 135.7142857142857 405.7142857142857C121.4285714285714 420 128.5714285714286 441.4285714285715 135.7142857142857 448.5714285714286L321.4285714285715 612.8571428571429L435.7142857142857 491.4285714285714L542.8571428571429 584.2857142857142L914.2857142857144 191.4285714285713C928.5714285714286 177.1428571428571 928.5714285714286 155.7142857142857 914.2857142857144 148.5714285714286C907.1428571428572 148.5714285714286 900.0000000000001 141.4285714285715 892.8571428571429 141.4285714285715z" />
    <glyph glyph-name="alipay"
      unicode="&#xEA06;"
      horiz-adv-x="1000" d=" M457.1428571428572 177.1428571428571C378.5714285714286 212.8571428571429 307.1428571428572 262.8571428571429 221.4285714285715 262.8571428571429C185.7142857142857 262.8571428571429 157.1428571428572 262.8571428571429 121.4285714285715 241.4285714285715C71.4285714285714 220 42.8571428571429 191.4285714285713 35.7142857142857 141.4285714285715C28.5714285714286 98.5714285714286 71.4285714285714 41.4285714285713 107.1428571428571 27.1428571428571C114.2857142857143 27.1428571428571 121.4285714285714 12.8571428571429 164.2857142857143 12.8571428571429C285.7142857142857 -1.4285714285714 400 70 457.1428571428572 177.1428571428571zM1000 -87.1428571428571C921.4285714285714 -51.4285714285714 842.8571428571429 -15.7142857142857 764.2857142857142 27.1428571428571C714.2857142857143 48.5714285714286 557.1428571428571 127.1428571428572 557.1428571428571 127.1428571428572S542.8571428571429 112.8571428571429 528.5714285714286 98.5714285714286C450 5.7142857142857 371.4285714285714 -44.2857142857143 257.1428571428571 -65.7142857142857C207.1428571428571 -72.8571428571428 171.4285714285714 -65.7142857142857 114.2857142857143 -44.2857142857141C50 -30 0 34.2857142857142 0 112.8571428571428C0 198.5714285714285 35.7142857142857 270 100 305.7142857142857C171.4285714285714 348.5714285714285 264.2857142857143 334.2857142857143 342.8571428571429 312.8571428571429C392.8571428571429 298.5714285714286 521.4285714285714 262.8571428571428 521.4285714285714 262.8571428571428S542.8571428571429 327.1428571428571 550 341.4285714285714C557.1428571428571 355.7142857142857 578.5714285714286 412.8571428571428 578.5714285714286 412.8571428571428H171.4285714285714V462.8571428571428H385.7142857142857V541.4285714285714H128.5714285714286V591.4285714285714H385.7142857142857C385.7142857142857 591.4285714285714 385.7142857142857 634.2857142857142 385.7142857142857 727.1428571428571L500 727.1428571428571V584.2857142857142H757.1428571428571V534.2857142857142H500V462.8571428571428C500 462.8571428571428 714.2857142857143 462.8571428571428 714.2857142857143 462.8571428571428C692.8571428571428 377.1428571428571 657.1428571428571 305.7142857142857 628.5714285714287 227.1428571428571C742.8571428571429 169.9999999999999 878.5714285714287 127.142857142857 1000 91.4285714285713V-87.1428571428571z" />
    <glyph glyph-name="tmall"
      unicode="&#xEA07;"
      horiz-adv-x="1000" d=" M0 512.8571428571429C0 577.1428571428571 28.5714285714286 612.8571428571429 85.7142857142857 612.8571428571429C171.4285714285714 612.8571428571429 214.2857142857143 448.5714285714286 292.8571428571429 448.5714285714286C207.1428571428571 448.5714285714286 628.5714285714287 448.5714285714286 707.1428571428571 448.5714285714286S835.7142857142857 612.8571428571429 914.2857142857142 612.8571428571429C971.4285714285714 612.8571428571429 992.8571428571428 577.1428571428571 999.9999999999998 512.8571428571429V112.8571428571429C999.9999999999998 70.0000000000001 964.2857142857142 27.1428571428572 914.2857142857142 27.1428571428572H85.7142857142857C35.7142857142857 27.1428571428571 0 62.8571428571429 0 112.8571428571428V512.8571428571429z" />
    <glyph glyph-name="arrow-down-line"
      unicode="&#xEA08;"
      horiz-adv-x="714.2857142857143" d=" M357.1428571428572 141.4285714285715C338.8571428571429 141.4285714285715 320.5714285714286 148.4285714285715 306.6428571428572 162.3571428571428L92.3571428571429 376.6428571428571C64.4285714285715 404.5714285714285 64.4285714285715 449.7857142857142 92.3571428571429 477.6428571428571S165.5 505.5714285714285 193.3571428571429 477.6428571428571L357.1428571428572 313.8571428571428L520.9285714285714 477.6428571428571C548.8571428571429 505.5714285714285 594.0714285714286 505.5714285714285 621.9285714285714 477.6428571428571S649.8571428571429 404.4999999999999 621.9285714285714 376.6428571428571L407.6428571428572 162.3571428571428C393.7142857142858 148.4285714285713 375.4285714285715 141.4285714285715 357.1428571428572 141.4285714285715z" />
    <glyph glyph-name="arrow-down"
      unicode="&#xEA09;"
      horiz-adv-x="1000" d=" M0 570L500 70L1000 570z" />
    <glyph glyph-name="arrow-left-line"
      unicode="&#xEA0A;"
      horiz-adv-x="500" d=" M71.4285714285714 320C71.4285714285714 338.2857142857143 78.4285714285714 356.5714285714286 92.3571428571429 370.5L306.6428571428572 584.7857142857142C334.5714285714286 612.7142857142857 379.7857142857144 612.7142857142857 407.6428571428572 584.7857142857142S435.5714285714286 511.6428571428571 407.6428571428572 483.7857142857143L243.8571428571429 320L407.6428571428572 156.2142857142858C435.5714285714286 128.2857142857143 435.5714285714286 83.0714285714286 407.6428571428572 55.2142857142858S334.5 27.2857142857143 306.6428571428572 55.2142857142858L92.3571428571429 269.5000000000001C78.4285714285714 283.4285714285716 71.4285714285715 301.7142857142858 71.4285714285715 320.0000000000001z" />
    <glyph glyph-name="more"
      unicode="&#xEA0B;"
      horiz-adv-x="857.1428571428571" d=" M142.8571428571429 391.4285714285715C161.5714285714286 391.4285714285715 179.1428571428572 384.4285714285715 193.2142857142857 370.5S214.2857142857143 340.2857142857143 214.2857142857143 319.4285714285714C214.2857142857143 299.7142857142857 207.2857142857143 283.4285714285714 193.2142857142857 269.5S161.5714285714286 248.5714285714286 142.8571428571429 248.5714285714286C121.7857142857143 248.5714285714286 105.3571428571429 255.5714285714286 92.5 269.5C78.4285714285714 283.4285714285715 71.4285714285714 299.7142857142857 71.4285714285714 319.4285714285714C71.4285714285714 340.3571428571429 78.4285714285714 356.5714285714286 92.5 370.5C105.3571428571429 384.4285714285715 121.7857142857143 391.4285714285715 142.8571428571429 391.4285714285715zM428.5714285714286 391.4285714285715C447.2857142857144 391.4285714285715 464.8571428571429 384.4285714285715 478.9285714285714 370.5S500 340.2857142857143 500 319.4285714285714C500 299.7142857142857 493 283.4285714285714 478.9285714285714 269.5S447.2857142857144 248.5714285714286 428.5714285714286 248.5714285714286C407.5 248.5714285714286 391.0714285714286 255.5714285714286 378.2142857142857 269.5C364.1428571428572 283.4285714285715 357.1428571428572 299.7142857142857 357.1428571428572 319.4285714285714C357.1428571428572 340.3571428571429 364.1428571428572 356.5714285714286 378.2142857142857 370.5C391.0714285714286 384.4285714285715 407.5 391.4285714285715 428.5714285714286 391.4285714285715zM714.2857142857143 391.4285714285715C733 391.4285714285715 750.5714285714286 384.4285714285715 764.6428571428572 370.5S785.7142857142858 340.2857142857143 785.7142857142858 319.4285714285714C785.7142857142858 299.7142857142857 778.7142857142857 283.4285714285714 764.6428571428572 269.5S733 248.5714285714286 714.2857142857143 248.5714285714286C693.2142857142858 248.5714285714286 676.7857142857143 255.5714285714286 663.9285714285714 269.5C649.8571428571429 283.4285714285715 642.8571428571429 299.7142857142857 642.8571428571429 319.4285714285714C642.8571428571429 340.3571428571429 649.8571428571429 356.5714285714286 663.9285714285714 370.5C676.7857142857143 384.4285714285715 693.2142857142858 391.4285714285715 714.2857142857143 391.4285714285715z" />
    <glyph glyph-name="arrow-right-line"
      unicode="&#xEA0C;"
      horiz-adv-x="500" d=" M428.5714285714286 320C428.5714285714286 301.7142857142857 421.5714285714286 283.4285714285714 407.6428571428572 269.5L193.3571428571429 55.2142857142857C165.4285714285714 27.2857142857142 120.2142857142857 27.2857142857142 92.3571428571429 55.2142857142857S64.4285714285714 128.3571428571429 92.3571428571429 156.2142857142857L256.1428571428572 320L92.3571428571429 483.7857142857142C64.4285714285715 511.7142857142857 64.4285714285715 556.9285714285713 92.3571428571429 584.7857142857142S165.5 612.7142857142857 193.3571428571429 584.7857142857142L407.6428571428572 370.4999999999999C421.5714285714286 356.5714285714285 428.5714285714286 338.2857142857142 428.5714285714286 320z" />
    <glyph glyph-name="arrow-up-line"
      unicode="&#xEA0E;"
      horiz-adv-x="714.2857142857143" d=" M357.1428571428572 498.5714285714286C375.4285714285715 498.5714285714286 393.7142857142858 491.5714285714286 407.6428571428572 477.6428571428571L621.9285714285714 263.3571428571428C649.8571428571429 235.4285714285714 649.8571428571429 190.2142857142857 621.9285714285714 162.3571428571428S548.7857142857143 134.4285714285713 520.9285714285716 162.3571428571428L357.1428571428572 326.1428571428571L193.3571428571429 162.3571428571428C165.4285714285715 134.4285714285713 120.2142857142858 134.4285714285713 92.3571428571429 162.3571428571428S64.4285714285715 235.5 92.3571428571429 263.3571428571428L306.6428571428572 477.6428571428571C320.5714285714287 491.5714285714285 338.8571428571429 498.5714285714285 357.1428571428572 498.5714285714285z" />
    <glyph glyph-name="attachment"
      unicode="&#xEA10;"
      horiz-adv-x="1000" d=" M562.5 632.5C562.5 701.5 506.5 757.5 437.5 757.5S312.5 701.5 312.5 632.5V70C312.5 -33.5714285714286 396.4285714285715 -117.5 500 -117.5S687.5 -33.5714285714286 687.5 70V507.5H750V70C750 -68.0714285714285 638.0714285714286 -180 500 -180S250 -68.0714285714285 250 70V632.5C250 736.0714285714286 333.9285714285715 820 437.5 820S625 736.0714285714286 625 632.5V132.5C625 63.5 569 7.5 500 7.5S375 63.5 375 132.5V507.5H437.5V132.5C437.5 97.9999999999999 465.5000000000001 70 500 70S562.5 97.9999999999999 562.5 132.5V632.5z" />
    <glyph glyph-name="check-circle"
      unicode="&#xEA11;"
      horiz-adv-x="1000" d=" M500 -180C223.8571428571429 -180 0 43.8571428571429 0 320S223.8571428571429 820 500 820C776.1428571428571 820 1000 596.1428571428571 1000 320S776.1428571428571 -180 500 -180zM417.7142857142857 269.8571428571429L310.1428571428571 377.4285714285715C277.5714285714286 410.0000000000001 224.8571428571428 410.0000000000001 192.2857142857143 377.4285714285715S159.7142857142857 292.1428571428571 192.2857142857143 259.5714285714286L358.9285714285715 92.9285714285715C391.5000000000001 60.3571428571429 444.2142857142857 60.3571428571429 476.7857142857143 92.9285714285715C478.2142857142857 94.3571428571428 479.5714285714286 95.7857142857142 480.8571428571429 97.2857142857142L810.1428571428573 426.5714285714286C842.7142857142859 459.1428571428572 842.7142857142859 511.8571428571428 810.1428571428573 544.4285714285713S724.8571428571431 577 692.2857142857144 544.4285714285713L417.7142857142859 269.8571428571429z" />
    <glyph glyph-name="collasped-o"
      unicode="&#xEA14;"
      horiz-adv-x="1000" d=" M214.2857142857143 748.5714285714286C135.3571428571429 748.5714285714286 71.4285714285714 684.6428571428571 71.4285714285714 605.7142857142858V34.2857142857142C71.4285714285714 -44.6428571428572 135.3571428571429 -108.5714285714285 214.2857142857143 -108.5714285714285H785.7142857142858C864.6428571428572 -108.5714285714285 928.5714285714286 -44.6428571428572 928.5714285714286 34.2857142857142V605.7142857142858C928.5714285714286 684.6428571428571 864.6428571428572 748.5714285714286 785.7142857142858 748.5714285714286H214.2857142857143zM214.2857142857143 820H785.7142857142858C904.0714285714286 820 1000 724.0714285714286 1000 605.7142857142858V34.2857142857142C1000 -84.0714285714285 904.0714285714286 -180 785.7142857142858 -180H214.2857142857143C95.9285714285714 -180 0 -84.0714285714285 0 34.2857142857142V605.7142857142858C0 724.0714285714286 95.9285714285714 820 214.2857142857143 820z M250 284.2857142857142C230.2857142857143 284.2857142857142 214.2857142857143 300.2857142857144 214.2857142857143 320S230.2857142857143 355.7142857142857 250 355.7142857142857H750C769.7142857142857 355.7142857142857 785.7142857142858 339.7142857142857 785.7142857142858 320S769.7142857142857 284.2857142857142 750 284.2857142857142H250z" />
    <glyph glyph-name="collasped"
      unicode="&#xEA15;"
      horiz-adv-x="1000" d=" M214.2857142857143 820H785.7142857142858C904.0714285714286 820 1000 724.0714285714286 1000 605.7142857142858V34.2857142857142C1000 -84.0714285714285 904.0714285714286 -180 785.7142857142858 -180H214.2857142857143C95.9285714285714 -180 0 -84.0714285714285 0 34.2857142857142V605.7142857142858C0 724.0714285714286 95.9285714285714 820 214.2857142857143 820zM750 382.5H250C215.5 382.5 187.5 354.5 187.5 320S215.5 257.5 250 257.5H750C784.5000000000001 257.5 812.5 285.5 812.5 320S784.5000000000001 382.5 750 382.5z" />
    <glyph glyph-name="copy-o"
      unicode="&#xEA16;"
      horiz-adv-x="1000" d=" M928.5714285714286 534.2857142857142H714.2857142857143V748.5714285714286H428.5714285714286C400.3571428571429 748.5714285714286 357.1428571428572 705.7857142857142 357.1428571428572 677.1428571428571H285.7142857142857C285.7142857142857 746.1428571428571 361.7857142857143 820 428.5714285714286 820H785.7142857142858L1000 605.7142857142858V105.7142857142857C1000 36.7142857142858 923.9285714285714 -37.1428571428571 857.1428571428571 -37.1428571428571H642.8571428571429L702.3571428571429 34.2857142857142H857.1428571428571C885.3571428571429 34.2857142857142 928.5714285714286 77.0714285714286 928.5714285714286 105.7142857142857V534.2857142857142zM899 605.7142857142858L785.7142857142858 719V605.7142857142858H899z M470.4285714285714 605.7142857142858L663.7857142857142 412.3571428571429L714.2857142857143 462.8571428571428L500 677.1428571428571H142.8571428571429C76.0714285714286 677.1428571428571 0 603.3571428571429 0 534.2857142857142V-37.1428571428571C0 -106.1428571428571 76.0714285714286 -180 142.8571428571429 -180H571.4285714285714C638.2142857142858 -180 714.2857142857143 -106.2142857142858 714.2857142857143 -37.1428571428571V239.6428571428571H642.8571428571429V-37.1428571428571C642.8571428571429 -65.7857142857143 599.6428571428571 -108.5714285714285 571.4285714285714 -108.5714285714285H142.8571428571429C114.6428571428572 -108.5714285714285 71.4285714285714 -65.7857142857143 71.4285714285714 -37.1428571428571V534.2857142857142C71.4285714285714 562.9285714285713 114.6428571428572 605.7142857142858 142.8571428571429 605.7142857142858H470.4285714285714zM470.4285714285714 605.7142857142858L663.7857142857142 412.3571428571429L714.2857142857143 462.8571428571428L500 677.1428571428571H142.8571428571429C76.0714285714286 677.1428571428571 0 603.3571428571429 0 534.2857142857142V-37.1428571428571C0 -106.1428571428571 76.0714285714286 -180 142.8571428571429 -180H571.4285714285714C638.2142857142858 -180 714.2857142857143 -106.2142857142858 714.2857142857143 -37.1428571428571V239.6428571428571H642.8571428571429V-37.1428571428571C642.8571428571429 -65.7857142857143 599.6428571428571 -108.5714285714285 571.4285714285714 -108.5714285714285H142.8571428571429C114.6428571428572 -108.5714285714285 71.4285714285714 -65.7857142857143 71.4285714285714 -37.1428571428571V534.2857142857142C71.4285714285714 562.9285714285713 114.6428571428572 605.7142857142858 142.8571428571429 605.7142857142858H470.4285714285714zM500 462.8571428571428H714.2857142857143V391.4285714285715H428.5714285714286V677.1428571428571H500V462.8571428571428z" />
    <glyph glyph-name="expand-o"
      unicode="&#xEA17;"
      horiz-adv-x="1000" d=" M214.2857142857143 748.5714285714286C135.3571428571429 748.5714285714286 71.4285714285714 684.6428571428571 71.4285714285714 605.7142857142858V34.2857142857142C71.4285714285714 -44.6428571428572 135.3571428571429 -108.5714285714285 214.2857142857143 -108.5714285714285H785.7142857142858C864.6428571428572 -108.5714285714285 928.5714285714286 -44.6428571428572 928.5714285714286 34.2857142857142V605.7142857142858C928.5714285714286 684.6428571428571 864.6428571428572 748.5714285714286 785.7142857142858 748.5714285714286H214.2857142857143zM214.2857142857143 820H785.7142857142858C904.0714285714286 820 1000 724.0714285714286 1000 605.7142857142858V34.2857142857142C1000 -84.0714285714285 904.0714285714286 -180 785.7142857142858 -180H214.2857142857143C95.9285714285714 -180 0 -84.0714285714285 0 34.2857142857142V605.7142857142858C0 724.0714285714286 95.9285714285714 820 214.2857142857143 820z M464.2857142857143 355.7142857142857V570C464.2857142857143 589.7142857142857 480.2857142857143 605.7142857142858 500 605.7142857142858S535.7142857142858 589.7142857142857 535.7142857142858 570V355.7142857142857H750C769.7142857142857 355.7142857142857 785.7142857142858 339.7142857142857 785.7142857142858 320S769.7142857142857 284.2857142857142 750 284.2857142857142H535.7142857142858V70C535.7142857142858 50.2857142857143 519.7142857142857 34.2857142857142 500 34.2857142857142S464.2857142857143 50.2857142857143 464.2857142857143 70V284.2857142857142H250C230.2857142857143 284.2857142857142 214.2857142857143 300.2857142857144 214.2857142857143 320S230.2857142857143 355.7142857142857 250 355.7142857142857H464.2857142857143z" />
    <glyph glyph-name="help-o,question-circle-o"
      unicode="&#xEA18;"
      horiz-adv-x="1000" d=" M500 -96.6428571428572C730.1428571428571 -96.6428571428572 916.6428571428572 89.9285714285715 916.6428571428572 320S730.0714285714286 736.6428571428571 500 736.6428571428571C269.8571428571429 736.6428571428571 83.3571428571429 550.0714285714286 83.3571428571429 320S269.9285714285715 -96.6428571428572 500 -96.6428571428572zM500 -180C223.8571428571429 -180 0 43.8571428571429 0 320S223.8571428571429 820 500 820C776.1428571428571 820 1000 596.1428571428571 1000 320S776.1428571428571 -180 500 -180zM500 -13.3571428571429C546 -13.3571428571429 583.3571428571429 23.9285714285714 583.3571428571429 70S546.0714285714286 153.3571428571428 500 153.3571428571428C454 153.3571428571428 416.6428571428572 116.0714285714286 416.6428571428572 70S453.9285714285714 -13.3571428571429 500 -13.3571428571429zM541.6428571428572 236.6428571428571V291.0714285714286C622.2142857142858 324.6428571428572 666.6428571428572 376.0000000000001 666.6428571428572 445C666.6428571428572 551.3571428571429 606.3571428571429 611.6428571428571 500 611.6428571428571C395.1428571428572 611.6428571428571 333.3571428571429 548.0714285714286 333.3571428571429 445C333.3571428571429 422 352 403.3571428571429 375 403.3571428571429S416.6428571428572 422 416.6428571428572 445C416.6428571428572 502.5714285714286 441.6428571428572 528.3571428571429 500 528.3571428571429C560.2857142857143 528.3571428571429 583.3571428571429 505.3571428571428 583.3571428571429 445C583.3571428571429 410.6428571428572 555 382.2142857142857 486.8571428571428 359.5C469.8571428571428 353.8571428571429 458.3571428571428 337.9285714285715 458.3571428571428 320V236.6428571428571C458.3571428571428 213.6428571428572 477 195 500 195S541.6428571428572 213.6428571428571 541.6428571428572 236.6428571428571z" />
    <glyph glyph-name="info"
      unicode="&#xEA19;"
      horiz-adv-x="1000" d=" M500 -180C223.8571428571429 -180 0 43.8571428571429 0 320S223.8571428571429 820 500 820C776.1428571428571 820 1000 596.1428571428571 1000 320S776.1428571428571 -180 500 -180zM500 486.6428571428572C546 486.6428571428572 583.3571428571429 523.9285714285714 583.3571428571429 570S546.0714285714286 653.3571428571429 500 653.3571428571429C454 653.3571428571429 416.6428571428572 616.0714285714286 416.6428571428572 570S453.9285714285714 486.6428571428572 500 486.6428571428572zM500 403.3571428571429C454 403.3571428571429 416.6428571428572 366.0714285714286 416.6428571428572 320V70C416.6428571428572 24 453.9285714285714 -13.3571428571429 500 -13.3571428571429S583.3571428571429 23.9285714285714 583.3571428571429 70V320C583.3571428571429 366 546.0714285714286 403.3571428571429 500 403.3571428571429z" />
    <glyph glyph-name="page-end"
      unicode="&#xEA1A;"
      horiz-adv-x="642.8571428571429" d=" M321.4285714285715 320L71.4285714285714 605.7142857142858L113.0714285714286 653.3571428571429L404.7142857142858 320L113.0714285714286 -13.3571428571429L71.4285714285715 34.2857142857142L321.4285714285715 320zM488.0714285714286 320L238.0714285714286 605.7142857142858L279.7142857142857 653.3571428571429L571.3571428571429 320L279.7142857142857 -13.3571428571429L238.0714285714286 34.2857142857142L488.0714285714286 320z" />
    <glyph glyph-name="page-next"
      unicode="&#xEA1B;"
      horiz-adv-x="500" d=" M333.3571428571429 320L83.3571428571429 34.2857142857142L125 -13.3571428571429L416.6428571428572 320L125 653.3571428571429L83.3571428571429 605.7142857142858z" />
    <glyph glyph-name="page-previous"
      unicode="&#xEA1C;"
      horiz-adv-x="500" d=" M166.6428571428572 320L416.6428571428572 605.7142857142858L375 653.3571428571429L83.3571428571429 320L375 -13.3571428571429L416.6428571428572 34.2857142857142z" />
    <glyph glyph-name="page-top"
      unicode="&#xEA1D;"
      horiz-adv-x="642.8571428571429" d=" M321.4285714285715 320L571.4285714285714 34.2857142857142L529.7857142857143 -13.3571428571429L238.1428571428571 320L529.7857142857143 653.3571428571429L571.4285714285714 605.7142857142858L321.4285714285715 320zM154.7857142857143 320L404.7857142857143 34.2857142857142L363.1428571428571 -13.3571428571429L71.5 320L363.1428571428571 653.3571428571429L404.7857142857143 605.7142857142858L154.7857142857143 320z" />
    <glyph glyph-name="reload"
      unicode="&#xEA1F;"
      horiz-adv-x="1000" d=" M626.4285714285714 620.6428571428571C645.0714285714286 614.2857142857142 655.0714285714286 594 648.7857142857143 575.3571428571429S622.1428571428572 546.7142857142858 603.5 553C570.5 564.2142857142858 535.7142857142858 570 500.0714285714286 570C322.5714285714286 570 178.6428571428571 426.0714285714285 178.6428571428571 248.5714285714286S322.5714285714286 -72.8571428571429 500.0714285714286 -72.8571428571429C677.5714285714286 -72.8571428571429 821.5 71.0714285714286 821.5 248.5714285714286C821.5 299.9285714285715 809.4285714285713 349.5714285714286 786.6428571428571 394.2857142857143C777.7142857142858 411.8571428571429 784.6428571428571 433.3571428571429 802.2857142857142 442.2857142857143S841.3571428571429 444.2857142857142 850.2857142857143 426.6428571428571C878.1428571428572 371.9285714285714 892.9285714285714 311.2142857142856 892.9285714285714 248.4999999999999C892.9285714285714 31.4999999999999 717.0714285714286 -144.357142857143 500.0714285714286 -144.357142857143S107.2142857142857 31.4999999999999 107.2142857142857 248.4999999999999C107.2142857142857 465.4999999999999 283.0714285714286 641.3571428571428 500.0714285714286 641.3571428571428C543.5714285714286 641.3571428571428 586.1428571428571 634.2857142857142 626.5 620.5714285714284z M668.1428571428571 631C682.0714285714286 617.0714285714286 682.0714285714286 594.4285714285714 668.1428571428571 580.5L525.2857142857142 437.6428571428572C511.3571428571428 423.7142857142857 488.7142857142857 423.7142857142857 474.7857142857143 437.6428571428572S460.8571428571428 474.2142857142858 474.7857142857143 488.1428571428572L592.3571428571428 605.7142857142858L474.7857142857143 723.2857142857142C460.8571428571428 737.2142857142857 460.8571428571428 759.8571428571429 474.7857142857143 773.7857142857142S511.3571428571428 787.7142857142857 525.2857142857142 773.7857142857142L668.1428571428571 630.9285714285714z" />
    <glyph glyph-name="remind"
      unicode="&#xEA20;"
      horiz-adv-x="1000" d=" M572.9285714285716 741.3571428571429L989.5000000000002 -9.2857142857142C1011.857142857143 -49.5714285714286 997.2857142857144 -100.2857142857143 957.0714285714286 -122.6428571428571C944.7142857142858 -129.5 930.7857142857144 -133.1428571428571 916.5714285714286 -133.1428571428571H83.357142857143C37.2857142857144 -133.1428571428571 1e-13 -95.7857142857143 1e-13 -49.7857142857143C1e-13 -35.6428571428571 3.5714285714287 -21.7142857142857 10.5000000000001 -9.2857142857142L427.0714285714287 741.3571428571429C449.4285714285715 781.6428571428572 500.2142857142858 796.1428571428572 540.4285714285714 773.7857142857143C554.0714285714287 766.2142857142858 565.2857142857143 755 572.857142857143 741.3571428571429zM500 -49.7857142857143C546.0714285714286 -49.7857142857143 583.3571428571429 -12.4285714285714 583.3571428571429 33.5714285714286S546 116.9285714285715 500 116.9285714285715C453.9285714285714 116.9285714285715 416.6428571428572 79.5714285714286 416.6428571428572 33.5714285714286S454 -49.7857142857143 500 -49.7857142857143zM500 617.3571428571429C453.9285714285714 617.3571428571429 416.6428571428572 580 416.6428571428572 534V283.8571428571428C416.6428571428572 237.7857142857144 454 200.5 500 200.5S583.3571428571429 237.8571428571428 583.3571428571429 283.8571428571428V534C583.3571428571429 580.0714285714286 546 617.3571428571428 500 617.3571428571428z" />
    <glyph glyph-name="sequence-down"
      unicode="&#xEA22;"
      horiz-adv-x="1000" d=" M569.4285714285714 -150.7142857142858C551.6428571428572 -168.7857142857143 527.0714285714287 -180 500 -180S448.3571428571429 -168.7857142857143 430.5714285714286 -150.7142857142858L135.9285714285715 149.2857142857142C97.5714285714286 188.3571428571429 97.5714285714286 251.6428571428571 135.9285714285715 290.7142857142857S236.5000000000001 329.7857142857142 274.857142857143 290.7142857142857L401.857142857143 161.4285714285713V720C401.857142857143 775.2142857142857 445.857142857143 820 500.0714285714287 820S598.2857142857143 775.2142857142857 598.2857142857143 720V161.4285714285713L725.2857142857144 290.7142857142857C763.6428571428573 329.7857142857142 825.857142857143 329.7857142857142 864.2142857142859 290.7142857142857S902.5714285714288 188.3571428571429 864.2142857142859 149.2857142857142L569.5714285714288 -150.7142857142858z" />
    <glyph glyph-name="sequence-up"
      unicode="&#xEA23;"
      horiz-adv-x="1000" d=" M430.5714285714286 790.7142857142857C448.3571428571429 808.7857142857143 472.9285714285714 820 500 820S551.6428571428571 808.7857142857143 569.4285714285714 790.7142857142857L864.0714285714286 490.7142857142857C902.4285714285714 451.6428571428571 902.4285714285714 388.3571428571429 864.0714285714286 349.2857142857143S763.5 310.2142857142857 725.1428571428571 349.2857142857143L598.1428571428571 478.5714285714286V-80C598.1428571428571 -135.2142857142857 554.1428571428571 -180 499.9285714285713 -180S401.7142857142857 -135.2142857142857 401.7142857142857 -80V478.5714285714286L274.7142857142856 349.2857142857143C236.3571428571428 310.2142857142857 174.1428571428571 310.2142857142857 135.7857142857142 349.2857142857143S97.4285714285713 451.6428571428571 135.7857142857142 490.7142857142857L430.4285714285714 790.7142857142858z" />
    <glyph glyph-name="sequence"
      unicode="&#xEA24;"
      horiz-adv-x="1000" d=" M499.8571428571429 -108.5714285714285C489.8571428571429 -108.5714285714285 479.9285714285714 -104.7857142857142 472.2857142857143 -97.1428571428571L238.5 136.6428571428571C223.2857142857143 151.8571428571428 223.2857142857143 176.5 238.5 191.7142857142858S278.3571428571429 206.9285714285715 293.5714285714286 191.7142857142858L499.7857142857143 -14.5L706 191.7142857142858C721.2142857142857 206.9285714285715 745.8571428571429 206.9285714285715 761.0714285714287 191.7142857142858S776.2857142857143 151.8571428571429 761.0714285714287 136.6428571428571L527.2857142857144 -97.1428571428571C519.6428571428572 -104.7857142857142 509.7142857142858 -108.5714285714285 499.7142857142858 -108.5714285714285zM499.8571428571429 654.5L293.6428571428572 448.2857142857142C278.4285714285715 433.0714285714285 253.7857142857144 433.0714285714285 238.5714285714287 448.2857142857142S223.3571428571429 488.1428571428571 238.5714285714287 503.3571428571428L472.3571428571429 737.1428571428571C487.5714285714287 752.3571428571428 512.2142857142858 752.3571428571428 527.4285714285716 737.1428571428571L761.2142857142859 503.3571428571428C776.4285714285716 488.1428571428571 776.4285714285716 463.4999999999999 761.2142857142859 448.2857142857142S721.357142857143 433.0714285714285 706.1428571428572 448.2857142857142L499.9285714285715 654.5z" />
    <glyph glyph-name="warning"
      unicode="&#xEA25;"
      horiz-adv-x="1000" d=" M500 -180C223.8571428571429 -180 0 43.8571428571429 0 320S223.8571428571429 820 500 820C776.1428571428571 820 1000 596.1428571428571 1000 320S776.1428571428571 -180 500 -180zM500 437.8571428571429L392.2857142857143 545.5714285714287C359.7142857142857 578.1428571428571 307 578.1428571428571 274.4285714285715 545.5714285714287S241.8571428571429 460.2857142857143 274.4285714285715 427.7142857142858L382.1428571428571 320.0000000000001L274.4285714285714 212.2857142857143C241.8571428571429 179.7142857142858 241.8571428571429 127.0000000000001 274.4285714285714 94.4285714285715S359.7142857142857 61.8571428571429 392.2857142857142 94.4285714285715L499.9999999999999 202.1428571428572L607.7142857142857 94.4285714285716C640.2857142857142 61.857142857143 692.9999999999999 61.857142857143 725.5714285714286 94.4285714285716S758.1428571428571 179.7142857142858 725.5714285714286 212.2857142857145L617.8571428571428 320.0000000000002L725.5714285714284 427.7142857142859C758.142857142857 460.2857142857145 758.142857142857 513.0000000000002 725.5714285714284 545.5714285714287S640.2857142857142 578.1428571428573 607.7142857142856 545.5714285714287L499.9999999999998 437.857142857143z" />
    <glyph glyph-name="android2"
      unicode="&#xE900;"
      horiz-adv-x="1000" d=" M888.65625 385.34375C875.4375000000001 504.6875 808.5 607.78125 712.65625 670.0625L756.09375 757.0625C766.8125 778.5625 758.09375 804.625 736.59375 815.40625S689.0937500000001 817.40625 678.3125000000001 795.90625L634.7500000000001 708.625L623.4687500000001 713.1875C584.6875000000001 726.03125 543.1875000000001 733.03125 500.0312500000002 733.03125S415.3750000000002 726.03125 376.5937500000002 713.1875L365.3125000000002 708.625L321.6562500000002 795.90625C310.9375000000002 817.40625 284.8125000000001 826.0625 263.3750000000001 815.40625C241.8750000000002 804.6875 233.2187500000002 778.5625 243.8750000000002 757.0625L287.3125000000001 670.0625C191.5312500000002 607.84375 124.5937500000002 504.71875 111.3750000000001 385.34375V341.90625H891.1562500000001V385.34375H888.6562500000001zM344.21875 450.5625C308.2187500000001 450.5625 279.0625 479.7812500000001 279.0625 515.71875C279.0625 551.71875 308.125 580.71875 344.0625 580.875H344.34375C380.34375 580.71875 409.34375 551.65625 409.34375 515.71875S380.125 450.5625 344.1875 450.5625zM655.5 450.5625C619.5625 450.5625 590.34375 479.7812500000001 590.34375 515.71875C590.34375 551.71875 619.4062499999999 580.71875 655.3437499999999 580.875H655.7812499999999C691.7812499999999 580.71875 720.7812499999999 551.65625 720.7812499999999 515.71875S691.5625 450.5625 655.6249999999999 450.5625H655.4687499999999z M891.0625 -179.5625V248.21875H108.90625V-180H891.0625z" />
    <glyph glyph-name="arrow-down2"
      unicode="&#xE901;"
      horiz-adv-x="1000" d=" M142.4375 162.5L474.28125 -169.4375C488.3437499999999 -183.5000000000001 511.4375 -183.5000000000001 525.5624999999999 -169.4375L857.5625 162.5C871.625 176.5625 871.625 199.5625 857.625 213.71875L825.6249999999999 245.71875C811.5625 259.71875 788.5625 259.71875 774.4687499999999 245.71875L558.5312499999999 29.7187500000001V783.7187500000001C558.5312499999999 803.5625000000001 542.2499999999999 819.8750000000001 522.3749999999999 819.9375000000001L477.4374999999999 820.0000000000001C457.5937499999999 819.9375000000001 441.2812499999999 803.7187500000001 441.2812499999999 783.7812500000001V29.7187500000001L225.2812499999999 245.6562500000001C211.2187499999999 259.6562500000001 188.2187499999999 259.6562500000001 174.1249999999999 245.6562500000001L142.2812499999999 213.7187500000001C128.2812499999999 199.6562500000001 128.2812499999999 176.5625000000001 142.3437499999999 162.5000000000001z" />
    <glyph glyph-name="arrow-up2"
      unicode="&#xE902;"
      horiz-adv-x="1000" d=" M857.5625 477.5L525.71875 809.4375C511.6562500000001 823.5 488.5625 823.5 474.4375 809.4375L142.4375 477.5C128.375 463.4375 128.375 440.4375 142.375 426.28125L174.375 394.28125C188.4375 380.28125 211.4375 380.28125 225.5312500000001 394.28125L441.46875 610.28125V-143.78125C441.46875 -163.6250000000001 457.7500000000001 -179.9375 477.625 -180H522.5625C542.4062500000001 -179.9375 558.71875 -163.71875 558.71875 -143.78125V610.28125L774.71875 394.34375C788.78125 380.34375 811.78125 380.34375 825.875 394.34375L857.65625 426.1875C871.71875 440.34375 871.71875 463.4062499999999 857.65625 477.4687499999999z" />
    <glyph glyph-name="attribution"
      unicode="&#xE903;"
      horiz-adv-x="1000" d=" M0 -117.5H1000V-180H0V-117.5z M0 316.4375H187.5V3.9375H0V316.4375z M250 820H437.5V3.9375H250V820z M500 566.5H687.5V3.9999999999999H500V566.5z M750 441.4375H937.5V3.9375H750V441.4375z" />
    <glyph glyph-name="avatar"
      unicode="&#xE904;"
      horiz-adv-x="1000" d=" M767.65625 552.34375C767.65625 404.53125 647.84375 284.6875 500 284.6875S232.3437500000001 404.5312500000001 232.3437500000001 552.34375C232.3437500000001 700.15625 352.1875 820 500 820S767.6562499999999 700.1875 767.6562499999999 552.34375z M500 266.0625C253.6562500000001 266.0625 53.9375 66.28125 53.9375 -180H946.09375C946.09375 66.28125 746.375 266.0625 500.0312499999999 266.0625z" />
    <glyph glyph-name="book2"
      unicode="&#xE905;"
      horiz-adv-x="1000" d=" M218.71875 -117.28125C184.21875 -117.28125 156.21875 -89.2812499999999 156.21875 -54.78125S184.21875 7.71875 218.71875 7.71875H906.21875V70.21875H218.71875C149.71875 70.21875 93.71875 14.21875 93.71875 -54.78125S149.71875 -179.78125 218.71875 -179.78125H906.21875V-118.3437499999999L218.71875 -117.28125z M218.71875 819.78125C149.71875 819.78125 93.71875 763.78125 93.71875 694.78125V-54.7812500000001C93.71875 14.2187499999999 149.71875 70.2187499999999 218.71875 70.2187499999999H906.21875V819.78125H218.71875zM736.5625 414.0625H338.90625C319.1875 414.0625 303.1875 430.0625 303.1875 449.78125S319.1875 485.5000000000001 338.90625 485.5000000000001H736.5625C756.28125 485.5000000000001 772.28125 469.5 772.28125 449.78125S756.34375 414.0625 736.5625 414.0625zM736.5625 599.5625H338.90625C319.1875 599.5625 303.1875 615.5625 303.1875 635.28125S319.1875 671 338.90625 671H736.5625C756.28125 671 772.28125 655 772.28125 635.28125S756.34375 599.5625 736.5625 599.5625z" />
    <glyph glyph-name="btn-off"
      unicode="&#xE906;"
      horiz-adv-x="1000" d=" M953.21875 646.28125H46.65625C20.875 646.28125 0 625.4375 0 599.625V40.3437500000001C0 14.625 20.84375 -6.3124999999999 46.65625 -6.3124999999999H953.4374999999998C979.2187499999998 -6.3124999999999 1000.09375 14.5312500000001 1000.09375 40.3437500000001V599.625C1000.0312499999998 625.40625 979.15625 646.28125 953.25 646.28125zM813.5 79.65625C813.5 66.8750000000001 803 56.375 790.21875 56.375H85.9375C73.09375 56.375 62.65625 66.875 62.65625 79.65625V560.3125C62.65625 573.25 73 583.59375 85.9375 583.59375H790.21875C802.9999999999999 583.59375 813.5 573.25 813.5 560.3125V79.65625z M335.84375 421.4375C312.28125 445.78125 280.78125 458 241.40625 458C219.625 458 200.46875 454.5 183.90625 447.5C171.40625 442.21875 159.90625 434.21875 149.40625 423.34375C138.96875 412.625 130.6875 400.34375 124.625 386.6875C116.5625 368.25 112.40625 345.4687500000001 112.40625 318.34375C112.40625 275.78125 124.125 242.5 147.5625 218.2812499999999C170.90625 193.9999999999999 202.5 181.9374999999999 242.125 181.9374999999999C281.34375 181.9374999999999 312.625 194.15625 336.125 218.4374999999999S371.28125 276.4999999999999 371.28125 319.5937499999999C371.28125 363.0312499999999 359.4375 397.0312499999999 335.84375 421.4374999999999zM242 243.5625C225.0625 243.5625 211.5 249.5 200.4375 261.7812499999999C189.28125 274.4374999999999 183.65625 293.9999999999999 183.65625 320.0624999999999C183.65625 346.7187499999999 189.21875 366.3437499999999 200.09375 378.625C210.59375 390.40625 224.375 396.1874999999999 242.09375 396.1874999999999S273.4375 390.53125 283.875 378.9687499999999C294.59375 366.9687499999999 300.03125 347.4062499999999 300.03125 320.9062499999999C299.96875 293.9687499999999 294.3125 274.0624999999999 283.25 261.6874999999999C272.40625 249.4687499999999 258.96875 243.5312499999999 242.03125 243.5312499999999z M404.9375 186.5H468.71875V288.0000000000001H570.21875V345.0625000000001H468.7187499999999V396.2187500000001H571.5V453.5000000000001H404.9375z M601.21875 186.5H664.78125V288.0000000000001H766.5625V345.0625000000001H664.78125V396.2187500000001H767.21875V453.5000000000001H601.2187499999999z" />
    <glyph glyph-name="btn-on"
      unicode="&#xE907;"
      horiz-adv-x="1000" d=" M953.4375 646.28125H46.5937500000001C20.8750000000001 646.28125 -0.0624999999999 625.4375 -0.0624999999999 599.71875V40.375C-0.0624999999999 14.65625 20.8750000000001 -6.1875 46.5937500000001 -6.1875H953.5937500000002C979.1562500000002 -6.1875 1000.0937500000002 14.6562500000001 1000.0937500000002 40.375V599.71875C1000.0312500000002 625.4375 978.9375000000002 646.28125 953.4375000000002 646.28125zM937.5 79.5C937.5 66.71875 927 56.2187499999999 914.28125 56.2187499999999H209.7187500000001C196.9375000000001 56.2187499999999 186.4375000000001 66.7187499999999 186.4375000000001 79.5V560.5C186.4375000000001 573.3437499999999 196.9375000000001 583.78125 209.7187500000001 583.78125H914.2187500000002C926.9375000000002 583.71875 937.4375 573.34375 937.4375 560.4375V79.4999999999999z M523.15625 421.34375C513.09375 431.78125 501.3124999999999 439.5 488.375 445.40625C471.03125 453.46875 451.3125 457.96875 428.71875 457.96875C406.9375 457.96875 387.875 454.53125 371.15625 447.40625C358.65625 442.25 347.09375 434.1875 336.71875 423.25C326.28125 412.53125 318 400.3125 311.9375 386.7500000000001C303.65625 368.3125000000001 299.65625 345.53125 299.65625 318.3125000000001C299.65625 275.8125000000001 311.375 242.53125 334.875 218.3125000000001C358.3125 194.03125 389.875 182.03125 429.59375 182.03125C468.8124999999999 182.03125 500.09375 194.09375 523.53125 218.53125C544.53125 240.3125 555.53125 269.96875 557.8125 306.6875C558.0312500000001 310.9687500000001 558.7500000000001 315.0312500000001 558.7500000000001 319.6250000000001C558.6875000000001 362.9687500000001 546.8125 396.9687500000001 523.1875000000001 421.3437500000001zM429.28125 243.71875C419.78125 243.71875 411.0000000000001 246.4375 401.5 252.0625C395.28125 255.71875 390.8437500000001 258.21875 387.5625000000001 261.90625C376.3437500000001 274.34375 370.6250000000001 293.9062500000001 370.6250000000001 320.1875000000001C370.6250000000001 346.8437500000001 376.1250000000001 366.4062500000001 386.96875 378.6250000000001C397.53125 390.46875 411.25 396.3437500000001 429.0312500000001 396.3437500000001C437.25 396.3437500000001 444.8125000000001 395.0000000000001 452.09375 392.1250000000001L454.09375 391.3437500000001H454.2500000000001C455.4062500000001 390.6250000000001 470.5312500000001 379.5625 470.9687500000001 379.0625C481.7500000000001 367.125 487.1250000000001 347.5 487.1250000000001 320.90625C487.1875000000001 293.96875 481.5625 273.96875 470.4687500000001 261.5625C459.6875 249.5625 446.1875000000001 243.7187499999999 429.25 243.7187499999999z M762.9375 285.78125L661.09375 453.4375000000001H601.2500000000001V186.4375H661.09375V351.28125L758.8125 186.4375H822.25V453.4375H762.9687500000001z" />
    <glyph glyph-name="building2"
      unicode="&#xE908;"
      horiz-adv-x="1000" d=" M627.9375 757.5C597.875 795.28125 552.09375 820 500 820S402.15625 795.28125 372.0625 757.5H125V-180H875V757.5H627.9375zM500 788.71875C517.28125 788.71875 531.28125 774.71875 531.28125 757.4375S517.28125 726.28125 500 726.28125C482.78125 726.28125 468.71875 740.28125 468.71875 757.5625S482.78125 788.71875 500 788.71875zM812.5 -117.5H187.5V695H341.21875C338.0625 682.4375 335.9375 669.5 335.9375 655.9375H664.0937499999999C664.0937499999999 669.5 662.03125 682.4375 658.9375 695H812.5V-117.5z M297.71875 255.0625V598.78125H235.21875V192.5625H764.78125V255.0625z M235.21875 124.71875H764.7812500000001V62.21875H235.2187500000001V124.71875z M235.21875 7.5H764.7812500000001V-55H235.2187500000001V7.5z M484.28125 435.84375L600.21875 319.8437500000001L754.1562500000001 473.7812500000001L709.9375000000001 518L600.2187500000001 408.2812500000001L484.2812500000001 524.2187500000001L377.8437500000001 417.7812500000001L341.8437500000001 453.7812500000001L297.6875000000001 409.6250000000001L377.8437500000001 329.4062500000001z" />
    <glyph glyph-name="charts-line"
      unicode="&#xE909;"
      horiz-adv-x="1000" d=" M62.5 37.9375V664.59375H0V-24.5625H1000V37.9375z M621 236.28125C612.71875 236.28125 604.78125 239.5625000000001 598.9375 245.4375L439.4375000000001 404.9375L350.7812500000001 316.375C338.5625000000001 304.1562500000001 318.78125 304.1562500000001 306.5625000000001 316.375L170.8437500000001 452.09375C158.6250000000001 464.3125 158.6250000000001 484.0937500000001 170.8437500000001 496.3125S202.8437500000001 508.53125 215.0625000000001 496.3125L328.6250000000001 382.75L417.2812500000001 471.3124999999999C429.5000000000001 483.5312499999999 449.2812500000001 483.5312499999999 461.5 471.3124999999999L621 311.7499999999999L909.9375000000002 600.7499999999999C922.15625 612.9687499999999 941.9375000000002 612.9687499999999 954.15625 600.7499999999999S966.375 568.7499999999999 954.15625 556.5312499999999L643.09375 245.3749999999999C637.25 239.5937499999999 629.3125 236.3124999999999 621.03125 236.3124999999999z M932 418.71875C914.71875 418.71875 900.71875 432.7187500000001 900.71875 450V552.0625H795C777.71875 552.0625 763.71875 566.0625 763.71875 583.34375S777.71875 614.625 795 614.625H963.2812500000002V449.96875C963.2812500000002 432.6875 949.2812500000002 418.6875 932 418.6875z" />
    <glyph glyph-name="charts"
      unicode="&#xE90A;"
      horiz-adv-x="1000" d=" M62.5 -117.5V820H0V-180H1000V-117.5z M587.4375 250.5625C579.1562499999999 250.5625 571.21875 253.84375 565.375 259.7187499999999L405.8125 419.2187499999999L317.25 330.7187499999999C305.03125 318.5 285.25 318.5 273.03125 330.7187499999999L137.3125 466.4374999999999C125.09375 478.6562499999999 125.09375 498.4374999999999 137.3125 510.6562499999999S169.3125 522.8749999999999 181.53125 510.6562499999999L295.09375 397.0937499999999L383.75 485.6562499999998C395.96875 497.8749999999998 415.75 497.8749999999998 427.9687499999999 485.6562499999998L587.4687499999999 326.0937499999999L876.4062499999999 615.0937499999998C888.6249999999998 627.3124999999998 908.4062499999998 627.3124999999998 920.6249999999998 615.0937499999998S932.8437499999998 583.0937499999998 920.6249999999998 570.8749999999998L609.5624999999998 259.6562499999999C603.7187499999998 253.8749999999999 595.7812499999998 250.5937499999999 587.4999999999998 250.5937499999999z M137.34375 -55V327.5C137.34375 327.5 169.34375 339.71875 181.5625 327.5L295.125 213.9375L383.78125 302.4375000000001C396 314.65625 415.78125 314.65625 428 302.4375000000001L587.4375 142.875L876.3749999999999 431.875C888.5937499999999 444.09375 920.5937499999998 431.875 920.5937499999998 431.875V-54.9687500000001H137.3749999999999z" />
    <glyph glyph-name="check2"
      unicode="&#xE90B;"
      horiz-adv-x="1000" d=" M846.71875 261.0625V69.84375C846.71875 22.125 829.7812499999999 -18.65625 795.9375 -52.4999999999999S721.21875 -103.3437499999999 673.59375 -103.3437499999999H173.25C125.53125 -103.3437499999999 84.8125 -86.3437499999999 50.90625 -52.4999999999999S0.0625 22.15625 0.0625 69.84375V570.125C0.0625 617.90625 17 658.625 50.84375 692.5625C84.78125 726.40625 125.5625 743.34375 173.28125 743.34375H673.625C698.9062500000001 743.34375 722.3437500000001 738.34375 743.9687500000001 728.34375C749.9687500000001 725.5625 753.6250000000001 720.90625 754.75 714.5625C755.9687500000001 707.71875 754.1875 701.90625 749.3125 697.125L719.8125000000001 667.625C715.8125000000001 663.5625 711.15625 661.5625 705.96875 661.5625C704.75 661.5625 702.96875 662 700.53125 662.78125C691.3125 665.21875 682.3125000000001 666.34375 673.4687500000001 666.34375H173.1875000000001C146.7500000000001 666.34375 124.0312500000001 656.90625 105.2500000000001 638.0625C86.40625 619.28125 76.9687500000001 596.625 76.9687500000001 570.125V69.84375C76.9687500000001 43.3437500000001 86.4062500000001 20.78125 105.2500000000001 1.8437500000001C124.0312500000001 -16.9374999999999 146.7500000000001 -26.3749999999999 173.1875000000001 -26.3749999999999H673.53125C700.03125 -26.3749999999999 722.6875 -16.9374999999999 741.46875 1.8437500000001C760.3125000000001 20.6875000000001 769.75 43.3437500000001 769.75 69.8437500000001V222.6250000000001C769.75 227.8437500000003 771.53125 232.1875000000001 775.1875 235.8437500000001L813.6875 274.34375C817.6875 278.34375 822.34375 280.34375 827.53125 280.34375C829.875 280.34375 832.3125 279.78125 834.7500000000001 278.5625000000001C842.6875000000001 275.34375 846.6875000000001 269.5000000000001 846.7500000000001 261.0625000000001V261.0625000000001zM985.5625 555.15625L496.0625 65.65625C486.4062500000001 56 475.0000000000001 51.21875 461.7812500000001 51.21875S437.1250000000001 56 427.5000000000001 65.65625L168.9375000000001 324.21875C159.2812500000001 333.9375 154.5000000000001 345.28125 154.5000000000001 358.5S159.2812500000001 383.15625 169.0000000000001 392.78125L235.0625000000001 458.8437499999999C244.7187500000001 468.4999999999999 256.1250000000001 473.3437499999999 269.3437500000001 473.3437499999999S294.0000000000001 468.5624999999999 303.6250000000001 458.8437499999999L461.7812500000001 300.6874999999999L850.9375000000001 689.7499999999999C860.5000000000001 699.4062499999999 872.0000000000001 704.1874999999999 885.2187500000001 704.1874999999999S909.8750000000002 699.4062499999999 919.5000000000002 689.7499999999999L985.6562500000002 623.5937499999999C995.2187500000002 614.0937499999999 1000.0000000000002 602.6562499999999 1000.0000000000002 589.4374999999999S995.2187500000002 564.71875 985.5625000000002 555.09375V555.09375z" />
    <glyph glyph-name="close-circle"
      unicode="&#xE90C;"
      horiz-adv-x="1000" d=" M748 172.78125C748 184.125 743.84375 193.7812500000001 735.71875 202.0625000000001L617.78125 320.0000000000001L735.625 437.7812500000001C743.84375 446.0000000000001 747.90625 455.7812500000001 747.90625 467.0625000000001C747.90625 478.8437500000001 743.75 488.7812500000001 735.625 497.0000000000001L676.96875 555.5625000000001C668.6875 563.7812500000001 658.7500000000001 567.9062500000001 646.90625 567.9062500000001C635.625 567.9062500000001 625.96875 563.7500000000001 617.625 555.5625000000001L499.9687499999999 437.7812500000001L382.1875 555.625C373.84375 563.84375 364.125 567.96875 352.84375 567.96875C341.125 567.96875 331.0625 563.8125000000001 322.90625 555.625L264.34375 497.0625000000001C256.125 488.7812500000001 252 478.7812500000001 252 467.1250000000001C252 455.8437500000001 256.15625 446.1875000000001 264.34375 437.8437500000001L382.1874999999999 320.0000000000001L264.3437499999999 202.1562500000001C256.1249999999999 193.9375 251.9999999999999 184.21875 251.9999999999999 172.875C251.9999999999999 161.15625 256.1562499999999 151.15625 264.3437499999999 142.875L322.9062499999999 84.3125000000001C331.1249999999999 76.09375 341.1249999999999 72.03125 352.8437499999999 72.03125C364.125 72.03125 373.84375 76.09375 382.1249999999999 84.3125000000001L499.9687499999998 202.1562500000001L617.7499999999998 84.3125000000001C626.0312499999998 76.09375 635.7499999999998 72.03125 647.0312499999999 72.03125C658.8124999999998 72.03125 668.8124999999998 76.09375 677.0937499999998 84.3125000000001L735.7499999999998 142.875C743.8124999999998 151.15625 747.9687499999999 161.21875 747.9687499999999 172.8125zM1000 320C1000 229.28125 977.65625 145.65625 933 69.0625C888.21875 -7.65625 827.6562500000001 -68.28125 751.0625000000001 -113C674.28125 -157.65625 590.7187500000001 -179.9375 500 -179.9375S325.65625 -157.7187500000001 248.9375 -113C172.375 -68.28125 111.71875 -7.6562500000001 67 69.0625C22.34375 145.6249999999999 0 229.2812499999999 0 320S22.34375 494.34375 67.0625 571S172.34375 708.28125 249 752.9375S409.28125 819.9375 500 819.9375S674.28125 797.59375 751.0625 752.875C827.625 708.15625 888.2812499999999 647.59375 932.9999999999998 570.9375C977.5624999999998 494.375 1000 410.71875 1000 320z" />
    <glyph glyph-name="coincide"
      unicode="&#xE90E;"
      horiz-adv-x="1000" d=" M1000 493.9375C1000 672.28125 854.84375 817.4375 676.5 817.4375C582.71875 817.4375 495.0624999999999 776.21875 433.15625 704.4375C193.59375 700.15625 0 504.28125 0 263.71875C0 20.4375 197.9375 -177.4999999999999 441.15625 -177.4999999999999C677.3750000000001 -177.4999999999999 871.65625 11.0625 881.3125 245.5625000000001C956.7500000000002 307.5625000000001 1000.0312500000002 397.1250000000001 1000.0312500000002 493.9062500000001zM676.5 758.65625C822.5 758.65625 941.21875 639.9375 941.21875 493.9374999999999C941.21875 430.71875 918.71875 371.15625 878.28125 323.78125C851.71875 514.9375 701.125 668.5625 510.8437500000001 699.1249999999999C557.5625000000001 737.40625 615.5625 758.6249999999999 676.5000000000001 758.6249999999999zM441.15625 -118.65625C230.3125000000001 -118.65625 58.8125 52.84375 58.8125 263.6875C58.8125 455.8437500000001 201.25 615.34375 389.7500000000001 641.90625C365.5937500000001 596.0625 352.9687500000001 545.75 352.9687500000001 493.9062500000001C352.9687500000001 315.5625 498.1250000000001 170.40625 676.4687500000001 170.40625C726.03125 170.40625 774.3125000000001 181.9687500000001 818.6875 204.1875C789.96875 21.75 631.03125 -118.65625 441.1875 -118.65625z" />
    <glyph glyph-name="data-decrease"
      unicode="&#xE90F;"
      horiz-adv-x="1000" d=" M128.5625 482.65625C97.125 482.65625 71.40625 456.9375 71.40625 425.5V214.5C71.40625 183.0625 97.125 157.3437499999999 128.5625 157.3437499999999H871.40625C902.84375 157.3437499999999 928.5625000000002 183.0625 928.5625000000002 214.5V425.5C928.5625000000002 456.9374999999999 902.84375 482.6562499999999 871.40625 482.6562499999999H128.5625z" />
    <glyph glyph-name="data-increase"
      unicode="&#xE910;"
      horiz-adv-x="1000" d=" M374.34375 -127.0625C374.34375 -158.125 399.78125 -183.625 430.90625 -183.625H569.1875C600.25 -183.625 625.7499999999999 -158.1875 625.7499999999999 -127.0625V767.09375C625.7499999999999 798.15625 600.3124999999999 823.65625 569.1875 823.65625H430.84375C399.78125 823.65625 374.28125 798.21875 374.28125 767.09375V-127.0625z M56.5625 193.28125C25.40625 193.28125 0 218.71875 0 249.84375V390.125C0 421.1875 25.4375 446.6875 56.5625 446.6875H943.5C974.5625 446.6875 1000 421.25 1000 390.125V249.78125C1000 218.71875 974.5625 193.21875 943.4375 193.21875H56.59375z" />
    <glyph glyph-name="down"
      unicode="&#xE911;"
      horiz-adv-x="1000" d=" M911.78125 614.0625L500 202.28125L88.21875 614.125L0 525.84375L500 25.84375L1000 525.84375L911.78125 614.0625z" />
    <glyph glyph-name="download2"
      unicode="&#xE912;"
      horiz-adv-x="1000" d=" M769.28125 -8.21875C769.28125 1.625 765.5000000000001 10.34375 757.7812500000001 17.5C750.21875 24.78125 741.125 28.28125 730.7187500000001 28.28125C720.3750000000001 28.28125 711.2812500000001 24.5 703.6562500000001 17.5C696.0937500000001 10.28125 692.1562500000001 1.78125 692.1562500000001 -8.21875C692.1562500000001 -18.0625 696.0937500000002 -26.65625 703.6562500000001 -33.875S720.3125000000001 -44.65625 730.7187500000001 -44.65625C741.0625000000001 -44.8125 750.1562500000001 -41 757.7812500000001 -33.875C765.5000000000001 -26.7187500000001 769.28125 -18.0937500000001 769.28125 -8.21875zM923.21875 -8.21875C923.21875 1.625 919.4375 10.34375 911.71875 17.5C904.15625 24.78125 895.2187500000001 28.28125 884.65625 28.28125C874.3125 28.28125 865.21875 24.5 857.59375 17.5C849.875 10.28125 846.0937500000001 1.78125 846.0937500000001 -8.21875C846.0937500000001 -18.0625 849.875 -26.65625 857.59375 -33.875C865.1562500000001 -41.0937500000001 874.2500000000001 -44.65625 884.65625 -44.65625C895.15625 -44.8125 904.09375 -41 911.71875 -33.875C919.28125 -26.7187500000001 923.21875 -18.0937500000001 923.21875 -8.21875zM1000 119.4375V-62.8437499999999C1000 -78.0624999999999 994.34375 -91.0624999999999 983.15625 -101.6249999999999C971.8749999999998 -112.28125 958.375 -117.46875 942.375 -117.46875H57.7187499999999C41.7187499999999 -117.46875 28.0624999999999 -112.2499999999999 16.9374999999999 -101.6249999999999S-1e-13 -77.9687499999999 -1e-13 -62.78125V119.5000000000001C-1e-13 134.71875 5.6562499999999 147.5625000000001 16.8437499999999 158.2187500000001C28.1249999999999 168.8750000000001 41.5624999999999 174.2187500000001 57.6249999999999 174.2187500000001H337.125L418.40625 96.6562500000001C441.5625 75.3750000000001 468.9062499999999 64.8125000000002 500.1249999999999 64.8125000000002C531.40625 64.8125000000002 558.6874999999999 75.3750000000002 581.90625 96.6562500000001L663.6249999999999 174.2187500000001H942.6249999999998C958.625 174.2187500000001 972.28125 168.9375000000001 983.4062499999998 158.2187500000001C994.4687499999998 147.4375000000001 999.96875 134.6562500000001 999.96875 119.4375000000001V119.4375000000001zM804.71875 443.65625C811.5 427.9375 808.71875 414.71875 796.28125 403.71875L527.0625 148.5C519.90625 141.28125 510.8437500000001 137.65625 500 137.65625C489.21875 137.65625 480.28125 141.4374999999999 472.9375 148.59375L203.71875 403.8125C191.28125 414.75 188.5 428.03125 195.28125 443.65625C202.0625 458.375 214 465.8125 230.7187500000001 465.8125H384.5000000000001V721.09375C384.5000000000001 730.875 388.3437500000001 739.4375 396.0000000000001 746.8125C403.5625000000001 754.03125 412.5625000000001 757.53125 423.0000000000001 757.53125H576.7812500000001C587.1250000000001 757.53125 596.2187500000001 753.875 603.8437500000001 746.75C611.5625000000001 739.46875 615.3437500000001 730.96875 615.3437500000001 721.03125V465.75H769.1250000000001C785.9687500000001 465.8125 797.8437500000001 458.40625 804.6875 443.6875V443.6875z" />
    <glyph glyph-name="edit2"
      unicode="&#xE913;"
      horiz-adv-x="1000" d=" M1000 580.4375C1000 557.09375 991.78125 537.28125 975.5 521L865.9375 411.4375L591.375 686.09375L700.9375 795.03125C716.875 811.75 736.5937499999999 820.03125 760.28125 820.03125C783.5 820.03125 803.5625000000001 811.6875 820.34375 794.96875L975.5 640.46875C991.84375 623.40625 999.9375 603.3125 1000 580.46875V580.46875z M549.15625 643.71875L0 94.5625V-180H274.65625L823.8749999999999 369.21875L549.1562499999999 643.71875zM244 -106.0625H163.78125V-16.21875H73.9375V63.9375L549.15625 539.15625L617.09375 471.1562500000001L200.75 54.875C196.96875 51.0937500000001 195.25 46.59375 195.25 41.3750000000001C195.25 29.8125000000001 201.03125 23.8750000000001 212.59375 23.8750000000001C217.875 23.8750000000001 222.375 25.6562500000001 226.09375 29.4375000000001L642.53125 445.8750000000002L719.1875 369.2187500000003L244.03125 -106.0624999999998z" />
    <glyph glyph-name="exclamation-circle2"
      unicode="&#xE914;"
      horiz-adv-x="1000" d=" M500 820C223.84375 820 0 596.15625 0 320C0 43.78125 223.84375 -180 500 -180S1000 43.78125 1000 320C1000 596.15625 776.15625 820 500 820zM562.5 -55H437.5V70H562.5V-55zM582.0625 507.5L562.5 195H437.5L418 507.5L406.28125 695H593.84375L582.0625 507.5z" />
    <glyph glyph-name="exit"
      unicode="&#xE915;"
      horiz-adv-x="1000" d=" M961.5625 281.5625C961.5625 219.0625 949.28125 159.34375 924.84375 102.5S867.5625 -3.4375 826.28125 -44.71875S735.9374999999999 -118.875 678.9999999999999 -143.375C622.15625 -167.8125 562.4999999999999 -180.0312499999999 499.9999999999999 -180.0312499999999S377.78125 -167.8125 320.9375 -143.3749999999999C264.0937499999999 -118.9374999999999 214.9999999999999 -86.0937499999999 173.7187499999999 -44.7187499999999C132.4375 -3.4374999999998 99.5624999999999 45.6250000000002 75.0624999999999 102.5000000000002C50.6249999999999 159.3437500000001 38.4062499999999 219.0625000000002 38.4062499999999 281.5625000000003C38.4062499999999 354.4062500000002 54.5624999999999 423.2187500000003 86.8437499999999 487.7187500000002C119.0624999999999 552.1562500000002 164.4999999999999 606.2812500000002 222.9999999999999 649.9375000000002C240.2187499999999 662.7187500000002 259.34375 667.7812500000002 280.3437499999999 665.0000000000002S318.1249999999999 652.1562500000002 330.4999999999999 634.9375000000002C343.28125 618.1562500000002 348.2187499999999 599.2187500000002 345.28125 578.1562500000002S332.4375 540.1562500000002 315.5624999999999 527.3750000000002C276.28125 497.6562500000002 245.9062499999999 461.3750000000002 224.4999999999999 418.5312500000003S192.3437499999999 330.0312500000003 192.3437499999999 281.5312500000003C192.3437499999999 239.8125000000001 200.4062499999999 200.0937500000001 216.6249999999999 162.2500000000001S254.8437499999999 91.5937500000002 282.4062499999999 64.0312500000001C310.0624999999999 36.3750000000001 342.7499999999999 14.4687500000002 380.6249999999999 -1.7499999999999S458.2812499999999 -26.0937499999999 499.9062499999999 -26.0937499999999S581.3437499999998 -17.9374999999999 619.1874999999999 -1.7499999999999C657.0312499999999 14.4687500000001 689.90625 36.4687500000001 717.4687499999999 64.0312500000001C745.1874999999999 91.6875000000002 767.0312499999999 124.3750000000002 783.2499999999999 162.3125000000001C799.4687499999999 200.1562500000001 807.5312499999999 239.9687500000001 807.5312499999999 281.5937500000001C807.5312499999999 330.0937500000001 796.8124999999999 375.8125000000002 775.3749999999999 418.5937500000002C754.0312499999999 461.4375000000002 723.6562499999999 497.7500000000001 684.375 527.3750000000002C667.59375 540.1562500000002 657.59375 557.1562500000001 654.59375 578.1562500000001C651.59375 599.2187500000001 656.4375 618.1562500000001 669.3749999999999 634.9375000000001C681.8124999999999 652.1562500000001 698.65625 662.2187500000001 719.8749999999999 665.0000000000001C741.15625 667.7812500000001 760.15625 662.7812500000001 776.9375 649.9375000000001C835.375 606.2812500000001 880.78125 552.1562500000001 913.0937499999998 487.6562500000002S961.53125 354.4375000000002 961.53125 281.5937500000001L961.3124999999998 281.5312500000003V281.5937500000001H961.53125zM576.84375 743.0625V358.4062500000001C576.84375 337.625 569.1875 319.5625 553.9999999999999 304.2500000000001C538.78125 289.1875000000001 520.7187499999999 281.5312500000001 499.9374999999999 281.4687500000001C479.1562499999999 281.4687500000001 461.0937499999999 289.0312500000001 445.8749999999999 304.2500000000001C430.5937499999999 319.5312500000001 423.0312499999999 337.5312500000001 423.0312499999999 358.4062500000001V743.0625C423.0312499999999 763.9062500000001 430.6874999999999 781.9062500000001 445.8749999999999 797.1250000000001S479.0937499999999 819.9687500000001 499.9374999999999 819.9687500000001C520.78125 819.9687500000001 538.7812499999999 812.4062500000001 553.9999999999999 797.1250000000001S576.84375 763.8437500000001 576.84375 743.0625z" />
    <glyph glyph-name="flow"
      unicode="&#xE916;"
      horiz-adv-x="1000" d=" M783.28125 195.15625H583.125L332.96875 -55H-0.03125V-180H384.6875L634.90625 70.2187499999999H783.25V0.1562499999999L999.96875 132.7187499999999L783.25 265.21875z M447.4375 445.15625H783.2812499999999V375.0937500000001L999.9999999999998 507.6562500000001L783.2812499999999 640.2187500000001V570.0625000000001H499.2812499999999L249.28125 820.0000000000001H-1e-13V695.0000000000001H197.5625z M583.28125 218.15625L783.2812499999999 320L583.28125 421.78125V382.5H0V257.5H583.28125z" />
    <glyph glyph-name="frame"
      unicode="&#xE917;"
      horiz-adv-x="1000" d=" M0 -117.5C0 -152.0625 27.9375 -180 62.5 -180H937.5C972.0625 -180 1000 -152.0625 1000 -117.5V495.9374999999999H0V-117.5zM634.71875 372.34375H928.375V-75.65625H634.71875V372.34375zM72.21875 372.34375H572.21875V309.84375H72.21875C72.21875 309.84375 72.21875 372.34375 72.21875 372.34375zM72.21875 244.5625H572.21875V182.0625H72.21875C72.21875 182.0625 72.21875 244.5625 72.21875 244.5625zM72.21875 118.4375H572.21875V55.9375H72.21875C72.21875 55.9375 72.21875 118.4375 72.21875 118.4375zM72.21875 -9.34375H572.21875V-71.84375H72.21875C72.21875 -71.84375 72.21875 -9.34375 72.21875 -9.34375z M1000 757.5C1000 792.0625 972.0625 820 937.5 820H62.5C27.9375 820 0 792.0625 0 757.5V558.4375H1000V757.5zM696.5625 618.9375H71.5625V743.9375H696.5625V618.9375zM928.34375 618.9375H740.84375V743.9375H928.34375V618.9375z" />
    <glyph glyph-name="gear-circle"
      unicode="&#xE918;"
      horiz-adv-x="1000" d=" M666.65625 319.9375000000001C666.65625 365.9375 650.4375 405.21875 617.875 437.7812500000001S546.03125 486.5000000000001 500.0312499999999 486.5000000000001S414.75 470.2812500000001 382.1874999999999 437.7812500000001C349.6249999999999 405.2187500000001 333.46875 365.9375000000001 333.46875 319.9375000000001S349.6875 234.6562500000001 382.1874999999999 202.09375C414.7499999999999 169.53125 454.0312499999999 153.375 500.0312499999999 153.375S585.3124999999999 169.5937499999999 617.875 202.09375C650.3749999999999 234.6562500000001 666.65625 273.9375 666.65625 319.9375000000001zM1000 390.84375V246.34375C1000 241.125 998.28125 236.125 994.78125 231.34375C991.28125 226.625 987 223.78125 981.7812499999998 222.90625L861.28125 204.6875000000001C853 181.2500000000001 844.5625 161.4687500000001 835.9375 145.4062500000001C851.15625 123.6875000000001 874.28125 93.6875000000001 905.59375 55.6250000000001C909.9375 50.40625 912.15625 44.96875 912.15625 39.3437500000001C912.15625 33.6250000000001 910.15625 28.6250000000001 906.21875 24.34375C894.5 8.2812500000001 873 -15.1562499999999 841.7812499999999 -45.9374999999999C810.4999999999999 -76.7187499999999 790.0624999999999 -92.21875 780.5624999999999 -92.21875C775.3437499999999 -92.21875 769.7187499999999 -90.21875 763.6249999999999 -86.2812499999999L673.7812499999999 -16C654.7187499999999 -26 634.9999999999999 -34.2187499999999 614.4999999999999 -40.71875C607.6562499999999 -99.78125 601.2187499999999 -140.1562499999999 595.6562499999999 -161.7812499999999C592.5937499999999 -173.8437499999999 584.7187499999999 -179.9999999999999 572.1562499999999 -179.9999999999999H427.71875C421.6562499999999 -179.9999999999999 416.375 -178.1562499999999 411.78125 -174.4999999999999C407.2187499999999 -170.78125 404.7187499999999 -166.15625 404.28125 -160.4999999999999L385.9999999999999 -40.71875C364.7187499999999 -33.71875 345.2187499999999 -25.71875 327.3437499999999 -16.5625L235.5624999999999 -86.2812499999999C231.2812499999999 -90.21875 225.8437499999999 -92.0624999999999 219.3437499999999 -92.0624999999999C213.2812499999999 -92.0624999999999 207.7812499999999 -89.7187499999999 203.1249999999999 -84.9062499999999C148.4062499999999 -35.4062499999999 112.6249999999999 1.0312500000001 95.6874999999999 24.4375C92.6249999999999 28.7187500000001 91.1249999999999 33.78125 91.1249999999999 39.4375000000001C91.1249999999999 44.6562500000001 92.9062499999999 49.6562500000001 96.3437499999999 54.3750000000001C102.9062499999999 63.5312500000001 113.9062499999999 77.9375000000001 129.5624999999999 97.6562500000001C145.2187499999999 117.4375000000001 156.9062499999999 132.8125000000001 164.7187499999999 143.5937500000001C152.9999999999999 165.3125000000001 144.1562499999999 186.8125000000001 137.9999999999999 208.0312500000001L18.8437499999999 225.6875000000003C13.1874999999999 226.5312500000003 8.6249999999999 229.2500000000003 5.1249999999999 233.8437500000003C1.7812499999999 238.3437500000001 -0.0312500000001 243.4062500000003 -0.0312500000001 249.1250000000003V393.6875000000003C-0.0312500000001 398.8437500000003 1.7499999999999 403.8437500000003 5.1874999999999 408.6250000000003C8.6874999999999 413.4062500000003 12.8437499999999 416.2812500000003 17.5312499999999 417.1250000000003L138.5937499999999 435.3437500000003C144.6562499999999 455.2812500000002 153.0937499999999 475.2812500000003 163.9374999999999 495.1875000000003C146.6562499999999 519.9687500000002 123.4374999999999 549.8437500000002 94.2812499999999 585.0312500000002C89.9374999999999 590.2500000000002 87.7187499999999 595.3750000000002 87.7187499999999 600.6875000000002C87.7187499999999 604.9687500000002 89.6562499999999 609.9687500000002 93.5624999999999 615.6875000000002C104.7812499999999 631.2500000000002 126.2187499999999 654.6250000000002 157.7187499999999 685.6875000000002S209.7187499999999 732.2500000000002 219.2812499999999 732.2500000000002C224.9374999999999 732.2500000000002 230.5624999999999 730.0312500000002 236.1249999999999 725.6875000000002L325.96875 655.9687500000002C345.1249999999999 665.9687500000002 364.90625 674.2500000000002 385.25 680.7500000000002C392.1874999999999 739.7500000000002 398.53125 780.1875000000003 404.1875 801.8125000000003C407.1875 813.8750000000003 415.0312499999999 820.0312500000003 427.625 820.0312500000003H572.1875C578.2499999999999 820.0312500000003 583.53125 818.2500000000003 588.125 814.5312500000003S595.125 806.1875000000003 595.625 800.5312500000003L613.8437499999999 680.7500000000002C635.1249999999999 673.7500000000002 654.6249999999999 665.7500000000002 672.4999999999999 656.5937500000003L764.9374999999998 726.3125000000003C768.8749999999999 730.2500000000003 774.0937499999998 732.0937500000003 780.6562499999998 732.0937500000003C786.3124999999999 732.0937500000003 791.7187499999998 729.8750000000003 796.8749999999998 725.5937500000003C852.9374999999998 673.8750000000003 888.6562499999998 637.0312500000002 904.3124999999998 614.8750000000002C907.3124999999998 611.3750000000002 908.8749999999998 606.6562500000002 908.8749999999998 600.5937500000002C908.8749999999998 595.3750000000002 907.1562499999998 590.3750000000002 903.6562499999998 585.5937500000002C897.1562499999998 576.4375000000002 886.0937499999997 562.0312500000002 870.4374999999998 542.3125000000002C854.7812499999997 522.5312500000002 843.0937499999998 507.2500000000003 835.2812499999998 496.4687500000003C846.5624999999998 474.7500000000003 855.4999999999997 453.4687500000003 861.9999999999998 432.6875000000003L981.2187499999998 414.4687500000003C986.8749999999998 413.6250000000003 991.4374999999998 410.8125000000003 994.9374999999998 406.3125000000003C998.2187499999998 401.7500000000003 999.9374999999998 396.5937500000003 999.9374999999998 390.8750000000003z" />
    <glyph glyph-name="gear2"
      unicode="&#xE919;"
      horiz-adv-x="1000" d=" M530.0625 747.0625L541.84375 669.78125L548.5625 625.28125L591.1249999999999 611.34375C608.6249999999999 605.6875 624.8437499999999 599.0625 639.2812499999999 591.6875L679.9999999999999 570.75L777.21875 643.96875C797.5 624.6875 812.0624999999999 609.96875 822.4374999999999 599.03125C819.7187499999999 595.46875 816.65625 591.59375 813.2187499999999 587.3125C795.9999999999999 565.53125 784.1562499999999 550.03125 775.9374999999999 538.46875L749.9999999999999 502.1875000000001L770.7187499999999 462.5312500000001C779.9375 444.75 787.2187499999999 427.2500000000001 792.3749999999999 410.7500000000001L806.03125 367.1875000000001L927.375 348.6250000000001V288.2812500000001L807.375 270.0625000000001L792.7187499999999 228.8437500000003C785.7187499999999 209.0000000000001 778.7812499999999 192.5000000000001 771.9999999999999 180.0625000000002L750.5624999999999 140.3437500000001L776.3437499999999 103.5625000000001C788.1249999999999 86.6250000000001 804.1249999999999 65.5625000000001 824.4062499999999 40.2812500000002C815.9687499999999 31.2187500000002 805.1249999999999 20.0000000000002 790.8437499999999 5.8437500000002C786.4062499999999 1.5000000000002 782.3437499999999 -2.3124999999998 778.9062499999998 -5.6562499999998L719.0624999999998 41.1875000000002L681.9062499999998 70.1250000000001L640.2499999999999 48.4062500000001C624.8124999999999 40.2500000000001 608.9062499999999 33.6875000000001 592.7499999999999 28.6250000000002L547.6874999999999 14.2812500000002L542.1249999999999 -32.3749999999998C538.2812499999998 -65.8124999999998 534.8437499999999 -89.8749999999998 532.0624999999999 -107.2187499999998H469.7812499999999L457.9999999999998 -29.8749999999997L451.2812499999998 14.4062500000003L408.7187499999999 28.4062500000003C391.1562499999999 34.2500000000003 374.9374999999999 40.9062500000003 360.6562499999999 48.1250000000003L319.8749999999999 69.0625000000005L283.3124999999999 41.4062500000003L223.0937499999999 -4.3749999999997C202.6562499999999 14.8437500000003 187.9374999999999 29.4687500000003 177.5312499999999 40.5625000000003C180.2499999999999 44.1250000000003 183.3749999999999 48.0625000000002 186.8749999999999 52.3437500000003C204.0937499999999 74.2812500000002 215.8749999999999 89.6875000000003 223.9374999999999 101.0000000000002L250.4374999999999 137.9375000000002L228.8749999999999 178.2187500000002C219.6562499999999 195.2187500000002 212.7187499999999 212.0625000000002 208.0937499999999 228.0000000000003L195.3124999999999 273.2812500000004L148.7499999999999 280.2187500000004L72.9062499999999 291.3750000000004V351.6562500000004L149.5624999999999 363.2187500000003L194.8437499999999 369.9375000000003L208.3437499999999 413.7812500000004C213.1249999999999 429.2187500000003 219.7812499999999 444.9375000000003 228.1249999999999 460.2187500000003L249.7812499999999 499.9375000000003L223.7812499999999 537.0000000000002C210.7812499999999 555.5625000000002 195.0624999999999 576.4375000000003 176.2187499999999 600.0625000000002C184.3749999999999 608.8437500000002 195.0624999999999 619.8437500000002 209.0624999999999 633.7812500000002C213.4999999999999 638.0625000000003 217.5624999999999 641.9375000000002 220.9999999999999 645.2812500000003L281.3437499999999 598.4375000000002L318.5625 569.6562500000003L360.125 591.5937500000003C375.2812499999999 599.4375000000003 391.2812499999999 606.1562500000003 407.5625 611.3125000000003L452.3437499999999 625.5937500000003L457.8437499999999 672.3125000000003C461.7812499999999 705.5312500000003 465.1249999999999 729.6562500000003 467.9062499999999 747.1562500000003H530.125zM572.21875 819.9375H427.65625C415.15625 819.9375 407.375 813.9375 404.21875 801.71875C398.5625 780.15625 392.28125 739.78125 385.28125 680.71875C365.0625 674.28125 345.21875 666 326.125 655.9375L236.1875 725.65625C230.625 729.9375 224.96875 732.21875 219.34375 732.21875C209.78125 732.21875 189.28125 716.71875 157.84375 685.65625C126.34375 654.59375 104.90625 631.3125 93.6875 615.71875C89.75 610 87.84375 605 87.84375 600.71875C87.84375 595.5 90.0625 590.28125 94.34375 585.0625C123.40625 549.84375 146.625 519.90625 164.0625 495.21875C153.21875 475.2187499999999 144.78125 455.2812499999999 138.625 435.375L17.5624999999999 417.03125C12.7812499999999 416.1875000000001 8.7187499999999 413.375 5.1249999999999 408.53125C1.7812499999999 403.8125 -0.0312500000001 398.8125 -0.0312500000001 393.59375V249.03125C-0.0312500000001 243.375 1.7499999999999 238.3125 5.1874999999999 233.75C8.6874999999999 229.25 13.2499999999999 226.4687499999999 18.8437499999999 225.59375L138.0624999999999 208.0312499999999C144.1249999999999 186.7499999999999 153.0625 165.25 164.7187499999999 143.5937499999999C156.9374999999999 132.8124999999999 145.2187499999999 117.4374999999999 129.5624999999999 97.7499999999999C113.8437499999999 78.0937499999999 102.7812499999999 63.5937499999999 96.2812499999999 54.53125C92.8437499999999 49.75 91.0624999999999 44.75 91.0624999999999 39.53125C91.0624999999999 33.8125 92.4999999999999 28.8125 95.5624999999999 24.5312499999999C112.5624999999999 1.0937499999999 148.2812499999999 -35.2500000000001 203.0624999999999 -84.75C207.7812499999999 -89.53125 213.2812499999999 -91.90625 219.3437499999999 -91.90625C225.78125 -91.90625 231.1875 -90.1250000000001 235.5624999999999 -86.1250000000001L327.34375 -16.40625C345.0625 -25.6250000000001 364.6875 -33.46875 385.90625 -40.5625L404.125 -160.3437500000001C404.46875 -165.9062500000001 406.96875 -170.6250000000001 411.5625 -174.40625C416.125 -178.125 421.5 -179.84375 427.5 -179.84375H572.1562499999999C584.8125 -179.84375 592.4999999999999 -173.7812500000001 595.6562499999999 -161.6250000000001C601.2187499999999 -139.9062500000001 607.4999999999999 -99.6250000000001 614.4374999999999 -40.4687500000001C634.8749999999999 -34.0312500000001 654.6562499999998 -25.7500000000001 673.6562499999999 -15.7500000000001L763.5937499999999 -86.0312500000001C769.5937499999999 -89.9687500000001 775.3749999999998 -91.8750000000001 780.5937499999999 -91.8750000000001C790.0937499999998 -91.8750000000001 810.4374999999998 -76.4375000000001 841.6562499999999 -45.6562500000001C872.9374999999999 -14.8750000000001 894.4999999999999 8.5624999999999 906.2187499999998 24.6249999999999C910.0624999999998 28.9062499999999 912.0624999999998 33.9062499999999 912.0624999999998 39.6249999999999C912.0624999999998 45.2812499999999 909.8437499999998 50.6874999999998 905.4999999999998 55.8437499999998C874.2187499999998 93.9999999999998 851.0624999999999 123.9999999999998 835.8437499999999 145.6249999999999C844.6249999999999 161.7812499999998 852.9999999999999 181.4687499999998 861.1874999999999 204.8437499999998L981.6874999999998 223.0624999999998C986.9062499999998 223.9062499999998 991.2499999999998 226.7812499999998 994.7499999999998 231.6249999999998C998.2499999999998 236.3437499999998 999.9687499999998 241.3437499999998 999.9687499999998 246.6249999999998V390.9687499999999C999.9687499999998 396.6874999999998 998.2499999999998 401.6874999999999 994.8124999999998 406.3124999999998C991.3124999999998 410.8749999999999 986.6562499999998 413.5937499999999 981.0937499999998 414.4687499999998L861.8124999999999 432.6874999999998C855.3749999999999 453.5312499999998 846.5312499999999 474.7499999999998 835.1562499999998 496.4062499999998C842.9374999999998 507.3437499999998 854.7187499999999 522.6249999999998 870.3749999999998 542.3437499999998C886.0937499999998 562.0624999999998 897.0937499999998 576.4999999999998 903.5937499999998 585.5624999999998C906.9374999999998 590.4062499999998 908.8124999999998 595.4062499999998 908.8124999999998 600.6249999999998C908.8124999999998 606.6249999999998 907.1562499999998 611.3437499999998 904.2499999999998 614.8437499999998C888.5312499999998 637.0624999999998 852.6874999999998 673.9062499999998 796.6874999999998 725.5624999999998C791.4687499999998 729.8437499999998 786.0312499999998 732.0624999999998 780.4687499999998 732.0624999999998C773.9687499999999 732.0624999999998 768.6874999999999 730.1249999999998 764.7499999999998 726.3437499999998L672.3124999999999 656.6249999999998C654.5312499999999 665.7812499999998 634.8749999999999 673.7812499999998 613.6562499999999 680.7812499999998L595.5937499999999 800.6249999999998C595.1562499999999 806.1249999999998 592.7499999999999 810.9062499999998 588.1562499999999 814.4687499999998C583.4999999999999 818.2499999999998 578.1562499999999 819.9687499999998 572.1562499999999 819.9687499999998V819.9687499999998z M499.9375 423.84375C557.15625 423.84375 603.71875 377.28125 603.71875 320S557.28125 216.21875 499.9375 216.21875S396.21875 262.7812499999999 396.21875 320S442.71875 423.84375 499.9374999999999 423.84375zM499.9375 496.71875C402.28125 496.71875 323.21875 417.5625 323.21875 320S402.4375 143.28125 500 143.28125C597.65625 143.28125 676.78125 222.4375 676.78125 320S597.71875 496.7187500000001 499.9375000000001 496.7187500000001V496.7187500000001z" />
    <glyph glyph-name="gears2"
      unicode="&#xE91A;"
      horiz-adv-x="1000" d=" M466.71875 320.28125C466.71875 357.0625 453.71875 388.5625 427.65625 414.5625S370.15625 453.625 333.3750000000001 453.625S265.09375 440.625 239.0937500000001 414.5625C213.0312500000001 388.5 200.0312500000001 357.0625 200.0312500000001 320.28125S213.0312500000001 251.9375 239.0937500000001 225.9375000000001C265.0937500000001 199.8750000000001 296.5937500000001 186.8750000000001 333.3750000000001 186.8750000000001S401.59375 199.8750000000001 427.65625 225.9375000000001S466.71875 283.5 466.71875 320.2812500000001zM866.65625 53.65625C866.65625 71.71875 860.09375 87.3125000000001 846.9375 100.4375C833.7187500000001 113.65625 818.0937500000001 120.15625 800.09375 120.15625C782.0312500000001 120.21875 766.3125000000001 113.59375 753.2500000000001 100.4375C740.0312500000001 87.2187500000001 733.4687500000001 71.5937500000001 733.4687500000001 53.65625C733.4687500000001 35.3125 740.0312500000001 19.5 753.1250000000001 6.5S781.8437500000002 -13.15625 800.2812500000001 -13.15625C818.5625000000002 -13.15625 834.4375000000001 -6.59375 847.4375000000002 6.5C860.2187500000001 19.4375 866.7187500000002 35.21875 866.7187500000002 53.65625zM866.65625 586.9375C866.65625 605 860.09375 620.65625 846.9375 633.78125C833.65625 646.9375 818.0937500000001 653.5625 800 653.625C781.9375000000001 653.625 766.2187500000001 646.96875 753.1562500000001 633.84375C739.9375000000001 620.625 733.3750000000001 604.90625 733.3750000000001 587C733.3750000000001 568.5625 739.9375000000001 552.84375 753.0312500000001 539.84375S781.7500000000001 520.28125 800.1875000000001 520.28125C818.4687500000002 520.28125 834.3437500000001 526.78125 847.3437500000002 539.84375C860.1875000000002 552.84375 866.6875000000001 568.5 866.6875000000001 586.90625zM666.71875 367.71875V271.28125C666.71875 267.78125 665.375 264.5 663.15625 261.125C660.65625 257.84375 657.8125 255.96875 654.71875 255.6875L573.9375 243.125C570 230.96875 564.59375 217.6875 557.28125 203.5625C569.0624999999999 186.90625 584.625 167 604.1249999999999 143.71875C606.4687499999999 140.2187500000001 607.7812499999999 136.78125 607.7812499999999 133.2812500000001C607.7812499999999 129.2187500000001 606.4375 125.7812500000001 604.1249999999999 123.34375C596.0624999999999 112.90625 581.7812499999999 97.4062500000001 561.1249999999999 76.6875000000001C540.4062499999999 56.03125 526.7812499999999 45.7500000000001 520.2812499999999 45.7500000000001C516.5 45.7500000000001 512.8437499999999 46.9687500000001 509.3437499999999 49.3125000000001L449.4999999999999 96.1562500000001C436.6562499999999 89.5937500000001 423.2812499999999 84.2187500000001 409.3437499999999 80.0000000000001C405.5624999999999 42.5000000000001 401.4999999999999 15.5625000000001 397.3437499999999 -0.7187499999999C394.9062499999999 -9.0624999999999 389.6874999999999 -13.28125 381.6874999999999 -13.28125H284.8437499999999C281.0624999999999 -13.28125 277.5624999999999 -11.9375 274.3437499999999 -9.28125C271.2812499999999 -6.625 269.4999999999999 -3.6249999999999 269.1249999999999 -0.0624999999999L257.1249999999999 79.7187500000001C245.3437499999999 83.21875 232.2812499999999 88.5625000000001 218.0624999999999 95.8750000000001L156.7187499999999 49.2187500000001C154.2812499999999 46.7812500000001 150.7812499999999 45.6562500000001 146.2812499999999 45.6562500000001C142.4999999999999 45.6562500000001 138.8437499999999 47.0000000000001 135.3437499999999 49.7187500000001C85.3437499999999 95.9375000000001 60.3437499999999 123.6562500000001 60.3437499999999 133.0625C60.3437499999999 136.125 61.6249999999999 139.5 63.9999999999999 142.9062500000001C67.4999999999999 147.7500000000001 74.5624999999999 156.96875 85.3437499999999 170.5625000000001C96.1874999999999 184.0625000000001 104.3437499999999 194.7187500000001 109.9999999999999 202.3437500000001C101.8437499999999 217.6250000000001 95.8437499999999 231.9062500000001 91.6562499999999 245.0625000000001L12.4999999999999 257.5625000000001C8.9999999999999 257.90625 6.0624999999999 259.5625000000001 3.5624999999999 262.5625000000001C1.2187499999999 265.5625000000001 -1e-13 268.8437500000001 -1e-13 272.7187500000001V369.1562500000001C-1e-13 372.6562500000001 1.2812499999999 376.0000000000001 3.6562499999999 379.3125000000001C6.0937499999999 382.5937500000001 8.8749999999999 384.46875 11.9999999999999 384.8125000000001L92.7812499999999 397.375C96.5624999999999 409.53125 102.1249999999999 422.65625 109.4374999999999 436.9375C97.5937499999999 453.59375 81.9374999999999 473.5 62.4374999999999 496.78125C59.9999999999999 500.5625 58.8749999999999 504.0625 58.8749999999999 507.21875C58.8749999999999 511.28125 60.0937499999999 514.875 62.5312499999999 517.65625C70.1874999999999 528.09375 84.3749999999999 543.5 105.1874999999999 563.9375C125.9687499999999 584.4375 139.7499999999999 594.71875 146.4062499999999 594.71875C150.1874999999999 594.71875 153.8437499999999 593.4375 157.3437499999999 591.0625L217.1874999999999 544.125C228.9687499999999 550.34375 242.3437499999999 555.84375 257.2499999999999 560.78125C261.0937499999999 598.34375 265.0937499999999 625 269.2499999999999 641C271.7499999999999 649.34375 276.9687499999999 653.5625 284.9062499999999 653.5625H381.7499999999999C385.5937499999999 653.5625 389.0312499999999 652.21875 392.1874999999999 649.625S397.0312499999999 643.96875 397.4687499999999 640.46875L409.4062499999999 560.7499999999999C421.1874999999999 557.2499999999999 434.1874999999999 551.90625 448.4687499999999 544.59375L509.9062499999999 590.9375C512.6874999999999 593.375 516.125 594.59375 520.3437499999999 594.59375C524.1874999999999 594.59375 527.7812499999999 593.25 531.2812499999999 590.4375C581.28125 544.28125 606.2812499999999 516.5 606.2812499999999 507.0937499999999C606.2812499999999 504.0312499999999 604.9374999999999 500.6562499999999 602.4999999999999 497.2499999999999C598.4999999999999 491.6874999999999 591.1562499999999 482.3124999999999 580.8437499999999 469.0937499999999C570.3437499999999 455.8749999999999 562.5624999999999 445.4375 557.1874999999999 437.875C565.1249999999999 421.21875 571.0312499999999 406.9375 574.9062499999999 395.15625L654.1249999999999 383.21875C657.6249999999998 382.5 660.4062499999999 380.6562499999999 662.9062499999998 377.71875C665.3437499999998 374.71875 666.4687499999999 371.375 666.4687499999999 367.5625C666.4687499999999 367.5625 666.7499999999999 367.5625 666.7499999999999 367.5625zM1000 90V17.15625C1000 11.5 974.15625 6.15625 922.34375 0.875C918.28125 -8.40625 913 -17.5625 906.78125 -26.1875C924.4375 -65.40625 933.34375 -89.40625 933.34375 -98.03125C933.34375 -99.3749999999999 932.6875 -100.59375 931.34375 -101.6875C888.90625 -126.40625 867.40625 -138.6875 866.6875 -138.6875C863.9687500000001 -138.6875 856.03125 -130.53125 842.84375 -114.34375C829.625 -97.8437500000001 820.5625 -86.1250000000001 815.625 -78.84375C808.6875 -79.5625 803.5625000000001 -79.90625 800.0625 -79.90625S791.28125 -79.5625 784.34375 -78.84375C779.625 -86.1250000000001 770.5625 -97.90625 757.28125 -114.34375C744.125 -130.5625 736.125 -138.6875 733.28125 -138.6875C732.625 -138.6875 711.125 -126.46875 668.78125 -101.6875C667.4375 -100.625 666.71875 -99.40625 666.71875 -98.03125C666.71875 -89.3749999999999 675.6562500000001 -65.3125 693.2812500000001 -26.1875C687.0625 -17.53125 681.7812500000001 -8.5312499999999 677.71875 0.875C625.9375 6.21875 600.0000000000001 11.59375 600.0000000000001 17.15625V90C600.0000000000001 95.5625 625.9375 101 677.6562500000001 106.0625C682.15625 116.125 687.3125000000001 125.28125 693.2187500000001 133.28125C675.6562500000001 172.4999999999999 666.6562500000001 196.4375 666.6562500000001 205.1249999999999C666.6562500000001 206.4687499999999 667.375 207.6875 668.71875 208.8437499999999C670.0625 209.5 676.15625 212.9062499999999 687 219.1874999999999C697.6562500000001 225.40625 707.9375000000001 231.3437499999999 717.5625000000001 236.9062499999999C727.3437500000001 242.4062499999999 732.5000000000001 245.2499999999999 733.2812500000001 245.2499999999999C736.0000000000001 245.2499999999999 744.0000000000001 237.1874999999999 757.1250000000001 221.03125C770.3437500000001 204.875 779.4687500000001 193.25 784.3437500000001 185.875C791.2812500000001 186.5937499999999 796.5000000000001 186.875 799.9062500000001 186.875C803.4062500000001 186.875 808.6875000000001 186.5937499999999 815.4687500000002 185.875C833.2500000000001 210.4375 849.2500000000002 229.9375 863.5312500000002 244.21875L866.5937500000001 245.21875C867.9375000000001 245.21875 889.5312500000001 233.15625 931.1562500000002 208.78125C932.5000000000002 207.71875 933.1562500000002 206.5 933.1562500000002 205.0625C933.1562500000002 196.34375 924.2187500000002 172.40625 906.5937500000002 133.28125C912.5937500000002 125.21875 917.6562500000002 116.2812499999999 922.1562500000002 106.125C974.1562500000002 100.96875 999.9375000000002 95.4687499999999 999.9375000000002 89.90625V89.90625zM1000 623.4375V550.5C1000 544.9375 974.15625 539.5625 922.34375 534.34375C918.28125 524.90625 913 515.90625 906.78125 507.28125C924.4375 468 933.34375 444.0625 933.34375 435.34375C933.34375 434.0000000000001 932.6875 432.78125 931.34375 431.6875C888.90625 407.03125 867.40625 394.6875 866.6875 394.6875C863.9687500000001 394.6875 856.03125 402.84375 842.84375 419.25C829.625 435.5312500000001 820.5625 447.3125 815.625 454.6875C808.6875 453.96875 803.5625000000001 453.6875 800.0625 453.6875S791.28125 453.96875 784.34375 454.6875C779.625 447.40625 770.5625 435.6250000000001 757.28125 419.25C744.125 402.90625 736.125 394.6875 733.28125 394.6875C732.625 394.6875 711.125 406.9687500000001 668.78125 431.6875C667.4375 432.84375 666.71875 433.96875 666.71875 435.34375C666.71875 444.0625 675.6562500000001 468 693.2812500000001 507.28125C687.0625 515.9375 681.7812500000001 524.9375 677.71875 534.34375C626 539.5625 600.0625 544.90625 600.0625 550.5V623.4375C600.0625 629 626 634.375 677.71875 639.59375C682.21875 649.65625 687.3750000000001 658.75 693.2812500000001 666.65625C675.71875 705.875 666.71875 729.875 666.71875 738.5C666.71875 739.84375 667.4375 741.15625 668.78125 742.15625C670.125 742.875 676.21875 746.3125 687.0625 752.65625C697.71875 758.875 708.0000000000001 764.8125 717.6250000000001 770.375C727.40625 775.875 732.5625000000001 778.71875 733.3437500000001 778.71875C736.0625000000001 778.71875 744.0625000000001 770.65625 757.1875000000001 754.5C770.4062500000001 738.4375 779.5312500000001 726.65625 784.4062500000001 719.34375C791.3437500000001 720.0625 796.5625000000001 720.40625 799.9687500000001 720.40625C803.4687500000001 720.40625 808.7500000000001 720.0625 815.5312500000001 719.34375C833.3125000000001 744 849.3125000000001 763.40625 863.5937500000001 777.625L866.6562500000001 778.6875C868.0000000000001 778.6875 889.5937500000002 766.53125 931.2187500000002 742.1875C932.5625000000002 741.125 933.2187500000002 739.90625 933.2187500000002 738.53125C933.2187500000002 729.8125 924.28125 705.875 906.65625 666.6875C912.6562500000002 658.75 917.71875 649.6875 922.2187500000002 639.625C974.15625 634.34375 999.9375000000002 628.90625 999.9375000000002 623.40625V623.40625z" />
    <glyph glyph-name="globe2"
      unicode="&#xE91B;"
      horiz-adv-x="1000" d=" M880.9375 643.4375C867.375 659.4375 852.65625 674.28125 837.15625 688.4375C791.4375 730.28125 738 763.71875 679.09375 786.375C650.375 797.4375 620.5312500000001 805.9375 589.5312500000001 811.59375C560.4687500000001 816.875 530.6875000000001 820.03125 500.0312500000001 820.03125C468.8750000000001 820.03125 438.46875 816.8125 408.8750000000001 811.3125C377.3125000000001 805.53125 346.8750000000001 796.65625 317.7187500000001 785.25C260.0000000000001 762.59375 207.7187500000001 729.59375 162.7812500000001 688.46875C147.3437500000001 674.3125 132.6250000000001 659.40625 119.0625000000001 643.46875C44.90625 556.25 0 443.46875 0 320.03125C0 192.03125 48.5 75.59375 127.5625 -12.8125C141.5 -28.375 156.34375 -43.15625 172.125 -56.875C214.90625 -94.0937499999999 263.9687500000001 -124.09375 317.6250000000001 -145.1562499999999C346.7812500000001 -156.5937499999999 377.1875000000001 -165.4375 408.7812500000001 -171.2187499999999C438.4375000000001 -176.7187499999999 468.8437500000001 -179.9374999999999 500 -179.9374999999999C530.65625 -179.9374999999999 560.4375 -176.78125 589.5625 -171.4999999999999C620.5625 -165.8437499999999 650.40625 -157.34375 679.125 -146.34375C734.0625 -125.1875 784.1875 -94.84375 827.84375 -56.90625C843.625 -43.1875 858.40625 -28.40625 872.4062499999999 -12.84375C951.46875 75.65625 999.96875 192.09375 999.96875 320.09375C999.96875 443.53125 955.03125 556.3125 880.90625 643.53125zM408.84375 747.78125C414.5625 749 420.40625 749.78125 426.1875 750.78125C423.34375 749.0625 420.46875 747.28125 417.53125 745.5625C356.5937500000001 708 304.0312500000001 658.21875 264.09375 598.90625C243.5937500000001 612.125 224.375 627.0625 206.375 643.40625C262.59375 694.46875 331.8750000000001 731.40625 408.8125 747.75zM162.78125 598.4375C184.5 578.5 207.84375 560.5 232.84375 544.65625C203.1875 485.875 185 420.5000000000001 180.6875 351.3125H64.03125C70.6875 444.75 106.375 530.3125 162.75 598.46875zM64.0625 288.71875H180.71875C185.375 213.78125 205.9375 143.21875 240 80.78125C216 66.1249999999999 193.28125 49.625 172.15625 31.21875C110.65625 101.0625 71.09375 190.375 64.09375 288.7187500000001zM408.84375 -107.78125C336.625 -92.4375 271.0625 -59.0625 216.78125 -12.84375C234.5625 2.3125 253.71875 15.875 273.7812500000001 28.09375C312.4375000000001 -25.40625 361.28125 -70.84375 417.5625000000001 -105.5625000000001C420.4062500000001 -107.34375 423.2812500000001 -109.0625 426.1250000000001 -110.7812500000001C420.4062500000001 -109.7812500000001 414.5625000000001 -109.0000000000001 408.8437500000001 -107.7812500000001zM468.71875 -63.34375C414.2812500000001 -33.34375 367.2187500000001 8.15625 330 57.5C373.15625 75.71875 419.84375 86.84375 468.71875 90.28125V-63.375zM468.71875 152.71875C407.2812500000001 148.9375 348.8750000000001 134.28125 295.3750000000001 110.21875C265.9375000000001 163.8749999999999 247.8125000000001 224.4375 243.2187500000001 288.71875H468.7187500000001V152.71875zM468.71875 351.28125H243.21875C247.375 409.5625 263 464.71875 287.875 514.5625C343.375 488.5 404.375 472.4062499999999 468.7187499999999 468.4062499999999V351.25zM468.71875 530.9375C415.9375 534.65625 365.7187500000001 547.78125 319.6562500000001 568.71875C358.2187500000001 624.28125 409.21875 670.5625 468.71875 703.375V530.9375zM837.21875 598.4375C893.5625 530.28125 929.2812500000002 444.71875 935.9375 351.2812500000001H816.1562499999999C811.8749999999999 420.0000000000001 793.9375 484.7812500000001 764.7187499999999 543.21875C790.5624999999999 559.375 814.7812499999999 577.875 837.2187499999999 598.4375zM589.5625 748.21875C667.125 732 736.90625 694.875 793.5625 643.4375C774.9062499999999 626.5 754.9062499999999 611.15625 733.5624999999999 597.59375C693.4999999999999 657.4375 640.7187499999999 707.8125 579.2812499999999 745.59375C576.0624999999998 747.53125 572.8437499999999 749.53125 569.5624999999999 751.4375C576.2812499999999 750.375 582.9999999999999 749.59375 589.5624999999999 748.21875zM531.28125 701.4375C589.84375 668.5 640.0625 622.65625 678.0625 567.59375C632.625 547.25 583.21875 534.65625 531.28125 530.9375V701.4375zM531.28125 468.4375C594.7187500000001 472.375 654.7812500000001 487.9375 709.5625000000001 513.375C734.1250000000001 463.8750000000001 749.5 409.1562500000001 753.6250000000001 351.3125H531.2812500000001V468.4687500000001zM531.28125 288.71875H753.625C749.0625 224.9375 731.28125 164.71875 702.1875 111.3749999999999C649.34375 134.8124999999999 591.75 149.0312499999999 531.25 152.71875V288.71875zM531.28125 90.21875C579.21875 86.78125 625.0625000000001 76 667.5 58.28125C630.9374999999999 9.5 584.65625 -31.5 531.2812499999999 -61.5V90.2187500000001zM589.5625 -108.21875C583 -109.5625 576.21875 -110.375 569.5625 -111.4375C572.84375 -109.5 576.0624999999999 -107.5 579.28125 -105.59375C636.0625 -70.59375 685.3437499999999 -24.75 724.0624999999999 29.3437499999999C744.90625 16.84375 764.78125 2.84375 783.21875 -12.875C728.4999999999999 -59.4375 662.4375 -93.0312500000001 589.5625 -108.2187500000001zM827.78125 31.28125C806 50.28125 782.5 67.2187499999999 757.5625 82.28125C791.1250000000001 144.34375 811.40625 214.4375 816.0625 288.78125H935.8437500000002C928.90625 190.3437500000001 889.3437500000001 101.0625 827.7812500000001 31.2812500000001z" />
    </font>
</defs>
</svg>
