<!-- Generated by IcoMoon.io -->
<svg version="1.1" xmlns="http://www.w3.org/2000/svg" width="16" height="16" viewBox="0 0 16 16">
<title>cloud-reflash</title>
<path d="M8.646 5.116c0.212-0.176 0.527-0.149 0.704 0.061l1.928 2.282c0.158 0.187 0.154 0.455 0.002 0.636l-0.064 0.063-2.298 1.914c-0.212 0.176-0.527 0.149-0.704-0.061s-0.15-0.523 0.062-0.699l1.493-1.244-0.023-0.002c-0.897-0.063-1.789 0.216-2.496 0.804-1.481 1.234-1.674 3.425-0.431 4.895s3.45 1.662 4.931 0.428c0.801-0.667 1.248-1.636 1.25-2.655 0.001-0.274 0.225-0.496 0.501-0.495s0.499 0.224 0.499 0.498c-0.003 1.308-0.578 2.555-1.608 3.413-1.904 1.586-4.742 1.339-6.34-0.551s-1.349-4.708 0.555-6.294c0.863-0.719 1.942-1.079 3.037-1.043l-1.060-1.252c-0.178-0.21-0.15-0.523 0.062-0.699z"></path>
<path d="M4 14c-2.25-0.276-4-2.184-4-4.5 0-1.962 1.255-3.63 3.006-4.246-0.004-0.084-0.006-0.169-0.006-0.254 0-2.761 2.239-5 5-5 2.427 0 4.45 1.729 4.905 4.023 1.68 0.193 2.998 1.577 3.090 3.286l0.005 0.191c0 0.276-0.224 0.5-0.5 0.5s-0.5-0.224-0.5-0.5c0-1.273-0.957-2.339-2.21-2.483l-0.725-0.083-0.142-0.716c-0.368-1.857-2.006-3.217-3.924-3.217-2.209 0-4 1.791-4 4l0.001 0.102 0.041 0.847-0.704 0.248c-1.389 0.489-2.338 1.806-2.338 3.303 0 1.768 1.32 3.258 3.065 3.5h1.935v1h-2z"></path>
</svg>
