<!-- Generated by IcoMoon.io -->
<svg version="1.1" xmlns="http://www.w3.org/2000/svg" width="16" height="16" viewBox="0 0 16 16">
<title>export</title>
<path d="M4 15c-2.25-0.276-4-2.184-4-4.5 0-1.962 1.255-3.63 3.006-4.246-0.004-0.084-0.006-0.169-0.006-0.254 0-2.761 2.239-5 5-5 2.427 0 4.45 1.729 4.905 4.023 1.68 0.193 2.998 1.577 3.090 3.286l0.005 0.191c0 0.276-0.224 0.5-0.5 0.5s-0.5-0.224-0.5-0.5c0-1.273-0.957-2.339-2.21-2.483l-0.725-0.083-0.142-0.716c-0.368-1.857-2.006-3.217-3.924-3.217-2.209 0-4 1.791-4 4l0.001 0.102 0.041 0.847-0.704 0.248c-1.389 0.489-2.338 1.806-2.338 3.303 0 1.768 1.32 3.258 3.065 3.5h1.435c0.276 0 0.5 0.224 0.5 0.5s-0.224 0.5-0.5 0.5h-1.5z"></path>
<path d="M11.854 8.146l3 3c0.195 0.195 0.195 0.512 0 0.707l-3 3c-0.195 0.195-0.512 0.195-0.707 0s-0.195-0.512 0-0.707l2.146-2.146h-6.792c-0.276 0-0.5-0.224-0.5-0.5s0.224-0.5 0.5-0.5h6.793l-2.147-2.146c-0.195-0.195-0.195-0.512 0-0.707s0.512-0.195 0.707 0z"></path>
</svg>
