<!-- Generated by IcoMoon.io -->
<svg version="1.1" xmlns="http://www.w3.org/2000/svg" width="16" height="16" viewBox="0 0 16 16">
<title>global</title>
<path d="M7.5 15c3.59 0 6.5-2.91 6.5-6.5s-2.91-6.5-6.5-6.5c-3.59 0-6.5 2.91-6.5 6.5s2.91 6.5 6.5 6.5zM7.5 16c-4.142 0-7.5-3.358-7.5-7.5s3.358-7.5 7.5-7.5c4.142 0 7.5 3.358 7.5 7.5s-3.358 7.5-7.5 7.5z"></path>
<path d="M3.585 5.040c-0.283-0.135-0.547-0.278-0.785-0.426l-0.8-0.614 0.5-0.5h0.442c0.263 0.208 0.603 0.413 0.988 0.6 0.628-1.485 1.613-2.767 3.070-3.010v0.91c-0.879 0-1.682 1.037-2.236 2.453 0.893 0.327 1.894 0.547 2.736 0.547 1.528 0 3.574-0.721 4.558-1.5h0.442l0.5 0.5-0.8 0.614c-1.218 0.758-3.116 1.386-4.7 1.386-0.976 0-2.072-0.238-3.054-0.599-0.282 0.992-0.446 2.083-0.446 3.099 0 2.936 1.371 6.5 3 6.5v0.98c-3-0.5-4-5.48-4-7.48 0-0.828 0.171-2.154 0.585-3.46v0z"></path>
<path d="M10.236 12.547c-0.893-0.327-1.894-0.547-2.736-0.547-1.528 0-3.574 0.721-4.558 1.5h-0.442l-0.5-0.5 0.8-0.614c1.218-0.758 3.116-1.386 4.7-1.386 0.976 0 2.072 0.238 3.054 0.599 0.282-0.992 0.446-2.083 0.446-3.099 0-2.936-1.371-6.5-3-6.5v-0.91c3 0.5 4 5.41 4 7.41 0 0.823-0.169 2.151-0.578 3.463 0.28 0.134 0.542 0.276 0.778 0.423l0.8 0.614-0.5 0.5h-0.442c-0.26-0.206-0.595-0.408-0.975-0.594-0.627 1.514-1.616 2.83-3.083 3.074v-0.98c0.879 0 1.682-1.037 2.236-2.453v0z"></path>
<path d="M7 8v-6h1v6h6v1h-6v6h-1v-6h-6v-1z"></path>
</svg>
