<!-- Generated by IcoMoon.io -->
<svg version="1.1" xmlns="http://www.w3.org/2000/svg" width="16" height="16" viewBox="0 0 16 16">
<title>import</title>
<path d="M5.854 8.146l3 3c0.195 0.195 0.195 0.512 0 0.707l-3 3c-0.195 0.195-0.512 0.195-0.707 0s-0.195-0.512 0-0.707l2.146-2.146h-6.792c-0.276 0-0.5-0.224-0.5-0.5s0.224-0.5 0.5-0.5h6.793l-2.147-2.146c-0.195-0.195-0.195-0.512 0-0.707s0.512-0.195 0.707 0z"></path>
<path d="M0.005 8.309c0.092-1.709 1.41-3.092 3.090-3.286 0.454-2.294 2.478-4.023 4.905-4.023 2.761 0 5 2.239 5 5 0 0.085-0.002 0.17-0.006 0.254 1.751 0.616 3.006 2.284 3.006 4.246 0 2.244-1.642 4.104-3.791 4.469l-0.209 0.031h-1.5c-0.276 0-0.5-0.224-0.5-0.5s0.224-0.5 0.5-0.5h1.435c1.745-0.242 3.065-1.732 3.065-3.5 0-1.432-0.868-2.699-2.159-3.234l-0.179-0.068-0.704-0.248 0.037-0.746c0.003-0.068 0.005-0.136 0.005-0.204 0-2.209-1.791-4-4-4-1.849 0-3.438 1.265-3.879 3.020l-0.044 0.197-0.142 0.716-0.725 0.083c-1.198 0.138-2.126 1.12-2.204 2.319l-0.005 0.165c0 0.276-0.224 0.5-0.5 0.5s-0.5-0.224-0.5-0.5l0.005-0.191z"></path>
</svg>
