<!-- Generated by IcoMoon.io -->
<svg version="1.1" xmlns="http://www.w3.org/2000/svg" width="16" height="16" viewBox="0 0 16 16">
<title>internet-search</title>
<path d="M7.5 0c4.087 0 7.41 3.269 7.498 7.334-0.318-0.452-0.703-0.853-1.14-1.19-0.22-1.038-0.688-1.984-1.339-2.775v0l-0.319 0.245c-0.238 0.148-0.502 0.291-0.785 0.426 0.116 0.366 0.213 0.734 0.292 1.093-0.323-0.072-0.658-0.116-1-0.129-0.046-0.204-0.098-0.405-0.154-0.603-0.817 0.3-1.713 0.515-2.554 0.579v0 0.619c-0.358 0.183-0.693 0.404-1 0.657v0-1.277c-0.841-0.064-1.737-0.279-2.554-0.579-0.236 0.831-0.39 1.731-0.433 2.599v0h2.244c-0.254 0.307-0.475 0.642-0.657 1v0h-1.587c0.044 0.867 0.197 1.767 0.433 2.599 0.181-0.066 0.367-0.129 0.555-0.187v0l-0.001 0.088c0 0.319 0.027 0.633 0.080 0.937-0.106 0.035-0.212 0.072-0.316 0.11 0.283 0.723 0.631 1.347 1.020 1.785 0.396 0.658 0.925 1.226 1.55 1.667-4.066-0.088-7.334-3.411-7.334-7.498 0-4.142 3.358-7.5 7.5-7.5zM3.917 11.906c-0.281 0.137-0.537 0.284-0.757 0.434 0.459 0.412 0.978 0.76 1.541 1.029-0.308-0.44-0.568-0.939-0.785-1.463zM3.017 8h-1.999c0.105 1.374 0.636 2.628 1.462 3.63l0.319-0.245c0.236-0.147 0.498-0.289 0.778-0.423-0.334-1.072-0.508-2.154-0.56-2.963zM2.481 3.369c-0.826 1.003-1.357 2.257-1.462 3.631h1.999c0.053-0.811 0.229-1.892 0.567-2.96-0.283-0.135-0.547-0.278-0.785-0.426l-0.319-0.245zM8 1.019v2.958c0.722-0.065 1.514-0.259 2.236-0.523-0.479-1.224-1.145-2.165-1.884-2.398-0.117-0.015-0.234-0.027-0.352-0.036v0zM7 1.019c-0.118 0.009-0.236 0.021-0.352 0.036-0.739 0.232-1.405 1.173-1.884 2.398 0.722 0.265 1.514 0.459 2.236 0.523v0zM10.24 1.604c0.327 0.446 0.602 0.958 0.83 1.496 0.286-0.139 0.546-0.287 0.769-0.44-0.475-0.426-1.014-0.784-1.599-1.057zM4.76 1.604c-0.586 0.273-1.124 0.63-1.599 1.057 0.223 0.152 0.483 0.301 0.769 0.44 0.228-0.539 0.503-1.051 0.83-1.496z"></path>
<path d="M13.408 12.449l2.463 2.715c0.186 0.204 0.17 0.521-0.034 0.706s-0.521 0.17-0.706-0.034l-2.396-2.641c-0.606 0.503-1.385 0.806-2.234 0.806-1.933 0-3.5-1.567-3.5-3.5s1.567-3.5 3.5-3.5c1.933 0 3.5 1.567 3.5 3.5 0 0.721-0.218 1.392-0.592 1.949zM10.5 13c1.381 0 2.5-1.119 2.5-2.5s-1.119-2.5-2.5-2.5c-1.381 0-2.5 1.119-2.5 2.5s1.119 2.5 2.5 2.5z"></path>
</svg>
