<!-- Generated by IcoMoon.io -->
<svg version="1.1" xmlns="http://www.w3.org/2000/svg" width="16" height="16" viewBox="0 0 16 16">
<title>audio</title>
<path d="M4.402 3.010l10.098-2.010c0.042 0 0.082 0.005 0.12 0.015l0.087 0.030 0.040 0.020 0.059 0.039 0.071 0.067 0.048 0.065 0.041 0.082 0.013 0.036c0.004 0.015 0.008 0.031 0.011 0.046l0.010 0.090v9.508c0 1.105-0.895 2-2 2s-2-0.895-2-2c0-1.105 0.895-2 2-2 0.365 0 0.707 0.098 1.001 0.268l-0.001-4.153-9 1.89v5.995c0 1.105-0.895 2-2 2s-2-0.895-2-2c0-1.105 0.895-2 2-2 0.365 0 0.707 0.098 1.001 0.268l-0.001-7.751c-0.001-0.041 0.002-0.072 0.007-0.103l-0.007 0.086c0-0.042 0.005-0.082 0.015-0.12l0.030-0.087 0.021-0.040 0.039-0.059 0.067-0.071 0.052-0.040 0.052-0.030 0.080-0.032 0.046-0.011zM3 12c-0.552 0-1 0.448-1 1s0.448 1 1 1c0.552 0 1-0.448 1-1s-0.448-1-1-1zM13 10c-0.552 0-1 0.448-1 1s0.448 1 1 1c0.552 0 1-0.448 1-1s-0.448-1-1-1zM14 2.11l-9 1.8v2.073l9-1.89v-1.983z"></path>
</svg>
