<!-- Generated by IcoMoon.io -->
<svg version="1.1" xmlns="http://www.w3.org/2000/svg" width="16" height="16" viewBox="0 0 16 16">
<title>image</title>
<path d="M2 2c-0.552 0-1 0.448-1 1v10c0 0.552 0.448 1 1 1h12c0.552 0 1-0.448 1-1v-10c0-0.552-0.448-1-1-1h-12zM2 1h12c1.105 0 2 0.895 2 2v10c0 1.105-0.895 2-2 2h-12c-1.105 0-2-0.895-2-2v-10c0-1.105 0.895-2 2-2z"></path>
<path d="M12 5c0 0.552-0.448 1-1 1s-1-0.448-1-1c0-0.552 0.448-1 1-1s1 0.448 1 1z"></path>
<path d="M6.972 6.679l-6.149 5.203-0.646-0.763 6.5-5.5c0.199-0.168 0.493-0.156 0.677 0.028l3.646 3.646 1.646-1.646c0.195-0.195 0.512-0.195 0.707 0l2.5 2.5-0.707 0.707-2.146-2.146-1.646 1.646c-0.195 0.195-0.512 0.195-0.707 0l-3.675-3.675z"></path>
</svg>
