<!-- Generated by IcoMoon.io -->
<svg version="1.1" xmlns="http://www.w3.org/2000/svg" width="16" height="16" viewBox="0 0 16 16">
<title>media</title>
<path d="M3 1v8h2v1h-3c-1.105 0-2-0.895-2-2v0-6c0-1.105 0.895-2 2-2v0h8c1.105 0 2 0.895 2 2v0 4h-1v-2h-1v2h-1v-5h-6zM2 7h-1v1c0 0.552 0.448 1 1 1v0-2zM2 4h-1v2h1v-2zM2 1l-0.117 0.007c-0.497 0.058-0.883 0.48-0.883 0.993v0 1h1v-2zM10 3h1v-1c0-0.552-0.448-1-1-1v0 2z"></path>
<path d="M14 5c1.105 0 2 0.895 2 2v7c0 1.105-0.895 2-2 2h-8c-1.105 0-2-0.895-2-2v-7c0-1.105 0.895-2 2-2h8zM8 9.707l-3 2.999v1.294c0 0.552 0.448 1 1 1h8c0.552 0 1-0.448 1-1v-1.293l-1-1-1.646 1.646c-0.195 0.195-0.512 0.195-0.707 0l-3.646-3.646zM14 6h-8c-0.552 0-1 0.448-1 1v4.292l2.646-2.646c0.195-0.195 0.512-0.195 0.707 0l3.646 3.646 1.646-1.646c0.195-0.195 0.512-0.195 0.707 0l0.646 0.647v-4.293c0-0.552-0.448-1-1-1zM12 7c0.552 0 1 0.448 1 1s-0.448 1-1 1c-0.552 0-1-0.448-1-1s0.448-1 1-1z"></path>
</svg>
