<!-- Generated by IcoMoon.io -->
<svg version="1.1" xmlns="http://www.w3.org/2000/svg" width="16" height="16" viewBox="0 0 16 16">
<title>play-o</title>
<path d="M12.323 1.268c0.232 0.149 0.299 0.459 0.15 0.691s-0.459 0.299-0.691 0.15c-1.119-0.72-2.421-1.109-3.782-1.109-3.866 0-7 3.134-7 7s3.134 7 7 7c3.866 0 7-3.134 7-7 0-1.090-0.249-2.143-0.721-3.098-0.122-0.248-0.021-0.547 0.227-0.67s0.547-0.021 0.67 0.227c0.54 1.092 0.825 2.297 0.825 3.541 0 4.418-3.582 8-8 8s-8-3.582-8-8c0-4.418 3.582-8 8-8 1.554 0 3.044 0.445 4.323 1.268z"></path>
<path d="M7 5.993v4.015l3.118-2.007-3.118-2.007zM6 5.993c0-0.192 0.055-0.38 0.159-0.541 0.299-0.464 0.918-0.598 1.382-0.299l3.118 2.007c0.12 0.077 0.222 0.179 0.299 0.299 0.299 0.464 0.165 1.083-0.299 1.382l-3.118 2.007c-0.161 0.104-0.349 0.159-0.541 0.159-0.552 0-1-0.448-1-1v-4.015z"></path>
</svg>
