<!-- Generated by IcoMoon.io -->
<svg version="1.1" xmlns="http://www.w3.org/2000/svg" width="16" height="16" viewBox="0 0 16 16">
<title>video</title>
<path d="M2 15c-1.105 0-2-0.895-2-2v-10c0-1.105 0.895-2 2-2h12c1.054 0 1.918 0.816 1.995 1.851l0.005 0.149v10c0 1.105-0.895 2-2 2h-12zM3 13h-2c0 0.513 0.386 0.935 0.883 0.993l0.117 0.007h1v-1zM12 2h-8v12h8v-12zM13 14h1c0.513 0 0.935-0.386 0.993-0.883l0.007-0.117h-2v1zM13 12h2v-2h-2v2zM3 10h-2v2h2v-2zM13 9h2v-2h-2v2zM3 7h-2v2h2v-2zM13 6h2v-2h-2v2zM3 4h-2v2h2v-2zM14 2h-1v1h2c0-0.513-0.386-0.936-0.883-0.993l-0.117-0.007zM3 2h-1c-0.513 0-0.935 0.386-0.993 0.883l-0.007 0.117h2v-1z"></path>
</svg>
