<!-- Generated by IcoMoon.io -->
<svg version="1.1" xmlns="http://www.w3.org/2000/svg" width="16" height="16" viewBox="0 0 16 16">
<path d="M1 1c-0.552 0-1 0.448-1 1v5.5c0 0.276 0.224 0.5 0.5 0.5s0.5-0.224 0.5-0.5v-5.5h6.191l1.224 2.447c0.169 0.339 0.516 0.553 0.894 0.553h5.691v8h-4.5c-0.276 0-0.5 0.224-0.5 0.5s0.224 0.5 0.5 0.5h4.5c0.552 0 1-0.448 1-1v-8c0-0.552-0.448-1-1-1h-5.691l-1.224-2.447c-0.169-0.339-0.516-0.553-0.894-0.553h-6.191z"></path>
<path d="M0.5 12c-0.276 0-0.5-0.224-0.5-0.5s0.224-0.5 0.5-0.5h6.793l-2.146-2.146c-0.195-0.195-0.195-0.512 0-0.707s0.512-0.195 0.707 0l3 3c0.195 0.195 0.195 0.512 0 0.707l-3 3c-0.195 0.195-0.512 0.195-0.707 0s-0.195-0.512 0-0.707l2.146-2.146h-6.793z"></path>
</svg>
