<!-- Generated by IcoMoon.io -->
<svg version="1.1" xmlns="http://www.w3.org/2000/svg" width="16" height="16" viewBox="0 0 16 16">
<title>attachment</title>
<path d="M7 0c1.713 0 2.912 1.138 2.995 2.812l0.005 0.188v8c0 1.207-0.892 2-2 2-1.057 0-1.918-0.723-1.995-1.838l-0.005-0.162v-5.5c0-0.276 0.224-0.5 0.5-0.5 0.245 0 0.45 0.177 0.492 0.41l0.008 0.090v5.5c0 0.627 0.42 1 1 1 0.538 0 0.939-0.322 0.994-0.87l0.006-0.13v-8c0-1.224-0.776-2-2-2-1.168 0-1.929 0.707-1.995 1.836l-0.005 0.164v9l0.005 0.183c0.087 1.63 1.333 2.817 2.995 2.817s2.908-1.187 2.995-2.817l0.005-0.183v-6.5c0-0.276 0.224-0.5 0.5-0.5 0.245 0 0.45 0.177 0.492 0.41l0.008 0.090v6.5c0 2.276-1.724 4-4 4-2.207 0-3.895-1.621-3.995-3.795l-0.005-0.205v-9l0.005-0.188c0.083-1.674 1.283-2.812 2.995-2.812z"></path>
</svg>
