<!-- Generated by IcoMoon.io -->
<svg version="1.1" xmlns="http://www.w3.org/2000/svg" width="16" height="16" viewBox="0 0 16 16">
<title>change-list</title>
<path d="M11.5 0c1.381 0 2.5 1.119 2.5 2.5v11.792l1.146-1.146c0.174-0.174 0.443-0.193 0.638-0.058l0.069 0.058c0.195 0.195 0.195 0.512 0 0.707v0l-2 2c-0.004 0.004-0.008 0.008-0.012 0.012-0.012 0.011-0.025 0.023-0.039 0.033-0.012 0.009-0.023 0.017-0.035 0.025s-0.023 0.014-0.035 0.020c-0.014 0.007-0.028 0.014-0.042 0.019-0.013 0.005-0.026 0.010-0.039 0.014-0.015 0.005-0.031 0.009-0.046 0.012-0.011 0.002-0.022 0.004-0.033 0.006-0.017 0.002-0.034 0.004-0.052 0.005-0.007 0-0.014 0-0.021 0l-0.020-0c-0.018-0.001-0.035-0.002-0.052-0.005l0.072 0.005c-0.036 0-0.071-0.004-0.105-0.011-0.015-0.003-0.031-0.007-0.046-0.012-0.014-0.004-0.027-0.009-0.040-0.015s-0.027-0.012-0.041-0.019c-0.012-0.006-0.024-0.013-0.035-0.020-0.031-0.019-0.060-0.042-0.087-0.069l0.051 0.045c-0.014-0.010-0.027-0.021-0.039-0.033l-0.012-0.012-2-2c-0.195-0.195-0.195-0.512 0-0.707s0.512-0.195 0.707 0v0l1.146 1.146v-11.792c0-0.828-0.672-1.5-1.5-1.5h-4.5c-0.276 0-0.5-0.224-0.5-0.5s0.224-0.5 0.5-0.5h4.5zM2.5 0l0.012 0c0.021 0 0.042 0.002 0.062 0.005l-0.074-0.005c0.036 0 0.071 0.004 0.105 0.011 0.015 0.003 0.031 0.007 0.046 0.012 0.014 0.004 0.027 0.009 0.040 0.015s0.027 0.012 0.041 0.019c0.012 0.006 0.024 0.013 0.035 0.020 0.031 0.019 0.060 0.042 0.087 0.069l-0.051-0.045c0.014 0.010 0.027 0.021 0.039 0.033l0.012 0.012 2 2c0.195 0.195 0.195 0.512 0 0.707s-0.512 0.195-0.707 0v0l-1.146-1.146v11.792c0 0.828 0.672 1.5 1.5 1.5h4.5c0.276 0 0.5 0.224 0.5 0.5s-0.224 0.5-0.5 0.5h-4.5c-1.381 0-2.5-1.119-2.5-2.5v-11.794l-1.146 1.148c-0.174 0.174-0.443 0.193-0.638 0.058l-0.069-0.058c-0.195-0.195-0.195-0.512 0-0.707v0l2-2c0.004-0.004 0.008-0.008 0.012-0.012 0.012-0.011 0.025-0.023 0.039-0.033 0.012-0.009 0.023-0.017 0.035-0.025s0.023-0.014 0.035-0.020c0.014-0.007 0.028-0.014 0.042-0.019 0.013-0.005 0.026-0.010 0.039-0.014 0.015-0.005 0.031-0.009 0.046-0.012 0.010-0.002 0.020-0.004 0.031-0.006 0.021-0.003 0.043-0.005 0.064-0.005 0.003-0 0.007-0 0.011-0z"></path>
<path d="M5.5 5h5c0.276 0 0.5 0.224 0.5 0.5s-0.224 0.5-0.5 0.5h-5c-0.276 0-0.5-0.224-0.5-0.5s0.224-0.5 0.5-0.5z"></path>
<path d="M5.5 8h5c0.276 0 0.5 0.224 0.5 0.5s-0.224 0.5-0.5 0.5h-5c-0.276 0-0.5-0.224-0.5-0.5s0.224-0.5 0.5-0.5z"></path>
<path d="M5.5 11h3c0.276 0 0.5 0.224 0.5 0.5s-0.224 0.5-0.5 0.5h-3c-0.276 0-0.5-0.224-0.5-0.5s0.224-0.5 0.5-0.5z"></path>
</svg>
