<!-- Generated by IcoMoon.io -->
<svg version="1.1" xmlns="http://www.w3.org/2000/svg" width="16" height="16" viewBox="0 0 16 16">
<title>code</title>
<path d="M10.033 1.321c0.099-0.258 0.388-0.386 0.646-0.287 0.229 0.088 0.356 0.326 0.312 0.559l-0.025 0.087-5 13c-0.099 0.258-0.388 0.386-0.646 0.287-0.229-0.088-0.356-0.326-0.312-0.559l0.025-0.087 5-13zM15.835 8.412l-2.859 2.917c-0.223 0.228-0.585 0.228-0.809 0s-0.223-0.597 0-0.825l2.456-2.504-2.456-2.504c-0.198-0.202-0.221-0.517-0.066-0.744l0.066-0.081c0.198-0.202 0.507-0.225 0.729-0.067l0.079 0.067 2.859 2.917c0.099 0.101 0.154 0.23 0.165 0.363v0.099c-0.011 0.132-0.066 0.262-0.165 0.363zM0.165 7.588l2.859-2.917c0.223-0.228 0.585-0.228 0.809 0s0.223 0.597 0 0.825l-2.456 2.504 2.456 2.504c0.198 0.203 0.221 0.517 0.066 0.744l-0.066 0.081c-0.198 0.203-0.507 0.225-0.729 0.068l-0.079-0.068-2.859-2.917c-0.099-0.101-0.154-0.23-0.165-0.363v-0.099c0.011-0.132 0.066-0.262 0.165-0.363z"></path>
</svg>
