<!-- Generated by IcoMoon.io -->
<svg version="1.1" xmlns="http://www.w3.org/2000/svg" width="16" height="16" viewBox="0 0 16 16">
<title>doc-pass</title>
<path d="M13 4.5v-2.5c0-0.552-0.448-1-1-1h-9c-0.552 0-1 0.448-1 1v12c0 0.552 0.448 1 1 1h3.5c0.276 0 0.5 0.224 0.5 0.5s-0.224 0.5-0.5 0.5h-3.5c-1.105 0-2-0.895-2-2v-12c0-1.105 0.895-2 2-2h9c1.105 0 2 0.895 2 2v2.5c0 0.276-0.224 0.5-0.5 0.5s-0.5-0.224-0.5-0.5z"></path>
<path d="M4.5 6h2c0.276 0 0.5 0.224 0.5 0.5s-0.224 0.5-0.5 0.5h-2c-0.276 0-0.5-0.224-0.5-0.5s0.224-0.5 0.5-0.5z"></path>
<path d="M4.5 9h2c0.276 0 0.5 0.224 0.5 0.5s-0.224 0.5-0.5 0.5h-2c-0.276 0-0.5-0.224-0.5-0.5s0.224-0.5 0.5-0.5z"></path>
<path d="M4.5 3h6c0.276 0 0.5 0.224 0.5 0.5s-0.224 0.5-0.5 0.5h-6c-0.276 0-0.5-0.224-0.5-0.5s0.224-0.5 0.5-0.5z"></path>
<path d="M15 11.5c0 2.485-2.015 4.5-4.5 4.5s-4.5-2.015-4.5-4.5c0-2.485 2.015-4.5 4.5-4.5 0.276 0 0.5 0.224 0.5 0.5s-0.224 0.5-0.5 0.5c-1.933 0-3.5 1.567-3.5 3.5s1.567 3.5 3.5 3.5c1.933 0 3.5-1.567 3.5-3.5 0-0.276 0.224-0.5 0.5-0.5s0.5 0.224 0.5 0.5z"></path>
<path d="M15.854 7.146c0.195 0.195 0.195 0.512 0 0.707l-5 5c-0.065 0.065-0.144 0.108-0.227 0.13l-0.084 0.014h-0.085c-0.113-0.010-0.224-0.058-0.311-0.145l-2-2c-0.195-0.195-0.195-0.512 0-0.707s0.512-0.195 0.707 0l1.646 1.647 4.646-4.647c0.195-0.195 0.512-0.195 0.707 0z"></path>
</svg>
