<!-- Generated by IcoMoon.io -->
<svg version="1.1" xmlns="http://www.w3.org/2000/svg" width="16" height="16" viewBox="0 0 16 16">
<title>email</title>
<path d="M2 3c-0.552 0-1 0.448-1 1v8c0 0.552 0.448 1 1 1h12c0.552 0 1-0.448 1-1v-8c0-0.552-0.448-1-1-1h-12zM2 2h12c1.105 0 2 0.895 2 2v8c0 1.105-0.895 2-2 2h-12c-1.105 0-2-0.895-2-2v-8c0-1.105 0.895-2 2-2z"></path>
<path d="M15.393 2.691c0.152 0.193 0.139 0.463-0.019 0.64l-0.066 0.062-5.157 4.052 3.702 3.701c0.195 0.195 0.195 0.512 0 0.707-0.174 0.174-0.443 0.193-0.638 0.058l-0.069-0.058-3.786-3.787-1.051 0.826c-0.155 0.122-0.365 0.14-0.536 0.052l-0.082-0.052-1.052-0.826-3.785 3.787c-0.195 0.195-0.512 0.195-0.707 0-0.174-0.174-0.193-0.443-0.058-0.638l0.058-0.069 3.701-3.701-5.156-4.052c-0.217-0.171-0.255-0.485-0.084-0.702 0.152-0.193 0.417-0.244 0.626-0.133l0.076 0.049 6.691 5.257 6.691-5.257c0.217-0.171 0.531-0.133 0.702 0.084z"></path>
</svg>
