<!-- Generated by IcoMoon.io -->
<svg version="1.1" xmlns="http://www.w3.org/2000/svg" width="16" height="16" viewBox="0 0 16 16">
<title>folder-speaker</title>
<path d="M6.586 2c0.349 0 0.684 0.119 0.951 0.338l0.11 0.1 1.414 1.419c0.074 0.074 0.169 0.121 0.274 0.137l0.080 0.006h5.586c0.728 0 0.97 0.197 0.997 0.861l0.003 0.139v0.5c0 0.276-0.224 0.5-0.5 0.5-0.245 0-0.45-0.177-0.492-0.41l-0.008-0.090-0.001-0.5h-5.585c-0.349 0-0.684-0.119-0.951-0.338l-0.11-0.1-1.413-1.419c-0.074-0.074-0.169-0.121-0.274-0.137l-0.080-0.006h-5.587l0.001 10h4.5c0.276 0 0.5 0.224 0.5 0.5 0 0.245-0.177 0.45-0.41 0.492l-0.090 0.008h-4.5c-0.728 0-0.97-0.197-0.997-0.861l-0.003-0.139v-10c0-0.728 0.197-0.97 0.861-0.997l0.139-0.003h5.586z"></path>
<path d="M15.867 7.751c0.088 0.189 0.133 0.397 0.133 0.608v5.283c0 0.75-0.566 1.358-1.263 1.358-0.196 0-0.389-0.049-0.565-0.143l-2.172-1.168v0.811c0 0.782-0.664 1.421-1.368 1.493l-0.132 0.007c-0.706 0-1.412-0.592-1.492-1.355l-0.008-0.145v-1.5h-1.158c-0.465 0-0.842-0.377-0.842-0.842v-2.316c0-0.465 0.377-0.842 0.842-0.842h2.877l3.453-1.856c0.624-0.336 1.383-0.064 1.695 0.608zM10.719 13h-0.719v1.5c0 0.216 0.21 0.443 0.421 0.491l0.079 0.009c0.208 0 0.441-0.203 0.491-0.419l0.009-0.081v-1.349l-0.281-0.151zM14.701 8.004l-0.056 0.020-3.646 1.96v2.031l3.646 1.961c0.015 0.008 0.030 0.014 0.046 0.018l0.046 0.006c0.11 0 0.225-0.106 0.255-0.271l0.008-0.087v-5.283c0-0.044-0.006-0.087-0.018-0.127l-0.022-0.059c-0.062-0.132-0.164-0.187-0.259-0.169zM10 10h-2v2h2v-2z"></path>
</svg>
