<!-- Generated by IcoMoon.io -->
<svg version="1.1" xmlns="http://www.w3.org/2000/svg" width="16" height="16" viewBox="0 0 16 16">
<title>folder-move</title>
<path d="M5.5 1l0.012 0c0.021 0 0.042 0.002 0.062 0.005l-0.074-0.005c0.036 0 0.071 0.004 0.105 0.011 0.015 0.003 0.031 0.007 0.046 0.012 0.014 0.004 0.027 0.009 0.040 0.015s0.027 0.012 0.041 0.019c0.012 0.006 0.024 0.013 0.035 0.020 0.031 0.019 0.060 0.042 0.087 0.069l-0.053-0.046c0.014 0.011 0.028 0.022 0.041 0.034l0.012 0.012 1.5 1.5c0.195 0.195 0.195 0.512 0 0.707s-0.512 0.195-0.707 0v0l-1.353-1.354h-4.293v12h3.5c0.276 0 0.5 0.224 0.5 0.5s-0.224 0.5-0.5 0.5h-4c-0.276 0-0.5-0.224-0.5-0.5v-12.5c0-0.513 0.386-0.935 0.883-0.993l0.117-0.007h4.5zM15.5 4c0.276 0 0.5 0.224 0.5 0.5v2c0 0.276-0.224 0.5-0.5 0.5s-0.5-0.224-0.5-0.5v-1.5h-1.5c-0.276 0-0.5-0.224-0.5-0.5s0.224-0.5 0.5-0.5h2z"></path>
<path d="M9.5 3.5l0.012 0c0.021 0 0.042 0.002 0.062 0.005l-0.074-0.005c0.036 0 0.071 0.004 0.105 0.011 0.015 0.003 0.031 0.007 0.046 0.012 0.014 0.004 0.027 0.009 0.040 0.015s0.027 0.012 0.041 0.019c0.012 0.006 0.024 0.013 0.035 0.020 0.031 0.019 0.060 0.042 0.087 0.069l-0.051-0.045c0.014 0.010 0.027 0.021 0.039 0.033l0.012 0.012 2 2c0.195 0.195 0.195 0.512 0 0.707s-0.512 0.195-0.707 0v0l-1.146-1.147v3.793h3.792l-1.146-1.146c-0.195-0.195-0.195-0.512 0-0.707s0.512-0.195 0.707 0l2.012 2.012c0.012 0.012 0.023 0.026 0.033 0.039l-0.045-0.051c0.027 0.027 0.050 0.056 0.069 0.087 0.007 0.011 0.014 0.023 0.020 0.035 0.007 0.014 0.014 0.028 0.019 0.042 0.005 0.013 0.010 0.026 0.014 0.039 0.005 0.015 0.009 0.031 0.012 0.046 0.002 0.011 0.004 0.022 0.006 0.033 0.003 0.018 0.004 0.035 0.005 0.053 0 0.006 0 0.013 0 0.020l-0 0.021c-0.001 0.017-0.002 0.034-0.005 0.051l0.005-0.072c0 0.036-0.004 0.071-0.011 0.105-0.003 0.015-0.007 0.031-0.012 0.046-0.004 0.014-0.009 0.027-0.015 0.040s-0.012 0.027-0.019 0.041c-0.006 0.012-0.013 0.024-0.020 0.035s-0.016 0.024-0.024 0.035c-0.010 0.014-0.021 0.027-0.033 0.039-0.004 0.004-0.008 0.008-0.012 0.012l-2 2c-0.195 0.195-0.512 0.195-0.707 0s-0.195-0.512 0-0.707l1.146-1.146h-3.792v3.792l1.146-1.146c0.195-0.195 0.512-0.195 0.707 0s0.195 0.512 0 0.707l-2.012 2.012c-0.012 0.012-0.026 0.023-0.039 0.033l0.051-0.045c-0.027 0.027-0.056 0.050-0.087 0.069-0.011 0.007-0.023 0.014-0.035 0.020-0.014 0.007-0.028 0.014-0.042 0.019-0.013 0.005-0.026 0.010-0.039 0.014-0.015 0.005-0.031 0.009-0.046 0.012-0.011 0.002-0.022 0.004-0.033 0.006-0.017 0.002-0.034 0.004-0.052 0.005-0.007 0-0.014 0-0.021 0l-0.020-0c-0.018-0.001-0.035-0.002-0.052-0.005l0.072 0.005c-0.036 0-0.071-0.004-0.105-0.011-0.015-0.003-0.031-0.007-0.046-0.012-0.014-0.004-0.027-0.009-0.040-0.015s-0.027-0.012-0.041-0.019c-0.012-0.006-0.024-0.013-0.035-0.020s-0.024-0.016-0.035-0.024c-0.014-0.010-0.027-0.021-0.039-0.033-0.004-0.004-0.008-0.008-0.012-0.012l-2-2c-0.195-0.195-0.195-0.512 0-0.707s0.512-0.195 0.707 0l1.146 1.146v-3.792h-3.793l1.147 1.146c0.174 0.174 0.193 0.443 0.058 0.638l-0.058 0.069c-0.195 0.195-0.512 0.195-0.707 0v0l-2-2c-0.004-0.004-0.008-0.008-0.012-0.012-0.011-0.012-0.023-0.025-0.033-0.039-0.009-0.012-0.017-0.023-0.025-0.035s-0.014-0.023-0.020-0.035c-0.007-0.014-0.014-0.028-0.019-0.042-0.005-0.013-0.010-0.026-0.014-0.039-0.005-0.015-0.009-0.031-0.012-0.046-0.002-0.010-0.004-0.020-0.006-0.031-0.003-0.021-0.005-0.042-0.005-0.063-0-0.004-0-0.008-0-0.012l0-0.011c0-0.021 0.002-0.042 0.005-0.063l-0.005 0.074c0-0.036 0.004-0.071 0.011-0.105 0.003-0.015 0.007-0.031 0.012-0.046 0.004-0.014 0.009-0.027 0.015-0.040s0.012-0.027 0.019-0.041c0.006-0.012 0.013-0.024 0.020-0.035 0.019-0.031 0.042-0.060 0.069-0.087l-0.045 0.051c0.010-0.014 0.021-0.027 0.033-0.039l0.012-0.012 2-2c0.195-0.195 0.512-0.195 0.707 0s0.195 0.512 0 0.707v0l-1.147 1.146h3.793v-3.793l-1.146 1.147c-0.174 0.174-0.443 0.193-0.638 0.058l-0.069-0.058c-0.195-0.195-0.195-0.512 0-0.707v0l2-2c0.004-0.004 0.008-0.008 0.012-0.012 0.012-0.011 0.025-0.023 0.039-0.033 0.012-0.009 0.023-0.017 0.035-0.025s0.023-0.014 0.035-0.020c0.014-0.007 0.028-0.014 0.042-0.019 0.013-0.005 0.026-0.010 0.039-0.014 0.015-0.005 0.031-0.009 0.046-0.012 0.010-0.002 0.020-0.004 0.031-0.006 0.021-0.003 0.043-0.005 0.064-0.005 0.003-0 0.007-0 0.011-0zM13.5 15c-0.276 0-0.5-0.224-0.5-0.5s0.224-0.5 0.5-0.5h1.5v-1.5c0-0.276 0.224-0.5 0.5-0.5s0.5 0.224 0.5 0.5v2c0 0.245-0.177 0.45-0.41 0.492l-0.090 0.008h-2z"></path>
</svg>
