<!-- Generated by IcoMoon.io -->
<svg version="1.1" xmlns="http://www.w3.org/2000/svg" width="16" height="16" viewBox="0 0 16 16">
<title>folder-verify</title>
<path d="M6.586 2c0.349 0 0.684 0.119 0.951 0.338l0.11 0.1 1.414 1.419c0.074 0.074 0.169 0.121 0.274 0.137l0.080 0.006h5.586c0.728 0 0.97 0.197 0.997 0.861l0.003 0.139v0.5c0 0.276-0.224 0.5-0.5 0.5-0.245 0-0.45-0.177-0.492-0.41l-0.008-0.090-0.001-0.5h-5.585c-0.349 0-0.684-0.119-0.951-0.338l-0.11-0.1-1.413-1.419c-0.074-0.074-0.169-0.121-0.274-0.137l-0.080-0.006h-5.587l0.001 10h5.5c0.276 0 0.5 0.224 0.5 0.5 0 0.245-0.177 0.45-0.41 0.492l-0.090 0.008h-5.5c-0.728 0-0.97-0.197-0.997-0.861l-0.003-0.139v-10c0-0.728 0.197-0.97 0.861-0.997l0.139-0.003h5.586z"></path>
<path d="M8.146 9.146c0.174-0.174 0.443-0.193 0.638-0.058l0.069 0.058 3 3c0.174 0.174 0.193 0.443 0.058 0.638l-0.058 0.069-3 3c-0.195 0.195-0.512 0.195-0.707 0-0.174-0.174-0.193-0.443-0.058-0.638l0.058-0.069 2.647-2.646-2.647-2.646c-0.174-0.174-0.193-0.443-0.058-0.638l0.058-0.069z"></path>
<path d="M15.854 7.146c-0.174-0.174-0.443-0.193-0.638-0.058l-0.069 0.058-3 3c-0.174 0.174-0.193 0.443-0.058 0.638l0.058 0.069 3 3c0.195 0.195 0.512 0.195 0.707 0 0.174-0.174 0.193-0.443 0.058-0.638l-0.058-0.069-2.647-2.646 2.647-2.646c0.174-0.174 0.193-0.443 0.058-0.638l-0.058-0.069z"></path>
</svg>
