<!-- Generated by IcoMoon.io -->
<svg version="1.1" xmlns="http://www.w3.org/2000/svg" width="16" height="16" viewBox="0 0 16 16">
<title>log</title>
<path d="M12 2v2.5c0 0.276 0.224 0.5 0.5 0.5s0.5-0.224 0.5-0.5v-2.5c0-1.105-0.895-2-2-2h-9c-1.105 0-2 0.895-2 2v12c0 1.105 0.895 2 2 2h3.5c0.276 0 0.5-0.224 0.5-0.5s-0.224-0.5-0.5-0.5h-3.5c-0.552 0-1-0.448-1-1v-12c0-0.552 0.448-1 1-1h9c0.552 0 1 0.448 1 1z"></path>
<path d="M3.5 6c-0.276 0-0.5 0.224-0.5 0.5s0.224 0.5 0.5 0.5h2c0.276 0 0.5-0.224 0.5-0.5s-0.224-0.5-0.5-0.5h-2z"></path>
<path d="M3 3.5c0-0.276 0.224-0.5 0.5-0.5h6c0.276 0 0.5 0.224 0.5 0.5s-0.224 0.5-0.5 0.5h-6c-0.276 0-0.5-0.224-0.5-0.5z"></path>
<path d="M9 11.5c0-0.276 0.224-0.5 0.5-0.5h1c0.276 0 0.5 0.224 0.5 0.5s-0.224 0.5-0.5 0.5h-1c-0.276 0-0.5-0.224-0.5-0.5z"></path>
<path d="M12.5 11c-0.276 0-0.5 0.224-0.5 0.5s0.224 0.5 0.5 0.5h1c0.276 0 0.5-0.224 0.5-0.5s-0.224-0.5-0.5-0.5h-1z"></path>
<path d="M12 13.5c0-0.276 0.224-0.5 0.5-0.5h1c0.276 0 0.5 0.224 0.5 0.5s-0.224 0.5-0.5 0.5h-1c-0.276 0-0.5-0.224-0.5-0.5z"></path>
<path d="M9.5 13c-0.276 0-0.5 0.224-0.5 0.5s0.224 0.5 0.5 0.5h1c0.276 0 0.5-0.224 0.5-0.5s-0.224-0.5-0.5-0.5h-1z"></path>
<path d="M9 7v-0.5c0-0.276 0.224-0.5 0.5-0.5s0.5 0.224 0.5 0.5v0.5h3v-0.5c0-0.276 0.224-0.5 0.5-0.5s0.5 0.224 0.5 0.5v0.5c1.105 0 2 0.895 2 2v5c0 1.105-0.895 2-2 2h-5c-1.105 0-2-0.895-2-2v-5c0-1.105 0.895-2 2-2zM9 8c-0.552 0-1 0.448-1 1h1v-1zM10 8v1h3v-1h-3zM8 10v4c0 0.552 0.448 1 1 1h5c0.552 0 1-0.448 1-1v-4h-7zM14 8v1h1c0-0.552-0.448-1-1-1z"></path>
<path d="M3.5 9c-0.276 0-0.5 0.224-0.5 0.5s0.224 0.5 0.5 0.5h2c0.276 0 0.5-0.224 0.5-0.5s-0.224-0.5-0.5-0.5h-2z"></path>
<path d="M3 12.5c0-0.276 0.224-0.5 0.5-0.5h2c0.276 0 0.5 0.224 0.5 0.5s-0.224 0.5-0.5 0.5h-2c-0.276 0-0.5-0.224-0.5-0.5z"></path>
</svg>
