<!-- Generated by IcoMoon.io -->
<svg version="1.1" xmlns="http://www.w3.org/2000/svg" width="16" height="16" viewBox="0 0 16 16">
<title>page</title>
<path d="M9.586 16c0.221 0 0.434-0.073 0.608-0.206l0.099-0.087 3.707-3.707c0-0.552-0.448-1-1-1h-3.5c-0.276 0-0.5 0.224-0.5 0.5v3.5h-6c-0.513 0-0.936-0.386-0.993-0.883l-0.007-0.117v-12c0-0.513 0.386-0.935 0.883-0.993l0.117-0.007h9c0.513 0 0.935 0.386 0.993 0.883l0.007 0.117v6.5c0 0.276 0.224 0.5 0.5 0.5 0.245 0 0.45-0.177 0.492-0.41l0.008-0.090v-6.5c0-1.054-0.816-1.918-1.851-1.995l-0.149-0.005h-9c-1.054 0-1.918 0.816-1.995 1.851l-0.005 0.149v12c0 1.054 0.816 1.918 1.851 1.995l0.149 0.005h6.586zM10 14.585v-2.585h2.585l-2.585 2.585z"></path>
<path d="M4.5 10h3c0.276 0 0.5-0.224 0.5-0.5s-0.224-0.5-0.5-0.5h-3c-0.276 0-0.5 0.224-0.5 0.5s0.224 0.5 0.5 0.5z"></path>
<path d="M4.5 13h3c0.276 0 0.5-0.224 0.5-0.5s-0.224-0.5-0.5-0.5h-3c-0.276 0-0.5 0.224-0.5 0.5s0.224 0.5 0.5 0.5z"></path>
<path d="M4.5 7h6c0.276 0 0.5-0.224 0.5-0.5s-0.224-0.5-0.5-0.5h-6c-0.276 0-0.5 0.224-0.5 0.5s0.224 0.5 0.5 0.5z"></path>
<path d="M4.5 4h6c0.276 0 0.5-0.224 0.5-0.5s-0.224-0.5-0.5-0.5h-6c-0.276 0-0.5 0.224-0.5 0.5s0.224 0.5 0.5 0.5z"></path>
</svg>
