<!-- Generated by IcoMoon.io -->
<svg version="1.1" xmlns="http://www.w3.org/2000/svg" width="16" height="16" viewBox="0 0 16 16">
<title>project</title>
<path d="M14 6v2.5c0 0.276-0.224 0.5-0.5 0.5s-0.5-0.224-0.5-0.5v-2.5h1zM4 6v2.5c0 0.276-0.224 0.5-0.5 0.5s-0.5-0.224-0.5-0.5v-2.5h1zM9 6v2.5c0 0.276-0.224 0.5-0.5 0.5s-0.5-0.224-0.5-0.5v-2.5h1zM8.5 2c0.276 0 0.5 0.224 0.5 0.5s-0.224 0.5-0.5 0.5h-6.5v2h11c0.513 0 0.935 0.386 0.993 0.883l0.007 0.117h-12c-0.552 0-1-0.448-1-1v-2c0-0.513 0.386-0.936 0.883-0.993l0.117-0.007h6.5z"></path>
<path d="M14.5 11c0.276 0 0.5 0.224 0.5 0.5v2c0 0.276-0.224 0.5-0.5 0.5h-2c-0.276 0-0.5-0.224-0.5-0.5v-2c0-0.276 0.224-0.5 0.5-0.5h2zM14 12h-1v1h1v-1zM9.5 11c0.276 0 0.5 0.224 0.5 0.5v2c0 0.276-0.224 0.5-0.5 0.5h-2c-0.276 0-0.5-0.224-0.5-0.5v-2c0-0.276 0.224-0.5 0.5-0.5h2zM9 12h-1v1h1v-1zM4.5 11c0.276 0 0.5 0.224 0.5 0.5v2c0 0.276-0.224 0.5-0.5 0.5h-2c-0.276 0-0.5-0.224-0.5-0.5v-2c0-0.276 0.224-0.5 0.5-0.5h2zM4 12h-1v1h1v-1z"></path>
</svg>
