<!-- Generated by IcoMoon.io -->
<svg version="1.1" xmlns="http://www.w3.org/2000/svg" width="16" height="16" viewBox="0 0 16 16">
<title>search-data-live</title>
<path d="M12 4.5v-2.5c0-0.552-0.448-1-1-1h-9c-0.552 0-1 0.448-1 1v12c0 0.552 0.448 1 1 1h4.5c0.276 0 0.5 0.224 0.5 0.5s-0.224 0.5-0.5 0.5h-4.5c-1.105 0-2-0.895-2-2v-12c0-1.105 0.895-2 2-2h9c1.105 0 2 0.895 2 2v2.5c0 0.276-0.224 0.5-0.5 0.5s-0.5-0.224-0.5-0.5z"></path>
<path d="M3 6.5c0-0.276 0.224-0.5 0.5-0.5h2c0.276 0 0.5 0.224 0.5 0.5 0 0.107-0.033 0.206-0.090 0.287 0.822-1.086 2.124-1.787 3.59-1.787 0.764 0 1.484 0.191 2.115 0.527 0.244 0.13 0.336 0.433 0.206 0.676s-0.433 0.336-0.677 0.206c-0.49-0.261-1.049-0.41-1.645-0.41-1.933 0-3.5 1.567-3.5 3.5s1.567 3.5 3.5 3.5c1.933 0 3.5-1.567 3.5-3.5 0-0.303-0.038-0.596-0.11-0.875-0.069-0.267 0.092-0.54 0.36-0.609s0.54 0.092 0.609 0.36c0.093 0.36 0.142 0.737 0.142 1.125 0 1.063-0.368 2.039-0.984 2.809l2.838 2.838c0.195 0.195 0.195 0.512 0 0.707s-0.512 0.195-0.707 0l-2.838-2.838c-0.77 0.616-1.746 0.984-2.809 0.984-1.466 0-2.769-0.701-3.59-1.787 0.057 0.081 0.090 0.18 0.090 0.287 0 0.276-0.224 0.5-0.5 0.5h-2c-0.276 0-0.5-0.224-0.5-0.5s0.224-0.5 0.5-0.5h2c0.158 0 0.298 0.073 0.39 0.187-0.559-0.75-0.89-1.68-0.89-2.687s0.331-1.937 0.89-2.687c-0.092 0.114-0.232 0.187-0.39 0.187h-2c-0.276 0-0.5-0.224-0.5-0.5z"></path>
<path d="M5 9.5c0 0.276-0.224 0.5-0.5 0.5h-1c-0.276 0-0.5-0.224-0.5-0.5s0.224-0.5 0.5-0.5h1c0.276 0 0.5 0.224 0.5 0.5z"></path>
<path d="M3.5 3c-0.276 0-0.5 0.224-0.5 0.5s0.224 0.5 0.5 0.5h6c0.276 0 0.5-0.224 0.5-0.5s-0.224-0.5-0.5-0.5h-6z"></path>
<path d="M10 7.5c0-0.276-0.224-0.5-0.5-0.5s-0.5 0.224-0.5 0.5v2c0 0.189 0.107 0.363 0.276 0.447l2 1c0.247 0.123 0.547 0.023 0.671-0.224s0.023-0.547-0.224-0.671l-1.724-0.862v-1.691z"></path>
</svg>
