<!-- Generated by IcoMoon.io -->
<svg version="1.1" xmlns="http://www.w3.org/2000/svg" width="16" height="16" viewBox="0 0 16 16">
<title>single-source</title>
<path d="M6.5 13c0.828 0 1.5 0.672 1.5 1.5s-0.672 1.5-1.5 1.5c-0.828 0-1.5-0.672-1.5-1.5s0.672-1.5 1.5-1.5zM6.5 14c-0.276 0-0.5 0.224-0.5 0.5s0.224 0.5 0.5 0.5c0.276 0 0.5-0.224 0.5-0.5s-0.224-0.5-0.5-0.5zM11 13c0.552 0 1 0.448 1 1v1c0 0.552-0.448 1-1 1h-1c-0.552 0-1-0.448-1-1v-1c0-0.552 0.448-1 1-1h1zM11 14h-1v1h1v-1zM14.5 13c0.828 0 1.5 0.672 1.5 1.5s-0.672 1.5-1.5 1.5c-0.828 0-1.5-0.672-1.5-1.5s0.672-1.5 1.5-1.5zM14.5 14c-0.276 0-0.5 0.224-0.5 0.5s0.224 0.5 0.5 0.5c0.276 0 0.5-0.224 0.5-0.5s-0.224-0.5-0.5-0.5z"></path>
<path d="M3 10h11c0.552 0 1 0.448 1 1v0 0h-11c-0.552 0-1-0.448-1-1v0 0zM4 8h8c0 0.552-0.448 1-1 1h-8cNaNNaNlNaNNaNclNaNNaNz"></path>
<path d="M14 10c0.552 0 1 0.448 1 1v2.5c0 0.276-0.224 0.5-0.5 0.5s-0.5-0.224-0.5-0.5v-3.5z"></path>
<path d="M10 10h1v4h-1v-4z"></path>
<path d="M6 10h1v4h-1v-4z"></path>
<path d="M4 8v0 0 3c-0.552 0-1-0.448-1-1v-1c0-0.552 0.448-1 1-1z"></path>
<path d="M5.433 0c0.283 0 0.559 0.094 0.833 0.309 0.341 0.339 0.629 0.657 0.945 1.031l0.545 0.66h2.744c0.678 0 1.409 0.686 1.492 1.372l0.008 0.128v4.5c0 0.552-0.448 1-1 1v0 0-5.5c0-0.153-0.261-0.429-0.438-0.489l-0.062-0.011h-2.933c-0.318 0-1.656-1.634-1.958-1.94-0.034-0.026-0.073-0.044-0.114-0.053l-0.062-0.007h-4.133c-0.14 0-0.26 0.103-0.292 0.244l-0.008 0.074v6.182c0 0.172 0.33 0.5 0.5 0.5 0.276 0 0.5 0.224 0.5 0.5s-0.224 0.5-0.5 0.5c-0.678 0-1.409-0.686-1.492-1.372l-0.008-0.128v-6.182c0-0.68 0.509-1.244 1.167-1.311l0.133-0.007h4.133z"></path>
</svg>
