<!-- Generated by IcoMoon.io -->
<svg version="1.1" xmlns="http://www.w3.org/2000/svg" width="16" height="16" viewBox="0 0 16 16">
<title>text-image</title>
<path d="M2 1c-0.552 0-1 0.448-1 1v12c0 0.552 0.448 1 1 1h12c0.552 0 1-0.448 1-1v-12c0-0.552-0.448-1-1-1h-12zM2 0h12c1.105 0 2 0.895 2 2v12c0 1.105-0.895 2-2 2h-12c-1.105 0-2-0.895-2-2v-12c0-1.105 0.895-2 2-2z"></path>
<path d="M9.5 6h3c0.276 0 0.5 0.224 0.5 0.5s-0.224 0.5-0.5 0.5h-3c-0.276 0-0.5-0.224-0.5-0.5s0.224-0.5 0.5-0.5z"></path>
<path d="M9.5 9h3c0.276 0 0.5 0.224 0.5 0.5s-0.224 0.5-0.5 0.5h-3c-0.276 0-0.5-0.224-0.5-0.5s0.224-0.5 0.5-0.5z"></path>
<path d="M9.5 12h3c0.276 0 0.5 0.224 0.5 0.5s-0.224 0.5-0.5 0.5h-3c-0.276 0-0.5-0.224-0.5-0.5s0.224-0.5 0.5-0.5z"></path>
<path d="M3.5 3h9c0.276 0 0.5 0.224 0.5 0.5s-0.224 0.5-0.5 0.5h-9c-0.276 0-0.5-0.224-0.5-0.5s0.224-0.5 0.5-0.5z"></path>
<path d="M4 7v4h2v-4h-2zM4 6h2c0.552 0 1 0.448 1 1v4c0 0.552-0.448 1-1 1h-2c-0.552 0-1-0.448-1-1v-4c0-0.552 0.448-1 1-1z"></path>
</svg>
