<!-- Generated by IcoMoon.io -->
<svg version="1.1" xmlns="http://www.w3.org/2000/svg" width="32" height="32" viewBox="0 0 32 32">
<path d="M2 25.026v-20.053h-2v22.053h32v-2z"></path>
<path d="M19.872 18.679c-0.265 0-0.519-0.105-0.706-0.293l-5.104-5.104-2.837 2.834c-0.391 0.391-1.024 0.391-1.415 0l-4.343-4.343c-0.391-0.391-0.391-1.024 0-1.415s1.024-0.391 1.415 0l3.634 3.634 2.837-2.834c0.391-0.391 1.024-0.391 1.415 0l5.104 5.106 9.246-9.248c0.391-0.391 1.024-0.391 1.415 0s0.391 1.024 0 1.415l-9.954 9.957c-0.187 0.185-0.441 0.29-0.706 0.29z"></path>
<path d="M29.824 12.841c-0.553 0-1.001-0.448-1.001-1.001v-3.266h-3.383c-0.553 0-1.001-0.448-1.001-1.001s0.448-1.001 1.001-1.001h5.385v5.269c0 0.553-0.448 1.001-1.001 1.001z"></path>
</svg>
