<!-- Generated by IcoMoon.io -->
<svg version="1.1" xmlns="http://www.w3.org/2000/svg" width="32" height="32" viewBox="0 0 32 32">
<path d="M2 30v-30h-2v32h32v-2z"></path>
<path d="M18.798 18.222c-0.265 0-0.519-0.105-0.706-0.293l-5.106-5.104-2.834 2.832c-0.391 0.391-1.024 0.391-1.415 0l-4.343-4.343c-0.391-0.391-0.391-1.024 0-1.415s1.024-0.391 1.415 0l3.634 3.634 2.837-2.834c0.391-0.391 1.024-0.391 1.415 0l5.104 5.106 9.246-9.248c0.391-0.391 1.024-0.391 1.415 0s0.391 1.024 0 1.415l-9.954 9.959c-0.187 0.185-0.441 0.29-0.706 0.29z"></path>
<path d="M4.395 28v-12.24c0 0 1.024-0.391 1.415 0l3.634 3.634 2.837-2.832c0.391-0.391 1.024-0.391 1.415 0l5.102 5.106 9.246-9.248c0.391-0.391 1.415 0 1.415 0v15.579h-25.063z"></path>
</svg>
