<!-- Generated by IcoMoon.io -->
<svg version="1.1" xmlns="http://www.w3.org/2000/svg" width="32" height="32" viewBox="0 0 32 32">
<path d="M4.558 21.040l10.619 10.622c0.45 0.45 1.189 0.45 1.641 0l10.624-10.622c0.45-0.45 0.45-1.186 0.002-1.639l-1.024-1.024c-0.45-0.448-1.186-0.448-1.637 0l-6.91 6.912v-24.128c0-0.635-0.521-1.157-1.157-1.159l-1.438-0.002c-0.635 0.002-1.157 0.521-1.157 1.159v24.13l-6.912-6.91c-0.45-0.448-1.186-0.448-1.637 0l-1.019 1.022c-0.448 0.45-0.448 1.189 0.002 1.639z"></path>
</svg>
