<!-- Generated by IcoMoon.io -->
<svg version="1.1" xmlns="http://www.w3.org/2000/svg" width="32" height="32" viewBox="0 0 32 32">
<path d="M6.999 29.993c-1.104 0-2-0.896-2-2s0.896-2 2-2h22v-2h-22c-2.208 0-4 1.792-4 4s1.792 4 4 4h22v-1.966l-22-0.034z"></path>
<path d="M6.999 0.007c-2.208 0-4 1.792-4 4v23.986c0-2.208 1.792-4 4-4h22v-23.986h-22zM23.57 12.99h-12.725c-0.631 0-1.143-0.512-1.143-1.143s0.512-1.143 1.143-1.143h12.725c0.631 0 1.143 0.512 1.143 1.143s-0.51 1.143-1.143 1.143zM23.57 7.054h-12.725c-0.631 0-1.143-0.512-1.143-1.143s0.512-1.143 1.143-1.143h12.725c0.631 0 1.143 0.512 1.143 1.143s-0.51 1.143-1.143 1.143z"></path>
</svg>
