<!-- Generated by IcoMoon.io -->
<svg version="1.1" xmlns="http://www.w3.org/2000/svg" width="32" height="32" viewBox="0 0 32 32">
<path d="M23.936 20.711c0-0.363-0.133-0.672-0.393-0.937l-3.774-3.774 3.771-3.769c0.263-0.263 0.393-0.576 0.393-0.937 0-0.377-0.133-0.695-0.393-0.958l-1.877-1.874c-0.265-0.263-0.583-0.395-0.962-0.395-0.361 0-0.67 0.133-0.937 0.395l-3.765 3.769-3.769-3.771c-0.267-0.263-0.578-0.395-0.939-0.395-0.375 0-0.697 0.133-0.958 0.395l-1.874 1.874c-0.263 0.265-0.395 0.585-0.395 0.958 0 0.361 0.133 0.67 0.395 0.937l3.771 3.771-3.771 3.771c-0.263 0.263-0.395 0.574-0.395 0.937 0 0.375 0.133 0.695 0.395 0.96l1.874 1.874c0.263 0.263 0.583 0.393 0.958 0.393 0.361 0 0.672-0.13 0.937-0.393l3.771-3.771 3.769 3.771c0.265 0.263 0.576 0.393 0.937 0.393 0.377 0 0.697-0.13 0.962-0.393l1.877-1.874c0.258-0.265 0.391-0.587 0.391-0.958zM32 16c0 2.903-0.715 5.579-2.144 8.030-1.433 2.455-3.371 4.395-5.822 5.826-2.457 1.429-5.131 2.142-8.034 2.142s-5.579-0.711-8.034-2.142c-2.45-1.431-4.391-3.371-5.822-5.826-1.429-2.45-2.144-5.127-2.144-8.030s0.715-5.579 2.146-8.032 3.369-4.393 5.822-5.822 5.129-2.144 8.032-2.144 5.577 0.715 8.034 2.146c2.45 1.431 4.391 3.369 5.822 5.822 1.426 2.45 2.144 5.127 2.144 8.030z"></path>
</svg>
