<!-- Generated by IcoMoon.io -->
<svg version="1.1" xmlns="http://www.w3.org/2000/svg" width="32" height="32" viewBox="0 0 32 32">
<path d="M28.437 13.909c-0.423-3.819-2.565-7.118-5.632-9.111l1.39-2.784c0.343-0.688 0.064-1.522-0.624-1.867s-1.52-0.064-1.865 0.624l-1.394 2.793-0.361-0.146c-1.241-0.411-2.569-0.635-3.95-0.635s-2.709 0.224-3.95 0.635l-0.361 0.146-1.397-2.793c-0.343-0.688-1.179-0.965-1.865-0.624-0.688 0.343-0.965 1.179-0.624 1.867l1.39 2.784c-3.065 1.991-5.207 5.291-5.63 9.111v1.39h24.953v-1.39h-0.080zM11.015 11.822c-1.152 0-2.085-0.935-2.085-2.085 0-1.152 0.93-2.080 2.080-2.085h0.009c1.152 0.005 2.080 0.935 2.080 2.085s-0.935 2.085-2.085 2.085zM20.976 11.822c-1.15 0-2.085-0.935-2.085-2.085 0-1.152 0.93-2.080 2.080-2.085h0.014c1.152 0.005 2.080 0.935 2.080 2.085s-0.935 2.085-2.085 2.085h-0.005z"></path>
<path d="M28.514 31.986v-13.689h-25.029v13.703h25.029z"></path>
</svg>
