<!-- Generated by IcoMoon.io -->
<svg version="1.1" xmlns="http://www.w3.org/2000/svg" width="32" height="32" viewBox="0 0 32 32">
<path d="M28.19 5.65c-0.434-0.512-0.905-0.987-1.401-1.44-1.463-1.339-3.173-2.409-5.058-3.134-0.919-0.354-1.874-0.626-2.866-0.807-0.93-0.169-1.883-0.27-2.864-0.27-0.997 0-1.97 0.103-2.917 0.279-1.010 0.185-1.984 0.469-2.917 0.834-1.847 0.725-3.52 1.781-4.958 3.097-0.494 0.453-0.965 0.93-1.399 1.44-2.373 2.791-3.81 6.4-3.81 10.35 0 4.096 1.552 7.822 4.082 10.651 0.446 0.498 0.921 0.971 1.426 1.41 1.369 1.191 2.939 2.151 4.656 2.825 0.933 0.366 1.906 0.649 2.917 0.834 0.949 0.176 1.922 0.279 2.919 0.279 0.981 0 1.934-0.101 2.866-0.27 0.992-0.181 1.947-0.453 2.866-0.805 1.758-0.677 3.362-1.648 4.759-2.862 0.505-0.439 0.978-0.912 1.426-1.41 2.53-2.832 4.082-6.558 4.082-10.654 0-3.95-1.438-7.559-3.81-10.35zM13.083 2.311c0.183-0.039 0.37-0.064 0.555-0.096-0.091 0.055-0.183 0.112-0.277 0.167-1.95 1.202-3.632 2.795-4.91 4.693-0.656-0.423-1.271-0.901-1.847-1.424 1.799-1.634 4.016-2.816 6.478-3.339zM5.209 7.090c0.695 0.638 1.442 1.214 2.242 1.721-0.949 1.881-1.531 3.973-1.669 6.187h-3.733c0.213-2.99 1.355-5.728 3.159-7.909zM2.050 17.001h3.733c0.149 2.398 0.807 4.656 1.897 6.654-0.768 0.469-1.495 0.997-2.171 1.586-1.968-2.235-3.234-5.093-3.458-8.24zM13.083 29.689c-2.311-0.491-4.409-1.559-6.146-3.038 0.569-0.485 1.182-0.919 1.824-1.31 1.237 1.712 2.8 3.166 4.601 4.277 0.091 0.057 0.183 0.112 0.274 0.167-0.183-0.032-0.37-0.057-0.553-0.096zM14.999 28.267c-1.742-0.96-3.248-2.288-4.439-3.867 1.381-0.583 2.875-0.939 4.439-1.049v4.917zM14.999 21.353c-1.966 0.121-3.835 0.59-5.547 1.36-0.942-1.717-1.522-3.655-1.669-5.712h7.216v4.352zM14.999 14.999h-7.216c0.133-1.865 0.633-3.63 1.429-5.225 1.776 0.834 3.728 1.349 5.787 1.477v3.749zM14.999 9.25c-1.689-0.119-3.296-0.539-4.77-1.209 1.234-1.778 2.866-3.259 4.77-4.309v5.518zM26.791 7.090c1.803 2.181 2.946 4.919 3.159 7.909h-3.833c-0.137-2.199-0.711-4.272-1.646-6.142 0.827-0.517 1.602-1.109 2.32-1.767zM18.866 2.297c2.482 0.519 4.715 1.707 6.528 3.353-0.597 0.542-1.237 1.033-1.92 1.467-1.282-1.915-2.971-3.527-4.937-4.736-0.103-0.062-0.206-0.126-0.311-0.187 0.215 0.034 0.43 0.059 0.64 0.103zM17.001 3.794c1.874 1.054 3.481 2.521 4.697 4.283-1.454 0.651-3.035 1.054-4.697 1.173v-5.456zM17.001 11.25c2.030-0.126 3.952-0.624 5.705-1.438 0.786 1.584 1.278 3.335 1.41 5.186h-7.115v-3.749zM17.001 17.001h7.115c-0.146 2.041-0.715 3.968-1.646 5.675-1.691-0.75-3.534-1.205-5.47-1.323v-4.352zM17.001 23.353c1.534 0.11 3.001 0.455 4.359 1.022-1.17 1.561-2.651 2.873-4.359 3.833v-4.855zM18.866 29.703c-0.21 0.043-0.427 0.069-0.64 0.103 0.105-0.062 0.208-0.126 0.311-0.187 1.817-1.12 3.394-2.587 4.633-4.318 0.667 0.4 1.303 0.848 1.893 1.351-1.751 1.49-3.865 2.565-6.197 3.051zM26.489 25.239c-0.697-0.608-1.449-1.15-2.247-1.632 1.074-1.986 1.723-4.229 1.872-6.608h3.833c-0.222 3.15-1.488 6.007-3.458 8.24z"></path>
</svg>
