<!-- Generated by IcoMoon.io -->
<svg version="1.1" xmlns="http://www.w3.org/2000/svg" width="32" height="32" viewBox="0 0 32 32">
<path d="M16.962 2.334l0.377 2.473 0.215 1.424 1.362 0.446c0.56 0.181 1.079 0.393 1.541 0.629l1.303 0.67 3.111-2.343c0.649 0.617 1.115 1.088 1.447 1.438-0.087 0.114-0.185 0.238-0.295 0.375-0.551 0.697-0.93 1.193-1.193 1.563l-0.83 1.161 0.663 1.269c0.295 0.569 0.528 1.129 0.693 1.657l0.437 1.394 3.883 0.594v1.931l-3.84 0.583-0.469 1.319c-0.224 0.635-0.446 1.163-0.663 1.561l-0.686 1.271 0.825 1.177c0.377 0.542 0.889 1.216 1.538 2.025-0.27 0.29-0.617 0.649-1.074 1.102-0.142 0.139-0.272 0.261-0.382 0.368l-1.915-1.499-1.189-0.926-1.333 0.695c-0.494 0.261-1.003 0.471-1.52 0.633l-1.442 0.459-0.178 1.493c-0.123 1.070-0.233 1.84-0.322 2.395h-1.993l-0.377-2.475-0.215-1.417-1.362-0.448c-0.562-0.187-1.081-0.4-1.538-0.631l-1.305-0.67-1.17 0.885-1.927 1.465c-0.654-0.615-1.125-1.083-1.458-1.438 0.087-0.114 0.187-0.24 0.299-0.377 0.551-0.702 0.928-1.195 1.186-1.557l0.848-1.182-0.69-1.289c-0.295-0.544-0.517-1.083-0.665-1.593l-0.409-1.449-1.49-0.222-2.427-0.357v-1.929l2.453-0.37 1.449-0.215 0.432-1.403c0.153-0.494 0.366-0.997 0.633-1.486l0.693-1.271-0.832-1.186c-0.416-0.594-0.919-1.262-1.522-2.018 0.261-0.281 0.603-0.633 1.051-1.079 0.142-0.137 0.272-0.261 0.382-0.368l1.931 1.499 1.191 0.921 1.33-0.702c0.485-0.251 0.997-0.466 1.518-0.631l1.433-0.457 0.176-1.495c0.126-1.063 0.233-1.835 0.322-2.395h1.991zM18.311 0.002h-4.626c-0.4 0-0.649 0.192-0.75 0.583-0.181 0.69-0.382 1.982-0.606 3.872-0.647 0.206-1.282 0.471-1.893 0.793l-2.878-2.231c-0.178-0.137-0.359-0.21-0.539-0.21-0.306 0-0.962 0.496-1.968 1.49-1.008 0.994-1.694 1.739-2.053 2.238-0.126 0.183-0.187 0.343-0.187 0.48 0 0.167 0.071 0.334 0.208 0.501 0.93 1.127 1.673 2.085 2.231 2.875-0.347 0.64-0.617 1.278-0.814 1.915l-3.874 0.587c-0.153 0.027-0.283 0.117-0.398 0.272-0.107 0.151-0.165 0.311-0.165 0.478v4.626c0 0.181 0.057 0.343 0.167 0.489 0.112 0.144 0.258 0.233 0.437 0.261l3.815 0.562c0.194 0.681 0.48 1.369 0.853 2.062-0.249 0.345-0.624 0.837-1.125 1.467-0.503 0.629-0.857 1.093-1.065 1.383-0.11 0.153-0.167 0.313-0.167 0.48 0 0.183 0.046 0.343 0.144 0.48 0.544 0.75 1.687 1.913 3.44 3.497 0.151 0.153 0.327 0.229 0.521 0.229 0.206 0 0.379-0.057 0.519-0.185l2.937-2.231c0.567 0.295 1.195 0.546 1.874 0.773l0.583 3.833c0.011 0.178 0.091 0.329 0.238 0.45 0.146 0.119 0.318 0.174 0.51 0.174h4.629c0.405 0 0.651-0.194 0.752-0.583 0.178-0.695 0.379-1.984 0.601-3.877 0.654-0.206 1.287-0.471 1.895-0.791l2.878 2.249c0.192 0.126 0.377 0.187 0.544 0.187 0.304 0 0.955-0.494 1.954-1.479 1.001-0.985 1.691-1.735 2.066-2.249 0.123-0.137 0.187-0.297 0.187-0.48 0-0.181-0.071-0.354-0.21-0.519-1.001-1.221-1.742-2.181-2.229-2.873 0.281-0.517 0.549-1.147 0.811-1.895l3.856-0.583c0.167-0.027 0.306-0.119 0.418-0.274 0.112-0.151 0.167-0.311 0.167-0.48v-4.619c0-0.183-0.055-0.343-0.165-0.491-0.112-0.146-0.261-0.233-0.439-0.261l-3.817-0.583c-0.206-0.667-0.489-1.346-0.853-2.039 0.249-0.35 0.626-0.839 1.127-1.47 0.503-0.631 0.855-1.093 1.063-1.383 0.107-0.155 0.167-0.315 0.167-0.482 0-0.192-0.053-0.343-0.146-0.455-0.503-0.711-1.65-1.89-3.442-3.543-0.167-0.137-0.341-0.208-0.519-0.208-0.208 0-0.377 0.062-0.503 0.183l-2.958 2.231c-0.569-0.293-1.198-0.549-1.877-0.773l-0.578-3.835c-0.014-0.176-0.091-0.329-0.238-0.443-0.149-0.121-0.32-0.176-0.512-0.176v0z"></path>
<path d="M15.998 12.677c1.831 0 3.321 1.49 3.321 3.323s-1.486 3.321-3.321 3.321-3.319-1.49-3.319-3.321 1.488-3.323 3.319-3.323zM15.998 10.345c-3.125 0-5.655 2.533-5.655 5.655s2.535 5.655 5.657 5.655c3.125 0 5.657-2.533 5.657-5.655s-2.53-5.655-5.659-5.655v0z"></path>
</svg>
