<!-- Generated by IcoMoon.io -->
<svg version="1.1" xmlns="http://www.w3.org/2000/svg" width="32" height="32" viewBox="0 0 32 32">
<path d="M5.294 25.623c0-0.359-0.13-0.667-0.393-0.933-0.263-0.263-0.571-0.393-0.93-0.391-0.359 0-0.67 0.13-0.933 0.391-0.263 0.263-0.393 0.571-0.393 0.933 0 0.359 0.13 0.67 0.393 0.933 0.263 0.261 0.571 0.391 0.933 0.391 0.359 0 0.67-0.128 0.93-0.391 0.263-0.263 0.393-0.574 0.393-0.933zM28.59 13.248l-10.215-0.215c0-0.277 1.586-2.581 1.792-2.974 0.208-0.393 0.434-0.773 0.681-1.138 0.249-0.366 0.475-0.834 0.683-1.406s0.311-1.154 0.311-1.749c0-0.923-0.309-1.595-0.921-2.016-0.615-0.421-1.41-0.633-2.391-0.633-0.331 0-0.951 0.96-1.861 2.875-0.331 0.608-0.585 1.056-0.766 1.346-0.551 0.882-1.323 1.881-2.315 2.999-0.981 1.115-1.678 1.847-2.091 2.192-0.951 0.786-1.915 1.179-2.894 1.179h-0.663v13.239h0.661c0.992 0 2.144 0.222 3.454 0.663s2.642 0.882 4.002 1.323c1.358 0.441 5.525-0.089 6.64-0.089 2.606 0 3.909-1.152 3.909-3.454 0-0.357-0.034-0.745-0.103-1.159 0.414-0.219 0.741-0.581 0.981-1.086 0.24-0.503 0.361-1.010 0.361-1.52 0-0.512-0.121-0.987-0.37-1.429 0.734-0.693 1.097-1.511 1.097-2.462 0-0.343-0.069-0.727-0.208-1.147-0.137-0.423 0.816-0.747 0.61-0.981 0.002-0.002 0.912-1.2-0.384-2.361zM31.262 16c0.738 1.232-0.087 4.309-1.232 4.633 0.041 0.29 0.469 0.667 0.469 0.971 0 1.394-0.414 2.622-1.241 3.682 0.014 1.915-0.571 3.429-1.758 4.539s-2.752 1.664-4.695 1.664c-1.833 0-6.981 0.274-9.586-0.677-2.263-0.814-3.799-1.218-4.613-1.218h-5.957c-0.731 0-1.355-0.261-1.872-0.777-0.519-0.517-0.777-1.141-0.777-1.872v-13.237c0-0.729 0.258-1.353 0.777-1.872 0.517-0.517 1.141-0.777 1.872-0.777h5.957c0.137 0 0.286-0.030 0.446-0.094 0.158-0.059 0.32-0.158 0.485-0.288 0.167-0.13 0.322-0.254 0.466-0.37 0.144-0.119 0.311-0.272 0.498-0.466s0.327-0.341 0.423-0.446c0.096-0.103 0.226-0.251 0.393-0.446 0.165-0.192 0.261-0.311 0.288-0.352 0.896-1.019 1.586-1.909 2.069-2.667 0.178-0.29 0.407-0.718 0.683-1.282 0.274-0.565 0.53-1.063 0.766-1.49s0.514-0.862 0.837-1.303c0.322-0.441 0.702-0.782 1.138-1.022 0.434-0.242 0.914-0.363 1.438-0.363 1.723 0 3.147 0.462 4.27 1.385 1.125 0.923 1.685 2.226 1.685 3.909 0 0.937-1.906 4.206-2.208 5.035l7.893 0.117c3.33 0.597 1.088 5.083 1.088 5.083z"></path>
</svg>
