<!-- Generated by IcoMoon.io -->
<svg version="1.1" xmlns="http://www.w3.org/2000/svg" width="32" height="32" viewBox="0 0 32 32">
<path d="M14.935 15.991c0-1.177-0.416-2.185-1.25-3.017s-1.84-1.25-3.017-1.25-2.185 0.416-3.017 1.25c-0.834 0.834-1.25 1.84-1.25 3.017s0.416 2.187 1.25 3.019c0.832 0.834 1.84 1.25 3.017 1.25s2.183-0.416 3.017-1.25 1.25-1.842 1.25-3.019zM27.733 24.523c0-0.578-0.21-1.077-0.631-1.497-0.423-0.423-0.923-0.631-1.499-0.631-0.578-0.002-1.081 0.21-1.499 0.631-0.423 0.423-0.633 0.923-0.633 1.497 0 0.587 0.21 1.093 0.629 1.509s0.919 0.629 1.509 0.629c0.585 0 1.093-0.21 1.509-0.629 0.409-0.414 0.617-0.919 0.617-1.509zM27.733 7.458c0-0.578-0.21-1.079-0.631-1.499-0.425-0.421-0.923-0.633-1.502-0.635-0.578 0-1.081 0.213-1.499 0.633-0.423 0.423-0.633 0.926-0.633 1.499 0 0.59 0.21 1.093 0.629 1.509s0.919 0.626 1.509 0.626c0.585 0 1.093-0.208 1.509-0.626 0.411-0.416 0.619-0.917 0.619-1.506zM21.335 14.473v3.086c0 0.112-0.043 0.217-0.114 0.325-0.080 0.105-0.171 0.165-0.27 0.174l-2.585 0.402c-0.126 0.389-0.299 0.814-0.533 1.266 0.377 0.533 0.875 1.17 1.499 1.915 0.075 0.112 0.117 0.222 0.117 0.334 0 0.13-0.043 0.24-0.117 0.318-0.258 0.334-0.715 0.83-1.376 1.493-0.663 0.661-1.099 0.99-1.307 0.99-0.121 0-0.238-0.039-0.35-0.114l-1.915-1.499c-0.411 0.21-0.839 0.382-1.285 0.517-0.121 1.2-0.251 2.062-0.384 2.583-0.078 0.267-0.245 0.402-0.501 0.402h-3.099c-0.121 0-0.233-0.043-0.336-0.128-0.098-0.085-0.155-0.181-0.167-0.295l-0.384-2.553c-0.377-0.112-0.795-0.283-1.25-0.517l-1.963 1.493c-0.078 0.078-0.19 0.114-0.334 0.114-0.121 0-0.238-0.043-0.35-0.13-1.6-1.479-2.4-2.366-2.4-2.667 0-0.098 0.041-0.206 0.117-0.315 0.112-0.155 0.338-0.45 0.683-0.885 0.347-0.432 0.608-0.773 0.789-1.017-0.261-0.489-0.453-0.946-0.587-1.367l-2.533-0.4c-0.112-0.011-0.206-0.064-0.286-0.16-0.075-0.096-0.114-0.201-0.114-0.325v-3.086c0-0.112 0.041-0.219 0.117-0.325 0.078-0.105 0.167-0.165 0.267-0.176l2.585-0.402c0.121-0.389 0.299-0.809 0.533-1.266-0.379-0.533-0.88-1.17-1.504-1.915-0.078-0.121-0.114-0.233-0.114-0.334 0-0.13 0.039-0.245 0.117-0.334 0.245-0.334 0.699-0.827 1.365-1.481 0.665-0.656 1.106-0.985 1.319-0.985 0.121 0 0.238 0.041 0.35 0.117l1.915 1.502c0.377-0.199 0.805-0.375 1.282-0.533 0.123-1.202 0.251-2.055 0.384-2.567 0.080-0.267 0.247-0.402 0.501-0.402h3.099c0.123 0 0.233 0.043 0.334 0.126s0.155 0.181 0.169 0.293l0.382 2.551c0.377 0.112 0.793 0.283 1.25 0.517l1.966-1.483c0.089-0.078 0.199-0.117 0.334-0.117 0.123 0 0.238 0.043 0.35 0.133 1.6 1.477 2.4 2.366 2.4 2.667 0 0.098-0.043 0.206-0.121 0.315-0.128 0.178-0.363 0.478-0.693 0.901-0.336 0.423-0.585 0.757-0.757 0.999 0.254 0.533 0.443 0.99 0.567 1.367l2.535 0.382c0.112 0.023 0.201 0.082 0.281 0.176 0.078 0.096 0.114 0.203 0.114 0.325 0 0 0.009 0 0.009 0zM32 23.36v2.331c0 0.181-0.827 0.352-2.485 0.521-0.13 0.297-0.299 0.59-0.498 0.866 0.565 1.255 0.85 2.023 0.85 2.299 0 0.043-0.021 0.082-0.064 0.117-1.358 0.791-2.046 1.184-2.069 1.184-0.087 0-0.341-0.261-0.763-0.779-0.423-0.528-0.713-0.903-0.871-1.136-0.222 0.023-0.386 0.034-0.498 0.034s-0.281-0.011-0.503-0.034c-0.151 0.233-0.441 0.61-0.866 1.136-0.421 0.519-0.677 0.779-0.768 0.779-0.021 0-0.709-0.391-2.064-1.184-0.043-0.034-0.066-0.073-0.066-0.117 0-0.277 0.286-1.047 0.85-2.299-0.199-0.277-0.368-0.565-0.498-0.866-1.657-0.171-2.487-0.343-2.487-0.521v-2.331c0-0.178 0.83-0.352 2.485-0.514 0.144-0.322 0.309-0.615 0.498-0.871-0.562-1.255-0.85-2.021-0.85-2.299 0-0.043 0.023-0.082 0.066-0.119 0.043-0.021 0.238-0.13 0.585-0.331 0.341-0.199 0.67-0.389 0.978-0.567 0.313-0.176 0.478-0.267 0.503-0.267 0.087 0 0.343 0.258 0.763 0.775 0.423 0.517 0.715 0.889 0.871 1.125 0.222-0.023 0.389-0.032 0.498-0.032 0.112 0 0.281 0.009 0.498 0.032 0.569-0.786 1.081-1.41 1.538-1.867l0.098-0.032c0.043 0 0.734 0.386 2.066 1.166 0.043 0.034 0.064 0.073 0.064 0.119 0 0.279-0.286 1.045-0.85 2.297 0.192 0.258 0.354 0.544 0.498 0.869 1.664 0.165 2.489 0.341 2.489 0.519v0zM32 6.29v2.334c0 0.178-0.827 0.35-2.485 0.517-0.13 0.302-0.299 0.59-0.498 0.866 0.565 1.257 0.85 2.023 0.85 2.302 0 0.043-0.021 0.082-0.064 0.117-1.358 0.789-2.046 1.184-2.069 1.184-0.087 0-0.341-0.261-0.763-0.786-0.423-0.521-0.713-0.898-0.871-1.134-0.222 0.023-0.386 0.032-0.498 0.032s-0.281-0.009-0.503-0.032c-0.151 0.233-0.441 0.61-0.866 1.134-0.421 0.523-0.677 0.786-0.768 0.786-0.021 0-0.709-0.393-2.064-1.184-0.043-0.037-0.066-0.073-0.066-0.117 0-0.279 0.286-1.045 0.85-2.302-0.199-0.277-0.368-0.565-0.498-0.866-1.655-0.167-2.485-0.338-2.485-0.517v-2.334c0-0.178 0.83-0.35 2.485-0.517 0.144-0.322 0.309-0.613 0.498-0.866-0.562-1.255-0.85-2.023-0.85-2.299 0-0.043 0.023-0.085 0.066-0.117 0.043-0.023 0.238-0.133 0.585-0.336 0.341-0.199 0.67-0.389 0.978-0.567 0.313-0.176 0.478-0.267 0.503-0.267 0.087 0 0.343 0.258 0.763 0.775 0.423 0.514 0.715 0.891 0.871 1.125 0.222-0.023 0.389-0.034 0.498-0.034 0.112 0 0.281 0.011 0.498 0.034 0.569-0.789 1.081-1.41 1.538-1.865l0.098-0.034c0.043 0 0.734 0.389 2.066 1.168 0.043 0.034 0.064 0.073 0.064 0.117 0 0.279-0.286 1.045-0.85 2.299 0.192 0.254 0.354 0.544 0.498 0.866 1.662 0.169 2.487 0.343 2.487 0.519v0z"></path>
</svg>
