<!-- Generated by IcoMoon.io -->
<svg version="1.1" xmlns="http://www.w3.org/2000/svg" width="32" height="32" viewBox="0 0 32 32">
<path d="M21.333 16.002c0-1.472-0.519-2.729-1.561-3.771s-2.299-1.559-3.771-1.559-2.729 0.519-3.771 1.559c-1.042 1.042-1.559 2.299-1.559 3.771s0.519 2.729 1.559 3.771c1.042 1.042 2.299 1.559 3.771 1.559s2.729-0.519 3.771-1.559c1.040-1.042 1.561-2.299 1.561-3.771zM32 13.733v4.624c0 0.167-0.055 0.327-0.167 0.48-0.112 0.151-0.249 0.242-0.416 0.27l-3.856 0.583c-0.265 0.75-0.535 1.383-0.811 1.897 0.487 0.695 1.227 1.655 2.229 2.873 0.139 0.167 0.21 0.341 0.21 0.521 0 0.183-0.064 0.343-0.19 0.48-0.375 0.514-1.063 1.264-2.062 2.249-1.001 0.985-1.655 1.481-1.959 1.481-0.167 0-0.347-0.064-0.542-0.19l-2.875-2.249c-0.61 0.32-1.241 0.583-1.897 0.791-0.219 1.89-0.425 3.182-0.603 3.874-0.098 0.386-0.35 0.583-0.752 0.583h-4.622c-0.194 0-0.363-0.059-0.51-0.176-0.146-0.119-0.226-0.267-0.24-0.448l-0.585-3.833c-0.681-0.224-1.305-0.48-1.877-0.773l-2.937 2.231c-0.137 0.126-0.311 0.185-0.519 0.185-0.194 0-0.37-0.075-0.519-0.229-1.751-1.584-2.896-2.75-3.438-3.499-0.098-0.137-0.146-0.299-0.146-0.48 0-0.167 0.057-0.327 0.167-0.478 0.21-0.293 0.562-0.754 1.063-1.385 0.501-0.633 0.875-1.125 1.125-1.47-0.375-0.695-0.658-1.383-0.855-2.062l-3.813-0.565c-0.181-0.027-0.327-0.114-0.439-0.261-0.107-0.144-0.165-0.306-0.165-0.489v-4.626c0-0.165 0.057-0.325 0.167-0.478 0.112-0.153 0.245-0.245 0.395-0.272l3.874-0.583c0.194-0.638 0.464-1.278 0.811-1.915-0.553-0.793-1.296-1.749-2.229-2.875-0.139-0.167-0.21-0.331-0.21-0.501 0-0.137 0.062-0.297 0.187-0.48 0.359-0.498 1.045-1.246 2.053-2.24s1.664-1.49 1.97-1.49c0.181 0 0.361 0.071 0.539 0.21l2.875 2.231c0.613-0.32 1.246-0.585 1.897-0.793 0.222-1.888 0.425-3.182 0.606-3.874 0.096-0.386 0.347-0.583 0.75-0.583h4.626c0.194 0 0.363 0.057 0.51 0.176s0.224 0.267 0.24 0.448l0.583 3.833c0.681 0.224 1.305 0.48 1.877 0.773l2.958-2.231c0.126-0.126 0.293-0.185 0.503-0.185 0.181 0 0.354 0.071 0.519 0.208 1.794 1.655 2.937 2.834 3.438 3.543 0.096 0.112 0.146 0.263 0.146 0.457 0 0.167-0.055 0.327-0.167 0.48-0.208 0.293-0.562 0.754-1.063 1.385-0.501 0.633-0.875 1.122-1.125 1.467 0.361 0.695 0.647 1.376 0.855 2.041l3.815 0.583c0.181 0.027 0.327 0.117 0.439 0.261 0.105 0.146 0.16 0.311 0.16 0.494z"></path>
</svg>
