<svg xmlns="http://www.w3.org/2000/svg" width="32" height="32"><path d="M23.616 9.563c1.801 0 3.266 1.465 3.266 3.266s-1.465 3.266-3.266 3.266-3.269-1.465-3.269-3.266 1.467-3.266 3.269-3.266zm0-2.07a5.337 5.337 0 1 0 5.337 5.337 5.336 5.336 0 0 0-5.337-5.337zm0 14.374c4.409 0 6.235.402 6.501 4.482H17.116c.265-4.08 2.091-4.482 6.501-4.482zm0-1.849c-4.551 0-8.256.43-8.382 7.058-.002.117-.002 1.122-.002 1.122H32s0-1.006-.002-1.122c-.126-6.629-3.829-7.058-8.382-7.058zm-7.371-9.929a6.288 6.288 0 1 1-12.575 0 6.288 6.288 0 0 1 12.575 0z"/><path d="M18.37 21.152c-1.762-2.359-4.869-2.592-8.416-2.592-5.403 0-9.801.507-9.952 8.318L0 28.199h16.35l.002-1.186c.057-2.992.807-4.782 2.018-5.861z"/></svg>