<!-- Generated by IcoMoon.io -->
<svg version="1.1" xmlns="http://www.w3.org/2000/svg" width="32" height="32" viewBox="0 0 32 32">
<path d="M6.594 4.629l18.809 11.369-18.809 11.371v-22.741zM6.594 0c-0.779 0-1.561 0.199-2.263 0.601-1.442 0.821-2.331 2.361-2.331 4.025v22.741c0 1.671 0.889 3.207 2.329 4.030 0.702 0.402 1.483 0.603 2.265 0.603 0.818 0 1.639-0.219 2.366-0.661l18.809-11.371c1.383-0.837 2.231-2.343 2.231-3.97s-0.848-3.134-2.231-3.97l-18.809-11.367c-0.727-0.441-1.547-0.661-2.366-0.661v0z"></path>
</svg>
