<svg xmlns="http://www.w3.org/2000/svg" width="32" height="32"><path d="M28.983 3.595H3.017C1.353 3.595 0 4.982 0 6.688v18.624c0 1.707 1.353 3.093 3.017 3.093h25.966c1.666 0 3.017-1.385 3.017-3.093V6.69c-.002-1.707-1.353-3.095-3.017-3.095zm.226 21.717a.234.234 0 0 1-.229.235H3.017a.232.232 0 0 1-.229-.235V9.09h26.423v16.222h-.002z"/><path d="M7.858 23.529c.773 0 1.394-.64 1.394-1.429v-4.818c0-.791-.626-1.431-1.394-1.431s-1.394.64-1.394 1.431V22.1c0 .789.624 1.429 1.394 1.429zm5.424 0c.773 0 1.397-.64 1.397-1.429v-9.534c0-.789-.626-1.429-1.397-1.429s-1.392.64-1.392 1.429V22.1c0 .789.624 1.429 1.392 1.429zm5.431 0c.773 0 1.392-.64 1.392-1.429v-8.297c0-.789-.624-1.429-1.392-1.429-.77 0-1.394.64-1.394 1.429V22.1c0 .789.624 1.429 1.394 1.429zm5.426 0c.77 0 1.394-.64 1.394-1.429v-4.203c0-.791-.626-1.431-1.394-1.431-.773 0-1.394.64-1.394 1.431V22.1c-.002.789.624 1.429 1.394 1.429z"/></svg>