<!-- Generated by IcoMoon.io -->
<svg version="1.1" xmlns="http://www.w3.org/2000/svg" width="32" height="32" viewBox="0 0 32 32">
<path d="M7.353 9.563h14.667c0.194 0 0.354-0.064 0.48-0.19s0.187-0.286 0.187-0.478v-1.335c0-0.194-0.062-0.354-0.187-0.48s-0.286-0.187-0.48-0.187h-14.667c-0.194 0-0.354 0.062-0.478 0.187-0.126 0.126-0.19 0.286-0.19 0.48v1.335c0 0.194 0.064 0.354 0.19 0.478 0.126 0.126 0.283 0.19 0.478 0.19z"></path>
<path d="M28.75 0.583c-0.389-0.389-0.859-0.583-1.417-0.583h-22.667c-0.555 0-1.026 0.194-1.417 0.583-0.389 0.389-0.583 0.859-0.583 1.417v28c0 0.555 0.194 1.029 0.583 1.417 0.391 0.389 0.862 0.583 1.417 0.583h13.335c0.555 0 1.166-0.139 1.833-0.416 0.667-0.279 1.195-0.61 1.582-1.001l6.501-6.498c0.386-0.389 0.722-0.917 0.999-1.584s0.416-1.278 0.416-1.833h0.002v-18.667c0.002-0.555-0.194-1.029-0.583-1.417zM26.041 22.187l-6.521 6.521c-0.167 0.167-0.45 0.32-0.853 0.457v-7.833h7.833c-0.139 0.402-0.293 0.688-0.459 0.855zM26.667 18.665h-8.667c-0.555 0-1.029 0.194-1.415 0.583-0.391 0.391-0.585 0.862-0.585 1.417v8.667h-10.667v-26.667h21.335v16z"></path>
<path d="M7.353 14.896h14.667c0.194 0 0.354-0.062 0.48-0.187s0.187-0.283 0.187-0.478v-1.335c0-0.194-0.062-0.354-0.187-0.48s-0.286-0.187-0.48-0.187h-14.667c-0.194 0-0.354 0.062-0.478 0.187-0.126 0.126-0.19 0.286-0.19 0.48v1.335c0 0.194 0.064 0.354 0.19 0.478 0.126 0.126 0.283 0.187 0.478 0.187z"></path>
<path d="M7.353 20.208h4.722c0.194 0 0.354-0.062 0.48-0.187s0.187-0.286 0.187-0.478v-1.335c0-0.194-0.062-0.354-0.187-0.48s-0.286-0.187-0.48-0.187h-4.722c-0.194 0-0.354 0.062-0.478 0.187-0.126 0.126-0.19 0.286-0.19 0.48v1.335c0 0.194 0.064 0.354 0.19 0.478 0.126 0.126 0.283 0.187 0.478 0.187z"></path>
</svg>
