<!-- Generated by IcoMoon.io -->
<svg version="1.1" xmlns="http://www.w3.org/2000/svg" width="32" height="32" viewBox="0 0 32 32">
<path d="M14.576 13.035c0 3.234-2.613 5.856-5.835 5.856s-5.835-2.622-5.835-5.856c0-3.234 2.613-5.856 5.835-5.856s5.835 2.622 5.835 5.856z"></path>
<path d="M8.741 20.791c-4.827 0-8.743 5.019-8.743 11.209h17.486c0-6.19-3.913-11.209-8.743-11.209z"></path>
<path d="M18.277 21.026h-1.991l-1.41-2.149h2.13l1.527-3.051h3.726l2.923-6.021 1.865 0.965-3.502 7.205h-3.744z"></path>
<path d="M25.129 18.096h2.286v9.079h-2.286v-9.079z"></path>
<path d="M21.129 21.541h2.286v5.632h-2.286v-5.632z"></path>
<path d="M17.129 24.359h2.286v2.816z"></path>
<path d="M24 0h-16.603c-0.553 0-1.022 0.194-1.41 0.583s-0.583 0.859-0.583 1.417v2.535h2.658v-1.867h15.925v5.323h5.344v21.346h-8.773v2.663h9.435c0.553 0 1.024-0.194 1.413-0.585 0.386-0.386 0.581-0.859 0.581-1.415l-0.002-22.011h0.018l-0.018-0.018-5.287-5.305-2.697-2.665z"></path>
</svg>
