<!-- Generated by IcoMoon.io -->
<svg version="1.1" xmlns="http://www.w3.org/2000/svg" width="32" height="32" viewBox="0 0 32 32">
<path d="M24.615 27.691c0-0.336-0.121-0.624-0.368-0.866-0.242-0.247-0.528-0.368-0.864-0.368s-0.626 0.121-0.869 0.368c-0.242 0.242-0.368 0.528-0.368 0.866 0 0.334 0.126 0.626 0.368 0.866s0.533 0.366 0.869 0.366 0.622-0.121 0.864-0.366c0.247-0.247 0.368-0.535 0.368-0.866zM29.536 27.691c0-0.336-0.121-0.624-0.368-0.866-0.242-0.247-0.533-0.368-0.864-0.368-0.336 0-0.622 0.121-0.864 0.368-0.247 0.242-0.368 0.528-0.368 0.866 0 0.334 0.121 0.626 0.368 0.866 0.242 0.24 0.528 0.366 0.864 0.366 0.331 0 0.622-0.121 0.864-0.366 0.251-0.247 0.368-0.535 0.368-0.866zM32 23.383v6.149c0 0.512-0.181 0.949-0.539 1.305-0.359 0.359-0.791 0.539-1.303 0.539h-28.311c-0.517 0-0.949-0.181-1.307-0.539-0.359-0.357-0.539-0.789-0.539-1.303v-6.149c0-0.517 0.181-0.951 0.539-1.307 0.359-0.359 0.791-0.539 1.307-0.539h8.208c0.272 0.72 0.722 1.307 1.358 1.771 0.633 0.457 1.346 0.693 2.126 0.693h4.921c0.782 0 1.493-0.231 2.126-0.693 0.631-0.462 1.090-1.049 1.355-1.771h8.21c0.512 0 0.949 0.181 1.307 0.539 0.359 0.357 0.542 0.791 0.542 1.305v0zM25.751 10.926c-0.222 0.512-0.599 0.768-1.136 0.768h-4.921v8.615c0 0.331-0.126 0.624-0.368 0.869s-0.535 0.366-0.869 0.366h-4.919c-0.331 0-0.622-0.126-0.869-0.366-0.242-0.245-0.368-0.535-0.363-0.869v-8.615h-4.921c-0.535 0-0.917-0.256-1.131-0.768-0.219-0.501-0.133-0.942 0.265-1.328l8.617-8.613c0.229-0.242 0.519-0.363 0.864-0.363 0.347 0 0.635 0.121 0.869 0.366l8.615 8.613c0.395 0.384 0.485 0.825 0.267 1.326v0z"></path>
</svg>
