<svg xmlns="http://www.w3.org/2000/svg" width="32" height="32"><path d="M16.197 5.79l2.407 4.871.354.722 6.174.898-4.469 4.352.137.795.919 5.355-5.522-2.905-5.522 2.903.919-5.355.137-.793-.578-.56-3.888-3.792 6.171-.898.357-.72 2.405-4.873zm0-3.461l-3.778 7.653-8.446 1.23 6.112 5.957-1.442 8.411 7.554-3.973 7.557 3.973-1.445-8.411 6.112-5.957-8.446-1.23-3.778-7.653z"/><path d="M14.503 30.935l1.694-6.955 1.694 6.955zM0 19.049l7.125-.715-6 3.909zM7.6 1.227l3.045 6.48L4.963 3.35zm19.207 1.619L21.708 7.87l2.222-6.805zm4.471 18.185l-6.434-3.138 7.157-.169z"/></svg>