<!-- Generated by IcoMoon.io -->
<svg version="1.1" xmlns="http://www.w3.org/2000/svg" width="32" height="32" viewBox="0 0 32 32">
<path d="M32 12.741c0 1.262-1.022 2.283-2.283 2.283h-27.433c-1.262 0-2.283-1.024-2.283-2.283v-8.585c0-1.262 1.022-2.283 2.283-2.283h27.435c1.259 0 2.281 1.022 2.281 2.283v8.585z"></path>
<path d="M13.527 27.845c0 1.262-1.022 2.283-2.283 2.283h-8.96c-1.262 0-2.283-1.022-2.283-2.283v-7.419c0-1.262 1.022-2.283 2.283-2.283h8.962c1.262 0 2.283 1.022 2.283 2.283l-0.002 7.419z"></path>
<path d="M32 27.845c0 1.262-1.022 2.283-2.283 2.283h-10.021c-1.262 0-2.283-1.022-2.283-2.283v-7.419c0-1.262 1.022-2.283 2.283-2.283h10.021c1.262 0.002 2.283 1.024 2.283 2.283v7.419z"></path>
</svg>
