<svg xmlns="http://www.w3.org/2000/svg" width="32" height="32"><path d="M32 12.741a2.282 2.282 0 0 1-2.283 2.283H2.284a2.283 2.283 0 0 1-2.283-2.283V4.156a2.282 2.282 0 0 1 2.283-2.283h27.435A2.282 2.282 0 0 1 32 4.156v8.585zM13.527 27.845a2.282 2.282 0 0 1-2.283 2.283h-8.96a2.282 2.282 0 0 1-2.283-2.283v-7.419a2.282 2.282 0 0 1 2.283-2.283h8.962a2.282 2.282 0 0 1 2.283 2.283l-.002 7.419zm18.473 0a2.282 2.282 0 0 1-2.283 2.283H19.696a2.282 2.282 0 0 1-2.283-2.283v-7.419a2.282 2.282 0 0 1 2.283-2.283h10.021A2.285 2.285 0 0 1 32 20.426v7.419z"/></svg>