<!-- Generated by IcoMoon.io -->
<svg version="1.1" xmlns="http://www.w3.org/2000/svg" width="32" height="32" viewBox="0 0 32 32">
<path d="M31.479 19.335c0 0.069-0.007 0.117-0.023 0.144-0.889 3.723-2.75 6.738-5.586 9.047-2.83 2.313-6.151 3.47-9.954 3.47-2.027 0-3.991-0.382-5.886-1.143-1.895-0.763-3.586-1.854-5.072-3.273l-2.688 2.69c-0.263 0.263-0.576 0.391-0.937 0.391s-0.674-0.128-0.937-0.391c-0.261-0.263-0.395-0.576-0.395-0.939v-9.333c0-0.359 0.133-0.67 0.395-0.937 0.265-0.263 0.576-0.395 0.937-0.395h9.333c0.359 0 0.674 0.133 0.939 0.395 0.263 0.263 0.395 0.578 0.395 0.937 0 0.361-0.135 0.674-0.395 0.939l-2.857 2.857c0.985 0.914 2.103 1.623 3.355 2.123s2.551 0.75 3.897 0.75c1.858 0 3.598-0.455 5.207-1.353 1.614-0.903 2.903-2.146 3.877-3.728 0.153-0.235 0.519-1.047 1.102-2.439 0.112-0.318 0.318-0.478 0.629-0.478h3.998c0.183 0 0.336 0.066 0.469 0.201 0.13 0.128 0.197 0.281 0.199 0.464v0zM32 2.67v9.33c0 0.361-0.133 0.674-0.395 0.939-0.263 0.263-0.576 0.395-0.937 0.395h-9.335c-0.361 0-0.674-0.133-0.937-0.395-0.265-0.263-0.393-0.576-0.393-0.939 0.002-0.359 0.135-0.672 0.395-0.937l2.875-2.875c-2.055-1.902-4.48-2.855-7.271-2.855-1.863 0-3.593 0.453-5.209 1.353-1.605 0.907-2.898 2.149-3.87 3.728-0.151 0.235-0.519 1.049-1.104 2.437-0.11 0.32-0.318 0.48-0.626 0.48h-4.146c-0.181 0-0.334-0.066-0.466-0.199-0.135-0.128-0.201-0.281-0.201-0.464v-0.146c0.903-3.721 2.779-6.736 5.625-9.049 2.846-2.311 6.176-3.467 9.998-3.467 2.025 0 3.998 0.386 5.915 1.159 1.915 0.77 3.618 1.856 5.104 3.257l2.706-2.686c0.263-0.263 0.576-0.398 0.939-0.398 0.361 0 0.672 0.133 0.937 0.398 0.261 0.261 0.393 0.574 0.395 0.935v0z"></path>
</svg>
