<!-- Generated by IcoMoon.io -->
<svg version="1.1" xmlns="http://www.w3.org/2000/svg" width="32" height="32" viewBox="0 0 32 32">
<path d="M16.197 5.79l2.407 4.871 0.354 0.722 6.174 0.898-4.469 4.352 0.137 0.795 0.919 5.355-5.522-2.905-5.522 2.903 0.919-5.355 0.137-0.793-0.578-0.56-3.888-3.792 6.171-0.898 0.357-0.72 2.405-4.873zM16.197 2.329l-3.778 7.653-8.446 1.23 6.112 5.957-1.442 8.411 7.554-3.973 7.557 3.973-1.445-8.411 6.112-5.957-8.446-1.23-3.778-7.653z"></path>
<path d="M14.503 30.935l1.694-6.955 1.694 6.955z"></path>
<path d="M0 19.049l7.125-0.715-6 3.909z"></path>
<path d="M7.6 1.227l3.045 6.48-5.682-4.357z"></path>
<path d="M26.807 2.846l-5.099 5.024 2.222-6.805z"></path>
<path d="M31.278 21.031l-6.434-3.138 7.157-0.169z"></path>
</svg>
