<?xml version="1.0" encoding="utf-8"?>
<!-- Generator: Adobe Illustrator 21.0.0, SVG Export Plug-In . SVG Version: 6.00 Build 0)  -->
<svg version="1.1" id="图层_1" xmlns="http://www.w3.org/2000/svg" xmlns:xlink="http://www.w3.org/1999/xlink" x="0px" y="0px"
	 viewBox="0 0 14 14" style="enable-background:new 0 0 14 14;" xml:space="preserve">
<path d="M7,0C3.1,0,0,3.1,0,7c0,3.9,3.1,7,7,7c3.9,0,7-3.1,7-7C14,3.1,10.9,0,7,0z M11.1,6.4c-0.3,0.5-0.8,0.9-1.4,1.1c0,0,0,0,0,0
	c-0.1,0-0.2,0-0.3,0c-0.4,0-0.7-0.3-0.5-0.6c0.1-0.3,0.3-0.5,0.6-0.6c0.5-0.2,0.8-0.6,0.8-1c0-0.6-0.6-1.1-1.3-1.1
	c-0.7,0-1.3,0.5-1.3,1.1v3.4c0,0.8-0.5,1.5-1.2,1.9C6,10.9,5.6,11,5.1,11c-1.4,0-2.5-1-2.5-2.3c0-0.4,0.1-0.8,0.3-1.1
	c0.3-0.5,0.8-0.9,1.4-1.1c0,0,0,0,0,0c0.1,0,0.2-0.1,0.3-0.1c0.4,0,0.7,0.3,0.5,0.6C5.1,7.4,4.9,7.6,4.6,7.7c0,0-0.1,0-0.1,0
	C4,7.9,3.7,8.3,3.7,8.7c0,0.6,0.6,1.1,1.3,1.1c0.7,0,1.3-0.5,1.3-1.1V5.3c0-0.8,0.5-1.5,1.2-1.9C8,3.1,8.4,3,8.9,3
	c1.4,0,2.5,1,2.5,2.3C11.4,5.7,11.3,6.1,11.1,6.4z"/>
</svg>
