<?xml version="1.0" encoding="utf-8"?>
<!-- Generated by IcoMoon.io -->
<!DOCTYPE svg PUBLIC "-//W3C//DTD SVG 1.1//EN" "http://www.w3.org/Graphics/SVG/1.1/DTD/svg11.dtd">
<svg version="1.1" xmlns="http://www.w3.org/2000/svg" xmlns:xlink="http://www.w3.org/1999/xlink" width="25" height="32" viewBox="0 0 25 32">
<path d="M25.018 27.625l-0.107 0.107c-1.339 1.339-2.893 2.393-4.625 3.125-1.804 0.75-3.696 1.143-5.661 1.143s-3.875-0.393-5.661-1.143c-1.732-0.732-3.304-1.786-4.625-3.125-1.339-1.321-2.393-2.875-3.125-4.607-0.446-1.089-0.804-2.214-0.964-3.375v0c-0.071-0.5 0.625-0.607 0.857-0.643 0.554-0.089 0.929-0.054 1 0.357 0.018 0.018 0.018 0.036 0.018 0.071 0.071 0.357 0.25 1.429 0.821 2.839 0.589 1.464 1.5 2.821 2.714 4.036 1.161 1.161 2.518 2.071 4.036 2.714 1.554 0.661 3.214 1 4.929 1 1.696 0 3.357-0.339 4.929-1 1.5-0.643 2.857-1.554 4.018-2.714l0.107-0.107c0.125-0.125 0.268-0.161 0.446-0.107 0.161 0.036 0.357 0.179 0.589 0.393v0c0.571 0.589 0.446 0.875 0.304 1.036zM16.589 16.643l-1.179 1.179 1.125 1.125c0.125 0.125 0.357 0.393-0.125 0.875-0.196 0.196-0.393 0.304-0.571 0.304-0.125 0-0.232-0.054-0.339-0.179l-1.107-1.089-1.179 1.179c-0.036 0.036-0.125 0.089-0.268 0.089-0.161 0-0.357-0.089-0.554-0.286l-0.036-0.036c-0.125-0.107-0.321-0.304-0.321-0.518 0-0.107 0.054-0.196 0.143-0.304l1.179-1.161-1.179-1.179c-0.196-0.196-0.107-0.446 0.25-0.804 0.214-0.214 0.393-0.321 0.554-0.321 0.089 0 0.161 0.036 0.232 0.089l1.161 1.179 1.161-1.161c0.196-0.196 0.518-0.107 0.857 0.232 0.214 0.214 0.446 0.518 0.196 0.786zM25 17.661c0 1.411-0.286 2.786-0.821 4.071-0.536 1.25-1.286 2.357-2.25 3.321s-2.089 1.714-3.339 2.25c-1.286 0.554-2.661 0.821-4.071 0.821s-2.786-0.268-4.071-0.821c-1.25-0.536-2.375-1.286-3.339-2.25s-1.714-2.071-2.232-3.321c-0.107-0.232-0.268-0.679-0.268-0.714h-0.018c-0.161-0.5 0.554-0.714 0.768-0.786 0.518-0.161 0.911-0.232 1.071 0.214 0.429 1.143 1.089 2.25 1.732 2.982h0.018v-6.089c0.036-1.5 0.661-3.018 1.821-4.143 1.196-1.179 2.804-1.839 4.518-1.839 3.5 0 6.339 2.821 6.339 6.286 0 3.5-2.857 6.339-6.339 6.339-0.696 0-1.214-0.054-2-0.286-0.089-0.036-0.5-0.214-0.232-1.089 0.071-0.232 0.286-0.911 0.786-0.768 0.036 0 0.911 0.214 1.375 0.214 2.482 0 4.429-1.929 4.429-4.393 0-1.161-0.464-2.25-1.286-3.054-0.821-0.821-1.929-1.268-3.125-1.268-1.232 0-2.357 0.5-3.179 1.429-0.714 0.804-1.143 1.875-1.143 2.857v7.375c1.286 0.786 2.768 1.196 4.321 1.196 2.286 0 4.5-0.911 6.089-2.5 1.607-1.607 2.5-3.768 2.5-6.036 0-2.286-0.893-4.429-2.518-6.054-1.607-1.607-3.75-2.5-6.054-2.5s-4.464 0.893-6.071 2.5c-0.018 0.018-1.036 1.071-1.375 1.554l-0.036 0.036c-0.214 0.304-0.411 0.589-1.304 0.393-0.446-0.107-0.929-0.375-0.929-0.768v-12.143c0-0.321 0.25-0.679 0.679-0.679h15.661c0.536 0 0.536 0.75 0.536 0.982 0 0.25 0 0.982-0.536 0.982h-14.482v8.625h0.018c1-1.054 2.732-2.161 3.75-2.589 1.268-0.536 2.696-0.821 4.125-0.821 1.411 0 2.786 0.268 4.071 0.821 1.25 0.536 2.375 1.286 3.339 2.25s1.714 2.071 2.25 3.321c0.536 1.304 0.821 2.661 0.821 4.089zM24.446 7.286c0.339 0.304 0.107 0.625-0.232 1.018-0.214 0.214-0.446 0.464-0.696 0.464-0.107 0-0.196-0.036-0.286-0.125-1.286-1.107-2.446-1.857-3.696-2.375-1.554-0.679-3.214-1-4.929-1-1.518 0-3.179 0.304-4.679 0.875-0.464 0.179-0.714-0.429-0.804-0.661-0.107-0.286-0.161-0.518-0.143-0.679 0.036-0.179 0.125-0.304 0.286-0.357 1.464-0.643 3.464-1.018 5.339-1.018 1.946 0 3.857 0.393 5.643 1.143 1.643 0.696 2.982 1.554 4.196 2.714z"></path>
</svg>
