<!-- Generated by IcoMoon.io -->
<svg version="1.1" xmlns="http://www.w3.org/2000/svg" width="12" height="14" viewBox="0 0 12 14">
<title>more</title>
<path d="M2 6c0.262 0 0.508 0.098 0.705 0.293s0.295 0.423 0.295 0.715c0 0.276-0.098 0.504-0.295 0.699s-0.443 0.293-0.705 0.293c-0.295 0-0.525-0.098-0.705-0.293-0.197-0.195-0.295-0.423-0.295-0.699 0-0.293 0.098-0.52 0.295-0.715 0.18-0.195 0.41-0.293 0.705-0.293zM6 6c0.262 0 0.508 0.098 0.705 0.293s0.295 0.423 0.295 0.715c0 0.276-0.098 0.504-0.295 0.699s-0.443 0.293-0.705 0.293c-0.295 0-0.525-0.098-0.705-0.293-0.197-0.195-0.295-0.423-0.295-0.699 0-0.293 0.098-0.52 0.295-0.715 0.18-0.195 0.41-0.293 0.705-0.293zM10 6c0.262 0 0.508 0.098 0.705 0.293s0.295 0.423 0.295 0.715c0 0.276-0.098 0.504-0.295 0.699s-0.443 0.293-0.705 0.293c-0.295 0-0.525-0.098-0.705-0.293-0.197-0.195-0.295-0.423-0.295-0.699 0-0.293 0.098-0.52 0.295-0.715 0.18-0.195 0.41-0.293 0.705-0.293z"></path>
</svg>
