<!-- Generated by IcoMoon.io -->
<svg version="1.1" xmlns="http://www.w3.org/2000/svg" width="16" height="16" viewBox="0 0 16 16">
<title>ID-info-16</title>
<path d="M9.586 15l3.707-3.707 0.707 0.707-4 4h-7c-1.105 0-2-0.895-2-2v-12c0-1.105 0.895-2 2-2h9c1.105 0 2 0.895 2 2v7h-1v-7c0-0.552-0.448-1-1-1h-9c-0.552 0-1 0.448-1 1v12c0 0.552 0.448 1 1 1h6.586z"></path>
<path d="M9.5 16c0.276 0 0.5-0.224 0.5-0.5v-4c0-0.276-0.224-0.5-0.5-0.5s-0.5 0.224-0.5 0.5v4c0 0.276 0.224 0.5 0.5 0.5z"></path>
<path d="M9.5 12h4.5v-1h-4.5c-0.276 0-0.5 0.224-0.5 0.5v0c0 0.276 0.224 0.5 0.5 0.5z"></path>
<path d="M5 3h1v6h-1v-6z"></path>
<path d="M8 4v4c1.105 0 2-0.895 2-2s-0.895-2-2-2zM7 3h1c1.657 0 3 1.343 3 3s-1.343 3-3 3h-1v-6z"></path>
</svg>
