<!-- Generated by IcoMoon.io -->
<svg version="1.1" xmlns="http://www.w3.org/2000/svg" width="14" height="14" viewBox="0 0 14 14">
<title>reload-16</title>
<path d="M12.371 10.27c-1.009 1.752-2.874 2.855-4.933 2.855-3.141 0-5.688-2.546-5.688-5.688s2.546-5.688 5.688-5.688c1.91 0 3.659 0.948 4.711 2.5l0.724-0.491c-1.18-1.74-3.174-2.884-5.435-2.884-3.624 0-6.563 2.938-6.563 6.563s2.938 6.563 6.563 6.563c2.434 0 4.558-1.325 5.691-3.293l-0.758-0.437z"></path>
<path d="M12.688 0c0.242 0 0.438 0.196 0.438 0.438v3.5c0 0.242-0.196 0.438-0.438 0.438s-0.438-0.196-0.438-0.438v-3.5c0-0.242 0.196-0.438 0.438-0.438z"></path>
<path d="M9.188 3.5h3.5c0.242 0 0.438 0.196 0.438 0.438s-0.196 0.438-0.438 0.438h-3.5c-0.242 0-0.438-0.196-0.438-0.438s0.196-0.438 0.438-0.438z"></path>
</svg>
