<!-- Generated by IcoMoon.io -->
<svg version="1.1" xmlns="http://www.w3.org/2000/svg" width="14" height="14" viewBox="0 0 14 14">
<title>help-o</title>
<path d="M7 12.833c3.222 0 5.833-2.612 5.833-5.833s-2.612-5.833-5.833-5.833c-3.222 0-5.833 2.612-5.833 5.833s2.612 5.833 5.833 5.833zM7 14c-3.866 0-7-3.134-7-7s3.134-7 7-7c3.866 0 7 3.134 7 7s-3.134 7-7 7zM7 11.667c0.644 0 1.167-0.522 1.167-1.167s-0.522-1.167-1.167-1.167c-0.644 0-1.167 0.522-1.167 1.167s0.522 1.167 1.167 1.167zM7.583 8.167v-0.762c1.128-0.47 1.75-1.189 1.75-2.155 0-1.489-0.844-2.333-2.333-2.333-1.468 0-2.333 0.89-2.333 2.333 0 0.322 0.261 0.583 0.583 0.583s0.583-0.261 0.583-0.583c0-0.806 0.35-1.167 1.167-1.167 0.844 0 1.167 0.322 1.167 1.167 0 0.481-0.397 0.879-1.351 1.197-0.238 0.079-0.399 0.302-0.399 0.553v1.167c0 0.322 0.261 0.583 0.583 0.583s0.583-0.261 0.583-0.583z"></path>
</svg>
