<!-- Generated by IcoMoon.io -->
<svg version="1.1" xmlns="http://www.w3.org/2000/svg" width="16" height="16" viewBox="0 0 16 16">
<title>character-authorize-16</title>
<path d="M6 14h-4c-1.105 0-2-0.895-2-2v-9c0-1.105 0.895-2 2-2h11c1.105 0 2 0.895 2 2v3h-1v-3c0-0.552-0.448-1-1-1h-11c-0.552 0-1 0.448-1 1v9c0 0.552 0.448 1 1 1h4v1z"></path>
<path d="M5 7c0.552 0 1-0.448 1-1s-0.448-1-1-1c-0.552 0-1 0.448-1 1s0.448 1 1 1zM5 8c-1.105 0-2-0.895-2-2s0.895-2 2-2c1.105 0 2 0.895 2 2s-0.895 2-2 2z"></path>
<path d="M3 10.833v-0.833c0-1.139 0.998-2 2-2 1.034 0 2 0.819 2 2h1c0-2-1.714-3-3-3s-3 1.067-3 3v1l1-0.167zM3 10.833v-0.833c0-1.139 0.998-2 2-2 1.034 0 2 0.819 2 2h1c0-2-1.714-3-3-3s-3 1.067-3 3v1l1-0.167z"></path>
<path d="M2 10h1v1h-1v-1z"></path>
<path d="M9.5 6h2c0.276 0 0.5 0.224 0.5 0.5s-0.224 0.5-0.5 0.5h-2c-0.276 0-0.5-0.224-0.5-0.5s0.224-0.5 0.5-0.5z"></path>
<path d="M9.5 4h2c0.276 0 0.5 0.224 0.5 0.5s-0.224 0.5-0.5 0.5h-2c-0.276 0-0.5-0.224-0.5-0.5s0.224-0.5 0.5-0.5z"></path>
<path d="M16 9c0-0.552-0.448-1-1-1h-6c-0.552 0-1 0.448-1 1v6c0 0.552 0.448 1 1 1h6c0.552 0 1-0.448 1-1v-2h-1v2h-6v-6h7z"></path>
<path d="M15.175 10.12c0.21-0.18 0.525-0.155 0.705 0.054s0.155 0.525-0.054 0.705l-3.5 3c-0.228 0.195-0.575 0.147-0.741-0.102l-1-1.5c-0.153-0.23-0.091-0.54 0.139-0.693s0.54-0.091 0.693 0.139l0.687 1.030 3.072-2.633z"></path>
</svg>
