<?xml version="1.0" encoding="utf-8"?>
<!-- Generated by IcoMoon.io -->
<!DOCTYPE svg PUBLIC "-//W3C//DTD SVG 1.1//EN" "http://www.w3.org/Graphics/SVG/1.1/DTD/svg11.dtd">
<svg version="1.1" xmlns="http://www.w3.org/2000/svg" xmlns:xlink="http://www.w3.org/1999/xlink" width="23" height="32" viewBox="0 0 23 32">
<path d="M17.018 6.75l-2.036 5.857 2.089 0.375c0.536-1.464 2.946-8.054 2.946-9.25 0-0.446-0.143-1-0.679-1-1 0-2.071 3.25-2.321 4.018zM11.679 19.018c0.196 0.518 0.411 1.036 0.589 1.571 0.393-0.446 0.804-0.857 1.268-1.196-0.625-0.125-1.25-0.179-1.857-0.375zM6.464 3.018c0 1.821 2.161 7.5 2.839 9.304 0.25-0.143 0.571-0.179 0.875-0.179 0.429 0 0.911 0.054 1.339 0.089l-2.161-6.268c-0.232-0.679-1.268-3.929-2.196-3.929-0.482 0-0.696 0.571-0.696 0.982zM5.054 16.571c0 1.304 3.5 6.107 4.804 6.107 0.357 0 0.661-0.393 0.661-0.714 0-0.411-0.411-1.429-0.571-1.821-0.464-1.196-2.161-4.893-3.625-4.893-0.482 0-1.268 0.839-1.268 1.321zM2.232 22.554c0 0.643 0.214 1.268 0.446 1.857 1.411 3.482 4.589 5.518 8.304 5.518 2.714 0 5-1.036 6.821-3.036 1.929-2.143 2.714-4.786 2.714-7.625 0-1 0.018-2.589-0.768-3.304-1.5-1.321-6.589-1.821-8.607-1.821-0.25 0-0.679 0.018-0.875 0.196-0.214 0.089-0.214 0.429-0.214 0.625 0 2.732 5.768 2.482 7.5 2.482 0.339 0 0.5 0.089 0.714 0.339 0.232 0.286 0.304 0.625 0.339 0.982-0.464 0.464-1.107 0.732-1.714 0.964-0.589 0.214-1.161 0.446-1.661 0.821-1.375 1-2.732 2.714-2.732 4.482 0 1.107 0.661 2.054 0.661 3.143 0 0.018-0.125 0.411-0.125 0.464-2.036-0.143-2.536-2.161-2.607-3.857-0.214 0.054-0.5 0.036-0.732 0.036 0.036 0.125 0.036 0.25 0.036 0.375 0 1.304-1.161 2.25-2.411 2.25-1.929 0-4.482-2.268-4.482-4.232 0-0.536 0.232-0.839 0.589-1.196 0.357 0.446 0.732 0.893 1.071 1.357 0.518 0.696 1.411 1.857 2.375 1.857 0.25 0 0.732-0.214 0.732-0.518 0-0.804-2.929-4.571-3.643-4.571-1.125 0-1.732 1.482-1.732 2.411zM0.196 22.714c0-2.321 0.893-3.857 3.196-4.482-0.196-0.518-0.5-1.304-0.5-1.857 0-1.464 1.804-3.286 3.268-3.286 0.429 0 0.857 0.125 1.25 0.268-0.75-2.125-2.911-8.107-2.911-10.125 0-1.804 0.911-3.232 2.857-3.232 2.5 0 5.339 9 5.946 10.786 0.786-1.964 3.25-10.196 6.036-10.196 1.75 0 2.732 1.393 2.732 3.054 0 1.893-2.107 7.786-2.839 9.821 3 0.732 3.429 3.161 3.429 5.857 0 7.143-4.554 12.679-11.929 12.679-1.357 0-2.696-0.268-3.982-0.75-3.393-1.286-6.554-4.768-6.554-8.536z"></path>
</svg>
