<!-- Generated by IcoMoon.io -->
<svg version="1.1" xmlns="http://www.w3.org/2000/svg" width="16" height="16" viewBox="0 0 16 16">
<title>character-area-16</title>
<path d="M6 13h-4c-1.105 0-2-0.895-2-2v-9c0-1.105 0.895-2 2-2h11c1.105 0 2 0.895 2 2v3h-1v-3c0-0.552-0.448-1-1-1h-11c-0.552 0-1 0.448-1 1v9c0 0.552 0.448 1 1 1h4v1z"></path>
<path d="M5 6c0.552 0 1-0.448 1-1s-0.448-1-1-1c-0.552 0-1 0.448-1 1s0.448 1 1 1zM5 7c-1.105 0-2-0.895-2-2s0.895-2 2-2c1.105 0 2 0.895 2 2s-0.895 2-2 2z"></path>
<path d="M3 9.833v-0.833c0-1.139 0.998-2 2-2 1.034 0 2 0.819 2 2h1c0-2-1.714-3-3-3s-3 1.067-3 3v1l1-0.167zM3 9.833v-0.833c0-1.139 0.998-2 2-2 1.034 0 2 0.819 2 2h1c0-2-1.714-3-3-3s-3 1.067-3 3v1l1-0.167z"></path>
<path d="M2 9h1v1h-1v-1z"></path>
<path d="M9.5 5h2c0.276 0 0.5 0.224 0.5 0.5s-0.224 0.5-0.5 0.5h-2c-0.276 0-0.5-0.224-0.5-0.5s0.224-0.5 0.5-0.5z"></path>
<path d="M9.5 3h2c0.276 0 0.5 0.224 0.5 0.5s-0.224 0.5-0.5 0.5h-2c-0.276 0-0.5-0.224-0.5-0.5s0.224-0.5 0.5-0.5z"></path>
<path d="M9 11v4h6v-4h-6zM9 10h6c0.552 0 1 0.448 1 1v4c0 0.552-0.448 1-1 1h-6c-0.552 0-1-0.448-1-1v-4c0-0.552 0.448-1 1-1z"></path>
<path d="M12 12c0.552 0 1 0.448 1 1s-0.448 1-1 1c-0.552 0-1-0.448-1-1s0.448-1 1-1z"></path>
<path d="M13 10v-1.2c0-0.417-0.426-0.8-1-0.8s-1 0.383-1 0.8v1.2h-1v-1.2c0-0.994 0.895-1.8 2-1.8s2 0.806 2 1.8v1.2h-1zM13 10v-1.2c0-0.417-0.426-0.8-1-0.8s-1 0.383-1 0.8v1.2h-1v-1.2c0-0.994 0.895-1.8 2-1.8s2 0.806 2 1.8v1.2h-1z"></path>
</svg>
