<!-- Generated by IcoMoon.io -->
<svg version="1.1" xmlns="http://www.w3.org/2000/svg" width="14" height="14" viewBox="0 0 14 14">
<title>copy-o</title>
<path d="M13 7.2l1-1.2v4c0 0.966-1.065 2-2 2h-3l0.833-1h2.167c0.395 0 1-0.599 1-1v-2.8zM13 4h-3v-3h-4c-0.395 0-1 0.599-1 1h-1c0-0.966 1.065-2 2-2h5l3 3v7c0 0.966-1.065 2-2 2h-3l0.833-1h2.167c0.395 0 1-0.599 1-1v-6zM12.586 3l-1.586-1.586v1.586h1.586z"></path>
<path d="M6.586 3l2.707 2.707 0.707-0.707-3-3h-5c-0.935 0-2 1.033-2 2v8c0 0.966 1.065 2 2 2h6c0.935 0 2-1.033 2-2v-3.875h-1v3.875c0 0.401-0.605 1-1 1h-6c-0.395 0-1-0.599-1-1v-8c0-0.401 0.605-1 1-1h4.586zM6.586 3l2.707 2.707 0.707-0.707-3-3h-5c-0.935 0-2 1.033-2 2v8c0 0.966 1.065 2 2 2h6c0.935 0 2-1.033 2-2v-3.875h-1v3.875c0 0.401-0.605 1-1 1h-6c-0.395 0-1-0.599-1-1v-8c0-0.401 0.605-1 1-1h4.586zM7 5h3v1h-4v-4h1v3z"></path>
</svg>
