<!-- Generated by IcoMoon.io -->
<svg version="1.1" xmlns="http://www.w3.org/2000/svg" width="16" height="16" viewBox="0 0 16 16">
<title>back-aarow</title>
<path d="M0.5 8c-0.276 0-0.5-0.224-0.5-0.5s0.224-0.5 0.5-0.5h15c0.276 0 0.5 0.224 0.5 0.5s-0.224 0.5-0.5 0.5h-15z"></path>
<path d="M5.854 12.146c0.195 0.195 0.195 0.512 0 0.707s-0.512 0.195-0.707 0l-5-5c-0.195-0.195-0.195-0.512 0-0.707s0.512-0.195 0.707 0l5 5z"></path>
<path d="M0.146 7.146c-0.195 0.195-0.195 0.512 0 0.707s0.512 0.195 0.707 0l5-5c0.195-0.195 0.195-0.512 0-0.707s-0.512-0.195-0.707 0l-5 5z"></path>
</svg>
