<!-- Generated by IcoMoon.io -->
<svg version="1.1" xmlns="http://www.w3.org/2000/svg" width="14" height="14" viewBox="0 0 14 14">
<title>reload</title>
<path d="M8.77 2.791c0.261 0.089 0.401 0.373 0.313 0.634s-0.373 0.401-0.634 0.313c-0.462-0.157-0.949-0.238-1.448-0.238-2.485 0-4.5 2.015-4.5 4.5s2.015 4.5 4.5 4.5c2.485 0 4.5-2.015 4.5-4.5 0-0.719-0.169-1.414-0.488-2.040-0.125-0.246-0.028-0.547 0.219-0.672s0.547-0.028 0.672 0.219c0.39 0.766 0.597 1.616 0.597 2.494 0 3.038-2.462 5.5-5.5 5.5s-5.5-2.462-5.5-5.5c0-3.038 2.462-5.5 5.5-5.5 0.609 0 1.205 0.099 1.77 0.291z"></path>
<path d="M9.354 2.646c0.195 0.195 0.195 0.512 0 0.707l-2 2c-0.195 0.195-0.512 0.195-0.707 0s-0.195-0.512 0-0.707l1.646-1.646-1.646-1.646c-0.195-0.195-0.195-0.512 0-0.707s0.512-0.195 0.707 0l2 2z"></path>
</svg>
