<!-- Generated by IcoMoon.io -->
<svg version="1.1" xmlns="http://www.w3.org/2000/svg" width="14" height="14" viewBox="0 0 14 14">
<title>file-download-16</title>
<path d="M8.388 0.875l3.244 3.244 0.619-0.619-3.5-3.5h-6.125c-0.966 0-1.75 0.784-1.75 1.75v10.5c0 0.966 0.784 1.75 1.75 1.75h7.875c0.966 0 1.75-0.784 1.75-1.75v-6.125h-0.875v6.125c0 0.483-0.392 0.875-0.875 0.875h-7.875c-0.483 0-0.875-0.392-0.875-0.875v-10.5c0-0.483 0.392-0.875 0.875-0.875h5.763z"></path>
<path d="M8.313 0c0.242 0 0.438 0.196 0.438 0.438v3.5c0 0.242-0.196 0.438-0.438 0.438s-0.438-0.196-0.438-0.438v-3.5c0-0.242 0.196-0.438 0.438-0.438z"></path>
<path d="M6.125 5.688c0-0.242 0.196-0.438 0.438-0.438s0.438 0.196 0.438 0.438v4.375c0 0.242-0.196 0.438-0.438 0.438s-0.438-0.196-0.438-0.438v-4.375z"></path>
<path d="M6.872 9.753c0.171 0.171 0.171 0.448 0 0.619s-0.448 0.171-0.619 0l-2.188-2.188c-0.171-0.171-0.171-0.448 0-0.619s0.448-0.171 0.619 0l2.188 2.188z"></path>
<path d="M6.253 9.753l2.188-2.188c0.171-0.171 0.448-0.171 0.619 0s0.171 0.448 0 0.619l-2.188 2.188c-0.171 0.171-0.448 0.171-0.619 0s-0.171-0.448 0-0.619z"></path>
<path d="M8.313 3.5h3.938v0.875h-3.938c-0.242 0-0.438-0.196-0.438-0.438v0c0-0.242 0.196-0.438 0.438-0.438z"></path>
</svg>
