<!-- Generated by IcoMoon.io -->
<svg version="1.1" xmlns="http://www.w3.org/2000/svg" width="14" height="14" viewBox="0 0 14 14">
<title>sequence</title>
<path d="M6.998 13c-0.14 0-0.279-0.053-0.386-0.16l-3.273-3.273c-0.213-0.213-0.213-0.558 0-0.771s0.558-0.213 0.771 0l2.887 2.887 2.887-2.887c0.213-0.213 0.558-0.213 0.771 0s0.213 0.558 0 0.771l-3.273 3.273c-0.107 0.107-0.246 0.16-0.386 0.16zM6.998 2.317l-2.887 2.887c-0.213 0.213-0.558 0.213-0.771 0s-0.213-0.558 0-0.771l3.273-3.273c0.213-0.213 0.558-0.213 0.771 0l3.273 3.273c0.213 0.213 0.213 0.558 0 0.771s-0.558 0.213-0.771 0l-2.887-2.887z"></path>
</svg>
