<!-- Generated by IcoMoon.io -->
<svg version="1.1" xmlns="http://www.w3.org/2000/svg" width="16" height="16" viewBox="0 0 16 16">
<title>creative</title>
<path d="M6 7.5c0 0.008-0 0.015-0 0.022-0.002-0.006 0-0.013 0-0.022zM6.478 9.286c0.192 0.622 0.319 1.098 0.407 1.573 0.075 0.406 0.115 0.784 0.115 1.141 0 0.276-0.224 0.5-0.5 0.5s-0.5-0.224-0.5-0.5c0-0.291-0.034-0.609-0.098-0.958-0.080-0.429-0.197-0.872-0.379-1.46-0.043-0.139-0.227-0.721-0.186-0.593-0.070-0.223-0.118-0.381-0.161-0.53-0.117-0.41-0.175-0.706-0.175-0.958 0-1.131 1.147-1.167 3.146-0.557l0.354 0.108v2.055c0 0.276-0.224 0.5-0.5 0.5s-0.5-0.224-0.5-0.5v-1.31c-0.607-0.168-1.065-0.246-1.359-0.237-0.139 0.004-0.147-0.011-0.143-0.036 0.001 0.222-0.023 0.134 0.48 1.763zM5.339 9c-0.001-0.003-0.002-0.007-0.003-0.010 0.001 0.002 0.002 0.006 0.003 0.010z"></path>
<path d="M10.005 7.455c-0.002-0.010-0.005-0.021-0.005-0.034 0 0.011 0 0.022 0 0.031l0.005 0.002zM9.521 9.25c-0.17 0.564-0.287 1.002-0.374 1.435-0.096 0.476-0.147 0.91-0.147 1.315 0 0.276 0.224 0.5 0.5 0.5s0.5-0.224 0.5-0.5c0-0.331 0.044-0.701 0.127-1.117 0.080-0.397 0.189-0.807 0.351-1.344 0.043-0.142 0.227-0.739 0.186-0.608 0.070-0.228 0.118-0.39 0.16-0.542 0.116-0.418 0.175-0.716 0.175-0.968 0-0.608-0.464-0.921-1.125-0.921-0.483 0-1.154 0.151-2.035 0.447l-0.34 0.115v2.044c0 0.276 0.224 0.5 0.5 0.5s0.5-0.224 0.5-0.5v-1.321c0.615-0.191 1.078-0.285 1.375-0.285 0.127 0 0.135-0.017 0.13-0.045-0.002 0.211 0.014 0.147-0.484 1.795zM10.662 8.943c0.001-0.003 0.002-0.007 0.003-0.010-0.001 0.002-0.002 0.006-0.003 0.010z"></path>
<path d="M8 2c-2.761 0-5 2.239-5 5s2.239 5 5 5c2.761 0 5-2.239 5-5s-2.239-5-5-5zM8 1c3.314 0 6 2.686 6 6s-2.686 6-6 6c-3.314 0-6-2.686-6-6s2.686-6 6-6z"></path>
<path d="M10 12c0-0.276 0.224-0.5 0.5-0.5s0.5 0.224 0.5 0.5v1c0 1.657-1.343 3-3 3s-3-1.343-3-3v-1c0-0.276 0.224-0.5 0.5-0.5s0.5 0.224 0.5 0.5v1c0 1.105 0.895 2 2 2s2-0.895 2-2v-1z"></path>
<path d="M0.13 0.877c-0.197-0.194-0.199-0.51-0.005-0.707s0.51-0.199 0.707-0.005l1.006 0.993c0.197 0.194 0.199 0.51 0.005 0.707s-0.51 0.199-0.707 0.005l-1.006-0.993z"></path>
<path d="M15.132 0.049c0.195-0.196 0.512-0.196 0.707-0.001s0.196 0.512 0.001 0.707l-0.996 0.998c-0.195 0.196-0.512 0.196-0.707 0.001s-0.196-0.512-0.001-0.707l0.996-0.998z"></path>
<path d="M1.926 13.747c-0.195 0.195-0.512 0.195-0.707 0s-0.195-0.512 0-0.707l1.023-1.023c0.195-0.195 0.512-0.195 0.707 0s0.195 0.512 0 0.707l-1.023 1.023z"></path>
<path d="M15.14 13.13c0.195 0.195 0.195 0.512 0 0.707s-0.512 0.195-0.707 0l-1-1c-0.195-0.195-0.195-0.512 0-0.707s0.512-0.195 0.707 0l1 1z"></path>
</svg>
