<!-- Generated by IcoMoon.io -->
<svg version="1.1" xmlns="http://www.w3.org/2000/svg" width="16" height="16" viewBox="0 0 16 16">
<title>file-upload</title>
<path d="M9.586 1l3.707 3.707 0.707-0.707-4-4h-7c-1.105 0-2 0.895-2 2v12c0 1.105 0.895 2 2 2h9c1.105 0 2-0.895 2-2v-7h-1v7c0 0.552-0.448 1-1 1h-9c-0.552 0-1-0.448-1-1v-12c0-0.552 0.448-1 1-1h6.586z"></path>
<path d="M9.5 0c0.276 0 0.5 0.224 0.5 0.5v4c0 0.276-0.224 0.5-0.5 0.5s-0.5-0.224-0.5-0.5v-4c0-0.276 0.224-0.5 0.5-0.5z"></path>
<path d="M7 6.5c0-0.276 0.224-0.5 0.5-0.5s0.5 0.224 0.5 0.5v5c0 0.276-0.224 0.5-0.5 0.5s-0.5-0.224-0.5-0.5v-5z"></path>
<path d="M7.854 6.854l-2.5 2.5c-0.195 0.195-0.512 0.195-0.707 0s-0.195-0.512 0-0.707l2.5-2.5c0.195-0.195 0.512-0.195 0.707 0s0.195 0.512 0 0.707z"></path>
<path d="M7.146 6.854c-0.195-0.195-0.195-0.512 0-0.707s0.512-0.195 0.707 0l2.5 2.5c0.195 0.195 0.195 0.512 0 0.707s-0.512 0.195-0.707 0l-2.5-2.5z"></path>
<path d="M9.5 4h4.5v1h-4.5c-0.276 0-0.5-0.224-0.5-0.5v0c0-0.276 0.224-0.5 0.5-0.5z"></path>
</svg>
