<!-- Generated by IcoMoon.io -->
<svg version="1.1" xmlns="http://www.w3.org/2000/svg" width="16" height="16" viewBox="0 0 16 16">
<title>data-authorize-16</title>
<path d="M2.5 2c-0.828 0-1.5 0.672-1.5 1.5s0.672 1.5 1.5 1.5h9c0.828 0 1.5-0.672 1.5-1.5s-0.672-1.5-1.5-1.5h-9zM2.5 1h9c1.381 0 2.5 1.119 2.5 2.5s-1.119 2.5-2.5 2.5h-9c-1.381 0-2.5-1.119-2.5-2.5s1.119-2.5 2.5-2.5z"></path>
<path d="M3.5 3.5c0 0.552-0.448 1-1 1s-1-0.448-1-1c0-0.552 0.448-1 1-1s1 0.448 1 1z"></path>
<path d="M3.5 7.5c0 0.552-0.448 1-1 1s-1-0.448-1-1c0-0.552 0.448-1 1-1s1 0.448 1 1z"></path>
<path d="M7 6v-1h-4.5c-1.381 0-2.5 1.119-2.5 2.5s1.119 2.5 2.5 2.5h4.5v-1h-4.5c-0.828 0-1.5-0.672-1.5-1.5s0.672-1.5 1.5-1.5h4.5z"></path>
<path d="M7 10v-1h-4.5c-1.381 0-2.5 1.119-2.5 2.5s1.119 2.5 2.5 2.5h4.5v-1h-4.5c-0.828 0-1.5-0.672-1.5-1.5s0.672-1.5 1.5-1.5h4.5z"></path>
<path d="M4.5 3h1c0.276 0 0.5 0.224 0.5 0.5s-0.224 0.5-0.5 0.5h-1c-0.276 0-0.5-0.224-0.5-0.5s0.224-0.5 0.5-0.5z"></path>
<path d="M4.5 7h1c0.276 0 0.5 0.224 0.5 0.5s-0.224 0.5-0.5 0.5h-1c-0.276 0-0.5-0.224-0.5-0.5s0.224-0.5 0.5-0.5z"></path>
<path d="M2.5 11h1c0.276 0 0.5 0.224 0.5 0.5s-0.224 0.5-0.5 0.5h-1c-0.276 0-0.5-0.224-0.5-0.5s0.224-0.5 0.5-0.5z"></path>
<path d="M9 11v4h6v-4h-6zM9 10h6c0.552 0 1 0.448 1 1v4c0 0.552-0.448 1-1 1h-6c-0.552 0-1-0.448-1-1v-4c0-0.552 0.448-1 1-1z"></path>
<path d="M12 12c0.552 0 1 0.448 1 1s-0.448 1-1 1c-0.552 0-1-0.448-1-1s0.448-1 1-1z"></path>
<path d="M13 10v-1.2c0-0.417-0.426-0.8-1-0.8s-1 0.383-1 0.8v1.2h-1v-1.2c0-0.994 0.895-1.8 2-1.8s2 0.806 2 1.8v1.2h-1zM13 10v-1.2c0-0.417-0.426-0.8-1-0.8s-1 0.383-1 0.8v1.2h-1v-1.2c0-0.994 0.895-1.8 2-1.8s2 0.806 2 1.8v1.2h-1z"></path>
</svg>
