<?xml version="1.0" encoding="utf-8"?>
<!-- Generated by IcoMoon.io -->
<!DOCTYPE svg PUBLIC "-//W3C//DTD SVG 1.1//EN" "http://www.w3.org/Graphics/SVG/1.1/DTD/svg11.dtd">
<svg version="1.1" xmlns="http://www.w3.org/2000/svg" xmlns:xlink="http://www.w3.org/1999/xlink" width="41" height="32" viewBox="0 0 41 32">
<path d="M9 17.75h3.054l-0.018-4.732zM27.321 15.982c0-1.982-1.143-3.446-3.518-3.446h-0.964v6.929h0.929c2.232 0 3.554-1.625 3.554-3.482zM17.071 9.25l0.018 13.5c0 0.339-0.268 0.607-0.589 0.607h-3.857c-0.321 0-0.589-0.268-0.589-0.607v-1.107h-5.196l-0.982 1.446c-0.107 0.161-0.304 0.268-0.5 0.268h-4.768c-0.5 0-0.786-0.554-0.482-0.946l9.929-13.518c0.107-0.161 0.286-0.25 0.482-0.25h5.929c0.339 0 0.607 0.268 0.607 0.607zM31.839 15.982c0 4.696-3.429 7.375-8.036 7.375h-4.821c-0.339 0-0.607-0.268-0.607-0.607v-13.5c0-0.339 0.268-0.607 0.607-0.607h4.786c4.643 0 8.071 2.643 8.071 7.339zM34.625 16c0 0 0.071 4.643-2.643 7.375h-0.911c2.429-2.893 2.482-7.393 2.482-7.393s0.036-3.536-2.411-7.321h0.768c2.643 3.018 2.714 7.339 2.714 7.339zM37.911 16c0 0 0.071 4.643-2.661 7.375h-0.911c2.429-2.893 2.482-7.393 2.482-7.393s0.036-3.536-2.393-7.321h0.768c2.643 3.018 2.714 7.339 2.714 7.339zM41.143 16c0 0 0.071 4.643-2.643 7.375h-0.911c2.411-2.893 2.464-7.393 2.464-7.393s0.036-3.536-2.393-7.321h0.768c2.643 3.018 2.714 7.339 2.714 7.339z"></path>
</svg>
