<!-- Generated by IcoMoon.io -->
<svg version="1.1" xmlns="http://www.w3.org/2000/svg" width="16" height="16" viewBox="0 0 16 16">
<title>realtime</title>
<path d="M3.643 11.005c-0.024-0.112-0.149-0.695-0.186-0.863-0.483-2.198-0.905-3.143-1.957-3.143h-1.5v1h1.5c0.292 0 0.628 0.751 0.98 2.357 0.036 0.164 0.16 0.746 0.186 0.861 0.376 1.722 0.595 2.281 1.334 2.281 0.639 0 0.866-0.616 1.246-2.346 0.119-0.54 0.243-1.178 0.397-2.020 0.086-0.469 0.385-2.151 0.411-2.296 0.656-3.646 1.256-5.839 1.445-5.839 0.365 0 0.858 2.218 1.504 7.066 0.854 6.402 1.194 7.934 2.496 7.934 1.047 0 1.324-0.888 1.959-4.324l0.016-0.085c0.457-2.475 0.809-3.591 1.025-3.591h1.5v-1h-1.5c-1.073 0-1.365 0.927-2.008 4.409l-0.016 0.085c-0.445 2.41-0.788 3.505-0.976 3.505-0.365 0-0.858-2.218-1.504-7.066-0.854-6.402-1.194-7.934-2.496-7.934-1.081 0-1.519 1.602-2.43 6.661-0.027 0.147-0.326 1.827-0.411 2.294-0.152 0.831-0.274 1.459-0.39 1.984-0.118 0.537-0.227 0.953-0.327 1.248-0.069-0.251-0.183-0.649-0.3-1.182z"></path>
<path d="M7 5c0 0.552-0.448 1-1 1s-1-0.448-1-1c0-0.552 0.448-1 1-1s1 0.448 1 1z"></path>
<path d="M11 12c0 0.552-0.448 1-1 1s-1-0.448-1-1c0-0.552 0.448-1 1-1s1 0.448 1 1z"></path>
<path d="M4 10c0 0.552-0.448 1-1 1s-1-0.448-1-1c0-0.552 0.448-1 1-1s1 0.448 1 1z"></path>
<path d="M14 11c0 0.552-0.448 1-1 1s-1-0.448-1-1c0-0.552 0.448-1 1-1s1 0.448 1 1z"></path>
</svg>
