<!-- Generated by IcoMoon.io -->
<svg version="1.1" xmlns="http://www.w3.org/2000/svg" width="14" height="14" viewBox="0 0 14 14">
<title>peoples-map-16</title>
<path d="M10.938 7.875c0.725 0 1.313-0.588 1.313-1.313s-0.588-1.313-1.313-1.313c-0.725 0-1.313 0.588-1.313 1.313s0.588 1.313 1.313 1.313zM10.938 8.75c-1.208 0-2.188-0.979-2.188-2.188s0.979-2.188 2.188-2.188c1.208 0 2.188 0.979 2.188 2.188s-0.979 2.188-2.188 2.188z"></path>
<path d="M10.938 8.75c-1.208 0-2.188 0.979-2.188 2.188v2.188h4.375v-2.188c0-1.208-0.979-2.188-2.188-2.188zM10.938 7.875c1.691 0 3.063 1.371 3.063 3.063v2.188c0 0.483-0.392 0.875-0.875 0.875h-4.375c-0.483 0-0.875-0.392-0.875-0.875v-2.188c0-1.691 1.371-3.063 3.063-3.063z"></path>
<path d="M6.125 9.625v-0.875c-1.45 0-2.625 1.175-2.625 2.625v1.75c0 0.483 0.392 0.875 0.875 0.875h1.75v-0.875h-1.75v-1.75c0-0.966 0.784-1.75 1.75-1.75z"></path>
<path d="M11.375 2.625h-0.875v-0.875c0-0.483-0.392-0.875-0.875-0.875h-7.875c-0.483 0-0.875 0.392-0.875 0.875v8.75c0 0.483 0.392 0.875 0.875 0.875v0.875c-0.966 0-1.75-0.784-1.75-1.75v-8.75c0-0.966 0.784-1.75 1.75-1.75h7.875c0.966 0 1.75 0.784 1.75 1.75v0.875z"></path>
<path d="M6.125 8.75c0.483 0 0.875-0.392 0.875-0.875s-0.392-0.875-0.875-0.875c-0.483 0-0.875 0.392-0.875 0.875s0.392 0.875 0.875 0.875zM6.125 9.625c-0.966 0-1.75-0.784-1.75-1.75s0.784-1.75 1.75-1.75c0.966 0 1.75 0.784 1.75 1.75s-0.784 1.75-1.75 1.75z"></path>
</svg>
