<!-- Generated by IcoMoon.io -->
<svg version="1.1" xmlns="http://www.w3.org/2000/svg" width="14" height="14" viewBox="0 0 14 14">
<title>import-16</title>
<path d="M8.75 12.25v0.875h1.75c1.969-0.242 3.5-1.911 3.5-3.938 0-1.716-1.098-3.176-2.631-3.715 0.004-0.074 0.006-0.148 0.006-0.222 0-2.416-1.959-4.375-4.375-4.375-2.124 0-3.894 1.513-4.292 3.52-1.525 0.176-2.708 1.471-2.708 3.042h0.875c0-1.114 0.837-2.047 1.934-2.173l0.634-0.073 0.124-0.626c0.322-1.625 1.755-2.815 3.433-2.815 1.933 0 3.5 1.567 3.5 3.5 0 0.060-0.001 0.119-0.004 0.178l-0.033 0.652 0.616 0.217c1.216 0.428 2.046 1.58 2.046 2.89 0 1.547-1.155 2.85-2.682 3.063h-1.693z"></path>
<path d="M0.438 10.5c-0.242 0-0.438-0.196-0.438-0.438s0.196-0.438 0.438-0.438h6.125c0.242 0 0.438 0.196 0.438 0.438s-0.196 0.438-0.438 0.438h-6.125z"></path>
<path d="M7.128 9.753c0.171-0.171 0.448-0.171 0.619 0s0.171 0.448 0 0.619l-2.625 2.625c-0.171 0.171-0.448 0.171-0.619 0s-0.171-0.448 0-0.619l2.625-2.625z"></path>
<path d="M7.128 10.372l-2.625-2.625c-0.171-0.171-0.171-0.448 0-0.619s0.448-0.171 0.619 0l2.625 2.625c0.171 0.171 0.171 0.448 0 0.619s-0.448 0.171-0.619 0z"></path>
</svg>
