<!-- Generated by IcoMoon.io -->
<svg version="1.1" xmlns="http://www.w3.org/2000/svg" width="16" height="16" viewBox="0 0 16 16">
<title>tag-authorize-16</title>
<path d="M6 5c0 0.552-0.448 1-1 1s-1-0.448-1-1c0-0.552 0.448-1 1-1s1 0.448 1 1z"></path>
<path d="M6.586 2l4.719 4.719 0.776-0.638-5.081-5.081h-5c-0.552 0-1 0.448-1 1v5l4.494 4.494 0.707-0.707-4.201-4.201v-4.586h4.586z"></path>
<path d="M16 9c0-0.552-0.448-1-1-1h-6c-0.552 0-1 0.448-1 1v6c0 0.552 0.448 1 1 1h6c0.552 0 1-0.448 1-1v-2h-1v2h-6v-6h7z"></path>
<path d="M15.175 10.12c0.21-0.18 0.525-0.155 0.705 0.054s0.155 0.525-0.054 0.705l-3.5 3c-0.228 0.195-0.575 0.147-0.741-0.102l-1-1.5c-0.153-0.23-0.091-0.54 0.139-0.693s0.54-0.091 0.693 0.139l0.687 1.030 3.072-2.633z"></path>
</svg>
