<?xml version="1.0" encoding="utf-8"?>
<!-- Generated by IcoMoon.io -->
<!DOCTYPE svg PUBLIC "-//W3C//DTD SVG 1.1//EN" "http://www.w3.org/Graphics/SVG/1.1/DTD/svg11.dtd">
<svg version="1.1" xmlns="http://www.w3.org/2000/svg" xmlns:xlink="http://www.w3.org/1999/xlink" width="37" height="32" viewBox="0 0 37 32">
<path d="M4.571 18.286h30.857c0.625 0 1.143 0.518 1.143 1.143v8h-4.571v-4.571h-27.429v4.571h-4.571v-21.714c0-0.625 0.518-1.143 1.143-1.143h2.286c0.625 0 1.143 0.518 1.143 1.143v12.571zM14.857 12.571c0-2.518-2.054-4.571-4.571-4.571s-4.571 2.054-4.571 4.571 2.054 4.571 4.571 4.571 4.571-2.054 4.571-4.571zM36.571 17.143v-1.143c0-3.786-3.071-6.857-6.857-6.857h-12.571c-0.625 0-1.143 0.518-1.143 1.143v6.857h20.571z"></path>
</svg>
