<?xml version="1.0" encoding="utf-8"?>
<!-- Generated by IcoMoon.io -->
<!DOCTYPE svg PUBLIC "-//W3C//DTD SVG 1.1//EN" "http://www.w3.org/Graphics/SVG/1.1/DTD/svg11.dtd">
<svg version="1.1" xmlns="http://www.w3.org/2000/svg" xmlns:xlink="http://www.w3.org/1999/xlink" width="41" height="32" viewBox="0 0 41 32">
<path d="M34.286 9.143v13.714h-29.714v-13.714h29.714zM36.571 19.429h2.286v-6.857h-2.286v-5.143c0-0.321-0.25-0.571-0.571-0.571h-33.143c-0.321 0-0.571 0.25-0.571 0.571v17.143c0 0.321 0.25 0.571 0.571 0.571h33.143c0.321 0 0.571-0.25 0.571-0.571v-5.143zM41.143 12.571v6.857c0 1.268-1.018 2.286-2.286 2.286v2.857c0 1.571-1.286 2.857-2.857 2.857h-33.143c-1.571 0-2.857-1.286-2.857-2.857v-17.143c0-1.571 1.286-2.857 2.857-2.857h33.143c1.571 0 2.857 1.286 2.857 2.857v2.857c1.268 0 2.286 1.018 2.286 2.286z"></path>
</svg>
