<!-- Generated by IcoMoon.io -->
<svg version="1.1" xmlns="http://www.w3.org/2000/svg" width="14" height="14" viewBox="0 0 14 14">
<title>task-16</title>
<path d="M5.688 1.75h7.875c0.242 0 0.438 0.196 0.438 0.438s-0.196 0.438-0.438 0.438h-7.875c-0.242 0-0.438-0.196-0.438-0.438s0.196-0.438 0.438-0.438z"></path>
<path d="M5.688 12.25h7.875c0.242 0 0.438 0.196 0.438 0.438s-0.196 0.438-0.438 0.438h-7.875c-0.242 0-0.438-0.196-0.438-0.438s0.196-0.438 0.438-0.438z"></path>
<path d="M5.688 7h7.875c0.242 0 0.438 0.196 0.438 0.438s-0.196 0.438-0.438 0.438h-7.875c-0.242 0-0.438-0.196-0.438-0.438s0.196-0.438 0.438-0.438z"></path>
<path d="M0.875 6.125v1.75h1.75v-1.75h-1.75zM0.875 5.25h1.75c0.483 0 0.875 0.392 0.875 0.875v1.75c0 0.483-0.392 0.875-0.875 0.875h-1.75c-0.483 0-0.875-0.392-0.875-0.875v-1.75c0-0.483 0.392-0.875 0.875-0.875z"></path>
<path d="M3.581 0.183c0.14-0.197 0.414-0.242 0.61-0.102s0.242 0.414 0.102 0.61l-2.188 3.063c-0.156 0.219-0.471 0.246-0.663 0.058l-1.323-1.302c-0.172-0.169-0.175-0.446-0.005-0.619s0.446-0.175 0.619-0.005l0.958 0.942 1.89-2.646z"></path>
<path d="M0.875 11.375v1.75h1.75v-1.75h-1.75zM0.875 10.5h1.75c0.483 0 0.875 0.392 0.875 0.875v1.75c0 0.483-0.392 0.875-0.875 0.875h-1.75c-0.483 0-0.875-0.392-0.875-0.875v-1.75c0-0.483 0.392-0.875 0.875-0.875z"></path>
</svg>
