<!-- Generated by IcoMoon.io -->
<svg version="1.1" xmlns="http://www.w3.org/2000/svg" width="14" height="14" viewBox="0 0 14 14">
<title>trend-16</title>
<path d="M12.688 5.25c0.242 0 0.438 0.196 0.438 0.438v7.875c0 0.242-0.196 0.438-0.438 0.438s-0.438-0.196-0.438-0.438v-7.875c0-0.242 0.196-0.438 0.438-0.438z"></path>
<path d="M2.188 9.625c0.242 0 0.438 0.196 0.438 0.438v3.5c0 0.242-0.196 0.438-0.438 0.438s-0.438-0.196-0.438-0.438v-3.5c0-0.242 0.196-0.438 0.438-0.438z"></path>
<path d="M5.688 7c0.242 0 0.438 0.196 0.438 0.438v6.125c0 0.242-0.196 0.438-0.438 0.438s-0.438-0.196-0.438-0.438v-6.125c0-0.242 0.196-0.438 0.438-0.438z"></path>
<path d="M9.188 7.875c0.242 0 0.438 0.196 0.438 0.438v5.25c0 0.242-0.196 0.438-0.438 0.438s-0.438-0.196-0.438-0.438v-5.25c0-0.242 0.196-0.438 0.438-0.438z"></path>
<path d="M12.688 0c0.242 0 0.438 0.196 0.438 0.438v2.625c0 0.242-0.196 0.438-0.438 0.438s-0.438-0.196-0.438-0.438v-2.625c0-0.242 0.196-0.438 0.438-0.438z"></path>
<path d="M10.063 0h2.625c0.242 0 0.438 0.196 0.438 0.438s-0.196 0.438-0.438 0.438h-2.625c-0.242 0-0.438-0.196-0.438-0.438s0.196-0.438 0.438-0.438z"></path>
<path d="M8.202 4.304l3.738-3.738c0.171-0.171 0.448-0.171 0.619 0s0.171 0.448 0 0.619l-3.938 3.938c-0.121 0.121-0.302 0.161-0.463 0.1l-3.253-1.22-3.74 3.325c-0.181 0.161-0.457 0.144-0.618-0.036s-0.144-0.457 0.036-0.618l3.938-3.5c0.121-0.108 0.292-0.14 0.444-0.083l3.236 1.214z"></path>
</svg>
