<!-- Generated by IcoMoon.io -->
<svg version="1.1" xmlns="http://www.w3.org/2000/svg" width="16" height="16" viewBox="0 0 16 16">
<title>speaker-16</title>
<path d="M4 5.211v3.561l6.969 4.099c0.105 0.062 0.225 0.094 0.347 0.094 0.378 0 0.684-0.306 0.684-0.684v-10.579c0-0.122-0.033-0.242-0.094-0.347-0.192-0.326-0.611-0.434-0.937-0.243l-6.969 4.099zM3 4.639l7.462-4.389c0.802-0.472 1.834-0.204 2.306 0.598 0.152 0.259 0.232 0.554 0.232 0.854v10.579c0 0.93-0.754 1.684-1.684 1.684-0.3 0-0.595-0.080-0.854-0.232l-7.462-4.389v-4.705z"></path>
<path d="M13.5 6h2c0.276 0 0.5 0.224 0.5 0.5s-0.224 0.5-0.5 0.5h-2c-0.276 0-0.5-0.224-0.5-0.5s0.224-0.5 0.5-0.5z"></path>
<path d="M14.061 9.354l1.414 1.414c0.195 0.195 0.195 0.512 0 0.707s-0.512 0.195-0.707 0l-1.414-1.414c-0.195-0.195-0.195-0.512 0-0.707s0.512-0.195 0.707 0z"></path>
<path d="M13.354 2.768l1.414-1.414c0.195-0.195 0.512-0.195 0.707 0s0.195 0.512 0 0.707l-1.414 1.414c-0.195 0.195-0.512 0.195-0.707 0s-0.195-0.512 0-0.707z"></path>
<path d="M3 9.406l-1-0.406v5.469c0 0.831 0.75 1.531 1.5 1.531s1.5-0.7 1.5-1.531v-4.25l-0.927-0.376c-0.047 0.116-0.073 0.243-0.073 0.376v4.25c0 0.255-0.278 0.531-0.5 0.531s-0.5-0.276-0.5-0.531v-5.063z"></path>
<path d="M1 5v4h2v-4h-2zM0.842 4h3.158v6h-3.158c-0.465 0-0.842-0.377-0.842-0.842v-4.316c0-0.465 0.377-0.842 0.842-0.842z"></path>
</svg>
