<?xml version="1.0" encoding="utf-8"?>
<!-- Generated by IcoMoon.io -->
<!DOCTYPE svg PUBLIC "-//W3C//DTD SVG 1.1//EN" "http://www.w3.org/Graphics/SVG/1.1/DTD/svg11.dtd">
<svg version="1.1" xmlns="http://www.w3.org/2000/svg" xmlns:xlink="http://www.w3.org/1999/xlink" width="37" height="32" viewBox="0 0 37 32">
<path d="M33 6.054h-9.125v2.214h9.125v-2.214zM28.5 13.661c-2.143 0-3.571 1.339-3.714 3.482h7.286c-0.196-2.161-1.321-3.482-3.571-3.482zM28.786 24.107c1.357 0 3.107-0.732 3.536-2.125h3.946c-1.214 3.732-3.732 5.482-7.625 5.482-5.143 0-8.339-3.482-8.339-8.554 0-4.893 3.375-8.625 8.339-8.625 5.107 0 7.929 4.018 7.929 8.839 0 0.286-0.018 0.571-0.036 0.839h-11.75c0 2.607 1.375 4.143 4 4.143zM4.946 23.214h5.286c2.018 0 3.661-0.714 3.661-2.982 0-2.304-1.375-3.214-3.554-3.214h-5.393v6.196zM4.946 13.625h5.018c1.768 0 3.018-0.768 3.018-2.679 0-2.071-1.607-2.571-3.393-2.571h-4.643v5.25zM0 4.536h10.607c3.857 0 7.196 1.089 7.196 5.571 0 2.268-1.054 3.732-3.071 4.696 2.768 0.786 4.107 2.875 4.107 5.696 0 4.571-3.839 6.536-7.929 6.536h-10.911v-22.5z"></path>
</svg>
