<!-- Generated by IcoMoon.io -->
<svg version="1.1" xmlns="http://www.w3.org/2000/svg" width="16" height="16" viewBox="0 0 16 16">
<title>tag-unauthorize-16</title>
<path d="M6 5c0 0.552-0.448 1-1 1s-1-0.448-1-1c0-0.552 0.448-1 1-1s1 0.448 1 1z"></path>
<path d="M6.586 2l3.735 3.735 0.707-0.707-4.028-4.028h-5c-0.552 0-1 0.448-1 1v5l4.494 4.494 0.652-0.762-4.146-4.146v-4.586h4.586z"></path>
<path d="M8.697 13.596l4.899-4.899c0.268 0.201 0.506 0.439 0.707 0.707l-4.899 4.899c-0.268-0.201-0.506-0.439-0.707-0.707z"></path>
<path d="M11.5 8c-1.933 0-3.5 1.567-3.5 3.5s1.567 3.5 3.5 3.5c1.933 0 3.5-1.567 3.5-3.5s-1.567-3.5-3.5-3.5zM11.5 7c2.485 0 4.5 2.015 4.5 4.5s-2.015 4.5-4.5 4.5c-2.485 0-4.5-2.015-4.5-4.5s2.015-4.5 4.5-4.5z"></path>
</svg>
