<?xml version="1.0" encoding="utf-8"?>
<!-- Generated by IcoMoon.io -->
<!DOCTYPE svg PUBLIC "-//W3C//DTD SVG 1.1//EN" "http://www.w3.org/Graphics/SVG/1.1/DTD/svg11.dtd">
<svg version="1.1" xmlns="http://www.w3.org/2000/svg" xmlns:xlink="http://www.w3.org/1999/xlink" width="24" height="32" viewBox="0 0 24 32">
<path d="M20.839 11.429c0.232 2.375-0.768 3.804-2.339 4.607 2.607 0.625 4.25 2.179 3.929 5.661-0.411 4.339-3.625 5.5-8.232 5.75v4.554h-2.75v-4.482c-0.696 0-1.429 0-2.179-0.018v4.5h-2.75v-4.554c-0.643 0-1.286-0.018-1.946-0.018h-3.571l0.554-3.268c2.018 0.036 1.982 0 1.982 0 0.768 0 0.982-0.554 1.036-0.911v-7.179h0.286c-0.107-0.018-0.214-0.018-0.286-0.018v-5.125c-0.107-0.571-0.464-1.214-1.589-1.214 0 0 0.036-0.036-1.982 0v-2.929l3.786 0.018c0.554 0 1.143 0 1.732-0.018v-4.5h2.75v4.411c0.732-0.018 1.464-0.036 2.179-0.036v-4.375h2.75v4.5c3.536 0.304 6.339 1.393 6.643 4.643zM17 21.161c0-3.536-5.821-3.018-7.679-3.018v6.036c1.857 0 7.679 0.393 7.679-3.018zM15.732 12.661c0-3.232-4.857-2.75-6.411-2.75v5.482c1.554 0 6.411 0.357 6.411-2.732z"></path>
</svg>
