<?xml version="1.0" encoding="utf-8"?>
<!-- Generated by IcoMoon.io -->
<!DOCTYPE svg PUBLIC "-//W3C//DTD SVG 1.1//EN" "http://www.w3.org/Graphics/SVG/1.1/DTD/svg11.dtd">
<svg version="1.1" xmlns="http://www.w3.org/2000/svg" xmlns:xlink="http://www.w3.org/1999/xlink" width="25" height="32" viewBox="0 0 25 32">
<path d="M9.911 27.161c0.786 0.339 1.643 0.571 2.5 0.571 4.071 0 6.714-1.625 6.714-5.982 0-1.107-0.143-2.268-0.732-3.214-1.661-2.679-4.054-2.821-6.929-2.821-0.536 0-1.304 0-1.804 0.179 0 1.893-0.018 3.786-0.018 5.661 0 1.232-0.161 4.571 0.268 5.607zM9.661 13.839c0.643 0.107 1.304 0.125 1.946 0.125 3.679 0 6.304-1.036 6.304-5.161 0-3.482-3.089-4.679-6.071-4.679-0.786 0-1.554 0.107-2.321 0.232 0 1.804 0.143 3.607 0.143 5.411 0 0.946-0.018 1.893-0.018 2.839 0 0.411 0 0.821 0.018 1.232zM0 29.714l0.036-1.679c1.143-0.286 2.304-0.304 3.411-0.768 0.625-1.054 0.536-2.911 0.536-4.107 0-0.393 0.036-17.464-0.393-18.304-0.268-0.518-2.893-0.643-3.482-0.714l-0.071-1.482c4.25-0.071 8.5-0.375 12.732-0.375 0.804 0 1.625 0.018 2.429 0.018 4.036 0 8.482 1.929 8.482 6.571 0 3.196-2.429 4.393-4.946 5.536 3.393 0.768 6.411 3.071 6.411 6.821 0 6.143-5.589 8.179-10.821 8.179-1.571 0-3.143-0.107-4.714-0.107-3.196 0-6.429 0.286-9.607 0.411z"></path>
</svg>
