<?xml version="1.0" encoding="utf-8"?>
<!-- Generated by IcoMoon.io -->
<!DOCTYPE svg PUBLIC "-//W3C//DTD SVG 1.1//EN" "http://www.w3.org/Graphics/SVG/1.1/DTD/svg11.dtd">
<svg version="1.1" xmlns="http://www.w3.org/2000/svg" xmlns:xlink="http://www.w3.org/1999/xlink" width="32" height="32" viewBox="0 0 32 32">
<path d="M30.503 5.559h-29.010c-0.825 0-1.493 0.667-1.493 1.493v17.897c0 0.823 0.667 1.493 1.493 1.493h29.017c0.825 0 1.493-0.667 1.493-1.493v-17.897c-0.002-0.825-0.67-1.493-1.499-1.493zM26.032 23.691c0 0.409-0.336 0.745-0.745 0.745h-22.537c-0.411 0-0.745-0.336-0.745-0.745v-15.381c0-0.414 0.331-0.745 0.745-0.745h22.537c0.409 0 0.745 0.331 0.745 0.745v15.381z"></path>
<path d="M10.747 12.754c-0.754-0.779-1.762-1.17-3.022-1.17-0.697 0-1.31 0.112-1.84 0.336-0.4 0.169-0.768 0.425-1.104 0.773-0.334 0.343-0.599 0.736-0.793 1.173-0.258 0.59-0.391 1.319-0.391 2.187 0 1.362 0.375 2.427 1.125 3.202 0.747 0.777 1.758 1.163 3.026 1.163 1.255 0 2.256-0.391 3.008-1.168s1.125-1.858 1.125-3.237c0-1.39-0.379-2.478-1.134-3.259zM7.744 18.446c-0.542 0-0.976-0.19-1.33-0.583-0.357-0.405-0.537-1.031-0.537-1.865 0-0.853 0.178-1.481 0.526-1.874 0.336-0.377 0.777-0.562 1.344-0.562s1.003 0.181 1.337 0.551c0.343 0.384 0.517 1.010 0.517 1.858-0.002 0.862-0.183 1.499-0.537 1.895-0.347 0.391-0.777 0.581-1.319 0.581z"></path>
<path d="M12.958 20.272h2.041v-3.248h3.248v-1.826h-3.248v-1.637h3.289v-1.833h-5.33z"></path>
<path d="M19.239 20.272h2.034v-3.248h3.257v-1.826h-3.257v-1.637h3.278v-1.833h-5.312z"></path>
</svg>
