<?xml version="1.0" encoding="utf-8"?>
<!-- Generated by IcoMoon.io -->
<!DOCTYPE svg PUBLIC "-//W3C//DTD SVG 1.1//EN" "http://www.w3.org/Graphics/SVG/1.1/DTD/svg11.dtd">
<svg version="1.1" xmlns="http://www.w3.org/2000/svg" xmlns:xlink="http://www.w3.org/1999/xlink" width="32" height="32" viewBox="0 0 32 32">
<path d="M30.51 5.559h-29.019c-0.823 0-1.493 0.667-1.493 1.49v17.899c0 0.823 0.67 1.49 1.493 1.49h29.024c0.818 0 1.488-0.667 1.488-1.49v-17.899c-0.002-0.823-0.677-1.49-1.493-1.49zM30 23.696c0 0.409-0.336 0.745-0.743 0.745h-22.546c-0.409 0-0.745-0.336-0.745-0.745v-15.392c0-0.411 0.336-0.745 0.745-0.745h22.544c0.407 0.002 0.743 0.334 0.743 0.747v15.39z"></path>
<path d="M16.741 12.757c-0.322-0.334-0.699-0.581-1.113-0.77-0.555-0.258-1.186-0.402-1.909-0.402-0.697 0-1.307 0.11-1.842 0.338-0.4 0.165-0.77 0.423-1.102 0.773-0.334 0.343-0.599 0.734-0.793 1.168-0.265 0.59-0.393 1.319-0.393 2.19 0 1.36 0.375 2.425 1.127 3.2 0.75 0.777 1.76 1.161 3.031 1.161 1.255 0 2.256-0.386 3.006-1.168 0.672-0.697 1.024-1.646 1.097-2.821 0.007-0.137 0.030-0.267 0.030-0.414-0.002-1.387-0.382-2.475-1.138-3.255zM13.737 18.441c-0.304 0-0.585-0.087-0.889-0.267-0.199-0.117-0.341-0.197-0.446-0.315-0.359-0.398-0.542-1.024-0.542-1.865 0-0.853 0.176-1.479 0.523-1.87 0.338-0.379 0.777-0.567 1.346-0.567 0.263 0 0.505 0.043 0.738 0.135l0.064 0.025h0.005c0.037 0.023 0.521 0.377 0.535 0.393 0.345 0.382 0.517 1.010 0.517 1.861 0.002 0.862-0.178 1.502-0.533 1.899-0.345 0.384-0.777 0.571-1.319 0.571z"></path>
<path d="M24.414 17.095l-3.259-5.365h-1.915v8.544h1.915v-5.275l3.127 5.275h2.030v-8.544h-1.897z"></path>
</svg>
