<?xml version="1.0" encoding="utf-8"?>
<!-- Generated by IcoMoon.io -->
<!DOCTYPE svg PUBLIC "-//W3C//DTD SVG 1.1//EN" "http://www.w3.org/Graphics/SVG/1.1/DTD/svg11.dtd">
<svg version="1.1" xmlns="http://www.w3.org/2000/svg" xmlns:xlink="http://www.w3.org/1999/xlink" width="41" height="32" viewBox="0 0 41 32">
<path d="M2.125 12.179h1.589l-0.804-1.929zM13.214 21.571l1.321-1.411-1.25-1.411h-2.911v0.875h2.536v0.982h-2.536v0.964h2.839zM16.036 20.179l1.768 1.964v-3.875zM21.179 19.339c0-0.429-0.321-0.589-0.714-0.589h-1.5v1.232h1.482c0.411 0 0.732-0.196 0.732-0.643zM26.339 19.268c0-0.446-0.393-0.518-0.75-0.518h-1.464v1.089h1.446c0.393 0 0.768-0.089 0.768-0.571zM21.375 10.946c0-0.446-0.393-0.518-0.75-0.518h-1.464v1.071h1.446c0.393 0 0.768-0.089 0.768-0.554zM29.571 12.179h1.589l-0.786-1.929zM12.482 9.411v4.839h-1.179v-3.786l-1.679 3.786h-1.018l-1.679-3.786v3.786h-2.357l-0.446-1.071h-2.411l-0.446 1.071h-1.25l2.071-4.839h1.714l1.964 4.589v-4.589h1.893l1.518 3.286 1.375-3.286h1.929zM22.411 19.339c0 1.946-2.125 1.625-3.446 1.625v1.625h-2.25l-1.429-1.607-1.482 1.607h-4.571v-4.839h4.643l1.429 1.589 1.464-1.589h3.696c1.089 0 1.946 0.375 1.946 1.589zM17.214 13.25v1h-3.875v-4.839h3.875v1.018h-2.714v0.875h2.643v0.982h-2.643v0.964h2.714zM41.143 23.232v4.089c0 1.304-1.054 2.393-2.357 2.393h-36.429c-1.304 0-2.357-1.089-2.357-2.393v-12.107h1.982l0.446-1.089h0.982l0.446 1.089h3.893v-0.821l0.339 0.821h2.018l0.357-0.839v0.839h9.661v-1.768l0.179-0.018c0.161 0 0.179 0.125 0.179 0.25v1.536h4.982v-0.411c1.161 0.607 2.75 0.411 3.964 0.411l0.446-1.089h1l0.446 1.089h4.054v-1.036l0.607 1.036h3.25v-6.75h-3.214v0.786l-0.446-0.786h-3.304v0.786l-0.411-0.786h-4.446c-0.661 0-1.357 0.071-1.946 0.393v-0.393h-3.071v0.393c-0.357-0.321-0.839-0.393-1.304-0.393h-11.214l-0.768 1.732-0.768-1.732h-3.536v0.786l-0.393-0.786h-3.018l-1.393 3.196v-6.982c0-1.304 1.054-2.393 2.357-2.393h36.429c1.304 0 2.357 1.089 2.357 2.393v12.107h-2.143c-0.5 0-1.036 0.089-1.446 0.393v-0.393h-3.161c-0.446 0-1.054 0.071-1.393 0.393v-0.393h-5.643v0.393c-0.429-0.304-1.054-0.393-1.554-0.393h-3.732v0.393c-0.375-0.357-1.143-0.393-1.625-0.393h-4.179l-0.964 1.036-0.893-1.036h-6.232v6.75h6.125l0.982-1.054 0.929 1.054h3.768v-1.589h0.375c0.536 0 1.089-0.018 1.607-0.232v1.821h3.107v-1.768h0.143c0.179 0 0.214 0.018 0.214 0.214v1.554h9.446c0.518 0 1.161-0.107 1.571-0.429v0.429h3c0.571 0 1.179-0.054 1.696-0.304zM27.607 19.054c0 0.536-0.286 1.071-0.821 1.286 0.643 0.232 0.768 0.661 0.768 1.286v0.964h-1.161v-0.804c0-0.821-0.268-0.964-1.036-0.964h-1.232v1.768h-1.161v-4.839h2.75c0.911 0 1.893 0.161 1.893 1.304zM22.661 10.714c0 0.554-0.304 1.089-0.821 1.304 0.661 0.232 0.768 0.643 0.768 1.286v0.946h-1.161c-0.018-1.036 0.25-1.75-1.036-1.75h-1.25v1.75h-1.143v-4.839l2.732 0.018c0.929 0 1.911 0.143 1.911 1.286zM32.107 21.589v1h-3.857v-4.839h3.857v1h-2.696v0.875h2.643v0.982h-2.643v0.964zM24.5 9.411v4.839h-1.179v-4.839h1.179zM36.875 21.054c0 1.143-0.786 1.536-1.821 1.536h-2.25v-1.036h2.25c0.286 0 0.607-0.071 0.607-0.446 0-1.036-2.982 0.393-2.982-1.911 0-0.982 0.75-1.446 1.643-1.446h2.321v1.018h-2.125c-0.304 0-0.643 0.054-0.643 0.446 0 1.054 3-0.482 3 1.839zM41.143 20.161v1.804c-0.339 0.5-1 0.625-1.571 0.625h-2.232v-1.036h2.232c0.286 0 0.589-0.089 0.589-0.446 0-1.018-2.982 0.393-2.982-1.911 0-0.982 0.768-1.446 1.661-1.446h2.304v1.018h-2.107c-0.321 0-0.643 0.054-0.643 0.446 0 0.857 2.018-0.018 2.75 0.946zM38.196 9.429v4.821h-1.643l-2.179-3.625v3.625h-2.357l-0.464-1.071h-2.393l-0.446 1.071h-1.339c-1.589 0-2.304-0.821-2.304-2.375 0-1.625 0.732-2.464 2.375-2.464h1.125v1.054c-1.214-0.018-2.321-0.286-2.321 1.375 0 0.821 0.196 1.393 1.125 1.393h0.518l1.643-3.804h1.732l1.946 4.571v-4.571h1.768l2.036 3.357v-3.357h1.179z"></path>
</svg>
