<?xml version="1.0" encoding="utf-8"?>
<!-- Generated by IcoMoon.io -->
<!DOCTYPE svg PUBLIC "-//W3C//DTD SVG 1.1//EN" "http://www.w3.org/Graphics/SVG/1.1/DTD/svg11.dtd">
<svg version="1.1" xmlns="http://www.w3.org/2000/svg" xmlns:xlink="http://www.w3.org/1999/xlink" width="27" height="32" viewBox="0 0 27 32">
<path d="M20.911 14.518l-7.536 7.536c-0.446 0.446-1.161 0.446-1.607 0l-5.25-5.25c-0.446-0.446-0.446-1.161 0-1.607l1.821-1.821c0.446-0.446 1.161-0.446 1.607 0l2.625 2.625 4.911-4.911c0.446-0.446 1.161-0.446 1.607 0l1.821 1.821c0.446 0.446 0.446 1.161 0 1.607zM23.429 16c0-5.357-4.357-9.714-9.714-9.714s-9.714 4.357-9.714 9.714 4.357 9.714 9.714 9.714 9.714-4.357 9.714-9.714zM27.429 16c0 7.571-6.143 13.714-13.714 13.714s-13.714-6.143-13.714-13.714 6.143-13.714 13.714-13.714 13.714 6.143 13.714 13.714z"></path>
</svg>
