<?xml version="1.0" encoding="utf-8"?>
<!-- Generated by IcoMoon.io -->
<!DOCTYPE svg PUBLIC "-//W3C//DTD SVG 1.1//EN" "http://www.w3.org/Graphics/SVG/1.1/DTD/svg11.dtd">
<svg version="1.1" xmlns="http://www.w3.org/2000/svg" xmlns:xlink="http://www.w3.org/1999/xlink" width="34" height="32" viewBox="0 0 34 32">
<path d="M15.946 0c2.732-0.018 5.518 0.679 8.054 2.143 2.804 1.625 4.929 3.964 6.286 6.643l-13.25-0.696c-3.75-0.214-7.321 1.893-8.554 5.429l-4.929-7.571c3.071-3.821 7.679-5.929 12.393-5.946zM2.607 7.232l6.018 11.839c1.696 3.339 5.286 5.375 9 4.679l-4.107 8.054c-7.661-1.179-13.518-7.804-13.518-15.804 0-3.232 0.964-6.25 2.607-8.768zM30.929 10.25c2.804 7.214 0 15.607-6.929 19.607-2.804 1.625-5.893 2.286-8.893 2.125l7.232-11.125c2.054-3.161 2.018-7.286-0.429-10.143zM16 10.607c2.982 0 5.393 2.411 5.393 5.393s-2.411 5.393-5.393 5.393-5.393-2.411-5.393-5.393 2.411-5.393 5.393-5.393z"></path>
</svg>
