<?xml version="1.0" encoding="utf-8"?>
<!-- Generated by IcoMoon.io -->
<!DOCTYPE svg PUBLIC "-//W3C//DTD SVG 1.1//EN" "http://www.w3.org/Graphics/SVG/1.1/DTD/svg11.dtd">
<svg version="1.1" xmlns="http://www.w3.org/2000/svg" xmlns:xlink="http://www.w3.org/1999/xlink" width="27" height="32" viewBox="0 0 27 32">
<path d="M12.232 23.196l10.964-10.964c0.446-0.446 0.446-1.161 0-1.607l-1.821-1.821c-0.446-0.446-1.161-0.446-1.607 0l-8.339 8.339-3.768-3.768c-0.446-0.446-1.161-0.446-1.607 0l-1.821 1.821c-0.446 0.446-0.446 1.161 0 1.607l6.393 6.393c0.446 0.446 1.161 0.446 1.607 0zM27.429 7.429v17.143c0 2.839-2.304 5.143-5.143 5.143h-17.143c-2.839 0-5.143-2.304-5.143-5.143v-17.143c0-2.839 2.304-5.143 5.143-5.143h17.143c2.839 0 5.143 2.304 5.143 5.143z"></path>
</svg>
