<?xml version="1.0" encoding="utf-8"?>
<!-- Generated by IcoMoon.io -->
<!DOCTYPE svg PUBLIC "-//W3C//DTD SVG 1.1//EN" "http://www.w3.org/Graphics/SVG/1.1/DTD/svg11.dtd">
<svg version="1.1" xmlns="http://www.w3.org/2000/svg" xmlns:xlink="http://www.w3.org/1999/xlink" width="18" height="32" viewBox="0 0 18 32">
<path d="M10.768 27.429h-3.071c-0.321 0-0.571-0.25-0.571-0.571v-5.893h-5.143c-0.321 0-0.571-0.25-0.571-0.571v-1.839c0-0.321 0.25-0.571 0.571-0.571h5.143v-1.518h-5.143c-0.321 0-0.571-0.25-0.571-0.571v-1.857c0-0.304 0.25-0.571 0.571-0.571h3.821l-5.732-10.321c-0.089-0.179-0.089-0.393 0-0.571 0.107-0.179 0.304-0.286 0.5-0.286h3.464c0.214 0 0.411 0.125 0.518 0.321l3.839 7.589c0.429 0.839 0.714 1.554 1 2.232 0.304-0.768 0.696-1.518 1.036-2.304l3.411-7.5c0.089-0.214 0.304-0.339 0.518-0.339h3.411c0.196 0 0.375 0.107 0.482 0.286 0.107 0.161 0.107 0.375 0.018 0.554l-5.589 10.339h3.839c0.321 0 0.571 0.268 0.571 0.571v1.857c0 0.321-0.25 0.571-0.571 0.571h-5.179v1.518h5.179c0.321 0 0.571 0.25 0.571 0.571v1.839c0 0.321-0.25 0.571-0.571 0.571h-5.179v5.893c0 0.321-0.268 0.571-0.571 0.571z"></path>
</svg>
