<?xml version="1.0" encoding="utf-8"?>
<!-- Generated by IcoMoon.io -->
<!DOCTYPE svg PUBLIC "-//W3C//DTD SVG 1.1//EN" "http://www.w3.org/Graphics/SVG/1.1/DTD/svg11.dtd">
<svg version="1.1" xmlns="http://www.w3.org/2000/svg" xmlns:xlink="http://www.w3.org/1999/xlink" width="32" height="32" viewBox="0 0 32 32">
<path d="M31.566 29.417l-2.149 2.149c-0.29 0.29-0.647 0.437-1.074 0.437-0.425-0.002-0.784-0.146-1.074-0.439l-11.269-11.269-11.271 11.266c-0.29 0.295-0.649 0.437-1.074 0.437-0.425 0.002-0.782-0.142-1.072-0.434l-2.149-2.149c-0.29-0.288-0.437-0.649-0.434-1.072 0-0.425 0.142-0.784 0.434-1.079l11.266-11.266-11.264-11.271c-0.29-0.286-0.437-0.645-0.437-1.070s0.146-0.784 0.437-1.074l2.149-2.149c0.29-0.29 0.649-0.437 1.077-0.437s0.784 0.146 1.074 0.434l11.271 11.271 11.266-11.271c0.29-0.288 0.649-0.434 1.074-0.434s0.784 0.146 1.074 0.437l2.149 2.149c0.283 0.29 0.43 0.649 0.43 1.074s-0.146 0.784-0.437 1.070l-11.266 11.271 11.266 11.266c0.29 0.295 0.437 0.647 0.437 1.079 0.002 0.425-0.144 0.784-0.434 1.074z"></path>
</svg>
