<?xml version="1.0" encoding="utf-8"?>
<!-- Generated by IcoMoon.io -->
<!DOCTYPE svg PUBLIC "-//W3C//DTD SVG 1.1//EN" "http://www.w3.org/Graphics/SVG/1.1/DTD/svg11.dtd">
<svg version="1.1" xmlns="http://www.w3.org/2000/svg" xmlns:xlink="http://www.w3.org/1999/xlink" width="27" height="32" viewBox="0 0 27 32">
<path d="M20.536 19.179v1.946c0 2.518-4.018 3.446-6.536 3.446-4.893 0-8.571-3.732-8.571-8.661 0-4.839 3.643-8.482 8.482-8.482 1.768 0 6.393 0.625 6.393 3.464v1.946c0 0.161-0.125 0.286-0.286 0.286h-2.107c-0.161 0-0.286-0.125-0.286-0.286v-1.25c0-1.125-2.161-1.643-3.625-1.643-3.339 0-5.661 2.411-5.661 5.875 0 3.589 2.429 6.214 5.804 6.214 1.286 0 3.714-0.482 3.714-1.607v-1.25c0-0.161 0.125-0.286 0.268-0.286h2.125c0.143 0 0.286 0.125 0.286 0.286zM13.714 4.571c-6.304 0-11.429 5.125-11.429 11.429s5.125 11.429 11.429 11.429 11.429-5.125 11.429-11.429-5.125-11.429-11.429-11.429zM27.429 16c0 7.571-6.143 13.714-13.714 13.714s-13.714-6.143-13.714-13.714 6.143-13.714 13.714-13.714v0c7.571 0 13.714 6.143 13.714 13.714z"></path>
</svg>
