<?xml version="1.0" encoding="utf-8"?>
<!-- Generated by IcoMoon.io -->
<!DOCTYPE svg PUBLIC "-//W3C//DTD SVG 1.1//EN" "http://www.w3.org/Graphics/SVG/1.1/DTD/svg11.dtd">
<svg version="1.1" xmlns="http://www.w3.org/2000/svg" xmlns:xlink="http://www.w3.org/1999/xlink" width="32" height="32" viewBox="0 0 32 32">
<path d="M32 10.434c0-5.707-4.645-10.352-10.352-10.352-3.001 0-5.806 1.319-7.787 3.616-7.666 0.137-13.861 6.405-13.861 14.103 0 7.785 6.334 14.119 14.117 14.119 7.559 0 13.776-6.034 14.085-13.538 2.414-1.984 3.799-4.85 3.799-7.947zM21.648 1.963c4.672 0 8.471 3.799 8.471 8.471 0 2.023-0.72 3.929-2.014 5.445-0.85-6.117-5.669-11.033-11.758-12.011 1.495-1.225 3.351-1.904 5.301-1.904zM14.117 30.037c-6.747 0-12.235-5.488-12.235-12.235 0-6.149 4.558-11.253 10.59-12.103-0.773 1.467-1.177 3.077-1.177 4.736 0 5.707 4.645 10.352 10.352 10.352 1.586 0 3.131-0.37 4.551-1.081-0.919 5.838-6.005 10.331-12.080 10.331z"></path>
</svg>
