<?xml version="1.0" encoding="utf-8"?>
<!-- Generated by IcoMoon.io -->
<!DOCTYPE svg PUBLIC "-//W3C//DTD SVG 1.1//EN" "http://www.w3.org/Graphics/SVG/1.1/DTD/svg11.dtd">
<svg version="1.1" xmlns="http://www.w3.org/2000/svg" xmlns:xlink="http://www.w3.org/1999/xlink" width="32" height="32" viewBox="0 0 32 32">
<path d="M30.286 6.857c0.946 0 1.714 0.768 1.714 1.714v21.714c0 0.946-0.768 1.714-1.714 1.714h-17.143c-0.946 0-1.714-0.768-1.714-1.714v-5.143h-9.714c-0.946 0-1.714-0.768-1.714-1.714v-12c0-0.946 0.554-2.268 1.214-2.929l7.286-7.286c0.661-0.661 1.982-1.214 2.929-1.214h7.429c0.946 0 1.714 0.768 1.714 1.714v5.857c0.696-0.411 1.589-0.714 2.286-0.714h7.429zM20.571 10.661l-5.339 5.339h5.339v-5.339zM9.143 3.804l-5.339 5.339h5.339v-5.339zM12.643 15.357l5.643-5.643v-7.429h-6.857v7.429c0 0.946-0.768 1.714-1.714 1.714h-7.429v11.429h9.143v-4.571c0-0.946 0.554-2.268 1.214-2.929zM29.714 29.714v-20.571h-6.857v7.429c0 0.946-0.768 1.714-1.714 1.714h-7.429v11.429h16z"></path>
</svg>
