<?xml version="1.0" encoding="utf-8"?>
<!-- Generated by IcoMoon.io -->
<!DOCTYPE svg PUBLIC "-//W3C//DTD SVG 1.1//EN" "http://www.w3.org/Graphics/SVG/1.1/DTD/svg11.dtd">
<svg version="1.1" xmlns="http://www.w3.org/2000/svg" xmlns:xlink="http://www.w3.org/1999/xlink" width="32" height="32" viewBox="0 0 32 32">
<path d="M10.804 22.018c2.929 0 4.518-1.786 4.589-1.857 0.143-0.179 0.179-0.446 0.054-0.643l-0.804-1.464c-0.071-0.161-0.25-0.268-0.429-0.304-0.179-0.018-0.357 0.054-0.482 0.196-0.018 0-1.143 1.196-2.786 1.196-1.804 0-3.107-1.321-3.107-3.161 0-1.821 1.268-3.125 3.036-3.125 1.482 0 2.464 1 2.464 1 0.125 0.125 0.286 0.196 0.464 0.179s0.339-0.107 0.429-0.25l0.946-1.393c0.143-0.214 0.125-0.5-0.036-0.696-0.054-0.071-1.5-1.714-4.339-1.714-3.518 0-6.143 2.589-6.143 6.018 0 3.482 2.571 6.018 6.143 6.018zM22.054 22.018c2.946 0 4.518-1.786 4.589-1.857 0.143-0.179 0.179-0.446 0.071-0.643l-0.804-1.464c-0.089-0.161-0.25-0.268-0.446-0.304-0.179-0.018-0.357 0.054-0.482 0.196-0.018 0-1.143 1.196-2.786 1.196-1.804 0-3.107-1.321-3.107-3.161 0-1.821 1.268-3.125 3.036-3.125 1.5 0 2.464 1 2.464 1 0.125 0.125 0.286 0.196 0.464 0.179s0.339-0.107 0.429-0.25l0.946-1.393c0.143-0.214 0.125-0.5-0.036-0.696-0.054-0.071-1.5-1.714-4.339-1.714-3.5 0-6.143 2.589-6.143 6.018 0 3.482 2.571 6.018 6.143 6.018zM16 2.857c-7.25 0-13.143 5.893-13.143 13.143s5.893 13.143 13.143 13.143 13.143-5.893 13.143-13.143-5.893-13.143-13.143-13.143zM16 0c8.839 0 16 7.161 16 16s-7.161 16-16 16-16-7.161-16-16 7.161-16 16-16z"></path>
</svg>
