<?xml version="1.0" encoding="utf-8"?>
<!-- Generated by IcoMoon.io -->
<!DOCTYPE svg PUBLIC "-//W3C//DTD SVG 1.1//EN" "http://www.w3.org/Graphics/SVG/1.1/DTD/svg11.dtd">
<svg version="1.1" xmlns="http://www.w3.org/2000/svg" xmlns:xlink="http://www.w3.org/1999/xlink" width="32" height="32" viewBox="0 0 32 32">
<path d="M11.979 30.306c0 0.994 0.814 1.81 1.81 1.81h4.425c0.994 0 1.81-0.814 1.81-1.81v-28.613c0-0.994-0.814-1.81-1.81-1.81h-4.427c-0.994 0-1.81 0.814-1.81 1.81v28.613z"></path>
<path d="M1.81 20.055c-0.997 0-1.81-0.814-1.81-1.81v-4.489c0-0.994 0.814-1.81 1.81-1.81h28.382c0.994 0 1.808 0.814 1.808 1.81v4.491c0 0.994-0.814 1.81-1.81 1.81h-28.379z"></path>
</svg>
