<?xml version="1.0" encoding="utf-8"?>
<!-- Generated by IcoMoon.io -->
<!DOCTYPE svg PUBLIC "-//W3C//DTD SVG 1.1//EN" "http://www.w3.org/Graphics/SVG/1.1/DTD/svg11.dtd">
<svg version="1.1" xmlns="http://www.w3.org/2000/svg" xmlns:xlink="http://www.w3.org/1999/xlink" width="32" height="32" viewBox="0 0 32 32">
<path d="M24.617 26.503c0-0.315-0.121-0.594-0.368-0.823-0.242-0.233-0.533-0.345-0.866-0.345-0.331 0-0.622 0.121-0.866 0.345-0.242 0.231-0.368 0.503-0.368 0.823 0 0.315 0.126 0.59 0.368 0.821s0.533 0.345 0.866 0.345c0.331 0.005 0.622-0.117 0.866-0.345 0.247-0.229 0.368-0.505 0.368-0.821zM29.543 26.503c0-0.315-0.121-0.594-0.368-0.823-0.242-0.233-0.528-0.345-0.866-0.345-0.331 0-0.622 0.121-0.866 0.345-0.247 0.231-0.368 0.503-0.368 0.823 0 0.315 0.121 0.59 0.368 0.821 0.242 0.231 0.533 0.345 0.866 0.345 0.336 0.005 0.622-0.117 0.866-0.345 0.242-0.229 0.368-0.505 0.368-0.821zM32 22.418v5.833c0 0.487-0.181 0.903-0.539 1.241-0.361 0.341-0.793 0.507-1.305 0.507h-28.309c-0.512 0-0.949-0.167-1.305-0.507s-0.542-0.757-0.542-1.243v-5.833c0-0.487 0.181-0.898 0.539-1.239 0.361-0.341 0.791-0.512 1.305-0.512h8.944l2.601 2.482c0.741 0.681 1.616 1.019 2.615 1.019 1.001 0 1.874-0.338 2.617-1.019l2.615-2.482h8.928c0.512 0 0.949 0.169 1.305 0.512 0.354 0.345 0.53 0.754 0.53 1.241v0zM25.751 12.043c0.217 0.503 0.128 0.926-0.27 1.278l-8.615 8.167c-0.229 0.231-0.519 0.347-0.866 0.347-0.345 0-0.631-0.121-0.866-0.35l-8.615-8.167c-0.398-0.35-0.487-0.775-0.27-1.275 0.217-0.471 0.599-0.709 1.134-0.709h4.921v-8.169c0-0.313 0.123-0.587 0.368-0.823 0.242-0.231 0.53-0.343 0.864-0.343h4.921c0.331 0 0.622 0.117 0.866 0.345 0.247 0.233 0.368 0.505 0.368 0.823v8.169h4.921c0.539-0.002 0.919 0.235 1.138 0.706v0z"></path>
</svg>
