<?xml version="1.0" encoding="utf-8"?>
<!-- Generated by IcoMoon.io -->
<!DOCTYPE svg PUBLIC "-//W3C//DTD SVG 1.1//EN" "http://www.w3.org/Graphics/SVG/1.1/DTD/svg11.dtd">
<svg version="1.1" xmlns="http://www.w3.org/2000/svg" xmlns:xlink="http://www.w3.org/1999/xlink" width="32" height="32" viewBox="0 0 32 32">
<path d="M6.857 9.714v10.286c0 0.304-0.268 0.571-0.571 0.571-0.143 0-0.304-0.054-0.411-0.161l-5.143-5.143c-0.107-0.107-0.161-0.268-0.161-0.411s0.054-0.304 0.161-0.411l5.143-5.143c0.107-0.107 0.268-0.161 0.411-0.161 0.304 0 0.571 0.268 0.571 0.571zM32 23.429v3.429c0 0.304-0.268 0.571-0.571 0.571h-30.857c-0.304 0-0.571-0.268-0.571-0.571v-3.429c0-0.304 0.268-0.571 0.571-0.571h30.857c0.304 0 0.571 0.268 0.571 0.571zM32 16.571v3.429c0 0.304-0.268 0.571-0.571 0.571h-19.429c-0.304 0-0.571-0.268-0.571-0.571v-3.429c0-0.304 0.268-0.571 0.571-0.571h19.429c0.304 0 0.571 0.268 0.571 0.571zM32 9.714v3.429c0 0.304-0.268 0.571-0.571 0.571h-19.429c-0.304 0-0.571-0.268-0.571-0.571v-3.429c0-0.304 0.268-0.571 0.571-0.571h19.429c0.304 0 0.571 0.268 0.571 0.571zM32 2.857v3.429c0 0.304-0.268 0.571-0.571 0.571h-30.857c-0.304 0-0.571-0.268-0.571-0.571v-3.429c0-0.304 0.268-0.571 0.571-0.571h30.857c0.304 0 0.571 0.268 0.571 0.571z"></path>
</svg>
