<?xml version="1.0" encoding="utf-8"?>
<!-- Generated by IcoMoon.io -->
<!DOCTYPE svg PUBLIC "-//W3C//DTD SVG 1.1//EN" "http://www.w3.org/Graphics/SVG/1.1/DTD/svg11.dtd">
<svg version="1.1" xmlns="http://www.w3.org/2000/svg" xmlns:xlink="http://www.w3.org/1999/xlink" width="32" height="32" viewBox="0 0 32 32">
<path d="M32 7.666c0 0.747-0.263 1.381-0.784 1.902l-3.506 3.506-8.786-8.789 3.506-3.486c0.51-0.535 1.141-0.8 1.899-0.8 0.743 0 1.385 0.267 1.922 0.802l4.965 4.944c0.523 0.546 0.782 1.189 0.784 1.92v0z"></path>
<path d="M17.573 5.641l-17.573 17.573v8.786h8.789l17.575-17.575-8.791-8.784zM7.808 29.634h-2.567v-2.875h-2.875v-2.565l15.207-15.207 2.174 2.176-13.323 13.321c-0.121 0.121-0.176 0.265-0.176 0.432 0 0.37 0.185 0.56 0.555 0.56 0.169 0 0.313-0.057 0.432-0.178l13.326-13.326 2.453 2.453-15.205 15.209z"></path>
</svg>
