<?xml version="1.0" encoding="utf-8"?>
<!-- Generated by IcoMoon.io -->
<!DOCTYPE svg PUBLIC "-//W3C//DTD SVG 1.1//EN" "http://www.w3.org/Graphics/SVG/1.1/DTD/svg11.dtd">
<svg version="1.1" xmlns="http://www.w3.org/2000/svg" xmlns:xlink="http://www.w3.org/1999/xlink" width="27" height="32" viewBox="0 0 27 32">
<path d="M22.857 16.571v-8.571c0-0.625-0.518-1.143-1.143-1.143h-8.571c-0.464 0-0.875 0.286-1.054 0.696-0.179 0.429-0.089 0.929 0.25 1.25l2.571 2.571-9.536 9.536c-0.446 0.446-0.446 1.161 0 1.607l1.821 1.821c0.446 0.446 1.161 0.446 1.607 0l9.536-9.536 2.571 2.571c0.214 0.232 0.5 0.339 0.804 0.339 0.143 0 0.304-0.036 0.446-0.089 0.411-0.179 0.696-0.589 0.696-1.054zM27.429 7.429v17.143c0 2.839-2.304 5.143-5.143 5.143h-17.143c-2.839 0-5.143-2.304-5.143-5.143v-17.143c0-2.839 2.304-5.143 5.143-5.143h17.143c2.839 0 5.143 2.304 5.143 5.143z"></path>
</svg>
