<?xml version="1.0" encoding="utf-8"?>
<!-- Generated by IcoMoon.io -->
<!DOCTYPE svg PUBLIC "-//W3C//DTD SVG 1.1//EN" "http://www.w3.org/Graphics/SVG/1.1/DTD/svg11.dtd">
<svg version="1.1" xmlns="http://www.w3.org/2000/svg" xmlns:xlink="http://www.w3.org/1999/xlink" width="32" height="32" viewBox="0 0 32 32">
<path d="M30.77 17.23c0 2-0.393 3.911-1.175 5.73s-1.833 3.39-3.154 4.711-2.891 2.373-4.713 3.157c-1.819 0.782-3.728 1.173-5.728 1.173s-3.911-0.391-5.73-1.173c-1.819-0.782-3.39-1.833-4.711-3.157-1.321-1.321-2.373-2.891-3.157-4.711-0.782-1.819-1.173-3.73-1.173-5.73 0-2.331 0.517-4.533 1.55-6.597 1.031-2.062 2.485-3.794 4.357-5.191 0.551-0.409 1.163-0.571 1.835-0.482s1.209 0.411 1.605 0.962c0.409 0.537 0.567 1.143 0.473 1.817s-0.411 1.216-0.951 1.625c-1.257 0.951-2.229 2.112-2.914 3.483s-1.029 2.832-1.029 4.384c0 1.335 0.258 2.606 0.777 3.817s1.223 2.261 2.105 3.143c0.885 0.885 1.931 1.586 3.143 2.105s2.485 0.779 3.817 0.779 2.606-0.261 3.817-0.779c1.211-0.519 2.263-1.223 3.145-2.105 0.887-0.885 1.586-1.931 2.105-3.145 0.519-1.211 0.777-2.485 0.777-3.817 0-1.552-0.343-3.015-1.029-4.384-0.683-1.371-1.655-2.533-2.912-3.481-0.537-0.409-0.857-0.953-0.953-1.625-0.096-0.674 0.059-1.28 0.473-1.817 0.398-0.551 0.937-0.873 1.616-0.962 0.681-0.089 1.289 0.071 1.826 0.482 1.87 1.397 3.323 3.129 4.357 5.193s1.55 4.263 1.55 6.594l-0.007 0.002v-0.002h0.007zM18.459 2.462v12.309c0 0.665-0.245 1.243-0.731 1.733-0.487 0.482-1.065 0.727-1.73 0.729-0.665 0-1.243-0.242-1.73-0.729-0.489-0.489-0.731-1.065-0.731-1.733v-12.309c0-0.667 0.245-1.243 0.731-1.73s1.063-0.731 1.73-0.731c0.667 0 1.243 0.242 1.73 0.731s0.731 1.065 0.731 1.73z"></path>
</svg>
