<?xml version="1.0" encoding="utf-8"?>
<!-- Generated by IcoMoon.io -->
<!DOCTYPE svg PUBLIC "-//W3C//DTD SVG 1.1//EN" "http://www.w3.org/Graphics/SVG/1.1/DTD/svg11.dtd">
<svg version="1.1" xmlns="http://www.w3.org/2000/svg" xmlns:xlink="http://www.w3.org/1999/xlink" width="27" height="32" viewBox="0 0 27 32">
<path d="M26.214 6.786c0.661 0.661 1.214 1.982 1.214 2.929v20.571c0 0.946-0.768 1.714-1.714 1.714h-24c-0.946 0-1.714-0.768-1.714-1.714v-28.571c0-0.946 0.768-1.714 1.714-1.714h16c0.946 0 2.268 0.554 2.929 1.214zM18.286 2.429v6.714h6.714c-0.107-0.304-0.268-0.607-0.393-0.732l-5.589-5.589c-0.125-0.125-0.429-0.286-0.732-0.393zM25.143 29.714v-18.286h-7.429c-0.946 0-1.714-0.768-1.714-1.714v-7.429h-13.714v27.429h22.857zM7.661 25.536v1.893h5.018v-1.893h-1.339l1.839-2.875c0.214-0.339 0.321-0.607 0.375-0.607h0.036c0.018 0.071 0.054 0.125 0.089 0.179 0.071 0.143 0.179 0.25 0.304 0.429l1.911 2.875h-1.357v1.893h5.196v-1.893h-1.214l-3.429-4.875 3.482-5.036h1.196v-1.911h-4.982v1.911h1.321l-1.839 2.839c-0.214 0.339-0.375 0.607-0.375 0.589h-0.036c-0.018-0.071-0.054-0.125-0.089-0.179-0.071-0.125-0.161-0.25-0.304-0.411l-1.893-2.839h1.357v-1.911h-5.179v1.911h1.214l3.375 4.857-3.464 5.054h-1.214z"></path>
</svg>
