<?xml version="1.0" encoding="utf-8"?>
<!-- Generated by IcoMoon.io -->
<!DOCTYPE svg PUBLIC "-//W3C//DTD SVG 1.1//EN" "http://www.w3.org/Graphics/SVG/1.1/DTD/svg11.dtd">
<svg version="1.1" xmlns="http://www.w3.org/2000/svg" xmlns:xlink="http://www.w3.org/1999/xlink" width="27" height="32" viewBox="0 0 27 32">
<path d="M23.607 16c0 0.464-0.018 0.911-0.089 1.357l-4.214-0.25 4 1.393c-0.232 0.911-0.589 1.75-1.036 2.518l-3.821-1.839 3.161 2.821c-0.536 0.732-1.179 1.375-1.911 1.929l-2.804-3.179 1.839 3.839c-0.768 0.464-1.607 0.804-2.5 1.054l-1.411-4.071 0.25 4.286c-0.446 0.071-0.893 0.107-1.357 0.107-0.446 0-0.911-0.036-1.357-0.107l0.25-4.25-1.393 4.036c-0.893-0.232-1.732-0.589-2.5-1.054l1.839-3.839-2.804 3.179c-0.732-0.536-1.375-1.196-1.929-1.929l3.179-2.821-3.821 1.857c-0.446-0.786-0.804-1.625-1.036-2.518l4-1.411-4.232 0.25c-0.054-0.446-0.089-0.893-0.089-1.357s0.036-0.929 0.089-1.375l4.25 0.25-4.018-1.411c0.232-0.893 0.589-1.732 1.036-2.5l3.821 1.857-3.161-2.839c0.554-0.732 1.196-1.375 1.911-1.929l2.821 3.179-1.839-3.839c0.768-0.446 1.607-0.804 2.5-1.036l1.375 4-0.232-4.214c0.429-0.071 0.893-0.107 1.339-0.107 0.464 0 0.911 0.036 1.357 0.107l-0.25 4.232 1.393-4.018c0.893 0.232 1.732 0.589 2.5 1.054l-1.839 3.821 2.821-3.179c0.714 0.554 1.357 1.196 1.911 1.929l-3.161 2.839 3.804-1.857c0.464 0.768 0.804 1.625 1.036 2.518l-4 1.393 4.232-0.25c0.071 0.446 0.089 0.911 0.089 1.375zM24.143 16c0-5.804-4.679-10.5-10.429-10.5-5.768 0-10.429 4.696-10.429 10.5 0 5.786 4.661 10.482 10.429 10.482 5.75 0 10.429-4.696 10.429-10.482zM25.446 9.161v13.679l-11.732 6.839-11.732-6.839v-13.679l11.732-6.839zM13.714 30.696l12.643-7.357v-14.696l-12.643-7.339-12.643 7.339v14.696zM27.429 8v16l-13.714 8-13.714-8v-16l13.714-8z"></path>
</svg>
