<?xml version="1.0" encoding="utf-8"?>
<!-- Generated by IcoMoon.io -->
<!DOCTYPE svg PUBLIC "-//W3C//DTD SVG 1.1//EN" "http://www.w3.org/Graphics/SVG/1.1/DTD/svg11.dtd">
<svg version="1.1" xmlns="http://www.w3.org/2000/svg" xmlns:xlink="http://www.w3.org/1999/xlink" width="25" height="32" viewBox="0 0 25 32">
<path d="M25.143 30.286v1.143c0 0.304-0.268 0.571-0.571 0.571h-24c-0.304 0-0.571-0.268-0.571-0.571v-1.143c0-0.304 0.268-0.571 0.571-0.571h24c0.304 0 0.571 0.268 0.571 0.571zM20.571 11.429c0 6.839-8 7.446-8 12 0 1.25 0.625 2.911 1.196 4l-0.071-0.018 0.018 0.018c-4.929-2.268-9.143-5.393-9.143-11.429 0-6.839 8-7.446 8-12 0-1.25-0.625-2.911-1.179-4l0.054 0.018-0.018-0.018c4.929 2.268 9.143 5.393 9.143 11.429z"></path>
</svg>
