<?xml version="1.0" encoding="utf-8"?>
<!-- Generated by IcoMoon.io -->
<!DOCTYPE svg PUBLIC "-//W3C//DTD SVG 1.1//EN" "http://www.w3.org/Graphics/SVG/1.1/DTD/svg11.dtd">
<svg version="1.1" xmlns="http://www.w3.org/2000/svg" xmlns:xlink="http://www.w3.org/1999/xlink" width="27" height="32" viewBox="0 0 27 32">
<path d="M22.286 2.286c2.839 0 5.143 2.304 5.143 5.143v17.143c0 2.839-2.304 5.143-5.143 5.143h-17.143c-2.839 0-5.143-2.304-5.143-5.143v-17.143c0-2.839 2.304-5.143 5.143-5.143h17.143zM12.464 16c0-2.089-1.696-3.786-3.786-3.786s-3.786 1.696-3.786 3.786 1.696 3.786 3.786 3.786 3.786-1.696 3.786-3.786zM22.536 16c0-2.089-1.696-3.786-3.786-3.786s-3.786 1.696-3.786 3.786 1.696 3.786 3.786 3.786 3.786-1.696 3.786-3.786z"></path>
</svg>
