<?xml version="1.0" encoding="utf-8"?>
<!-- Generated by IcoMoon.io -->
<!DOCTYPE svg PUBLIC "-//W3C//DTD SVG 1.1//EN" "http://www.w3.org/Graphics/SVG/1.1/DTD/svg11.dtd">
<svg version="1.1" xmlns="http://www.w3.org/2000/svg" xmlns:xlink="http://www.w3.org/1999/xlink" width="27" height="32" viewBox="0 0 27 32">
<path d="M26.214 6.786c0.661 0.661 1.214 1.982 1.214 2.929v20.571c0 0.946-0.768 1.714-1.714 1.714h-24c-0.946 0-1.714-0.768-1.714-1.714v-28.571c0-0.946 0.768-1.714 1.714-1.714h16c0.946 0 2.268 0.554 2.929 1.214zM18.286 2.429v6.714h6.714c-0.107-0.304-0.268-0.607-0.393-0.732l-5.589-5.589c-0.125-0.125-0.429-0.286-0.732-0.393zM25.143 29.714v-18.286h-7.429c-0.946 0-1.714-0.768-1.714-1.714v-7.429h-13.714v27.429h22.857zM4.161 13.714v1.911h1.25l2.929 11.804h2.839l2.286-8.661c0.089-0.268 0.143-0.536 0.179-0.821 0.018-0.143 0.036-0.286 0.036-0.429h0.071l0.054 0.429c0.054 0.25 0.071 0.536 0.161 0.821l2.286 8.661h2.839l2.929-11.804h1.25v-1.911h-5.357v1.911h1.607l-1.768 7.821c-0.071 0.286-0.107 0.589-0.125 0.821l-0.036 0.375h-0.071c0-0.107-0.036-0.25-0.054-0.375-0.054-0.232-0.089-0.536-0.161-0.821l-2.571-9.732h-2.036l-2.571 9.732c-0.071 0.286-0.089 0.589-0.143 0.821l-0.071 0.375h-0.071l-0.036-0.375c-0.018-0.232-0.054-0.536-0.125-0.821l-1.768-7.821h1.607v-1.911h-5.357z"></path>
</svg>
