<?xml version="1.0" encoding="utf-8"?>
<!-- Generated by IcoMoon.io -->
<!DOCTYPE svg PUBLIC "-//W3C//DTD SVG 1.1//EN" "http://www.w3.org/Graphics/SVG/1.1/DTD/svg11.dtd">
<svg version="1.1" xmlns="http://www.w3.org/2000/svg" xmlns:xlink="http://www.w3.org/1999/xlink" width="31" height="32" viewBox="0 0 31 32">
<path d="M16.125 32c-6.893 0-12.375-4.036-14.893-9.804-2.821-6.411-0.571-16.679 4.446-21.214l-0.196 5.018c0.25-0.321 2.161-0.411 2.464 0 1.036-1.982 4.375-3.464 7.054-3.518-1.018 0.857-3.375 3.982-3.179 5.571 1.304 0.411 3.304 0.429 4.357 0.5 0.321 0.179 0.268 1.268-0.375 2.161 0 0-0.839 1.161-3.107 1.571l0.268 3.375-2.482-1.196c-0.804 2.036 1.125 3.839 3.125 3.5 2.214-0.375 3-1.821 4.554-1.732 1.536 0.089 2.143 0.946 1.946 1.75 0 0-0.25 0.964-1.911 0.804-1.411 2.232-3.286 3.214-6.321 2.946 4.607 3.821 10.821 0.357 12.393-2.768 1.571-3.107 0.196-7.732-1.375-9.036 1.857 0.804 3.143 1.625 3.821 3.429 0.357-4-1.482-8.536-4.768-11.196 6.179 1.804 9.946 6.589 10.054 14.232s-6.768 15.607-15.875 15.607z"></path>
</svg>
