<?xml version="1.0" encoding="utf-8"?>
<!-- Generated by IcoMoon.io -->
<!DOCTYPE svg PUBLIC "-//W3C//DTD SVG 1.1//EN" "http://www.w3.org/Graphics/SVG/1.1/DTD/svg11.dtd">
<svg version="1.1" xmlns="http://www.w3.org/2000/svg" xmlns:xlink="http://www.w3.org/1999/xlink" width="27" height="32" viewBox="0 0 27 32">
<path d="M16.679 2.679c-7.554 2.875-13.5 8.911-16.321 16.482-0.232-1.036-0.357-2.089-0.357-3.143 0-7.554 6.107-13.679 13.661-13.679 1.018 0 2.036 0.125 3.018 0.339zM21.482 4.804c1.107 0.768 2.089 1.696 2.929 2.768-9.25 2.696-16.482 9.964-19.125 19.232-1.054-0.821-2-1.786-2.768-2.893 2.661-9.179 9.804-16.393 18.964-19.107zM8.393 28.625c2.75-8.482 9.393-15.161 17.839-17.964 0.482 1.107 0.804 2.286 0.964 3.482-6.964 2.857-12.5 8.429-15.339 15.411-1.196-0.161-2.357-0.464-3.464-0.929zM27.429 29.661c-2.214-0.571-4.411-1.25-6.554-2.054-1.571 0.982-3.339 1.643-5.179 1.911 2.607-4.875 6.625-8.911 11.482-11.536-0.25 1.786-0.875 3.536-1.804 5.071 0.804 2.161 1.482 4.375 2.054 6.607z"></path>
</svg>
