<?xml version="1.0" encoding="utf-8"?>
<!-- Generated by IcoMoon.io -->
<!DOCTYPE svg PUBLIC "-//W3C//DTD SVG 1.1//EN" "http://www.w3.org/Graphics/SVG/1.1/DTD/svg11.dtd">
<svg version="1.1" xmlns="http://www.w3.org/2000/svg" xmlns:xlink="http://www.w3.org/1999/xlink" width="27" height="32" viewBox="0 0 27 32">
<path d="M0 2.286h27.429v27.429h-27.429v-27.429zM16.214 8l-0.214 0.589 1.339 1.482-0.554 2.036 0.446 0.446 1.911-1.018 1.911 1.018 0.446-0.446-0.554-2.036 1.339-1.482-0.214-0.589h-1.696l-0.946-1.714h-0.571l-0.946 1.714h-1.696zM11.446 10.911c0.732 0 1.018 0.268 1 1.411l3.107-0.375c0-2.732-1.875-3.232-3.964-3.232-3.107 0-4.732 1.25-4.732 4.286v1.286h-1.714v2.286h1.357c0.179 0 0.357 0 0.357 0.143v6.821c0 0.339-0.089 0.446-0.411 0.482l-1.304 0.125v1.571h8v-1.536l-2.661-0.25c-0.321-0.036-0.196-0.089-0.196-0.446v-6.911h3.411l0.679-2.286h-4.125c-0.179 0 0.036-0.125 0.036-0.268v-1.429c0-1.071 0.036-1.679 1.161-1.679zM22.286 25.714v-1.536l-0.964-0.161c-0.339-0.054-0.179-0.089-0.179-0.446v-9.286h-4.911l-0.411 1.804 1.482 0.393c0.232 0.071 0.411 0.232 0.411 0.482v6.607c0 0.339-0.143 0.411-0.464 0.446l-1.25 0.161v1.536h6.286z"></path>
</svg>
