<?xml version="1.0" encoding="utf-8"?>
<!-- Generated by IcoMoon.io -->
<!DOCTYPE svg PUBLIC "-//W3C//DTD SVG 1.1//EN" "http://www.w3.org/Graphics/SVG/1.1/DTD/svg11.dtd">
<svg version="1.1" xmlns="http://www.w3.org/2000/svg" xmlns:xlink="http://www.w3.org/1999/xlink" width="32" height="32" viewBox="0 0 32 32">
<path d="M12.804 24.179l4.839-4.839-4.982-4.982-1.571 1.571 3.429 3.411-1.714 1.714-4.982-4.982 4.982-4.982 0.714 0.714 1.554-1.554-2.268-2.286-8.107 8.107zM19.196 24.036l8.107-8.107-8.107-8.107-4.839 4.839 4.982 4.982 1.571-1.571-3.429-3.411 1.714-1.714 4.982 4.982-4.982 4.982-0.714-0.714-1.554 1.571zM32 16c0 8.839-7.161 16-16 16s-16-7.161-16-16 7.161-16 16-16 16 7.161 16 16z"></path>
</svg>
