<?xml version="1.0" encoding="utf-8"?>
<!-- Generated by IcoMoon.io -->
<!DOCTYPE svg PUBLIC "-//W3C//DTD SVG 1.1//EN" "http://www.w3.org/Graphics/SVG/1.1/DTD/svg11.dtd">
<svg version="1.1" xmlns="http://www.w3.org/2000/svg" xmlns:xlink="http://www.w3.org/1999/xlink" width="27" height="32" viewBox="0 0 27 32">
<path d="M10.393 23.357c0 0.964-0.875 1.179-1.661 1.179-0.768 0-1.911-0.125-1.911-1.125 0-0.982 0.964-1.143 1.75-1.143 0.75 0 1.821 0.125 1.821 1.089zM9.75 15.036c0 0.893-0.357 1.518-1.321 1.518-0.982 0-1.375-0.571-1.375-1.5s0.357-1.607 1.375-1.607c0.911 0 1.321 0.75 1.321 1.589zM12.714 13.696v-2.232c-0.768 0.286-1.589 0.518-2.411 0.518-0.589-0.339-1.268-0.518-1.964-0.518-2.036 0-3.643 1.5-3.643 3.571 0 1.107 0.732 2.643 1.839 3.018v0.054c-0.571 0.25-0.679 0.946-0.679 1.518 0 0.589 0.214 1.071 0.732 1.375v0.054c-1.214 0.393-2.018 1.161-2.018 2.482 0 2.268 2.161 2.911 4.054 2.911 2.286 0 4-0.839 4-3.357 0-1.786-1.625-2.321-3.107-2.589-0.5-0.089-1.357-0.446-1.357-1.071 0-0.589 0.321-0.839 0.875-0.929 1.821-0.357 2.982-1.768 2.982-3.643 0-0.321-0.071-0.625-0.179-0.929 0.286-0.071 0.589-0.143 0.875-0.232zM13.768 21.179h2.446c-0.036-0.482-0.036-0.982-0.036-1.464v-6.911c0-0.411 0-0.821 0.036-1.232h-2.446c0.054 0.411 0.054 0.857 0.054 1.268v7c0 0.446 0 0.893-0.054 1.339zM22.857 20.893v-2.161c-0.357 0.25-0.786 0.375-1.214 0.375-0.804 0-0.946-0.804-0.946-1.464v-4.018h0.929c0.321 0 0.625 0.036 0.946 0.036v-2.089h-1.875c0-0.607-0.036-1.214 0.054-1.821h-2.5c0.054 0.321 0.071 0.643 0.071 0.982v0.839h-1.071v2.089c0.214-0.018 0.429-0.054 0.661-0.054 0.125 0 0.268 0.018 0.411 0.018v0.036h-0.036v3.875c0 1.929 0.286 3.786 2.643 3.786 0.661 0 1.339-0.107 1.929-0.429zM16.5 8.286c0-0.839-0.625-1.625-1.5-1.625s-1.518 0.768-1.518 1.625c0 0.839 0.661 1.589 1.518 1.589s1.5-0.768 1.5-1.589zM27.429 7.429v17.143c0 2.839-2.304 5.143-5.143 5.143h-17.143c-2.839 0-5.143-2.304-5.143-5.143v-17.143c0-2.839 2.304-5.143 5.143-5.143h17.143c2.839 0 5.143 2.304 5.143 5.143z"></path>
</svg>
