<?xml version="1.0" encoding="utf-8"?>
<!-- Generated by IcoMoon.io -->
<!DOCTYPE svg PUBLIC "-//W3C//DTD SVG 1.1//EN" "http://www.w3.org/Graphics/SVG/1.1/DTD/svg11.dtd">
<svg version="1.1" xmlns="http://www.w3.org/2000/svg" xmlns:xlink="http://www.w3.org/1999/xlink" width="32" height="32" viewBox="0 0 32 32">
<path d="M10.625 27.036c0-1.571-1.732-1.786-2.946-1.786-1.268 0-2.821 0.268-2.821 1.857 0 1.607 1.839 1.804 3.071 1.804 1.304 0 2.696-0.321 2.696-1.875zM9.571 13.554c0-1.339-0.643-2.554-2.125-2.554-1.643 0-2.214 1.089-2.214 2.589 0 1.482 0.643 2.411 2.214 2.411 1.554 0 2.125-1 2.125-2.446zM14.375 7.768v3.607c-0.464 0.161-0.929 0.286-1.411 0.393 0.179 0.482 0.286 0.982 0.286 1.5 0 3.018-1.857 5.321-4.821 5.875-0.893 0.179-1.411 0.554-1.411 1.518 0 2.732 7.214 0.875 7.214 5.911 0 4.089-2.768 5.429-6.482 5.429-3.054 0-6.536-1.018-6.536-4.696 0-2.143 1.304-3.375 3.25-4.018v-0.071c-0.821-0.5-1.196-1.286-1.196-2.25 0-0.911 0.196-2.036 1.125-2.446v-0.071c-1.804-0.607-2.982-3.089-2.982-4.893 0-3.339 2.589-5.786 5.893-5.786 1.107 0 2.214 0.286 3.179 0.839 1.339 0 2.661-0.357 3.893-0.839zM20.054 23.5h-3.964c0.071-0.804 0.071-1.589 0.071-2.393v-10.875c0-0.768 0.018-1.536-0.071-2.286h3.964c-0.089 0.732-0.071 1.482-0.071 2.214v10.946c0 0.804 0 1.589 0.071 2.393zM30.786 19.536v3.5c-0.946 0.518-2.036 0.696-3.107 0.696-3.821 0-4.268-3.018-4.268-6.125v-6.268h0.036v-0.071c-0.232 0-0.446-0.036-0.661-0.036-0.357 0-0.714 0.054-1.054 0.107v-3.393h1.714v-1.357c0-0.536-0.018-1.071-0.107-1.589h4.054c-0.143 0.982-0.107 1.964-0.107 2.946h3.054v3.393c-0.518 0-1.036-0.071-1.536-0.071h-1.518v6.518c0 1.054 0.232 2.339 1.554 2.339 0.696 0 1.375-0.196 1.946-0.589zM20.5 2.625c0 1.339-1.036 2.589-2.411 2.589-1.411 0-2.464-1.232-2.464-2.589 0-1.375 1.036-2.625 2.464-2.625 1.411 0 2.411 1.286 2.411 2.625z"></path>
</svg>
