<?xml version="1.0" encoding="utf-8"?>
<!-- Generated by IcoMoon.io -->
<!DOCTYPE svg PUBLIC "-//W3C//DTD SVG 1.1//EN" "http://www.w3.org/Graphics/SVG/1.1/DTD/svg11.dtd">
<svg version="1.1" xmlns="http://www.w3.org/2000/svg" xmlns:xlink="http://www.w3.org/1999/xlink" width="27" height="32" viewBox="0 0 27 32">
<path d="M9.268 21.429v0c0.036-0.054 0.018-0.161-0.054-0.232-0.089-0.071-0.196-0.089-0.25-0.036-0.036 0.054-0.018 0.161 0.054 0.232 0.089 0.071 0.196 0.089 0.25 0.036zM8.768 20.696c-0.054-0.071-0.143-0.107-0.214-0.071-0.054 0.036-0.054 0.143 0 0.214 0.071 0.089 0.161 0.125 0.214 0.089v0c0.054-0.036 0.054-0.143 0-0.232zM8.036 19.982v0c0.018-0.036-0.018-0.107-0.089-0.143-0.054-0.018-0.125-0.018-0.143 0.036-0.036 0.054 0 0.107 0.071 0.143 0.071 0.018 0.143 0.018 0.161-0.036zM8.411 20.393v0c0.036-0.036 0.036-0.125-0.036-0.179-0.054-0.071-0.143-0.089-0.179-0.054-0.054 0.054-0.036 0.125 0.018 0.196 0.054 0.054 0.143 0.089 0.196 0.036zM9.946 21.732v0c0.018-0.071-0.054-0.161-0.161-0.196s-0.196 0-0.232 0.071c-0.018 0.071 0.054 0.161 0.161 0.196s0.196 0 0.232-0.071zM10.696 21.786v0c0-0.071-0.089-0.143-0.214-0.143-0.107 0-0.179 0.071-0.179 0.143s0.089 0.143 0.196 0.143 0.196-0.071 0.196-0.143zM11.393 21.661v0c-0.018-0.071-0.125-0.107-0.232-0.089s-0.179 0.089-0.161 0.161 0.107 0.125 0.214 0.107 0.179-0.107 0.179-0.179zM22.857 16c0-5.054-4.089-9.143-9.143-9.143s-9.143 4.089-9.143 9.143c0 4.036 2.625 7.464 6.25 8.679 0.464 0.089 0.625-0.196 0.625-0.446 0-0.214 0-0.929-0.018-1.696 0 0-2.536 0.554-3.071-1.089 0 0-0.411-1.054-1.018-1.321 0 0-0.821-0.571 0.071-0.571 0 0 0.893 0.071 1.393 0.946 0.804 1.411 2.143 1 2.661 0.768 0.089-0.589 0.321-1 0.589-1.232-2.036-0.232-4.179-1.018-4.179-4.518 0-1 0.357-1.804 0.946-2.446-0.089-0.232-0.411-1.161 0.089-2.429 0.768-0.232 2.518 0.946 2.518 0.946 0.732-0.214 1.5-0.304 2.286-0.304s1.554 0.089 2.286 0.304c0 0 1.75-1.179 2.518-0.946 0.5 1.268 0.179 2.196 0.089 2.429 0.589 0.643 0.946 1.446 0.946 2.446 0 3.518-2.143 4.286-4.179 4.518 0.321 0.286 0.625 0.839 0.625 1.696 0 1.214-0.018 2.196-0.018 2.5 0 0.25 0.161 0.536 0.625 0.446 3.625-1.214 6.25-4.643 6.25-8.679zM27.429 7.429v17.143c0 2.839-2.304 5.143-5.143 5.143h-17.143c-2.839 0-5.143-2.304-5.143-5.143v-17.143c0-2.839 2.304-5.143 5.143-5.143h17.143c2.839 0 5.143 2.304 5.143 5.143z"></path>
</svg>
