<?xml version="1.0" encoding="utf-8"?>
<!-- Generated by IcoMoon.io -->
<!DOCTYPE svg PUBLIC "-//W3C//DTD SVG 1.1//EN" "http://www.w3.org/Graphics/SVG/1.1/DTD/svg11.dtd">
<svg version="1.1" xmlns="http://www.w3.org/2000/svg" xmlns:xlink="http://www.w3.org/1999/xlink" width="27" height="32" viewBox="0 0 27 32">
<path d="M15.464 9.196c0 0.571-0.125 1.125-0.232 1.679-0.375 1.786-0.732 3.571-1.107 5.357-0.054 0.25-0.054 0.25-0.321 0.268-0.179 0.018-0.375 0.036-0.554 0.036-1.536 0-1.964-1.661-1.964-2.911 0-1.857 0.732-4.339 2.464-5.321 0.286-0.143 0.589-0.25 0.911-0.25 0.732 0 0.804 0.536 0.804 1.143zM24.143 16.768c0-0.321-1.321-2.411-1.625-2.536-0.143-0.054-0.446-0.143-0.607-0.143-1.464 0-2.786 0.661-4.036 1.375l-0.036-0.036c0.286-1.911 0.929-3.607 0.929-5.589 0-2.839-1.518-4.161-4.321-4.161-0.411 0-0.821 0.054-1.214 0.107-3.518 0.625-5.661 4.643-5.661 7.946 0 3.5 2.018 5.429 5.5 5.429 0.071 0 0.446-0.036 0.446 0.054 0 0.036 0 0.054-0.018 0.089-0.071 0.679-0.286 1.429-0.464 2.089-0.268 0.982-1.196 2.679-2.393 2.679-0.518 0-0.75-0.357-0.75-0.839 0-1.554 1.786-2.482 1.821-2.571 0-0.071-0.089-0.143-0.125-0.179-0.554-0.5-1.464-0.911-2.214-0.911-1.357 0-2.089 2.179-2.089 3.286 0 2.071 1.304 3.5 3.393 3.5 3.089 0 5.339-3.25 6.036-5.929 0.196-0.786 0.339-1.589 0.536-2.375 0.036-0.161 0.089-0.232 0.25-0.321 1.268-0.643 2.607-1.071 4.054-1.071 0.786 0 1.482 0.143 2.268 0.321 0.018 0.018 0.054 0.018 0.071 0.018 0.107 0 0.25-0.125 0.25-0.232zM27.429 7.429v17.143c0 2.839-2.304 5.143-5.143 5.143h-17.143c-2.839 0-5.143-2.304-5.143-5.143v-17.143c0-2.839 2.304-5.143 5.143-5.143h17.143c2.839 0 5.143 2.304 5.143 5.143z"></path>
</svg>
