<?xml version="1.0" encoding="utf-8"?>
<!-- Generated by IcoMoon.io -->
<!DOCTYPE svg PUBLIC "-//W3C//DTD SVG 1.1//EN" "http://www.w3.org/Graphics/SVG/1.1/DTD/svg11.dtd">
<svg version="1.1" xmlns="http://www.w3.org/2000/svg" xmlns:xlink="http://www.w3.org/1999/xlink" width="41" height="32" viewBox="0 0 41 32">
<path d="M25.661 16.304c0 7.482-5.018 12.786-12.571 12.786-7.232 0-13.089-5.857-13.089-13.089s5.857-13.089 13.089-13.089c3.536 0 6.482 1.286 8.768 3.429l-3.554 3.411c-0.964-0.929-2.661-2.018-5.214-2.018-4.464 0-8.107 3.696-8.107 8.268s3.643 8.268 8.107 8.268c5.179 0 7.125-3.732 7.429-5.643h-7.429v-4.5h12.357c0.125 0.661 0.214 1.321 0.214 2.179zM41.143 14.125v3.75h-3.732v3.732h-3.75v-3.732h-3.732v-3.75h3.732v-3.732h3.75v3.732h3.732z"></path>
</svg>
