<?xml version="1.0" encoding="utf-8"?>
<!-- Generated by IcoMoon.io -->
<!DOCTYPE svg PUBLIC "-//W3C//DTD SVG 1.1//EN" "http://www.w3.org/Graphics/SVG/1.1/DTD/svg11.dtd">
<svg version="1.1" xmlns="http://www.w3.org/2000/svg" xmlns:xlink="http://www.w3.org/1999/xlink" width="32" height="32" viewBox="0 0 32 32">
<path d="M7.875 12c0.357 0 0.714 0.179 0.929 0.464 3.125 4.268 5.304 8.839 6.464 13.821h-7.964c-1.429-4.964-3.536-9.5-6.554-13.375-0.286-0.375 0-0.911 0.464-0.911h6.661zM17.857 18.375c-0.589 2.411-1.339 4.75-2.232 7.018-0.946-3.732-2.464-7.232-4.571-10.607 0.464-2.589 0.732-5.25 0.786-8.018 2.518 4.054 4.518 7.911 6.018 11.607zM19.625 5.714c5.339 7.357 9.304 16.429 10.161 26.286h-8.054c-0.589-9.536-4.982-18.571-9.875-26.286h7.768zM32 16c0 4.964-0.679 10.179-1.804 14.5-0.786-6.607-2.964-13.179-6.411-19.339-0.304-3.607-0.946-7.107-1.893-10.429-0.089-0.375 0.179-0.732 0.554-0.732h6.411c0.5 0 0.964 0.339 1.089 0.821 1.357 4.821 2.054 9.929 2.054 15.179z"></path>
</svg>
