<?xml version="1.0" encoding="utf-8"?>
<!-- Generated by IcoMoon.io -->
<!DOCTYPE svg PUBLIC "-//W3C//DTD SVG 1.1//EN" "http://www.w3.org/Graphics/SVG/1.1/DTD/svg11.dtd">
<svg version="1.1" xmlns="http://www.w3.org/2000/svg" xmlns:xlink="http://www.w3.org/1999/xlink" width="27" height="32" viewBox="0 0 27 32">
<path d="M13.286 5.446c0-0.946-0.089-1.768-1.232-1.768-0.482 0-0.964 0.161-1.393 0.411-2.696 1.482-3.804 5.321-3.804 8.214 0 1.929 0.661 4.5 3.018 4.5 0.536 0 1.214 0.143 1.357-0.482 0.571-2.75 1.143-5.518 1.714-8.268 0.179-0.857 0.339-1.732 0.339-2.607zM26.75 17.161c0 0.179-0.232 0.357-0.411 0.357l-0.107-0.018c-1.214-0.179-2.286-0.5-3.518-0.5-2.232 0-4.286 0.661-6.268 1.661-0.25 0.125-0.304 0.232-0.375 0.482-0.321 1.214-0.536 2.464-0.839 3.679-1.071 4.161-4.554 9.179-9.321 9.179-3.25 0-5.25-2.214-5.25-5.411 0-1.732 1.125-5.107 3.214-5.107 0.732 0 3.607 0.946 3.625 1.696-0.036 0.143-2.804 1.571-2.804 3.982 0 0.732 0.357 1.304 1.161 1.304 2.839 0 4.143-5.179 4.429-7.357v-0.161c0-0.143-0.571-0.071-0.679-0.071-5.375 0-8.518-3-8.518-8.411 0-5.107 3.321-11.339 8.768-12.286 0.625-0.107 1.25-0.161 1.893-0.161 4.321 0 6.679 2.018 6.679 6.429 0 2.982-1.018 5.732-1.446 8.643l0.054 0.054c1.929-1.089 3.964-2.125 6.25-2.125 0.232 0 0.732 0.143 0.946 0.232 0.464 0.179 2.518 3.411 2.518 3.911z"></path>
</svg>
