<?xml version="1.0" encoding="utf-8"?>
<!-- Generated by IcoMoon.io -->
<!DOCTYPE svg PUBLIC "-//W3C//DTD SVG 1.1//EN" "http://www.w3.org/Graphics/SVG/1.1/DTD/svg11.dtd">
<svg version="1.1" xmlns="http://www.w3.org/2000/svg" xmlns:xlink="http://www.w3.org/1999/xlink" width="27" height="32" viewBox="0 0 27 32">
<path d="M26.857 28.571c0.321 0 0.571 0.25 0.571 0.571v2.286c0 0.321-0.25 0.571-0.571 0.571h-26.286c-0.321 0-0.571-0.25-0.571-0.571v-2.286c0-0.321 0.25-0.571 0.571-0.571h26.286zM2.321 27.429c0.339-6.018 5.25-9.25 8.536-11.429-3.286-2.179-8.196-5.411-8.536-11.429h22.786c-0.339 6.018-5.25 9.25-8.536 11.429 3.286 2.179 8.196 5.411 8.536 11.429h-22.786zM26.857 0c0.321 0 0.571 0.25 0.571 0.571v2.286c0 0.321-0.25 0.571-0.571 0.571h-26.286c-0.321 0-0.571-0.25-0.571-0.571v-2.286c0-0.321 0.25-0.571 0.571-0.571h26.286z"></path>
</svg>
