<?xml version="1.0" encoding="utf-8"?>
<!-- Generated by IcoMoon.io -->
<!DOCTYPE svg PUBLIC "-//W3C//DTD SVG 1.1//EN" "http://www.w3.org/Graphics/SVG/1.1/DTD/svg11.dtd">
<svg version="1.1" xmlns="http://www.w3.org/2000/svg" xmlns:xlink="http://www.w3.org/1999/xlink" width="25" height="32" viewBox="0 0 25 32">
<path d="M17.714 11.143v8.857c0 0.321-0.25 0.571-0.571 0.571h-2.857c-0.321 0-0.571-0.25-0.571-0.571v-8.857c0-2.679-2.179-4.857-4.857-4.857h-4.857v20.571c0 0.321-0.25 0.571-0.571 0.571h-2.857c-0.321 0-0.571-0.25-0.571-0.571v-24c0-0.321 0.25-0.571 0.571-0.571h8.286c4.893 0 8.857 3.964 8.857 8.857zM24.571 2.857v15.714c0 4.893-3.964 8.857-8.857 8.857h-8.286c-0.321 0-0.571-0.25-0.571-0.571v-17.143c0-0.321 0.25-0.571 0.571-0.571h2.857c0.321 0 0.571 0.25 0.571 0.571v13.714h4.857c2.679 0 4.857-2.179 4.857-4.857v-15.714c0-0.321 0.25-0.571 0.571-0.571h2.857c0.321 0 0.571 0.25 0.571 0.571z"></path>
</svg>
