<?xml version="1.0" encoding="utf-8"?>
<!-- Generated by IcoMoon.io -->
<!DOCTYPE svg PUBLIC "-//W3C//DTD SVG 1.1//EN" "http://www.w3.org/Graphics/SVG/1.1/DTD/svg11.dtd">
<svg version="1.1" xmlns="http://www.w3.org/2000/svg" xmlns:xlink="http://www.w3.org/1999/xlink" width="32" height="32" viewBox="0 0 32 32">
<path d="M24.738 17.001c-0.039-4.053 3.303-5.995 3.454-6.091-1.879-2.75-4.807-3.127-5.851-3.17-2.491-0.251-4.862 1.467-6.128 1.467-1.262 0-3.214-1.431-5.28-1.392-2.715 0.041-5.218 1.579-6.617 4.011-2.823 4.896-0.722 12.151 2.027 16.121 1.344 1.943 2.946 4.128 5.049 4.050 2.025-0.080 2.791-1.312 5.241-1.312s3.138 1.312 5.282 1.271c2.181-0.039 3.561-1.982 4.896-3.931 1.543-2.256 2.178-4.437 2.215-4.549-0.048-0.023-4.251-1.632-4.293-6.471l0.005-0.005zM20.711 5.111c1.115-1.355 1.87-3.234 1.664-5.111-1.609 0.066-3.559 1.072-4.713 2.423-1.035 1.2-1.943 3.113-1.701 4.951 1.797 0.142 3.632-0.91 4.75-2.263v0z"></path>
</svg>
