<?xml version="1.0" encoding="utf-8"?>
<!-- Generated by IcoMoon.io -->
<!DOCTYPE svg PUBLIC "-//W3C//DTD SVG 1.1//EN" "http://www.w3.org/Graphics/SVG/1.1/DTD/svg11.dtd">
<svg version="1.1" xmlns="http://www.w3.org/2000/svg" xmlns:xlink="http://www.w3.org/1999/xlink" width="18" height="32" viewBox="0 0 18 32">
<path d="M0 29.679l0.304-1.518c1.143-0.357 2.375-0.5 3.446-1.054 0.411-0.518 0.607-1.179 0.732-1.804 0.232-1.214 4.125-18.732 4.071-20.161v-0.446c-0.982-0.536-2.179-0.393-3.25-0.571l0.339-1.839c2.304 0.107 4.643 0.286 6.964 0.286 1.893 0 3.786-0.179 5.679-0.286-0.071 0.536-0.196 1.071-0.339 1.589-1.232 0.429-2.536 0.625-3.75 1.107-0.393 0.964-0.482 2.018-0.661 3.036-0.857 4.625-2 9.25-2.946 13.839-0.179 0.857-1.054 4.411-0.982 5.161l0.018 0.321c1.089 0.25 2.196 0.375 3.304 0.554-0.036 0.589-0.143 1.179-0.286 1.768-0.393 0-0.768 0.054-1.161 0.054-1.018 0-2.071-0.339-3.089-0.357-1.232-0.018-2.464-0.036-3.679-0.036-1.589 0-3.143 0.268-4.714 0.357z"></path>
</svg>
