<?xml version="1.0" encoding="utf-8"?>
<!-- Generated by IcoMoon.io -->
<!DOCTYPE svg PUBLIC "-//W3C//DTD SVG 1.1//EN" "http://www.w3.org/Graphics/SVG/1.1/DTD/svg11.dtd">
<svg version="1.1" xmlns="http://www.w3.org/2000/svg" xmlns:xlink="http://www.w3.org/1999/xlink" width="32" height="32" viewBox="0 0 32 32">
<path d="M23.071 12.571c0 0.107 0.143 0.607 0.179 0.732 0.482 1.464 1.607 1.768 2.946 2.143 2.982 0.839 5.804 2.429 5.804 5.929 0 3.554-2.964 6.054-6.429 6.054-5.75 0-7.536-7.036-9.196-11.321-1.375-3.536-2.821-5.607-6.804-5.607-3.536 0-6.643 3.393-6.643 6.875 0 3.696 2.768 7.125 6.607 7.125 1.696 0 3.464-0.357 4.607-1.696v0c0.554-0.625 1.089-1.304 1.482-2.071l1.5 2.714c-0.196 0.446-0.482 0.875-0.786 1.25l0.018 0.018c-1.804 2.089-4.268 2.714-6.929 2.714-5.393 0-9.429-4.768-9.429-10.018 0-5.089 4.429-9.821 9.571-9.821 8.536 0 8.964 7.393 11.857 13.339 0.786 1.643 2.125 3.571 4.161 3.571 1.857 0 3.5-1.196 3.5-3.161 0-4.25-7.804-1.357-8.911-8.339-0.036-0.196-0.054-0.393-0.054-0.589 0-2.643 2.482-4.911 5.107-4.821 1.571 0.054 2.518 0.107 3.768 1.214h-0.018c0.482 0.446 0.839 1.054 1.214 1.571l-2.304 1.768c-0.268-0.5-0.518-0.911-0.964-1.25v-0.018c-0.429-0.393-1.196-0.375-1.732-0.375-1.161 0-2.125 0.875-2.125 2.071z"></path>
</svg>
