<?xml version="1.0" encoding="utf-8"?>
<!-- Generated by IcoMoon.io -->
<!DOCTYPE svg PUBLIC "-//W3C//DTD SVG 1.1//EN" "http://www.w3.org/Graphics/SVG/1.1/DTD/svg11.dtd">
<svg version="1.1" xmlns="http://www.w3.org/2000/svg" xmlns:xlink="http://www.w3.org/1999/xlink" width="18" height="32" viewBox="0 0 18 32">
<path d="M18.179 10.768c-0.196 0.411-0.589 0.661-1.036 0.661h-3.429v15.429c0 0.321-0.25 0.571-0.571 0.571h-12.571c-0.214 0-0.429-0.125-0.518-0.321-0.089-0.214-0.071-0.446 0.071-0.625l2.857-3.429c0.107-0.125 0.286-0.196 0.446-0.196h5.714v-11.429h-3.429c-0.446 0-0.839-0.25-1.036-0.661-0.179-0.393-0.125-0.875 0.161-1.214l5.714-6.857c0.429-0.518 1.321-0.518 1.75 0l5.714 6.857c0.286 0.339 0.357 0.821 0.161 1.214z"></path>
</svg>
