<?xml version="1.0" encoding="utf-8"?>
<!-- Generated by IcoMoon.io -->
<!DOCTYPE svg PUBLIC "-//W3C//DTD SVG 1.1//EN" "http://www.w3.org/Graphics/SVG/1.1/DTD/svg11.dtd">
<svg version="1.1" xmlns="http://www.w3.org/2000/svg" xmlns:xlink="http://www.w3.org/1999/xlink" width="32" height="32" viewBox="0 0 32 32">
<path d="M9.179 21.339l1.446-5.339h-2.839l1.339 5.357c0.018 0.036 0.018 0.071 0.036 0.107 0-0.036 0.018-0.089 0.018-0.125zM11.25 13.714l0.625-2.286h-5.214l0.571 2.286h4.018zM14.679 13.714h2.482l-0.625-2.286h-1.25zM22.696 21.357l1.393-5.357h-2.893l1.446 5.339c0.018 0.054 0.018 0.089 0.036 0.125 0-0.036 0.018-0.071 0.018-0.107zM24.679 13.714l0.589-2.286h-5.304l0.607 2.286h4.107zM32 14.286v1.143c0 0.321-0.25 0.571-0.571 0.571h-3.804l-2.929 11c-0.071 0.25-0.304 0.429-0.554 0.429h-2.839c-0.25 0-0.482-0.179-0.554-0.429l-2.964-11h-3.732l-2.982 11c-0.071 0.25-0.286 0.429-0.554 0.429h-2.839c-0.25 0-0.482-0.179-0.536-0.429l-2.857-11h-3.714c-0.321 0-0.571-0.25-0.571-0.571v-1.143c0-0.321 0.25-0.571 0.571-0.571h3.125l-0.589-2.286h-2.536c-0.321 0-0.571-0.25-0.571-0.571v-1.143c0-0.321 0.25-0.571 0.571-0.571h1.946l-1.589-6.143c-0.054-0.179-0.018-0.357 0.089-0.5 0.107-0.125 0.286-0.214 0.464-0.214h2.446c0.268 0 0.5 0.179 0.554 0.429l1.607 6.429h6.411l1.732-6.429c0.071-0.25 0.304-0.429 0.554-0.429h2.25c0.268 0 0.482 0.179 0.554 0.429l1.75 6.429h6.518l1.661-6.429c0.054-0.25 0.286-0.429 0.554-0.429h2.446c0.179 0 0.357 0.089 0.464 0.214 0.107 0.143 0.143 0.339 0.089 0.5l-1.625 6.143h1.982c0.321 0 0.571 0.25 0.571 0.571v1.143c0 0.321-0.25 0.571-0.571 0.571h-2.589l-0.607 2.286h3.196c0.321 0 0.571 0.25 0.571 0.571z"></path>
</svg>
