<?xml version="1.0" encoding="utf-8"?>
<!-- Generated by IcoMoon.io -->
<!DOCTYPE svg PUBLIC "-//W3C//DTD SVG 1.1//EN" "http://www.w3.org/Graphics/SVG/1.1/DTD/svg11.dtd">
<svg version="1.1" xmlns="http://www.w3.org/2000/svg" xmlns:xlink="http://www.w3.org/1999/xlink" width="32" height="32" viewBox="0 0 32 32">
<path d="M4.571 23.429v3.429c0 0.304-0.268 0.571-0.571 0.571h-3.429c-0.304 0-0.571-0.268-0.571-0.571v-3.429c0-0.304 0.268-0.571 0.571-0.571h3.429c0.304 0 0.571 0.268 0.571 0.571zM4.571 16.571v3.429c0 0.304-0.268 0.571-0.571 0.571h-3.429c-0.304 0-0.571-0.268-0.571-0.571v-3.429c0-0.304 0.268-0.571 0.571-0.571h3.429c0.304 0 0.571 0.268 0.571 0.571zM4.571 9.714v3.429c0 0.304-0.268 0.571-0.571 0.571h-3.429c-0.304 0-0.571-0.268-0.571-0.571v-3.429c0-0.304 0.268-0.571 0.571-0.571h3.429c0.304 0 0.571 0.268 0.571 0.571zM32 23.429v3.429c0 0.304-0.268 0.571-0.571 0.571h-24c-0.304 0-0.571-0.268-0.571-0.571v-3.429c0-0.304 0.268-0.571 0.571-0.571h24c0.304 0 0.571 0.268 0.571 0.571zM4.571 2.857v3.429c0 0.304-0.268 0.571-0.571 0.571h-3.429c-0.304 0-0.571-0.268-0.571-0.571v-3.429c0-0.304 0.268-0.571 0.571-0.571h3.429c0.304 0 0.571 0.268 0.571 0.571zM32 16.571v3.429c0 0.304-0.268 0.571-0.571 0.571h-24c-0.304 0-0.571-0.268-0.571-0.571v-3.429c0-0.304 0.268-0.571 0.571-0.571h24c0.304 0 0.571 0.268 0.571 0.571zM32 9.714v3.429c0 0.304-0.268 0.571-0.571 0.571h-24c-0.304 0-0.571-0.268-0.571-0.571v-3.429c0-0.304 0.268-0.571 0.571-0.571h24c0.304 0 0.571 0.268 0.571 0.571zM32 2.857v3.429c0 0.304-0.268 0.571-0.571 0.571h-24c-0.304 0-0.571-0.268-0.571-0.571v-3.429c0-0.304 0.268-0.571 0.571-0.571h24c0.304 0 0.571 0.268 0.571 0.571z"></path>
</svg>
