<?xml version="1.0" encoding="utf-8"?>
<!-- Generated by IcoMoon.io -->
<!DOCTYPE svg PUBLIC "-//W3C//DTD SVG 1.1//EN" "http://www.w3.org/Graphics/SVG/1.1/DTD/svg11.dtd">
<svg version="1.1" xmlns="http://www.w3.org/2000/svg" xmlns:xlink="http://www.w3.org/1999/xlink" width="27" height="32" viewBox="0 0 27 32">
<path d="M5.893 27.411l3.607 3.821-0.607-4.214-3.857-3.804zM9.929 31.446l4.893-3.893-0.196-4.375-5.357 3.839zM4.375 20.054l4.054 3.804-0.857-5.839-4.375-3.643zM8.839 24.054l5.661-3.821-0.25-5.786-6.286 3.571zM15.054 24.25l1.696 1.429-0.036-4.268-1.839-1.411c0 0.143 0.071 0.393-0.071 0.5l-1.393 0.929 1.518 1.25c0.179 0.143 0.125 1.357 0.125 1.571zM2.464 10.821l4.571 3.571-1.214-8.304-4.982-3.089zM20.946 22.661l0.268-4.179-4.107 2.929 0.036 4.286zM7.446 14.536l6.661-3.464-0.339-7.875-7.554 2.911zM22.679 21.054l0.357-4.161-4.036-2.536-0.036 1.875 2.571 1.696c0.054 0.036 0.089 0.107 0.071 0.161l-0.125 2.125zM26.089 18.571l0.536-3.964-3.196 2.286-0.357 4.071zM22.732 21.554l-1.268-0.875-0.143 2.089c0 0.054-0.018 0.107-0.071 0.143l-4.179 3.339c-0.071 0.054-0.179 0.054-0.25 0l-1.75-1.482 0.125 2.875c0 0.054-0.018 0.107-0.071 0.143l-5.232 4.179c-0.036 0.018-0.071 0.036-0.107 0.036-0.054-0.018-0.107-0.018-0.143-0.054l-4.071-4.321c-0.089-0.089-0.964-4.5-1.054-4.946-0.018-0.071 0.036-0.161 0.089-0.196l1.089-0.661c-0.214-0.196-1.661-1.464-1.696-1.643l-1.286-6.268c-0.018-0.071 0.018-0.161 0.107-0.214l1.679-0.804c-0.286-0.214-2.357-1.714-2.411-1.929l-1.714-8.321c-0.018-0.107 0.036-0.196 0.125-0.232l7.732-2.411c0.036 0 0.089 0 0.143 0.018l5.661 2.732c0.054 0.036 0.107 0.107 0.107 0.161l0.357 8.268c0 0.071-0.036 0.143-0.107 0.179l-2.107 1.089 2.25 1.518c0.054 0.018 0.089 0.089 0.089 0.143l0.089 2.196 2.161-1.321c0.054-0.036 0.143-0.036 0.196 0l1.5 1 0.054-1.964c0-0.054 0.036-0.125 0.089-0.161l3.679-2.25c0.071-0.036 0.143-0.036 0.196 0l4.375 2.411c0.036 0.036 0.071 0.071 0.089 0.125 0.036 0.125-0.554 4.143-0.607 4.554 0 0.054-0.036 0.107-0.071 0.125l-3.411 2.732c-0.071 0.054-0.161 0.054-0.232 0z"></path>
</svg>
