<?xml version="1.0" encoding="utf-8"?>
<!-- Generated by IcoMoon.io -->
<!DOCTYPE svg PUBLIC "-//W3C//DTD SVG 1.1//EN" "http://www.w3.org/Graphics/SVG/1.1/DTD/svg11.dtd">
<svg version="1.1" xmlns="http://www.w3.org/2000/svg" xmlns:xlink="http://www.w3.org/1999/xlink" width="32" height="32" viewBox="0 0 32 32">
<path d="M28.985 3.595h-25.97c-1.662 0-3.015 1.39-3.015 3.093v18.624c0 1.705 1.353 3.093 3.015 3.093h25.966c1.664 0 3.017-1.387 3.017-3.093v-18.624c0.002-1.703-1.351-3.093-3.013-3.093zM28.985 25.545h-25.97c-0.123 0-0.229-0.105-0.229-0.233v-16.222h26.421v16.222c0 0.13-0.098 0.233-0.222 0.233z"></path>
<path d="M20.809 12.544v0.002h-9.616v9.614h9.616v-2.485l-1.246 1.246v-0.005h-7.127v-7.129h7.127z"></path>
<path d="M25.179 12.306l-0.569-0.567c-0.315-0.313-0.823-0.313-1.138 0l-5.687 5.687-2.841-2.843c-0.315-0.315-0.825-0.315-1.138 0l-0.569 0.569c-0.315 0.313-0.315 0.823 0 1.136l3.979 3.982c0.027 0.025 0.062 0.039 0.091 0.059 0.315 0.238 0.759 0.229 1.047-0.059l6.823-6.825c0.315-0.315 0.315-0.825 0.002-1.138z"></path>
</svg>
