<?xml version="1.0" encoding="utf-8"?>
<!-- Generated by IcoMoon.io -->
<!DOCTYPE svg PUBLIC "-//W3C//DTD SVG 1.1//EN" "http://www.w3.org/Graphics/SVG/1.1/DTD/svg11.dtd">
<svg version="1.1" xmlns="http://www.w3.org/2000/svg" xmlns:xlink="http://www.w3.org/1999/xlink" width="32" height="32" viewBox="0 0 32 32">
<path d="M21.408 16.91l-8.238-4.939c-0.194-0.114-0.437-0.119-0.631-0.007-0.197 0.107-0.318 0.315-0.318 0.542v9.886c0 0.226 0.121 0.434 0.318 0.544 0.096 0.055 0.201 0.082 0.309 0.082 0.112 0 0.224-0.030 0.322-0.089l8.238-4.944c0.19-0.112 0.304-0.315 0.304-0.535s-0.117-0.425-0.304-0.539z"></path>
<path d="M28.985 3.595h-25.968c-1.664 0-3.017 1.39-3.017 3.093v18.624c0 1.705 1.353 3.093 3.017 3.093h25.966c1.664 0 3.015-1.387 3.015-3.093v-18.624c0.002-1.703-1.351-3.093-3.013-3.093zM28.985 25.545h-25.968c-0.126 0-0.229-0.105-0.229-0.233v-16.222h26.421v16.222c0 0.13-0.101 0.233-0.224 0.233z"></path>
</svg>
