<?xml version="1.0" encoding="utf-8"?>
<!-- Generated by IcoMoon.io -->
<!DOCTYPE svg PUBLIC "-//W3C//DTD SVG 1.1//EN" "http://www.w3.org/Graphics/SVG/1.1/DTD/svg11.dtd">
<svg version="1.1" xmlns="http://www.w3.org/2000/svg" xmlns:xlink="http://www.w3.org/1999/xlink" width="32" height="32" viewBox="0 0 32 32">
<path d="M30.025 7.641c-1.088 0-1.973 0.885-1.973 1.975 0 0.256 0.057 0.498 0.146 0.722l-5.774 6.242c-0.183-0.055-0.363-0.114-0.565-0.114-0.279 0-0.542 0.059-0.782 0.165l-0.834-0.731v-10.971c0-2.025-1.609-3.675-3.586-3.675h-13.070c-1.979 0-3.589 1.648-3.589 3.675v22.144c0 2.027 1.609 3.675 3.589 3.675h13.070c1.977 0 3.586-1.65 3.586-3.675v-7.566c0.352 0.535 0.928 0.907 1.618 0.907 1.088 0 1.973-0.885 1.973-1.975 0-0.256-0.055-0.498-0.146-0.725l5.776-6.242c0.183 0.055 0.363 0.114 0.565 0.114 1.088 0.002 1.97-0.882 1.97-1.973s-0.882-1.973-1.975-1.973zM10.121 28.814c-0.846 0-1.529-0.686-1.529-1.529 0-0.846 0.686-1.529 1.529-1.529s1.529 0.686 1.529 1.529c0.002 0.846-0.681 1.529-1.529 1.529zM3.319 24.215v-19.287c0-0.153 0.119-0.279 0.267-0.279h13.070c0.149 0 0.272 0.123 0.272 0.279v8.082l-1.051-0.919c0.043-0.162 0.101-0.325 0.101-0.503 0-1.090-0.882-1.975-1.975-1.975-1.088 0-1.973 0.885-1.973 1.975 0 0.215 0.057 0.411 0.121 0.606l-4.551 4.407c-0.213-0.080-0.437-0.137-0.677-0.137-1.093 0-1.975 0.885-1.975 1.975s0.882 1.975 1.975 1.975c1.088 0 1.973-0.885 1.973-1.975 0-0.215-0.057-0.414-0.121-0.608l4.551-4.407c0.213 0.078 0.439 0.137 0.679 0.137 0.279 0 0.542-0.059 0.782-0.165l2.142 1.867v8.951h-13.609z"></path>
</svg>
