<?xml version="1.0" encoding="utf-8"?>
<!-- Generated by IcoMoon.io -->
<!DOCTYPE svg PUBLIC "-//W3C//DTD SVG 1.1//EN" "http://www.w3.org/Graphics/SVG/1.1/DTD/svg11.dtd">
<svg version="1.1" xmlns="http://www.w3.org/2000/svg" xmlns:xlink="http://www.w3.org/1999/xlink" width="37" height="32" viewBox="0 0 37 32">
<path d="M36.571 6.857h-2.286v18.286h2.286v6.857h-6.857v-2.286h-22.857v2.286h-6.857v-6.857h2.286v-18.286h-2.286v-6.857h6.857v2.286h22.857v-2.286h6.857v6.857zM32 2.286v2.286h2.286v-2.286h-2.286zM2.286 2.286v2.286h2.286v-2.286h-2.286zM4.571 29.714v-2.286h-2.286v2.286h2.286zM29.714 27.429v-2.286h2.286v-18.286h-2.286v-2.286h-22.857v2.286h-2.286v18.286h2.286v2.286h22.857zM34.286 29.714v-2.286h-2.286v2.286h2.286zM22.857 11.429h6.857v13.714h-16v-4.571h-6.857v-13.714h16v4.571zM9.143 18.286h11.429v-9.143h-11.429v9.143zM27.429 22.857v-9.143h-4.571v6.857h-6.857v2.286h11.429z"></path>
</svg>
