<?xml version="1.0" encoding="utf-8"?>
<!-- Generated by IcoMoon.io -->
<!DOCTYPE svg PUBLIC "-//W3C//DTD SVG 1.1//EN" "http://www.w3.org/Graphics/SVG/1.1/DTD/svg11.dtd">
<svg version="1.1" xmlns="http://www.w3.org/2000/svg" xmlns:xlink="http://www.w3.org/1999/xlink" width="41" height="32" viewBox="0 0 41 32">
<path d="M41.143 13.714h-2.286v11.429h2.286v6.857h-6.857v-2.286h-16v2.286h-6.857v-6.857h2.286v-2.286h-6.857v2.286h-6.857v-6.857h2.286v-11.429h-2.286v-6.857h6.857v2.286h16v-2.286h6.857v6.857h-2.286v2.286h6.857v-2.286h6.857v6.857zM36.571 9.143v2.286h2.286v-2.286h-2.286zM25.143 2.286v2.286h2.286v-2.286h-2.286zM2.286 2.286v2.286h2.286v-2.286h-2.286zM4.571 22.857v-2.286h-2.286v2.286h2.286zM27.429 20.571h-2.286v2.286h2.286v-2.286zM6.857 20.571h16v-2.286h2.286v-11.429h-2.286v-2.286h-16v2.286h-2.286v11.429h2.286v2.286zM16 29.714v-2.286h-2.286v2.286h2.286zM38.857 29.714v-2.286h-2.286v2.286h2.286zM36.571 25.143v-11.429h-2.286v-2.286h-6.857v6.857h2.286v6.857h-6.857v-2.286h-6.857v2.286h2.286v2.286h16v-2.286h2.286z"></path>
</svg>
