<?xml version="1.0" encoding="utf-8"?>
<!-- Generated by IcoMoon.io -->
<!DOCTYPE svg PUBLIC "-//W3C//DTD SVG 1.1//EN" "http://www.w3.org/Graphics/SVG/1.1/DTD/svg11.dtd">
<svg version="1.1" xmlns="http://www.w3.org/2000/svg" xmlns:xlink="http://www.w3.org/1999/xlink" width="32" height="32" viewBox="0 0 32 32">
<path d="M26.661 4.071c-1.875-1.25-4.071-1.964-6.411-1.964-3.804 0-7.161 1.946-9.518 4.875-1.714 2.143-2.911 5.179-3 8.643v0.75c0.089 3.464 1.286 6.5 3 8.643 2.357 2.929 5.714 4.875 9.518 4.875 2.339 0 4.536-0.714 6.411-1.964-2.821 2.536-6.571 4.071-10.661 4.071-0.25 0-0.518 0-0.768-0.018-8.482-0.393-15.232-7.393-15.232-15.982 0-8.839 7.161-16 16-16h0.054c4.071 0.018 7.786 1.554 10.607 4.071zM32 16c0 4.661-2 8.839-5.179 11.768-1.214 0.732-2.554 1.125-3.964 1.125-1.643 0-3.196-0.536-4.554-1.5 3.625-1.321 6.304-5.911 6.304-11.393 0-5.464-2.661-10.054-6.286-11.393 1.357-0.946 2.893-1.482 4.536-1.482 1.446 0 2.804 0.411 4.036 1.161 3.143 2.929 5.107 7.089 5.107 11.714z"></path>
</svg>
