<?xml version="1.0" encoding="utf-8"?>
<!-- Generated by IcoMoon.io -->
<!DOCTYPE svg PUBLIC "-//W3C//DTD SVG 1.1//EN" "http://www.w3.org/Graphics/SVG/1.1/DTD/svg11.dtd">
<svg version="1.1" xmlns="http://www.w3.org/2000/svg" xmlns:xlink="http://www.w3.org/1999/xlink" width="32" height="32" viewBox="0 0 32 32">
<path d="M16 0c-8.837 0-16 7.163-16 16s7.163 16 16 16 16-7.163 16-16-7.163-16-16-16zM26.713 12.722l-13.006 13.008c-0.549 0.551-1.397 0.571-1.995 0.117-0.055-0.041-0.119-0.064-0.171-0.117l-7.586-7.589c-0.601-0.599-0.601-1.568 0-2.169l1.081-1.081c0.599-0.601 1.568-0.601 2.167 0l5.417 5.417 10.839-10.841c0.601-0.599 1.57-0.599 2.169 0l1.081 1.081c0.606 0.601 0.606 1.573 0.005 2.174z"></path>
</svg>
