<?xml version="1.0" encoding="utf-8"?>
<!-- Generated by IcoMoon.io -->
<!DOCTYPE svg PUBLIC "-//W3C//DTD SVG 1.1//EN" "http://www.w3.org/Graphics/SVG/1.1/DTD/svg11.dtd">
<svg version="1.1" xmlns="http://www.w3.org/2000/svg" xmlns:xlink="http://www.w3.org/1999/xlink" width="41" height="32" viewBox="0 0 41 32">
<path d="M8.536 29.911c-0.179 0.375-0.696 0.893-1.143 1.071-0.625 0.214-1.393-0.196-1.429-0.625-0.036-0.554 1.339-1.554 1.929-1.661 0.571-0.107 0.839 0.75 0.643 1.214zM32.482 29.911c0.161 0.375 0.679 0.893 1.143 1.071 0.607 0.214 1.393-0.196 1.411-0.625 0.054-0.554-1.339-1.554-1.929-1.661-0.554-0.107-0.821 0.75-0.625 1.214zM33.339 27.964c0.321 0.643 1.589 1.589 2.393 1.804 1.089 0.304 2.125-0.214 2.125-0.982 0-1.179-2.232-2.75-3.268-2.857-0.982-0.125-1.625 1.268-1.25 2.036zM7.643 27.964c-0.321 0.643-1.571 1.589-2.375 1.804-1.089 0.304-2.125-0.214-2.125-0.982 0-1.179 2.232-2.75 3.268-2.857 0.982-0.125 1.625 1.268 1.232 2.036zM20.679 7.893h0.018c-0.482 0-0.946 0.089-1.357 0.268 0.625 0.196 1.089 0.768 1.089 1.429 0 0.839-0.732 1.518-1.643 1.518-0.607 0-1.143-0.321-1.429-0.768-0.054 0.25-0.089 0.482-0.089 0.75 0 1.768 1.518 3.196 3.411 3.196s3.429-1.429 3.429-3.196-1.536-3.196-3.429-3.196zM26.107 4c-2.357-2.589-5.375-3.161-8.321-1.554 1.661-3.714 8.071-3.214 8.321 1.554zM39.5 26.125c0.089 0.125-0.018 0.446-0.196 0.75 0.071 0.232 0.125 0.464 0.125 0.714 0.054 2.089-2.929 4.232-4.857 4.304-1.143 0.054-2.286-0.554-2.821-1.554-7.5 0.268-15 0.321-22.482 0-0.554 1-1.696 1.589-2.839 1.554-1.911-0.071-4.893-2.214-4.857-4.304 0.018-0.25 0.054-0.482 0.125-0.714-0.179-0.304-0.286-0.625-0.196-0.75 0.071-0.107 0.304-0.107 0.554-0.018 0.214-0.339 0.464-0.625 0.732-0.911-0.071-0.304-0.071-0.571 0.036-0.679 0.125-0.107 0.411-0.071 0.696 0.071 0.304-0.214 0.661-0.429 1.054-0.607 0-0.321 0.089-0.571 0.232-0.661 0.214-0.107 0.589-0.036 0.911 0.286 0.375-0.054 0.75-0.054 1.089 0.036 0.232 0.054 0.464 0.179 0.679 0.339v-1.304c-0.107 0-0.196 0-0.321-0.036-1.161-0.214-2.429-1.018-2.714-2.357-0.107-0.446-0.107-0.929 0-1.446 0.214-0.893 0.982-1.411 1.661-1.696 0.054-0.393 0.536-0.929 0.982-1.054 0.5-0.125 0.821 0.304 0.929 0.679h0.232c0.321 0.036 0.839 0.107 1.071 0.411 0.036 0.036 0.071 0.089 0.089 0.125 0.357-0.036 0.732-0.089 1.089-0.125-0.161-0.125-0.339-0.232-0.536-0.304-0.339-0.589-0.911-0.732-1.625-0.768 0-0.054 0-0.107 0.018-0.179-1.304-0.036-2.911-0.375-3.625-1.179-0.821-0.911-0.964-2.464-0.804-3.643 0.143-1.161 0.625-2.5 1.607-3.196 0.554-0.375 1.429-0.054 1.5 0.643 0.036 0.304 0.089 1.339 0.375 1.5 0.321 0.161 0.839 0.232 1.357 0.214 0.536-0.518 1.107-0.964 1.75-1.321-0.982-0.089-1.911 0.107-2.893 0.25l0.839-0.821c0.821-0.786 1.911-1.464 2.911-1.982 1.554-0.786 3.304-1.375 5.036-1.536-1.232-0.518-2.643-0.786-3.946-1.089 5.054-1.071 11.536-1.464 16.143 2.482 1.196 1.018 2.143 2.393 2.821 3.964 0.732 0.089 1.661 0.107 2.161-0.161h0.018c0.286-0.161 0.339-1.179 0.375-1.5 0.071-0.679 0.946-1.018 1.5-0.625 0.982 0.696 1.464 2.036 1.625 3.179 0.143 1.179 0.018 2.732-0.821 3.643-0.714 0.804-2.268 1.161-3.554 1.196v0.179c-0.732 0.018-1.339 0.161-1.696 0.768-0.196 0.071-0.375 0.179-0.554 0.304 0.375 0.036 0.75 0.089 1.107 0.125 0.018-0.054 0.054-0.107 0.089-0.143 0.25-0.286 0.768-0.375 1.071-0.411h0.232c0.107-0.357 0.446-0.786 0.929-0.679s0.929 0.661 0.982 1.054c0.714 0.286 1.464 0.804 1.661 1.696 0.125 0.536 0.107 1 0.018 1.446-0.304 1.339-1.571 2.161-2.732 2.357-0.089 0.018-0.214 0.036-0.304 0.036 0 0.446 0 0.875-0.018 1.304 0.214-0.161 0.429-0.286 0.679-0.339 0.339-0.089 0.714-0.089 1.089-0.036 0.321-0.321 0.714-0.393 0.911-0.286 0.143 0.089 0.25 0.339 0.25 0.661 0.375 0.179 0.75 0.393 1.054 0.607 0.286-0.143 0.554-0.179 0.679-0.071 0.107 0.107 0.125 0.375 0.036 0.679 0.268 0.286 0.536 0.589 0.732 0.911 0.25-0.089 0.464-0.089 0.554 0.018zM34.589 9.125c0 0.411-0.089 0.768-0.161 0.964 1.143 0.446 1.732 1.464 2 2.357 0.071-0.696-0.179-2.607-0.911-3.375-0.482-0.482-0.929-0.339-0.929 0.054zM33.196 10.911v0c0.857 1.036 1.125 2.75 0.839 4.161 0.714-0.143 1.357-0.411 1.732-0.804 0.125-0.143 0.25-0.321 0.321-0.5-0.071-1.411-0.679-2.821-1.964-3.232-0.214 0.214-0.607 0.321-0.929 0.375v0zM32.536 10.982c-0.25 0-0.536 0-0.786-0.018 0.5 1.357 0.821 2.821 0.946 4.268 0.232 0 0.5-0.018 0.768-0.054 0.393-1.607-0.018-3.411-0.929-4.196zM4.607 12.446c0.268-0.893 0.857-1.911 2-2.357-0.071-0.196-0.161-0.554-0.161-0.964 0-0.393-0.464-0.536-0.929-0.054-0.75 0.768-0.982 2.679-0.911 3.375zM5.25 14.268c0.375 0.411 1.018 0.661 1.732 0.804-0.286-1.411-0.018-3.125 0.839-4.161v0 0 0c-0.321-0.054-0.714-0.161-0.929-0.375-1.286 0.411-1.875 1.821-1.964 3.232 0.089 0.179 0.196 0.357 0.321 0.5zM8.411 15.232c0.161-1.464 0.607-2.893 1.304-4.196-0.339 0.071-0.661 0.196-0.982 0.321l-0.804 0.339v-0.018c-0.482 0.929-0.661 2.268-0.357 3.5 0.304 0.036 0.571 0.054 0.839 0.054zM25.607 15.929v0c0.232 1.179 0.321 2.357 0.5 3.536 0.071 0.411 0.196 0.5 0.589 0.304 1.054-0.536 1.5-2.589 1.518-3.768-0.857-0.054-1.732-0.054-2.607-0.071zM20.571 4.482c-2.768 0-5.036 2.25-5.036 5.018 0 2.786 2.268 5.036 5.036 5.036s5.036-2.25 5.036-5.036c0-2.768-2.268-5.018-5.036-5.018zM24.643 15.893c-1.25-0.018-2.518-0.018-3.768 0v-0.018c-0.018 0.339 0.018 2.518 0.286 2.714 0.732 0.357 2.607 0.304 3.375 0.071 0.357-0.107 0.161-2.446 0.107-2.768zM19.857 19.446c0.304-0.161 0.161-3 0.089-3.554v-0.018c-1.286 0.018-2.554 0.018-3.821 0.054-0.125 0.607-0.304 3.232 0.125 3.411 0.857 0.375 2.75 0.339 3.607 0.107zM12.821 16.071c-0.357 1.304 0.018 2.982 1.464 3.625 0.357 0.161 0.571 0.161 0.643-0.286 0.125-0.571 0.161-2.429 0.321-3.446v0c-0.804 0.018-1.625 0.054-2.429 0.107zM10.554 18.321c0.036 0.321-0.25 0.518-0.607 0.643 2.893 3.107 6.125 5.661 10.304 7.036 4.464-1.268 7.643-3.964 10.786-7.071-0.321-0.125-0.571-0.339-0.536-0.607 0.018-0.071 0.036-0.107 0.054-0.161v0 0c-0.589-0.054-1.179-0.125-1.75-0.179-0.625 2.179-2.375 3.5-3.089 2.089-0.179-0.339-0.232-0.768-0.304-1.107-0.25 0.554-0.875 0.536-1.625 0.589-0.875 0.071-2.089 0.089-2.911-0.196-0.196 0.857-0.732 0.857-1.768 0.946-0.929 0.089-3.214 0.268-3.625-0.714-0.071 1.893-2.321 0.661-2.982-0.464-0.214-0.375-0.357-0.75-0.464-1.161-0.518 0.054-1.036 0.107-1.554 0.179 0.036 0.054 0.054 0.125 0.071 0.179zM9.054 29.536c0.036-0.161 0.054-0.339 0.054-0.536-0.375-1.536-1.232-3.286-2.214-3.571-1.482-0.446-4.554 1.554-4.375 3.607 0.839 1.286 2.643 2.357 3.911 2.411 1.179 0.054 2.375-0.732 2.625-1.911zM9.107 26.482c0.214 0.589 0.429 1.375 0.482 2.125 2.214-1.286 4.571-2.357 7-3.107-2.554-1.357-4.5-3.161-6.429-5.089-0.143 0.089-0.339 0.161-0.518 0.232-0.018 0.054-0.018 0.107-0.036 0.161 0.304 0.179 0.518 0.393 0.393 0.661-0.143 0.268-0.571 0.5-1 0.607-0.143 0.179-0.339 0.321-0.518 0.429h-0.018c-0.018 0.893-0.018 1.786 0.018 2.679 0.25 0.446 0.464 0.911 0.625 1.304zM10.339 29.446c6.821 0.268 13.643 0.232 20.446 0-2.429-1.411-4.893-2.732-7.643-3.5-0.911 0.411-1.839 0.75-2.786 1.018-0.143 0.054-0.143 0.054-0.286 0-0.786-0.25-1.536-0.536-2.304-0.875-2.661 0.768-5.107 1.929-7.429 3.357h-0.018v0.018c0.018 0 0.018 0 0.018-0.018zM31.482 28.625c0.054-0.75 0.286-1.554 0.5-2.143 0.143-0.393 0.339-0.839 0.589-1.268l-0.018 0.018c0.036-0.911 0.054-1.821 0.054-2.732-0.196-0.107-0.375-0.268-0.536-0.446-0.429-0.089-0.857-0.339-1-0.589-0.125-0.268 0.089-0.5 0.393-0.679-0.018-0.036-0.036-0.107-0.036-0.161-0.196-0.054-0.357-0.125-0.5-0.214-2.089 1.946-4.321 3.75-6.839 5.071 2.571 0.768 5.018 1.857 7.393 3.143zM38.482 29.036c0.196-2.054-2.875-4.054-4.375-3.607-0.964 0.286-1.839 2.036-2.214 3.571 0 0.196 0.018 0.375 0.054 0.536 0.25 1.179 1.446 1.964 2.625 1.911 1.268-0.054 3.071-1.125 3.911-2.411z"></path>
</svg>
