<?xml version="1.0" encoding="utf-8"?>
<!-- Generated by IcoMoon.io -->
<!DOCTYPE svg PUBLIC "-//W3C//DTD SVG 1.1//EN" "http://www.w3.org/Graphics/SVG/1.1/DTD/svg11.dtd">
<svg version="1.1" xmlns="http://www.w3.org/2000/svg" xmlns:xlink="http://www.w3.org/1999/xlink" width="27" height="32" viewBox="0 0 27 32">
<path d="M27.125 11.536v0c0.232 1.071 0.179 2.304-0.071 3.643-1.161 5.893-5.071 7.929-10.089 7.929h-0.786c-0.607 0-1.107 0.446-1.214 1.054l-0.071 0.339-0.982 6.179-0.036 0.268c-0.125 0.607-0.625 1.054-1.232 1.054h-4.482c-0.5 0-0.821-0.411-0.75-0.911 0.321-2 0.625-4 0.946-6s0.643-3.982 0.964-5.982c0.054-0.429 0.339-0.661 0.768-0.661 0.714 0 1.429-0.018 2.339 0 1.286 0.018 2.768-0.054 4.214-0.375 1.929-0.429 3.679-1.214 5.125-2.571 1.304-1.214 2.179-2.714 2.768-4.393 0.268-0.786 0.482-1.571 0.625-2.375 0.036-0.214 0.089-0.179 0.214-0.089 0.982 0.732 1.536 1.714 1.75 2.893zM24.054 6.5c0 1.464-0.339 2.857-0.821 4.214-0.929 2.696-2.679 4.625-5.393 5.625-1.446 0.518-2.964 0.732-4.5 0.75-1.071 0.018-2.143 0-3.214 0-1.161 0-1.893 0.571-2.107 1.714-0.25 1.357-1.232 7.679-1.518 9.464-0.018 0.125-0.071 0.179-0.214 0.179h-5.268c-0.536 0-0.929-0.464-0.857-0.982l4.143-26.268c0.107-0.679 0.714-1.196 1.411-1.196h10.679c0.768 0 2.536 0.339 3.732 0.804 2.536 0.982 3.929 2.982 3.929 5.696z"></path>
</svg>
