<?xml version="1.0" encoding="utf-8"?>
<!-- Generated by IcoMoon.io -->
<!DOCTYPE svg PUBLIC "-//W3C//DTD SVG 1.1//EN" "http://www.w3.org/Graphics/SVG/1.1/DTD/svg11.dtd">
<svg version="1.1" xmlns="http://www.w3.org/2000/svg" xmlns:xlink="http://www.w3.org/1999/xlink" width="32" height="32" viewBox="0 0 32 32">
<path d="M23.616 9.563c1.801 0 3.266 1.465 3.266 3.266s-1.465 3.266-3.266 3.266c-1.801 0-3.269-1.465-3.269-3.266s1.467-3.266 3.269-3.266zM23.616 7.493c-2.949 0-5.339 2.389-5.339 5.337 0 2.946 2.391 5.337 5.339 5.337 2.946 0 5.337-2.391 5.337-5.337 0.002-2.946-2.389-5.337-5.337-5.337v0z"></path>
<path d="M23.616 21.867c4.409 0 6.235 0.402 6.501 4.482h-13.001c0.265-4.080 2.091-4.482 6.501-4.482zM23.616 20.018c-4.551 0-8.256 0.43-8.382 7.058-0.002 0.117-0.002 1.122-0.002 1.122h16.768c0 0 0-1.006-0.002-1.122-0.126-6.629-3.829-7.058-8.382-7.058v0z"></path>
<path d="M16.245 10.089c0 3.473-2.815 6.288-6.288 6.288s-6.288-2.815-6.288-6.288c0-3.473 2.815-6.288 6.288-6.288s6.288 2.815 6.288 6.288z"></path>
<path d="M18.37 21.152c-1.762-2.359-4.869-2.592-8.416-2.592-5.403 0-9.801 0.507-9.952 8.318 0 0.135-0.002 1.321-0.002 1.321h16.35c0 0 0.002-1.065 0.002-1.186 0.057-2.992 0.807-4.782 2.018-5.861z"></path>
</svg>
