<?xml version="1.0" encoding="utf-8"?>
<!-- Generated by IcoMoon.io -->
<!DOCTYPE svg PUBLIC "-//W3C//DTD SVG 1.1//EN" "http://www.w3.org/Graphics/SVG/1.1/DTD/svg11.dtd">
<svg version="1.1" xmlns="http://www.w3.org/2000/svg" xmlns:xlink="http://www.w3.org/1999/xlink" width="27" height="32" viewBox="0 0 27 32">
<path d="M18.679 18.214c0 1.518-1.036 2.75-2.304 2.75-0.518 0-0.929-0.089-1.25-0.268v-4.946c0.321-0.196 0.732-0.304 1.25-0.304 1.268 0 2.304 1.232 2.304 2.768zM12.554 10.571c0 1.536-1.036 2.768-2.304 2.768-0.518 0-0.929-0.089-1.25-0.268v-4.946c0.321-0.196 0.732-0.304 1.25-0.304 1.268 0 2.304 1.232 2.304 2.75zM22.589 18.268c0-3.196-2.411-5.786-5.375-5.786-0.232 0-0.464 0.018-0.696 0.054-0.268 0.911-0.732 1.732-1.393 2.429-1 1.089-2.339 1.732-3.768 1.804v11.357l3.768-0.732v-3.679c0.625 0.232 1.321 0.339 2.089 0.339 2.964 0 5.375-2.589 5.375-5.786zM16.464 10.643c0-3.196-2.411-5.786-5.393-5.786-0.875 0-1.75 0.232-2.518 0.643h-3.321v15l3.768-0.732v-3.679c0.625 0.214 1.321 0.339 2.071 0.339 2.982 0 5.393-2.589 5.393-5.786zM27.429 7.429v17.143c0 2.839-2.304 5.143-5.143 5.143h-17.143c-2.839 0-5.143-2.304-5.143-5.143v-17.143c0-2.839 2.304-5.143 5.143-5.143h17.143c2.839 0 5.143 2.304 5.143 5.143z"></path>
</svg>
