<?xml version="1.0" encoding="utf-8"?>
<!-- Generated by IcoMoon.io -->
<!DOCTYPE svg PUBLIC "-//W3C//DTD SVG 1.1//EN" "http://www.w3.org/Graphics/SVG/1.1/DTD/svg11.dtd">
<svg version="1.1" xmlns="http://www.w3.org/2000/svg" xmlns:xlink="http://www.w3.org/1999/xlink" width="23" height="32" viewBox="0 0 23 32">
<path d="M0 10.661c0-6.589 6.036-10.661 12.143-10.661 5.607 0 10.714 3.857 10.714 9.768 0 5.554-2.839 11.714-9.161 11.714-1.5 0-3.393-0.75-4.125-2.143-1.357 5.375-1.25 6.179-4.25 10.286l-0.25 0.089-0.161-0.179c-0.107-1.125-0.268-2.232-0.268-3.357 0-3.643 1.679-8.911 2.5-12.446-0.446-0.911-0.571-2.018-0.571-3.018 0-1.804 1.25-4.089 3.286-4.089 1.5 0 2.304 1.143 2.304 2.554 0 2.321-1.571 4.5-1.571 6.75 0 1.536 1.268 2.607 2.75 2.607 4.107 0 5.375-5.929 5.375-9.089 0-4.232-3-6.536-7.054-6.536-4.714 0-8.357 3.393-8.357 8.179 0 2.304 1.411 3.482 1.411 4.036 0 0.464-0.339 2.107-0.929 2.107-0.089 0-0.214-0.036-0.304-0.054-2.554-0.768-3.482-4.179-3.482-6.518z"></path>
</svg>
