<?xml version="1.0" encoding="utf-8"?>
<!-- Generated by IcoMoon.io -->
<!DOCTYPE svg PUBLIC "-//W3C//DTD SVG 1.1//EN" "http://www.w3.org/Graphics/SVG/1.1/DTD/svg11.dtd">
<svg version="1.1" xmlns="http://www.w3.org/2000/svg" xmlns:xlink="http://www.w3.org/1999/xlink" width="27" height="32" viewBox="0 0 27 32">
<path d="M22.857 17.143v-2.286c0-0.625-0.518-1.143-1.143-1.143h-5.714v-5.714c0-0.625-0.518-1.143-1.143-1.143h-2.286c-0.625 0-1.143 0.518-1.143 1.143v5.714h-5.714c-0.625 0-1.143 0.518-1.143 1.143v2.286c0 0.625 0.518 1.143 1.143 1.143h5.714v5.714c0 0.625 0.518 1.143 1.143 1.143h2.286c0.625 0 1.143-0.518 1.143-1.143v-5.714h5.714c0.625 0 1.143-0.518 1.143-1.143zM27.429 7.429v17.143c0 2.839-2.304 5.143-5.143 5.143h-17.143c-2.839 0-5.143-2.304-5.143-5.143v-17.143c0-2.839 2.304-5.143 5.143-5.143h17.143c2.839 0 5.143 2.304 5.143 5.143z"></path>
</svg>
