<?xml version="1.0" encoding="utf-8"?>
<!-- Generated by IcoMoon.io -->
<!DOCTYPE svg PUBLIC "-//W3C//DTD SVG 1.1//EN" "http://www.w3.org/Graphics/SVG/1.1/DTD/svg11.dtd">
<svg version="1.1" xmlns="http://www.w3.org/2000/svg" xmlns:xlink="http://www.w3.org/1999/xlink" width="27" height="32" viewBox="0 0 27 32">
<path d="M13.714 2.286c7.571 0 13.714 6.143 13.714 13.714s-6.143 13.714-13.714 13.714-13.714-6.143-13.714-13.714 6.143-13.714 13.714-13.714zM20.571 16.982c0.357-0.196 0.571-0.571 0.571-0.982s-0.214-0.786-0.571-0.982l-9.714-5.714c-0.339-0.214-0.786-0.214-1.143-0.018-0.357 0.214-0.571 0.589-0.571 1v11.429c0 0.411 0.214 0.786 0.571 1 0.179 0.089 0.375 0.143 0.571 0.143s0.393-0.054 0.571-0.161z"></path>
</svg>
