<?xml version="1.0" encoding="utf-8"?>
<!-- Generated by IcoMoon.io -->
<!DOCTYPE svg PUBLIC "-//W3C//DTD SVG 1.1//EN" "http://www.w3.org/Graphics/SVG/1.1/DTD/svg11.dtd">
<svg version="1.1" xmlns="http://www.w3.org/2000/svg" xmlns:xlink="http://www.w3.org/1999/xlink" width="27" height="32" viewBox="0 0 27 32">
<path d="M22.286 2.286c2.839 0 5.143 2.304 5.143 5.143v17.143c0 2.839-2.304 5.143-5.143 5.143h-12.946c0.589-0.839 1.554-2.286 1.929-3.75 0 0 0.161-0.607 0.946-3.732 0.482 0.911 1.857 1.696 3.321 1.696 4.357 0 7.321-3.982 7.321-9.304 0-4.018-3.411-7.768-8.589-7.768-6.446 0-9.696 4.625-9.696 8.482 0 2.321 0.893 4.393 2.786 5.179 0.304 0.125 0.589 0 0.679-0.339 0.054-0.232 0.196-0.839 0.268-1.089 0.089-0.339 0.054-0.464-0.196-0.75-0.536-0.661-0.893-1.482-0.893-2.679 0-3.429 2.571-6.482 6.679-6.482 3.643 0 5.643 2.214 5.643 5.196 0 3.911-1.732 7.214-4.304 7.214-1.411 0-2.482-1.179-2.143-2.625 0.411-1.714 1.196-3.571 1.196-4.804 0-1.107-0.589-2.036-1.821-2.036-1.446 0-2.607 1.5-2.607 3.5 0 0 0 1.286 0.429 2.161-1.482 6.286-1.75 7.393-1.75 7.393-0.393 1.643-0.232 3.554-0.125 4.536h-3.268c-2.839 0-5.143-2.304-5.143-5.143v-17.143c0-2.839 2.304-5.143 5.143-5.143h17.143z"></path>
</svg>
