<?xml version="1.0" encoding="utf-8"?>
<!-- Generated by IcoMoon.io -->
<!DOCTYPE svg PUBLIC "-//W3C//DTD SVG 1.1//EN" "http://www.w3.org/Graphics/SVG/1.1/DTD/svg11.dtd">
<svg version="1.1" xmlns="http://www.w3.org/2000/svg" xmlns:xlink="http://www.w3.org/1999/xlink" width="25" height="32" viewBox="0 0 25 32">
<path d="M6.857 20.571v2.286h-2.286v-2.286h2.286zM6.857 6.857v2.286h-2.286v-2.286h2.286zM20.571 6.857v2.286h-2.286v-2.286h2.286zM2.286 25.125h6.857v-6.839h-6.857v6.839zM2.286 11.429h6.857v-6.857h-6.857v6.857zM16 11.429h6.857v-6.857h-6.857v6.857zM11.429 16v11.429h-11.429v-11.429h11.429zM20.571 25.143v2.286h-2.286v-2.286h2.286zM25.143 25.143v2.286h-2.286v-2.286h2.286zM25.143 16v6.857h-6.857v-2.286h-2.286v6.857h-2.286v-11.429h6.857v2.286h2.286v-2.286h2.286zM11.429 2.286v11.429h-11.429v-11.429h11.429zM25.143 2.286v11.429h-11.429v-11.429h11.429z"></path>
</svg>
