<?xml version="1.0" encoding="utf-8"?>
<!-- Generated by IcoMoon.io -->
<!DOCTYPE svg PUBLIC "-//W3C//DTD SVG 1.1//EN" "http://www.w3.org/Graphics/SVG/1.1/DTD/svg11.dtd">
<svg version="1.1" xmlns="http://www.w3.org/2000/svg" xmlns:xlink="http://www.w3.org/1999/xlink" width="32" height="32" viewBox="0 0 32 32">
<path d="M14.457 22.551c-2.816 0-5.634 0-8.455 0-0.786-0.341-1.33-0.809-1.481-1.483-0.448-1.968 0.519-5.275 2.51-5.257 0.683 0.011 1.394 0.725 2.171 0.917 0.77 0.187 1.502 0.183 2.169 0 0.935-0.254 1.319-0.944 2.169-0.917 2.514 0.091 3.559 6.199 0.917 6.741z"></path>
<path d="M13.351 13.065c0 1.736-1.407 3.143-3.143 3.143s-3.143-1.407-3.143-3.143c0-1.736 1.407-3.143 3.143-3.143s3.143 1.407 3.143 3.143z"></path>
<path d="M29.961 7.074c0.016 0.021 0.039 0.059 0.039 0.133v17.589c0 0.080-0.030 0.123-0.021 0.133l-27.929 0.014c0-0.002-0.050-0.041-0.050-0.149v-17.586c0-0.078 0.030-0.121 0.021-0.13l27.941-0.002zM30 5.074h-28c-1.106 0-2 0.958-2 2.13v17.589c0 1.179 0.894 2.133 2 2.133h28c1.106 0 2-0.953 2-2.133v-17.586c0-1.175-0.894-2.133-2-2.133v0z"></path>
<path d="M18.75 10.928h9.246v1.998h-9.246v-1.998z"></path>
<path d="M18.75 15.239h9.246v2h-9.246v-2z"></path>
<path d="M18.75 19.552h9.246v2h-9.246v-2z"></path>
</svg>
