<?xml version="1.0" encoding="utf-8"?>
<!-- Generated by IcoMoon.io -->
<!DOCTYPE svg PUBLIC "-//W3C//DTD SVG 1.1//EN" "http://www.w3.org/Graphics/SVG/1.1/DTD/svg11.dtd">
<svg version="1.1" xmlns="http://www.w3.org/2000/svg" xmlns:xlink="http://www.w3.org/1999/xlink" width="32" height="32" viewBox="0 0 32 32">
<path d="M20.536 13.607c0 1.321-1.071 2.393-2.411 2.393v0h-4.518v-4.804h4.518c1.339 0 2.411 1.071 2.411 2.411zM23.732 13.607c0-3.107-2.5-5.607-5.607-5.607v0h-7.732v16h3.214v-4.804h4.518c3.107 0 5.607-2.5 5.607-5.589zM32 16c0 8.839-7.161 16-16 16s-16-7.161-16-16 7.161-16 16-16 16 7.161 16 16z"></path>
</svg>
