<?xml version="1.0" encoding="utf-8"?>
<!-- Generated by IcoMoon.io -->
<!DOCTYPE svg PUBLIC "-//W3C//DTD SVG 1.1//EN" "http://www.w3.org/Graphics/SVG/1.1/DTD/svg11.dtd">
<svg version="1.1" xmlns="http://www.w3.org/2000/svg" xmlns:xlink="http://www.w3.org/1999/xlink" width="32" height="32" viewBox="0 0 32 32">
<path d="M2.286 25.143h18.286v-2.286h-18.286v2.286zM2.286 16h18.286v-2.286h-18.286v2.286zM30.286 24c0-0.946-0.768-1.714-1.714-1.714s-1.714 0.768-1.714 1.714 0.768 1.714 1.714 1.714 1.714-0.768 1.714-1.714zM2.286 6.857h18.286v-2.286h-18.286v2.286zM30.286 14.857c0-0.946-0.768-1.714-1.714-1.714s-1.714 0.768-1.714 1.714 0.768 1.714 1.714 1.714 1.714-0.768 1.714-1.714zM30.286 5.714c0-0.946-0.768-1.714-1.714-1.714s-1.714 0.768-1.714 1.714 0.768 1.714 1.714 1.714 1.714-0.768 1.714-1.714zM32 20.571v6.857h-32v-6.857h32zM32 11.429v6.857h-32v-6.857h32zM32 2.286v6.857h-32v-6.857h32z"></path>
</svg>
