<?xml version="1.0" encoding="utf-8"?>
<!-- Generated by IcoMoon.io -->
<!DOCTYPE svg PUBLIC "-//W3C//DTD SVG 1.1//EN" "http://www.w3.org/Graphics/SVG/1.1/DTD/svg11.dtd">
<svg version="1.1" xmlns="http://www.w3.org/2000/svg" xmlns:xlink="http://www.w3.org/1999/xlink" width="32" height="32" viewBox="0 0 32 32">
<path d="M32 15.107c0 1.393-0.786 2.589-1.946 3.179 0.143 0.554 0.214 1.125 0.214 1.714 0 5.643-6.375 10.214-14.232 10.214-7.839 0-14.214-4.571-14.214-10.214 0-0.571 0.071-1.143 0.196-1.679-1.196-0.589-2.018-1.804-2.018-3.214 0-1.964 1.589-3.554 3.554-3.554 1.018 0 1.929 0.429 2.589 1.125 2.411-1.679 5.625-2.768 9.196-2.893l2.071-9.304c0.071-0.321 0.411-0.536 0.732-0.464l6.589 1.446c0.429-0.857 1.339-1.464 2.375-1.464 1.482 0 2.679 1.196 2.679 2.661 0 1.482-1.196 2.679-2.679 2.679-1.464 0-2.661-1.196-2.661-2.661l-5.964-1.321-1.857 8.429c3.589 0.107 6.839 1.179 9.268 2.857 0.643-0.679 1.554-1.089 2.554-1.089 1.964 0 3.554 1.589 3.554 3.554zM7.464 18.661c0 1.482 1.196 2.679 2.661 2.679 1.482 0 2.679-1.196 2.679-2.679 0-1.464-1.196-2.661-2.679-2.661-1.464 0-2.661 1.196-2.661 2.661zM21.929 25c0.268-0.268 0.268-0.661 0-0.929-0.25-0.25-0.661-0.25-0.911 0-1.071 1.089-3.375 1.464-5.018 1.464s-3.946-0.375-5.018-1.464c-0.25-0.25-0.661-0.25-0.911 0-0.268 0.25-0.268 0.661 0 0.929 1.696 1.696 4.964 1.821 5.929 1.821s4.232-0.125 5.929-1.821zM21.875 21.339c1.464 0 2.661-1.196 2.661-2.679 0-1.464-1.196-2.661-2.661-2.661-1.482 0-2.679 1.196-2.679 2.661 0 1.482 1.196 2.679 2.679 2.679z"></path>
</svg>
