<?xml version="1.0" encoding="utf-8"?>
<!-- Generated by IcoMoon.io -->
<!DOCTYPE svg PUBLIC "-//W3C//DTD SVG 1.1//EN" "http://www.w3.org/Graphics/SVG/1.1/DTD/svg11.dtd">
<svg version="1.1" xmlns="http://www.w3.org/2000/svg" xmlns:xlink="http://www.w3.org/1999/xlink" width="32" height="32" viewBox="0 0 32 32">
<path d="M26.667 22.229c0-1.223-0.434-2.27-1.303-3.145s-1.913-1.312-3.136-1.312c-1.168 0-2.174 0.402-3.022 1.209l-5.022-2.501c0.027-0.222 0.041-0.382 0.041-0.478s-0.014-0.256-0.041-0.478l5.022-2.501c0.848 0.805 1.854 1.207 3.022 1.207 1.223 0 2.267-0.437 3.136-1.312s1.303-1.922 1.303-3.145c0-1.223-0.434-2.267-1.303-3.136s-1.913-1.303-3.136-1.303c-1.223 0-2.27 0.434-3.145 1.303s-1.312 1.913-1.312 3.136c0 0.096 0.014 0.256 0.041 0.478l-5.022 2.501c-0.862-0.791-1.867-1.189-3.022-1.189-1.223 0-2.267 0.434-3.136 1.303s-1.303 1.913-1.303 3.136c0 1.223 0.434 2.267 1.303 3.136s1.913 1.303 3.136 1.303c1.152 0 2.16-0.395 3.022-1.189l5.022 2.501c-0.027 0.222-0.041 0.382-0.041 0.478 0 1.223 0.437 2.267 1.312 3.136s1.922 1.303 3.145 1.303c1.223 0 2.267-0.434 3.136-1.303s1.303-1.913 1.303-3.136v-0.002zM32 6v20c0 1.653-0.587 3.065-1.76 4.24s-2.587 1.76-4.24 1.76h-20c-1.653 0-3.065-0.587-4.24-1.76s-1.76-2.587-1.76-4.24v-20c0-1.653 0.587-3.065 1.76-4.24s2.587-1.76 4.24-1.76h20c1.653 0 3.065 0.587 4.24 1.76s1.76 2.587 1.76 4.24z"></path>
</svg>
