<?xml version="1.0" encoding="utf-8"?>
<!-- Generated by IcoMoon.io -->
<!DOCTYPE svg PUBLIC "-//W3C//DTD SVG 1.1//EN" "http://www.w3.org/Graphics/SVG/1.1/DTD/svg11.dtd">
<svg version="1.1" xmlns="http://www.w3.org/2000/svg" xmlns:xlink="http://www.w3.org/1999/xlink" width="32" height="32" viewBox="0 0 32 32">
<path d="M0 9.054h5.573v4.571h-5.573v-4.571z"></path>
<path d="M9.168 9.054h5.653v4.571h-5.653v-4.571z"></path>
<path d="M18.382 9.054h5.643v4.571h-5.643v-4.571z"></path>
<path d="M0 18.197h5.573v4.571h-5.573v-4.571z"></path>
<path d="M9.168 18.197h5.653v4.571h-5.653v-4.571z"></path>
<path d="M18.382 18.197h5.643v4.571h-5.643v-4.571z"></path>
<path d="M0 27.429h5.573v4.571h-5.573v-4.571z"></path>
<path d="M9.168 27.429h5.653v4.571h-5.653v-4.571z"></path>
<path d="M27.287 9.054h4.713v4.571h-4.713v-4.571z"></path>
<path d="M0 0.009h32v4.571h-32v-4.571z"></path>
</svg>
