<?xml version="1.0" encoding="utf-8"?>
<!-- Generated by IcoMoon.io -->
<!DOCTYPE svg PUBLIC "-//W3C//DTD SVG 1.1//EN" "http://www.w3.org/Graphics/SVG/1.1/DTD/svg11.dtd">
<svg version="1.1" xmlns="http://www.w3.org/2000/svg" xmlns:xlink="http://www.w3.org/1999/xlink" width="27" height="32" viewBox="0 0 27 32">
<path d="M22.839 20.5c0-0.25-0.143-0.429-0.393-0.482-1.625-0.357-2.857-1.482-3.536-2.982-0.054-0.143-0.125-0.286-0.125-0.446 0-0.804 2.232-0.643 2.232-1.786 0-0.482-0.589-0.786-1.018-0.786-0.411 0-0.732 0.286-1.125 0.286-0.071 0-0.143-0.018-0.214-0.036 0.036-0.679 0.089-1.357 0.089-2.036 0-0.625-0.036-1.482-0.304-2.036-0.857-1.857-2.518-2.946-4.554-2.946-2.232 0-3.929 0.821-4.911 2.946-0.268 0.554-0.304 1.411-0.304 2.036 0 0.679 0.054 1.357 0.089 2.036-0.071 0.036-0.161 0.036-0.25 0.036-0.411 0-0.732-0.268-1.107-0.268-0.446 0-1 0.286-1 0.786 0 1.107 2.232 0.964 2.232 1.768 0 0.161-0.071 0.304-0.125 0.446-0.696 1.5-1.893 2.625-3.536 2.982-0.25 0.054-0.393 0.232-0.393 0.482 0 0.821 1.893 1.125 2.446 1.214 0.161 0.429 0.089 1.179 0.732 1.179 0.446 0 0.893-0.161 1.375-0.161 1.875 0 2.375 1.696 4.554 1.696 2.268 0 2.696-1.696 4.589-1.696 0.482 0 0.929 0.143 1.393 0.143 0.625 0 0.554-0.75 0.714-1.161 0.554-0.089 2.446-0.393 2.446-1.214zM27.429 16c0 7.571-6.143 13.714-13.714 13.714s-13.714-6.143-13.714-13.714 6.143-13.714 13.714-13.714 13.714 6.143 13.714 13.714z"></path>
</svg>
