<?xml version="1.0" encoding="utf-8"?>
<!-- Generated by IcoMoon.io -->
<!DOCTYPE svg PUBLIC "-//W3C//DTD SVG 1.1//EN" "http://www.w3.org/Graphics/SVG/1.1/DTD/svg11.dtd">
<svg version="1.1" xmlns="http://www.w3.org/2000/svg" xmlns:xlink="http://www.w3.org/1999/xlink" width="37" height="32" viewBox="0 0 37 32">
<path d="M25.536 10.411c0 0-0.018-0.018 0 0v0zM30.179 14.054c3.464 0 6.393 2.589 6.393 6.125 0 3.768-3 6.536-6.714 6.536-9.482 0-11.232-14.268-20.554-14.268-3.607 0-6.232 2.304-6.232 6 0 3.821 2.857 6.125 6.554 6.125 2.429 0 5.196-1.018 7.161-2.429 0.321-0.232 0.964-0.929 1.304-0.929s0.625 0.286 0.625 0.625c0 0.446-0.75 1.089-1.071 1.375-2.339 2.036-5.732 3.5-8.839 3.5-4.768 0-8.804-3.375-8.804-8.286s3.857-8.518 8.732-8.518c10.589 0 12.714 14.054 20.679 14.054 2.393 0 4.196-1.554 4.196-4 0-2.268-1.75-3.982-4-3.982-1 0-2 0.661-2.679 0.661-0.482 0-0.911-0.411-0.911-0.893 0-0.661 0.304-1.357 0.304-2.071 0-3.804-2.911-6.554-6.679-6.554-3.036 0-4.571 2.107-5.071 2.107-0.357 0-0.643-0.286-0.643-0.643 0-0.321 0.232-0.589 0.446-0.821 1.446-1.643 3.696-2.5 5.875-2.5 4.536 0 7.946 3.339 7.946 7.875 0 0.393-0.018 0.786-0.071 1.179 0.679-0.179 1.375-0.268 2.054-0.268z"></path>
</svg>
