<?xml version="1.0" encoding="utf-8"?>
<!-- Generated by IcoMoon.io -->
<!DOCTYPE svg PUBLIC "-//W3C//DTD SVG 1.1//EN" "http://www.w3.org/Graphics/SVG/1.1/DTD/svg11.dtd">
<svg version="1.1" xmlns="http://www.w3.org/2000/svg" xmlns:xlink="http://www.w3.org/1999/xlink" width="41" height="32" viewBox="0 0 41 32">
<path d="M14 24.5l0.286-4.304-0.286-9.339c-0.018-0.232-0.196-0.429-0.429-0.429-0.214 0-0.411 0.196-0.411 0.429l-0.25 9.339 0.25 4.304c0.018 0.232 0.196 0.411 0.411 0.411 0.232 0 0.411-0.179 0.429-0.411zM19.286 23.982l0.196-3.768-0.214-10.464c0-0.179-0.089-0.339-0.232-0.429-0.089-0.054-0.179-0.089-0.286-0.089s-0.196 0.036-0.286 0.089c-0.143 0.089-0.232 0.25-0.232 0.429l-0.018 0.107-0.179 10.339s0 0.018 0.196 4.214v0.018c0 0.107 0.036 0.214 0.107 0.304 0.107 0.125 0.25 0.196 0.411 0.196 0.143 0 0.268-0.071 0.357-0.161 0.107-0.089 0.161-0.214 0.161-0.357zM0.625 17.911l0.357 2.286-0.357 2.25c-0.018 0.089-0.071 0.161-0.161 0.161s-0.143-0.071-0.161-0.161l-0.304-2.25 0.304-2.286c0.018-0.089 0.071-0.161 0.161-0.161s0.143 0.071 0.161 0.161zM2.161 16.5l0.464 3.696-0.464 3.625c-0.018 0.089-0.089 0.161-0.179 0.161s-0.161-0.071-0.161-0.179l-0.411-3.607 0.411-3.696c0-0.089 0.071-0.161 0.161-0.161s0.161 0.071 0.179 0.161zM7.161 24.589v0 0zM3.804 15.821l0.446 4.375-0.446 4.232c0 0.107-0.089 0.196-0.196 0.196s-0.196-0.089-0.214-0.196l-0.375-4.232 0.375-4.375c0.018-0.125 0.107-0.214 0.214-0.214s0.196 0.089 0.196 0.214zM5.482 15.696l0.411 4.5-0.411 4.357c-0.018 0.143-0.125 0.232-0.25 0.232s-0.232-0.089-0.232-0.232l-0.375-4.357 0.375-4.5c0-0.143 0.107-0.232 0.232-0.232s0.232 0.089 0.25 0.232zM7.161 16.018l0.375 4.179-0.375 4.393c-0.018 0.161-0.143 0.286-0.286 0.286s-0.268-0.125-0.268-0.286l-0.357-4.393 0.357-4.179c0-0.143 0.125-0.268 0.268-0.268s0.268 0.125 0.286 0.268zM14 24.5v0 0zM8.839 13.411l0.375 6.786-0.375 4.393c0 0.179-0.143 0.321-0.304 0.321-0.179 0-0.304-0.143-0.321-0.321l-0.321-4.393 0.321-6.786c0.018-0.179 0.143-0.321 0.321-0.321 0.161 0 0.304 0.143 0.304 0.321zM10.518 11.875l0.339 8.357-0.339 4.357c0 0.196-0.161 0.339-0.339 0.339-0.196 0-0.339-0.143-0.357-0.339l-0.286-4.357 0.286-8.357c0.018-0.196 0.161-0.339 0.357-0.339 0.179 0 0.339 0.143 0.339 0.339zM12.268 11.161l0.321 9.036-0.321 4.321c-0.018 0.214-0.179 0.375-0.393 0.375-0.196 0-0.357-0.161-0.375-0.375l-0.286-4.321 0.286-9.036c0-0.214 0.179-0.393 0.375-0.393 0.214 0 0.375 0.179 0.393 0.393zM19.268 24.411v0 0 0 0 0 0zM15.732 11.089l0.268 9.107-0.268 4.268c0 0.25-0.196 0.446-0.446 0.446s-0.429-0.196-0.446-0.446l-0.25-4.268 0.25-9.107c0-0.25 0.196-0.446 0.446-0.446s0.446 0.196 0.446 0.446zM17.5 11.429l0.25 8.786-0.25 4.214c0 0.268-0.214 0.482-0.482 0.482s-0.482-0.214-0.5-0.482l-0.214-4.214 0.214-8.786c0.018-0.286 0.232-0.5 0.5-0.5s0.464 0.214 0.482 0.5zM21.286 20.214l-0.25 4.125c0 0.304-0.25 0.554-0.554 0.554s-0.554-0.25-0.571-0.554l-0.107-2.036-0.107-2.089 0.214-11.357v-0.054c0.018-0.161 0.089-0.321 0.214-0.429 0.089-0.071 0.214-0.125 0.357-0.125 0.089 0 0.196 0.036 0.268 0.089 0.161 0.089 0.268 0.268 0.286 0.464zM41.143 19.875c0 2.786-2.268 5.036-5.054 5.036h-14.036c-0.304-0.036-0.554-0.268-0.554-0.589v-16.054c0-0.304 0.107-0.446 0.5-0.589 0.982-0.393 2.089-0.607 3.232-0.607 4.661 0 8.482 3.571 8.893 8.125 0.607-0.25 1.268-0.393 1.964-0.393 2.786 0 5.054 2.268 5.054 5.071z"></path>
</svg>
