<?xml version="1.0" encoding="utf-8"?>
<!-- Generated by IcoMoon.io -->
<!DOCTYPE svg PUBLIC "-//W3C//DTD SVG 1.1//EN" "http://www.w3.org/Graphics/SVG/1.1/DTD/svg11.dtd">
<svg version="1.1" xmlns="http://www.w3.org/2000/svg" xmlns:xlink="http://www.w3.org/1999/xlink" width="27" height="32" viewBox="0 0 27 32">
<path d="M13.714 2.286c7.571 0 13.714 6.143 13.714 13.714s-6.143 13.714-13.714 13.714-13.714-6.143-13.714-13.714 6.143-13.714 13.714-13.714zM13.714 25.714c5.357 0 9.714-4.357 9.714-9.714s-4.357-9.714-9.714-9.714-9.714 4.357-9.714 9.714 4.357 9.714 9.714 9.714zM8.571 21.714c-0.321 0-0.571-0.25-0.571-0.571v-10.286c0-0.321 0.25-0.571 0.571-0.571h10.286c0.321 0 0.571 0.25 0.571 0.571v10.286c0 0.321-0.25 0.571-0.571 0.571h-10.286z"></path>
</svg>
