<?xml version="1.0" encoding="utf-8"?>
<!-- Generated by IcoMoon.io -->
<!DOCTYPE svg PUBLIC "-//W3C//DTD SVG 1.1//EN" "http://www.w3.org/Graphics/SVG/1.1/DTD/svg11.dtd">
<svg version="1.1" xmlns="http://www.w3.org/2000/svg" xmlns:xlink="http://www.w3.org/1999/xlink" width="32" height="32" viewBox="0 0 32 32">
<path d="M15.214 5.518c0 0.643-0.411 1.357-1.107 1.357-0.714 0-1.107-0.714-1.107-1.357 0-0.625 0.393-1.357 1.107-1.357 0.696 0 1.107 0.732 1.107 1.357zM12.286 30.089v-2.036c0-0.696-0.554-1.304-1.268-1.304s-1.25 0.607-1.25 1.304v2.036c0 0.696 0.536 1.321 1.25 1.321s1.268-0.607 1.268-1.321zM15.357 30.089v-2.036c0-0.696-0.536-1.304-1.25-1.304s-1.268 0.607-1.268 1.304v2.036c0 0.696 0.554 1.321 1.268 1.321s1.25-0.625 1.25-1.321zM18.464 30.089v-2.036c0-0.696-0.554-1.304-1.268-1.304s-1.268 0.607-1.268 1.304v2.036c0 0.696 0.554 1.321 1.268 1.321s1.268-0.607 1.268-1.321zM21.571 30.089v-2.036c0-0.696-0.554-1.304-1.268-1.304s-1.268 0.607-1.268 1.304v2.036c0 0.696 0.554 1.321 1.268 1.321s1.268-0.625 1.268-1.321zM26.357 17.875c-1.929 3.696-5.643 6.411-9.911 6.411-6.036 0-10.036-5.286-10.036-11.036 0-1.054 0.125-2.089 0.375-3.107-1.25 2.107-1.857 4.536-1.857 6.964 0 3.768 1.554 7.607 4.464 10.054 0.321-0.607 0.929-1.018 1.625-1.018 0.625 0 1.214 0.357 1.536 0.893 0.339-0.536 0.911-0.893 1.554-0.893 0.625 0 1.214 0.357 1.536 0.893 0.339-0.536 0.929-0.893 1.554-0.893s1.214 0.357 1.554 0.893c0.321-0.536 0.911-0.893 1.536-0.893 0.679 0 1.304 0.411 1.607 1 2.714-2.268 4.286-5.75 4.464-9.268zM23.679 17.357c0-0.893-0.393-1.339-1.286-1.339-0.286 0-0.571 0.054-0.839 0.107-0.893 0.179-1.768 0.339-2.661 0.339-2.821 0-4.036-1.643-4.036-4.339 0-1.232 0.232-2.446 0.536-3.643-0.946 1.446-1.482 3.179-1.482 4.911 0 3.375 2.143 6.625 5.786 6.625 1.339 0 2.661-0.482 3.75-1.25 0.125-0.464 0.232-0.929 0.232-1.411zM15.786 5.589c0-1.125-0.786-2.304-2.018-2.304s-2.018 1.179-2.018 2.304c0 1.143 0.786 2.321 2.018 2.321s2.018-1.179 2.018-2.321zM27.018 11.643c0-3.357-2.161-6.607-5.786-6.607-1.893 0-3.661 0.946-4.929 2.304-0.446 1.482-0.857 3.214-0.857 4.786 0 2.375 0.946 3.75 3.446 3.75 0.857 0 1.696-0.161 2.536-0.339 0.321-0.054 0.625-0.107 0.946-0.107 1.232 0 1.857 0.714 1.857 1.929 0 0.268-0.018 0.554-0.071 0.821 1.804-1.625 2.857-4.107 2.857-6.536zM32 15.518c0 2.25-0.714 6.393-2.268 8.107-1.429 1.554-5.464 3.821-7.554 4.411l-0.071 0.018v2.036c0 1.018-0.786 1.911-1.821 1.911-0.625 0-1.214-0.357-1.536-0.893-0.339 0.536-0.929 0.893-1.554 0.893s-1.214-0.357-1.554-0.893c-0.321 0.536-0.911 0.893-1.536 0.893-0.643 0-1.214-0.357-1.554-0.893-0.321 0.536-0.911 0.893-1.536 0.893-1.179 0-1.839-0.982-1.839-2.054-1.018 0.768-2.232 1.214-3.536 1.214-1.375 0-2.714-0.518-3.768-1.429 0.643-0.018 1.286-0.143 1.893-0.357-1.304-0.357-2.464-1.179-3.25-2.268 0.411 0.089 0.839 0.125 1.268 0.125 1.036 0 2.054-0.286 2.929-0.821-1.375-1.375-3.536-3.679-4.286-5.464-0.357-0.839-0.429-1.964-0.429-2.857 0-3.107 1.268-10 5.393-10 0.661 0 1.179 0.304 1.446 0.929 0.232-0.339 0.482-0.661 0.75-0.964 0.125-0.161 0.357-0.339 0.446-0.518 0.5-0.786 0.732-1.321 1.357-2.125 2.018-2.571 5.107-4.339 8.429-4.339 0.375 0 0.75 0.018 1.107 0.071 0.679-0.732 1.625-1.143 2.607-1.143 0.911 0 1.857 0.375 2.5 1.018 0.054 0.054 0.089 0.143 0.089 0.214 0 0.232-0.643 0.839-0.804 1.018 0.268 0.089 0.982 0.429 0.982 0.75 0 0.179-0.179 0.321-0.286 0.446 1.964 1.732 3.089 4.196 3.518 6.75 0.268-0.321 0.643-0.536 1.071-0.536 0.661 0 1.304 0.446 1.786 0.875 1.304 1.161 1.607 3.321 1.607 4.982z"></path>
</svg>
