<?xml version="1.0" encoding="utf-8"?>
<!-- Generated by IcoMoon.io -->
<!DOCTYPE svg PUBLIC "-//W3C//DTD SVG 1.1//EN" "http://www.w3.org/Graphics/SVG/1.1/DTD/svg11.dtd">
<svg version="1.1" xmlns="http://www.w3.org/2000/svg" xmlns:xlink="http://www.w3.org/1999/xlink" width="27" height="32" viewBox="0 0 27 32">
<path d="M18.75 18.589c0-0.893-0.161-1.786-0.5-2.625-0.464 0.286-0.982 0.5-1.518 0.607 0.286 0.643 0.393 1.339 0.393 2.036 0 2.75-2.036 5-4.821 5-2.804 0-4.839-2.25-4.839-5 0-2.696 2.054-5.071 4.839-5.071 0.607 0 1.196 0.107 1.75 0.339 0.054-0.536 0.232-1.071 0.482-1.554-0.714-0.25-1.464-0.375-2.232-0.375-3.696 0-6.446 2.982-6.446 6.643s2.768 6.554 6.446 6.554 6.446-2.911 6.446-6.554zM15.571 12.25c0.036 0.429 0.036 0.857 0.036 1.268 0 3.304-0.643 8.679-4.196 10.036 0.25 0.036 0.5 0.054 0.75 0.054h0.179c2.643-1.679 3.911-4.25 3.911-7.339 0-1.375-0.232-2.732-0.679-4.018zM15.571 12.25c-0.089-1.732-1.071-4.411-2.536-5.393 1 1.696 1.893 3.518 2.536 5.393zM21.554 10.375c0-1.089-0.268-2.196-0.911-3.107-0.429 0.911-1.232 1.679-2.214 1.946-1.411 0.393-2.661 1.054-2.661 2.732 0 0.482 0.161 0.964 0.429 1.375 1.696-0.393 3.5-1.643 4.214-3.25-0.107 1.429-2.768 3.161-3.804 3.732 0.518 0.518 1.196 0.929 1.964 0.929 1.304 0 2.232-1.161 2.679-2.268 0.214-0.536 0.304-1.536 0.304-2.089zM27.429 7.429v17.143c0 2.839-2.304 5.143-5.143 5.143h-17.143c-2.839 0-5.143-2.304-5.143-5.143v-17.143c0-2.839 2.304-5.143 5.143-5.143h17.143c2.839 0 5.143 2.304 5.143 5.143z"></path>
</svg>
