<?xml version="1.0" encoding="utf-8"?>
<!-- Generated by IcoMoon.io -->
<!DOCTYPE svg PUBLIC "-//W3C//DTD SVG 1.1//EN" "http://www.w3.org/Graphics/SVG/1.1/DTD/svg11.dtd">
<svg version="1.1" xmlns="http://www.w3.org/2000/svg" xmlns:xlink="http://www.w3.org/1999/xlink" width="27" height="32" viewBox="0 0 27 32">
<path d="M22.857 10.893c-0.679 0.304-1.393 0.5-2.161 0.607 0.786-0.464 1.375-1.214 1.661-2.089-0.732 0.429-1.536 0.75-2.393 0.911-0.679-0.732-1.661-1.179-2.732-1.179-2.071 0-3.75 1.679-3.75 3.75 0 0.286 0.018 0.589 0.089 0.857-3.125-0.161-5.893-1.643-7.75-3.929-0.321 0.554-0.518 1.214-0.518 1.893 0 1.304 0.607 2.446 1.625 3.125-0.625-0.018-1.214-0.196-1.786-0.464v0.036c0 1.821 1.375 3.339 3.089 3.679-0.321 0.089-0.571 0.143-0.911 0.143-0.232 0-0.464-0.036-0.696-0.071 0.482 1.482 1.857 2.571 3.5 2.607-1.286 1-2.893 1.607-4.661 1.607-0.304 0-0.607-0.018-0.893-0.054 1.661 1.054 3.625 1.679 5.75 1.679 6.893 0 10.679-5.714 10.679-10.679 0-0.161 0-0.321-0.018-0.482 0.732-0.518 1.375-1.179 1.875-1.946zM27.429 7.429v17.143c0 2.839-2.304 5.143-5.143 5.143h-17.143c-2.839 0-5.143-2.304-5.143-5.143v-17.143c0-2.839 2.304-5.143 5.143-5.143h17.143c2.839 0 5.143 2.304 5.143 5.143z"></path>
</svg>
