<?xml version="1.0" encoding="utf-8"?>
<!-- Generated by IcoMoon.io -->
<!DOCTYPE svg PUBLIC "-//W3C//DTD SVG 1.1//EN" "http://www.w3.org/Graphics/SVG/1.1/DTD/svg11.dtd">
<svg version="1.1" xmlns="http://www.w3.org/2000/svg" xmlns:xlink="http://www.w3.org/1999/xlink" width="30" height="32" viewBox="0 0 30 32">
<path d="M6.054 3.893h12.339l-0.464 1.286h-11.875c-2.625 0-4.768 2.161-4.768 4.786v13.768c0 2.25 1.607 4.232 3.821 4.696 0.571 0.125 1.161 0.089 1.75 0.089v1.286h-0.804c-3.339 0-6.054-2.732-6.054-6.071v-13.768c0-3.339 2.714-6.071 6.054-6.071zM21.25 0h4.411l-8.607 23.107c-1.607 4.286-3.554 8.75-8.839 8.893v-3.482c1.982-0.321 3.25-1.411 3.929-3.25 0.232-0.607 0.357-1.232 0.357-1.875s-0.125-1.286-0.357-1.893l-5.089-13.089h4.071l3.339 10.446zM29.714 9.964v19.839h-14.196c0.286-0.429 0.589-0.839 0.804-1.304h12.107v-18.536c0-2.036-1.286-3.857-3.196-4.536l0.446-1.196c2.429 0.821 4.036 3.179 4.036 5.732z"></path>
</svg>
