<svg xmlns="http://www.w3.org/2000/svg" width="34" height="32"><path d="M6.857 28.571v-2.286c0-.625-.518-1.143-1.143-1.143H3.428c-.625 0-1.143.518-1.143 1.143v2.286c0 .625.518 1.143 1.143 1.143h2.286c.625 0 1.143-.518 1.143-1.143zm0-6.857v-2.286c0-.625-.518-1.143-1.143-1.143H3.428c-.625 0-1.143.518-1.143 1.143v2.286c0 .625.518 1.143 1.143 1.143h2.286c.625 0 1.143-.518 1.143-1.143zm0-6.857v-2.286c0-.625-.518-1.143-1.143-1.143H3.428c-.625 0-1.143.518-1.143 1.143v2.286c0 .625.518 1.143 1.143 1.143h2.286c.625 0 1.143-.518 1.143-1.143zm18.286 13.714v-9.143c0-.625-.518-1.143-1.143-1.143H10.286c-.625 0-1.143.518-1.143 1.143v9.143c0 .625.518 1.143 1.143 1.143H24c.625 0 1.143-.518 1.143-1.143zM6.857 8V5.714c0-.625-.518-1.143-1.143-1.143H3.428c-.625 0-1.143.518-1.143 1.143V8c0 .625.518 1.143 1.143 1.143h2.286c.625 0 1.143-.518 1.143-1.143zM32 28.571v-2.286c0-.625-.518-1.143-1.143-1.143h-2.286c-.625 0-1.143.518-1.143 1.143v2.286c0 .625.518 1.143 1.143 1.143h2.286c.625 0 1.143-.518 1.143-1.143zm-6.857-13.714V5.714c0-.625-.518-1.143-1.143-1.143H10.286c-.625 0-1.143.518-1.143 1.143v9.143c0 .625.518 1.143 1.143 1.143H24c.625 0 1.143-.518 1.143-1.143zM32 21.714v-2.286c0-.625-.518-1.143-1.143-1.143h-2.286c-.625 0-1.143.518-1.143 1.143v2.286c0 .625.518 1.143 1.143 1.143h2.286c.625 0 1.143-.518 1.143-1.143zm0-6.857v-2.286c0-.625-.518-1.143-1.143-1.143h-2.286c-.625 0-1.143.518-1.143 1.143v2.286c0 .625.518 1.143 1.143 1.143h2.286c.625 0 1.143-.518 1.143-1.143zM32 8V5.714c0-.625-.518-1.143-1.143-1.143h-2.286c-.625 0-1.143.518-1.143 1.143V8c0 .625.518 1.143 1.143 1.143h2.286C31.482 9.143 32 8.625 32 8zm2.286-2.857v24A2.866 2.866 0 0 1 31.429 32H2.858a2.866 2.866 0 0 1-2.857-2.857v-24a2.866 2.866 0 0 1 2.857-2.857h28.571a2.866 2.866 0 0 1 2.857 2.857z"/></svg>