<svg xmlns="http://www.w3.org/2000/svg" width="30" height="32"><path d="M13.714 18.286v6.857a2.302 2.302 0 0 1-2.286 2.286H2.285a2.302 2.302 0 0 1-2.286-2.286v-6.857A2.302 2.302 0 0 1 2.285 16h9.143a2.302 2.302 0 0 1 2.286 2.286zm0-13.715v6.857a2.302 2.302 0 0 1-2.286 2.286H2.285a2.302 2.302 0 0 1-2.286-2.286V4.571a2.302 2.302 0 0 1 2.286-2.286h9.143a2.302 2.302 0 0 1 2.286 2.286zm16 13.715v6.857a2.302 2.302 0 0 1-2.286 2.286h-9.143a2.302 2.302 0 0 1-2.286-2.286v-6.857A2.302 2.302 0 0 1 18.285 16h9.143a2.302 2.302 0 0 1 2.286 2.286zm0-13.715v6.857a2.302 2.302 0 0 1-2.286 2.286h-9.143a2.302 2.302 0 0 1-2.286-2.286V4.571a2.302 2.302 0 0 1 2.286-2.286h9.143a2.302 2.302 0 0 1 2.286 2.286z"/></svg>