<svg xmlns="http://www.w3.org/2000/svg" width="25" height="32"><path d="M23.179 23.607c0 .446-.179.893-.5 1.214L20.25 27.25c-.321.321-.768.5-1.214.5s-.893-.179-1.214-.5L12.572 22l-5.25 5.25c-.321.321-.768.5-1.214.5s-.893-.179-1.214-.5l-2.429-2.429c-.321-.321-.5-.768-.5-1.214s.179-.893.5-1.214l5.25-5.25-5.25-5.25c-.321-.321-.5-.768-.5-1.214s.179-.893.5-1.214l2.429-2.429c.321-.321.768-.5 1.214-.5s.893.179 1.214.5l5.25 5.25 5.25-5.25c.321-.321.768-.5 1.214-.5s.893.179 1.214.5l2.429 2.429c.321.321.5.768.5 1.214s-.179.893-.5 1.214l-5.25 5.25 5.25 5.25c.321.321.5.768.5 1.214z"/></svg>