<svg xmlns="http://www.w3.org/2000/svg" width="32" height="32"><path d="M9.143 22.286v3.429c0 .946-.768 1.714-1.714 1.714H1.715a1.715 1.715 0 0 1-1.714-1.714v-3.429c0-.946.768-1.714 1.714-1.714h5.714c.946 0 1.714.768 1.714 1.714zm0-9.143v3.429c0 .946-.768 1.714-1.714 1.714H1.715a1.715 1.715 0 0 1-1.714-1.714v-3.429c0-.946.768-1.714 1.714-1.714h5.714c.946 0 1.714.768 1.714 1.714zM32 22.286v3.429c0 .946-.768 1.714-1.714 1.714H13.143a1.715 1.715 0 0 1-1.714-1.714v-3.429c0-.946.768-1.714 1.714-1.714h17.143c.946 0 1.714.768 1.714 1.714zM9.143 4v3.429c0 .946-.768 1.714-1.714 1.714H1.715A1.715 1.715 0 0 1 .001 7.429V4c0-.946.768-1.714 1.714-1.714h5.714c.946 0 1.714.768 1.714 1.714zM32 13.143v3.429c0 .946-.768 1.714-1.714 1.714H13.143a1.715 1.715 0 0 1-1.714-1.714v-3.429c0-.946.768-1.714 1.714-1.714h17.143c.946 0 1.714.768 1.714 1.714zM32 4v3.429c0 .946-.768 1.714-1.714 1.714H13.143a1.715 1.715 0 0 1-1.714-1.714V4c0-.946.768-1.714 1.714-1.714h17.143C31.232 2.286 32 3.054 32 4z"/></svg>