<svg xmlns="http://www.w3.org/2000/svg" width="32" height="32"><path d="M4.571 23.429v3.429a.587.587 0 0 1-.571.571H.571A.587.587 0 0 1 0 26.858v-3.429c0-.304.268-.571.571-.571H4c.304 0 .571.268.571.571zm0-6.858V20a.587.587 0 0 1-.571.571H.571A.587.587 0 0 1 0 20v-3.429C0 16.267.268 16 .571 16H4c.304 0 .571.268.571.571zm0-6.857v3.429a.587.587 0 0 1-.571.571H.571A.587.587 0 0 1 0 13.143V9.714c0-.304.268-.571.571-.571H4c.304 0 .571.268.571.571zM32 23.429v3.429a.587.587 0 0 1-.571.571h-24a.587.587 0 0 1-.571-.571v-3.429c0-.304.268-.571.571-.571h24c.304 0 .571.268.571.571zM4.571 2.857v3.429A.587.587 0 0 1 4 6.857H.571A.587.587 0 0 1 0 6.286V2.857c0-.304.268-.571.571-.571H4c.304 0 .571.268.571.571zM32 16.571V20a.587.587 0 0 1-.571.571h-24A.587.587 0 0 1 6.858 20v-3.429c0-.304.268-.571.571-.571h24c.304 0 .571.268.571.571zm0-6.857v3.429a.587.587 0 0 1-.571.571h-24a.587.587 0 0 1-.571-.571V9.714c0-.304.268-.571.571-.571h24c.304 0 .571.268.571.571zm0-6.857v3.429a.587.587 0 0 1-.571.571h-24a.587.587 0 0 1-.571-.571V2.857c0-.304.268-.571.571-.571h24c.304 0 .571.268.571.571z"/></svg>