<!-- Generated by IcoMoon.io -->
<svg version="1.1" xmlns="http://www.w3.org/2000/svg" width="30" height="32" viewBox="0 0 30 32">
<path d="M12.946 9.982l-3.036 8.036c1.768 0.018 3.536 0.071 5.304 0.071 0.339 0 0.679-0.018 1.018-0.036-0.929-2.714-2.018-5.482-3.286-8.071zM0 29.714l0.036-1.411c1.679-0.518 3.5-0.161 4.25-2.089l4.232-11 5-12.929h2.286c0.071 0.125 0.143 0.25 0.196 0.375l3.661 8.571c1.339 3.161 2.571 6.357 3.929 9.5 0.804 1.857 1.429 3.768 2.321 5.589 0.125 0.286 0.375 0.821 0.625 1.018 0.589 0.464 2.232 0.571 3.071 0.893 0.054 0.339 0.107 0.679 0.107 1.018 0 0.161-0.018 0.304-0.018 0.464-2.268 0-4.536-0.286-6.804-0.286-2.339 0-4.679 0.196-7.018 0.268 0-0.464 0.018-0.929 0.071-1.393l2.339-0.5c0.482-0.107 1.429-0.232 1.429-0.893 0-0.643-2.304-5.946-2.589-6.679l-8.036-0.036c-0.464 1.036-2.268 5.714-2.268 6.393 0 1.375 2.625 1.429 3.643 1.571 0.018 0.339 0.018 0.679 0.018 1.036 0 0.161-0.018 0.321-0.036 0.482-2.071 0-4.161-0.357-6.232-0.357-0.25 0-0.607 0.107-0.857 0.143-1.125 0.196-2.232 0.25-3.357 0.25z"></path>
</svg>
