<!-- Generated by IcoMoon.io -->
<svg version="1.1" xmlns="http://www.w3.org/2000/svg" width="16" height="16" viewBox="0 0 16 16">
<title>list</title>
<path d="M6.5 2h9c0.276 0 0.5 0.224 0.5 0.5s-0.224 0.5-0.5 0.5h-9c-0.276 0-0.5-0.224-0.5-0.5s0.224-0.5 0.5-0.5z"></path>
<path d="M6.5 14h9c0.276 0 0.5 0.224 0.5 0.5s-0.224 0.5-0.5 0.5h-9c-0.276 0-0.5-0.224-0.5-0.5s0.224-0.5 0.5-0.5z"></path>
<path d="M6.5 8h9c0.276 0 0.5 0.224 0.5 0.5s-0.224 0.5-0.5 0.5h-9c-0.276 0-0.5-0.224-0.5-0.5s0.224-0.5 0.5-0.5z"></path>
<path d="M1 1v2h2v-2h-2zM1 0h2c0.552 0 1 0.448 1 1v2c0 0.552-0.448 1-1 1h-2c-0.552 0-1-0.448-1-1v-2c0-0.552 0.448-1 1-1z"></path>
<path d="M1 7v2h2v-2h-2zM1 6h2c0.552 0 1 0.448 1 1v2c0 0.552-0.448 1-1 1h-2c-0.552 0-1-0.448-1-1v-2c0-0.552 0.448-1 1-1z"></path>
<path d="M1 13v2h2v-2h-2zM1 12h2c0.552 0 1 0.448 1 1v2c0 0.552-0.448 1-1 1h-2c-0.552 0-1-0.448-1-1v-2c0-0.552 0.448-1 1-1z"></path>
</svg>
