<!-- Generated by IcoMoon.io -->
<svg version="1.1" xmlns="http://www.w3.org/2000/svg" width="32" height="32" viewBox="0 0 32 32">
<path d="M31.143 25.143c0.786 0 1.036 0.5 0.554 1.125l-2.25 2.893c-0.482 0.625-1.268 0.625-1.75 0l-2.25-2.893c-0.482-0.625-0.232-1.125 0.554-1.125h1.429v-18.286h-1.429c-0.786 0-1.036-0.5-0.554-1.125l2.25-2.893c0.482-0.625 1.268-0.625 1.75 0l2.25 2.893c0.482 0.625 0.232 1.125-0.554 1.125h-1.429v18.286h1.429zM1.446 2.304l0.964 0.482c0.125 0.054 3.393 0.089 3.768 0.089 1.571 0 3.143-0.071 4.714-0.071 1.286 0 2.554 0.018 3.839 0.018h5.232c0.714 0 1.125 0.161 1.607-0.518l0.75-0.018c0.161 0 0.339 0.018 0.5 0.018 0.036 2 0.036 4 0.036 6 0 0.625 0.018 1.321-0.089 1.946-0.393 0.143-0.804 0.268-1.214 0.321-0.411-0.714-0.696-1.5-0.964-2.286-0.125-0.357-0.554-2.768-0.589-2.804-0.375-0.464-0.786-0.375-1.339-0.375-1.625 0-3.321-0.071-4.929 0.125-0.089 0.786-0.161 1.625-0.143 2.429 0.018 5.018 0.071 10.036 0.071 15.054 0 1.375-0.214 2.821 0.179 4.143 1.357 0.696 2.964 0.804 4.357 1.429 0.036 0.286 0.089 0.589 0.089 0.893 0 0.161-0.018 0.339-0.054 0.518l-0.607 0.018c-2.536 0.071-5.036-0.321-7.589-0.321-1.804 0-3.607 0.321-5.411 0.321-0.018-0.304-0.054-0.625-0.054-0.929v-0.161c0.679-1.089 3.125-1.107 4.25-1.768 0.393-0.875 0.339-5.714 0.339-6.839 0-3.607-0.107-7.214-0.107-10.821v-2.089c0-0.321 0.071-1.607-0.143-1.857-0.25-0.268-2.589-0.214-2.893-0.214-0.661 0-2.571 0.304-3.089 0.679-0.857 0.589-0.857 4.161-1.929 4.232-0.321-0.196-0.768-0.482-1-0.786v-6.839z"></path>
</svg>
