<svg xmlns="http://www.w3.org/2000/svg" width="32" height="32"><path d="M15.857 21.143l2.071-2.071-2.714-2.714-2.071 2.071v1h1.714v1.714h1zm7.857-12.857c-.161-.161-.429-.143-.589.018l-6.25 6.25c-.161.161-.179.429-.018.589s.429.143.589-.018l6.25-6.25c.161-.161.179-.429.018-.589zm1.429 10.607v3.393A5.145 5.145 0 0 1 20 27.429H5.143A5.145 5.145 0 0 1 0 22.286V7.429a5.145 5.145 0 0 1 5.143-5.143H20c.714 0 1.429.143 2.089.446a.578.578 0 0 1 .321.411.56.56 0 0 1-.161.518l-.875.875a.538.538 0 0 1-.571.143 3.129 3.129 0 0 0-.804-.107H5.142a2.866 2.866 0 0 0-2.857 2.857v14.857a2.866 2.866 0 0 0 2.857 2.857h14.857a2.866 2.866 0 0 0 2.857-2.857v-2.25c0-.143.054-.286.161-.393L24.16 18.5c.179-.179.411-.214.625-.125s.357.286.357.518zM23.429 5.714l5.143 5.143-12 12h-5.143v-5.143zm7.928 2.357l-1.643 1.643-5.143-5.143 1.643-1.643a1.736 1.736 0 0 1 2.429 0l2.714 2.714a1.736 1.736 0 0 1 0 2.429z"/></svg>