<!-- Generated by IcoMoon.io -->
<svg version="1.1" xmlns="http://www.w3.org/2000/svg" width="14" height="14" viewBox="0 0 14 14">
<title>edit-16</title>
<path d="M1.313 13.125h11.375c0.242 0 0.438 0.196 0.438 0.438s-0.196 0.438-0.438 0.438h-11.375c-0.242 0-0.438-0.196-0.438-0.438s0.196-0.438 0.438-0.438z"></path>
<path d="M10.515 5.103l-0.619-0.619 1.638-1.638c0.214-0.214 0.223-0.519 0.062-0.681l-0.619-0.619c-0.162-0.162-0.467-0.152-0.681 0.062l-6.752 6.752-0.371 1.609 1.609-0.371 3.784-3.784 0.619 0.619-3.961 3.961-3.217 0.742 0.742-3.217 6.93-6.93c0.547-0.547 1.405-0.574 1.918-0.062l0.619 0.619c0.513 0.513 0.485 1.371-0.062 1.918l-1.638 1.638z"></path>
</svg>
