<svg xmlns="http://www.w3.org/2000/svg" width="27" height="32"><path d="M19.589 19.268l-2.607 2.607a.571.571 0 0 1-.821 0l-2.446-2.446-2.446 2.446a.571.571 0 0 1-.821 0l-2.607-2.607a.571.571 0 0 1 0-.821l2.446-2.446-2.446-2.446a.571.571 0 0 1 0-.821l2.607-2.607a.571.571 0 0 1 .821 0l2.446 2.446 2.446-2.446a.571.571 0 0 1 .821 0l2.607 2.607a.571.571 0 0 1 0 .821l-2.446 2.446 2.446 2.446a.571.571 0 0 1 0 .821zM23.429 16c0-5.357-4.357-9.714-9.714-9.714S4.001 10.643 4.001 16s4.357 9.714 9.714 9.714 9.714-4.357 9.714-9.714zm4 0c0 7.571-6.143 13.714-13.714 13.714S.001 23.571.001 16 6.144 2.286 13.715 2.286 27.429 8.429 27.429 16z"/></svg>