<svg xmlns="http://www.w3.org/2000/svg" width="27" height="32"><path d="M21.375 18.286h-1.946a1.151 1.151 0 0 1-1.143-1.143v-2.286c0-.625.518-1.143 1.143-1.143h1.946A8.032 8.032 0 0 0 16 8.339v1.946c0 .625-.518 1.143-1.143 1.143h-2.286a1.151 1.151 0 0 1-1.143-1.143V8.339a8.032 8.032 0 0 0-5.375 5.375h1.946c.625 0 1.143.518 1.143 1.143v2.286c0 .625-.518 1.143-1.143 1.143H6.053a8.032 8.032 0 0 0 5.375 5.375v-1.946c0-.625.518-1.143 1.143-1.143h2.286c.625 0 1.143.518 1.143 1.143v1.946a8.032 8.032 0 0 0 5.375-5.375zm6.054-3.429v2.286c0 .625-.518 1.143-1.143 1.143h-2.554A10.294 10.294 0 0 1 16 26.018v2.554c0 .625-.518 1.143-1.143 1.143h-2.286a1.151 1.151 0 0 1-1.143-1.143v-2.554a10.294 10.294 0 0 1-7.732-7.732H1.142a1.151 1.151 0 0 1-1.143-1.143v-2.286c0-.625.518-1.143 1.143-1.143h2.554a10.294 10.294 0 0 1 7.732-7.732V3.428c0-.625.518-1.143 1.143-1.143h2.286c.625 0 1.143.518 1.143 1.143v2.554a10.294 10.294 0 0 1 7.732 7.732h2.554c.625 0 1.143.518 1.143 1.143z"/></svg>