<svg xmlns="http://www.w3.org/2000/svg" width="27" height="32"><path d="M22.929 13.107a1.16 1.16 0 0 0-.321-.821l-1.625-1.607c-.214-.214-.5-.339-.804-.339s-.589.125-.804.339l-7.286 7.268-4.036-4.036c-.214-.214-.5-.339-.804-.339s-.589.125-.804.339L4.82 15.518c-.214.214-.321.518-.321.821s.107.589.321.804l6.464 6.464c.214.214.518.339.804.339.304 0 .607-.125.821-.339l9.696-9.696c.214-.214.321-.5.321-.804zm4.5 2.893c0 7.571-6.143 13.714-13.714 13.714S.001 23.571.001 16 6.144 2.286 13.715 2.286 27.429 8.429 27.429 16z"/></svg>