<svg xmlns="http://www.w3.org/2000/svg" width="32" height="32"><path d="M32 11.429c0 .304-.125.589-.339.804l-9.143 9.143c-.214.214-.5.339-.804.339a1.151 1.151 0 0 1-1.143-1.143v-4.571h-4c-7.696 0-12.75 1.482-12.75 10 0 .732.036 1.464.089 2.196.018.286.089.607.089.893 0 .339-.214.625-.571.625-.25 0-.375-.125-.5-.304-.268-.375-.464-.946-.661-1.357C1.249 25.768-.001 22.5-.001 20c0-2 .196-4.054.946-5.946 2.482-6.161 9.768-7.196 15.625-7.196h4V2.287c0-.625.518-1.143 1.143-1.143.304 0 .589.125.804.339l9.143 9.143c.214.214.339.5.339.804z"/></svg>