<svg xmlns="http://www.w3.org/2000/svg" width="30" height="32"><path d="M2.286 29.714h5.143v-5.143H2.286v5.143zm6.285 0h5.714v-5.143H8.571v5.143zm-6.285-6.285h5.143v-5.714H2.286v5.714zm6.285 0h5.714v-5.714H8.571v5.714zm-6.285-6.858h5.143v-5.143H2.286v5.143zm13.143 13.143h5.714v-5.143h-5.714v5.143zM8.571 16.571h5.714v-5.143H8.571v5.143zm13.715 13.143h5.143v-5.143h-5.143v5.143zm-6.857-6.285h5.714v-5.714h-5.714v5.714zM9.143 8V2.857a.587.587 0 0 0-.571-.571H7.429a.587.587 0 0 0-.571.571V8c0 .304.268.571.571.571h1.143A.587.587 0 0 0 9.143 8zm13.143 15.429h5.143v-5.714h-5.143v5.714zm-6.857-6.858h5.714v-5.143h-5.714v5.143zm6.857 0h5.143v-5.143h-5.143v5.143zM22.857 8V2.857a.587.587 0 0 0-.571-.571h-1.143a.587.587 0 0 0-.571.571V8c0 .304.268.571.571.571h1.143A.587.587 0 0 0 22.857 8zm6.857-1.143v22.857A2.302 2.302 0 0 1 27.428 32H2.285a2.302 2.302 0 0 1-2.286-2.286V6.857a2.302 2.302 0 0 1 2.286-2.286h2.286V2.857A2.866 2.866 0 0 1 7.428 0h1.143a2.866 2.866 0 0 1 2.857 2.857v1.714h6.857V2.857A2.866 2.866 0 0 1 21.142 0h1.143a2.866 2.866 0 0 1 2.857 2.857v1.714h2.286a2.302 2.302 0 0 1 2.286 2.286z"/></svg>