<!-- Generated by IcoMoon.io -->
<svg version="1.1" xmlns="http://www.w3.org/2000/svg" width="27" height="32" viewBox="0 0 27 32">
<path d="M27.429 14.857v2.286c0 7.286-5.768 12.571-13.714 12.571s-13.714-5.286-13.714-12.571v-2.286c0-0.625 0.518-1.143 1.143-1.143h6.857c0.625 0 1.143 0.518 1.143 1.143v2.286c0 3.268 3.804 3.429 4.571 3.429s4.571-0.161 4.571-3.429v-2.286c0-0.625 0.518-1.143 1.143-1.143h6.857c0.625 0 1.143 0.518 1.143 1.143zM9.143 3.429v6.857c0 0.625-0.518 1.143-1.143 1.143h-6.857c-0.625 0-1.143-0.518-1.143-1.143v-6.857c0-0.625 0.518-1.143 1.143-1.143h6.857c0.625 0 1.143 0.518 1.143 1.143zM27.429 3.429v6.857c0 0.625-0.518 1.143-1.143 1.143h-6.857c-0.625 0-1.143-0.518-1.143-1.143v-6.857c0-0.625 0.518-1.143 1.143-1.143h6.857c0.625 0 1.143 0.518 1.143 1.143z"></path>
</svg>
