<svg xmlns="http://www.w3.org/2000/svg" width="30" height="32"><path d="M11.429 27.429c0 1.25-1.036 2.286-2.286 2.286s-2.286-1.036-2.286-2.286 1.036-2.286 2.286-2.286 2.286 1.036 2.286 2.286zm16 0c0 1.25-1.036 2.286-2.286 2.286s-2.286-1.036-2.286-2.286 1.036-2.286 2.286-2.286 2.286 1.036 2.286 2.286zM29.714 8v9.143c0 .571-.446 1.071-1.018 1.143l-18.643 2.179c.089.411.232.821.232 1.25 0 .411-.25.786-.429 1.143h16.429c.625 0 1.143.518 1.143 1.143s-.518 1.143-1.143 1.143H7.999a1.151 1.151 0 0 1-1.143-1.143c0-.554.804-1.893 1.089-2.446L4.784 6.859H1.141c-.625 0-1.143-.518-1.143-1.143s.518-1.143 1.143-1.143h4.571c1.196 0 1.232 1.429 1.411 2.286h21.446c.625 0 1.143.518 1.143 1.143z"/></svg>