<svg xmlns="http://www.w3.org/2000/svg" width="28" height="32"><path d="M11.429 25.714c0 .5.232 1.714-.571 1.714H5.144a5.145 5.145 0 0 1-5.143-5.143V9.714a5.145 5.145 0 0 1 5.143-5.143h5.714c.304 0 .571.268.571.571 0 .5.232 1.714-.571 1.714H5.144a2.866 2.866 0 0 0-2.857 2.857v12.571a2.866 2.866 0 0 0 2.857 2.857h5.143c.446 0 1.143-.089 1.143.571zM28 16c0 .304-.125.589-.339.804l-9.714 9.714c-.214.214-.5.339-.804.339A1.151 1.151 0 0 1 16 25.714v-5.143H8a1.151 1.151 0 0 1-1.143-1.143v-6.857c0-.625.518-1.143 1.143-1.143h8V6.285c0-.625.518-1.143 1.143-1.143.304 0 .589.125.804.339l9.714 9.714c.214.214.339.5.339.804z"/></svg>