<svg xmlns="http://www.w3.org/2000/svg" width="27" height="32"><path d="M21.143 16c0 .304-.125.589-.339.804l-9.714 9.714c-.214.214-.5.339-.804.339a1.151 1.151 0 0 1-1.143-1.143v-5.143h-8A1.151 1.151 0 0 1 0 19.428v-6.857c0-.625.518-1.143 1.143-1.143h8V6.285c0-.625.518-1.143 1.143-1.143.304 0 .589.125.804.339l9.714 9.714c.214.214.339.5.339.804zm6.286-6.286v12.571a5.145 5.145 0 0 1-5.143 5.143h-5.714a.587.587 0 0 1-.571-.571c0-.5-.232-1.714.571-1.714h5.714a2.866 2.866 0 0 0 2.857-2.857V9.715a2.866 2.866 0 0 0-2.857-2.857h-5.143c-.446 0-1.143.089-1.143-.571 0-.5-.232-1.714.571-1.714h5.714a5.145 5.145 0 0 1 5.143 5.143z"/></svg>