<!-- Generated by IcoMoon.io -->
<svg version="1.1" xmlns="http://www.w3.org/2000/svg" width="27" height="32" viewBox="0 0 27 32">
<path d="M13.714 2.286c7.571 0 13.714 6.143 13.714 13.714 0 6.054-3.929 11.196-9.375 13.018-0.696 0.125-0.946-0.304-0.946-0.661 0-0.446 0.018-1.929 0.018-3.768 0-1.286-0.429-2.107-0.929-2.536 3.054-0.339 6.268-1.5 6.268-6.768 0-1.5-0.536-2.714-1.411-3.679 0.143-0.357 0.607-1.75-0.143-3.643-1.143-0.357-3.768 1.411-3.768 1.411-1.089-0.304-2.268-0.464-3.429-0.464s-2.339 0.161-3.429 0.464c0 0-2.625-1.768-3.768-1.411-0.75 1.893-0.286 3.286-0.143 3.643-0.875 0.964-1.411 2.179-1.411 3.679 0 5.25 3.196 6.429 6.25 6.768-0.393 0.357-0.75 0.964-0.875 1.839-0.786 0.357-2.786 0.964-3.982-1.143-0.75-1.304-2.107-1.411-2.107-1.411-1.339-0.018-0.089 0.839-0.089 0.839 0.893 0.411 1.518 2 1.518 2 0.804 2.446 4.625 1.625 4.625 1.625 0 1.143 0.018 2.214 0.018 2.554 0 0.357-0.25 0.786-0.946 0.661-5.446-1.821-9.375-6.964-9.375-13.018 0-7.571 6.143-13.714 13.714-13.714zM5.196 21.982c0.036-0.071-0.018-0.161-0.125-0.214-0.107-0.036-0.196-0.018-0.232 0.036-0.036 0.071 0.018 0.161 0.125 0.214 0.089 0.054 0.196 0.036 0.232-0.036zM5.75 22.589c0.071-0.054 0.054-0.179-0.036-0.286-0.089-0.089-0.214-0.125-0.286-0.054-0.071 0.054-0.054 0.179 0.036 0.286 0.089 0.089 0.214 0.125 0.286 0.054zM6.286 23.393c0.089-0.071 0.089-0.214 0-0.339-0.071-0.125-0.214-0.179-0.304-0.107-0.089 0.054-0.089 0.196 0 0.321s0.232 0.179 0.304 0.125zM7.036 24.143c0.071-0.071 0.036-0.232-0.071-0.339-0.125-0.125-0.286-0.143-0.357-0.054-0.089 0.071-0.054 0.232 0.071 0.339 0.125 0.125 0.286 0.143 0.357 0.054zM8.054 24.589c0.036-0.107-0.071-0.232-0.232-0.286-0.143-0.036-0.304 0.018-0.339 0.125s0.071 0.232 0.232 0.268c0.143 0.054 0.304 0 0.339-0.107zM9.179 24.679c0-0.125-0.143-0.214-0.304-0.196-0.161 0-0.286 0.089-0.286 0.196 0 0.125 0.125 0.214 0.304 0.196 0.161 0 0.286-0.089 0.286-0.196zM10.214 24.5c-0.018-0.107-0.161-0.179-0.321-0.161-0.161 0.036-0.268 0.143-0.25 0.268 0.018 0.107 0.161 0.179 0.321 0.143s0.268-0.143 0.25-0.25z"></path>
</svg>
