<svg xmlns="http://www.w3.org/2000/svg" width="32" height="32"><path d="M30.286 6.857c.946 0 1.714.768 1.714 1.714v21.714c0 .946-.768 1.714-1.714 1.714H13.143a1.715 1.715 0 0 1-1.714-1.714v-5.143H1.715a1.715 1.715 0 0 1-1.714-1.714v-12c0-.946.554-2.268 1.214-2.929l7.286-7.286C9.162.552 10.483-.001 11.43-.001h7.429c.946 0 1.714.768 1.714 1.714V7.57c.696-.411 1.589-.714 2.286-.714h7.429zm-9.715 3.804L15.232 16h5.339v-5.339zM9.143 3.804L3.804 9.143h5.339V3.804zm3.5 11.553l5.643-5.643V2.285h-6.857v7.429c0 .946-.768 1.714-1.714 1.714H2.286v11.429h9.143v-4.571c0-.946.554-2.268 1.214-2.929zm17.071 14.357V9.143h-6.857v7.429c0 .946-.768 1.714-1.714 1.714h-7.429v11.429h16z"/></svg>