<svg xmlns="http://www.w3.org/2000/svg" width="32" height="32"><path d="M6.857 25.143a3.43 3.43 0 0 1-6.858 0 3.43 3.43 0 0 1 6.858 0zm0-9.143a3.43 3.43 0 0 1-6.858 0 3.43 3.43 0 0 1 6.858 0zM32 23.429v3.429a.587.587 0 0 1-.571.571H9.715a.587.587 0 0 1-.571-.571v-3.429c0-.304.268-.571.571-.571h21.714c.304 0 .571.268.571.571zM6.857 6.857a3.43 3.43 0 0 1-6.858 0 3.43 3.43 0 0 1 6.858 0zM32 14.286v3.429a.587.587 0 0 1-.571.571H9.715a.587.587 0 0 1-.571-.571v-3.429c0-.304.268-.571.571-.571h21.714c.304 0 .571.268.571.571zm0-9.143v3.429a.587.587 0 0 1-.571.571H9.715a.587.587 0 0 1-.571-.571V5.143c0-.304.268-.571.571-.571h21.714c.304 0 .571.268.571.571z"/></svg>