<!-- Generated by IcoMoon.io -->
<svg version="1.1" xmlns="http://www.w3.org/2000/svg" width="32" height="32" viewBox="0 0 32 32">
<path d="M31.429 16c0.321 0 0.571 0.25 0.571 0.571v1.143c0 0.321-0.25 0.571-0.571 0.571h-30.857c-0.321 0-0.571-0.25-0.571-0.571v-1.143c0-0.321 0.25-0.571 0.571-0.571h30.857zM8.625 14.857c-0.339-0.429-0.643-0.911-0.911-1.429-0.571-1.161-0.857-2.286-0.857-3.357 0-2.179 0.804-4 2.393-5.518s3.929-2.268 7.018-2.268c0.679 0 1.661 0.125 2.982 0.339 0.786 0.143 1.839 0.429 3.161 0.857 0.125 0.464 0.25 1.179 0.375 2.107 0.161 1.411 0.25 2.5 0.25 3.268 0 0.25-0.036 0.518-0.089 0.804l-0.214 0.054-1.5-0.107-0.25-0.036c-0.607-1.804-1.232-3.018-1.839-3.661-1.054-1.089-2.321-1.625-3.75-1.625-1.357 0-2.446 0.357-3.25 1.054s-1.196 1.571-1.196 2.607c0 0.875 0.393 1.696 1.179 2.5s2.446 1.571 4.982 2.304c0.857 0.25 1.875 0.643 3.089 1.179 0.643 0.304 1.214 0.607 1.696 0.929h-13.268zM17.679 19.429h7.339c0.089 0.5 0.125 1.054 0.125 1.643 0 1.286-0.232 2.554-0.732 3.786-0.268 0.661-0.679 1.268-1.268 1.857-0.429 0.411-1.071 0.893-1.946 1.446-0.893 0.536-1.786 0.946-2.732 1.179-0.946 0.25-2.143 0.375-3.625 0.375-0.982 0-2.161-0.036-3.482-0.411l-2.5-0.714c-0.696-0.196-1.107-0.357-1.286-0.5-0.071-0.071-0.143-0.196-0.143-0.393v-0.232c0-0.143 0.036-1.071-0.036-2.786-0.036-0.893 0.036-1.518 0.036-1.875v-0.786l1.821-0.036c0.661 1.518 0.964 2.429 1.161 2.75 0.429 0.696 0.911 1.25 1.429 1.679s1.143 0.768 1.875 1.018c0.714 0.268 1.518 0.393 2.357 0.393 0.75 0 1.589-0.161 2.482-0.482 0.911-0.304 1.643-0.821 2.179-1.536 0.554-0.714 0.839-1.482 0.839-2.304 0-1-0.482-1.929-1.446-2.804-0.393-0.339-1.214-0.768-2.446-1.268z"></path>
</svg>
