<!-- Generated by IcoMoon.io -->
<svg version="1.1" xmlns="http://www.w3.org/2000/svg" width="27" height="32" viewBox="0 0 27 32">
<path d="M16.375 16.161c0-0.446-0.054-0.804-0.107-1.143h-6.464v2.357h3.875c-0.143 1-1.161 2.946-3.875 2.946-2.357 0-4.268-1.929-4.268-4.321s1.911-4.321 4.268-4.321c1.321 0 2.214 0.554 2.732 1.054l1.857-1.804c-1.196-1.107-2.75-1.786-4.589-1.786-3.804 0-6.857 3.071-6.857 6.857s3.054 6.857 6.857 6.857c3.946 0 6.571-2.786 6.571-6.696zM22.536 16.982h1.946v-1.964h-1.946v-1.964h-1.964v1.964h-1.964v1.964h1.964v1.964h1.964v-1.964zM27.429 7.429v17.143c0 2.839-2.304 5.143-5.143 5.143h-17.143c-2.839 0-5.143-2.304-5.143-5.143v-17.143c0-2.839 2.304-5.143 5.143-5.143h17.143c2.839 0 5.143 2.304 5.143 5.143z"></path>
</svg>
