<svg xmlns="http://www.w3.org/2000/svg" width="27" height="32"><path d="M27.429 16c0 7.554-6.161 13.714-13.714 13.714a13.688 13.688 0 0 1-10.554-4.946.593.593 0 0 1 .036-.768l2.446-2.464a.687.687 0 0 1 .446-.161.584.584 0 0 1 .411.214 9.04 9.04 0 0 0 7.214 3.554c5.036 0 9.143-4.107 9.143-9.143s-4.107-9.143-9.143-9.143A9.094 9.094 0 0 0 7.5 9.303l2.446 2.464a1.1 1.1 0 0 1 .25 1.232 1.144 1.144 0 0 1-1.054.714h-8A1.151 1.151 0 0 1-.001 12.57v-8c0-.464.286-.875.714-1.054a1.1 1.1 0 0 1 1.232.25L4.266 6.07c2.518-2.375 5.929-3.786 9.446-3.786 7.554 0 13.714 6.161 13.714 13.714z"/></svg>