<svg xmlns="http://www.w3.org/2000/svg" width="34" height="32"><path d="M22.857 15.429a.597.597 0 0 0-.161-.411L16.41 8.732a.566.566 0 0 0-.411-.161.597.597 0 0 0-.411.161L9.32 15a.66.66 0 0 0-.179.429c0 .321.25.571.571.571h4v6.286c0 .304.268.571.571.571h3.429a.587.587 0 0 0 .571-.571V16h4a.575.575 0 0 0 .571-.571zm11.429 5.142a6.858 6.858 0 0 1-6.857 6.857H8c-4.411 0-8-3.589-8-8a7.978 7.978 0 0 1 4.607-7.232c-.018-.268-.036-.518-.036-.768a9.137 9.137 0 0 1 9.143-9.143 9.157 9.157 0 0 1 8.464 5.679 4.518 4.518 0 0 1 2.964-1.107 4.58 4.58 0 0 1 4.571 4.571c0 .875-.25 1.732-.732 2.464a6.872 6.872 0 0 1 5.304 6.679z"/></svg>