<svg xmlns="http://www.w3.org/2000/svg" width="32" height="32"><path d="M6.857 20.571c0-1.268-1.018-2.286-2.286-2.286s-2.286 1.018-2.286 2.286 1.018 2.286 2.286 2.286 2.286-1.018 2.286-2.286zm3.429-8c0-1.268-1.018-2.286-2.286-2.286s-2.286 1.018-2.286 2.286S6.732 14.857 8 14.857s2.286-1.018 2.286-2.286zm7.643 8.59l1.804-6.821a1.162 1.162 0 0 0-.821-1.393 1.148 1.148 0 0 0-1.393.821l-1.804 6.821a3.418 3.418 0 0 0-3.036 2.536 3.443 3.443 0 0 0 2.446 4.196 3.443 3.443 0 0 0 4.196-2.446 3.464 3.464 0 0 0-1.393-3.714zm11.785-.59c0-1.268-1.018-2.286-2.286-2.286s-2.286 1.018-2.286 2.286 1.018 2.286 2.286 2.286 2.286-1.018 2.286-2.286zM18.286 9.143c0-1.268-1.018-2.286-2.286-2.286s-2.286 1.018-2.286 2.286 1.018 2.286 2.286 2.286 2.286-1.018 2.286-2.286zm8 3.428c0-1.268-1.018-2.286-2.286-2.286s-2.286 1.018-2.286 2.286 1.018 2.286 2.286 2.286 2.286-1.018 2.286-2.286zm5.714 8c0 3.071-.875 6.036-2.518 8.625a1.155 1.155 0 0 1-.964.518H3.482c-.393 0-.75-.196-.964-.518A15.992 15.992 0 0 1 0 20.571c0-8.821 7.179-16 16-16s16 7.179 16 16z"/></svg>