<svg xmlns="http://www.w3.org/2000/svg" width="25" height="32"><path d="M6.857 23.429v1.143a.587.587 0 0 1-.571.571H5.143a.587.587 0 0 1-.571-.571v-1.143c0-.304.268-.571.571-.571h1.143c.304 0 .571.268.571.571zm0-4.572V20a.587.587 0 0 1-.571.571H5.143A.587.587 0 0 1 4.572 20v-1.143c0-.304.268-.571.571-.571h1.143c.304 0 .571.268.571.571zm4.572 0V20a.587.587 0 0 1-.571.571H9.715A.587.587 0 0 1 9.144 20v-1.143c0-.304.268-.571.571-.571h1.143c.304 0 .571.268.571.571zm-4.572-4.571v1.143a.587.587 0 0 1-.571.571H5.143a.587.587 0 0 1-.571-.571v-1.143c0-.304.268-.571.571-.571h1.143c.304 0 .571.268.571.571zm13.714 9.143v1.143a.587.587 0 0 1-.571.571h-1.143a.587.587 0 0 1-.571-.571v-1.143c0-.304.268-.571.571-.571H20c.304 0 .571.268.571.571zM16 18.857V20a.587.587 0 0 1-.571.571h-1.143a.587.587 0 0 1-.571-.571v-1.143c0-.304.268-.571.571-.571h1.143c.304 0 .571.268.571.571zm-4.571-4.571v1.143a.587.587 0 0 1-.571.571H9.715a.587.587 0 0 1-.571-.571v-1.143c0-.304.268-.571.571-.571h1.143c.304 0 .571.268.571.571zM6.857 9.714v1.143a.587.587 0 0 1-.571.571H5.143a.587.587 0 0 1-.571-.571V9.714c0-.304.268-.571.571-.571h1.143c.304 0 .571.268.571.571zm13.714 9.143V20a.587.587 0 0 1-.571.571h-1.143a.587.587 0 0 1-.571-.571v-1.143c0-.304.268-.571.571-.571H20c.304 0 .571.268.571.571zM16 14.286v1.143a.587.587 0 0 1-.571.571h-1.143a.587.587 0 0 1-.571-.571v-1.143c0-.304.268-.571.571-.571h1.143c.304 0 .571.268.571.571zm-4.571-4.572v1.143a.587.587 0 0 1-.571.571H9.715a.587.587 0 0 1-.571-.571V9.714c0-.304.268-.571.571-.571h1.143c.304 0 .571.268.571.571zM6.857 5.143v1.143a.587.587 0 0 1-.571.571H5.143a.587.587 0 0 1-.571-.571V5.143c0-.304.268-.571.571-.571h1.143c.304 0 .571.268.571.571zm13.714 9.143v1.143A.587.587 0 0 1 20 16h-1.143a.587.587 0 0 1-.571-.571v-1.143c0-.304.268-.571.571-.571H20c.304 0 .571.268.571.571zM16 9.714v1.143a.587.587 0 0 1-.571.571h-1.143a.587.587 0 0 1-.571-.571V9.714c0-.304.268-.571.571-.571h1.143c.304 0 .571.268.571.571zm-4.571-4.571v1.143a.587.587 0 0 1-.571.571H9.715a.587.587 0 0 1-.571-.571V5.143c0-.304.268-.571.571-.571h1.143c.304 0 .571.268.571.571zm9.142 4.571v1.143a.587.587 0 0 1-.571.571h-1.143a.587.587 0 0 1-.571-.571V9.714c0-.304.268-.571.571-.571H20c.304 0 .571.268.571.571zM16 5.143v1.143a.587.587 0 0 1-.571.571h-1.143a.587.587 0 0 1-.571-.571V5.143c0-.304.268-.571.571-.571h1.143c.304 0 .571.268.571.571zm4.571 0v1.143a.587.587 0 0 1-.571.571h-1.143a.587.587 0 0 1-.571-.571V5.143c0-.304.268-.571.571-.571H20c.304 0 .571.268.571.571zM16 29.714h6.857V2.285H2.286v27.429h6.857v-4c0-.304.268-.571.571-.571h5.714c.304 0 .571.268.571.571v4zm9.143-28.571v29.714c0 .625-.518 1.143-1.143 1.143H1.143A1.151 1.151 0 0 1 0 30.857V1.143C0 .518.518 0 1.143 0H24c.625 0 1.143.518 1.143 1.143z"/></svg>