<svg xmlns="http://www.w3.org/2000/svg" width="32" height="32"><path d="M16.286 30.286A.282.282 0 0 0 16 30a2.583 2.583 0 0 1-2.571-2.571c0-.161-.125-.286-.286-.286s-.286.125-.286.286A3.148 3.148 0 0 0 16 30.572a.282.282 0 0 0 .286-.286zm14.571-5.143a2.302 2.302 0 0 1-2.286 2.286h-8C20.571 29.947 18.517 32 16 32s-4.571-2.054-4.571-4.571h-8a2.302 2.302 0 0 1-2.286-2.286c2.643-2.232 5.714-6.232 5.714-14.857 0-3.429 2.839-7.179 7.571-7.875a1.8 1.8 0 0 1-.143-.696 1.715 1.715 0 1 1 3.285.696c4.732.696 7.571 4.446 7.571 7.875 0 8.625 3.071 12.625 5.714 14.857z"/></svg>