<svg xmlns="http://www.w3.org/2000/svg" width="27" height="32"><path d="M22.857 17.143v-2.286c0-.625-.518-1.143-1.143-1.143H16V8c0-.625-.518-1.143-1.143-1.143h-2.286c-.625 0-1.143.518-1.143 1.143v5.714H5.714c-.625 0-1.143.518-1.143 1.143v2.286c0 .625.518 1.143 1.143 1.143h5.714V24c0 .625.518 1.143 1.143 1.143h2.286c.625 0 1.143-.518 1.143-1.143v-5.714h5.714c.625 0 1.143-.518 1.143-1.143zm4.572-9.714v17.143a5.145 5.145 0 0 1-5.143 5.143H5.143A5.145 5.145 0 0 1 0 24.572V7.429a5.145 5.145 0 0 1 5.143-5.143h17.143a5.145 5.145 0 0 1 5.143 5.143z"/></svg>