<svg xmlns="http://www.w3.org/2000/svg" width="21" height="32"><path d="M19.196 23.429a.612.612 0 0 1-.179.411l-.893.893a.582.582 0 0 1-.411.179.612.612 0 0 1-.411-.179l-7.018-7.018-7.018 7.018c-.107.107-.268.179-.411.179s-.304-.071-.411-.179l-.893-.893c-.107-.107-.179-.268-.179-.411s.071-.304.179-.411l8.321-8.321c.107-.107.268-.179.411-.179s.304.071.411.179l8.321 8.321a.617.617 0 0 1 .179.411zm0-6.858a.612.612 0 0 1-.179.411l-.893.893a.582.582 0 0 1-.411.179.612.612 0 0 1-.411-.179l-7.018-7.018-7.018 7.018c-.107.107-.268.179-.411.179s-.304-.071-.411-.179l-.893-.893c-.107-.107-.179-.268-.179-.411s.071-.304.179-.411l8.321-8.321c.107-.107.268-.179.411-.179s.304.071.411.179l8.321 8.321a.617.617 0 0 1 .179.411z"/></svg>