<svg xmlns="http://www.w3.org/2000/svg" width="18" height="32"><path d="M10.625 17.143a.612.612 0 0 1-.179.411l-8.321 8.321c-.107.107-.268.179-.411.179s-.304-.071-.411-.179l-.893-.893c-.107-.107-.179-.268-.179-.411s.071-.304.179-.411l7.018-7.018L.41 10.124c-.107-.107-.179-.268-.179-.411s.071-.304.179-.411l.893-.893c.107-.107.268-.179.411-.179s.304.071.411.179l8.321 8.321a.617.617 0 0 1 .179.411zm6.857 0a.612.612 0 0 1-.179.411l-8.321 8.321c-.107.107-.268.179-.411.179s-.304-.071-.411-.179l-.893-.893c-.107-.107-.179-.268-.179-.411s.071-.304.179-.411l7.018-7.018-7.018-7.018c-.107-.107-.179-.268-.179-.411s.071-.304.179-.411l.893-.893c.107-.107.268-.179.411-.179s.304.071.411.179l8.321 8.321a.617.617 0 0 1 .179.411z"/></svg>