<svg xmlns="http://www.w3.org/2000/svg" width="14" height="32"><path d="M8.286 25.143c0-.786-.643-1.429-1.429-1.429s-1.429.643-1.429 1.429.643 1.429 1.429 1.429 1.429-.643 1.429-1.429zM12 22.286V9.715a.587.587 0 0 0-.571-.571H2.286a.587.587 0 0 0-.571.571v12.571c0 .304.268.571.571.571h9.143a.587.587 0 0 0 .571-.571zM8.571 7.143a.282.282 0 0 0-.286-.286H5.428c-.161 0-.286.125-.286.286s.125.286.286.286h2.857a.282.282 0 0 0 .286-.286zm5.143-.286v18.286a2.302 2.302 0 0 1-2.286 2.286H2.285a2.302 2.302 0 0 1-2.286-2.286V6.857a2.302 2.302 0 0 1 2.286-2.286h9.143a2.302 2.302 0 0 1 2.286 2.286z"/></svg>