<!-- Generated by IcoMoon.io -->
<svg version="1.1" xmlns="http://www.w3.org/2000/svg" width="30" height="32" viewBox="0 0 30 32">
<path d="M11.429 21.714c0 1.304-0.679 3.429-2.286 3.429s-2.286-2.125-2.286-3.429 0.679-3.429 2.286-3.429 2.286 2.125 2.286 3.429zM22.857 21.714c0 1.304-0.679 3.429-2.286 3.429s-2.286-2.125-2.286-3.429 0.679-3.429 2.286-3.429 2.286 2.125 2.286 3.429zM25.714 21.714c0-2.732-1.661-5.143-4.571-5.143-1.179 0-2.304 0.214-3.482 0.375-0.929 0.143-1.857 0.196-2.804 0.196s-1.875-0.054-2.804-0.196c-1.161-0.161-2.304-0.375-3.482-0.375-2.911 0-4.571 2.411-4.571 5.143 0 5.464 5 6.304 9.357 6.304h3c4.357 0 9.357-0.839 9.357-6.304zM29.714 18.571c0 1.982-0.196 4.089-1.089 5.911-2.357 4.768-8.839 5.232-13.482 5.232-4.714 0-11.589-0.411-14.036-5.232-0.911-1.804-1.107-3.929-1.107-5.911 0-2.607 0.714-5.071 2.429-7.071-0.321-0.982-0.482-2.018-0.482-3.036 0-1.339 0.304-2.679 0.911-3.893 2.821 0 4.625 1.232 6.768 2.911 1.804-0.429 3.661-0.625 5.518-0.625 1.679 0 3.375 0.179 5 0.571 2.125-1.661 3.929-2.857 6.714-2.857 0.607 1.214 0.911 2.554 0.911 3.893 0 1.018-0.161 2.036-0.482 3 1.714 2.018 2.429 4.5 2.429 7.107z"></path>
</svg>
