<svg xmlns="http://www.w3.org/2000/svg" width="25" height="32"><path d="M4.839 16.875l-1.804 1.804a10.056 10.056 0 0 1-.75-3.821v-2.286c0-.625.518-1.143 1.143-1.143s1.143.518 1.143 1.143v2.286c0 .696.107 1.375.268 2.018zm19.893-10.75l-6.446 6.446v2.286c0 3.143-2.571 5.714-5.714 5.714a5.868 5.868 0 0 1-1.946-.339l-1.714 1.714a7.885 7.885 0 0 0 3.661.911c4.411 0 8-3.589 8-8v-2.286c0-.625.518-1.143 1.143-1.143s1.143.518 1.143 1.143v2.286c0 5.286-4 9.643-9.143 10.214v2.357h4.571c.625 0 1.143.518 1.143 1.143s-.518 1.143-1.143 1.143H6.858c-.625 0-1.143-.518-1.143-1.143s.518-1.143 1.143-1.143h4.571v-2.357a10.067 10.067 0 0 1-4.196-1.446l-4.536 4.536a.571.571 0 0 1-.821 0L.412 26.697a.571.571 0 0 1 0-.821L22.448 3.84a.571.571 0 0 1 .821 0l1.464 1.464a.571.571 0 0 1 0 .821zm-6.786-2.357L6.857 14.857V5.714C6.857 2.571 9.428 0 12.571 0c2.464 0 4.571 1.589 5.375 3.768z"/></svg>