<svg xmlns="http://www.w3.org/2000/svg" width="30" height="32"><path d="M25.714 8a1.715 1.715 0 1 0-3.43.002A1.715 1.715 0 0 0 25.714 8zm4-5.143c0 5.929-1.643 9.875-5.875 14.125a63.525 63.525 0 0 1-3.482 3.143L20 26.893a.65.65 0 0 1-.286.464l-6.857 4a.52.52 0 0 1-.286.071.63.63 0 0 1-.411-.161l-1.143-1.143c-.143-.161-.196-.375-.143-.571l1.518-4.929-5.018-5.018-4.929 1.518c-.054.018-.107.018-.161.018a.597.597 0 0 1-.411-.161L.73 19.838a.597.597 0 0 1-.089-.696l4-6.857a.652.652 0 0 1 .464-.286l6.768-.357a63.12 63.12 0 0 1 3.143-3.482c4.464-4.446 7.875-5.875 14.089-5.875.321 0 .607.25.607.571z"/></svg>