<svg xmlns="http://www.w3.org/2000/svg" width="27" height="32"><path d="M17.946 19.661l6.286-6.286a1.132 1.132 0 0 0 0-1.607l-6.286-6.286a1.1 1.1 0 0 0-1.232-.25A1.144 1.144 0 0 0 16 6.286v2.857c-10.25 0-11.429 5.875-11.429 10.286 0 3.589 2.875 7.071 2.982 7.214a.592.592 0 0 0 .446.214.546.546 0 0 0 .232-.054.551.551 0 0 0 .339-.589c-.536-4.304-.196-6.982 1.107-8.446C10.766 16.536 12.659 16 15.998 16v2.857c0 .464.286.875.714 1.054.125.054.286.089.429.089.304 0 .589-.125.804-.339zm9.483-12.232v17.143a5.145 5.145 0 0 1-5.143 5.143H5.143A5.145 5.145 0 0 1 0 24.572V7.429a5.145 5.145 0 0 1 5.143-5.143h17.143a5.145 5.145 0 0 1 5.143 5.143z"/></svg>