<svg xmlns="http://www.w3.org/2000/svg" width="25" height="32"><path d="M20.571 14.286v1.143c0 .321-.25.571-.571.571H5.143a.564.564 0 0 1-.571-.571v-1.143c0-.321.25-.571.571-.571H20c.321 0 .571.25.571.571zm2.286 8V7.429A2.866 2.866 0 0 0 20 4.572H5.143a2.866 2.866 0 0 0-2.857 2.857v14.857a2.866 2.866 0 0 0 2.857 2.857H20a2.866 2.866 0 0 0 2.857-2.857zm2.286-14.857v14.857A5.145 5.145 0 0 1 20 27.429H5.143A5.145 5.145 0 0 1 0 22.286V7.429a5.145 5.145 0 0 1 5.143-5.143H20a5.145 5.145 0 0 1 5.143 5.143z"/></svg>