<svg xmlns="http://www.w3.org/2000/svg" width="7" height="32"><path d="M6.857 22.286v3.429c0 .946-.768 1.714-1.714 1.714H1.714A1.715 1.715 0 0 1 0 25.715v-3.429c0-.946.768-1.714 1.714-1.714h3.429c.946 0 1.714.768 1.714 1.714zm0-9.143v3.429c0 .946-.768 1.714-1.714 1.714H1.714A1.715 1.715 0 0 1 0 16.572v-3.429c0-.946.768-1.714 1.714-1.714h3.429c.946 0 1.714.768 1.714 1.714zm0-9.143v3.429c0 .946-.768 1.714-1.714 1.714H1.714A1.715 1.715 0 0 1 0 7.429V4c0-.946.768-1.714 1.714-1.714h3.429c.946 0 1.714.768 1.714 1.714z"/></svg>