<!-- Generated by IcoMoon.io -->
<svg version="1.1" xmlns="http://www.w3.org/2000/svg" width="23" height="32" viewBox="0 0 23 32">
<path d="M18.625 10.089c0-2.393-1.696-4-4.214-4h-5.714v8h5.714c2.518 0 4.214-1.607 4.214-4zM22.857 10.089c0 4.589-3.321 7.804-8.089 7.804h-6.071v2.107h9.018c0.321 0 0.571 0.25 0.571 0.571v2.286c0 0.321-0.25 0.571-0.571 0.571h-9.018v3.429c0 0.321-0.25 0.571-0.571 0.571h-2.982c-0.321 0-0.571-0.25-0.571-0.571v-3.429h-4c-0.321 0-0.571-0.25-0.571-0.571v-2.286c0-0.321 0.25-0.571 0.571-0.571h4v-2.107h-4c-0.321 0-0.571-0.25-0.571-0.571v-2.661c0-0.321 0.25-0.571 0.571-0.571h4v-11.232c0-0.321 0.25-0.571 0.571-0.571h9.625c4.768 0 8.089 3.214 8.089 7.804z"></path>
</svg>
