<svg xmlns="http://www.w3.org/2000/svg" width="27" height="32"><path d="M19.429 16c0 .375-.179.714-.482.929l-8 5.714c-.339.25-.804.286-1.179.089a1.127 1.127 0 0 1-.625-1.018V10.285c0-.429.232-.821.625-1.018a1.125 1.125 0 0 1 1.179.089l8 5.714c.304.214.482.554.482.929zm3.428 8.571V7.428a.564.564 0 0 0-.571-.571H5.143a.564.564 0 0 0-.571.571v17.143c0 .321.25.571.571.571h17.143c.321 0 .571-.25.571-.571zm4.572-17.142v17.143a5.145 5.145 0 0 1-5.143 5.143H5.143A5.145 5.145 0 0 1 0 24.572V7.429a5.145 5.145 0 0 1 5.143-5.143h17.143a5.145 5.145 0 0 1 5.143 5.143z"/></svg>