<!-- Generated by IcoMoon.io -->
<svg version="1.1" xmlns="http://www.w3.org/2000/svg" width="27" height="32" viewBox="0 0 27 32">
<path d="M20.286 26.089l-1.107-3.268c-0.429 0.214-1.232 0.393-1.839 0.393-1.821 0.054-2.196-1.268-2.196-2.25v-7.107h4.589v-3.464h-4.571v-5.821h-3.357c-0.054 0-0.143 0.054-0.161 0.179-0.196 1.768-1.036 4.911-4.5 6.161v2.946h2.321v7.464c0 2.554 1.875 6.196 6.857 6.107 1.679-0.036 3.554-0.732 3.964-1.339zM27.429 7.429v17.143c0 2.839-2.304 5.143-5.143 5.143h-17.143c-2.839 0-5.143-2.304-5.143-5.143v-17.143c0-2.839 2.304-5.143 5.143-5.143h17.143c2.839 0 5.143 2.304 5.143 5.143z"></path>
</svg>
