<!-- Generated by IcoMoon.io -->
<svg version="1.1" xmlns="http://www.w3.org/2000/svg" width="27" height="32" viewBox="0 0 27 32">
<path d="M15.339 17.089l0.232 12.625c-0.607-0.107-1.232-0.196-1.875-0.196-0.625 0-1.25 0.089-1.875 0.196l0.232-12.625c-3.321-5.732-6.446-11.571-10.107-17.089 0.625 0.161 1.268 0.268 1.929 0.268s1.339-0.125 1.982-0.268c2.5 4.429 5.214 8.732 7.839 13.089 2.643-4.321 5.446-8.625 7.839-13.089 0.625 0.161 1.268 0.25 1.911 0.25 0.679 0 1.375-0.089 2.036-0.25v0 0c-1.429 1.964-2.607 4.107-3.839 6.196-2.125 3.625-4.214 7.25-6.304 10.893z"></path>
</svg>
