<!-- Generated by IcoMoon.io -->
<svg version="1.1" xmlns="http://www.w3.org/2000/svg" width="21" height="32" viewBox="0 0 21 32">
<path d="M20.571 14.857c0 6.929-5.643 12.571-12.571 12.571h-2.857c-0.321 0-0.571-0.25-0.571-0.571v-10.911l-3.839 1.179c-0.054 0.018-0.107 0.018-0.161 0.018-0.125 0-0.232-0.036-0.339-0.107-0.143-0.107-0.232-0.286-0.232-0.464v-2.286c0-0.25 0.161-0.464 0.411-0.554l4.161-1.268v-1.661l-3.839 1.179c-0.054 0.018-0.107 0.018-0.161 0.018-0.125 0-0.232-0.036-0.339-0.107-0.143-0.107-0.232-0.286-0.232-0.464v-2.286c0-0.25 0.161-0.464 0.411-0.554l4.161-1.268v-4.464c0-0.321 0.25-0.571 0.571-0.571h2.857c0.321 0 0.571 0.25 0.571 0.571v3.232l6.696-2.071c0.161-0.054 0.357-0.018 0.5 0.089s0.232 0.286 0.232 0.464v2.286c0 0.25-0.161 0.464-0.411 0.554l-7.018 2.161v1.661l6.696-2.071c0.161-0.054 0.357-0.018 0.5 0.089s0.232 0.286 0.232 0.464v2.286c0 0.25-0.161 0.464-0.411 0.554l-7.018 2.161v8.696c4.464-0.304 8-4.018 8-8.554 0-0.321 0.25-0.571 0.571-0.571h2.857c0.321 0 0.571 0.25 0.571 0.571z"></path>
</svg>
