<!-- Generated by IcoMoon.io -->
<svg version="1.1" xmlns="http://www.w3.org/2000/svg" width="27" height="32" viewBox="0 0 27 32">
<path d="M23.071 11.393c0.125-2.589-0.839-3.893-2.875-3.964-2.75-0.089-4.607 1.464-5.571 4.661 0.5-0.214 0.982-0.339 1.464-0.339 1 0 1.446 0.571 1.321 1.714-0.054 0.679-0.5 1.679-1.321 2.982-0.839 1.321-1.464 1.964-1.875 1.964-0.536 0-1-1-1.464-3.018-0.143-0.607-0.411-2.107-0.804-4.554-0.357-2.25-1.304-3.304-2.857-3.161-0.643 0.071-1.643 0.643-2.929 1.786-0.964 0.839-1.911 1.714-2.893 2.571l0.929 1.196c0.893-0.607 1.411-0.929 1.554-0.929 0.679 0 1.321 1.071 1.911 3.196 0.536 1.964 1.071 3.911 1.607 5.875 0.804 2.125 1.768 3.196 2.929 3.196 1.857 0 4.143-1.75 6.839-5.25 2.607-3.357 3.964-6 4.036-7.929zM27.429 7.429v17.143c0 2.839-2.304 5.143-5.143 5.143h-17.143c-2.839 0-5.143-2.304-5.143-5.143v-17.143c0-2.839 2.304-5.143 5.143-5.143h17.143c2.839 0 5.143 2.304 5.143 5.143z"></path>
</svg>
