<svg xmlns="http://www.w3.org/2000/svg" width="27" height="32"><path d="M18.286 10.286v11.429c0 .625-.518 1.143-1.143 1.143-.232 0-.464-.071-.661-.214l-8-5.714A1.126 1.126 0 0 1 8 16.001c0-.357.179-.714.482-.929l8-5.714c.196-.143.429-.214.661-.214.625 0 1.143.518 1.143 1.143zm4.571 14.285V7.428a.587.587 0 0 0-.571-.571H5.143a.587.587 0 0 0-.571.571v17.143c0 .304.268.571.571.571h17.143a.587.587 0 0 0 .571-.571zm4.572-17.142v17.143a5.145 5.145 0 0 1-5.143 5.143H5.143A5.145 5.145 0 0 1 0 24.572V7.429a5.145 5.145 0 0 1 5.143-5.143h17.143a5.145 5.145 0 0 1 5.143 5.143z"/></svg>