<!-- Generated by IcoMoon.io -->
<svg version="1.1" xmlns="http://www.w3.org/2000/svg" width="27" height="32" viewBox="0 0 27 32">
<path d="M16.768 20.161c0.125 0.125 0.125 0.339 0 0.464-0.875 0.875-2.554 0.946-3.054 0.946s-2.179-0.071-3.054-0.946c-0.125-0.125-0.125-0.339 0-0.464 0.125-0.143 0.339-0.143 0.464 0 0.554 0.554 1.75 0.75 2.589 0.75s2.036-0.196 2.589-0.75c0.125-0.143 0.339-0.143 0.464 0zM12.071 17.375c0 0.75-0.625 1.375-1.375 1.375s-1.375-0.625-1.375-1.375c0-0.768 0.625-1.375 1.375-1.375s1.375 0.607 1.375 1.375zM18.107 17.375c0 0.75-0.625 1.375-1.375 1.375s-1.375-0.625-1.375-1.375c0-0.768 0.625-1.375 1.375-1.375s1.375 0.607 1.375 1.375zM21.946 15.536c0-1-0.821-1.821-1.839-1.821-0.5 0-0.964 0.214-1.304 0.554-1.25-0.857-2.929-1.411-4.768-1.464l0.964-4.339 3.054 0.696c0.018 0.75 0.625 1.357 1.375 1.357s1.375-0.625 1.375-1.375-0.625-1.375-1.375-1.375c-0.536 0-1 0.304-1.232 0.768l-3.375-0.75c-0.179-0.054-0.339 0.071-0.375 0.232l-1.071 4.786c-1.839 0.071-3.5 0.625-4.732 1.482-0.339-0.357-0.804-0.571-1.321-0.571-1.018 0-1.839 0.821-1.839 1.821 0 0.732 0.429 1.357 1.036 1.661-0.054 0.268-0.089 0.571-0.089 0.857 0 2.911 3.268 5.268 7.304 5.268s7.321-2.357 7.321-5.268c0-0.304-0.036-0.589-0.107-0.875 0.589-0.304 1-0.929 1-1.643zM27.429 7.429v17.143c0 2.839-2.304 5.143-5.143 5.143h-17.143c-2.839 0-5.143-2.304-5.143-5.143v-17.143c0-2.839 2.304-5.143 5.143-5.143h17.143c2.839 0 5.143 2.304 5.143 5.143z"></path>
</svg>
