<!-- Generated by IcoMoon.io -->
<svg version="1.1" xmlns="http://www.w3.org/2000/svg" width="36" height="32" viewBox="0 0 36 32">
<path d="M21.821 16.589c4.643-0.179 7.214 3.643 9.321 7.179 1.25 2.125 2.714 3.375 4.518 4.964-1.929 1.196-4.375 2-6.446 2.929-3.429-2.875-1.429-14.286-6.929-14.286l-0.179 0.036-0.107 0.071c0.071 0.089 0.161 0.179 0.232 0.25 1.482 1.25 2.071 1.518 2.161 3.643l0.018 0.589c0.054 1.339-0.339 2.643-0.607 3.946-1.196-0.036-2.357 0.357-3.554 0.357-0.446 0-0.875-0.054-1.286-0.179-0.036-0.286-0.036-0.571-0.036-0.839 0-0.554-0.018-1.179 0.054-1.714 0.089-0.589 2.089-1.857 2.054-2.714-0.339-0.036-0.571 0.161-0.768 0.429-0.821 1.214-2.929 2.607-4.429 2.607-1.036 0-3.5-4.446-4.75-5.339-0.196-0.143-0.321-0.339-0.482-0.536-1 0.232-8.661 2-9.161 2-0.375 0-0.714-0.304-0.714-0.679 0-0.339 0.214-0.661 0.554-0.732l8.679-1.893c-0.589-1.071 0.768-1.089 1.339-1.25 0.196-0.054 0.393-0.25 0.589-0.25 0.393 0 0.732 0.554 0.857 0.875 0.393-0.089 2.839-0.661 3.071-0.661 0.393 0 0.75 0.286 0.75 0.696 0 0.339-0.214 0.643-0.571 0.714l-3.25 0.714-0.018 0.286c-0.018 0.625 2.821 3.732 3.321 3.732 1.125 0 3.411-2.589 3.411-3.732 0-1.911-2.661-0.786-2.661-2.089 0-0.214 0.071-0.411 0.179-0.607l-1.214-0.339c0.554-0.571 0.768-1.304 0.768-2.089 0-0.339-0.036-0.696-0.089-1.036 0.911-0.179 1.661-0.286 2.571-0.286 3.536 0 2.839 0.536 4.071 3.375l0.893-0.446c-0.143 2.125-2.25 1.089-2.179 1.929zM22.893 12.393c-0.696-0.804-1-1.196-1.411-1.375-0.429-0.196-0.982-0.143-2.268-0.143-1.339 0-2.661 0.196-3.875 0.768 0.393-0.732 0.821-1.054 1.607-1.357 1.696-0.643 2.5-1.893 3.661-3.179 0.607 0.429 0.875 1.5 1.75 1.446l0.214-0.018v1.357l0.393 0.018c2.321-0.893 4.643-1.875 6.625-3.393 3-2.286 3.286-3.107 5.054-6.214l0.125-0.161c-0.036 0.875-0.393 1.696-0.768 2.482-1.893 3.964-4.893 6.232-9.125 7.25-0.768 0.179-1.643 0.196-2.339 0.554 0.089 0.607 0.821 1.125 0.821 1.429 0 0.214-0.339 0.446-0.464 0.536zM18.946 28.839c0.982-0.643 3.786-1.232 4.964-1.232 0.589 0 1.75 2.804 2.054 3.429-1.393 0.518-2.857 0.804-4.357 0.804-0.75 0-1.5-0.071-2.232-0.196zM14.679 17.286l0.857-0.214 1.946 3.161-1.304 0.857zM23.625 26.518c0.018 0.089 0.054 0.196 0.054 0.286 0 0.464-3.071 0.786-3.625 0.875l-0.125-0.768c1.107-0.125 2.339-0.411 3.446-0.393h0.25zM15.464 15.304l-1.714 0.357-0.107-0.304c0.411-0.036 0.786-0.232 1.196-0.232 0.232 0 0.429 0.054 0.625 0.179zM18.946 26.625h0.554l0.179 1.482-0.732 0.214v-1.696zM34.821 0.018v0 0zM34.821 0.018l-0.018 0.089-0.036 0.036 0.018-0.054zM34.821 0.018l0.018-0.018z"></path>
</svg>
