<!-- Generated by IcoMoon.io -->
<svg version="1.1" xmlns="http://www.w3.org/2000/svg" width="27" height="32" viewBox="0 0 27 32">
<path d="M20.839 28.321c-0.036-0.125-0.143-0.304-0.429-0.089-0.607 0.446-1.964 1-3.893 1s-2.839-0.411-3.446-0.875c-0.089-0.071-0.054-0.071-0.232-0.071-0.196 0-0.304 0.089-0.464 0.214-0.143 0.125-0.214 0.429 0 0.643 1.321 1.214 3.536 1.107 5.161 0.964 1.643-0.161 3.036-1.125 3.179-1.268 0.214-0.214 0.161-0.393 0.125-0.518zM20.143 26.268c-0.125-0.304-0.339-0.839-0.696-1.089-0.357-0.232-0.875-0.268-1.357-0.268s-0.75-0.036-1.268 0.179-1.054 0.696-1.393 1-0.393 0.536-0.214 0.786c0.179 0.232 0.375 0.089 0.875-0.339 0.518-0.411 0.857-0.786 1.911-0.786s1.232 0.393 1.446 0.786 0.232 0.446 0.446 0.339c0.25-0.125 0.375-0.304 0.25-0.607zM26.482 21.25c0-0.929-0.411-2.5-1.929-2.5-1.429 0-4.321 2.964-5.839 2.982-1.768 0.036-4.214-3.5-7.75-3.464-2.786 0.018-4.982 2.232-5.018 4.589-0.018 1.321 0.411 2.304 1.321 2.929 0.607 0.411 1.161 0.661 2.964 0.661 3 0 6.804-3.714 8.554-3.661 1.393 0.054 3.554 3.464 4.643 3.536 0.857 0.071 1.304-0.321 2.036-1.375 0.714-1.071 1.018-2.75 1.018-3.696zM27.429 18.393c0 8-6.321 13.286-13.589 13.286-7.286 0-13.839-5.732-13.839-13.536 0-7.786 6.071-11.393 7.196-11.982 1.339-0.714 2.304-1.089 3.821-2.304 0.75-0.589 1.375-1.446 1.571-3.536 1.089 1.304 2.393 2.821 3.321 3.446 1.518 1 3.036 1.393 4.625 2.393 0.964 0.589 6.893 4.214 6.893 12.232z"></path>
</svg>
