<!-- Generated by IcoMoon.io -->
<svg version="1.1" xmlns="http://www.w3.org/2000/svg" width="27" height="32" viewBox="0 0 27 32">
<path d="M11.679 19.25c-0.036 0.125-0.911-0.286-1.143-0.375-0.232-0.107-1.286-0.696-1.554-0.875s-1.286-1.018-1.411-1.071v0c-0.643 0.982-1.464 2.143-2.393 3.232-0.321 0.375-1.286 1.589-1.875 1.964-0.089 0.054-0.607 0.107-0.679 0.071 0.286-0.214 1.107-1.232 1.464-1.643 0.446-0.518 2.571-3.482 2.929-4.161 0.375-0.679 1.5-2.929 1.554-3.143-0.179-0.018-1.589 0.464-1.964 0.589-0.357 0.107-1.339 0.339-1.411 0.393-0.071 0.071-0.018 0.286-0.054 0.357s-0.357 0.232-0.554 0.268c-0.179 0.054-0.589 0.071-0.839 0-0.232-0.054-0.446-0.286-0.5-0.375 0 0-0.071-0.107-0.089-0.411 0.214-0.071 0.571-0.089 0.964-0.196s1.357-0.393 1.875-0.571 1.518-0.554 1.821-0.625c0.321-0.054 1.125-0.589 1.554-0.732s0.732-0.321 0.75-0.232 0 0.482-0.018 0.589c-0.018 0.089-0.875 1.768-1 2.036-0.071 0.143-0.571 1.089-1.375 2.339 0.286 0.125 0.893 0.375 1.143 0.5 0.304 0.143 2.429 1.036 2.536 1.071s0.304 0.857 0.268 1zM8.018 10.571c0.054 0.304-0.036 0.429-0.071 0.5-0.179 0.339-0.625 0.571-0.893 0.679s-0.714 0.214-1.071 0.214c-0.161-0.018-0.482-0.071-0.875-0.464-0.214-0.232-0.375-0.857-0.304-0.786s0.589 0.143 0.821 0.089 0.786-0.214 1.036-0.286c0.268-0.089 0.804-0.232 0.982-0.25 0.179 0 0.321 0.071 0.375 0.304zM20.482 12.875l1.125 4.054-2.482-0.75zM0.696 27.161l12.393-4.143v-18.429l-12.393 4.161v18.411zM22.857 21.5l1.821 0.554-3.232-11.732-1.786-0.554-3.857 9.571 1.821 0.554 0.804-1.964 3.768 1.161zM13.875 4.321l10.232 3.286v-6.786zM19.429 27.946l2.821 0.232-0.964 2.857-0.714-1.179c-1.446 0.929-3.232 1.643-4.929 1.929-0.518 0.107-1.107 0.214-1.625 0.214h-1.5c-1.893 0-5.339-1.125-6.839-2.214-0.107-0.089-0.143-0.161-0.143-0.286 0-0.196 0.143-0.339 0.321-0.339 0.161 0 1 0.518 1.232 0.625 1.607 0.804 3.857 1.536 5.661 1.536 2.232 0 3.75-0.286 5.786-1.161 0.589-0.268 1.107-0.607 1.661-0.911zM27.429 8.679v19.268c-13.804-4.393-13.821-4.393-13.821-4.393-0.286 0.125-13.089 4.446-13.268 4.446-0.143 0-0.268-0.089-0.321-0.232 0-0.018-0.018-0.036-0.018-0.054v-19.25c0.018-0.054 0.036-0.143 0.071-0.179 0.107-0.125 0.25-0.161 0.357-0.196 0.054-0.018 1.143-0.375 2.661-0.893v-6.857l9.964 3.536c0.125-0.036 11.232-3.875 11.393-3.875 0.196 0 0.357 0.143 0.357 0.375v7.464z"></path>
</svg>
