<!-- Generated by IcoMoon.io -->
<svg version="1.1" xmlns="http://www.w3.org/2000/svg" width="27" height="32" viewBox="0 0 27 32">
<path d="M26.732 14.768v3.536c-1.25 0.286-2.5 0.411-3.536 0.411-2.5 5.25-6.982 9.75-8.482 10.589-0.946 0.536-1.839 0.571-2.893-0.054-1.839-1.107-8.804-6.821-11.125-24.786h5.054c1.268 10.786 4.375 16.321 7.786 20.464 1.893-1.893 3.714-4.411 5.125-7.25-3.375-1.714-5.429-5.482-5.429-9.875 0-4.446 2.554-7.804 6.929-7.804 4.25 0 6.571 2.643 6.571 7.196 0 1.696-0.357 3.625-1.036 5.107 0 0-3.143 0.625-4.304-1.393 0.232-0.768 0.554-2.089 0.554-3.286 0-2.125-0.768-3.161-1.929-3.161-1.232 0-2.089 1.161-2.089 3.393 0 4.554 2.893 7.161 6.643 7.161 0.661 0 1.411-0.071 2.161-0.25z"></path>
</svg>
