<!-- Generated by IcoMoon.io -->
<svg version="1.1" xmlns="http://www.w3.org/2000/svg" width="27" height="32" viewBox="0 0 27 32">
<path d="M26.214 6.786c0.661 0.661 1.214 1.982 1.214 2.929v20.571c0 0.946-0.768 1.714-1.714 1.714h-24c-0.946 0-1.714-0.768-1.714-1.714v-28.571c0-0.946 0.768-1.714 1.714-1.714h16c0.946 0 2.268 0.554 2.929 1.214zM18.286 2.429v6.714h6.714c-0.107-0.304-0.268-0.607-0.393-0.732l-5.589-5.589c-0.125-0.125-0.429-0.286-0.732-0.393zM25.143 29.714v-18.286h-7.429c-0.946 0-1.714-0.768-1.714-1.714v-7.429h-13.714v27.429h22.857zM8.571 13.714c0.196-0.25 0.554-0.304 0.804-0.107l0.911 0.679c0.25 0.196 0.304 0.554 0.107 0.804l-3.25 4.339 3.25 4.339c0.196 0.25 0.143 0.607-0.107 0.804l-0.911 0.679c-0.25 0.196-0.607 0.143-0.804-0.107l-4.036-5.375c-0.143-0.196-0.143-0.482 0-0.679zM22.893 19.089c0.143 0.196 0.143 0.482 0 0.679l-4.036 5.375c-0.196 0.25-0.554 0.304-0.804 0.107l-0.911-0.679c-0.25-0.196-0.304-0.554-0.107-0.804l3.25-4.339-3.25-4.339c-0.196-0.25-0.143-0.607 0.107-0.804l0.911-0.679c0.25-0.196 0.607-0.143 0.804 0.107zM11.821 27.321c-0.321-0.054-0.518-0.357-0.464-0.661l2.464-14.839c0.054-0.321 0.357-0.518 0.661-0.464l1.125 0.179c0.321 0.054 0.518 0.357 0.464 0.661l-2.464 14.839c-0.054 0.321-0.357 0.518-0.661 0.464z"></path>
</svg>
