<!-- Generated by IcoMoon.io -->
<svg version="1.1" xmlns="http://www.w3.org/2000/svg" width="27" height="32" viewBox="0 0 27 32">
<path d="M26.214 6.786c0.661 0.661 1.214 1.982 1.214 2.929v20.571c0 0.946-0.768 1.714-1.714 1.714h-24c-0.946 0-1.714-0.768-1.714-1.714v-28.571c0-0.946 0.768-1.714 1.714-1.714h16c0.946 0 2.268 0.554 2.929 1.214zM18.286 2.429v6.714h6.714c-0.107-0.304-0.268-0.607-0.393-0.732l-5.589-5.589c-0.125-0.125-0.429-0.286-0.732-0.393zM25.143 29.714v-18.286h-7.429c-0.946 0-1.714-0.768-1.714-1.714v-7.429h-13.714v27.429h22.857zM15.964 19.125c0.446 0.357 0.946 0.679 1.5 1 0.75-0.089 1.446-0.125 2.089-0.125 1.196 0 2.714 0.143 3.161 0.875 0.125 0.179 0.232 0.5 0.036 0.929-0.018 0.018-0.036 0.054-0.054 0.071v0.018c-0.054 0.321-0.321 0.679-1.268 0.679-1.143 0-2.875-0.518-4.375-1.304-2.482 0.268-5.089 0.821-7 1.482-1.839 3.143-3.25 4.679-4.321 4.679-0.179 0-0.339-0.036-0.5-0.125l-0.429-0.214c-0.054-0.018-0.071-0.054-0.107-0.089-0.089-0.089-0.161-0.286-0.107-0.643 0.179-0.821 1.143-2.196 3.357-3.357 0.143-0.089 0.321-0.036 0.411 0.107 0.018 0.018 0.036 0.054 0.036 0.071 0.554-0.911 1.196-2.071 1.911-3.518 0.804-1.607 1.429-3.179 1.857-4.679-0.571-1.946-0.75-3.946-0.429-5.125 0.125-0.446 0.393-0.714 0.75-0.714h0.393c0.268 0 0.482 0.089 0.625 0.268 0.214 0.25 0.268 0.643 0.161 1.214-0.018 0.054-0.036 0.107-0.071 0.143 0.018 0.054 0.018 0.089 0.018 0.143v0.536c-0.018 1.125-0.036 2.196-0.25 3.429 0.625 1.875 1.554 3.393 2.607 4.25zM5.679 26.464c0.536-0.25 1.304-1.018 2.446-2.821-1.339 1.036-2.179 2.214-2.446 2.821zM12.786 10.036c-0.179 0.5-0.179 1.357-0.036 2.357 0.054-0.286 0.089-0.554 0.125-0.786 0.036-0.304 0.089-0.554 0.125-0.768 0.018-0.054 0.036-0.089 0.071-0.143-0.018-0.018-0.018-0.054-0.036-0.089-0.018-0.321-0.125-0.518-0.232-0.643 0 0.036-0.018 0.054-0.018 0.071zM10.571 21.839c1.571-0.625 3.321-1.125 5.071-1.446-0.179-0.143-0.357-0.268-0.518-0.411-0.875-0.768-1.661-1.839-2.268-3.143-0.339 1.089-0.839 2.25-1.482 3.518-0.268 0.5-0.536 1-0.804 1.482zM22.107 21.554c-0.089-0.089-0.554-0.429-2.5-0.429 0.875 0.321 1.679 0.5 2.214 0.5 0.161 0 0.25 0 0.321-0.018 0-0.018-0.018-0.036-0.036-0.054z"></path>
</svg>
