<svg xmlns="http://www.w3.org/2000/svg" width="23" height="32"><path d="M15.036 10.214a3.46 3.46 0 0 1-3.446 3.446 3.48 3.48 0 0 1-1.982-.625 21.787 21.787 0 0 0-2.054 2.607c-2.911 4.375-4.143 9.536-3.607 15.339a.951.951 0 0 1-.839 1.018h-.089a.944.944 0 0 1-.929-.839c-.696-7.821 1.786-13.357 3.982-16.625a22.04 22.04 0 0 1 2.357-2.946 3.282 3.282 0 0 1-.286-1.375 3.437 3.437 0 0 1 3.446-3.446 3.448 3.448 0 0 1 3.446 3.446zm6.803.197c0 5.732-4.661 10.393-10.411 10.393-.786 0-1.571-.089-2.339-.25a.95.95 0 0 1-.696-1.125.946.946 0 0 1 1.107-.696 7.798 7.798 0 0 0 1.929.232c4.714 0 8.554-3.839 8.554-8.554s-3.839-8.554-8.554-8.554-8.554 3.839-8.554 8.554a8.61 8.61 0 0 0 .929 3.893.932.932 0 0 1-.393 1.25.923.923 0 0 1-1.25-.411 10.334 10.334 0 0 1-1.143-4.732C1.018 4.661 5.697 0 11.429 0c5.75 0 10.411 4.661 10.411 10.411z"/></svg>