<!-- Generated by IcoMoon.io -->
<svg version="1.1" xmlns="http://www.w3.org/2000/svg" width="37" height="32" viewBox="0 0 37 32">
<path d="M10.357 8.232c0-0.982-0.643-1.625-1.625-1.625-0.964 0-1.946 0.643-1.946 1.625 0 0.964 0.982 1.607 1.946 1.607 0.982 0 1.625-0.643 1.625-1.607zM23.625 17.286c0-0.643-0.643-1.286-1.625-1.286-0.643 0-1.286 0.643-1.286 1.286 0 0.661 0.643 1.304 1.286 1.304 0.982 0 1.625-0.643 1.625-1.304zM19.411 8.232c0-0.982-0.643-1.625-1.607-1.625-0.982 0-1.946 0.643-1.946 1.625 0 0.964 0.964 1.607 1.946 1.607 0.964 0 1.607-0.643 1.607-1.607zM30.75 17.286c0-0.643-0.661-1.286-1.625-1.286-0.643 0-1.286 0.643-1.286 1.286 0 0.661 0.643 1.304 1.286 1.304 0.964 0 1.625-0.643 1.625-1.304zM26 10.196c-0.411-0.054-0.821-0.071-1.25-0.071-6.143 0-11 4.589-11 10.232 0 0.946 0.143 1.857 0.411 2.714-0.411 0.036-0.804 0.054-1.214 0.054-1.625 0-2.911-0.321-4.536-0.643l-4.518 2.268 1.286-3.893c-3.232-2.268-5.179-5.196-5.179-8.75 0-6.161 5.821-11 12.946-11 6.357 0 11.946 3.875 13.054 9.089zM36.571 20.214c0 2.911-1.929 5.5-4.536 7.446l0.982 3.232-3.554-1.946c-1.304 0.321-2.607 0.661-3.893 0.661-6.161 0-11-4.214-11-9.393s4.839-9.393 11-9.393c5.821 0 11 4.214 11 9.393z"></path>
</svg>
