<!-- Generated by IcoMoon.io -->
<svg version="1.1" xmlns="http://www.w3.org/2000/svg" width="32" height="32" viewBox="0 0 32 32">
<path d="M0.339 15.607c0.179-5.107 2.786-9.821 7.518-12.929 0.018 0 0.125-0.036 0.071 0.054-0.375 0.357-7.179 8.375-0.911 14.607 3.214 3.196 5.804 0.161 5.804 0.161 2.482-3.232-0.036-8.125-0.036-8.125-0.643-1.607-2.946-2.589-2.946-2.589l1.857-2.054c1.571 0.679 2.786 2.5 2.786 2.5 0.054-1.911-1.411-3.964-1.411-3.964l2.875-3.268 2.857 3.232c-1.321 1.857-1.411 4.036-1.411 4.036 0.893-1.482 2.804-2.536 2.804-2.536l1.839 2.054c-1.768 0.571-2.929 2.571-2.929 2.571-1.018 1.839-1.75 5.768 0.036 8.214 2.089 2.875 5.661-0.179 5.661-0.179 6.625-5.929-0.679-14.518-0.679-14.518-0.393-0.357 0.054-0.179 0.054-0.179 3.232 2.357 7.393 5.446 7.5 13.214 0.125 9.393-6.446 16.089-15.643 16.089-8.982 0-15.964-7.5-15.696-16.393z"></path>
</svg>
