<!-- Generated by IcoMoon.io -->
<svg version="1.1" xmlns="http://www.w3.org/2000/svg" width="32" height="32" viewBox="0 0 32 32">
<path d="M15.607 29.25v1.179c-5.036-0.143-9.446-2.857-11.929-6.875l1.036-0.607c0.375 0.625 0.821 1.214 1.304 1.768l1.161-1.018c1.679 1.911 3.964 3.268 6.571 3.786l-0.304 1.536c0.696 0.125 1.429 0.214 2.161 0.232zM4.929 19.786l-1.482 0.5c0.25 0.696 0.536 1.357 0.875 2l-1.018 0.589c-1.107-2.036-1.75-4.393-1.75-6.875s0.643-4.839 1.75-6.875l1.018 0.589c-0.339 0.625-0.643 1.304-0.875 2l1.464 0.5c-0.411 1.179-0.625 2.464-0.625 3.786s0.232 2.607 0.643 3.786zM27.286 22.946l1.036 0.607c-2.482 4.018-6.893 6.732-11.929 6.875v-1.179c0.732-0.018 1.464-0.107 2.161-0.232l-0.304-1.536c2.607-0.518 4.893-1.875 6.571-3.786l1.161 1.018c0.482-0.554 0.929-1.143 1.304-1.768zM24.589 13.054l-4.161 1.429c0.161 0.482 0.25 0.982 0.25 1.518s-0.089 1.036-0.25 1.518l4.143 1.429c-0.375 1.125-0.982 2.143-1.75 3.018l-3.304-2.893c-0.661 0.768-1.571 1.304-2.625 1.518l0.857 4.304c-0.554 0.107-1.143 0.179-1.75 0.179s-1.196-0.071-1.75-0.179l0.857-4.304c-1.054-0.214-1.964-0.75-2.625-1.518l-3.304 2.893c-0.768-0.875-1.375-1.893-1.75-3.018l4.143-1.429c-0.161-0.482-0.25-0.982-0.25-1.518s0.089-1.036 0.25-1.518l-4.161-1.429c0.393-1.125 1-2.143 1.768-3.018l3.304 2.893c0.661-0.768 1.571-1.321 2.625-1.536l-0.857-4.286c0.554-0.125 1.143-0.179 1.75-0.179s1.196 0.054 1.75 0.179l-0.857 4.286c1.054 0.214 1.964 0.768 2.625 1.536l3.304-2.893c0.768 0.875 1.375 1.893 1.768 3.018zM15.607 1.571v1.179c-0.732 0.018-1.464 0.089-2.161 0.232l0.304 1.536c-2.607 0.5-4.893 1.857-6.571 3.768l-1.161-1c-0.482 0.536-0.911 1.125-1.304 1.75l-1.018-0.589c2.482-4.036 6.875-6.732 11.911-6.875v0zM30.446 16c0 2.482-0.643 4.839-1.75 6.875l-1.018-0.589c0.339-0.643 0.625-1.304 0.875-2l-1.482-0.5c0.411-1.179 0.643-2.464 0.643-3.786s-0.214-2.607-0.625-3.786l1.464-0.5c-0.232-0.696-0.536-1.375-0.875-2l1.018-0.589c1.107 2.036 1.75 4.393 1.75 6.875zM28.304 8.446l-1.018 0.589c-0.393-0.625-0.821-1.214-1.304-1.75l-1.161 1c-1.679-1.911-3.964-3.268-6.571-3.768l0.304-1.536c-0.696-0.143-1.429-0.214-2.161-0.232v-1.179c5.036 0.143 9.429 2.839 11.911 6.875zM31.214 16c0-8.393-6.821-15.214-15.214-15.214v0c-8.393 0-15.214 6.821-15.214 15.214s6.821 15.214 15.214 15.214 15.214-6.821 15.214-15.214zM32 16c0 8.839-7.161 16-16 16s-16-7.161-16-16 7.161-16 16-16v0c8.839 0 16 7.161 16 16z"></path>
</svg>
