<!-- Generated by IcoMoon.io -->
<svg version="1.1" xmlns="http://www.w3.org/2000/svg" width="23" height="32" viewBox="0 0 23 32">
<path d="M15.036 10.214c0 1.893-1.554 3.446-3.446 3.446-0.732 0-1.411-0.232-1.982-0.625-0.643 0.696-1.357 1.571-2.054 2.607-2.911 4.375-4.143 9.536-3.607 15.339 0.036 0.518-0.339 0.964-0.839 1.018h-0.089c-0.464 0-0.875-0.357-0.929-0.839-0.696-7.821 1.786-13.357 3.982-16.625 0.804-1.196 1.607-2.161 2.357-2.946-0.196-0.429-0.286-0.893-0.286-1.375 0-1.911 1.536-3.446 3.446-3.446 1.893 0 3.446 1.536 3.446 3.446zM21.839 10.411c0 5.732-4.661 10.393-10.411 10.393-0.786 0-1.571-0.089-2.339-0.25-0.5-0.125-0.804-0.625-0.696-1.125 0.125-0.482 0.607-0.804 1.107-0.696 0.625 0.161 1.286 0.232 1.929 0.232 4.714 0 8.554-3.839 8.554-8.554s-3.839-8.554-8.554-8.554-8.554 3.839-8.554 8.554c0 1.375 0.321 2.679 0.929 3.893 0.232 0.464 0.054 1.018-0.393 1.25-0.464 0.232-1.018 0.054-1.25-0.411-0.75-1.446-1.143-3.089-1.143-4.732 0-5.75 4.679-10.411 10.411-10.411 5.75 0 10.411 4.661 10.411 10.411z"></path>
</svg>
