<svg xmlns="http://www.w3.org/2000/svg" width="32" height="32"><path d="M31.5.196c.375.268.554.696.482 1.143l-4.571 27.429a1.152 1.152 0 0 1-.571.804 1.164 1.164 0 0 1-.554.143c-.143 0-.286-.036-.429-.089l-9.411-3.839-5.321 5.839c-.214.25-.518.375-.839.375-.143 0-.286-.018-.411-.071a1.16 1.16 0 0 1-.732-1.071v-8.071L.714 19.342A1.13 1.13 0 0 1 0 18.36a1.12 1.12 0 0 1 .571-1.054L30.285.163a1.11 1.11 0 0 1 1.214.036zm-6.107 26.768l3.946-23.625L3.732 18.107l6 2.446L25.143 9.142l-8.536 14.232z"/></svg>