<!-- Generated by IcoMoon.io -->
<svg version="1.1" xmlns="http://www.w3.org/2000/svg" width="32" height="32" viewBox="0 0 32 32">
<path d="M4.821 14.393c-0.125-0.304-0.143-0.607-0.143-0.929 0-0.5 0.321-1.304 0.625-1.679-0.018-0.464 0.179-1.411 0.536-1.714 0-3.304 2.554-7.464 5.536-8.893 1.839-0.875 3.768-1.179 5.786-1.179 1.571 0 3.286 0.375 4.75 0.982 4.196 1.768 5.143 5.054 6.036 9.25l0.018 0.089c0.518 0.786 0.982 1.714 0.982 2.679 0 0.482-0.321 0.964-0.321 1.393 0 0.036 0.107 0.179 0.125 0.214 1.536 2.268 2.929 4.732 2.929 7.554 0 0.625-0.339 2.804-1.339 2.804-0.696 0-1.464-1.696-1.714-2.161-0.018-0.018-0.036-0.018-0.054-0.018l-0.089 0.071c-0.571 1.482-1.196 2.875-2.357 3.982 1.018 0.982 2.661 0.893 2.964 2.589-0.089 0.196-0.054 0.411-0.196 0.607-1.018 1.536-3.75 1.732-5.393 1.732-2.179 0-3.946-0.571-6-1.179-0.429-0.125-1.071-0.054-1.536-0.107-1.089 1.196-3.75 1.518-5.286 1.518-1.357 0-6.607-0.089-6.607-2.411 0-1 0.214-1.286 0.911-1.929 0.554-0.107 0.964-0.411 1.607-0.446 0.089 0 0.161-0.018 0.25-0.036 0.018-0.018 0.036-0.018 0.036-0.071l-0.036-0.054c-1.232-0.286-2.964-3.393-3.232-4.679l-0.089-0.054c-0.125 0-0.179 0.268-0.214 0.357-0.393 0.911-1.321 1.893-2.357 2h-0.018c-0.143 0-0.089-0.143-0.196-0.179-0.25-0.589-0.411-1.125-0.411-1.786 0-3.571 1.714-6.214 4.5-8.321z"></path>
</svg>
