<!-- Generated by IcoMoon.io -->
<svg version="1.1" xmlns="http://www.w3.org/2000/svg" width="27" height="32" viewBox="0 0 27 32">
<path d="M13.804 23.554v2.268c-0.018 5.036-0.018 5.214-0.107 5.446-0.143 0.375-0.464 0.625-0.911 0.714-1.286 0.214-5.304-1.268-6.143-2.268-0.179-0.196-0.268-0.429-0.304-0.643-0.018-0.161 0.018-0.321 0.071-0.464 0.089-0.25 0.25-0.446 3.839-4.696 0 0 0.018 0 1.071-1.25 0.357-0.446 1-0.589 1.589-0.375 0.589 0.232 0.911 0.732 0.893 1.268zM11.143 19.071c-0.036 0.625-0.393 1.089-0.929 1.25l-2.143 0.696c-4.804 1.536-4.964 1.571-5.214 1.571-0.393-0.018-0.75-0.25-0.964-0.643-0.143-0.286-0.25-0.768-0.304-1.339-0.196-1.75 0.036-4.375 0.554-5.196 0.25-0.393 0.607-0.589 1-0.571 0.268 0 0.482 0.107 5.661 2.214 0 0-0.018 0.018 1.5 0.607 0.536 0.214 0.875 0.768 0.839 1.411zM25.893 24.375c-0.179 1.286-2.839 4.661-4.054 5.143-0.411 0.161-0.821 0.125-1.125-0.125-0.214-0.161-0.429-0.482-3.286-5.125l-0.839-1.375c-0.321-0.5-0.268-1.143 0.143-1.643 0.393-0.482 0.964-0.643 1.482-0.464 0 0 0.018 0.018 2.125 0.714 4.804 1.571 4.964 1.625 5.161 1.786 0.321 0.25 0.464 0.625 0.393 1.089zM13.893 13.089c0.089 1.857-0.696 2.089-0.964 2.179-0.25 0.071-1.036 0.304-2.036-1.268-6.571-10.375-6.75-10.679-6.75-10.679-0.089-0.375 0.018-0.786 0.339-1.107 0.982-1.018 6.321-2.518 7.714-2.161 0.446 0.107 0.768 0.393 0.875 0.804 0.071 0.446 0.714 10.071 0.821 12.232zM25.714 15.018c0.036 0.446-0.125 0.821-0.464 1.054-0.214 0.143-0.429 0.214-5.875 1.536-0.875 0.196-1.357 0.321-1.625 0.411l0.018-0.036c-0.536 0.143-1.143-0.107-1.482-0.643s-0.321-1.125 0-1.554c0 0 0.018-0.018 1.339-1.821 2.929-4 3.071-4.196 3.286-4.339 0.339-0.232 0.75-0.232 1.161-0.036 1.161 0.554 3.5 4.036 3.643 5.375v0.054z"></path>
</svg>
