<svg xmlns="http://www.w3.org/2000/svg" width="37" height="32"><path d="M27.821 15.214c.911 5.321 3.25 8.179 5.321 9.929a2.302 2.302 0 0 1-2.286 2.286h-8c0 2.518-2.054 4.571-4.571 4.571s-4.554-2.036-4.571-4.554zm-9.535 15.357c.161 0 .286-.125.286-.286s-.125-.286-.286-.286a2.583 2.583 0 0 1-2.571-2.571c0-.161-.125-.286-.286-.286s-.286.125-.286.286a3.148 3.148 0 0 0 3.143 3.143zM36.179 2a.605.605 0 0 1-.054.821L2.696 31.785a.57.57 0 0 1-.804-.071L.392 30c-.196-.25-.179-.607.054-.804l3.321-2.875a2.266 2.266 0 0 1-.339-1.179c2.643-2.232 5.714-6.232 5.714-14.857 0-3.429 2.839-7.179 7.571-7.875a1.8 1.8 0 0 1-.143-.696 1.715 1.715 0 1 1 3.285.696c3.071.446 5.339 2.179 6.554 4.286L33.873.214a.57.57 0 0 1 .804.071z"/></svg>