<!-- Generated by IcoMoon.io -->
<svg version="1.1" xmlns="http://www.w3.org/2000/svg" width="41" height="32" viewBox="0 0 41 32">
<path d="M5.589 13.875c0 0.571-0.232 1.125-0.643 1.5-0.357 0.321-0.839 0.464-1.589 0.464h-0.304v-3.929h0.304c0.75 0 1.214 0.125 1.589 0.482 0.411 0.357 0.643 0.911 0.643 1.482zM37.304 12.714c0 0.607-0.393 0.929-1.143 0.929h-0.339v-1.804h0.357c0.732 0 1.125 0.304 1.125 0.875zM6.786 13.875c0-1.75-1.304-2.982-3.196-2.982h-1.696v5.946h1.696c0.893 0 1.554-0.196 2.125-0.679 0.679-0.571 1.071-1.411 1.071-2.286zM7.321 16.839h1.161v-5.946h-1.161v5.946zM13.036 15.036c0-0.946-0.393-1.375-1.714-1.857-0.696-0.25-0.893-0.429-0.893-0.75 0-0.375 0.357-0.661 0.857-0.661 0.357 0 0.643 0.143 0.946 0.482l0.607-0.786c-0.5-0.446-1.107-0.661-1.75-0.661-1.054 0-1.857 0.732-1.857 1.696 0 0.821 0.375 1.25 1.464 1.643 0.446 0.161 0.679 0.25 0.804 0.339 0.232 0.143 0.339 0.357 0.339 0.607 0 0.482-0.375 0.839-0.893 0.839-0.554 0-1-0.268-1.268-0.786l-0.75 0.714c0.536 0.786 1.179 1.143 2.054 1.143 1.214 0 2.054-0.804 2.054-1.964zM18 16.643v-1.375c-0.464 0.464-0.875 0.661-1.393 0.661-1.179 0-2-0.857-2-2.054 0-1.143 0.857-2.054 1.946-2.054 0.554 0 0.964 0.196 1.446 0.679v-1.375c-0.5-0.25-0.929-0.357-1.429-0.357-1.75 0-3.161 1.375-3.161 3.107 0 1.75 1.375 3.107 3.143 3.107 0.5 0 0.929-0.089 1.446-0.339zM40 27.429v-9.411c-2.857 1.786-12.911 7.5-29.161 10.554h28.018c0.625 0 1.143-0.518 1.143-1.143zM24.804 13.911c0-1.786-1.446-3.232-3.232-3.232s-3.232 1.446-3.232 3.232 1.446 3.232 3.232 3.232 3.232-1.446 3.232-3.232zM27.518 17l2.571-6.107h-1.268l-1.607 4-1.589-4h-1.268l2.536 6.107h0.625zM30.607 16.839h3.286v-1h-2.125v-1.607h2.054v-1h-2.054v-1.321h2.125v-1.018h-3.286v5.946zM37.589 16.839h1.429l-1.875-2.5c0.875-0.179 1.357-0.768 1.357-1.679 0-1.125-0.768-1.768-2.107-1.768h-1.732v5.946h1.161v-2.375h0.161zM41.143 4.679v22.643c0 1.321-1.054 2.393-2.357 2.393h-36.429c-1.304 0-2.357-1.071-2.357-2.393v-22.643c0-1.321 1.054-2.393 2.357-2.393h36.429c1.304 0 2.357 1.071 2.357 2.393z"></path>
</svg>
