<!-- Generated by IcoMoon.io -->
<svg version="1.1" xmlns="http://www.w3.org/2000/svg" width="27" height="32" viewBox="0 0 27 32">
<path d="M25.571 18.786c0-2.518-2.036-3.661-4.179-4.268-0.982-0.268-1.786-0.5-2.143-1.571-0.018-0.089-0.107-0.429-0.107-0.5 0-0.857 0.679-1.482 1.518-1.482 0.393 0 0.946-0.018 1.268 0.268h-0.018c0.339 0.25 0.5 0.536 0.696 0.911l1.661-1.268c-0.268-0.375-0.536-0.821-0.875-1.143v0c-0.839-0.75-1.625-0.875-2.732-0.875-1.875 0-3.643 1.536-3.643 3.482 0 0.143 0.018 0.268 0.036 0.411 0.393 2.429 1.625 3.179 3.804 3.804 1.071 0.304 2.589 0.786 2.607 2.107v0.089c0.018 1.429-1.179 2.286-2.518 2.286-1.464 0-2.411-1.393-2.982-2.571-2.071-4.268-2.393-9.607-8.536-9.607-3.696 0-7.018 3.411-6.893 7.071v0.018c0.125 3.821 2.75 7.196 6.786 7.196 1.911 0 3.696-0.446 4.982-1.964v0c0.214-0.286 0.411-0.589 0.554-0.911l-1.071-1.946c-1 1.893-2.232 2.714-4.375 2.714-2.821 0-4.768-2.5-4.768-5.196 0-2.482 2.286-4.875 4.786-4.875 2.857 0 3.893 1.482 4.893 4.036 1.196 3.071 2.482 8.143 6.625 8.143 2.482 0 4.625-1.804 4.625-4.357zM27.429 7.429v17.143c0 2.839-2.304 5.143-5.143 5.143h-17.143c-2.839 0-5.143-2.304-5.143-5.143v-17.143c0-2.839 2.304-5.143 5.143-5.143h17.143c2.839 0 5.143 2.304 5.143 5.143z"></path>
</svg>
