<!-- Generated by IcoMoon.io -->
<svg version="1.1" xmlns="http://www.w3.org/2000/svg" width="14" height="14" viewBox="0 0 14 14">
<title>pie-chart-16</title>
<path d="M7.875 0.937v5.188h5.188c-0.384-2.682-2.505-4.804-5.188-5.188zM7 0c3.866 0 7 3.134 7 7h-6.125c-0.483 0-0.875-0.392-0.875-0.875v-6.125z"></path>
<path d="M5.25 0.221l0.218 0.847c-2.683 0.691-4.593 3.121-4.593 5.932 0 3.383 2.742 6.125 6.125 6.125 2.811 0 5.241-1.91 5.932-4.593l0.847 0.218c-0.777 3.019-3.518 5.25-6.779 5.25-3.866 0-7-3.134-7-7 0-3.262 2.231-6.002 5.25-6.779z"></path>
</svg>
