<svg xmlns="http://www.w3.org/2000/svg" width="25" height="32"><path d="M17.714 11.143V20c0 .321-.25.571-.571.571h-2.857a.564.564 0 0 1-.571-.571v-8.857a4.862 4.862 0 0 0-4.857-4.857H4.001v20.571c0 .321-.25.571-.571.571H.573a.564.564 0 0 1-.571-.571v-24c0-.321.25-.571.571-.571h8.286a8.855 8.855 0 0 1 8.857 8.857zm6.857-8.286v15.714a8.855 8.855 0 0 1-8.857 8.857H7.428a.564.564 0 0 1-.571-.571V9.714c0-.321.25-.571.571-.571h2.857c.321 0 .571.25.571.571v13.714h4.857a4.862 4.862 0 0 0 4.857-4.857V2.857c0-.321.25-.571.571-.571h2.857c.321 0 .571.25.571.571z"/></svg>