<svg xmlns="http://www.w3.org/2000/svg" width="30" height="32"><path d="M22.857 12.571c0-.625-.518-1.143-1.143-1.143-.304 0-.589.125-.804.339l-2.625 2.607V9.142c0-.625-.518-1.143-1.143-1.143s-1.143.518-1.143 1.143v5.232l-2.625-2.607a1.137 1.137 0 0 0-.804-.339c-.625 0-1.143.518-1.143 1.143 0 .304.125.589.339.804l4.571 4.571c.214.214.5.339.804.339s.589-.125.804-.339l4.571-4.571c.214-.214.339-.5.339-.804zM11.429 27.429c0 1.268-1.018 2.286-2.286 2.286s-2.286-1.018-2.286-2.286 1.018-2.286 2.286-2.286 2.286 1.018 2.286 2.286zm16 0c0 1.268-1.018 2.286-2.286 2.286s-2.286-1.018-2.286-2.286 1.018-2.286 2.286-2.286 2.286 1.018 2.286 2.286zM29.714 8v9.143c0 .571-.429 1.071-1.018 1.143l-18.643 2.179c.071.393.232.839.232 1.25s-.25.786-.429 1.143h16.429c.625 0 1.143.518 1.143 1.143s-.518 1.143-1.143 1.143H7.999a1.151 1.151 0 0 1-1.143-1.143c0-.554.839-1.929 1.089-2.446L4.784 6.859H1.141c-.625 0-1.143-.518-1.143-1.143s.518-1.143 1.143-1.143h4.571c1.214 0 1.232 1.429 1.411 2.286h21.446c.625 0 1.143.518 1.143 1.143z"/></svg>