<svg xmlns="http://www.w3.org/2000/svg" width="37" height="32"><path d="M26.786 24.482V11.393c0-.5-.411-.911-.893-.911h-1.661a.911.911 0 0 0-.893.911v13.089c0 .482.411.893.893.893h1.661a.908.908 0 0 0 .893-.893zm-5.072 0V15a.908.908 0 0 0-.893-.893h-1.804a.908.908 0 0 0-.893.893v9.482c0 .482.411.893.893.893h1.804a.908.908 0 0 0 .893-.893zm-5.214 0v-7.661a.908.908 0 0 0-.893-.893h-1.804a.908.908 0 0 0-.893.893v7.661c0 .482.411.893.893.893h1.804a.908.908 0 0 0 .893-.893zm-5.214 0v-6.464a.908.908 0 0 0-.893-.893H8.589a.908.908 0 0 0-.893.893v6.464c0 .482.411.893.893.893h1.804a.908.908 0 0 0 .893-.893zm25.285-2.607c0 3.964-3.232 7.179-7.179 7.179H7.178c-3.946 0-7.179-3.214-7.179-7.179a7.197 7.197 0 0 1 4.125-6.482 4.686 4.686 0 0 1-.179-1.304 4.9 4.9 0 0 1 4.893-4.893c1.179 0 2.321.429 3.214 1.196a9.799 9.799 0 0 1 9.5-7.446c5.393 0 9.786 4.393 9.786 9.786 0 .732-.071 1.464-.25 2.179 3.214.786 5.482 3.679 5.482 6.964z"/></svg>