<svg xmlns="http://www.w3.org/2000/svg" width="21" height="32"><path d="M14.821 5.643c3.393 1.679 5.75 5.179 5.75 9.214 0 5.286-4 9.643-9.143 10.214v2.357h1.714c.321 0 .571.25.571.571v1.143c0 .321-.25.571-.571.571h-1.714v1.714c0 .321-.25.571-.571.571H9.714a.564.564 0 0 1-.571-.571v-1.714H7.429a.564.564 0 0 1-.571-.571v-1.143c0-.321.25-.571.571-.571h1.714v-2.357C4 24.5 0 20.142 0 14.857c0-4.036 2.357-7.536 5.75-9.214A9.206 9.206 0 0 1 1.679.768.57.57 0 0 1 2.215 0h1.232a.56.56 0 0 1 .518.357 6.849 6.849 0 0 0 12.642 0c.089-.214.286-.357.661-.357h1.089a.57.57 0 0 1 .536.768 9.206 9.206 0 0 1-4.071 4.875zm-4.535 17.214c4.411 0 8-3.589 8-8s-3.589-8-8-8-8 3.589-8 8 3.589 8 8 8z"/></svg>