<svg xmlns="http://www.w3.org/2000/svg" width="20" height="32"><path d="M11.429 11.5c5.143.571 9.143 4.929 9.143 10.214 0 6.071-5.25 10.911-11.464 10.214C4.287 31.392.429 27.41.037 22.553c-.446-5.661 3.696-10.464 9.107-11.054V9.142H6.287a.564.564 0 0 1-.571-.571V7.428c0-.321.25-.571.571-.571h2.857V3.911L7.501 5.554a.584.584 0 0 1-.804 0l-.821-.821a.584.584 0 0 1 0-.804L9.483.34a1.132 1.132 0 0 1 1.607 0l3.607 3.589a.584.584 0 0 1 0 .804l-.821.821a.584.584 0 0 1-.804 0l-1.643-1.643v2.946h2.857c.321 0 .571.25.571.571v1.143c0 .321-.25.571-.571.571h-2.857v2.357zm-1.143 18.214c4.411 0 8-3.589 8-8s-3.589-8-8-8-8 3.589-8 8 3.589 8 8 8z"/></svg>