<svg xmlns="http://www.w3.org/2000/svg" width="25" height="32"><path d="M18.286.571c0-.321.25-.571.571-.571H24c.625 0 1.143.518 1.143 1.143v5.143c0 .321-.25.571-.571.571h-1.143a.564.564 0 0 1-.571-.571V3.893l-4.536 4.554a10.282 10.282 0 0 1 2.25 6.411c0 5.286-4 9.643-9.143 10.214v2.357h1.714c.321 0 .571.25.571.571v1.143c0 .321-.25.571-.571.571h-1.714v1.714c0 .321-.25.571-.571.571H9.715a.564.564 0 0 1-.571-.571v-1.714H7.43a.564.564 0 0 1-.571-.571V28c0-.321.25-.571.571-.571h1.714v-2.357C3.751 24.483-.41 19.679.037 14.036c.375-4.857 4.232-8.839 9.054-9.393a10.218 10.218 0 0 1 7.607 2.179l4.554-4.536h-2.393a.564.564 0 0 1-.571-.571V.572zm-8 22.286c4.411 0 8-3.589 8-8s-3.589-8-8-8-8 3.589-8 8 3.589 8 8 8z"/></svg>