<!-- Generated by IcoMoon.io -->
<svg version="1.1" xmlns="http://www.w3.org/2000/svg" width="32" height="32" viewBox="0 0 32 32">
<path d="M10.661 7.518v20.946c0 0.554-0.268 1.071-0.875 1.071-0.214 0-0.411-0.054-0.589-0.143l-8.304-4.161c-0.5-0.25-0.893-0.893-0.893-1.429v-20.357c0-0.446 0.214-0.857 0.696-0.857 0.286 0 0.536 0.143 0.786 0.268l9.125 4.571c0.018 0.018 0.054 0.071 0.054 0.089zM11.804 9.321l9.536 15.464-9.536-4.75v-10.714zM32 9.643v18.821c0 0.589-0.339 1-0.929 1-0.304 0-0.589-0.089-0.839-0.232l-7.875-3.929zM31.946 7.5c0 0.071-9.232 15.054-9.946 16.196l-6.964-11.321 5.786-9.411c0.196-0.321 0.554-0.5 0.929-0.5 0.161 0 0.321 0.036 0.464 0.107l9.661 4.821c0.036 0.018 0.071 0.054 0.071 0.107z"></path>
</svg>
