<!-- Generated by IcoMoon.io -->
<svg version="1.1" xmlns="http://www.w3.org/2000/svg" width="49" height="32" viewBox="0 0 49 32">
<path d="M27.214 27.875c0 1.625-1.304 2.929-2.929 2.929s-2.946-1.304-2.946-2.929 1.321-2.946 2.946-2.946 2.929 1.321 2.929 2.946zM13.839 27.875c0 1.625-1.321 2.929-2.946 2.929s-2.929-1.304-2.929-2.929 1.304-2.946 2.929-2.946 2.946 1.321 2.946 2.946zM0 1.196c5.268 5.554 10.214 6.375 29.643 6.375s10.893 4.321-1.107 15.036c3.804-6.607 16.875-12.464-4.554-12.143-20.554 0.304-21.768-5.946-23.982-9.268z"></path>
</svg>
