<!-- Generated by IcoMoon.io -->
<svg version="1.1" xmlns="http://www.w3.org/2000/svg" width="27" height="32" viewBox="0 0 27 32">
<path d="M25.911 2.286c0.839 0 1.518 0.679 1.518 1.518v24.393c0 0.839-0.679 1.518-1.518 1.518h-6.982v-10.625h3.554l0.536-4.143h-4.089v-2.643c0-1.196 0.321-2 2.054-2l2.179-0.018v-3.696c-0.375-0.054-1.679-0.161-3.179-0.161-3.161 0-5.339 1.929-5.339 5.464v3.054h-3.571v4.143h3.571v10.625h-13.125c-0.839 0-1.518-0.679-1.518-1.518v-24.393c0-0.839 0.679-1.518 1.518-1.518h24.393z"></path>
</svg>
