<!-- Generated by IcoMoon.io -->
<svg version="1.1" xmlns="http://www.w3.org/2000/svg" width="41" height="32" viewBox="0 0 41 32">
<path d="M34.839 17.821c0 0.643-0.429 1.107-0.964 1.214-0.071 0.018-0.232 0.036-0.321 0.036h-2.732v-2.5h2.732c0.089 0 0.25 0.018 0.321 0.036 0.536 0.107 0.964 0.589 0.964 1.214zM34.518 14.018c0 0.625-0.429 1.036-0.946 1.125-0.054 0.018-0.179 0.018-0.268 0.018h-2.482v-2.304h2.482c0.089 0 0.214 0.018 0.268 0.018 0.518 0.089 0.946 0.518 0.946 1.143zM13 16.946v-5.5h-4.071v5.5c0 1.339-0.911 2.339-2.554 2.339-1.393 0-2.768-0.411-4.089-1.054v2c2.143 0.589 4.857 0.589 4.857 0.589 4.536 0 5.857-1.732 5.857-3.875zM25.75 20.232v-2.018c-0.929 0.482-2.107 0.946-3.571 1.054-2.571 0.196-4.107-1.054-4.107-3.268s1.536-3.464 4.107-3.268c1.464 0.107 2.625 0.554 3.571 1.036v-2c-1.911-0.482-3.714-0.554-3.714-0.554-6.286-0.286-8.071 2.196-8.071 4.786s1.786 5.071 8.071 4.786c0 0 1.804-0.071 3.714-0.554zM38.857 18.179c0-1.321-1.179-2.179-2.714-2.286v-0.054c1.393-0.196 2.161-1.107 2.161-2.161 0-1.357-1.125-2.143-2.643-2.214-0.107 0-0.304-0.018-0.464-0.018h-8.125v9.107h8.768c1.732 0 3.018-0.929 3.018-2.375zM41.143 4.571v22.857c0 1.25-1.036 2.286-2.286 2.286h-36.571c-1.25 0-2.286-1.036-2.286-2.286v-22.857c0-1.25 1.036-2.286 2.286-2.286h36.571c1.25 0 2.286 1.036 2.286 2.286z"></path>
</svg>
