<svg xmlns="http://www.w3.org/2000/svg" width="41" height="32"><path d="M34.286 9.143v13.714H4.572V9.143h29.714zm2.285 10.286h2.286v-6.857h-2.286V7.429A.564.564 0 0 0 36 6.858H2.857a.564.564 0 0 0-.571.571v17.143c0 .321.25.571.571.571H36c.321 0 .571-.25.571-.571v-5.143zm4.572-6.858v6.857a2.279 2.279 0 0 1-2.286 2.286v2.857A2.866 2.866 0 0 1 36 27.428H2.857A2.866 2.866 0 0 1 0 24.571V7.428a2.866 2.866 0 0 1 2.857-2.857H36a2.866 2.866 0 0 1 2.857 2.857v2.857a2.279 2.279 0 0 1 2.286 2.286z"/></svg>