<svg xmlns="http://www.w3.org/2000/svg" width="32" height="32"><path d="M29.714 29.143V9.714a.587.587 0 0 0-.571-.571H9.714a.587.587 0 0 0-.571.571v19.429c0 .304.268.571.571.571h19.429a.587.587 0 0 0 .571-.571zM32 9.714v19.429A2.866 2.866 0 0 1 29.143 32H9.714a2.866 2.866 0 0 1-2.857-2.857V9.714a2.866 2.866 0 0 1 2.857-2.857h19.429A2.866 2.866 0 0 1 32 9.714zm-6.857-6.857v2.857h-2.286V2.857a.587.587 0 0 0-.571-.571H2.857a.587.587 0 0 0-.571.571v19.429c0 .304.268.571.571.571h2.857v2.286H2.857A2.866 2.866 0 0 1 0 22.286V2.857A2.866 2.866 0 0 1 2.857 0h19.429a2.866 2.866 0 0 1 2.857 2.857z"/></svg>