<svg xmlns="http://www.w3.org/2000/svg" width="27" height="32"><path d="M26.857 28.571c.321 0 .571.25.571.571v2.286c0 .321-.25.571-.571.571H.571A.564.564 0 0 1 0 31.428v-2.286c0-.321.25-.571.571-.571h26.286zM2.321 27.429c.339-6.018 5.25-9.25 8.536-11.429-3.286-2.179-8.196-5.411-8.536-11.429h22.786c-.339 6.018-5.25 9.25-8.536 11.429 3.286 2.179 8.196 5.411 8.536 11.429H2.321zM26.857 0c.321 0 .571.25.571.571v2.286c0 .321-.25.571-.571.571H.571A.564.564 0 0 1 0 2.857V.571C0 .25.25 0 .571 0h26.286z"/></svg>