<!-- Generated by IcoMoon.io -->
<svg version="1.1" xmlns="http://www.w3.org/2000/svg" width="32" height="32" viewBox="0 0 32 32">
<path d="M16.946 15.946c0 0.589-0.411 1.143-1.036 1.143-0.589 0-1.143-0.429-1.143-1.036 0-0.589 0.429-1.143 1.054-1.143 0.571 0 1.125 0.411 1.125 1.036zM17.214 16.982l6.25-10.375c-0.839 0.786-8.661 7.982-8.875 8.357l-6.232 10.357c0.821-0.768 8.661-8 8.857-8.339zM28.768 16c0 2.339-0.643 4.643-1.857 6.625-0.179-0.089-0.929-0.625-1.071-0.625-0.125 0-0.232 0.107-0.232 0.232 0 0.232 0.839 0.661 1.054 0.786-1.768 2.679-4.5 4.607-7.607 5.375l-0.286-1.196c-0.018-0.161-0.125-0.179-0.268-0.179-0.125 0-0.196 0.179-0.179 0.268l0.286 1.214c-0.857 0.179-1.732 0.268-2.607 0.268-2.339 0-4.643-0.661-6.643-1.875 0.107-0.179 0.786-1.161 0.786-1.304 0-0.125-0.107-0.232-0.232-0.232-0.25 0-0.786 1.071-0.946 1.286-2.696-1.786-4.643-4.554-5.393-7.714l1.232-0.268c0.143-0.036 0.179-0.143 0.179-0.268s-0.179-0.196-0.286-0.179l-1.214 0.268c-0.161-0.821-0.25-1.643-0.25-2.482 0-2.393 0.679-4.75 1.946-6.768 0.179 0.107 1.036 0.696 1.179 0.696 0.125 0 0.232-0.089 0.232-0.214 0-0.25-0.946-0.732-1.161-0.875 1.821-2.661 4.589-4.571 7.732-5.286l0.268 1.196c0.036 0.143 0.143 0.179 0.268 0.179s0.196-0.179 0.179-0.286l-0.268-1.179c0.786-0.143 1.589-0.232 2.393-0.232v0c2.393 0 4.732 0.679 6.768 1.946-0.125 0.179-0.696 1.018-0.696 1.161 0 0.125 0.089 0.232 0.214 0.232 0.25 0 0.732-0.929 0.857-1.143 2.643 1.786 4.536 4.518 5.268 7.625l-1 0.214c-0.161 0.036-0.179 0.143-0.179 0.286 0 0.125 0.179 0.196 0.268 0.179l1.018-0.232c0.161 0.821 0.25 1.661 0.25 2.5zM30.286 16c0-7.893-6.393-14.286-14.286-14.286s-14.286 6.393-14.286 14.286 6.393 14.286 14.286 14.286 14.286-6.393 14.286-14.286zM32 16c0 8.839-7.161 16-16 16s-16-7.161-16-16 7.161-16 16-16 16 7.161 16 16z"></path>
</svg>
