<!-- Generated by IcoMoon.io -->
<svg version="1.1" xmlns="http://www.w3.org/2000/svg" width="41" height="32" viewBox="0 0 41 32">
<path d="M11.625 17.804c0 0.929-0.75 1.679-1.661 1.679-0.929 0-1.679-0.75-1.679-1.679 0-0.911 0.75-1.661 1.679-1.661 0.911 0 1.661 0.75 1.661 1.661zM32.232 17.786c0 0.929-0.75 1.679-1.679 1.679s-1.679-0.75-1.679-1.679 0.75-1.661 1.679-1.661 1.679 0.732 1.679 1.661zM13.661 17.804c0-1.893-1.554-3.446-3.446-3.446-1.911 0-3.446 1.554-3.446 3.446 0 1.911 1.536 3.446 3.446 3.446 1.893 0 3.446-1.536 3.446-3.446zM34.25 17.786c0-1.893-1.536-3.446-3.446-3.446-1.893 0-3.446 1.554-3.446 3.446 0 1.911 1.554 3.446 3.446 3.446 1.911 0 3.446-1.536 3.446-3.446zM15.179 17.804c0 2.75-2.214 4.982-4.964 4.982s-4.982-2.232-4.982-4.982c0-2.732 2.232-4.964 4.982-4.964s4.964 2.232 4.964 4.964zM35.786 17.786c0 2.75-2.232 4.964-4.982 4.964-2.732 0-4.964-2.214-4.964-4.964s2.232-4.964 4.964-4.964c2.75 0 4.982 2.214 4.982 4.964zM18.571 17.839c0-4.554-3.696-8.25-8.25-8.25-4.536 0-8.232 3.696-8.232 8.25s3.696 8.25 8.232 8.25c4.554 0 8.25-3.696 8.25-8.25zM30.5 7.607c-2.946-1.286-6.268-1.982-9.929-1.982s-7.304 0.696-10.232 1.964c5.661 0.018 10.232 4.589 10.232 10.25 0-5.554 4.411-10.071 9.929-10.232zM39.054 17.839c0-4.554-3.679-8.25-8.232-8.25s-8.25 3.696-8.25 8.25 3.696 8.25 8.25 8.25 8.232-3.696 8.232-8.25zM34.304 7.732h6.839c-1.071 1.25-1.857 2.929-2.054 4.089 1.232 1.696 1.964 3.768 1.964 6.018 0 5.661-4.589 10.232-10.232 10.232-3.214 0-6.071-1.464-7.946-3.768 0 0-0.839 1-2.304 3.196-0.25-0.518-1.518-2.321-2.286-3.214-1.875 2.321-4.75 3.786-7.964 3.786-5.643 0-10.232-4.571-10.232-10.232 0-2.25 0.732-4.321 1.964-6.018-0.196-1.161-0.982-2.839-2.054-4.089h6.518c3.5-2.339 8.589-3.804 14.054-3.804s10.232 1.464 13.732 3.804z"></path>
</svg>
