<!-- Generated by IcoMoon.io -->
<svg version="1.1" xmlns="http://www.w3.org/2000/svg" width="32" height="32" viewBox="0 0 32 32">
<path d="M32 16.732c0 0.625-0.036 1.25-0.125 1.857h-20.554c0 3.554 3.125 6.125 6.554 6.125 2.321 0 4.554-1.143 5.75-3.161h7.554c-2.036 5.732-7.482 9.571-13.554 9.571-2.196 0-4.393-0.518-6.357-1.482-2 1.018-4.804 2.071-7.036 2.071-3 0-4.232-1.839-4.232-4.696 0-1.661 0.357-3.321 0.804-4.911 0.286-1.036 1.429-3.143 1.946-4.089 2.196-3.982 5.089-7.804 8.482-10.821-2.732 1.179-5.696 4.143-7.625 6.321 1.5-6.536 7.321-11.161 14.018-11.161 0.268 0 0.536 0 0.804 0.018 2.214-1.018 5.304-2.089 7.732-2.089 2.893 0 5.375 1.107 5.375 4.375 0 1.714-0.661 3.571-1.339 5.107 1.179 2.125 1.804 4.536 1.804 6.964zM30.75 5.304c0-2-1.429-3.232-3.393-3.232-1.5 0-3.196 0.607-4.536 1.25 2.893 1.125 5.375 3.196 7.018 5.839 0.446-1.179 0.911-2.607 0.911-3.857zM2.286 27.393c0 2.071 1.232 3.196 3.268 3.196 1.589 0 3.357-0.714 4.75-1.482-2.911-1.714-5.161-4.446-6.268-7.643-0.821 1.714-1.75 4-1.75 5.929zM11.286 14.661h13c-0.125-3.446-3.161-5.929-6.5-5.929-3.357 0-6.375 2.482-6.5 5.929z"></path>
</svg>
