<svg xmlns="http://www.w3.org/2000/svg" width="30" height="32"><path d="M23.268 17.214l-9.143 9.143a.605.605 0 0 1-.821 0l-5.143-5.143a.584.584 0 0 1 0-.804l.821-.821a.584.584 0 0 1 .804 0l3.929 3.929 7.929-7.929a.584.584 0 0 1 .804 0l.821.821a.584.584 0 0 1 0 .804zm-20.982 12.5h25.143V11.428H2.286v18.286zM9.143 8V2.857a.564.564 0 0 0-.571-.571H7.429a.564.564 0 0 0-.571.571V8c0 .321.25.571.571.571h1.143c.321 0 .571-.25.571-.571zm13.714 0V2.857a.564.564 0 0 0-.571-.571h-1.143a.564.564 0 0 0-.571.571V8c0 .321.25.571.571.571h1.143c.321 0 .571-.25.571-.571zm6.857-1.143v22.857A2.302 2.302 0 0 1 27.428 32H2.285a2.302 2.302 0 0 1-2.286-2.286V6.857a2.302 2.302 0 0 1 2.286-2.286h2.286V2.857A2.866 2.866 0 0 1 7.428 0h1.143a2.866 2.866 0 0 1 2.857 2.857v1.714h6.857V2.857A2.866 2.866 0 0 1 21.142 0h1.143a2.866 2.866 0 0 1 2.857 2.857v1.714h2.286a2.302 2.302 0 0 1 2.286 2.286z"/></svg>