<!-- Generated by IcoMoon.io -->
<svg version="1.1" xmlns="http://www.w3.org/2000/svg" width="32" height="32" viewBox="0 0 32 32">
<path d="M27.696 26.357c0.536-0.268 0.946 0.143 0.393 0.857s-5 4.786-12.464 4.786-13.179-5.107-14.929-7.214c-0.482-0.554 0.071-0.804 0.393-0.589 5.232 3.179 13.411 8.411 26.607 2.161zM31.393 24.304c0.268 0.357 0 1.929-0.464 3.071-0.464 1.125-1.143 1.911-1.518 2.214-0.393 0.321-0.679 0.196-0.464-0.268s1.375-3.321 0.911-3.929c-0.464-0.589-2.643-0.304-3.429-0.232-0.768 0.071-0.929 0.143-1-0.018-0.161-0.411 1.554-1.107 2.679-1.25 1.125-0.125 2.929-0.054 3.286 0.411zM24.357 16.393c0 1.964 2.304 3.768 2.304 3.768l-4.054 4c-1.589-1.5-2.786-2.75-2.786-2.75-0.179-0.179-0.321-0.393-0.446-0.589-3.232 5.054-13.107 4.732-13.107-3.089 0-7.286 8.625-8.268 12.107-8.393v-2.268c0-0.482 0.179-2.679-2.536-2.679 0 0-2.714 0-3.875 3.536l-5.25-0.482c0-3.518 3.339-7.446 9.625-7.446 6.268 0 8.018 4.071 8.018 5.875v10.518zM12.357 16.768c0 3.625 6.018 4.482 6.018-1.232v-2.893c-2.411 0.071-6.018 0.75-6.018 4.125z"></path>
</svg>
