<svg xmlns="http://www.w3.org/2000/svg" width="30" height="32"><path d="M27.429 4.571a2.302 2.302 0 0 1 2.286 2.286v22.857A2.302 2.302 0 0 1 27.429 32H2.286A2.302 2.302 0 0 1 0 29.714V6.857a2.302 2.302 0 0 1 2.286-2.286h2.286V2.857A2.866 2.866 0 0 1 7.429 0h1.143a2.866 2.866 0 0 1 2.857 2.857v1.714h6.857V2.857A2.866 2.866 0 0 1 21.143 0h1.143a2.866 2.866 0 0 1 2.857 2.857v1.714h2.286zm-6.858-1.714V8c0 .321.25.571.571.571h1.143c.321 0 .571-.25.571-.571V2.857a.564.564 0 0 0-.571-.571h-1.143a.564.564 0 0 0-.571.571zm-13.714 0V8c0 .321.25.571.571.571h1.143c.321 0 .571-.25.571-.571V2.857a.564.564 0 0 0-.571-.571H7.428a.564.564 0 0 0-.571.571zm20.572 26.857V11.428H2.286v18.286h25.143zM16 19.429h4c.321 0 .571.25.571.571v1.143c0 .321-.25.571-.571.571h-4v4c0 .321-.25.571-.571.571h-1.143a.564.564 0 0 1-.571-.571v-4h-4a.564.564 0 0 1-.571-.571V20c0-.321.25-.571.571-.571h4v-4c0-.321.25-.571.571-.571h1.143c.321 0 .571.25.571.571v4z"/></svg>