<!-- Generated by IcoMoon.io -->
<svg version="1.1" xmlns="http://www.w3.org/2000/svg" width="31" height="32" viewBox="0 0 31 32">
<path d="M28.286 23.036l-3.893-1.982c-1.75 2.857-4.857 4.607-8.214 4.607-5.321 0-9.625-4.304-9.625-9.607 0-5.321 4.304-9.625 9.625-9.625 3.125 0 6.054 1.518 7.857 4.089l3.839-2.232c-2.625-4.036-7.071-6.446-11.875-6.446-7.821 0-14.161 6.339-14.161 14.161s6.339 14.161 14.161 14.161c5.071 0 9.768-2.714 12.286-7.125zM18.393 15.946l12.375 6.286c-2.714 5.929-8.161 9.768-14.768 9.768-8.839 0-16-7.161-16-16s7.161-16 16-16c6.286 0 11.464 3.464 14.393 8.929zM27.554 16h-0.696v2.857h-1.714v-6.286h2.429c1.982 0 2.161 3.429-0.018 3.429z"></path>
</svg>
