<!-- Generated by IcoMoon.io -->
<svg version="1.1" xmlns="http://www.w3.org/2000/svg" width="32" height="32" viewBox="0 0 32 32">
<path d="M1.232 14.196h0.018c0.929-7.393 5.982-14.214 15.018-14.196 5.482 0 10 2.571 12.643 7.304 1.357 2.446 1.857 5.054 1.857 7.893v3.357h-20.089c0.089 8.286 12.179 8 17.393 4.357v6.732c-3.054 1.839-9.946 3.429-15.321 1.375-4.554-1.75-7.732-6.482-7.786-11.089-0.071-5.946 2.946-9.893 7.786-12.143-1.018 1.286-1.804 2.679-2.214 5.089h11.339c0.661-6.768-6.411-6.768-6.411-6.768-6.679 0.232-11.5 4.125-14.232 8.089z"></path>
</svg>
