<!-- Generated by IcoMoon.io -->
<svg version="1.1" xmlns="http://www.w3.org/2000/svg" width="34" height="32" viewBox="0 0 34 32">
<path d="M16 14.571c-2.268-4.286-4.357-8.464-10.304-11.286-3.554-1.679-0.375 0.661-0.375 0.661 3.232 2.232 4.714 5.25 6.446 8.554 2.25 4.304 5.643 9.982 10.304 11.982 4.643 2 2.446 0.893 0.429-0.607-2.018-1.518-4.875-6.214-6.5-9.304zM9.804 24.268c-6.446-5.107-6.089-11.214-9.804-24.268 34.125 0 26.196 22.661 26.232 26.161l5.768 5.839h-1.857l-5.018-5.089c-2.786 0.304-8.893 2.464-15.321-2.643z"></path>
</svg>
