<svg xmlns="http://www.w3.org/2000/svg" width="27" height="32"><path d="M15.714 21.429v2.857c0 .321-.25.571-.571.571h-2.857a.564.564 0 0 1-.571-.571v-2.857c0-.321.25-.571.571-.571h2.857c.321 0 .571.25.571.571zm4.572-8.858c0 2.536-1.768 3.536-3.071 4.268-.929.536-1.5.875-1.5 1.446v.571c0 .321-.25.571-.571.571h-2.857a.564.564 0 0 1-.571-.571v-1.214c0-2.196 1.571-2.893 2.839-3.464 1.071-.5 1.732-.839 1.732-1.643 0-1.036-1.304-1.804-2.482-1.804-.625 0-1.286.196-1.696.482-.393.268-.768.661-1.429 1.482a.54.54 0 0 1-.446.214.55.55 0 0 1-.339-.107l-1.929-1.464a.58.58 0 0 1-.125-.768c1.464-2.304 3.518-3.429 6.232-3.429 2.929 0 6.214 2.321 6.214 5.429zm-6.572-8C7.41 4.571 2.285 9.696 2.285 16S7.41 27.429 13.714 27.429 25.143 22.304 25.143 16 20.018 4.571 13.714 4.571zM27.429 16c0 7.571-6.143 13.714-13.714 13.714S.001 23.571.001 16 6.144 2.286 13.715 2.286c7.571 0 13.714 6.143 13.714 13.714z"/></svg>