<!-- Generated by IcoMoon.io -->
<svg version="1.1" xmlns="http://www.w3.org/2000/svg" width="27" height="32" viewBox="0 0 27 32">
<path d="M22.857 20.5c0-0.25-0.143-0.429-0.393-0.482-1.625-0.339-2.857-1.482-3.536-2.982-0.071-0.143-0.125-0.286-0.125-0.446 0-0.804 2.214-0.643 2.214-1.786 0-0.482-0.589-0.786-1.018-0.786-0.393 0-0.714 0.286-1.125 0.286-0.071 0-0.143-0.018-0.214-0.036 0.054-0.679 0.089-1.375 0.089-2.054 0-0.607-0.036-1.464-0.304-2.036-0.857-1.857-2.5-2.946-4.554-2.946-2.232 0-3.929 0.839-4.911 2.946-0.268 0.571-0.321 1.429-0.321 2.054 0 0.679 0.054 1.357 0.107 2.036-0.089 0.018-0.179 0.036-0.268 0.036-0.393 0-0.732-0.286-1.107-0.286-0.446 0-0.982 0.304-0.982 0.804 0 1.107 2.214 0.964 2.214 1.768 0 0.161-0.054 0.304-0.125 0.446-0.696 1.5-1.893 2.625-3.536 2.982-0.25 0.054-0.393 0.232-0.393 0.482 0 0.839 1.893 1.143 2.464 1.232 0.161 0.429 0.089 1.179 0.714 1.179 0.464 0 0.911-0.179 1.375-0.179 1.893 0 2.393 1.696 4.571 1.696 2.268 0 2.696-1.696 4.607-1.696 0.464 0 0.929 0.161 1.393 0.161 0.607 0 0.554-0.75 0.696-1.161 0.571-0.089 2.464-0.393 2.464-1.232zM27.429 7.429v17.143c0 2.839-2.304 5.143-5.143 5.143h-17.143c-2.839 0-5.143-2.304-5.143-5.143v-17.143c0-2.839 2.304-5.143 5.143-5.143h17.143c2.839 0 5.143 2.304 5.143 5.143z"></path>
</svg>
