<!-- Generated by IcoMoon.io -->
<svg version="1.1" xmlns="http://www.w3.org/2000/svg" width="23" height="32" viewBox="0 0 23 32">
<path d="M18.75 19.75c0 2.554-0.893 4.804-2.625 6.679-1.804 1.964-4.089 2.875-6.75 2.875-2.643 0-4.946-0.893-6.75-2.875-1.732-1.875-2.625-4.125-2.625-6.679 0-5.304 4-9.643 9.375-9.643 1.107 0 2.214 0.179 3.25 0.554-0.357 0.696-0.607 1.464-0.696 2.25-0.804-0.339-1.679-0.5-2.554-0.5-4.054 0-7.036 3.464-7.036 7.393 0 4 2.964 7.268 7.036 7.268s7.018-3.268 7.018-7.268c0-1.018-0.179-2.018-0.571-2.964 0.786-0.161 1.536-0.464 2.196-0.875 0.5 1.196 0.732 2.5 0.732 3.786zM15.107 16.375c0 4.5-1.821 8.25-5.679 10.679l-0.25 0.018c-0.375 0-0.75-0.036-1.107-0.089 5.161-1.964 6.107-9.804 6.107-14.589 0-0.607 0-1.232-0.054-1.839 0.643 1.875 0.982 3.839 0.982 5.821zM14.125 10.518v0.036c-0.929-2.732-2.214-5.375-3.679-7.857 2.25 1.518 3.482 5.196 3.679 7.821zM18.482 14.143c-1.107 0-2.089-0.589-2.857-1.339 1.821-1 4.125-2.554 5.179-4.411 0.125-0.25 0.339-0.714 0.375-1-1.036 2.321-3.679 4.143-6.143 4.714-0.393-0.607-0.625-1.286-0.625-2.018 0-0.857 0.429-2 1.071-2.625 0.732-0.696 1.821-1.054 2.804-1.321 1.429-0.393 2.589-1.5 3.214-2.839 0.929 1.321 1.321 2.929 1.321 4.518 0 0.804-0.125 2.268-0.429 3.036-0.661 1.607-2 3.286-3.911 3.286z"></path>
</svg>
