<!-- Generated by IcoMoon.io -->
<svg version="1.1" xmlns="http://www.w3.org/2000/svg" width="41" height="32" viewBox="0 0 41 32">
<path d="M41.143 0c-5.196 3.446-5.75 5.946-6.196 6.714-0.429 0.786-0.75 3.875-1.5 5.375-0.75 1.518-3.482 2.714-4.25 3.214-0.75 0.5-1.821 2.446-2.696 4.125-3.946-0.161-7.857 0.804-11.25 2.821 0 0-1.643 0.946-5.411 3.196 1.893-0.625 2.786-1.071 2.786-1.071 4.714-1.804 5.964-2.661 9.768-3.286 2.929-0.482 6.714-0.089 8.304 0.125 0.071 0 0.125 0.036 0.179 0.054 0.25 0.143 0.339 0.446 0.196 0.696l-3.464 6.161c-0.161 0.304-0.5 0.464-0.839 0.393-0.857-0.161-2.821-0.429-6.321-0.429-5.071 0-9.196 1.554-14.179 1.625-4.196 0.054-5.839-1.661-6.25-2.214 0-0.018-0.018-0.036-0.018-0.054 0-0.071 0.036-0.107 0.107-0.107 0 0 2.464 0 6.625-0.982 4.732-9.018 8.946-12.179 13.536-12.179 0 0 4.607 0 5.821 3.982 1.464-2.554 1.821-3.161 1.821-3.161 0.339-0.607 2.25-4.964 5.554-9.089v0c3.321-4.125 5.821-5.143 7.679-5.911z"></path>
</svg>
