<!-- Generated by IcoMoon.io -->
<svg version="1.1" xmlns="http://www.w3.org/2000/svg" width="27" height="32" viewBox="0 0 27 32">
<path d="M16.375 16.161c0-0.393-0.036-0.768-0.107-1.143h-6.464v2.357h3.875c-0.286 1.893-2.071 2.946-3.875 2.946-2.375 0-4.268-1.964-4.268-4.321s1.893-4.321 4.268-4.321c1 0 2 0.339 2.732 1.054l1.857-1.804c-1.268-1.179-2.857-1.786-4.589-1.786-3.804 0-6.857 3.071-6.857 6.857s3.054 6.857 6.857 6.857c3.946 0 6.571-2.786 6.571-6.696zM22.536 16.982h1.946v-1.964h-1.946v-1.964h-1.964v1.964h-1.964v1.964h1.964v1.964h1.964v-1.964zM27.429 16c0 7.571-6.143 13.714-13.714 13.714s-13.714-6.143-13.714-13.714 6.143-13.714 13.714-13.714 13.714 6.143 13.714 13.714z"></path>
</svg>
