<!-- Generated by IcoMoon.io -->
<svg version="1.1" xmlns="http://www.w3.org/2000/svg" width="32" height="32" viewBox="0 0 32 32">
<path d="M22.411 14.054c0-7.446-2.321-11.268-7.768-11.268-5.357 0-7.679 3.821-7.679 11.268 0 7.411 2.321 11.196 7.679 11.196 0.857 0 1.625-0.089 2.339-0.304v0c-1.107-2.179-2.411-4.375-4.946-4.375-0.482 0-0.964 0.071-1.411 0.286l-0.875-1.732c1.054-0.911 2.75-1.625 4.929-1.625 3.411 0 5.143 1.643 6.536 3.732 0.804-1.786 1.196-4.196 1.196-7.179zM29.375 25.339h2.089c0.125 1.286-0.518 6.661-6.357 6.661-3.536 0-5.393-2.054-6.804-4.446v0c-1.161 0.321-2.411 0.482-3.661 0.482-7.143 0-14.125-5.696-14.125-13.982 0-8.357 7-14.054 14.125-14.054 7.268 0 14.179 5.661 14.179 14.054 0 4.679-2.179 8.482-5.339 10.929 1.018 1.536 2.071 2.554 3.536 2.554 1.607 0 2.25-1.232 2.357-2.196z"></path>
</svg>
