<!-- Generated by IcoMoon.io -->
<svg version="1.1" xmlns="http://www.w3.org/2000/svg" width="32" height="32" viewBox="0 0 32 32">
<path d="M23.054 8.5c-0.571-0.643-1.5 0.446-1 1.036 0.482 0.589 2.071 0.161 1-1.036zM15.982 12.893c-0.196 0.196-0.5 0.196-0.679 0-0.196-0.179-0.196-0.482 0-0.661 0.179-0.196 0.482-0.196 0.679 0 0.179 0.179 0.179 0.482 0 0.661zM18.929 14.214l-0.625 0.625c-0.286 0.304-0.768 0.304-1.071 0l-0.679-0.679c-0.286-0.304-0.286-0.768 0-1.071l0.625-0.625c0.286-0.286 0.768-0.286 1.071 0l0.679 0.696c0.286 0.286 0.286 0.768 0 1.054zM16.982 11.893c-0.179 0.179-0.482 0.179-0.679 0-0.179-0.196-0.179-0.5 0-0.679 0.196-0.196 0.5-0.196 0.679 0 0.196 0.179 0.196 0.482 0 0.679zM24.179 10.143c-0.804 1.518-2.911 2.143-4.196 1.232-1.286-0.929-2.179-2.786-0.768-4.393 1.393-1.607 2.625-1.107 3.857 0.054 0.768 0.732 1.893 1.607 1.107 3.107zM27.768 18.75c0.161-1.036-1.321-1.071-1.643-1.661-0.875-1.554-1.786-2.375-3.518-1.964 0.75-0.518 1.518-0.393 1.518-0.393 0.018-0.411 0-0.839-0.607-1.607 0.25-0.804 0.018-1.446 0.018-1.446 1-0.554 1.732-1.571 1.875-2.786 0.232-2-1.214-3.821-3.214-4.054-1.429-0.161-2.821 0.5-3.5 1.661-1.5 2.589 0.089 4.571 1.446 5.25-0.929-0.089-2.214-0.768-2.589-2.214-0.429-1.661 0.179-3.214 0.571-3.964 0 0-0.286-0.375-0.518-0.571 0 0-0.893 0-1.589 0.339 0.768-0.982 1.625-0.929 1.625-0.929 0-0.411-0.036-0.964-0.232-1.393-0.357-0.732-1.607-0.839-2.089 0.268 0.018-0.054 0.036-0.089 0.071-0.125-0.321 0.768-0.071 3.607 1.089 5.625-0.161 0.089-0.589 0.393-0.839 0.643-1.393 0.625-3.625 3.893-3.625 3.893-1.821 0.696-5 3.286-4.571 5.143v0c0.018 0.196 0.089 0.357 0.196 0.482-0.179 0.143-0.357 0.321-0.536 0.536-0.768 0.893-0.339 2.268 1.143 1.571 1.018-0.464 1.929-1.304 2.357-1.964 0 0-0.375-0.321-1.071-0.286 1.786-0.429 2.232-0.607 3-0.589 0.518 0.25 0.518-2.214 0.518-2.214 0-0.946-0.143-2-0.714-2.679 0.804 0.786 1.875 2.107 1.804 3.911-0.054 1.179-0.982 1.482-0.982 1.482-0.589 1.071-2.786 4.25-1.964 6.839 0 0-0.625-0.964-0.661-1.429-1.125 1.25-3.018 3.375-1.607 4.161 1.714 0.946 7.036-5.714 8.161-9.179 2.232-1.339 3.571-3.054 4.125-4.196 1.429 2.839 6.179 6.125 6.554 3.839zM32.036 16c0 8.839-7.179 16-16.018 16s-16.018-7.161-16.018-16 7.179-16 16.018-16 16.018 7.161 16.018 16z"></path>
</svg>
