<!-- Generated by IcoMoon.io -->
<svg version="1.1" xmlns="http://www.w3.org/2000/svg" width="27" height="32" viewBox="0 0 27 32">
<path d="M9.25 3.268v11.696c4.143 0.036 6.321-0.179 6.321-0.179 1.679-0.054 1.929-0.482 2.321-2.125l0.589-2.536h1.839l-0.25 5.75 0.125 5.696h-1.839l-0.518-2.268c-0.375-1.696-1.107-2.107-2.304-2.125 0 0-1.536-0.143-6.286-0.143v9.929c0 1.857 1.018 2.732 3.161 2.732h6.375c2.143 0 4.071-0.214 5.393-3.268l1.661-3.857h1.589c-0.125 0.768-0.982 7.857-1.107 9.429-5.875-0.214-8.393-0.214-8.393-0.214h-11.214l-6.714 0.214v-1.821l2.268-0.446c1.589-0.304 2.071-0.768 2.089-2.071 0.107-4.321 0.143-11.482 0.143-11.482s0.054-7.179-0.143-11.518c-0.054-1.482-0.5-1.839-2.089-2.143l-2.268-0.429v-1.821l6.714 0.214h12.536s2.482 0 6.679-0.482c-0.25 2.732-0.554 9.036-0.554 9.036h-1.661l-0.571-2.214c-0.696-2.768-1.625-4.25-3.339-4.25h-9.786c-0.732 0-0.768 0.25-0.768 0.696z"></path>
</svg>
