<svg xmlns="http://www.w3.org/2000/svg" width="32" height="32"><path d="M22.446 19.839l-2.607 2.607a.571.571 0 0 1-.821 0L16 19.428l-3.018 3.018a.571.571 0 0 1-.821 0l-2.607-2.607a.571.571 0 0 1 0-.821L12.572 16l-3.018-3.018a.571.571 0 0 1 0-.821l2.607-2.607a.571.571 0 0 1 .821 0L16 12.572l3.018-3.018a.571.571 0 0 1 .821 0l2.607 2.607a.571.571 0 0 1 0 .821L19.428 16l3.018 3.018a.571.571 0 0 1 0 .821zM4.571 25.143h22.857V6.857H4.571v18.286zM32 5.143v21.714a2.866 2.866 0 0 1-2.857 2.857H2.857A2.866 2.866 0 0 1 0 26.857V5.143a2.866 2.866 0 0 1 2.857-2.857h26.286A2.866 2.866 0 0 1 32 5.143z"/></svg>