<!-- Generated by IcoMoon.io -->
<svg version="1.1" xmlns="http://www.w3.org/2000/svg" width="34" height="32" viewBox="0 0 34 32">
<path d="M23.821 22.036c-0.196-1.286-2.554-0.286-2.696-1.696-0.196-2 2.732-6.321 2.5-8-0.214-1.5-1.214-1.821-2.089-1.839-0.839-0.018-1.054 0.125-1.339 0.286-0.179 0.107-0.411 0.304-0.732-0.018-0.393-0.375-0.696-0.732-1.214-0.804-0.768-0.125-1.107 0.125-1.661 0.607-0.214 0.179-0.75 0.804-1.25 0.571-0.214-0.107-0.964-0.482-1.5-0.714-1.018-0.446-2.5 0.286-3.036 1.25-0.804 1.429-2.375 7.071-2.607 7.821-0.536 1.661 0.679 3.036 2.304 2.946 0.696-0.036 1.143-0.286 1.589-1.089 0.25-0.464 2.607-6.732 2.786-7.036 0.125-0.214 0.554-0.5 0.911-0.321 0.357 0.196 0.429 0.589 0.375 0.946-0.071 0.607-1.75 4.429-1.804 4.857-0.214 1.429 1.679 1.661 2.411 0.25 0.232-0.446 2.857-5.786 3.089-6.143 0.268-0.393 0.464-0.518 0.732-0.5 0.196 0 0.518 0.054 0.446 0.679-0.089 0.589-2.196 4.518-2.429 5.482-0.286 1.286 0.411 2.589 1.554 3.161 0.714 0.357 3.911 0.982 3.661-0.696zM6.839 25.893c0.071 0.357-0.143 0.696-0.5 0.768-0.339 0.071-0.679-0.143-0.75-0.5-0.071-0.339 0.143-0.696 0.482-0.768s0.696 0.143 0.768 0.5zM17.018 30.589c0.286 0.411 0.179 0.964-0.214 1.25-0.411 0.286-0.964 0.179-1.25-0.232-0.268-0.411-0.161-0.964 0.232-1.25 0.411-0.286 0.964-0.179 1.232 0.232zM3.161 16.089c-0.429 0.643-1.286 0.804-1.911 0.357-0.625-0.429-0.786-1.304-0.357-1.929 0.429-0.643 1.286-0.804 1.911-0.375 0.625 0.446 0.786 1.304 0.357 1.946zM26.196 28.179c0.446 0.661 0.286 1.571-0.375 2.036-0.661 0.446-1.554 0.286-2-0.375s-0.286-1.571 0.357-2.036c0.661-0.464 1.554-0.286 2.018 0.375zM28.196 17.393c1.643 2.696 0.946 6.25-1.643 8.071-1.089 0.768-2.321 1.107-3.554 1.071-0.75 2.946-4.339 4.036-6.571 2.036-0.071 0.054-0.161 0.107-0.232 0.179-2.446 1.696-5.768 1.089-7.464-1.393-0.607-0.893-0.911-1.911-0.946-2.929-4.089-0.679-5.625-5.875-2.571-8.732-1.768-2.929 0.036-6.714 3.339-7.179 1.571-4.143 6.732-6.107 10.232-3.393 4.214-1.393 8.518 1.839 8.179 6.321 2.571 0.786 3.304 4.179 1.232 5.946zM8.125 5.607c0.321 0.482 0.214 1.143-0.268 1.482-0.464 0.321-1.125 0.214-1.446-0.268s-0.214-1.143 0.268-1.482c0.464-0.321 1.125-0.214 1.446 0.268zM10.964 0.589c0.089 0.393-0.161 0.786-0.554 0.875s-0.786-0.161-0.875-0.571c-0.071-0.393 0.179-0.786 0.571-0.875s0.786 0.161 0.857 0.571zM32.143 17.518c0.107 0.482-0.196 0.946-0.661 1.036-0.464 0.107-0.929-0.196-1.018-0.661-0.107-0.482 0.196-0.946 0.661-1.054 0.464-0.089 0.929 0.214 1.018 0.679zM20.286 1.571c0.375 0.643 0.179 1.5-0.482 1.893-0.643 0.393-1.482 0.179-1.857-0.464-0.393-0.661-0.179-1.518 0.464-1.911s1.482-0.179 1.875 0.482zM33.607 13.286c0.089 0.357-0.143 0.696-0.482 0.786-0.357 0.071-0.696-0.161-0.768-0.5-0.071-0.357 0.143-0.714 0.5-0.786 0.339-0.071 0.679 0.143 0.75 0.5zM30.196 8.982c0.357 0.536 0.232 1.268-0.286 1.643-0.536 0.357-1.268 0.232-1.625-0.304s-0.232-1.268 0.304-1.643c0.518-0.375 1.25-0.232 1.607 0.304z"></path>
</svg>
